<svg xmlns="http://www.w3.org/2000/svg" xmlns:xlink="http://www.w3.org/1999/xlink" width="24" height="24"><defs><path id="a" d="M19.357 16.06c.26 0 .47.207.47.464v1.442h1.465c.259 0 .469.206.469.462 0 .255-.21.463-.47.463h-1.463v1.442a.468.468 0 0 1-.47.463.467.467 0 0 1-.47-.463V18.89h-1.465a.467.467 0 0 1-.469-.463c0-.256.21-.462.47-.462h1.464v-1.442c0-.257.21-.463.47-.463Zm-9.335-7.793c1.251 0 2.228 1.126 2.685 2.43.456 1.303 1.476 3.02 2.948 3.02-1.377 1.048-2.278 2.652-2.34 4.477h-7c-1.603 0-2.93-1.148-2.93-2.553 0-1.193.714-1.974 1.828-2.368.802-.345 1.64-1.145 2.003-2.576.364-1.432 1.516-2.43 2.806-2.43Zm4.728-.236c.966-1.674 2.72-2.471 3.915-1.781 1.196.69 1.382 2.607.415 4.281-.966 1.674-2.72 2.472-3.915 1.781-1.196-.69-1.381-2.607-.415-4.28ZM1.165 6.25c1.196-.69 2.949.107 3.915 1.781.967 1.674.78 3.59-.415 4.281-1.196.69-2.949-.107-3.915-1.78-.966-1.675-.78-3.592.415-4.282Zm4.89-4.898C7.39.995 8.877 2.22 9.377 4.086s-.175 3.67-1.509 4.028c-1.333.357-2.82-.867-3.32-2.734s.175-3.67 1.509-4.028Zm4.35 2.529c.501-1.867 1.988-3.091 3.322-2.734 1.333.357 2.009 2.16 1.508 4.028-.5 1.867-1.987 3.09-3.32 2.734-1.334-.358-2.01-2.161-1.51-4.028Zm8.952 18.194c-2.04 0-3.703-1.636-3.703-3.647 0-2.01 1.662-3.646 3.703-3.646 2.043 0 3.703 1.636 3.703 3.646 0 2.011-1.66 3.647-3.703 3.647m0-8.218c-2.563 0-4.641 2.047-4.641 4.57 0 2.526 2.078 4.573 4.641 4.573S24 20.953 24 18.428c0-2.524-2.08-4.571-4.643-4.571"/></defs><g fill="none" fill-rule="evenodd"><mask id="b" fill="#fff"><use xlink:href="#a"/></mask><use xlink:href="#a" fill="#0C2340" fill-rule="nonzero"/></g></svg>