<svg xmlns="http://www.w3.org/2000/svg" xmlns:xlink="http://www.w3.org/1999/xlink" width="24" height="20"><defs><path id="a" d="M9.683 18.728a1.001 1.001 0 0 0 .043-1.414L3.312 10.5h19.686a1 1 0 0 0 0-2H3.312l6.414-6.815A1 1 0 0 0 8.269.315l-8 8.5c-.043.045-.063.101-.096.152-.034.053-.076.1-.1.158-.097.24-.097.51 0 .75.024.06.066.105.1.157.033.051.053.107.096.153l8 8.5a1.001 1.001 0 0 0 1.414.043"/></defs><g fill="none" fill-rule="evenodd" transform="translate(.001 .498)"><mask id="b" fill="#fff"><use xlink:href="#a"/></mask><use xlink:href="#a" fill="#D8D8D8"/></g></svg>