<svg xmlns="http://www.w3.org/2000/svg" xmlns:xlink="http://www.w3.org/1999/xlink" width="20" height="24"><defs><path id="a" d="M.271 9.683a1.001 1.001 0 0 0 1.414.043L8.5 3.312v19.686a1 1 0 0 0 2 0V3.312l6.815 6.414a1 1 0 0 0 1.371-1.457l-8.5-8c-.046-.043-.102-.063-.153-.096-.053-.034-.099-.076-.158-.1a1.003 1.003 0 0 0-.75 0c-.059.024-.105.066-.157.1-.05.033-.107.053-.153.096l-8.5 8a1.001 1.001 0 0 0-.043 1.414"/></defs><g fill="none" fill-rule="evenodd" transform="translate(.5)"><mask id="b" fill="#fff"><use xlink:href="#a"/></mask><use xlink:href="#a" fill="#D8D8D8"/></g></svg>