<svg xmlns="http://www.w3.org/2000/svg" xmlns:xlink="http://www.w3.org/1999/xlink" width="24" height="24"><defs><path id="a" d="M11.65 24c2.448 0 4.712-.42 6.792-1.259v-2.4c-2.378.879-4.661 1.318-6.85 1.318-2.874 0-5.078-.761-6.614-2.283-1.535-1.522-2.303-3.698-2.303-6.527 0-2.108.411-3.959 1.233-5.554a8.61 8.61 0 0 1 3.574-3.68c1.56-.859 3.396-1.288 5.506-1.288 1.655 0 3.121.341 4.399 1.024a7.142 7.142 0 0 1 2.957 2.92c.694 1.263 1.04 2.729 1.04 4.397 0 1.542-.23 2.81-.69 3.805-.461.995-1.083 1.493-1.866 1.493-1.03 0-1.545-.78-1.545-2.342v-.35l.327-6.806a14.474 14.474 0 0 0-2.445-.548 17.73 17.73 0 0 0-2.504-.198c-2.07 0-3.72.627-4.948 1.88-1.229 1.254-1.843 2.886-1.843 4.896 0 1.746.463 3.131 1.39 4.156.926 1.024 2.196 1.536 3.811 1.536.892 0 1.694-.19 2.408-.57.713-.381 1.312-.952 1.798-1.713h.178a2.978 2.978 0 0 0 1.16 1.669c.574.41 1.252.614 2.035.614 1.06 0 1.994-.322 2.801-.966.808-.644 1.434-1.544 1.88-2.7.446-1.156.669-2.431.669-3.826 0-2.127-.463-4.003-1.39-5.627-.926-1.625-2.229-2.876-3.908-3.754C17.022.44 15.108 0 12.96 0c-2.487 0-4.714.527-6.68 1.58C4.312 2.634 2.774 4.154 1.664 6.14.554 8.124 0 10.39 0 12.937c0 3.483 1.025 6.197 3.076 8.143 2.05 1.947 4.91 2.92 8.575 2.92Zm-.207-8.034c-1.813 0-2.72-1.137-2.72-3.41 0-1.424.354-2.551 1.063-3.38.708-.83 1.696-1.244 2.964-1.244.714 0 1.383.083 2.007.248l-.179 3.498c-.178 2.859-1.223 4.288-3.135 4.288Z"/></defs><g fill="none" fill-rule="evenodd"><mask id="b" fill="#fff"><use xlink:href="#a"/></mask><use xlink:href="#a" fill="#333" fill-rule="nonzero"/></g></svg>