<svg xmlns="http://www.w3.org/2000/svg" xmlns:xlink="http://www.w3.org/1999/xlink" width="24" height="24"><defs><path id="a" d="M14.301 0a.6.6 0 0 1 .596.6v2.448h3.172c.787 0 1.431.648 1.431 1.452v16.092c0 .804-.644 1.452-1.43 1.452h-.99c.023.096.035.18.035.276 0 .924-.739 1.68-1.657 1.68a1.67 1.67 0 0 1-1.658-1.68c0-.096.012-.18.036-.276H9.901c.024.096.036.18.036.276 0 .924-.74 1.68-1.657 1.68a1.67 1.67 0 0 1-1.658-1.68c0-.096.012-.18.036-.276h-.727c-.787 0-1.431-.648-1.431-1.452V4.5c0-.804.644-1.452 1.43-1.452h3.173V.6a.6.6 0 0 1 .596-.6Zm1.515 22.044H15.1a.467.467 0 0 0-.107.276c0 .264.214.48.465.48.25 0 .465-.216.465-.48a.467.467 0 0 0-.107-.276Zm-7.178 0h-.716a.467.467 0 0 0-.107.276c0 .264.214.48.465.48a.47.47 0 0 0 .465-.48.467.467 0 0 0-.107-.276Zm6.689-16.74a.6.6 0 0 0-.596.6v13.284a.6.6 0 0 0 .596.6.592.592 0 0 0 .596-.6V5.904c0-.336-.262-.6-.596-.6Zm-3.327 0a.592.592 0 0 0-.596.6v13.284c0 .336.262.6.596.6a.6.6 0 0 0 .596-.6V5.904a.6.6 0 0 0-.596-.6Zm-3.327 0a.592.592 0 0 0-.596.6v13.284c0 .336.262.6.596.6a.6.6 0 0 0 .596-.6V5.904a.6.6 0 0 0-.596-.6ZM13.705 1.2h-3.41v1.848h3.41V1.2Z"/></defs><g fill="none" fill-rule="evenodd"><mask id="b" fill="#fff"><use xlink:href="#a"/></mask><use xlink:href="#a" fill="#0C2340" fill-rule="nonzero"/></g></svg>