<svg xmlns="http://www.w3.org/2000/svg" xmlns:xlink="http://www.w3.org/1999/xlink" width="24" height="24"><defs><path id="a" d="M19 1c.5 0 1 .5 1 1v10.5c0 .5-.5 1-1 1s-1-.5-1-1V2c0-.5.5-1 1-1Zm-4.5 5c.5 0 1 .5 1 1v5.5c0 .5-.5 1-1 1s-1-.5-1-1V7c0-.5.5-1 1-1ZM10 3c.5 0 1 .5 1 1v8.5c0 .5-.5 1-1 1s-1-.5-1-1V4c0-.5.5-1 1-1ZM5.5 9c.5 0 1 .5 1 1v2.5c0 .5-.5 1-1 1s-1-.5-1-1V10c0-.5.5-1 1-1ZM23 16H2V1c0-.5-.5-1-1-1S0 .5 0 1v15c0 1 1 2 2 2h21c.5 0 1-.5 1-1s-.5-1-1-1Z"/></defs><g fill="none" fill-rule="evenodd" transform="translate(0 3)"><mask id="b" fill="#fff"><use xlink:href="#a"/></mask><use xlink:href="#a" fill="#0C2340" fill-rule="nonzero"/></g></svg>