<svg xmlns="http://www.w3.org/2000/svg" xmlns:xlink="http://www.w3.org/1999/xlink" width="24" height="24"><defs><path id="a" d="M23.4 4c.336 0 .6.263.6.599V19.4a.594.594 0 0 1-.6.599H.6a.601.601 0 0 1-.6-.599V4.6C0 4.263.276 4 .6 4Zm-1.464 13.006h-4.128v.934h4.128v-.934Zm0-.539h-4.128v.3h4.128v-.3ZM8.04 7.677h-.696l.9 3.449H5.292l-1.212-.91h-.708l1.176 1.76-1.176 1.76h.708l1.14-.862h3.024l-.9 3.461h.696l2.22-3.46h4.584c.48 0 .876-.384.876-.875a.88.88 0 0 0-.876-.874H10.26l-2.22-3.45Zm13.896 7.293h-4.128v.826h4.128v-.826Zm0-1.27h-4.128v.935h4.128V13.7Zm0-1.101h-4.128v.3h4.128v-.3Zm0-.54h-4.128v.288h4.128v-.287Zm0-.526h-4.128v.3h4.128v-.3Zm0-1.461h-4.128v.934h4.128v-.934Zm0-1.39h-4.128v.6h4.128v-.6Zm0-1.005h-4.128v.586h4.128v-.586Zm0-1.617h-4.128v1.245h4.128V6.06Z"/></defs><g fill="none" fill-rule="evenodd"><mask id="b" fill="#fff"><use xlink:href="#a"/></mask><use xlink:href="#a" fill="#0C2340" fill-rule="nonzero"/></g></svg>