<svg xmlns="http://www.w3.org/2000/svg" xmlns:xlink="http://www.w3.org/1999/xlink" width="24" height="24"><defs><path id="a" d="M5.042 4.932h5.184a4.33 4.33 0 0 0-.872 2.052h-2.27L5.043 4.932Zm8.278-1.644a4.09 4.09 0 0 0-1.625.444H7.312a3.132 3.132 0 0 1 3.07-2.532c1.35 0 2.508.864 2.938 2.088Zm3.368 3.696h-6.14c.287-1.44 1.554-2.532 3.07-2.532a3.123 3.123 0 0 1 3.07 2.532Zm-2.233 8.304-.156 3.252-.478.276-.74-2.736-2.066 1.2-.442 1.044-.478.276.107-1.68-1.493-.732.478-.276 1.183.132 2.018-1.164-1.983-2.016.478-.276 2.879 1.5 3.13-1.824a.69.69 0 0 1 .943.264.701.701 0 0 1-.251.948l-3.13 1.812Zm4.503-8.304h-1.075a4.173 4.173 0 0 0-.61-1.692l1.685 1.692Zm1.863.18-3.237-3.252a.584.584 0 0 0-.442-.18h-1.589a3.997 3.997 0 0 0-.979-.36C14.132 1.428 12.412 0 10.382 0 8.196 0 6.416 1.632 6.117 3.732h-2.52c-.394 0-.597.348-.597.6v15.816c0 .18.072.324.203.444l3.213 3.228c.1.118.248.18.418.18h13.569a.593.593 0 0 0 .597-.6V7.584a.558.558 0 0 0-.18-.42Z"/></defs><g fill="none" fill-rule="evenodd"><mask id="b" fill="#fff"><use xlink:href="#a"/></mask><use xlink:href="#a" fill="#0C2340" fill-rule="nonzero"/></g></svg>