<svg xmlns="http://www.w3.org/2000/svg" xmlns:xlink="http://www.w3.org/1999/xlink" width="24" height="24"><defs><path id="a" d="M23 8.41v14.86c0 .41-.326.73-.721.73H1.732A.726.726 0 0 1 1 23.27V8.41h22Zm-15.071 8.1H5.803a.487.487 0 0 0-.483.49v2.15c0 .26.217.48.483.48H7.93c.257 0 .474-.22.474-.48V17c0-.27-.217-.49-.474-.49Zm5.129 0h-2.115a.488.488 0 0 0-.485.49v2.15c0 .26.219.48.485.48h2.115c.267 0 .484-.22.484-.48V17c0-.27-.217-.49-.484-.49Zm5.139 0h-2.115a.487.487 0 0 0-.484.49v2.15c0 .26.217.48.484.48h2.115c.267 0 .485-.22.485-.48V17c0-.27-.218-.49-.485-.49ZM7.929 11.32H5.803a.478.478 0 0 0-.483.48v2.15c0 .27.217.48.483.48H7.93c.257 0 .474-.21.474-.48V11.8a.476.476 0 0 0-.474-.48Zm5.129 0h-2.115a.48.48 0 0 0-.485.48v2.15c0 .27.219.48.485.48h2.115a.48.48 0 0 0 .484-.48V11.8a.478.478 0 0 0-.484-.48Zm5.139 0h-2.115a.478.478 0 0 0-.484.48v2.15c0 .27.217.48.484.48h2.115a.48.48 0 0 0 .485-.48V11.8a.48.48 0 0 0-.485-.48ZM5.132 1.74V4.7c0 .96.77 1.75 1.73 1.75.957 0 1.728-.79 1.728-1.75V1.74h6.82V4.7c0 .96.77 1.75 1.73 1.75.958 0 1.729-.79 1.729-1.75V1.74h3.41c.395 0 .72.33.72.74v4.46H1V2.48c0-.41.326-.74.732-.74h3.4ZM16.398.75c0-1.011 1.483-1.011 1.483 0v3.71a.75.75 0 0 1-.741.75.75.75 0 0 1-.742-.75ZM6.12.75c0-.989 1.483-.989 1.483 0v3.71c0 .41-.337.75-.742.75a.75.75 0 0 1-.74-.75Z"/></defs><g fill="none" fill-rule="evenodd"><mask id="b" fill="#fff"><use xlink:href="#a"/></mask><use xlink:href="#a" fill="#0C2340" fill-rule="nonzero"/></g></svg>