<svg xmlns="http://www.w3.org/2000/svg" xmlns:xlink="http://www.w3.org/1999/xlink" width="24" height="24"><defs><path id="a" d="M18.09 18.113a.782.782 0 0 1-1.107 0L12 13.13l-4.983 4.983a.782.782 0 1 1-1.106-1.106L10.918 12 5.91 6.993a.782.782 0 0 1 1.106-1.106L12 10.87l4.983-4.983a.782.782 0 1 1 1.106 1.106L13.082 12l5.007 5.007c.306.306.306.801 0 1.106ZM12 0C5.373 0 0 5.373 0 12s5.373 12 12 12 12-5.373 12-12S18.627 0 12 0Z"/></defs><g fill="none" fill-rule="evenodd"><mask id="b" fill="#fff"><use xlink:href="#a"/></mask><use xlink:href="#a" fill="#000"/></g></svg>