<svg xmlns="http://www.w3.org/2000/svg" xmlns:xlink="http://www.w3.org/1999/xlink" width="24" height="24"><defs><path id="a" d="M16.833 20c.645 0 1.167.448 1.167 1v2c0 .552-.522 1-1.167 1H5.167C4.522 24 4 23.552 4 23v-2c0-.552.522-1 1.167-1h11.666Zm-.333 1.5h-11v1h11v-1ZM11.061.002c.205.012.406.084.576.217l.098.087 9.96 10.011c.196.196.305.462.305.739 0 .497-.431.885-.893.938l-.228.013L18 12v6c0 .608-.392 1-1 1H5c-.608 0-1-.392-1-1v-6l-3.216.001a.594.594 0 0 1-.377-.116l-.103-.09a1.048 1.048 0 0 1-.086-1.38l.086-.098L10.265.306c.188-.188.429-.29.674-.304h.122Zm-.059 1.689L2.234 10.5H5.5v7h11v-7.004l3.268.01-8.766-8.815ZM12.067 8 15 16h-1.891l-.6-1.896H9.49L8.891 16H7l2.921-8h2.146Zm-1.004 1.469-.06-.232-.158.546-.4 1.297-.512 1.607h2.157l-.937-2.916-.09-.302Z"/></defs><g fill="none" fill-rule="evenodd" transform="translate(1)"><mask id="b" fill="#fff"><use xlink:href="#a"/></mask><use xlink:href="#a" fill="#333" fill-rule="nonzero"/></g></svg>