<svg xmlns="http://www.w3.org/2000/svg" xmlns:xlink="http://www.w3.org/1999/xlink" width="24" height="24"><defs><path id="a" d="M16.833 20c.645 0 1.167.448 1.167 1v2c0 .552-.522 1-1.167 1H5.167C4.522 24 4 23.552 4 23v-2c0-.552.522-1 1.167-1h11.666ZM11.637.219l.098.087 9.96 10.011c.196.196.305.462.305.739 0 .535-.5.944-1 .944l-.121.007L18 12v6c0 .608-.392 1-1 1H5c-.608 0-1-.392-1-1v-6H1c-.23 0-.412.024-.593-.115l-.103-.09a1.048 1.048 0 0 1-.086-1.38l.086-.098L10.265.306a1.035 1.035 0 0 1 1.372-.087ZM12.067 8H9.921L7 16h1.891l.6-1.896h3.018l.6 1.896H15l-2.933-8Zm-1.064 1.237c.03.13.08.309.15.534.07.225.382 1.197.937 2.916H9.933c.589-1.835.945-2.985 1.07-3.45Z"/></defs><g fill="none" fill-rule="evenodd" transform="translate(1)"><mask id="b" fill="#fff"><use xlink:href="#a"/></mask><use xlink:href="#a" fill="#333"/></g></svg>