<svg xmlns="http://www.w3.org/2000/svg" xmlns:xlink="http://www.w3.org/1999/xlink" width="24" height="24"><defs><path id="a" d="M17.417 22.495c2.668 0 4.84-2.335 4.84-5.205s-2.172-5.208-4.84-5.208c-.803 0-1.574.209-2.267.603-.903-3.12-3.627-5.319-6.718-5.319-3.878 0-7.028 3.395-7.028 7.563 0 4.172 3.15 7.566 7.028 7.566 1.899 0 3.682-.811 5.004-2.247.894 1.403 2.367 2.247 3.98 2.247ZM8.432 5.857c2.253 0 4.372.947 5.967 2.658.358.387.869 1.135 1.533 2.243.732-.121 1.227-.182 1.485-.182 3.436 0 6.237 3.012 6.237 6.714 0 3.7-2.8 6.71-6.237 6.71-1.41 0-2.745-.494-3.854-1.436l-.258-.22-.277.195A7.97 7.97 0 0 1 8.432 24c-2.249 0-4.367-.942-5.961-2.655C.878 19.629 0 17.352 0 14.929c0-2.42.878-4.702 2.47-6.414 1.592-1.711 3.713-2.658 5.962-2.658Zm-3.29-1.655C5.718 1.575 8.032-.255 10.59.029c1.143.126 2.177.646 3 1.506l.197.2.238-.134a6.416 6.416 0 0 1 3.827-.767c1.821.203 3.458 1.152 4.611 2.68 1.158 1.528 1.688 3.446 1.5 5.405a7.662 7.662 0 0 1-.768 2.694 1.728 1.728 0 0 1-.066-.114 7.873 7.873 0 0 0-.586-.795c-.044-.052-.093-.108-.14-.165.219-.54.372-1.125.429-1.744.321-3.37-1.96-6.398-5.094-6.744-1.536-.17-3.044.327-4.221 1.366-.614-1.212-1.739-2.026-3.044-2.17-1.737-.192-3.328.877-3.997 2.51-.099.028-.206.05-.305.08-.357.1-.697.225-1.029.365Z"/></defs><g fill="none" fill-rule="evenodd"><mask id="b" fill="#fff"><use xlink:href="#a"/></mask><use xlink:href="#a" fill="#0C2340" fill-rule="nonzero"/></g></svg>