<svg xmlns="http://www.w3.org/2000/svg" xmlns:xlink="http://www.w3.org/1999/xlink" width="24" height="24"><defs><path id="a" d="m5.935 3.561.106.031 4.516 1.674c.502.183.502.183.365.756-.17.608-1.554 5.728-2.574 7.13-.852 1.167-2.056 2.007-3.277 2.782l-.305.193-1.651 4.65c0 .012-.013.012-.013.024.935.447 1.542 1.03 1.409 1.389-.073.198-.377.31-.801.31-.462 0-1.081-.124-1.725-.36-1.25-.47-2.124-1.19-1.967-1.624.073-.21.365-.31.802-.31.263 0 .585.035.938.118l.215.056v-.025l1.652-4.662c-.486-1.513-.96-3.05-.863-4.625.11-1.735 2.259-6.57 2.514-7.141.217-.456.233-.488.659-.366Zm12.13 0c.426-.122.442-.09.66.366.254.57 2.403 5.406 2.513 7.141.097 1.575-.377 3.112-.863 4.625l1.652 4.662v.025l.215-.056c.353-.083.675-.118.938-.118.437 0 .729.1.802.31.157.434-.717 1.153-1.967 1.624-.644.236-1.263.36-1.725.36-.424 0-.728-.112-.8-.31-.134-.36.473-.942 1.408-1.389 0-.012-.013-.012-.013-.024l-1.65-4.65-.306-.193c-1.221-.775-2.425-1.615-3.277-2.783-1.02-1.4-2.404-6.521-2.574-7.129-.137-.573-.137-.573.365-.756l4.516-1.674ZM6.15 4.956c-.219.496-1.08 2.628-1.238 3.025.983.756 1.639.794 2.464.744.365-.025 1.36.074 1.445.087.125-.382.599-1.952.75-2.482l.027-.097L6.15 4.956Zm11.7 0-3.448 1.277.027.097c.151.53.625 2.1.75 2.482.085-.013 1.08-.112 1.445-.087.825.05 1.481.012 2.464-.744-.157-.397-1.02-2.53-1.238-3.025Zm-7.734-3.523 1 1.732a.5.5 0 1 1-.866.5l-1-1.732a.5.5 0 1 1 .866-.5Zm4.451-.183a.5.5 0 0 1 .183.683l-1 1.732a.5.5 0 0 1-.866-.5l1-1.732a.5.5 0 0 1 .683-.183ZM12 .5a.5.5 0 0 1 .5.5v2a.5.5 0 1 1-1 0V1a.5.5 0 0 1 .5-.5Z"/></defs><g fill="none" fill-rule="evenodd"><mask id="b" fill="#fff"><use xlink:href="#a"/></mask><use xlink:href="#a" fill="#0C2340" fill-rule="nonzero"/></g></svg>