<svg xmlns="http://www.w3.org/2000/svg" xmlns:xlink="http://www.w3.org/1999/xlink" width="24" height="24"><defs><path id="a" d="M19 4v5c0 .464.431.929.893.993L20 10h4v13c0 .464-.431.929-.893.993L23 24H9c-.464 0-.929-.431-.993-.893L8 23V5c0-.418.431-.922.893-.992L9 4h10Zm-8-4v3H9l-.142.006c-.937.08-1.77.936-1.852 1.85L7 5v15H1c-.464 0-.929-.431-.993-.893L0 19V1C0 .582.431.078.893.008L1 0h10Zm9 5 4 4h-4V5Zm-8-4 2 2h-2V1Z"/></defs><g fill="none" fill-rule="evenodd"><mask id="b" fill="#fff"><use xlink:href="#a"/></mask><use xlink:href="#a" fill="#000" fill-rule="nonzero"/></g></svg>