<svg xmlns="http://www.w3.org/2000/svg" xmlns:xlink="http://www.w3.org/1999/xlink" width="24" height="24"><defs><path id="a" d="M24 10.163v7.286c0 1.684-1.344 3.051-3 3.051H3c-1.656 0-3-1.367-3-3.051v-7.286h24Zm-16.2 1.83H3c-.324 0-.6.27-.6.611 0 .342.276.61.6.61h4.8c.324 0 .6-.268.6-.61a.607.607 0 0 0-.6-.61ZM21 3.5c1.656 0 3 1.379 3 3.063v1.16H0v-1.16C0 4.88 1.344 3.5 3 3.5Z"/></defs><g fill="none" fill-rule="evenodd"><mask id="b" fill="#fff"><use xlink:href="#a"/></mask><use xlink:href="#a" fill="#0C2340" fill-rule="nonzero"/></g></svg>