<svg xmlns="http://www.w3.org/2000/svg" xmlns:xlink="http://www.w3.org/1999/xlink" width="24" height="24"><defs><path id="a" d="M8.453 2c.132.003.152.019.295.132l2.424 1.94H23.4c.336 0 .6.263.6.599V21.4a.594.594 0 0 1-.6.599H.6a.601.601 0 0 1-.6-.599V2.6C0 2.263.276 2 .6 2ZM12 8a.484.484 0 0 0-.474.494v7.849l-3.228-3.207a.455.455 0 0 0-.605-.039l-.064.06a.52.52 0 0 0 .02.707l4.026 4a.456.456 0 0 0 .65 0l4.026-4a.52.52 0 0 0 .02-.707.456.456 0 0 0-.67-.021l-3.228 3.206V8.494a.49.49 0 0 0-.388-.486Z"/></defs><g fill="none" fill-rule="evenodd"><mask id="b" fill="#fff"><use xlink:href="#a"/></mask></g></svg>