<svg xmlns="http://www.w3.org/2000/svg" xmlns:xlink="http://www.w3.org/1999/xlink" width="24" height="24"><defs><path id="a" d="M16.162 0v5.904c.06.264.287.48.586.48H22.5V23.4c0 .336-.263.6-.598.6H2.098a.593.593 0 0 1-.598-.6V.6c0-.336.263-.6.598-.6h14.064ZM12 8a.484.484 0 0 0-.474.494v7.849l-3.228-3.207a.455.455 0 0 0-.605-.039l-.064.06a.52.52 0 0 0 .02.707l4.026 4a.456.456 0 0 0 .65 0l4.026-4a.52.52 0 0 0 .02-.707.456.456 0 0 0-.67-.021l-3.228 3.206V8.494a.49.49 0 0 0-.388-.486ZM17.346.36l4.819 4.824h-4.82V.36Z"/></defs><g fill="none" fill-rule="evenodd"><mask id="b" fill="#fff"><use xlink:href="#a"/></mask><use xlink:href="#a" fill="#0C2340" fill-rule="nonzero"/></g></svg>