<svg xmlns="http://www.w3.org/2000/svg" xmlns:xlink="http://www.w3.org/1999/xlink" width="24" height="24"><defs><path id="a" d="M2.5 24a2.5 2.5 0 1 1 0-5 2.5 2.5 0 0 1 0 5Zm9.5 0a2.5 2.5 0 1 1 0-5 2.5 2.5 0 0 1 0 5Zm0-9.5a2.5 2.5 0 1 1 0-5 2.5 2.5 0 0 1 0 5Zm9.5 9.5a2.5 2.5 0 1 1 0-5 2.5 2.5 0 0 1 0 5Zm0-9.5a2.5 2.5 0 1 1 0-5 2.5 2.5 0 0 1 0 5Zm0-9.5a2.5 2.5 0 1 1 0-5 2.5 2.5 0 0 1 0 5Z"/></defs><g fill="none" fill-rule="evenodd"><mask id="b" fill="#fff"><use xlink:href="#a"/></mask><use xlink:href="#a" fill="#7C878E"/></g></svg>