<svg xmlns="http://www.w3.org/2000/svg" xmlns:xlink="http://www.w3.org/1999/xlink" width="24" height="24"><defs><path id="a" d="M8.522 16.044a.504.504 0 0 1-.566-.567c.317-2.18.502-3.296.554-3.348l8.178-8.177a.504.504 0 0 1 .713 0l2.648 2.646a.504.504 0 0 1 0 .714l-8.178 8.177c-2.013.34-3.129.526-3.349.555Zm15.33-13.249a.504.504 0 0 1 0 .714L21.91 5.45a.504.504 0 0 1-.713 0l-2.648-2.647a.504.504 0 0 1 0-.713L20.492.148a.504.504 0 0 1 .713 0l2.647 2.647Zm-5.137 13.32a1 1 0 0 1 2 0v6.813a1 1 0 0 1-1 1H1a1 1 0 0 1-1-1V4.3a1 1 0 0 1 1-1h6.87a1 1 0 1 1 0 2H2v16.628h16.715v-5.813Z"/></defs><g fill="none" fill-rule="evenodd"><mask id="b" fill="#fff"><use xlink:href="#a"/></mask><use xlink:href="#a" fill="#0C2340" fill-rule="nonzero"/></g></svg>