<svg xmlns="http://www.w3.org/2000/svg" xmlns:xlink="http://www.w3.org/1999/xlink" width="24" height="24"><defs><path id="a" d="M5.647 6.764a2.093 2.093 0 0 1 2.725 1.148l2.41 5.983 5.636-2.663a1.643 1.643 0 0 1 2.026.513l5.239 5.475a1.154 1.154 0 0 1-1.669 1.595l-2.152-2.25 3.088 4.88a1.287 1.287 0 0 1-2.177 1.376l-3.627-5.733c-.012.002-.02.007-.032.01-4.221.784-6.546 1.213-6.974 1.288-.642.112-2.024.067-2.542-1.204L4.5 9.486a2.088 2.088 0 0 1 1.148-2.722ZM.61 4.92a.966.966 0 0 1 1.252.538l4.885 12.4c.836 1.552 2.303 1.568 2.768 1.528l6.495-1.158a.967.967 0 0 1 .356 1.902c-4.568.807-6.881 1.209-6.94 1.206-2.816.288-4.07-1.89-4.318-2.388-.007-.013-.013-.03-.024-.047-.012-.034-.023-.053-.023-.053L.071 6.175A.96.96 0 0 1 .61 4.92ZM5.41 1.125A2.337 2.337 0 0 1 7.8 3.406a2.33 2.33 0 0 1-2.28 2.388 2.335 2.335 0 0 1-.107-4.669Z"/></defs><g fill="none" fill-rule="evenodd"><mask id="b" fill="#fff"><use xlink:href="#a"/></mask><use xlink:href="#a" fill="#0C2340" fill-rule="nonzero"/></g></svg>