<svg xmlns="http://www.w3.org/2000/svg" xmlns:xlink="http://www.w3.org/1999/xlink" width="24" height="24"><defs><path id="a" d="M9 16a3 3 0 0 1 2.959 2.5H23a1 1 0 0 1 0 2H11.598a2.999 2.999 0 0 1-5.196 0H1a1 1 0 0 1 0-2h5.041A3 3 0 0 1 9 16Zm8-7a3 3 0 0 1 2.959 2.5H23a1 1 0 0 1 0 2h-3.402a2.999 2.999 0 0 1-5.196 0H1a1 1 0 0 1 0-2h13.041A3 3 0 0 1 17 9ZM6 2a3 3 0 0 1 2.959 2.5H23a1 1 0 0 1 0 2H8.598a2.999 2.999 0 0 1-5.196 0H1a1 1 0 1 1 0-2h2.041A3 3 0 0 1 6 2Z"/></defs><g fill="none" fill-rule="evenodd"><mask id="b" fill="#fff"><use xlink:href="#a"/></mask><use xlink:href="#a" fill="#0C2340" fill-rule="nonzero"/></g></svg>