<svg xmlns="http://www.w3.org/2000/svg" xmlns:xlink="http://www.w3.org/1999/xlink" width="24" height="24"><defs><path id="a" d="M21.706 19.72a.65.65 0 0 1 .648.644.645.645 0 0 1-.65.636l-20.046-.001a.65.65 0 0 1-.654-.643.65.65 0 0 1 .657-.636ZM10.17 16.538l13.179.002c.361.003.65.29.65.644 0 .352-.298.639-.655.637l-13.176-.001a.642.642 0 0 1-.652-.642c0-.353.29-.64.654-.64Zm-9.516 0 6.749.002a.65.65 0 0 1 .649.644.647.647 0 0 1-.654.637L.65 17.82a.643.643 0 0 1-.65-.642c0-.353.294-.64.654-.64Zm13.173-3.228a.65.65 0 0 1 .657.638c0 .352-.289.64-.654.642l-13.179.003a.648.648 0 0 1-.65-.64.645.645 0 0 1 .649-.642l13.177-.001Zm9.516 0a.65.65 0 0 1 .657.638.646.646 0 0 1-.654.642l-6.747.003a.645.645 0 0 1-.653-.64.645.645 0 0 1 .649-.642l6.748-.001ZM8.312 3a7.607 7.607 0 0 1 6.592 3.756l.147.251.291-.054a5.896 5.896 0 0 1 1.041-.093c2.816 0 5.126 2.041 5.525 4.688h-1.259c-.385-1.966-2.148-3.458-4.266-3.458-.72 0-1.413.172-2.038.496-.809-2.553-3.261-4.355-6.033-4.355-3.488 0-6.323 2.78-6.323 6.191 0 .387.044.76.117 1.126H.826a6.843 6.843 0 0 1-.097-1.126c0-1.982.79-3.847 2.22-5.249A7.622 7.622 0 0 1 8.312 3Z"/></defs><g fill="none" fill-rule="evenodd"><mask id="b" fill="#fff"><use xlink:href="#a"/></mask><use xlink:href="#a" fill="#0C2340" fill-rule="nonzero"/></g></svg>