<svg xmlns="http://www.w3.org/2000/svg" xmlns:xlink="http://www.w3.org/1999/xlink" width="24" height="24"><defs><path id="a" d="m16.093 14.318 2.724 4.803a3.204 3.204 0 1 1-5.457 0l2.733-4.803Zm-9.055 3.117a2.212 2.212 0 1 1 0 4.425 2.212 2.212 0 0 1 0-4.425ZM8.553 0c2.287 0 4.435.89 6.05 2.5a8.45 8.45 0 0 1 1.395 1.822l.163.29.331-.062a6.752 6.752 0 0 1 1.175-.108C21.156 4.442 24 7.276 24 10.76c0 2.39-1.341 4.466-3.305 5.536l-.738-1.162.021-.055a4.892 4.892 0 0 0 2.601-4.319c0-2.703-2.203-4.902-4.912-4.902a4.92 4.92 0 0 0-2.3.568c-.912-2.936-3.682-5.005-6.814-5.005-3.935 0-7.134 3.193-7.134 7.12a7.102 7.102 0 0 0 3.04 5.817l-.59 1.327a8.62 8.62 0 0 1-1.364-1.11A8.474 8.474 0 0 1 0 8.542 8.49 8.49 0 0 1 2.505 2.5 8.518 8.518 0 0 1 8.553 0Zm1.719 9.14a3.06 3.06 0 1 1-.005 6.12 3.06 3.06 0 0 1 .005-6.12Z"/></defs><g fill="none" fill-rule="evenodd"><mask id="b" fill="#fff"><use xlink:href="#a"/></mask><use xlink:href="#a" fill="#0C2340" fill-rule="nonzero"/></g></svg>