<svg xmlns="http://www.w3.org/2000/svg" xmlns:xlink="http://www.w3.org/1999/xlink" width="24" height="24"><defs><path id="a" d="m4.312 5.041 3.117 13.8c.68 2.137 1.752 3.082 3.333 3.082h6.065a1.04 1.04 0 0 1 0 2.081h-6.065c-2.572 0-4.383-1.593-5.34-4.618L2.282 5.5a1.04 1.04 0 1 1 2.03-.459Zm3.882.366a2.075 2.075 0 0 1 2.464 1.591l1.156 5.148h5.744c.568 0 1.065.29 1.358.73.195.233.735 2.294 1.62 6.183a1.277 1.277 0 0 1-2.511.464l-1.116-4.117H9.996l-.012-.002a2.08 2.08 0 0 1-2.067-1.636L6.603 7.87a2.073 2.073 0 0 1 1.591-2.463Zm2.435 11.11 3.569.101a2 2 0 0 1 1.787 1.226l.318.757a1.403 1.403 0 0 1-1.294 1.945h-3.84a2 2 0 0 1-1.925-1.46l-.164-.584a1.563 1.563 0 0 1 1.549-1.984ZM5.456 1.97a2.316 2.316 0 1 1 4.58.697 2.314 2.314 0 0 1-2.641 1.94 2.313 2.313 0 0 1-1.94-2.637Z"/></defs><g fill="none" fill-rule="evenodd"><mask id="b" fill="#fff"><use xlink:href="#a"/></mask><use xlink:href="#a" fill="#0C2340" fill-rule="nonzero"/></g></svg>