<svg xmlns="http://www.w3.org/2000/svg" xmlns:xlink="http://www.w3.org/1999/xlink" width="24" height="24"><defs><path id="a" d="M6 23.428c0 .315.266.572.594.572h10.729c.32 0 .594-.252.594-.572V21.88a.58.58 0 0 0-.59-.568H6.59a.579.579 0 0 0-.589.568v1.547Zm4.257-11.577a.584.584 0 0 1-.594-.572c0-.32.261-.57.594-.57h3.402c.321 0 .595.25.595.57 0 .309-.274.572-.595.572h-3.402Zm-3.283 8.32h9.954V9.567H6.974v10.606ZM15.23 6.477c0 .275-.234.51-.532.51H9.386a.53.53 0 0 1-.53-.51V2.638c0-.286.243-.51.53-.51h5.311c.298 0 .532.224.532.51v3.838Zm2.094 1.947c.32 0 .583-.25.597-.556.054-1.16.033-4.805-.051-6.462-.011-.252-.202-.457-.452-.525C15.039.284 13.29 0 12.066 0c-1.238 0-2.997.284-5.4.88-.25.068-.44.273-.452.525-.084 1.577-.104 5.289-.05 6.462a.593.593 0 0 0 .596.556h10.563Z"/></defs><g fill="none" fill-rule="evenodd"><mask id="b" fill="#fff"><use xlink:href="#a"/></mask><use xlink:href="#a" fill="#0C2340" fill-rule="nonzero"/></g></svg>