<svg xmlns="http://www.w3.org/2000/svg" xmlns:xlink="http://www.w3.org/1999/xlink" width="24" height="24"><defs><path id="a" d="M16.594 18.334C15.536 21.8 13.7 24 12 24c-1.701 0-3.535-2.2-4.594-5.666Zm-11.29 0c.51 1.867 1.219 3.493 2.116 4.76a12.017 12.017 0 0 1-5.652-4.76Zm16.928 0a12.017 12.017 0 0 1-5.652 4.76c.897-1.267 1.607-2.893 2.117-4.76ZM4.514 13c.04 1.16.161 2.28.348 3.334H.764A11.006 11.006 0 0 1 0 13Zm12.963 0a19.727 19.727 0 0 1-.388 3.334H6.91A19.727 19.727 0 0 1 6.523 13Zm6.522 0a10.97 10.97 0 0 1-.763 3.334h-4.098A23.64 23.64 0 0 0 19.487 13ZM4.862 7.667A24.001 24.001 0 0 0 4.513 11H.001c.08-1.174.348-2.294.763-3.334Zm12.227 0c.215 1.04.348 2.147.388 3.334H6.523c.04-1.187.174-2.294.388-3.334Zm6.148 0c.415 1.04.682 2.16.763 3.333h-4.514a23.64 23.64 0 0 0-.348-3.333ZM7.42.907C6.523 2.173 5.813 3.8 5.304 5.667H1.768A12.021 12.021 0 0 1 7.42.906ZM12 0c1.701 0 3.535 2.2 4.594 5.666H7.406C8.464 2.2 10.3 0 12 0Zm4.58.907a12.014 12.014 0 0 1 5.652 4.76h-3.535c-.509-1.867-1.22-3.494-2.117-4.76Z"/></defs><g fill="none" fill-rule="evenodd"><mask id="b" fill="#fff"><use xlink:href="#a"/></mask><use xlink:href="#a" fill="#0C2340" fill-rule="nonzero"/></g></svg>