<svg xmlns="http://www.w3.org/2000/svg" xmlns:xlink="http://www.w3.org/1999/xlink" width="24" height="24"><defs><path id="a" d="m17.975 9.236-4.745 4.963h5.096L5.435 24l5.674-7.495-4.792.001 5.698-7.27h5.96ZM8.555 0c2.283 0 4.435.891 6.047 2.503A8.587 8.587 0 0 1 16 4.324l.162.291.333-.061a6.29 6.29 0 0 1 1.175-.108c3.487 0 6.331 2.833 6.331 6.322a6.299 6.299 0 0 1-2.592 5.085l-.74-1.22a4.881 4.881 0 0 0 1.909-3.865 4.91 4.91 0 0 0-7.208-4.336 7.168 7.168 0 0 0-6.814-5.01c-3.935 0-7.134 3.195-7.134 7.122 0 2.21 1.02 4.173 2.599 5.48l-.94 1.08c-.194-.164-.39-.337-.575-.518A8.477 8.477 0 0 1 0 8.544c0-2.279.888-4.427 2.505-6.04A8.51 8.51 0 0 1 8.555 0Z"/></defs><g fill="none" fill-rule="evenodd"><mask id="b" fill="#fff"><use xlink:href="#a"/></mask><use xlink:href="#a" fill="#0C2340" fill-rule="nonzero"/></g></svg>