<svg xmlns="http://www.w3.org/2000/svg" xmlns:xlink="http://www.w3.org/1999/xlink" width="24" height="24"><defs><path id="a" d="M12 0c6.624 0 12 5.376 12 12s-5.376 12-12 12C5.364 24 0 18.624 0 12S5.364 0 12 0Zm3.18 21.96c-.48.06-.924.108-1.284.3-.132.06-.228.204-.36.24-.084.012-.204-.048-.288-.036-.18.024-.444.204-.696.324a10.797 10.797 0 0 0 3.192-.66.262.262 0 0 0-.264.012c0-.168-.288-.036-.3-.18Zm-7.116-.9c-.12-.276-.744-.156-.72.24.012.132.096.12.12.3-.132-.06-.156-.24-.336-.264.084-.06.072-.204-.06-.216-.057-.01-.073.02-.079.06l-.004.088c-.002.029-.008.054-.025.068-.156 0-.144-.036-.276 0a.17.17 0 0 0 .024.072c.072.048.144.084.216.12.048 0 .108-.012.144-.048.036.06.06.108.06.156.156.084.324.156.492.228h.024c.06.012-.012-.084-.036-.084.06-.084.132.084.156.144.372.168.768.312 1.164.432-.456-.276-.792-.684-1.224-.996-.012-.228.18-.252.36-.3ZM6.744 2.568c-.696.384-1.344.852-1.932 1.368v.012c.072.156.084.48-.156.492a.404.404 0 0 1-.036-.312 10.57 10.57 0 0 0-2.928 4.668c.06.108.144.228.168.348.024.12-.036.192-.024.3.036.348.312.396.624.624.144.036.12-.084.228-.084.096.396.672.3.696.768.06.096.192.12.204.276.156-.036.144.108.324.12.06-.048.012-.192.12-.18.156.12.168.396.156.684-.12.264-.48.66-.216.948-.228.24.012.624.216.72.108.432.276.804.528 1.092.252.06.348.252.48.42 0 .636.084 1.188.144 1.728.048.3-.06.6-.048.9.012.408.312.66.264 1.104-.048 0-.12-.012-.12.024-.048.18.12.144.144.24.132.432.228.9.636 1.044.084.012.012-.144.084-.144.036-.084.012.252-.084.24.132.18.528.288.768.204-.264-.192-.504-.408-.648-.72.084-.132.156-.276.228-.408-.012-.144-.168-.156-.228-.24-.024-.132.132-.072.18-.12-.048-.048-.036-.156-.036-.24.036-.048.144-.012.144-.096.024-.144-.228-.036-.204-.204a.825.825 0 0 0 .264.036c.048-.108 0-.204 0-.3.444.144.696-.18.48-.504.084 0 .192-.024.24.024.348-.204.468-.648.72-.96.012-.132-.06-.204-.036-.348.12-.18.36-.24.504-.396.144-.012.252.048.36 0 .276-.108.384-.948.336-1.428.108-.084.684-.672.564-1.008-.132-.372-.948-.744-1.488-.684-.08-.18-.227-.245-.389-.292l-.198-.054a1.041 1.041 0 0 1-.193-.074c-.096-.528-.324-.948-1.02-.888-.132-.3-.552-.42-.588-.72-.192-.024-.324.012-.384.12-.12-.072-.168-.036-.336-.036-.048-.108-.168-.144-.204-.264-.144 0-.12.096-.18-.036-.252.12-.492.228-.564.516-.108-.06-.348-.132-.54 0-.312-.264.204-1.164-.564-.924.06-.252.156-.456.204-.72-.036-.024-.072-.036-.096-.048.084-.108.228-.156.444-.144 0-.408-.444-.408-.768-.324a1.055 1.055 0 0 0-.336-.3c.084-.12.18-.216.312-.252.144-.012.144.108.276.12.072-.036.096-.12.084-.24.228-.048.252.048.444 0 .024.252.084.48.18.648.153-.13.157-.309.137-.497l-.027-.228c-.015-.152-.013-.3.07-.427.168-.252.468-.252.564-.564.012-.108-.024-.144-.024-.216.168-.108.228-.348.324-.54.192-.06.24-.264.444-.324.036-.12-.096-.06-.06-.18.084-.192.348-.216.48-.348.007.01.01.022.012.036l.001.1c.003.034.013.068.047.092.192-.132.444-.204.624-.348.024-.132-.048-.168-.144-.18 0-.084.12-.06.12-.156-.024-.096-.228-.024-.3-.084.024-.264.276-.12.444-.24.024-.144-.192-.048-.24-.12.192-.096.516-.06.54-.324.264-.048.408-.216.468-.444-.012-.156-.228-.108-.204-.3a.587.587 0 0 1-.264-.036c-.072-.264-.132-.528-.216-.768Zm7.812-.384c-.048-.06-.168-.036-.264-.036-.144.084-.12.336-.24.444-.012.096.144.012.12.12.012.12-.144.036-.156 0-.192.084-.24.24-.468.216.024.108.036.24.024.384.072.072.216.084.264.18.18-.036.312-.108.396-.24v-.276c.072-.024.132-.06.24-.048-.036.108.084.084.06.204-.072 0-.156-.012-.18.024-.024.12.048.132.024.24-.072 0-.144 0-.18.036.012.072.072.108.18.084-.012.12-.144.144-.18.24.216.072.564.024.744-.036-.06.156.096.084.096.18-.3-.144-.3.12-.66.06-.036.048-.024.132-.024.216.264.132.648.288.468.768-.42.072-.888-.228-1.128.036.18.36-.036.72.036 1.068.168.048.432.024.528.144-.084.084-.18.168-.18.336-.432.096-.372.696-.648.948-.344.13-.527.42-.692.722l-.14.259a2.638 2.638 0 0 1-.152.243c.252.264.132.84-.036 1.104.048.108.12.168.084.36.096.144.252.216.396.3.204.468.444 1.068.948 1.128.228.024.336-.168.54-.18.192-.012.24.132.444.144a1.35 1.35 0 0 0 .228-.089l.222-.109c.147-.069.294-.12.45-.09.252.036.432.492.744.264.108.204.06.624-.036.804.12.384.408.588.48 1.008.564.396-.084.996-.036 1.524.036.264.264.456.3.744.072.552.24.96.516 1.368 0 .084-.108.06-.06.18.058.25.224.226.411.166l.143-.048c.12-.04.238-.07.334-.034l.097-.059.196-.116c.192-.12.363-.261.427-.509.384-.144.396-.648.588-.984h.156c.108-.156.12-.492 0-.648.132-.288.384-.444.624-.624.012-.372.156-.612.06-.9-.048-.132-.228-.204-.24-.324-.072-.468.552-.6.6-1.104.072-.024.108-.084.18-.12.096-.516.456-.924.408-1.488-.216.108-.492.132-.708.18-.084-.096.048-.168.084-.24-.24-.372-.732-.78-.648-1.284-.204-.252-.42-.648-.456-.984.192-.036.252.288.3.48.036.12.156.144.216.24.024.552.444.708.468 1.248.12.096.108.324.276.36.12.024.084-.108.084-.204.324-.216.708-.372.984-.624 0-.228.132-.252.12-.42-.024-.192-.276-.264-.276-.48a.963.963 0 0 1 .216.048 9.554 9.554 0 0 0-.948-2.112c-.372-.024-.516-.312-.408-.672a11.049 11.049 0 0 0-2.94-2.892s.012.012.012.024c-.096.012-.108-.072-.144-.108-.024-.024-.048-.036-.072-.036h-.024c-.192.06-.144.372-.24.54-.36-.132-.684.156-.984-.12.096-.204-.132-.192-.204-.3.072-.216.084-.312 0-.54-.408.024-.348.456-.216.72-.132.012-.348 0-.504.06-.096.12-.12.324-.36.3-.096-.084.108-.156 0-.24-.036-.06-.144-.048-.204-.096-.012-.204-.12-.288-.276-.36.024-.108.048-.204-.12-.204-.012-.12.096-.12.096-.24-.024-.072-.096-.096-.204-.084-.036-.084.036-.084.024-.144Zm-5.1-.684a7.985 7.985 0 0 0-.912.276c-.036.096-.024.144.048.216.12.024.18-.024.276-.024.06.036.072.12.144.144.228-.132.528-.336.444-.612Z"/></defs><g fill="none" fill-rule="evenodd"><mask id="b" fill="#fff"><use xlink:href="#a"/></mask><use xlink:href="#a" fill="#0C2340" fill-rule="nonzero"/></g></svg>