<svg xmlns="http://www.w3.org/2000/svg" width="24" height="24"><g fill="none" fill-rule="evenodd" transform="translate(2)"><polygon fill="#D4D4D0" points="0 0 0 24 10.0004427 20.425364 20 24 20 0"/><g fill="#333" transform="translate(4.336 6.823)"><path d="M1.941 7.41V2.138H0v-.706c.253 0 .5-.018.738-.057.24-.038.456-.109.649-.213a1.47 1.47 0 0 0 .49-.425c.134-.18.226-.408.275-.685h.686V7.41H1.94Z"/><polygon points="6.77283516 0 6.77283516 3.69491892 10.5917363 0 11.8890989 0 8.71393407 2.98897297 12.0156923 7.41016216 10.749978 7.41016216 8.02821978 3.66356757 6.77283516 4.81556757 6.77283516 7.41016216 5.77041758 7.41016216 5.77041758 0"/></g></g></svg>