<svg xmlns="http://www.w3.org/2000/svg" width="24" height="24"><g fill="none" fill-rule="evenodd" transform="translate(2)"><polygon fill="#9F7D23" points="0 0 0 24 10.0004427 20.4251448 20 24 20 0"/><path fill="#FFF" d="M11.225 14.035c-.436.17-.876.254-1.32.254-.562 0-1.065-.102-1.507-.306a3.401 3.401 0 0 1-1.13-.825 3.597 3.597 0 0 1-.706-1.194 4.106 4.106 0 0 1-.243-1.4c0-.54.076-1.054.227-1.542a3.77 3.77 0 0 1 .675-1.282c.3-.366.672-.659 1.118-.877.447-.218.97-.327 1.567-.327.408 0 .793.047 1.155.14.362.094.686.24.97.442.286.2.525.454.718.762.193.308.325.68.396 1.116h-1.002a1.927 1.927 0 0 0-.275-.731 1.759 1.759 0 0 0-.496-.504 2.223 2.223 0 0 0-.67-.296 3.127 3.127 0 0 0-.796-.098c-.457 0-.85.09-1.176.27-.327.18-.595.417-.802.71-.207.295-.36.63-.46 1.007a4.56 4.56 0 0 0-.147 1.157c0 .388.057.76.17 1.116.112.356.277.671.495.944.218.274.487.492.807.654.32.163.69.244 1.113.244.394 0 .742-.062 1.044-.186a2.2 2.2 0 0 0 .765-.514c.208-.218.364-.474.47-.768.105-.294.151-.61.137-.95H9.917v-.83h3.301v3.902h-.633l-.263-.924a2.496 2.496 0 0 1-1.097.836"/></g></svg>