<svg xmlns="http://www.w3.org/2000/svg" xmlns:xlink="http://www.w3.org/1999/xlink" width="24" height="24"><defs><path id="a" d="M7.576 7.429a7.667 7.667 0 0 1 3.534.865 7.613 7.613 0 0 1 3.058 2.949l.146.255.295-.055a5.815 5.815 0 0 1 1.037-.095 5.584 5.584 0 0 1 3.35 1.113 5.562 5.562 0 0 1 2.259 4.463c0 3.074-2.515 5.576-5.609 5.576a5.548 5.548 0 0 1-3.458-1.193l-.235-.182-.249.16A7.551 7.551 0 0 1 7.576 22.5a7.565 7.565 0 0 1-5.358-2.207A7.47 7.47 0 0 1 0 14.964c0-2.012.788-3.905 2.218-5.328a7.565 7.565 0 0 1 5.358-2.207Zm0 1.252c-3.482 0-6.316 2.818-6.316 6.283 0 3.464 2.834 6.285 6.316 6.285a6.326 6.326 0 0 0 4.493-1.865 4.331 4.331 0 0 0 3.577 1.865c2.397 0 4.351-1.94 4.351-4.325 0-1.253-.54-2.378-1.4-3.17a4.377 4.377 0 0 0-2.951-1.155c-.717 0-1.41.173-2.033.5a6.33 6.33 0 0 0-3.398-3.835 6.227 6.227 0 0 0-1.165-.406 6.224 6.224 0 0 0-1.474-.177Zm15.873 1.895c.304 0 .551.25.551.56a.555.555 0 0 1-.551.556h-2.044a.553.553 0 0 1-.55-.557c0-.308.245-.559.55-.559Zm-8.822-4.63c2.795 0 5.075 2.142 5.33 4.86a6.571 6.571 0 0 0-1.317-.58 4.166 4.166 0 0 0-5.404-2.839c-.213-.135-.416-.28-.636-.397-.218-.113-.455-.187-.683-.283.814-.476 1.74-.76 2.71-.76ZM7.605 4.625a.556.556 0 0 1 .786.006l1.49 1.48a.547.547 0 0 1 .006.778.555.555 0 0 1-.784-.005l-1.49-1.479a.553.553 0 0 1-.008-.78Zm13.485-.01a.558.558 0 0 1 .783.022.548.548 0 0 1-.035.783l-1.545 1.423a.556.556 0 0 1-.784-.027.554.554 0 0 1 .036-.78Zm-7.063-3.112a.552.552 0 0 1 .592.511l.165 2.087a.55.55 0 1 1-1.096.086l-.169-2.085a.56.56 0 0 1 .508-.6Z"/></defs><g fill="none" fill-rule="evenodd"><mask id="b" fill="#fff"><use xlink:href="#a"/></mask><use xlink:href="#a" fill="#0C2340" fill-rule="nonzero"/></g></svg>