<svg xmlns="http://www.w3.org/2000/svg" xmlns:xlink="http://www.w3.org/1999/xlink" width="24" height="24"><defs><path id="a" d="M7.134 8.55a7.064 7.064 0 0 1 5.044 2.117c.46.464.847.98 1.161 1.54l.139.245.277-.053c.322-.06.651-.09.977-.09.738 0 1.44.154 2.078.432.383.167.743.386 1.076.635a5.36 5.36 0 0 1 2.125 4.278c0 2.948-2.368 5.346-5.279 5.346a5.166 5.166 0 0 1-3.257-1.142l-.22-.176-.233.154A7.017 7.017 0 0 1 7.134 23a7.06 7.06 0 0 1-5.045-2.114A7.235 7.235 0 0 1 0 15.776c0-1.93.744-3.745 2.09-5.109A7.056 7.056 0 0 1 7.133 8.55Zm0 1.2c-3.28 0-5.948 2.704-5.948 6.026 0 3.32 2.668 6.027 5.948 6.027a5.894 5.894 0 0 0 4.229-1.79 4.062 4.062 0 0 0 3.37 1.79c2.257 0 4.093-1.86 4.093-4.149a4.158 4.158 0 0 0-2.274-3.71 4.034 4.034 0 0 0-3.736.045A6.025 6.025 0 0 0 8.52 9.921a5.695 5.695 0 0 0-1.386-.17Zm6.399-8.69a1.122 1.122 0 0 1 1.15.266c.331.326.425.827.231 1.25a5.56 5.56 0 0 0-.202 4.175c1.017 2.928 4.232 4.49 7.17 3.477a4.9 4.9 0 0 0 .534-.216c.039-.012.073-.03.107-.041a1.115 1.115 0 0 1 1.376 1.514c-.635 1.384-1.867 2.669-3.113 3.47-.154-.344-.282-.696-.504-.99 1.079-.704 2.085-1.81 2.605-2.943a6.935 6.935 0 0 1-.64.257c-3.524 1.212-7.367-.653-8.59-4.165a6.68 6.68 0 0 1 .24-5.001 6.687 6.687 0 0 0-3.86 5.62 7.514 7.514 0 0 0-1.095-.272 7.755 7.755 0 0 1 4.59-6.401Z"/></defs><g fill="none" fill-rule="evenodd"><mask id="b" fill="#fff"><use xlink:href="#a"/></mask><use xlink:href="#a" fill="#0C2340" fill-rule="nonzero"/></g></svg>