<svg xmlns="http://www.w3.org/2000/svg" xmlns:xlink="http://www.w3.org/1999/xlink" width="24" height="24"><defs><path id="a" d="m23.304.512-14.1 2.174a.605.605 0 0 0-.504.598v12.115c-.912-1.063-2.244-1.756-3.756-1.756C2.22 13.643 0 15.853 0 18.577 0 21.29 2.22 23.5 4.944 23.5c2.736 0 4.956-2.21 4.956-4.923V3.785L22.8 1.79v11.04c-.912-1.051-2.244-1.744-3.756-1.744-2.724 0-4.944 2.21-4.944 4.934 0 2.713 2.22 4.923 4.944 4.923 2.736 0 4.956-2.21 4.956-4.923V1.097c0-.45-.21-.642-.696-.585Z"/></defs><g fill="none" fill-rule="evenodd"><mask id="b" fill="#fff"><use xlink:href="#a"/></mask><use xlink:href="#a" fill="#0C2340" fill-rule="nonzero"/></g></svg>