<svg xmlns="http://www.w3.org/2000/svg" xmlns:xlink="http://www.w3.org/1999/xlink" width="24" height="24"><defs><path id="a" d="M14 0v6c0 .5.5 1 1 1h5v16c0 .5-.5 1-1 1H1c-.5 0-1-.5-1-1V1c0-.5.5-1 1-1h13ZM9 17H3c-.5 0-1 .5-1 1s.5 1 1 1h6c.5 0 1-.5 1-1s-.5-1-1-1Zm8-4H3c-.5 0-1 .5-1 1s.5 1 1 1h14c.5 0 1-.5 1-1s-.5-1-1-1Zm0-4H3c-.5 0-1 .5-1 1s.5 1 1 1h14c.5 0 1-.5 1-1s-.5-1-1-1Zm-2-8 5 5h-5V1Z"/></defs><g fill="none" fill-rule="evenodd" transform="translate(2)"><mask id="b" fill="#fff"><use xlink:href="#a"/></mask><use xlink:href="#a" fill="#0C2340" fill-rule="nonzero"/></g></svg>