<svg xmlns="http://www.w3.org/2000/svg" xmlns:xlink="http://www.w3.org/1999/xlink" width="24" height="24"><defs><path id="a" d="M12 8a3.5 3.5 0 1 1 0 7 3.5 3.5 0 0 1 0-7Zm-.4 1.6a.5.5 0 0 0-.8.4v3a.5.5 0 0 0 .8.4l2-1.5a.5.5 0 0 0 0-.8ZM8.58 19.939H5.255a.621.621 0 0 1-.615-.622c0-.349.271-.623.615-.623H8.58c.333 0 .616.274.616.623a.629.629 0 0 1-.616.622Zm10.227 0h-3.324a.629.629 0 0 1-.614-.622.62.62 0 0 1 .614-.623h3.324c.345 0 .616.274.616.623a.621.621 0 0 1-.616.622ZM3.694 7.758c0-1.157.923-2.09 2.068-2.09h12.54c1.145 0 2.068.933 2.068 2.09v7.24c0 1.157-.923 2.09-2.068 2.09H5.762a2.075 2.075 0 0 1-2.068-2.09v-7.24Zm19.729.685c0-3.834-3.077-6.943-6.856-6.943H7.435a6.743 6.743 0 0 0-4.85 2.04A6.835 6.835 0 0 0 .568 8.393L0 21.853a.59.59 0 0 0 .172.461.586.586 0 0 0 .444.186h22.769c.16 0 .32-.062.442-.186a.69.69 0 0 0 .172-.46l-.577-13.411Z"/></defs><g fill="none" fill-rule="evenodd"><mask id="b" fill="#fff"><use xlink:href="#a"/></mask><use xlink:href="#a" fill="#0C2340" fill-rule="nonzero"/></g></svg>