<svg xmlns="http://www.w3.org/2000/svg" xmlns:xlink="http://www.w3.org/1999/xlink" width="24" height="24"><defs><path id="a" d="M5.871 12.119c.53 0 1.046.074 1.543.212a5.901 5.901 0 0 1 3.564 2.793l.059.105.114-.023c.267-.053.54-.08.814-.08 1.731 0 3.227 1.029 3.94 2.507a4.453 4.453 0 0 1 .443 1.931 4.462 4.462 0 0 1-1.95 3.69 4.407 4.407 0 0 1-2.433.746c-.995 0-1.929-.329-2.707-.948l-.09-.072-.099.063A5.775 5.775 0 0 1 5.871 24a5.802 5.802 0 0 1-4.15-1.74A5.945 5.945 0 0 1 0 18.06c0-1.585.611-3.079 1.72-4.2a5.783 5.783 0 0 1 4.108-1.739l.043-.001Zm0 1.266c-2.548 0-4.62 2.097-4.62 4.674 0 2.578 2.072 4.675 4.62 4.675 1.243 0 2.41-.494 3.286-1.387l.129-.13.1.15a3.117 3.117 0 0 0 3.764 1.13 3.172 3.172 0 0 0 1.945-2.933c0-.031-.003-.06-.003-.09a3.139 3.139 0 0 0-.444-1.532 3.118 3.118 0 0 0-2.683-1.55c-.512 0-1.02.13-1.466.371l-.163.087-.05-.176a4.693 4.693 0 0 0-2.507-2.86 4.512 4.512 0 0 0-1.758-.423c-.05-.003-.099-.006-.15-.006Zm12.847 4.947a.511.511 0 0 1 .73 0l2.02 2.043a.525.525 0 0 1 0 .74.518.518 0 0 1-.734.001l-2.016-2.043a.524.524 0 0 1 0-.741ZM12.514 4.545c3.622 0 6.555 2.97 6.555 6.635a6.606 6.606 0 0 1-1.773 4.493 5.945 5.945 0 0 0-.753-1.098 5.291 5.291 0 0 0 1.24-3.395c0-2.947-2.359-5.334-5.269-5.334-2.393 0-4.387 1.625-5.03 3.839a7.269 7.269 0 0 0-1.296-.155c.727-2.862 3.272-4.985 6.326-4.985ZM2.49 10.838a6.995 6.995 0 0 0-1.468 1.047H.517A.52.52 0 0 1 0 11.362c0-.29.23-.524.517-.524Zm20.996 0c.286 0 .515.233.515.524a.518.518 0 0 1-.515.523h-2.858a.52.52 0 0 1-.515-.523c0-.29.23-.524.515-.524ZM3.245 3.183a.515.515 0 0 1 .733 0l2.02 2.045a.528.528 0 0 1 0 .74.514.514 0 0 1-.734 0L3.245 3.923a.53.53 0 0 1 0-.74Zm17.49 0a.515.515 0 0 1 .732 0 .527.527 0 0 1 0 .74l-2.019 2.044a.511.511 0 0 1-.73 0 .523.523 0 0 1 0-.739ZM11.601 0a.52.52 0 0 1 .517.524v2.887a.52.52 0 0 1-.517.526.52.52 0 0 1-.515-.526V.524c0-.29.23-.524.515-.524Z"/></defs><g fill="none" fill-rule="evenodd"><mask id="b" fill="#fff"><use xlink:href="#a"/></mask><use xlink:href="#a" fill="#0C2340" fill-rule="nonzero"/></g></svg>