<svg xmlns="http://www.w3.org/2000/svg" xmlns:xlink="http://www.w3.org/1999/xlink" width="14" height="24"><defs><path id="a" d="M8.527 2.352H6.532a.376.376 0 0 1-.377-.372c0-.192.17-.36.377-.36h1.995a.366.366 0 0 1 0 .732Zm-3.053 0a.366.366 0 0 1 0-.732c.206 0 .377.168.377.36 0 .204-.17.372-.377.372ZM2.53 0C1.131 0 0 1.128 0 2.508v1.464h14V2.508C14 1.128 12.869 0 11.47 0H2.53Zm4.464 21.024a1 1 0 0 1 1.01.996 1 1 0 0 1-1.01.996.998.998 0 0 1-.998-.996c0-.513.388-.932.882-.99l.116-.006ZM0 20.04v1.464C0 22.884 1.131 24 2.53 24h8.94c1.399 0 2.53-1.116 2.53-2.496V20.04H0ZM0 5.172V18.84h14V5.172H0Z"/></defs><g fill="none" fill-rule="evenodd"><mask id="b" fill="#fff"><use xlink:href="#a"/></mask><use xlink:href="#a" fill="#0C2340" fill-rule="nonzero"/></g></svg>