<svg xmlns="http://www.w3.org/2000/svg" xmlns:xlink="http://www.w3.org/1999/xlink" width="24" height="24"><defs><path id="a" d="M12.383 0c.291 0 .528.226.528.504a.487.487 0 0 1-.08.267L10 4v5l3.928 5.364c.147.24.062.496-.19.636-.08.045-.173 0-.266 0H8.5l-1.02 8.55a.46.46 0 0 1-.48.447c-.26 0-.499-.167-.525-.447L5.5 15H.528C.236 15 0 14.896 0 14.618c0-.09.025-.177.072-.254L4 9V4L1.17.771a.49.49 0 0 1 .167-.694.547.547 0 0 1 .28-.077h10.766Z"/></defs><g fill="none" fill-rule="evenodd" transform="translate(5)"><mask id="b" fill="#fff"><use xlink:href="#a"/></mask><use xlink:href="#a" fill="#D8D8D8"/></g></svg>