<svg xmlns="http://www.w3.org/2000/svg" xmlns:xlink="http://www.w3.org/1999/xlink" width="24" height="19"><defs><path id="a" d="M9.75 11.975a1.125 1.125 0 1 0 2.25 0 1.125 1.125 0 0 0-2.25 0m3 .45a1.125 1.125 0 1 0 2.25 0 1.125 1.125 0 0 0-2.25 0M6.5 9.544c10.347 1.779 15.767 2.645 16.365 2.575 1.196-.141 1.446-.806.753-1.72-.368-.423-1.623-1.886-3.23-2.105-1.134-.096-2.87-.4-5.096-.655L10.945.753A1.51 1.51 0 0 0 9.976.12L8.948.003c-.449-.016-.94.03-.895.245L9.655 6.54c-2.013-.301-3.684-.562-5.077-.826-1.452-1.868-2.232-2.93-2.684-3.224-.43-.188-1.458-.306-1.497.036.095.983.255 2.008.457 2.969-.724.264-1.022.438-.76.884.325.489 3.083 2.472 6.405 3.166M23 19H1a1 1 0 1 1 0-2h22a1 1 0 0 1 0 2Z"/></defs><g fill="none" fill-rule="evenodd"><mask id="b" fill="#fff"><use xlink:href="#a"/></mask><use xlink:href="#a" fill="#333"/></g></svg>