<svg xmlns="http://www.w3.org/2000/svg" xmlns:xlink="http://www.w3.org/1999/xlink" width="24" height="19"><defs><path id="a" d="M23 17a1 1 0 0 1 0 2H1a1 1 0 0 1 0-2h22ZM19.361 1.237c1.424-.675 3.223-.15 3.748 0 1.05.375 1.2 1.05.3 1.8-.45.374-5.323 2.549-14.695 6.597-3.074 1.2-6.373 1.05-6.898.825-.45-.225-.3-.525.15-1.124A26.677 26.677 0 0 1 .017 7.16c-.15-.3.749-.75 1.199-.825.525 0 1.725.45 3.899 1.2 1.275-.525 2.774-1.2 4.574-2.024L5.04 1.237c-.15-.15.225-.45.6-.675l.9-.45a1.469 1.469 0 0 1 1.124 0l7.198 3.299c1.949-.974 3.524-1.65 4.499-2.174"/></defs><g fill="none" fill-rule="evenodd"><mask id="b" fill="#fff"><use xlink:href="#a"/></mask><use xlink:href="#a" fill="#333"/></g></svg>