<svg xmlns="http://www.w3.org/2000/svg" xmlns:xlink="http://www.w3.org/1999/xlink" width="24" height="24"><defs><path id="a" d="M12 24c6.627 0 12-5.373 12-12S18.627 0 12 0 0 5.373 0 12s5.373 12 12 12Zm-.545-6v-4.539h1.054c1.436 0 2.544-.33 3.323-.99.779-.66 1.168-1.613 1.168-2.86 0-1.198-.366-2.1-1.097-2.704-.731-.605-1.8-.907-3.204-.907H9v12h2.455Zm0-6.55V8.012h1.117c.67 0 1.163.137 1.478.412.314.274.47.7.47 1.275 0 .57-.187 1.005-.562 1.303-.375.298-.94.448-1.695.448h-.808Z"/></defs><g fill="none" fill-rule="evenodd"><mask id="b" fill="#fff"><use xlink:href="#a"/></mask><use xlink:href="#a" fill="#0C2340"/></g></svg>