<svg xmlns="http://www.w3.org/2000/svg" xmlns:xlink="http://www.w3.org/1999/xlink" width="24" height="24"><defs><path id="a" d="m22.901 8.42-7.403-.145-2.436-7.029A1.104 1.104 0 0 0 11.994.5c-.48 0-.888.289-1.056.746L8.502 8.275 1.1 8.419c-.48.012-.888.313-1.044.77-.144.47 0 .964.396 1.252l5.903 4.49-2.148 7.113c-.108.349-.172.786.346 1.183s1.178.2 1.37.068l6.072-4.248 6.084 4.248c.192.133.94.308 1.381-.068.443-.377.443-.834.335-1.183l-2.148-7.113 5.903-4.49c.396-.288.54-.782.396-1.251a1.122 1.122 0 0 0-1.044-.77Z"/></defs><g fill="none" fill-rule="evenodd"><mask id="b" fill="#fff"><use xlink:href="#a"/></mask><use xlink:href="#a" fill="#0C2340" fill-rule="nonzero"/></g></svg>