<svg xmlns="http://www.w3.org/2000/svg" xmlns:xlink="http://www.w3.org/1999/xlink" width="24" height="24"><defs><path id="a" d="m22.545 7.918 1.429-5.253c.112-.409-.147-.78-.577-.83-.43-.05-.869.241-.98.65l-.754 2.773a11.768 11.768 0 0 0-2.647-2.819 9.561 9.561 0 0 0-.314-.243 11.752 11.752 0 0 0-1.079-.686c-.144-.08-.293-.147-.439-.22-.193-.099-.383-.202-.58-.289-.238-.105-.48-.19-.722-.279-.115-.042-.227-.09-.342-.129-.25-.083-.504-.148-.757-.213-.117-.03-.233-.067-.351-.094-.231-.052-.463-.088-.695-.125-.15-.025-.298-.055-.449-.074-.193-.023-.387-.033-.58-.048-.195-.015-.389-.033-.584-.038-.15-.004-.3.004-.451.006-.236.003-.473.004-.71.021-.119.01-.236.03-.354.04-.263.028-.525.055-.787.1-.117.021-.231.052-.347.075-.256.052-.511.103-.765.172-.209.057-.415.132-.621.2-.154.052-.309.094-.461.152-.74.28-1.454.636-2.131 1.065-.067.042-.127.091-.193.135-.256.17-.51.342-.754.532-.152.12-.292.25-.437.374-.146.125-.296.245-.436.378-.224.214-.433.44-.638.668-.053.06-.11.111-.161.171a11.778 11.778 0 0 0-1.369 1.95c-.08.143-.145.291-.219.437-.098.192-.202.383-.288.581-.106.24-.193.483-.282.726-.041.113-.089.223-.127.337-.083.252-.149.507-.214.762-.03.115-.066.23-.092.347-.053.23-.088.462-.126.696-.025.15-.055.298-.074.448-.023.193-.033.388-.048.581-.014.194-.033.387-.038.582-.004.152.004.303.007.455.003.236.004.47.021.706.009.12.028.24.04.36.028.26.055.521.1.781.02.12.051.235.075.352.052.254.102.508.171.76.057.21.132.414.2.62.052.155.094.31.152.463.28.74.637 1.453 1.066 2.13.042.067.091.128.134.194.169.256.342.51.533.753.118.153.248.292.373.438.126.145.245.295.379.435.213.225.439.433.667.64.059.051.111.108.171.16.606.524 1.259.982 1.949 1.368.145.081.295.147.442.222.191.097.38.2.577.286.24.107.485.194.729.282.112.041.221.09.334.126.253.083.507.15.763.214.116.031.229.067.346.093.231.052.463.088.696.126.15.024.298.055.448.073.194.025.388.034.582.048.194.015.387.033.581.04.152.002.303-.006.455-.008.236-.003.47-.005.706-.02.12-.01.24-.029.36-.042.26-.028.521-.054.781-.099.119-.02.235-.052.353-.076.254-.052.508-.102.76-.17.207-.058.409-.13.614-.199.156-.052.314-.095.469-.153.422-.16.833-.35 1.236-.558.249-.129.493-.265.729-.408.115-.07.226-.147.339-.22a11.478 11.478 0 0 0 1.505-1.173c.044-.04.09-.077.133-.118.265-.25.514-.515.753-.787.042-.048.082-.099.123-.148.206-.242.4-.492.585-.749.026-.037.056-.068.082-.105.02-.029.037-.06.057-.089.104-.152.203-.308.3-.464.064-.1.128-.203.189-.306.019-.035.042-.067.061-.1l-.004-.003c.002-.004.006-.005.008-.009.002-.005 0-.01.003-.013a11.774 11.774 0 0 0 1.531-5.572l-.005.001c0-.004.003-.008.003-.01-.015-.51-.565-.908-1.227-.888-.662.02-1.187.448-1.172.958.001.04.025.073.033.111l-.014.001a9.429 9.429 0 0 1-1.275 4.311c-.005.01-.017.014-.022.024-.003.006-.002.012-.004.018-.06.103-.119.206-.183.307a9.46 9.46 0 0 1-.535.771c-.037.048-.074.097-.113.144a9.363 9.363 0 0 1-1.804 1.696l-.2.14c-.343.233-.7.451-1.081.643-.288.143-.579.27-.872.382-.124.047-.251.082-.376.123-.163.054-.326.113-.49.158-.202.056-.408.097-.613.138-.092.02-.184.044-.277.06-.208.035-.418.057-.628.08-.095.01-.19.025-.285.031-.188.014-.377.014-.566.017-.121.002-.242.01-.363.006-.155-.004-.31-.02-.465-.03-.155-.013-.312-.02-.466-.039-.119-.015-.237-.039-.355-.059a9.359 9.359 0 0 1-.56-.1c-.092-.02-.183-.05-.274-.074-.205-.053-.411-.106-.613-.173-.089-.029-.175-.066-.263-.098-.198-.073-.395-.143-.587-.228-.159-.07-.314-.153-.469-.232-.116-.059-.233-.11-.346-.174a9.422 9.422 0 0 1-1.56-1.095c-.047-.04-.09-.087-.137-.129a10.335 10.335 0 0 1-.534-.51c-.106-.112-.203-.234-.304-.35-.099-.116-.203-.229-.297-.349a8.975 8.975 0 0 1-.427-.604c-.035-.052-.074-.1-.107-.154a9.456 9.456 0 0 1-.852-1.704c-.046-.12-.08-.245-.121-.367-.055-.166-.115-.332-.161-.499-.054-.199-.094-.402-.135-.604-.02-.095-.045-.19-.062-.285-.036-.208-.057-.416-.079-.624-.01-.096-.025-.193-.033-.29-.013-.187-.014-.375-.017-.562-.001-.122-.008-.245-.005-.367.004-.154.019-.308.031-.46.011-.158.019-.316.038-.47.015-.119.039-.237.058-.355.031-.188.06-.375.102-.56.02-.093.05-.185.073-.276.053-.205.105-.41.172-.612.029-.089.067-.175.1-.263a8.45 8.45 0 0 1 .227-.586c.068-.156.149-.306.227-.458.06-.119.114-.24.179-.359a9.632 9.632 0 0 1 1.094-1.558c.041-.047.087-.09.128-.136.166-.185.335-.366.512-.535.111-.105.231-.2.347-.302.117-.1.231-.205.351-.3.192-.148.394-.287.599-.423.054-.035.105-.076.159-.11a9.642 9.642 0 0 1 1.703-.851c.125-.048.253-.084.38-.125.162-.055.324-.113.487-.158.2-.054.403-.095.607-.136.094-.02.188-.045.283-.06a8.8 8.8 0 0 1 .627-.08c.095-.01.191-.026.286-.033.188-.014.377-.014.566-.017.121-.002.242-.009.363-.006.155.004.31.02.466.031.155.012.31.02.465.04.12.013.239.04.359.058.186.03.372.06.556.1.094.021.187.051.28.075.204.053.407.104.606.17.092.03.182.07.272.102.195.072.39.141.579.225.16.07.316.154.473.234.114.06.231.11.342.172.274.155.543.323.806.507h.002a9.4 9.4 0 0 1 2.369 2.414l.32.361h-.459l-2.931-.232c-.422-.033-.845.281-.943.703-.099.421.164.79.587.823l5.427.43-.009-.022c.401.013.805-.246.912-.639"/></defs><g fill="none" fill-rule="evenodd"><mask id="b" fill="#fff"><use xlink:href="#a"/></mask><use xlink:href="#a" fill="#0C2340"/></g></svg>