<svg xmlns="http://www.w3.org/2000/svg" xmlns:xlink="http://www.w3.org/1999/xlink" width="24" height="24"><defs><path id="a" d="m18.717 14.12 2.162 2.162c.161.16.161.422 0 .582l-6.678 6.68-2.734.452a.412.412 0 0 1-.463-.463c.26-1.78.41-2.692.453-2.734l6.678-6.678c.16-.161.421-.161.582 0ZM13.25 0v5c0 .38.282.693.648.743L14 5.75h6v3.645c0 .251-2.406 2.876-5.083 5.665l-.414.43-.8.828C10.852 19.251 8.055 22 7.792 22H2a1 1 0 0 1-1-1V1a1 1 0 0 1 1-1h11.25ZM9.97 14.61H4.495c-.273 0-.495.336-.495.75 0 .377.183.689.422.742l.073.009H9.97c.274 0 .495-.336.495-.75 0-.415-.221-.75-.495-.75Zm12.033-3.504 1.892 1.891a.36.36 0 0 1 0 .51l-1.389 1.388a.36.36 0 0 1-.51 0l-1.89-1.891a.36.36 0 0 1 0-.51l1.388-1.388a.36.36 0 0 1 .51 0Zm-8.783-.032H4.495c-.273 0-.495.336-.495.75 0 .377.183.688.422.742l.073.008h8.725c.273 0 .495-.336.495-.75s-.222-.75-.495-.75Zm0-3.537H4.495c-.273 0-.495.336-.495.75 0 .377.183.689.422.742l.073.008h8.725c.273 0 .495-.336.495-.75s-.222-.75-.495-.75ZM8.683 4H4.495C4.222 4 4 4.336 4 4.75c0 .377.183.688.422.742l.073.008h4.188c.273 0 .495-.336.495-.75S8.956 4 8.683 4ZM14.75.042a1 1 0 0 1 .418.247L19.17 4.25h-4.42V.042Z"/></defs><g fill="none" fill-rule="evenodd"><mask id="b" fill="#fff"><use xlink:href="#a"/></mask><use xlink:href="#a" fill="#0C2340" fill-rule="nonzero"/></g></svg>