<svg xmlns="http://www.w3.org/2000/svg" xmlns:xlink="http://www.w3.org/1999/xlink" width="24" height="24"><defs><path id="a" d="M.75 17.279a.75.75 0 0 1 .75.75v3.558c0 .457.335.835.773.902l.14.011H6.45a.75.75 0 1 1 0 1.5H1.92A1.92 1.92 0 0 1 0 22.08v-4.051a.75.75 0 0 1 .75-.75Zm22.5 0a.75.75 0 0 1 .75.75v4.051c0 1.06-.86 1.92-1.92 1.92h-4.53a.75.75 0 1 1 0-1.5h4.037a.913.913 0 0 0 .902-.773l.011-.14v-3.558a.75.75 0 0 1 .75-.75ZM4.562 6v12H4V6h.563ZM20 6v12h-.563V6H20ZM5.125 6v11.991h-.286V6h.286Zm.84 0v11.991h-.277V6h.276Zm1.401 0v11.991H7.09V6h.277Zm1.402 0v11.991h-.554V6h.554Zm1.125 0v11.991h-.277V6h.277Zm.562 0v11.991h-.276V6h.276Zm.563 0v11.991h-.277V6h.277Zm1.402 0v11.991h-.563V6h.563Zm1.401 0v11.991h-.562V6h.562Zm1.125 0v11.991h-.562V6h.562Zm1.125 0v11.991h-.562V6h.562Zm.84 0v11.991h-.563V6h.563Zm1.687 0v11.991h-.84V6h.84Zm.563 0v11.991h-.286V6h.286Zm2.919-6C23.14 0 24 .86 24 1.92v5.009a.75.75 0 1 1-1.5 0V2.413a.913.913 0 0 0-.885-.913H17.55a.75.75 0 0 1 0-1.5h4.53ZM6.45 0a.75.75 0 0 1 0 1.5H2.413a.913.913 0 0 0-.913.885v4.544a.75.75 0 0 1-1.5 0V1.92C0 .86.86 0 1.92 0h4.53Z"/></defs><g fill="none" fill-rule="evenodd"><mask id="b" fill="#fff"><use xlink:href="#a"/></mask><use xlink:href="#a" fill="#949494" fill-rule="nonzero"/></g></svg>