<svg xmlns="http://www.w3.org/2000/svg" xmlns:xlink="http://www.w3.org/1999/xlink" width="24" height="24"><defs><path id="a" d="M.75 17.279a.75.75 0 0 1 .75.75v3.558c0 .457.335.835.773.902l.14.011H6.45a.75.75 0 1 1 0 1.5H1.92A1.92 1.92 0 0 1 0 22.08v-4.051a.75.75 0 0 1 .75-.75Zm22.5 0a.75.75 0 0 1 .75.75v4.051c0 1.06-.86 1.92-1.92 1.92h-4.53a.75.75 0 1 1 0-1.5h4.037a.913.913 0 0 0 .902-.773l.011-.14v-3.558a.75.75 0 0 1 .75-.75Zm-7.983-9.557V20H8.734V7.722h6.533Zm-7.36 0V20H5.8c-.944 0-1.719-.705-1.794-1.6L4 18.258V9.465c0-.29.074-.555.193-.794A1.814 1.814 0 0 1 5.64 7.73l.16-.007h2.107Zm10.293 0c.7 0 1.306.388 1.607.95.095.19.162.397.184.622l.009.17v8.794c0 .913-.728 1.663-1.653 1.736L18.2 20h-2.107V7.722H18.2ZM22.08 0C23.14 0 24 .86 24 1.92v5.009a.75.75 0 1 1-1.5 0V2.413a.913.913 0 0 0-.885-.913H17.55a.75.75 0 0 1 0-1.5h4.53ZM6.45 0a.75.75 0 0 1 0 1.5H2.413a.913.913 0 0 0-.913.885v4.544a.75.75 0 0 1-1.5 0V1.92C0 .86.86 0 1.92 0h4.53ZM12 4c1.766 0 3.24 1.107 3.58 2.583l.033.172H14.6c-.26-1.02-1.326-1.788-2.6-1.788-1.21 0-2.233.693-2.555 1.637l-.045.151H8.387C8.647 5.194 10.167 4 12 4Z"/></defs><g fill="none" fill-rule="evenodd"><mask id="b" fill="#fff"><use xlink:href="#a"/></mask><use xlink:href="#a" fill="#949494" fill-rule="nonzero"/></g></svg>