<svg xmlns="http://www.w3.org/2000/svg" xmlns:xlink="http://www.w3.org/1999/xlink" width="24" height="24"><defs><path id="a" d="M11 0c5.523 0 10 4.477 10 10 0 2.91-1.243 5.53-3.227 7.357l4.934 4.936a1 1 0 0 1-1.414 1.414l-5-5a1.005 1.005 0 0 1-.121-.147A9.95 9.95 0 0 1 11 20C5.477 20 1 15.523 1 10S5.477 0 11 0Zm0 2a8 8 0 1 0 0 16 8 8 0 0 0 0-16Z"/></defs><g fill="none" fill-rule="evenodd"><mask id="b" fill="#fff"><use xlink:href="#a"/></mask><use xlink:href="#a" fill="#0C2340" fill-rule="nonzero"/></g></svg>