<svg xmlns="http://www.w3.org/2000/svg" xmlns:xlink="http://www.w3.org/1999/xlink" width="24" height="24"><defs><path id="a" d="M7.694 18.41a2.792 2.792 0 0 1 2.79 2.796A2.791 2.791 0 0 1 7.694 24a2.796 2.796 0 1 1 0-5.59Zm9.003-2.188a2.862 2.862 0 0 1 2.859 2.864 2.863 2.863 0 0 1-2.86 2.868 2.862 2.862 0 0 1-2.861-2.868 2.862 2.862 0 0 1 2.862-2.864ZM8.553 0c2.287 0 4.435.89 6.05 2.504a8.388 8.388 0 0 1 1.395 1.824l.163.29.331-.063c.389-.07.785-.11 1.175-.11 3.489 0 6.333 2.84 6.333 6.331a6.316 6.316 0 0 1-3.305 5.543l-.738-1.165.021-.053a4.906 4.906 0 0 0 2.601-4.325 4.917 4.917 0 0 0-7.212-4.34A7.166 7.166 0 0 0 8.553 1.42c-3.935 0-7.134 3.2-7.134 7.131a7.121 7.121 0 0 0 3.04 5.828l-.59 1.326a8.603 8.603 0 0 1-1.364-1.108A8.497 8.497 0 0 1 0 8.551C0 6.268.891 4.12 2.505 2.504A8.506 8.506 0 0 1 8.553 0Zm1.467 9.349a3.17 3.17 0 0 1 3.168 3.173 3.17 3.17 0 1 1-6.338 0 3.171 3.171 0 0 1 3.17-3.173Z"/></defs><g fill="none" fill-rule="evenodd"><mask id="b" fill="#fff"><use xlink:href="#a"/></mask><use xlink:href="#a" fill="#0C2340" fill-rule="nonzero"/></g></svg>