<svg xmlns="http://www.w3.org/2000/svg" xmlns:xlink="http://www.w3.org/1999/xlink" width="24" height="24"><defs><path id="a" d="M9.913 14.472c.304 0 .552.247.552.556v2.865l2.014-2.025a.56.56 0 0 1 .79-.003.553.553 0 0 1-.003.783l-2.023 2.034h2.86a.552.552 0 0 1 0 1.107h-2.86l2.026 2.036a.56.56 0 0 1 .16.387.564.564 0 0 1-.553.558.564.564 0 0 1-.397-.167l-2.014-2.023v2.866a.555.555 0 0 1-.552.554.557.557 0 0 1-.555-.554V20.58L7.34 22.603a.547.547 0 0 1-.79-.003.548.548 0 0 1-.155-.385c0-.153.053-.285.153-.39l2.032-2.036H5.719a.555.555 0 0 1 0-1.107H8.58l-2.027-2.035a.548.548 0 0 1-.158-.389.541.541 0 0 1 .55-.55c.149 0 .289.055.395.16l2.017 2.024v-2.864c0-.309.249-.556.555-.556Zm-2.326-7.69c.71 0 1.402.116 2.058.33.357.112.705.254 1.038.427a6.7 6.7 0 0 1 1.563 1.146c.423.414.783.88 1.072 1.383l.128.219.256-.047c.298-.052.602-.08.904-.08a4.904 4.904 0 0 1 3.558 1.528 4.764 4.764 0 0 1 1.317 3.277c0 1.65-.86 3.102-2.156 3.965l-.65-.858c1.027-.665 1.711-1.806 1.711-3.107 0-2.056-1.696-3.727-3.78-3.727-.623 0-1.227.148-1.774.432C12.13 9.438 9.999 7.86 7.587 7.86c-3.03 0-5.492 2.432-5.492 5.415 0 1.586.695 3.006 1.8 3.996l-.698.809c-.085-.077-.185-.134-.267-.216A6.397 6.397 0 0 1 1 13.276a6.39 6.39 0 0 1 1.93-4.591A6.606 6.606 0 0 1 7.587 6.78ZM13.331.053a1.062 1.062 0 0 1 1.065.238c.304.294.389.743.211 1.124a4.881 4.881 0 0 0-.187 3.756c.941 2.63 3.911 4.035 6.622 3.126.167-.059.338-.123.494-.197.035-.012.066-.025.096-.034.373-.126.78-.036 1.065.237.304.292.389.742.211 1.122-.587 1.245-1.727 2.403-2.877 3.12-.143-.308-.26-.627-.468-.888.997-.635 1.926-1.63 2.407-2.648-.19.087-.383.164-.59.233-3.254 1.089-6.806-.588-7.933-3.746A5.87 5.87 0 0 1 13.669 1c-2.092.942-3.417 2.907-3.569 5.055-.005-.002-.01-.006-.017-.006a7.19 7.19 0 0 0-.993-.24c.228-2.42 1.73-4.632 4.145-5.717.03-.012.061-.025.096-.037Z"/></defs><g fill="none" fill-rule="evenodd"><mask id="b" fill="#fff"><use xlink:href="#a"/></mask><use xlink:href="#a" fill="#0C2340" fill-rule="nonzero"/></g></svg>