<svg xmlns="http://www.w3.org/2000/svg" xmlns:xlink="http://www.w3.org/1999/xlink" width="24" height="24"><defs><path id="a" d="m6.224 9.585.112 1.932c-1.33 1.133-2.185 2.801-2.185 4.673 0 3.414 2.79 6.174 6.23 6.174a6.2 6.2 0 0 0 6.068-4.9l1.108 1.902A7.874 7.874 0 0 1 10.381 24C6.026 24 2.5 20.499 2.5 16.19c0-2.798 1.497-5.226 3.724-6.605Zm2.844-4.684a2.034 2.034 0 0 1 2.135 1.887l.138 1.785h3.921c.532.02.946.423.946.943 0 .528-.426.921-.946.953h-3.81l.048 1.569h5.248c.4.012.79.222 1.013.59l3.575 6.118c.327.601.155 1.319-.42 1.66-.582.345-1.35.124-1.684-.416l-2.777-4.77H9.657c-1.105.006-2.042-.785-2.136-1.889l-.365-6.308a2.025 2.025 0 0 1 1.912-2.122ZM9.032 0c1.163 0 2.096.926 2.096 2.079 0 1.14-.933 2.078-2.096 2.078A2.093 2.093 0 0 1 6.935 2.08C6.935.926 7.875 0 9.032 0Z"/></defs><g fill="none" fill-rule="evenodd"><mask id="b" fill="#fff"><use xlink:href="#a"/></mask><use xlink:href="#a" fill="#0C2340" fill-rule="nonzero"/></g></svg>