<svg xmlns="http://www.w3.org/2000/svg" xmlns:xlink="http://www.w3.org/1999/xlink" width="24" height="24"><defs><path id="a" d="M15.569 2.078a7.079 7.079 0 0 1 5.604 0c1.435.624 2.34 1.54 2.689 2.727.32 1.091.076 2.309-.656 3.261-.429.557-.855 1.378-1.137 1.97a2.739 2.739 0 0 0-.267 1.188v2.116c0 2.459-1.72 3.353-2.823 3.599v4.965a.603.603 0 0 1-.608.596.602.602 0 0 1-.607-.596v-4.957c-.496-.104-1.203-.344-1.8-.922-.68-.658-1.024-1.56-1.024-2.685v-2.116c0-.416-.09-.814-.268-1.188-.282-.592-.709-1.413-1.136-1.97-.73-.952-.977-2.17-.656-3.261.349-1.186 1.254-2.103 2.689-2.727ZM1.967 1.5c.193 0 .4.064.567.177 4.958 3.429 7.005 6.54 7.843 8.463.4.899.593 1.872.593 2.847v8.88a.64.64 0 0 1-.645.633H9.9a.64.64 0 0 1-.644-.633v-5.262a9.415 9.415 0 0 0-.58-3.112c-.67-1.936-1.93-3.606-3.502-4.948L.344 4.447a.971.971 0 0 1-.128-1.353L1.17 1.88c.193-.24.502-.38.798-.38Zm16.405 12.785-1.193 1.172a2.592 2.592 0 0 0 1.188.376c.04-.002.62-.042 1.18-.394l-1.175-1.154Zm-1.193-1.17-.944.927c.125.578.39.967.702 1.231l1.22-1.199-.978-.96Zm2.39-.005-.982.964 1.2 1.18c.318-.265.593-.653.719-1.226l-.938-.918Zm-1.193-1.17-.982.964.978.96.982-.965-.978-.96Zm-2.22.168v1.232c0 .119.025.206.034.313l.77-.755-.804-.79Zm4.431.001-.804.789.767.753c.01-.106.037-.193.037-.311v-1.23Zm-1.011-1.348-.986.968.978.96.984-.969-.976-.96Zm-2.405-.003-.98.962.983.968.983-.963-.986-.967Zm1.2-1.18-.985.968.986.968.986-.968-.986-.967Zm-2.4.004-.135.132c.202.481.32.986.32 1.511v.109l.8-.787-.984-.965Zm4.802.001-.983.967.797.781v-.107c0-.526.118-1.03.318-1.511l-.132-.13ZM19.57 8.401l-.983.965.986.97.984-.965-.987-.97Zm-2.396 0-.987.97.984.965.986-.97-.983-.965Zm3.593-1.176-.983.965.988.97.794-.78.14-.234-.939-.921Zm-4.791 0-.94.923c.046.077.092.152.137.23l.798.782.989-.97-.984-.965Zm2.396 0-.983.965.983.967.983-.967-.983-.965Zm-1.199-1.178-.983.967.984.965.983-.965-.984-.967Zm2.397 0-.983.967.983.965.982-.965-.982-.967Zm-4.792 0-.637.627c.09.235.204.465.365.672.126.165.25.347.37.536l.885-.868-.983-.967Zm7.188 0-.984.967.883.867c.121-.19.245-.37.37-.535.162-.209.276-.438.367-.674l-.636-.625Zm-5.99-1.176-.983.966.983.966.982-.966-.982-.966Zm2.396 0-.984.966.984.966.983-.966-.983-.966Zm2.395 0-.983.966.983.966.984-.967-.984-.965Zm-6.747.432c-.072.346-.071.702.015 1.052l.528-.518Zm8.702.003-.541.53.525.517c.087-.348.09-.704.016-1.047Zm-5.548-1.612-.984.966.983.966.984-.966-.983-.966Zm2.396 0-.983.966.983.966.982-.966-.982-.966Zm2.23.163-.818.803.984.966.659-.647c-.159-.422-.436-.796-.826-1.122Zm-6.856 0c-.39.325-.669.699-.826 1.12l.66.65.983-.967Zm1.556-.825c-.146.05-.298.076-.44.139-.338.146-.62.317-.879.497l.795.78.984-.965Zm3.743 0-.459.451.983.966.795-.78a4.846 4.846 0 0 0-.88-.498c-.142-.061-.293-.09-.44-.14Zm-1.872-.34c-.066 0-.131.018-.198.02l-.784.771.983.966.983-.966-.784-.77c-.067-.002-.133-.02-.2-.02Zm.679.07.52.51.349-.343a5.763 5.763 0 0 0-.87-.167Zm-1.356 0a5.734 5.734 0 0 0-.869.167l.35.343Z"/></defs><g fill="none" fill-rule="evenodd"><mask id="b" fill="#fff"><use xlink:href="#a"/></mask><use xlink:href="#a" fill="#0C2340" fill-rule="nonzero"/></g></svg>