<svg xmlns="http://www.w3.org/2000/svg" xmlns:xlink="http://www.w3.org/1999/xlink" width="24" height="24"><defs><path id="a" d="M11.422 15.322c.296.14.426.495.287.796l-3.412 7.538a.595.595 0 0 1-.791.289.604.604 0 0 1-.287-.792l3.416-7.542a.593.593 0 0 1 .787-.289Zm4.296.001a.595.595 0 0 1 .285.791l-3.08 6.986a.596.596 0 0 1-1.079-.5l3.087-6.991a.59.59 0 0 1 .787-.286Zm-8.437 0c.294.14.425.494.29.795L5.21 21.18a.59.59 0 0 1-.785.289.6.6 0 0 1-.288-.794l2.354-5.063a.596.596 0 0 1 .789-.288Zm.488-7.69c.731 0 1.442.118 2.115.338.367.117.725.264 1.068.441a6.851 6.851 0 0 1 2.71 2.61l.128.228.262-.049c.308-.056.621-.082.93-.082a5.009 5.009 0 0 1 3.657 1.575 4.917 4.917 0 0 1 1.353 3.38c0 1.706-.883 3.203-2.216 4.093l-.67-.89a3.813 3.813 0 0 0 1.76-3.203c0-2.12-1.742-3.845-3.883-3.845-.641 0-1.261.154-1.824.445-.72-2.303-2.911-3.928-5.39-3.928-3.113 0-5.644 2.507-5.644 5.583 0 1.64.715 3.104 1.851 4.125l-.718.834c-.088-.076-.19-.137-.273-.22A6.624 6.624 0 0 1 1 14.33c0-1.789.704-3.47 1.985-4.734A6.756 6.756 0 0 1 7.77 7.633ZM13.065.055a1.087 1.087 0 0 1 1.093.247c.313.304.4.767.216 1.16a5.05 5.05 0 0 0-.193 3.874c.968 2.716 4.02 4.161 6.807 3.226a4.96 4.96 0 0 0 .508-.204 1.32 1.32 0 0 1 .099-.035 1.075 1.075 0 0 1 1.093.245c.313.303.4.766.217 1.16-.603 1.284-1.775 2.476-2.955 3.217-.148-.316-.268-.646-.482-.915 1.023-.655 1.979-1.68 2.474-2.734-.194.091-.395.17-.607.241-3.344 1.124-6.993-.606-8.152-3.864a6.099 6.099 0 0 1 .228-4.644 6.217 6.217 0 0 0-3.667 5.217c-.005 0-.01-.003-.017-.005a7.952 7.952 0 0 0-1.02-.25c.234-2.495 1.778-4.776 4.258-5.895a.854.854 0 0 1 .1-.041Z"/></defs><g fill="none" fill-rule="evenodd"><mask id="b" fill="#fff"><use xlink:href="#a"/></mask><use xlink:href="#a" fill="#0C2340" fill-rule="nonzero"/></g></svg>