<svg xmlns="http://www.w3.org/2000/svg" xmlns:xlink="http://www.w3.org/1999/xlink" width="24" height="24"><defs><path id="a" d="M22.005 20.01a1.995 1.995 0 1 1-1.73 2.99H3.725a1.994 1.994 0 1 1-.007-2.001h16.564c.346-.592.988-.99 1.723-.99ZM7.424 18.507c.393-.002.71.333.708.743 0 .412-.321.749-.713.75-.395.002-.715-.332-.713-.744 0-.411.322-.748.718-.749Zm6.289-14.81c.798 0 1.658.343 2.12.918l.1.136 1.626 2.68 1.873.451c.356.079.592.43.566.802l-.014.113a.737.737 0 0 1-.705.591l-.077-.001-.082-.01-2.051-.525-.32-.09a.114.114 0 0 1-.018-.008.966.966 0 0 1-.17-.15l-.075-.098-.89-1.485-.636 3.486 3.121 7.607a.951.951 0 0 1-.39 1.143l-.1.051h-.01a.892.892 0 0 1-.329.065.883.883 0 0 1-.764-.458l-.055-.113-2.086-4.917-.317 1.765-.44 3.034a.89.89 0 0 1-.756.768l-.103.007h-.134l-.02-.011c-.435-.07-.747-.47-.744-.928l.007-.116 1.074-7.38c-.408-.3-.966-.804-.986-1.349l.005-.126.42-3.356-2.21 1.42-.686 2.686-1.361 8.105a.99.99 0 0 0-.707-.29c-.583 0-1.053.505-1.053 1.108 0 .224.064.433.174.609l.07.101-1.81-.226a.92.92 0 0 1-.77-.942l.012-.123 1.085-6.1a.91.91 0 0 1 .888-.788l.115.003 2.016.355.37-2.075.017-.083a.758.758 0 0 1-.335-.855l.502-1.634.156-.483.089-.26.069-.184a.376.376 0 0 1 .043-.086l1.449-1.016.93-.639.7-.467.438-.28.12-.074.197-.113a.882.882 0 0 1 .125-.058 2.66 2.66 0 0 1 .727-.107ZM14.97 0c.83 0 1.504.71 1.504 1.593 0 .871-.675 1.592-1.504 1.592-.84 0-1.514-.721-1.514-1.592C13.457.71 14.132 0 14.971 0Z"/></defs><g fill="none" fill-rule="evenodd"><mask id="b" fill="#fff"><use xlink:href="#a"/></mask><use xlink:href="#a" fill="#231F20"/></g></svg>