<svg xmlns="http://www.w3.org/2000/svg" xmlns:xlink="http://www.w3.org/1999/xlink" width="24" height="24"><defs><path id="a" d="M13.12 9.326c2.96 0 5.373 2.335 5.489 5.247l.004.22v4.24a.463.463 0 0 1-.386.46l-.086.007H5.083a.464.464 0 0 1-.463-.382l-.007-.085v-4.24c0-2.94 2.34-5.347 5.272-5.462l.22-.005h3.015ZM4.861 7.61c.804 0 1.538.306 2.093.807a6.984 6.984 0 0 0-3.852 5.084L.27 13.5a.266.266 0 0 1-.262-.208L0 13.23v-2.454c0-1.685 1.31-3.067 2.96-3.16l.179-.005H4.86Zm16 0c1.674 0 3.042 1.324 3.134 2.985l.005.18v2.454c0 .13-.087.236-.207.264l-.062.007h-3.738a6.98 6.98 0 0 0-3.305-4.699 3.12 3.12 0 0 1 2.24-1.184l.21-.007h1.723ZM11.613.5c2.185 0 3.967 1.77 3.967 3.94 0 2.182-1.782 3.95-3.967 3.95-2.186 0-3.967-1.768-3.967-3.95 0-2.17 1.78-3.94 3.967-3.94ZM20 2.5a2.278 2.278 0 0 1 2.267 2.281A2.28 2.28 0 0 1 20 7.068a2.279 2.279 0 0 1-2.267-2.287A2.278 2.278 0 0 1 20 2.5Zm-16 0a2.278 2.278 0 0 1 2.267 2.281A2.28 2.28 0 0 1 4 7.068a2.279 2.279 0 0 1-2.267-2.287A2.278 2.278 0 0 1 4 2.5Z"/></defs><g fill="none" fill-rule="evenodd" transform="translate(0 2)"><mask id="b" fill="#fff"><use xlink:href="#a"/></mask><use xlink:href="#a" fill="#333" fill-rule="nonzero"/></g></svg>