<svg xmlns="http://www.w3.org/2000/svg" xmlns:xlink="http://www.w3.org/1999/xlink" width="24" height="24"><defs><path id="a" d="M13.323 18.894v1.224c2.032.132 3.956.797 3.956 1.927 0 1.271-2.423 1.955-4.7 1.955-2.279 0-4.7-.684-4.7-1.955 0-1.13 1.924-1.795 3.957-1.927v-1.224h1.487ZM15.233.023c1.745-.23 1.837 1.36 1.353 2.304-.38.748-2.486 3.406-2.486 6.314 0 .85 1.28 1.54 2.859 1.54.565 0 1.414-.252 1.904-.252 1.086 0 1.63.574 1.63 1.722-.063 1.555-.683 3.625-4.272 5.498-4.246 2.212-8.865.632-10.48-2.686C3.583 10.031 3.267 2.984 3.627.6c.107-.71.96.183 1.054.285-.012.159-.55 2.725.501 8.06.208 1.052 1.15 1.78 2.248 1.78.324 0 .602-.072.873-.141.22-.058.427-.112.632-.112.685 0 .819.209 1.036.648.993 2 2.281 3.153 2.595 3.363.662.592 1.811.948 3.072.948 2.061 0 3.676-.96 3.676-2.183 0-1.223-1.615-2.18-3.676-2.18-.89 0-3.03.206-4.088.683a10.689 10.689 0 0 1-.654-1.135c-.32-.64-.778-1.233-1.961-1.233-.33 0-1.307.253-1.505.253-.602 0-1.118-.382-1.227-.906-.789-3.808-.652-5.578-.517-7.294 0-.02.004-.04.004-.059.843.245 1.93.221 3.67-.018C12.39.943 13.49.252 15.232.023Z"/></defs><g fill="none" fill-rule="evenodd"><mask id="b" fill="#fff"><use xlink:href="#a"/></mask><use xlink:href="#a" fill="#0C2340" fill-rule="nonzero"/></g></svg>