<svg xmlns="http://www.w3.org/2000/svg" xmlns:xlink="http://www.w3.org/1999/xlink" width="24" height="24"><defs><path id="a" d="M12 0c6.627 0 12 5.373 12 12s-5.373 12-12 12S0 18.627 0 12 5.373 0 12 0Zm0 6c-.303 0-.596.105-.83.296l-4.803 3.93-.092.086a1 1 0 0 0-.049 1.321l.086.092a1 1 0 0 0 1.321.049L11 9.019V17l.007.117A1 1 0 0 0 12 18l.117-.007A1 1 0 0 0 13 17V9.019l3.367 2.755.102.073a1 1 0 0 0 1.164-1.621l-4.803-3.93-.121-.088A1.311 1.311 0 0 0 12 6Z"/></defs><g fill="none" fill-rule="evenodd"><mask id="b" fill="#fff"><use xlink:href="#a"/></mask><use xlink:href="#a" fill="#024"/></g></svg>