<svg xmlns="http://www.w3.org/2000/svg" xmlns:xlink="http://www.w3.org/1999/xlink" width="24" height="24"><defs><path id="a" d="M12 0c6.627 0 12 5.373 12 12s-5.373 12-12 12S0 18.627 0 12 5.373 0 12 0Zm0 2C6.477 2 2 6.477 2 12s4.477 10 10 10 10-4.477 10-10S17.523 2 12 2Zm1.332 10.915c2.61 0 4.738 2.017 4.85 4.536l.001.01A8.23 8.23 0 0 1 12 20.25c-2.36 0-4.487-.99-5.99-2.578l-.193-.21v-.017c.113-2.447 2.127-4.418 4.635-4.525l.216-.005h2.664ZM12 5.25c1.932 0 3.506 1.537 3.506 3.422 0 1.894-1.574 3.43-3.506 3.43-1.932 0-3.506-1.536-3.506-3.43 0-1.885 1.574-3.422 3.506-3.422Z"/></defs><g fill="none" fill-rule="evenodd"><mask id="b" fill="#fff"><use xlink:href="#a"/></mask><use xlink:href="#a" fill="#FFF" fill-rule="nonzero"/></g></svg>