<svg xmlns="http://www.w3.org/2000/svg" xmlns:xlink="http://www.w3.org/1999/xlink" width="24" height="24"><defs><path id="a" d="M12 12.5a4.5 4.5 0 1 0 0-9 4.5 4.5 0 0 0 0 9Zm11.855-5.108C21.595 2.982 17.122 0 12 0 6.878 0 2.403 2.985.145 7.392a1.348 1.348 0 0 0 0 1.216C2.405 13.018 6.878 16 12 16c5.122 0 9.597-2.985 11.855-7.392a1.348 1.348 0 0 0 0-1.216ZM12 14c-4.11 0-7.879-2.292-9.914-6C4.121 4.292 7.89 2 12 2c4.11 0 7.879 2.292 9.914 6-2.035 3.708-5.803 6-9.914 6Z"/></defs><g fill="none" fill-rule="evenodd" transform="translate(0 4)"><mask id="b" fill="#fff"><use xlink:href="#a"/></mask><use xlink:href="#a" fill="#000" fill-rule="nonzero"/></g></svg>