<svg xmlns="http://www.w3.org/2000/svg" xmlns:xlink="http://www.w3.org/1999/xlink" width="24" height="24"><defs><path id="a" d="m2.282.525.102.091 21 21a1.25 1.25 0 0 1-1.666 1.859l-.102-.091-21-21A1.25 1.25 0 0 1 2.282.525Zm1.09 6.734 1.415 1.417A11.82 11.82 0 0 0 2.087 12C4.12 15.708 7.89 18 12 18c.657 0 1.305-.059 1.94-.172l1.662 1.664A12.971 12.971 0 0 1 12 20C6.878 20 2.405 17.017.145 12.608a1.348 1.348 0 0 1 0-1.216A13.874 13.874 0 0 1 3.371 7.26ZM12 4c5.122 0 9.595 2.983 11.855 7.392.193.382.193.834 0 1.216a13.874 13.874 0 0 1-3.226 4.133l-1.416-1.417a11.818 11.818 0 0 0 2.7-3.324C19.88 8.292 16.112 6 12 6c-.657 0-1.305.059-1.94.172L8.398 4.508A12.971 12.971 0 0 1 12 4Zm-4.464 7.426 5.038 5.038a4.5 4.5 0 0 1-5.038-5.038ZM12 7.5a4.5 4.5 0 0 1 4.464 5.074l-5.039-5.038c.188-.024.38-.036.575-.036Z"/></defs><g fill="none" fill-rule="evenodd"><mask id="b" fill="#fff"><use xlink:href="#a"/></mask><use xlink:href="#a" fill="#000" fill-rule="nonzero"/></g></svg>