<svg xmlns="http://www.w3.org/2000/svg" xmlns:xlink="http://www.w3.org/1999/xlink" width="24" height="24"><defs><path id="a" d="M11.994 21.5a2.217 2.217 0 0 1 0-4.432c1.2 0 2.2 1.028 2.2 2.215 0 1.228-1 2.217-2.2 2.217ZM23.838 7.409A16.615 16.615 0 0 0 11.994 2.5 16.615 16.615 0 0 0 .15 7.409c-.2.198-.2.554 0 .791l1.04 1.03c.201.237.561.198.801 0a14.127 14.127 0 0 1 10.043-4.157c3.921 0 7.442 1.583 10.043 4.157.2.237.56.237.8 0l1.041-1.03c.12-.198.12-.553-.08-.791M3.712 11.01c-.2.198-.2.554 0 .791l1.04 1.03c.2.237.56.198.8 0a9.02 9.02 0 0 1 6.442-2.692 9.02 9.02 0 0 1 6.441 2.692c.2.237.56.237.8 0l1.041-1.03c.2-.237.2-.593 0-.791a11.622 11.622 0 0 0-8.282-3.443c-3.121 0-6.042 1.226-8.282 3.443Zm3.6 3.562c-.2.237-.2.555 0 .792l1 1.028c.2.239.56.198.8 0 .72-.75 1.761-1.187 2.882-1.187 1.12 0 2.12.475 2.881 1.187.2.239.56.239.8 0l1-1.028c.2-.237.2-.555 0-.792a6.621 6.621 0 0 0-4.681-1.94c-1.84 0-3.481.752-4.681 1.94Z"/></defs><g fill="none" fill-rule="evenodd"><mask id="b" fill="#fff"><use xlink:href="#a"/></mask><use xlink:href="#a" fill="#0C2340" fill-rule="nonzero"/></g></svg>