<?xml version="1.0" encoding="UTF-8"?>
<svg width="16px" height="16px" viewBox="0 0 16 16" version="1.1" xmlns="http://www.w3.org/2000/svg" xmlns:xlink="http://www.w3.org/1999/xlink">
    <title>Icons/16px/Interface/Add</title>
    <defs>
        <path d="M8.66666667,7.33333333 L15.3333333,7.33333333 C15.7015232,7.33333333 16,7.63181017 16,8 C16,8.36818983 15.7015232,8.66666667 15.3333333,8.66666667 L8.66666667,8.66666667 L8.66666667,15.3333333 C8.66666667,15.7015232 8.36818983,16 8,16 C7.63181017,16 7.33333333,15.7015232 7.33333333,15.3333333 L7.33333333,8.66666667 L0.666666667,8.66666667 C0.298476833,8.66666667 -1.95399252e-14,8.36818983 -1.95399252e-14,8 C-1.95399252e-14,7.63181017 0.298476833,7.33333333 0.666666667,7.33333333 L7.33333333,7.33333333 L7.33333333,0.666666667 C7.33333333,0.298476833 7.63181017,0 8,0 C8.36818983,0 8.66666667,0.298476833 8.66666667,0.666666667 L8.66666667,7.33333333 Z" id="path-1"></path>
    </defs>
    <g id="Icons/16px/Interface/Add" stroke="none" stroke-width="1" fill="none" fill-rule="evenodd">
        <mask id="mask-2" fill="white">
            <use xlink:href="#path-1"></use>
        </mask>
        <use id="Mask" fill="#0C2340" fill-rule="nonzero" xlink:href="#path-1"></use>
        <g id="Group" mask="url(#mask-2)">
            <g transform="translate(0.000000, 0.000000)" id="Color/Grayscale/80%">
                <rect id="Rectangle" fill="#333333" x="0" y="0" width="16" height="16"></rect>
            </g>
        </g>
    </g>
</svg>