<?xml version="1.0" encoding="UTF-8"?>
<svg width="16px" height="16px" viewBox="0 0 16 16" version="1.1" xmlns="http://www.w3.org/2000/svg" xmlns:xlink="http://www.w3.org/1999/xlink">
    <title>Icons/16px/Travel &amp; Airport/Add pet</title>
    <defs>
        <path d="M12.8879975,10.750235 C13.0617401,10.750235 13.2033081,10.8917872 13.2033081,11.067312 L13.2033081,11.067312 L13.2033081,12.0541333 L14.1846317,12.0541333 C14.3583743,12.0541333 14.4991379,12.1956855 14.4991379,12.3704014 C14.4991379,12.5451173 14.3583743,12.6874784 14.1846317,12.6874784 L14.1846317,12.6874784 L13.2033081,12.6874784 L13.2033081,13.6742997 C13.2033081,13.8490156 13.0617401,13.9913767 12.8879975,13.9913767 C12.714255,13.9913767 12.5734914,13.8490156 12.5734914,13.6742997 L12.5734914,13.6742997 L12.5734914,12.6874784 L11.5913634,12.6874784 C11.4176208,12.6874784 11.2768572,12.5451173 11.2768572,12.3704014 C11.2768572,12.1956855 11.4176208,12.0541333 11.5913634,12.0541333 L11.5913634,12.0541333 L12.5734914,12.0541333 L12.5734914,11.067312 C12.5734914,10.8917872 12.714255,10.750235 12.8879975,10.750235 Z M6.62988759,5.415657 C7.46883886,5.415657 8.1237689,6.18649455 8.42980243,7.07869355 C8.73583596,7.97089254 9.41950177,9.14616505 10.4063749,9.14616505 C9.4829654,9.86363266 8.87888831,10.9612691 8.8370614,12.2101643 L4.14520833,12.2101643 C3.07057851,12.2101643 2.18095233,11.4247516 2.18095233,10.4630053 C2.18095233,9.64612564 2.6595487,9.11219251 3.40680251,8.84202996 C3.94411742,8.60583995 4.50556324,8.05823501 4.74928542,7.07869355 C4.9930076,6.09915208 5.76519669,5.415657 6.62988759,5.415657 Z M9.79946613,5.25431454 C10.447337,4.10850472 11.6223104,3.56269873 12.4238428,4.03522273 C13.2253751,4.50774674 13.3499423,5.81966551 12.7020715,6.96547532 C12.0542006,8.11128514 10.8792271,8.65709113 10.0776948,8.18456712 C9.27616249,7.71204312 9.15159526,6.40012435 9.79946613,5.25431454 Z M0.69310301,4.03522273 C1.49463534,3.56269873 2.66960878,4.10850472 3.31747965,5.25431454 C3.96535051,6.40012435 3.84078329,7.71204312 3.03925096,8.18456712 C2.23771863,8.65709113 1.06274519,8.11128514 0.414874324,6.96547532 C-0.232996544,5.81966551 -0.108429318,4.50774674 0.69310301,4.03522273 Z M3.9714166,0.682983727 C4.86541406,0.438403404 5.86200383,1.27613019 6.19736647,2.55411498 C6.53272911,3.83209977 6.0798696,5.06639571 5.18588077,5.31100823 C4.29188331,5.55558856 3.29529354,4.71786177 2.9599309,3.43987698 C2.62456826,2.16189219 3.07742777,0.927596249 3.9714166,0.682983727 Z M6.88747197,2.41354908 C7.22283461,1.13556429 8.21942438,0.297837505 9.11342185,0.542417828 C10.0074107,0.787030351 10.4602702,2.0213263 10.1249075,3.29931108 C9.78954491,4.57729587 8.79295513,5.41502266 7.89895767,5.17044234 C7.00496884,4.92582981 6.55210934,3.69153387 6.88747197,2.41354908 Z M12.8879171,14.8666549 C11.5196946,14.8666549 10.4056509,13.7471789 10.4056509,12.3704823 C10.4056509,10.9945946 11.5196946,9.87511862 12.8879171,9.87511862 C14.256944,9.87511862 15.3701833,10.9945946 15.3701833,12.3704823 C15.3701833,13.7471789 14.256944,14.8666549 12.8879171,14.8666549 M12.8879171,9.24177347 C11.1697964,9.24177347 9.77663857,10.6427362 9.77663857,12.3704823 C9.77663857,14.0990373 11.1697964,15.5 12.8879171,15.5 C14.6060378,15.5 16,14.0990373 16,12.3704823 C16,10.6427362 14.6060378,9.24177347 12.8879171,9.24177347" id="path-1"></path>
    </defs>
    <g id="Icons/16px/Travel-&amp;-Airport/Add-pet" stroke="none" stroke-width="1" fill="none" fill-rule="evenodd">
        <mask id="mask-2" fill="white">
            <use xlink:href="#path-1"></use>
        </mask>
        <use id="Mask" fill="#0C2340" fill-rule="nonzero" xlink:href="#path-1"></use>
        <g id="Group" mask="url(#mask-2)" fill="#333333">
            <g id="Color/Grayscale/80%">
                <rect id="Rectangle" x="0" y="0" width="16" height="16"></rect>
            </g>
        </g>
    </g>
</svg>