<?xml version="1.0" encoding="UTF-8"?>
<svg width="16px" height="16px" viewBox="0 0 16 16" version="1.1" xmlns="http://www.w3.org/2000/svg" xmlns:xlink="http://www.w3.org/1999/xlink">
    <title>Icons/16px/Travel &amp; Airport/Add traveler</title>
    <defs>
        <path d="M12.1357253,11.2285993 L12.1357253,12.5437664 L13.4549206,12.5437664 L13.4549206,13.1437514 L12.1357253,13.1437514 L12.1357253,14.4589185 L11.5339027,14.4589185 L11.5339027,13.1437514 L10.2147074,13.1437514 L10.2147074,12.5437664 L11.5339027,12.5437664 L11.5339027,11.2285993 L12.1357253,11.2285993 Z M7.07439674,6.31912202 C8.7755488,6.31912202 10.2359718,7.41509462 10.7655757,8.93505662 C8.98681641,9.47835286 7.56201172,10.6021322 7.84472975,13.59894 L1.33702069,13.59894 C1.15246174,13.59894 1,13.4549436 1,13.2629484 L1,10.2310242 C1,8.07107822 2.75732218,6.31912202 4.92388376,6.31912202 L7.07439674,6.31912202 Z M5.99528859,-1.13686838e-13 C7.5544105,-1.13686838e-13 8.82465753,1.26636834 8.82465753,2.82072948 C8.82465753,4.38149046 7.5544105,5.6478588 5.99528859,5.6478588 C4.43616668,5.6478588 3.16672207,4.38149046 3.16672207,2.82072948 C3.16672207,1.26636834 4.43616668,-1.13686838e-13 5.99528859,-1.13686838e-13 Z M11.8344128,15.400015 C10.4205308,15.400015 9.27064825,14.2536437 9.27064825,12.8440789 C9.27064825,11.4345141 10.4205308,10.2873428 11.8344128,10.2873428 C13.2482948,10.2873428 14.3981773,11.4345141 14.3981773,12.8440789 C14.3981773,14.2536437 13.2482948,15.400015 11.8344128,15.400015 M8.66882559,12.8440789 C8.66882559,14.5872353 10.0859173,16 11.8344128,16 C13.5829082,16 15,14.5872353 15,12.8440789 C15,11.1009225 13.5829082,9.68735782 11.8344128,9.68735782 C10.0859173,9.68735782 8.66882559,11.1009225 8.66882559,12.8440789 Z" id="path-1"></path>
    </defs>
    <g id="Icons/16px/Travel-&amp;-Airport/Add-traveler" stroke="none" stroke-width="1" fill="none" fill-rule="evenodd">
        <mask id="mask-2" fill="white">
            <use xlink:href="#path-1"></use>
        </mask>
        <use id="Mask" fill="#0C2340" fill-rule="nonzero" xlink:href="#path-1"></use>
        <g id="Group" mask="url(#mask-2)">
            <g transform="translate(0.000000, 0.000000)" id="Color/Grayscale/80%">
                <rect id="Rectangle" fill="#333333" x="0" y="0" width="16" height="16"></rect>
            </g>
        </g>
    </g>
</svg>