<?xml version="1.0" encoding="UTF-8"?>
<svg width="16px" height="16px" viewBox="0 0 16 16" version="1.1" xmlns="http://www.w3.org/2000/svg" xmlns:xlink="http://www.w3.org/1999/xlink">
    <title>Icons/16px/Travel &amp; Airport/Adult beverage</title>
    <defs>
        <path d="M5.12028494,0.8 L10.8920291,0.8 L11.3894454,4.408 C10.8577246,4.456 9.11676754,4.912 8.9881254,4.944 C6.03793224,5.656 4.96591437,4.816 4.6314448,4.4 L5.12028494,0.8 Z M12.4614633,5.928 L12.4614633,5.896 L11.6981866,0.352 C11.6724581,0.152 11.4923591,-1.13686838e-13 11.2693794,-1.13686838e-13 L4.74293465,-1.13686838e-13 C4.52853108,-1.13686838e-13 4.34843208,0.152 4.31412751,0.352 L3.5336985,6.048 C3.44793707,6.768 3.52512236,7.408 3.77383051,7.952 C4.39988894,9.336 5.86640938,10.256 7.57306182,10.392 L7.57306182,12.96 C5.85783323,13.024 4.15975694,13.504 4.15975694,14.472 C4.15975694,15.52 6.14942209,16 8.00186896,16 C9.84573969,16 11.8354048,15.52 11.8354048,14.472 C11.8354048,13.504 10.1459047,13.032 8.43067611,12.96 L8.43067611,10.392 C9.95722955,10.272 11.2693794,9.528 12.0069277,8.336 C12.4185826,7.664 12.5815293,6.824 12.4614633,5.928 Z" id="path-1"></path>
    </defs>
    <g id="Icons/16px/Travel-&amp;-Airport/Adult-beverage" stroke="none" stroke-width="1" fill="none" fill-rule="evenodd">
        <mask id="mask-2" fill="white">
            <use xlink:href="#path-1"></use>
        </mask>
        <use id="Mask" fill="#0C2340" fill-rule="nonzero" xlink:href="#path-1"></use>
        <g id="Group" mask="url(#mask-2)" fill="#333333">
            <g id="Color/Grayscale/80%">
                <rect id="Rectangle" x="0" y="0" width="16" height="16"></rect>
            </g>
        </g>
    </g>
</svg>