<?xml version="1.0" encoding="UTF-8"?>
<svg width="16px" height="16px" viewBox="0 0 16 16" version="1.1" xmlns="http://www.w3.org/2000/svg" xmlns:xlink="http://www.w3.org/1999/xlink">
    <title>Icons/16px/Background shape/Alert</title>
    <defs>
        <path d="M15.7965714,12.8914286 L9.28228571,1.62285714 C9.02503828,1.15724226 8.53188534,0.871547603 8,0.88 C7.8690389,0.878267092 7.73841176,0.893634991 7.61142857,0.925714286 C7.23326196,1.0300281 6.91237715,1.28097647 6.72,1.62285714 L0.194285714,12.8914286 C0.0675374493,13.1185497 0.000677122129,13.3741921 0,13.6342857 C0,14.4548231 0.665176943,15.1200075 1.48571429,15.1200075 L14.5142857,15.1200075 C14.7760842,15.1208485 15.0330738,15.0496821 15.2571429,14.9142857 C15.598165,14.7187274 15.8469621,14.3950705 15.948253,14.0152294 C16.049544,13.6353882 15.9949392,13.2308242 15.7965714,12.8914286 Z M8,12.4914416 C7.54240872,12.4882619 7.17402274,12.1147476 7.17718217,11.6571563 C7.1803416,11.1995649 7.55385006,10.831173 8.01144144,10.8343252 C8.46903281,10.8374774 8.83743063,11.21098 8.83428571,11.6685714 C8.83051289,12.125918 8.45735512,12.493964 8,12.4914416 L8,12.4914416 Z M7.42857143,5.49714286 L8.57142857,5.49714286 L8.57142857,9.49714286 L7.42857143,9.49714286 L7.42857143,5.49714286 Z" id="path-1"></path>
    </defs>
    <g id="Icons/16px/Background-shape/Alert" stroke="none" stroke-width="1" fill="none" fill-rule="evenodd">
        <mask id="mask-2" fill="white">
            <use xlink:href="#path-1"></use>
        </mask>
        <use id="Mask" fill="#002244" fill-rule="nonzero" xlink:href="#path-1"></use>
        <g id="Group" mask="url(#mask-2)" fill="#333333">
            <g id="Color/Grayscale/80%">
                <rect id="Rectangle" x="0" y="0" width="16" height="16"></rect>
            </g>
        </g>
    </g>
</svg>