<?xml version="1.0" encoding="UTF-8"?>
<svg width="16px" height="14px" viewBox="0 0 16 14" version="1.1" xmlns="http://www.w3.org/2000/svg" xmlns:xlink="http://www.w3.org/1999/xlink">
    <title>Icons/16px/Interface/Arrow right</title>
    <defs>
        <path d="M9.543,0.186059615 C9.275,0.445059615 9.262,0.878059615 9.514,1.15305962 L13.79,5.81605962 L0.667,5.81605962 C0.298,5.81605962 0,6.12205962 0,6.50005962 C0,6.87805962 0.298,7.18405962 0.667,7.18405962 L13.79,7.18405962 L9.514,11.8470596 C9.262,12.1220596 9.275,12.5550596 9.543,12.8140596 C9.811,13.0730596 10.233,13.0600596 10.485,12.7850596 L15.819,6.96905962 C15.847,6.93805962 15.861,6.90005962 15.882,6.86505962 C15.905,6.82905962 15.933,6.79705962 15.949,6.75705962 C15.981,6.67605962 15.999,6.59005962 15.999,6.50405962 C15.999,6.50305962 16,6.50205962 16,6.50005962 C16,6.49805962 15.999,6.49705962 15.999,6.49605962 C15.999,6.41005962 15.981,6.32405962 15.949,6.24305962 C15.933,6.20305962 15.905,6.17105962 15.882,6.13505962 C15.861,6.10005962 15.847,6.06205962 15.819,6.03105962 L10.485,0.215059615 C10.233,-0.059940385 9.811,-0.072940385 9.543,0.186059615" id="path-1"></path>
    </defs>
    <g id="Icons" stroke="none" stroke-width="1" fill="none" fill-rule="evenodd">
        <g transform="translate(-551.000000, -739.000000)" id="Icons/16px/Interface/Arrow-right">
            <g transform="translate(551.000000, 739.499940)">
                <mask id="mask-2" fill="white">
                    <use xlink:href="#path-1"></use>
                </mask>
                <use id="Fill-1" fill="#0C2340" xlink:href="#path-1"></use>
                <g id="Color/Grayscale/80%" mask="url(#mask-2)" fill="#333333">
                    <g transform="translate(0.000000, -1.499940)" id="Rectangle">
                        <rect x="0" y="0" width="16" height="16"></rect>
                    </g>
                </g>
            </g>
        </g>
    </g>
</svg>