<?xml version="1.0" encoding="UTF-8"?>
<svg width="16px" height="14px" viewBox="0 0 16 14" version="1.1" xmlns="http://www.w3.org/2000/svg" xmlns:xlink="http://www.w3.org/1999/xlink">
    <title>Icons/16px/Interface/Arrow left</title>
    <defs>
        <path d="M6.457,12.8140596 C6.725,12.5550596 6.738,12.1220596 6.486,11.8470596 L2.21,7.18405962 L15.333,7.18405962 C15.702,7.18405962 16,6.87805962 16,6.50005962 C16,6.12205962 15.702,5.81605962 15.333,5.81605962 L2.21,5.81605962 L6.486,1.15305962 C6.738,0.878059615 6.725,0.445059615 6.457,0.186059615 C6.189,-0.072940385 5.767,-0.059940385 5.515,0.215059615 L0.181,6.03105962 C0.153,6.06205962 0.139,6.10005962 0.118,6.13505962 C0.095,6.17105962 0.067,6.20305962 0.051,6.24305962 C0.019,6.32405962 0.001,6.41005962 0.001,6.49605962 C0.001,6.49705962 0,6.49805962 0,6.50005962 C0,6.50205962 0.001,6.50305962 0.001,6.50405962 C0.001,6.59005962 0.019,6.67605962 0.051,6.75705962 C0.067,6.79705962 0.095,6.82905962 0.118,6.86505962 C0.139,6.90005962 0.153,6.93805962 0.181,6.96905962 L5.515,12.7850596 C5.767,13.0600596 6.189,13.0730596 6.457,12.8140596" id="path-1"></path>
    </defs>
    <g id="Icons" stroke="none" stroke-width="1" fill="none" fill-rule="evenodd">
        <g transform="translate(-511.000000, -739.000000)" id="Icons/16px/Interface/Arrow-left">
            <g transform="translate(511.000000, 739.499940)">
                <mask id="mask-2" fill="white">
                    <use xlink:href="#path-1"></use>
                </mask>
                <use id="Fill-1" fill="#0C2340" xlink:href="#path-1"></use>
                <g id="Color/Grayscale/80%" mask="url(#mask-2)" fill="#333333">
                    <g transform="translate(0.000000, -1.499940)" id="Rectangle">
                        <rect x="0" y="0" width="16" height="16"></rect>
                    </g>
                </g>
            </g>
        </g>
    </g>
</svg>