<?xml version="1.0" encoding="UTF-8"?>
<svg width="14px" height="16px" viewBox="0 0 14 16" version="1.1" xmlns="http://www.w3.org/2000/svg" xmlns:xlink="http://www.w3.org/1999/xlink">
    <title>Icons/16px/Interface/Arrow down</title>
    <defs>
        <path d="M12.8140596,9.543 C12.5550596,9.275 12.1220596,9.262 11.8470596,9.514 L7.18405962,13.79 L7.18405962,0.667 C7.18405962,0.298 6.87805962,0 6.50005962,0 C6.12205962,0 5.81605962,0.298 5.81605962,0.667 L5.81605962,13.79 L1.15305962,9.514 C0.878059615,9.262 0.445059615,9.275 0.186059615,9.543 C-0.072940385,9.811 -0.059940385,10.233 0.215059615,10.485 L6.03105962,15.819 C6.06205962,15.847 6.10005962,15.861 6.13505962,15.882 C6.17105962,15.905 6.20305962,15.933 6.24305962,15.949 C6.32405962,15.981 6.41005962,15.999 6.49605962,15.999 C6.49705962,15.999 6.49805962,16 6.50005962,16 C6.50205962,16 6.50305962,15.999 6.50405962,15.999 C6.59005962,15.999 6.67605962,15.981 6.75705962,15.949 C6.79705962,15.933 6.82905962,15.905 6.86505962,15.882 C6.90005962,15.861 6.93805962,15.847 6.96905962,15.819 L12.7850596,10.485 C13.0600596,10.233 13.0730596,9.811 12.8140596,9.543" id="path-1"></path>
    </defs>
    <g id="Icons" stroke="none" stroke-width="1" fill="none" fill-rule="evenodd">
        <g transform="translate(-472.000000, -738.000000)" id="Icons/16px/Interface/Arrow-down">
            <g transform="translate(472.499940, 738.000000)">
                <mask id="mask-2" fill="white">
                    <use xlink:href="#path-1"></use>
                </mask>
                <use id="Fill-1" fill="#0C2340" xlink:href="#path-1"></use>
                <g id="Color/Grayscale/80%" mask="url(#mask-2)" fill="#333333">
                    <g transform="translate(-1.499940, 0.000000)" id="Rectangle">
                        <rect x="0" y="0" width="16" height="16"></rect>
                    </g>
                </g>
            </g>
        </g>
    </g>
</svg>