<?xml version="1.0" encoding="UTF-8"?>
<svg width="14px" height="16px" viewBox="0 0 14 16" version="1.1" xmlns="http://www.w3.org/2000/svg" xmlns:xlink="http://www.w3.org/1999/xlink">
    <title>Icons/16px/Interface/Arrow up</title>
    <defs>
        <path d="M0.186059615,6.457 C0.445059615,6.725 0.878059615,6.738 1.15305962,6.486 L5.81605962,2.21 L5.81605962,15.333 C5.81605962,15.702 6.12205962,16 6.50005962,16 C6.87805962,16 7.18405962,15.702 7.18405962,15.333 L7.18405962,2.21 L11.8470596,6.486 C12.1220596,6.738 12.5550596,6.725 12.8140596,6.457 C13.0730596,6.189 13.0600596,5.767 12.7850596,5.515 L6.96905962,0.181 C6.93805962,0.153 6.90005962,0.139 6.86505962,0.118 C6.82905962,0.095 6.79705962,0.067 6.75705962,0.051 C6.67605962,0.019 6.59005962,0.001 6.50405962,0.001 C6.50305962,0.001 6.50205962,0 6.50005962,0 C6.49805962,0 6.49705962,0.001 6.49605962,0.001 C6.41005962,0.001 6.32405962,0.019 6.24305962,0.051 C6.20305962,0.067 6.17105962,0.095 6.13505962,0.118 C6.10005962,0.139 6.06205962,0.153 6.03105962,0.181 L0.215059615,5.515 C-0.059940385,5.767 -0.072940385,6.189 0.186059615,6.457" id="path-1"></path>
    </defs>
    <g id="Icons" stroke="none" stroke-width="1" fill="none" fill-rule="evenodd">
        <g transform="translate(-592.000000, -738.000000)" id="Icons/16px/Interface/Arrow-up">
            <g transform="translate(592.499940, 738.000000)">
                <mask id="mask-2" fill="white">
                    <use xlink:href="#path-1"></use>
                </mask>
                <use id="Fill-1" fill="#0C2340" xlink:href="#path-1"></use>
                <g id="Color/Grayscale/80%" mask="url(#mask-2)" fill="#333333">
                    <g transform="translate(-1.499940, 0.000000)" id="Rectangle">
                        <rect x="0" y="0" width="16" height="16"></rect>
                    </g>
                </g>
            </g>
        </g>
    </g>
</svg>