<?xml version="1.0" encoding="UTF-8"?>
<svg width="16px" height="16px" viewBox="0 0 16 16" version="1.1" xmlns="http://www.w3.org/2000/svg" xmlns:xlink="http://www.w3.org/1999/xlink">
    <title>Icons/16px/Digital/At</title>
    <defs>
        <path d="M7.76718266,16 C9.39855521,16 10.9077399,15.7203252 12.2947368,15.1609756 L12.2947368,15.1609756 L12.2947368,13.5609756 C10.7095975,14.1463415 9.1872033,14.4390244 7.72755418,14.4390244 C5.8121775,14.4390244 4.34262126,13.9317073 3.31888545,12.9170732 C2.29514964,11.902439 1.78328173,10.4520325 1.78328173,8.56585366 C1.78328173,7.16097561 2.05737874,5.92682927 2.60557276,4.86341463 C3.15376677,3.8 3.94798762,2.98211382 4.98823529,2.4097561 C6.02848297,1.83739837 7.25201238,1.55121951 8.65882353,1.55121951 C9.76181631,1.55121951 10.7393189,1.77886179 11.5913313,2.23414634 C12.4433437,2.68943089 13.100516,3.33821138 13.5628483,4.1804878 C14.0251806,5.02276423 14.2563467,6 14.2563467,7.11219512 C14.2563467,8.1398374 14.1027864,8.98536585 13.7956656,9.64878049 C13.4885449,10.3121951 13.074097,10.6439024 12.552322,10.6439024 C11.8654283,10.6439024 11.5219814,10.1235772 11.5219814,9.08292683 L11.5219814,9.08292683 L11.5219814,8.84878049 L11.7399381,4.31219512 C11.2643963,4.15609756 10.7211558,4.03414634 10.1102167,3.94634146 C9.49927761,3.85853659 8.94282766,3.81463415 8.44086687,3.81463415 C7.06047472,3.81463415 5.96078431,4.23252033 5.14179567,5.06829268 C4.32280702,5.90406504 3.91331269,6.99186992 3.91331269,8.33170732 C3.91331269,9.49593496 4.22208462,10.4195122 4.83962848,11.102439 C5.45717234,11.7853659 6.30423117,12.1268293 7.38080495,12.1268293 C7.9752322,12.1268293 8.51021672,12 8.98575851,11.7463415 C9.46130031,11.4926829 9.86088751,11.1121951 10.1845201,10.604878 L10.1845201,10.604878 L10.3034056,10.604878 C10.4355005,11.0731707 10.6930857,11.4439024 11.076161,11.7170732 C11.4592363,11.9902439 11.9116615,12.1268293 12.4334365,12.1268293 C13.1401445,12.1268293 13.7626419,11.9121951 14.3009288,11.4829268 C14.8392157,11.0536585 15.2569659,10.4536585 15.5541796,9.68292683 C15.8513932,8.91219512 16,8.06178862 16,7.13170732 C16,5.71382114 15.6912281,4.46341463 15.0736842,3.3804878 C14.4561404,2.29756098 13.5876161,1.46341463 12.4681115,0.87804878 C11.3486068,0.292682927 10.0722394,0 8.63900929,0 C6.98121775,0 5.49680083,0.351219512 4.18575851,1.05365854 C2.8747162,1.75609756 1.84932921,2.76910569 1.10959752,4.09268293 C0.369865841,5.41626016 0,6.92682927 0,8.62439024 C0,10.9463415 0.683591331,12.7560976 2.05077399,14.0536585 C3.41795666,15.3512195 5.32342621,16 7.76718266,16 Z M7.62848297,10.6439024 C6.41981424,10.6439024 5.81547988,9.88617886 5.81547988,8.37073171 C5.81547988,7.42113821 6.05159959,6.6699187 6.52383901,6.11707317 C6.99607843,5.56422764 7.65490196,5.28780488 8.5003096,5.28780488 C8.97585139,5.28780488 9.42167183,5.34308943 9.8377709,5.45365854 L9.8377709,5.45365854 L9.71888545,7.78536585 C9.6,9.69105691 8.90319917,10.6439024 7.62848297,10.6439024 Z" id="path-1"></path>
    </defs>
    <g id="Icons/16px/Digital/At" stroke="none" stroke-width="1" fill="none" fill-rule="evenodd">
        <g id="icon">
            <mask id="mask-2" fill="white">
                <use xlink:href="#path-1"></use>
            </mask>
            <use id="Mask" fill="#333333" fill-rule="nonzero" xlink:href="#path-1"></use>
            <g id="Group" mask="url(#mask-2)" fill="#333333">
                <g id="Color/Grayscale/80%">
                    <rect id="Rectangle" x="0" y="0" width="16" height="16"></rect>
                </g>
            </g>
        </g>
    </g>
</svg>