<?xml version="1.0" encoding="UTF-8"?>
<svg width="16px" height="16px" viewBox="0 0 16 16" version="1.1" xmlns="http://www.w3.org/2000/svg" xmlns:xlink="http://www.w3.org/1999/xlink">
    <title>Icons/16px/Travel &amp; Airport/Baggage</title>
    <defs>
        <path d="M9.53418124,-1.13686838e-13 C9.74880763,-1.13686838e-13 9.93163752,0.176 9.93163752,0.4 L9.93163752,0.4 L9.93163752,2.032 L12.0461049,2.032 C12.5707472,2.032 13,2.464 13,3 L13,3 L13,13.728 C13,14.264 12.5707472,14.696 12.0461049,14.696 L12.0461049,14.696 L11.3863275,14.696 C11.4022258,14.76 11.4101749,14.816 11.4101749,14.88 C11.4101749,15.496 10.9173291,16 10.3052464,16 C9.69316375,16 9.20031797,15.496 9.20031797,14.88 C9.20031797,14.816 9.20826709,14.76 9.22416534,14.696 L9.22416534,14.696 L6.6009539,14.696 C6.61685215,14.76 6.62480127,14.816 6.62480127,14.88 C6.62480127,15.496 6.13195548,16 5.51987281,16 C4.90779014,16 4.41494436,15.496 4.41494436,14.88 C4.41494436,14.816 4.42289348,14.76 4.43879173,14.696 L4.43879173,14.696 L3.95389507,14.696 C3.42925278,14.696 3,14.264 3,13.728 L3,13.728 L3,3 C3,2.464 3.42925278,2.032 3.95389507,2.032 L3.95389507,2.032 L6.06836248,2.032 L6.06836248,0.4 C6.06836248,0.176 6.25119237,-1.13686838e-13 6.46581876,-1.13686838e-13 L6.46581876,-1.13686838e-13 Z M10.5437202,14.696 L10.0667727,14.696 C10.027027,14.752 9.99523052,14.808 9.99523052,14.88 C9.99523052,15.056 10.1383148,15.2 10.3052464,15.2 C10.4721781,15.2 10.6152623,15.056 10.6152623,14.88 C10.6152623,14.808 10.5834658,14.752 10.5437202,14.696 L10.5437202,14.696 Z M5.75834658,14.696 L5.28139905,14.696 C5.24165342,14.752 5.20985692,14.808 5.20985692,14.88 C5.20985692,15.056 5.35294118,15.2 5.51987281,15.2 C5.69475358,15.2 5.82988871,15.056 5.82988871,14.88 C5.82988871,14.808 5.79809221,14.752 5.75834658,14.696 L5.75834658,14.696 Z M10.217806,3.536 C10.0031797,3.536 9.82034976,3.712 9.82034976,3.936 L9.82034976,3.936 L9.82034976,12.792 C9.82034976,13.016 10.0031797,13.192 10.217806,13.192 C10.4403816,13.192 10.6152623,13.016 10.6152623,12.792 L10.6152623,12.792 L10.6152623,3.936 C10.6152623,3.712 10.4403816,3.536 10.217806,3.536 Z M8,3.536 C7.77742448,3.536 7.60254372,3.712 7.60254372,3.936 L7.60254372,3.936 L7.60254372,12.792 C7.60254372,13.016 7.77742448,13.192 8,13.192 C8.21462639,13.192 8.39745628,13.016 8.39745628,12.792 L8.39745628,12.792 L8.39745628,3.936 C8.39745628,3.712 8.21462639,3.536 8,3.536 Z M5.78219396,3.536 C5.55961844,3.536 5.38473768,3.712 5.38473768,3.936 L5.38473768,3.936 L5.38473768,12.792 C5.38473768,13.016 5.55961844,13.192 5.78219396,13.192 C5.99682035,13.192 6.17965024,13.016 6.17965024,12.792 L6.17965024,12.792 L6.17965024,3.936 C6.17965024,3.712 5.99682035,3.536 5.78219396,3.536 Z M9.13672496,0.8 L6.86327504,0.8 L6.86327504,2.032 L9.13672496,2.032 L9.13672496,0.8 Z" id="path-1"></path>
    </defs>
    <g id="Icons/16px/Travel-&amp;-Airport/Baggage" stroke="none" stroke-width="1" fill="none" fill-rule="evenodd">
        <mask id="mask-2" fill="white">
            <use xlink:href="#path-1"></use>
        </mask>
        <use id="Mask" fill="#0C2340" fill-rule="nonzero" xlink:href="#path-1"></use>
        <g id="Group" mask="url(#mask-2)" fill="#333333">
            <g id="Color/Grayscale/80%">
                <rect id="Rectangle" x="0" y="0" width="16" height="16"></rect>
            </g>
        </g>
    </g>
</svg>