<?xml version="1.0" encoding="UTF-8"?>
<svg width="16px" height="16px" viewBox="0 0 16 16" version="1.1" xmlns="http://www.w3.org/2000/svg" xmlns:xlink="http://www.w3.org/1999/xlink">
    <title>Icons/16px/Digital/Bar chart</title>
    <defs>
        <path d="M12.6666667,0.666666667 C13,0.666666667 13.3333333,1 13.3333333,1.33333333 L13.3333333,1.33333333 L13.3333333,8.33333333 C13.3333333,8.66666667 13,9 12.6666667,9 C12.3333333,9 12,8.66666667 12,8.33333333 L12,8.33333333 L12,1.33333333 C12,1 12.3333333,0.666666667 12.6666667,0.666666667 Z M9.66666667,4 C10,4 10.3333333,4.33333333 10.3333333,4.66666667 L10.3333333,4.66666667 L10.3333333,8.33333333 C10.3333333,8.66666667 10,9 9.66666667,9 C9.33333333,9 9,8.66666667 9,8.33333333 L9,8.33333333 L9,4.66666667 C9,4.33333333 9.33333333,4 9.66666667,4 Z M6.66666667,2 C7,2 7.33333333,2.33333333 7.33333333,2.66666667 L7.33333333,2.66666667 L7.33333333,8.33333333 C7.33333333,8.66666667 7,9 6.66666667,9 C6.33333333,9 6,8.66666667 6,8.33333333 L6,8.33333333 L6,2.66666667 C6,2.33333333 6.33333333,2 6.66666667,2 Z M3.66666667,6 C4,6 4.33333333,6.33333333 4.33333333,6.66666667 L4.33333333,6.66666667 L4.33333333,8.33333333 C4.33333333,8.66666667 4,9 3.66666667,9 C3.33333333,9 3,8.66666667 3,8.33333333 L3,8.33333333 L3,6.66666667 C3,6.33333333 3.33333333,6 3.66666667,6 Z M15.3333333,10.6666667 L1.33333333,10.6666667 L1.33333333,0.666666667 C1.33333333,0.333333333 1,0 0.666666667,0 C0.333333333,0 0,0.333333333 0,0.666666667 L0,10.6666667 C0,11.3333333 0.666666667,12 1.33333333,12 L15.3333333,12 C15.6666667,12 16,11.6666667 16,11.3333333 C16,11 15.6666667,10.6666667 15.3333333,10.6666667 Z" id="path-1"></path>
    </defs>
    <g id="Icons/16px/Digital/Bar-chart" stroke="none" stroke-width="1" fill="none" fill-rule="evenodd">
        <g id="icon" transform="translate(0.000000, 2.000000)">
            <mask id="mask-2" fill="white">
                <use xlink:href="#path-1"></use>
            </mask>
            <use id="Mask" fill="#0C2340" fill-rule="nonzero" xlink:href="#path-1"></use>
            <g id="Group" mask="url(#mask-2)">
                <g transform="translate(0.254498, -2.000000)" id="Color/Grayscale/80%">
                    <rect id="Rectangle" fill="#333333" x="0" y="0" width="16" height="16"></rect>
                </g>
            </g>
        </g>
    </g>
</svg>