<?xml version="1.0" encoding="UTF-8"?>
<svg width="16px" height="16px" viewBox="0 0 16 16" version="1.1" xmlns="http://www.w3.org/2000/svg" xmlns:xlink="http://www.w3.org/1999/xlink">
    <title>Icons/16px/Travel &amp; Airport/Beverage</title>
    <defs>
        <path d="M12.2804052,15.1999785 C12.4878682,15.1999785 12.6645959,15.3759832 12.6645959,15.5999893 C12.6645959,15.8239953 12.4878682,16 12.2804052,16 L12.2804052,16 L1.53074971,16 C1.31560293,16 1.14655903,15.8239953 1.14655903,15.5999893 C1.14655903,15.3759832 1.31560293,15.1999785 1.53074971,15.1999785 L1.53074971,15.1999785 Z M7.51874883,0.100445905 C7.64435455,0.232156831 7.64190779,0.443196952 7.51328384,0.571817208 C7.21822789,0.866864681 7.10903242,1.33521839 7.20592736,2.00888045 C7.33367425,2.8970408 7.12184545,3.56353754 6.55045395,3.94573725 C6.39993994,4.04641499 6.19822165,4.00308634 6.09990354,3.84896 C6.00158543,3.69483366 6.04389856,3.48827413 6.19441257,3.38759638 C6.52662747,3.1653802 6.65576373,2.75906673 6.56183433,2.10602255 C6.43705297,1.23848009 6.59583998,0.55742178 7.0584253,0.0948497533 C7.18704925,-0.0337705031 7.39314311,-0.0312650205 7.51874883,0.100445905 Z M9.49855504,0.798831007 C9.60706361,0.945612782 9.57882588,1.15467762 9.4354843,1.2657904 C9.16292873,1.47706481 9.06767565,1.79376814 9.15683803,2.27430529 C9.29339859,3.01029308 9.06144122,3.57604428 8.47264434,3.88134398 C8.31225426,3.96450855 8.11639432,3.89878439 8.03517892,3.73454495 C7.95396352,3.57030551 8.01814727,3.36974494 8.17853735,3.28658037 C8.49334687,3.12334708 8.60235457,2.85747393 8.51723883,2.39874601 C8.38472491,1.68456744 8.55745432,1.110266 9.04254001,0.734246574 C9.18588158,0.623133798 9.39004647,0.652049233 9.49855504,0.798831007 Z M5.59230504,0.798831007 C5.70081361,0.945612782 5.67257588,1.15467762 5.5292343,1.2657904 C5.25667873,1.47706481 5.16142565,1.79376814 5.25058803,2.27430529 C5.38714859,3.01029308 5.15519122,3.57604428 4.56639434,3.88134398 C4.40600426,3.96450855 4.21014432,3.89878439 4.12892892,3.73454495 C4.04771352,3.57030551 4.11189727,3.36974494 4.27228735,3.28658037 C4.58709687,3.12334708 4.69610457,2.85747393 4.61098883,2.39874601 C4.47847491,1.68456744 4.65120432,1.110266 5.13629001,0.734246574 C5.27963158,0.623133798 5.48379647,0.652049233 5.59230504,0.798831007 Z M14.5164718,9.71975136 C14.0631268,10.8477817 13.0565472,11.7758066 11.9423942,12.1918177 C13.0181281,10.4157701 13.271694,8.43171678 13.3024293,7.11968154 C13.7557743,7.20768391 14.1245973,7.41568949 14.3781632,7.73569809 C14.3935308,7.75169852 14.4088984,7.75969873 14.4242661,7.77569916 C14.6240452,8.05570668 14.7316186,8.38371549 14.7316186,8.73572494 C14.7316186,9.03173289 14.6624643,9.35174148 14.5164718,9.71975136 M14.9313978,7.16768283 C14.4955902,6.76492187 13.9632372,6.41566264 13.2947454,6.31165985 C13.2563264,5.65564223 12.7415109,5.14362848 12.1037543,5.14362848 L1.70755427,5.14362848 C1.06211391,5.14362848 0.539614575,5.66364245 0.50887932,6.32766028 C0.44740881,7.92770324 0.624136526,11.8958098 3.70534585,14.2638734 C3.76681636,14.3198749 10.0368084,14.3198749 10.1059627,14.2638734 C10.5362563,13.9358646 10.9050794,13.5678547 11.2277995,13.1838444 C12.9028709,12.9758388 14.5625747,11.6718038 15.2233827,10.0237595 C15.4077942,9.55974707 15.5,9.13573568 15.5,8.73572494 C15.5,8.1757099 15.374649,7.68 14.9313978,7.16768283 Z" id="path-1"></path>
    </defs>
    <g id="Icons/16px/Travel-&amp;-Airport/Beverage" stroke="none" stroke-width="1" fill="none" fill-rule="evenodd">
        <mask id="mask-2" fill="white">
            <use xlink:href="#path-1"></use>
        </mask>
        <use id="Mask" fill="#0C2340" fill-rule="nonzero" xlink:href="#path-1"></use>
        <g id="Group" mask="url(#mask-2)" fill="#333333">
            <g id="Color/Grayscale/80%">
                <rect id="Rectangle" x="0" y="0" width="16" height="16"></rect>
            </g>
        </g>
    </g>
</svg>