<?xml version="1.0" encoding="UTF-8"?>
<svg width="16px" height="16px" viewBox="0 0 16 16" version="1.1" xmlns="http://www.w3.org/2000/svg" xmlns:xlink="http://www.w3.org/1999/xlink">
    <title>Icons/16px/Travel &amp; Airport/Boarding pass</title>
    <defs>
        <path d="M15.6,2.5 C15.824,2.5 16,2.68113772 16,2.91167665 L16,2.91167665 L16,13.0883234 C16,13.3188623 15.824,13.5 15.6,13.5 L15.6,13.5 L0.4,13.5 C0.184,13.5 0,13.3188623 0,13.0883234 L0,13.0883234 L0,2.91167665 C0,2.68113772 0.184,2.5 0.4,2.5 L0.4,2.5 Z M14.624,11.4416168 L11.872,11.4416168 L11.872,12.0838323 L14.624,12.0838323 L14.624,11.4416168 Z M14.624,11.0711078 L11.872,11.0711078 L11.872,11.2769461 L14.624,11.2769461 L14.624,11.0711078 Z M5.36,5.02769461 L4.896,5.02769461 L5.496,7.3989521 L3.528,7.3989521 L2.72,6.77320359 L2.248,6.77320359 L3.032,7.98353293 L2.248,9.19386228 L2.72,9.19386228 L3.48,8.6010479 L5.496,8.6010479 L4.896,10.9805389 L5.36,10.9805389 L6.84,8.6010479 L9.896,8.6010479 C10.216,8.6010479 10.48,8.33757485 10.48,8 C10.48,7.67065868 10.216,7.3989521 9.896,7.3989521 L9.896,7.3989521 L6.84,7.3989521 L5.36,5.02769461 Z M14.624,10.0419162 L11.872,10.0419162 L11.872,10.6100299 L14.624,10.6100299 L14.624,10.0419162 Z M14.624,9.16916168 L11.872,9.16916168 L11.872,9.81137725 L14.624,9.81137725 L14.624,9.16916168 Z M14.624,8.41167665 L11.872,8.41167665 L11.872,8.61751497 L14.624,8.61751497 L14.624,8.41167665 Z M14.624,8.04116766 L11.872,8.04116766 L11.872,8.23877246 L14.624,8.23877246 L14.624,8.04116766 Z M14.624,7.67889222 L11.872,7.67889222 L11.872,7.88473054 L14.624,7.88473054 L14.624,7.67889222 Z M14.624,6.6744012 L11.872,6.6744012 L11.872,7.31661677 L14.624,7.31661677 L14.624,6.6744012 Z M14.624,5.71931138 L11.872,5.71931138 L11.872,6.13098802 L14.624,6.13098802 L14.624,5.71931138 Z M14.624,5.02769461 L11.872,5.02769461 L11.872,5.43113772 L14.624,5.43113772 L14.624,5.02769461 Z M14.624,3.91616766 L11.872,3.91616766 L11.872,4.77245509 L14.624,4.77245509 L14.624,3.91616766 Z" id="path-1"></path>
    </defs>
    <g id="Icons/16px/Travel-&amp;-Airport/Boarding-pass" stroke="none" stroke-width="1" fill="none" fill-rule="evenodd">
        <mask id="mask-2" fill="white">
            <use xlink:href="#path-1"></use>
        </mask>
        <use id="Mask" fill="#0C2340" fill-rule="nonzero" xlink:href="#path-1"></use>
        <g id="Group" mask="url(#mask-2)" fill="#333333">
            <g id="Color/Grayscale/80%">
                <rect id="Rectangle" x="0" y="0" width="16" height="16"></rect>
            </g>
        </g>
    </g>
</svg>