<?xml version="1.0" encoding="UTF-8"?>
<svg width="16px" height="16px" viewBox="0 0 16 16" version="1.1" xmlns="http://www.w3.org/2000/svg" xmlns:xlink="http://www.w3.org/1999/xlink">
    <title>Icons/16px/Digital/Bundle</title>
    <defs>
        <path d="M3.36164565,3.288 L6.81751825,3.288 C6.51493033,3.68 6.30789648,4.144 6.23623092,4.656 L4.72329131,4.656 L3.36164565,3.288 Z M8.87989383,2.192 C8.48971466,2.216 8.12342402,2.32 7.79694758,2.488 L4.87458527,2.488 C5.05773059,1.528 5.90975448,0.8 6.92103517,0.8 C7.8208361,0.8 8.59323159,1.376 8.87989383,2.192 Z M11.1254147,4.656 L7.03251493,4.656 C7.22362309,3.696 8.06768414,2.968 9.07896483,2.968 C10.0982084,2.968 10.9422694,3.696 11.1254147,4.656 Z M9.63636364,10.192 L9.53284672,12.36 L9.21433311,12.544 L8.72063703,10.72 L7.34306569,11.52 L7.04844061,12.216 L6.72992701,12.4 L6.80159257,11.28 L5.80623756,10.792 L6.12475116,10.608 L6.91307233,10.696 L8.2587923,9.92 L6.93696085,8.576 L7.25547445,8.392 L9.17451891,9.392 L11.260783,8.176 C11.4757797,8.048 11.7624419,8.128 11.8898474,8.352 C12.0172528,8.576 11.9376244,8.856 11.7226277,8.984 L9.63636364,10.192 Z M12.6383543,4.656 L11.9216987,4.656 C11.8659589,4.248 11.7305906,3.864 11.5155939,3.528 L12.6383543,4.656 Z M13.8805574,4.776 L11.7226277,2.608 C11.6429993,2.52 11.5315196,2.488 11.4280027,2.488 L10.3689449,2.488 C10.1619111,2.384 9.9469144,2.296 9.71599204,2.248 C9.42136695,0.952 8.27471798,0 6.92103517,0 C5.46383543,0 4.27737226,1.088 4.07830126,2.488 L2.398142,2.488 C2.13536828,2.488 2,2.72 2,2.888 L2,13.432 C2,13.552 2.04777704,13.648 2.13536828,13.728 L4.27737226,15.88 C4.34376017,15.9585063 4.44262695,16 4.55607167,16 L13.601858,16 C13.8248175,16 14,15.824 14,15.6 L14,5.056 C14,4.95910645 13.9623617,4.84317017 13.8805574,4.776 Z" id="path-1"></path>
    </defs>
    <g id="Icons/16px/Digital/Bundle" stroke="none" stroke-width="1" fill="none" fill-rule="evenodd">
        <mask id="mask-2" fill="white">
            <use xlink:href="#path-1"></use>
        </mask>
        <use id="Mask-Copy-2" fill="#0C2340" fill-rule="nonzero" xlink:href="#path-1"></use>
        <g id="Group" mask="url(#mask-2)" fill="#333333">
            <g id="Color/Grayscale/80%">
                <rect id="Rectangle" x="0" y="0" width="16" height="16"></rect>
            </g>
        </g>
    </g>
</svg>