<?xml version="1.0" encoding="UTF-8"?>
<svg width="16px" height="16px" viewBox="0 0 16 16" version="1.1" xmlns="http://www.w3.org/2000/svg" xmlns:xlink="http://www.w3.org/1999/xlink">
    <title>Icons/16px/Digital/Calendar</title>
    <defs>
        <path d="M15,5.61007185 L15,15.5137718 C15,15.7864755 14.7776304,16 14.5083611,16 L14.5083611,16 L1.49907818,16 C1.22253129,16 1.00016172,15.7864755 1.00016172,15.5137718 L1.00016172,15.5137718 L1.00016172,5.61007185 L15,5.61007185 Z M5.77895656,11.0089639 L4.32991558,11.0089639 C4.14797684,11.0089639 4,11.1553121 4,11.3352485 L4,11.3352485 L4,12.7683421 C4,12.941081 4.14797684,13.088229 4.32991558,13.088229 L4.32991558,13.088229 L5.77895656,13.088229 C5.95442637,13.088229 6.10240321,12.941081 6.10240321,12.7683421 L6.10240321,12.7683421 L6.10240321,11.3352485 C6.10240321,11.1553121 5.95442637,11.0089639 5.77895656,11.0089639 L5.77895656,11.0089639 Z M8.77248763,11.0089639 L7.3307242,11.0089639 C7.14878546,11.0089639 7,11.1553121 7,11.3352485 L7,11.3352485 L7,12.7683421 C7,12.941081 7.14878546,13.088229 7.3307242,13.088229 L7.3307242,13.088229 L8.77248763,13.088229 C8.95442637,13.088229 9.10240321,12.941081 9.10240321,12.7683421 L9.10240321,12.7683421 L9.10240321,11.3352485 C9.10240321,11.1553121 8.95442637,11.0089639 8.77248763,11.0089639 L8.77248763,11.0089639 Z M11.779959,11.0089639 L10.3381956,11.0089639 C10.1562568,11.0089639 10.00828,11.1553121 10.00828,11.3352485 L10.00828,11.3352485 L10.00828,12.7683421 C10.00828,12.941081 10.1562568,13.088229 10.3381956,13.088229 L10.3381956,13.088229 L11.779959,13.088229 C11.9618978,13.088229 12.1106832,12.941081 12.1106832,12.7683421 L12.1106832,12.7683421 L12.1106832,11.3352485 C12.1106832,11.1553121 11.9618978,11.0089639 11.779959,11.0089639 L11.779959,11.0089639 Z M5.77895656,7.5501862 L4.32991558,7.5501862 C4.14797684,7.5501862 4,7.68933702 4,7.87007315 L4,7.87007315 L4,9.30236697 C4,9.48230338 4.14797684,9.62225392 4.32991558,9.62225392 L4.32991558,9.62225392 L5.77895656,9.62225392 C5.95442637,9.62225392 6.10240321,9.48230338 6.10240321,9.30236697 L6.10240321,9.30236697 L6.10240321,7.87007315 C6.10240321,7.68933702 5.95442637,7.5501862 5.77895656,7.5501862 L5.77895656,7.5501862 Z M8.77248763,7.5501862 L7.3307242,7.5501862 C7.14878546,7.5501862 7,7.68933702 7,7.87007315 L7,7.87007315 L7,9.30236697 C7,9.48230338 7.14878546,9.62225392 7.3307242,9.62225392 L7.3307242,9.62225392 L8.77248763,9.62225392 C8.95442637,9.62225392 9.10240321,9.48230338 9.10240321,9.30236697 L9.10240321,9.30236697 L9.10240321,7.87007315 C9.10240321,7.68933702 8.95442637,7.5501862 8.77248763,7.5501862 L8.77248763,7.5501862 Z M11.779959,7.5501862 L10.3381956,7.5501862 C10.1562568,7.5501862 10.00828,7.68933702 10.00828,7.87007315 L10.00828,7.87007315 L10.00828,9.30236697 C10.00828,9.48230338 10.1562568,9.62225392 10.3381956,9.62225392 L10.3381956,9.62225392 L11.779959,9.62225392 C11.9618978,9.62225392 12.1106832,9.48230338 12.1106832,9.30236697 L12.1106832,9.30236697 L12.1106832,7.87007315 C12.1106832,7.68933702 11.9618978,7.5501862 11.779959,7.5501862 L11.779959,7.5501862 Z M3.8172203,1.16540261 L3.8172203,3.13830538 C3.8172203,3.77807928 4.3428211,4.30429331 4.99618333,4.30429331 C5.64954556,4.30429331 6.17514636,3.77807928 6.17514636,3.13830538 L6.17514636,3.13830538 L6.17514636,1.16540261 L9.82469192,1.16540261 L9.82469192,3.13830538 C9.82469192,3.77807928 10.3502927,4.30429331 11.0044636,4.30429331 C11.6578258,4.30429331 12.1834266,3.77807928 12.1834266,3.13830538 L12.1834266,3.13830538 L12.1834266,1.16540261 L14.5081994,1.16540261 C14.7774687,1.16540261 14.9998383,1.38532489 14.9998383,1.65882823 L14.9998383,1.65882823 L14.9998383,4.630578 L1,4.630578 L1,1.65882823 C1,1.38532489 1.22236957,1.16540261 1.49891645,1.16540261 L1.49891645,1.16540261 L3.8172203,1.16540261 Z M10.5,0.505315888 C10.5,-0.168438629 11.5107708,-0.168438629 11.5107708,0.505315888 L11.5107708,0.505315888 L11.5107708,2.97804202 C11.5107708,3.25154536 11.2819323,3.47786538 11.0053854,3.47786538 C10.7288385,3.47786538 10.5,3.25154536 10.5,2.97804202 L10.5,2.97804202 Z M4.49095967,0.505315888 C4.49095967,-0.153673192 5.50173044,-0.153673192 5.50173044,0.505315888 L5.50173044,0.505315888 L5.50173044,2.97804202 C5.50173044,3.25154536 5.27208332,3.47786538 4.99634505,3.47786538 C4.71979817,3.47786538 4.49095967,3.25154536 4.49095967,2.97804202 L4.49095967,2.97804202 Z" id="path-1"></path>
    </defs>
    <g id="Icons/16px/Digital/Calendar" stroke="none" stroke-width="1" fill="none" fill-rule="evenodd">
        <mask id="mask-2" fill="white">
            <use xlink:href="#path-1"></use>
        </mask>
        <use id="Mask" fill="#0C2340" fill-rule="nonzero" xlink:href="#path-1"></use>
        <g id="Group" mask="url(#mask-2)" fill="#333333">
            <g id="Color/Grayscale/80%">
                <rect id="Rectangle" x="0" y="0" width="16" height="16"></rect>
            </g>
        </g>
    </g>
</svg>