<?xml version="1.0" encoding="UTF-8"?>
<svg width="16px" height="16px" viewBox="0 0 16 16" version="1.1" xmlns="http://www.w3.org/2000/svg" xmlns:xlink="http://www.w3.org/1999/xlink">
    <title>Icons/16px/Background shape/Cancel</title>
    <defs>
        <path d="M12.0596364,12.0756364 C11.8559939,12.2792788 11.5258243,12.2792788 11.3221818,12.0756364 L8,8.75345455 L8,8.75345455 L4.67781818,12.0756364 C4.47417573,12.2792788 4.14400609,12.2792788 3.94036364,12.0756364 C3.73672119,11.8719939 3.73672119,11.5418243 3.94036364,11.3381818 L7.27854545,8 L7.27854545,8 L3.94036364,4.66181818 C3.73672119,4.45817573 3.73672119,4.12800609 3.94036364,3.92436364 C4.14400609,3.72072119 4.47417573,3.72072119 4.67781818,3.92436364 L8,7.24654545 L8,7.24654545 L11.3221818,3.92436364 C11.5258243,3.72072119 11.8559939,3.72072119 12.0596364,3.92436364 C12.2632788,4.12800609 12.2632788,4.45817573 12.0596364,4.66181818 L8.72145455,8 L8.72145455,8 L12.0596364,11.3381818 C12.2632788,11.5418243 12.2632788,11.8719939 12.0596364,12.0756364 Z M8,-1.13686838e-13 C3.58181818,-1.13686838e-13 0,3.58181818 0,8 C0,12.4181818 3.58181818,16 8,16 C12.4181818,16 16,12.4181818 16,8 C16,3.58181818 12.4181818,-1.13686838e-13 8,-1.13686838e-13 L8,-1.13686838e-13 Z" id="path-1"></path>
    </defs>
    <g id="Icons/16px/Background-shape/Cancel" stroke="none" stroke-width="1" fill="none" fill-rule="evenodd">
        <mask id="mask-2" fill="white">
            <use xlink:href="#path-1"></use>
        </mask>
        <use id="Fill-1" fill="#000000" xlink:href="#path-1"></use>
        <g id="Group" mask="url(#mask-2)" fill="#333333">
            <g id="Color/Grayscale/80%">
                <rect id="Rectangle" x="0" y="0" width="16" height="16"></rect>
            </g>
        </g>
    </g>
</svg>