<?xml version="1.0" encoding="UTF-8"?>
<svg width="16px" height="16px" viewBox="0 0 16 16" version="1.1" xmlns="http://www.w3.org/2000/svg" xmlns:xlink="http://www.w3.org/1999/xlink">
    <title>Icons/16px/Interface/Caps lock on</title>
    <defs>
        <path d="M12.3333333,13 C12.8333333,13 13.3333333,13.5 13.3333333,14 L13.3333333,15 L13.3333333,15 C13.3333333,15.5 12.8333333,16 12.3333333,16 L4.33333333,16 C3.83333333,16 3.33333333,15.5 3.33333333,15 L3.33333333,14 L3.33333333,14 C3.33333333,13.5 3.83333333,13 4.33333333,13 L12.3333333,13 Z M8.76757087,0.149326337 L8.8343165,0.208563231 L15.6258193,7.03440441 C15.7586883,7.1679452 15.8333333,7.3111448 15.8333333,7.5 C15.8333333,7.75 15.5833333,8 15.3333333,8 L13.3333333,8 L13.3333333,11 C13.3333333,11.5 12.8333333,12 12.3333333,12 L4.33333333,12 C3.83333333,12 3.33333333,11.5 3.33333333,11 L3.33333333,8 L1.33333333,8 L1.33333333,8 C1.08333333,8 0.833333333,7.75 0.833333333,7.5 C0.833333333,7.31 0.903333333,7.17 1.04333333,7.03 L7.83235016,0.208563231 C8.08775204,-0.0481299764 8.48963365,-0.0678756078 8.76757087,0.149326337 Z M9.13375796,4 L7.52441614,4 L5.33333333,10 L6.75159236,10 L7.20169851,8.57765668 L9.46496815,8.57765668 L9.91507431,10 L11.3333333,10 L9.13375796,4 Z M8.33545648,4.92779292 C8.35810333,5.02588556 8.39561217,5.15940054 8.44798301,5.32833787 C8.50035386,5.4972752 8.73460722,6.22615804 9.1507431,7.51498638 L7.5329087,7.51498638 C7.97452229,6.13896458 8.24203822,5.27656676 8.33545648,4.92779292 Z" id="path-1"></path>
    </defs>
    <g id="Icons/16px/Interface/Caps-lock-on" stroke="none" stroke-width="1" fill="none" fill-rule="evenodd">
        <g id="Icon" transform="translate(-0.333333, 0.000000)">
            <mask id="mask-2" fill="white">
                <use xlink:href="#path-1"></use>
            </mask>
            <use id="Mask" fill="#333333" xlink:href="#path-1"></use>
            <g id="Group" mask="url(#mask-2)">
                <g transform="translate(0.333333, 0.000000)" id="Color/Grayscale/80%">
                    <rect id="Rectangle" fill="#333333" x="0" y="0" width="16" height="16"></rect>
                </g>
            </g>
        </g>
    </g>
</svg>