<?xml version="1.0" encoding="UTF-8"?>
<svg width="16px" height="16px" viewBox="0 0 16 16" version="1.1" xmlns="http://www.w3.org/2000/svg" xmlns:xlink="http://www.w3.org/1999/xlink">
    <title>Icons/16px/Interface/Caps lock off</title>
    <g id="Icons/16px/Interface/Caps-lock-off" stroke="none" stroke-width="1" fill="none" fill-rule="evenodd">
        <g id="Icon" transform="translate(-0.333333, 0.000000)" stroke="#333333">
            <path d="M12.3333333,13.5 L12.8333333,15 L4.33333333,15.5 L3.83333333,14 L12.3333333,13.5 Z M8.32010559,0.500418398 L15.032,7.15 L12.8333333,7.59009805 L12.8333333,11 C12.8333333,11.125 12.7583563,11.2428703 12.6672799,11.3339466 C12.5762036,11.425023 12.4583333,11.5 12.3333333,11.5 L12.3333333,11.5 L4.33333333,11.5 C4.20833333,11.5 4.09046307,11.425023 3.99938672,11.3339466 C3.90831038,11.2428703 3.83333333,11.125 3.83333333,11 L3.83333333,11 L3.83333333,7.5 L1.45368244,7.5 C1.40428256,7.45053009 1.37475644,7.40568234 1.39772788,7.38271023 L1.39772788,7.38271023 L8.18679397,0.561223958 C8.22389561,0.523934729 8.27149534,0.503497372 8.32010559,0.500418398 L8.32010559,0.500418398 Z" id="Shape"></path>
        </g>
        <path d="M6.41825902,10 L6.86836518,8.57765668 L9.13163482,8.57765668 L9.58174098,10 L11,10 L8.80042463,4 L7.1910828,4 L5,10 L6.41825902,10 Z M8.81740977,7.51498638 L7.19957537,7.51498638 C7.64118896,6.13896458 7.90870488,5.27656676 8.00212314,4.92779292 C8.02476999,5.02588556 8.06227884,5.15940054 8.11464968,5.32833787 C8.16702052,5.4972752 8.40127389,6.22615804 8.81740977,7.51498638 L8.81740977,7.51498638 Z" id="A" fill="#333333" fill-rule="nonzero"></path>
    </g>
</svg>