<?xml version="1.0" encoding="UTF-8"?>
<svg width="16px" height="16px" viewBox="0 0 16 16" version="1.1" xmlns="http://www.w3.org/2000/svg" xmlns:xlink="http://www.w3.org/1999/xlink">
    <title>Icons/16px/Digital/Cart</title>
    <defs>
        <path d="M6.0729363,12.127572 C6.37698318,12.127572 6.63302265,12.3644915 6.63302265,12.6625514 C6.63302265,12.9529688 6.37698318,13.1975309 6.0729363,13.1975309 C5.76088819,13.1975309 5.51284995,12.9529688 5.51284995,12.6625514 C5.51284995,12.3644915 5.76088819,12.127572 6.0729363,12.127572 M13.0340095,12.127572 C13.3380564,12.127572 13.5940959,12.3644915 13.5940959,12.6625514 C13.5940959,12.9529688 13.3380564,13.1975309 13.0340095,13.1975309 C12.7219614,13.1975309 12.4739232,12.9529688 12.4739232,12.6625514 C12.4739232,12.3644915 12.7219614,12.127572 13.0340095,12.127572 M15.5784018,3.77425044 L4.0246205,3.77425044 L3.30450948,1.29805996 C3.24850084,1.12228101 3.08847617,1 2.89644656,1 L0.416064147,1 C0.184028373,1 0,1.18342152 0,1.40505585 C0,1.62669018 0.184028373,1.80246914 0.416064147,1.80246914 L2.57639722,1.80246914 L5.39283144,11.4932393 C4.96076483,11.7225162 4.67272042,12.1581423 4.67272042,12.6625514 C4.67272042,13.3962375 5.29681664,14 6.0729363,14 C6.84105473,14 7.47315218,13.3962375 7.47315218,12.6625514 C7.47315218,12.4714874 7.43314601,12.2880658 7.35313368,12.127572 L11.7458109,12.127572 C11.6737998,12.2880658 11.6257924,12.4714874 11.6257924,12.6625514 C11.6257924,13.3962375 12.2578899,14 13.0340095,14 C13.802128,14 14.4342254,13.3962375 14.4342254,12.6625514 C14.4342254,11.9212228 13.802128,11.3174603 13.0340095,11.3174603 L6.2169585,11.3174603 L5.84890176,10.0564374 L14.1781859,10.0564374 C14.3702155,10.0564374 14.5382414,9.92651382 14.5862488,9.75073486 L15.9864647,4.27101705 C16.0184697,4.14873604 15.994466,4.02645503 15.9064524,3.9271017 C15.8344413,3.82774838 15.7064216,3.77425044 15.5784018,3.77425044 Z" id="path-1"></path>
    </defs>
    <g id="Icons/16px/Digital/Cart" stroke="none" stroke-width="1" fill="none" fill-rule="evenodd">
        <mask id="mask-2" fill="white">
            <use xlink:href="#path-1"></use>
        </mask>
        <use id="Mask" fill="#0C2340" fill-rule="nonzero" xlink:href="#path-1"></use>
        <g id="Group" mask="url(#mask-2)" fill="#333333">
            <g id="Color/Grayscale/80%">
                <rect id="Rectangle" x="0" y="0" width="16" height="16"></rect>
            </g>
        </g>
    </g>
</svg>