<?xml version="1.0" encoding="UTF-8"?>
<svg width="16px" height="16px" viewBox="0 0 16 16" version="1.1" xmlns="http://www.w3.org/2000/svg" xmlns:xlink="http://www.w3.org/1999/xlink">
    <title>Icons/16px/Interface/Change</title>
    <defs>
        <path d="M13.4205372,8.77772085 L15.8447751,11.1865386 C16.0517416,11.3921886 16.0517416,11.7578114 15.8447751,11.9634614 L13.4205372,14.3722791 C13.2316118,14.5600028 12.9444475,14.5382628 12.7791378,14.3237215 C12.6138281,14.1091801 12.6329724,13.7830799 12.8218978,13.5953563 L14.8551875,11.575 L12.8218978,9.55464374 C12.6329724,9.36692007 12.6138281,9.04081986 12.7791378,8.82627853 C12.9444475,8.6117372 13.2316118,8.58999719 13.4205372,8.77772085 Z M13.4205372,1.62772085 L15.8447751,4.03653856 C16.0517416,4.24218859 16.0517416,4.60781141 15.8447751,4.81346144 L13.4205372,7.22227915 C13.2316118,7.41000281 12.9444475,7.3882628 12.7791378,7.17372147 C12.6138281,6.95918014 12.6329724,6.63307993 12.8218978,6.44535626 L14.8551875,4.425 L12.8218978,2.40464374 C12.6329724,2.21692007 12.6138281,1.89081986 12.7791378,1.67627853 C12.9444475,1.4617372 13.2316118,1.43999719 13.4205372,1.62772085 Z M0.797473982,3.13630909 C2.87802046,3.51643082 4.88863837,4.81219042 6.83861274,6.99707316 C8.90408084,4.85382731 11.5702998,3.77488217 14.7942082,3.77488217 C15.1655968,3.77488217 15.4666667,4.06589708 15.4666667,4.42488217 C15.4666667,4.78386726 15.1655968,5.07488217 14.7942082,5.07488217 C11.8825133,5.07488217 9.53670067,6.04467143 7.71122369,8.00019359 C9.53748787,9.95553614 11.8830018,10.925 14.7942082,10.925 C15.1655968,10.925 15.4666667,11.2160149 15.4666667,11.575 C15.4666667,11.9339851 15.1655968,12.225 14.7942082,12.225 C11.5700515,12.225 8.90367013,11.1458887 6.83805675,9.00271556 C4.88875026,11.1876196 2.87807835,12.4834408 0.797473982,12.8635731 C0.432547064,12.9302463 0.0807985694,12.6983439 0.0118217306,12.3456046 C-0.0571551081,11.9928654 0.182759835,11.6528644 0.547686753,11.5861913 C2.33892668,11.2589267 4.1444537,10.0735946 5.95433626,8.00183395 C4.14504058,5.92667291 2.33921779,4.74100871 0.547686753,4.41369091 C0.182759835,4.34701773 -0.0571551081,4.00701678 0.0118217306,3.65427753 C0.0807985694,3.30153827 0.432547064,3.0696359 0.797473982,3.13630909 Z" id="path-1"></path>
    </defs>
    <g id="Icons/16px/Interface/Change" stroke="none" stroke-width="1" fill="none" fill-rule="evenodd">
        <mask id="mask-2" fill="white">
            <use xlink:href="#path-1"></use>
        </mask>
        <use id="Mask" fill="#0C2340" fill-rule="nonzero" xlink:href="#path-1"></use>
        <g id="Group" mask="url(#mask-2)" fill="#333333">
            <g id="Color/Grayscale/80%">
                <rect id="Rectangle" x="0" y="0" width="16" height="16"></rect>
            </g>
        </g>
    </g>
</svg>