<?xml version="1.0" encoding="UTF-8"?>
<svg width="16px" height="16px" viewBox="0 0 16 16" version="1.1" xmlns="http://www.w3.org/2000/svg" xmlns:xlink="http://www.w3.org/1999/xlink">
    <title>Icons/16px/Travel &amp; Airport/UNMR/Child</title>
    <defs>
        <path d="M1.78619017,3.33020786 L4.24233333,5.78693703 L7.28233333,5.78693703 L9.73987903,3.33020786 C10.0445434,3.02554352 10.5227274,3.00015482 10.8563116,3.25404177 L10.943465,3.33020786 C11.2481294,3.6348722 11.2735181,4.11305618 11.0196311,4.44664046 L10.943465,4.53379387 L8.14533333,7.33093703 L8.14601332,15.1489362 C8.14601332,15.6189657 7.76497907,16 7.29494949,16 C6.86107604,16 6.50303292,15.6753318 6.45051666,15.2556918 L6.44388566,15.1489362 L6.44333333,11.573937 L5.08133333,11.573937 L5.08218354,15.1489362 C5.08218354,15.5828096 4.75751529,15.9408527 4.33787534,15.993369 L4.23111971,16 C3.79724625,16 3.43920313,15.6753318 3.38668687,15.2556918 L3.38005588,15.1489362 L3.37933333,7.32993703 L0.582604158,4.53379387 C0.250243058,4.20143277 0.250243058,3.66256896 0.582604158,3.33020786 C0.914965257,2.99784676 1.45382907,2.99784676 1.78619017,3.33020786 Z M5.7630346,0 C7.07911741,0 8.14601332,1.06689592 8.14601332,2.38297872 C8.14601332,3.69906153 7.07911741,4.76595745 5.7630346,4.76595745 C4.44695179,4.76595745 3.38005588,3.69906153 3.38005588,2.38297872 C3.38005588,1.06689592 4.44695179,0 5.7630346,0 Z" id="path-1"></path>
    </defs>
    <g id="Icons/16px/Travel-&amp;-Airport/UNMR/Child" stroke="none" stroke-width="1" fill="none" fill-rule="evenodd">
        <g id="UMNR" transform="translate(2.000000, 0.000000)">
            <mask id="mask-2" fill="white">
                <use xlink:href="#path-1"></use>
            </mask>
            <use id="Mask" fill="#0C2340" fill-rule="nonzero" xlink:href="#path-1"></use>
            <g id="Group" mask="url(#mask-2)">
                <g transform="translate(-2.000000, 0.000000)" id="Color/Grayscale/80%">
                    <rect id="Rectangle" fill="#333333" x="0" y="0" width="16" height="16"></rect>
                </g>
            </g>
        </g>
    </g>
</svg>