<?xml version="1.0" encoding="UTF-8"?>
<svg width="16px" height="16px" viewBox="0 0 16 16" version="1.1" xmlns="http://www.w3.org/2000/svg" xmlns:xlink="http://www.w3.org/1999/xlink">
    <title>Icons/16px/Weather/Clear</title>
    <defs>
        <path d="M8.24381863,0.941354548 C4.64772336,1.30837028 1.93526277,4.33550003 1.93526277,7.98165631 C1.93526277,11.8828235 5.08800329,15.1267479 8.96065485,15.0589597 C10.9647224,15.0238798 12.7217323,14.2261789 14.2316846,12.6658571 C13.7339368,12.7091923 13.4082827,12.7308599 13.2547222,12.7308599 C9.49480704,12.7308599 6.43782821,9.64972781 6.43782821,5.86256548 C6.43782821,4.0874894 7.10899343,2.40341722 8.3301964,1.11836213 L8.52380175,0.913353347 L8.24381863,0.941354548 Z M1,7.98165631 C1,3.85047924 4.07385725,0.420332215 8.14850523,0.00431438362 C8.61999512,-0.0374712616 9.01327579,0.229324028 9.18801703,0.585339288 C9.37765099,0.977356091 9.30318739,1.45437654 9.00533301,1.76839 C7.95192133,2.87843758 7.37309098,4.33149986 7.37309098,5.86256548 C7.37309098,9.12970552 10.0100951,11.7888195 13.2547222,11.7888195 C13.4542847,11.7888195 13.9268803,11.7518179 13.9626228,11.7518179 C14.3557906,11.7518179 14.7221515,11.9818278 14.894907,12.3398431 C15.0855338,12.7308599 15.0120631,13.2058802 14.7132159,13.5228938 C13.1931657,15.1199623 11.153856,16 8.96065485,16 C4.57226692,16 1,12.4018458 1,7.98165631 Z" id="path-1"></path>
    </defs>
    <g id="Icons/16px/Weather/Clear" stroke="none" stroke-width="1" fill="none" fill-rule="evenodd">
        <mask id="mask-2" fill="white">
            <use xlink:href="#path-1"></use>
        </mask>
        <use id="Mask" fill="#0C2340" fill-rule="nonzero" xlink:href="#path-1"></use>
        <g id="Group" mask="url(#mask-2)" fill="#333333">
            <g id="Color/Grayscale/80%">
                <rect id="Rectangle" x="0" y="0" width="16" height="16"></rect>
            </g>
        </g>
    </g>
</svg>