<?xml version="1.0" encoding="UTF-8"?>
<svg width="16px" height="16px" viewBox="0 0 16 16" version="1.1" xmlns="http://www.w3.org/2000/svg" xmlns:xlink="http://www.w3.org/1999/xlink">
    <title>Icons/16px/Interface/Close</title>
    <defs>
        <path d="M8,6.92250395 L14.6993472,0.223156738 C14.9968895,-0.0743855794 15.4793009,-0.0743855794 15.7768433,0.223156738 C16.0743856,0.520699056 16.0743856,1.00311047 15.7768433,1.30065279 L9.07749605,8 L15.7768433,14.6993472 C16.0743856,14.9968895 16.0743856,15.4793009 15.7768433,15.7768433 C15.4793009,16.0743856 14.9968895,16.0743856 14.6993472,15.7768433 L8,9.07749605 L1.30065279,15.7768433 C1.00311047,16.0743856 0.520699056,16.0743856 0.223156738,15.7768433 C-0.0743855794,15.4793009 -0.0743855794,14.9968895 0.223156738,14.6993472 L6.92250395,8 L0.223156738,1.30065279 C-0.0743855794,1.00311047 -0.0743855794,0.520699056 0.223156738,0.223156738 C0.520699056,-0.0743855794 1.00311047,-0.0743855794 1.30065279,0.223156738 L8,6.92250395 Z" id="path-1"></path>
    </defs>
    <g id="Icons/16px/Interface/Close" stroke="none" stroke-width="1" fill="none" fill-rule="evenodd">
        <mask id="mask-2" fill="white">
            <use xlink:href="#path-1"></use>
        </mask>
        <use id="Mask" fill="#0C2340" fill-rule="nonzero" xlink:href="#path-1"></use>
        <g id="Group" mask="url(#mask-2)" fill="#333333">
            <g id="Color/Grayscale/80%">
                <rect id="Rectangle" x="0" y="0" width="16" height="16"></rect>
            </g>
        </g>
    </g>
</svg>