<?xml version="1.0" encoding="UTF-8"?>
<svg width="16px" height="16px" viewBox="0 0 16 16" version="1.1" xmlns="http://www.w3.org/2000/svg" xmlns:xlink="http://www.w3.org/1999/xlink">
    <title>Icons/16px/Travel &amp; Airport/Closet</title>
    <defs>
        <path d="M8,8.51428571 L2.00095864,12.8342857 L13.9990414,12.8342857 L8,8.51428571 Z M8.39205182,7.27400954 L15.7242135,12.7597238 C16.2462932,13.150329 15.9777119,14 15.3321617,14 L0.667838339,14 C0.0222881128,14 -0.246293239,13.150329 0.275786523,12.7597238 L7.60794818,7.27400954 C7.84167784,7.09913968 8.15832216,7.09913968 8.39205182,7.27400954 Z M7.33339496,6.11428571 C7.33339496,5.73557617 7.6318241,5.42857143 7.99995511,5.42857143 C8.36808612,5.42857143 8.66651526,5.73557617 8.66651526,6.11428571 L8.66651526,7.4061942 C8.66651526,7.78490374 8.36808612,8.09190848 7.99995511,8.09190848 C7.6318241,8.09190848 7.33339496,7.78490374 7.33339496,7.4061942 L7.33339496,6.11428571 Z M8,6.8 C7.63186899,6.8 7.33343985,6.49299526 7.33343985,6.11428571 C7.33343985,5.73557617 7.63186899,5.42857143 8,5.42857143 C8.55219651,5.42857143 8.99984023,4.96806431 8.99984023,4.4 C8.99984023,3.83193569 8.55219651,3.37142857 8,3.37142857 C7.44780349,3.37142857 7.00015977,3.83193569 7.00015977,4.4 C7.00015977,4.77870954 6.70173063,5.08571429 6.33359962,5.08571429 C5.96546862,5.08571429 5.66703947,4.77870954 5.66703947,4.4 C5.66703947,3.0745166 6.71154148,2 8,2 C9.28845852,2 10.3329605,3.0745166 10.3329605,4.4 C10.3329605,5.7254834 9.28845852,6.8 8,6.8 Z" id="path-1"></path>
    </defs>
    <g id="Icons/16px/Travel-&amp;-Airport/Closet" stroke="none" stroke-width="1" fill="none" fill-rule="evenodd">
        <mask id="mask-2" fill="white">
            <use xlink:href="#path-1"></use>
        </mask>
        <use id="Mask" fill="#0C2340" fill-rule="nonzero" xlink:href="#path-1"></use>
        <g id="Group" mask="url(#mask-2)" fill="#333333">
            <g id="Color/Grayscale/80%">
                <rect id="Rectangle" x="0" y="0" width="16" height="16"></rect>
            </g>
        </g>
    </g>
</svg>