<?xml version="1.0" encoding="UTF-8"?>
<svg width="16px" height="16px" viewBox="0 0 16 16" version="1.1" xmlns="http://www.w3.org/2000/svg" xmlns:xlink="http://www.w3.org/1999/xlink">
    <title>Icons/16px/Weather/Cloudy</title>
    <defs>
        <path d="M11.6110365,14.9969992 C13.3900421,14.9969992 14.8380466,13.439998 14.8380466,11.5269965 C14.8380466,9.61299504 13.3900421,8.05499383 11.6110365,8.05499383 C11.0760348,8.05499383 10.5620332,8.19399394 10.1000317,8.45699414 C9.49802984,6.37699252 7.68202414,4.91099138 5.62101766,4.91099138 C3.03600954,4.91099138 0.936002941,7.17399314 0.936002941,9.9529953 C0.936002941,12.7339975 3.03600954,14.9969992 5.62101766,14.9969992 C6.88702164,14.9969992 8.07602538,14.4559988 8.95702814,13.4989981 C9.55303002,14.4339988 10.5350331,14.9969992 11.6110365,14.9969992 Z M5.62101766,3.9049906 C7.12302238,3.9049906 8.53602682,4.53599109 9.59903016,5.67699198 C9.83769758,5.93499218 10.1783653,6.4333259 10.6210334,7.17199314 C11.1090349,7.09132641 11.4390359,7.05099305 11.6110365,7.05099305 C13.9020437,7.05099305 15.7690495,9.05899461 15.7690495,11.5269965 C15.7690495,13.9929984 13.9020437,16 11.6110365,16 C10.6710335,16 9.78103073,15.6709997 9.04202841,15.0429993 L8.87002787,14.8959991 L8.68502729,15.0259992 C7.77602443,15.6629997 6.71802111,16 5.62101766,16 C4.12201295,16 2.71000852,15.3719995 1.64700518,14.2299986 C0.585001838,13.0859977 7.37188088e-14,11.5679966 7.37188088e-14,9.9529953 C7.37188088e-14,8.33899405 0.585001838,6.81799287 1.64700518,5.67699198 C2.70800851,4.53599109 4.12201295,3.9049906 5.62101766,3.9049906 Z M3.42831077,2.80128975 C3.81231198,1.05028839 5.35431682,-0.169712562 7.06032218,0.0192875844 C7.82232458,0.10328765 8.51132674,0.450287919 9.06032847,1.02328836 L9.06032847,1.02328836 L9.19132888,1.15728847 L9.35032938,1.0672884 C10.1333318,0.636288064 11.0133346,0.457287925 11.9013374,0.556288002 C13.1153412,0.691288106 14.2063446,1.3242886 14.9753471,2.34328939 C15.7473495,3.36129018 16.1003506,4.64029117 15.9753502,5.94629219 C15.91635,6.58629269 15.7353494,7.19229316 15.4633486,7.74229358 C15.4473485,7.71729357 15.4333485,7.69229355 15.4193485,7.66629353 C15.3103481,7.49629339 15.1833477,7.32229326 15.0283472,7.13629311 C14.9993471,7.10129309 14.966347,7.06429306 14.9353469,7.02629303 C15.0813474,6.66629275 15.1833477,6.27629245 15.2213478,5.86329212 C15.4353485,3.61729038 13.9143437,1.59828881 11.8253372,1.36728863 C10.8013339,1.25428854 9.79633078,1.5852888 9.01132832,2.27828934 C8.60232703,1.47028871 7.85232467,0.92728829 6.98232194,0.831288215 C5.8243183,0.703288116 4.76331497,1.41628867 4.31731357,2.50528952 C4.25131336,2.52328953 4.18031314,2.53828954 4.11431293,2.55828956 C3.87631218,2.62528961 3.64931147,2.70828967 3.42831077,2.80128975 Z" id="path-1"></path>
    </defs>
    <g id="Icons/16px/Weather/Cloudy" stroke="none" stroke-width="1" fill="none" fill-rule="evenodd">
        <mask id="mask-2" fill="white">
            <use xlink:href="#path-1"></use>
        </mask>
        <use id="Mask" fill="#0C2340" fill-rule="nonzero" xlink:href="#path-1"></use>
        <g id="Group" mask="url(#mask-2)">
            <g transform="translate(0.000000, 0.000000)" id="Color/Grayscale/80%">
                <rect id="Rectangle" fill="#333333" x="0" y="0" width="16" height="16"></rect>
            </g>
        </g>
    </g>
</svg>