<?xml version="1.0" encoding="UTF-8"?>
<svg width="16px" height="16px" viewBox="0 0 16 16" version="1.1" xmlns="http://www.w3.org/2000/svg" xmlns:xlink="http://www.w3.org/1999/xlink">
    <title>Icons/16px/Travel &amp; Airport/Comp upgrade</title>
    <defs>
        <path d="M3.93902513,2.58202329 L4.02714498,2.60816645 L7.03829876,3.74941073 C7.37284051,3.87451393 7.37284051,3.87451393 7.28113374,4.26508407 C7.16781075,4.67931348 6.24503782,8.17067561 5.56509987,9.12593934 C5.01143611,9.90198546 4.23484984,10.4657601 3.4418722,10.9836568 L3.17722255,11.1548181 L2.07637063,14.3249411 C2.07637063,14.3333947 2.06827613,14.3333947 2.06827613,14.3418484 C2.69155258,14.6461802 3.09627755,15.0435023 3.00723806,15.2886585 C2.95867106,15.423917 2.75630858,15.5 2.4730011,15.5 C2.16541012,15.5 1.75259065,15.4154634 1.32358218,15.2548438 C0.489848745,14.9336047 -0.0929552122,14.4432923 0.01227328,14.1474142 C0.0608402764,14.0037019 0.255108262,13.9360727 0.546510241,13.9360727 C0.714875828,13.9360727 0.919504773,13.957714 1.14381954,14.0096533 L1.31548768,14.0544239 L1.31548768,14.0375166 L2.4163396,10.8589399 C2.09255963,9.82759324 1.77687415,8.77933923 1.84163014,7.70572424 C1.91448064,6.52221165 3.34720703,3.22528372 3.51719152,2.8364153 C3.65908428,2.53242933 3.67198362,2.50479424 3.93902513,2.58202329 Z M12.0609749,2.58202329 C12.3280164,2.50479424 12.3409157,2.53242933 12.4828085,2.8364153 C12.652793,3.22528372 14.0855194,6.52221165 14.1583699,7.70572424 C14.2231259,8.77933923 13.9074404,9.82759324 13.5836604,10.8589399 L13.5836604,10.8589399 L14.6845123,14.0375166 L14.6845123,14.0544239 L14.8561805,14.0096533 C15.0804952,13.957714 15.2851242,13.9360727 15.4534898,13.9360727 C15.7448917,13.9360727 15.9391597,14.0037019 15.9877267,14.1474142 C16.0929552,14.4432923 15.5101513,14.9336047 14.6764178,15.2548438 C14.2474093,15.4154634 13.8345899,15.5 13.5269989,15.5 C13.2436914,15.5 13.0413289,15.423917 12.9927619,15.2886585 C12.9037224,15.0435023 13.3084474,14.6461802 13.9317239,14.3418484 C13.9317239,14.3333947 13.9236294,14.3333947 13.9236294,14.3249411 L13.9236294,14.3249411 L12.8227775,11.1548181 L12.5581278,10.9836568 C11.7651502,10.4657601 10.9885639,9.90198546 10.4349001,9.12593934 C9.75496218,8.17067561 8.83218925,4.67931348 8.71886626,4.26508407 C8.62715949,3.87451393 8.62715949,3.87451393 8.96170124,3.74941073 L8.96170124,3.74941073 L11.972855,2.60816645 Z M4.09999548,3.53806919 C3.95429449,3.87621565 3.37958503,5.3302454 3.27435654,5.60076256 C3.93001099,6.1164359 4.36711396,6.14179689 4.91753992,6.10798224 C5.1603749,6.09107492 5.82412385,6.15870421 5.88078535,6.16715787 C5.96240488,5.91143462 6.26847814,4.87433475 6.37503698,4.49489353 L6.39883331,4.40879631 L4.09999548,3.53806919 Z M11.9000045,3.53806919 L9.60116669,4.40879631 L9.62496302,4.49489353 C9.73152186,4.87433475 10.0375951,5.91143462 10.1192147,6.16715787 C10.1758761,6.15870421 10.8396251,6.09107492 11.0824601,6.10798224 C11.632886,6.14179689 12.069989,6.1164359 12.7256435,5.60076256 C12.620415,5.3302454 12.0457055,3.87621565 11.9000045,3.53806919 L11.9000045,3.53806919 Z M6.73895541,1.12730561 C6.74003986,1.12914219 6.74110641,1.13098927 6.74215491,1.13284661 L7.41664297,2.32764527 C7.50590059,2.48575762 7.45219758,2.68622383 7.29585212,2.77854143 L7.28867513,2.78277924 C7.13231718,2.87510421 6.93071983,2.82319522 6.83839486,2.66683727 C6.83731041,2.66500069 6.83624386,2.6631536 6.83519536,2.66129626 L6.1607073,1.4664976 C6.07144967,1.30838525 6.12515269,1.10791904 6.28149815,1.01560145 L6.28867513,1.01136364 C6.44503309,0.919038663 6.64663044,0.970947651 6.73895541,1.12730561 Z M9.70578386,1.00816413 C9.7076412,1.00921264 9.70948829,1.01027919 9.71132487,1.01136364 L9.71850185,1.01560145 C9.87484731,1.10791904 9.92855033,1.30838525 9.8392927,1.4664976 L9.16480464,2.66129626 C9.07553988,2.81942125 8.87499086,2.8752435 8.71686587,2.78597874 C8.71500853,2.78493024 8.71316144,2.78386368 8.71132487,2.78277924 L8.70414788,2.77854143 C8.54780242,2.68622383 8.49409941,2.48575762 8.58335703,2.32764527 L9.25784509,1.13284661 C9.34710985,0.974721617 9.54765887,0.918899371 9.70578386,1.00816413 Z M8,0.5 C8.18409492,0.5 8.33333333,0.649238417 8.33333333,0.833333333 L8.33333333,2.21212121 C8.33333333,2.39621613 8.18409492,2.54545455 8,2.54545455 C7.81590508,2.54545455 7.66666667,2.39621613 7.66666667,2.21212121 L7.66666667,0.833333333 C7.66666667,0.649238417 7.81590508,0.5 8,0.5 Z" id="path-1"></path>
    </defs>
    <g id="Icons/16px/Travel-&amp;-Airport/Comp-upgrade" stroke="none" stroke-width="1" fill="none" fill-rule="evenodd">
        <mask id="mask-2" fill="white">
            <use xlink:href="#path-1"></use>
        </mask>
        <use id="Combined-Shape" fill="#0C2340" fill-rule="nonzero" xlink:href="#path-1"></use>
        <g id="Group" mask="url(#mask-2)" fill="#333333">
            <g id="Color/Grayscale/80%">
                <rect id="Rectangle" x="0" y="0" width="16" height="16"></rect>
            </g>
        </g>
    </g>
</svg>