<?xml version="1.0" encoding="UTF-8"?>
<svg width="16px" height="16px" viewBox="0 0 16 16" version="1.1" xmlns="http://www.w3.org/2000/svg" xmlns:xlink="http://www.w3.org/1999/xlink">
    <title>Icons/16px/Travel &amp; Airport/Container/Add</title>
    <defs>
        <path d="M13.5,13 C14.3284271,13 15,13.6715729 15,14.5 C15,15.3284271 14.3284271,16 13.5,16 C12.6715729,16 12,15.3284271 12,14.5 C12,13.6715729 12.6715729,13 13.5,13 Z M2.5,13 C3.32842712,13 4,13.6715729 4,14.5 C4,15.3284271 3.32842712,16 2.5,16 C1.67157288,16 1,15.3284271 1,14.5 C1,13.6715729 1.67157288,13 2.5,13 Z M14.6666667,0 C15.4030463,0 16,0.596953667 16,1.33333333 L16,10.6666667 C16,11.4030463 15.4030463,12 14.6666667,12 L1.33333333,12 C0.596953667,12 0,11.4030463 0,10.6666667 L0,1.33333333 C0,0.596953667 0.596953667,0 1.33333333,0 L14.6666667,0 Z M8,1.57333333 L7.92881144,1.57716704 C7.60146911,1.61263833 7.34666025,1.88989881 7.34666025,2.22667308 L7.34650525,5.34983858 L4.22333975,5.34999359 C3.86251017,5.34999359 3.57,5.64250375 3.57,6.00333333 L3.57383371,6.0745219 C3.609305,6.40186422 3.88656547,6.65667308 4.22333975,6.65667308 L7.34650525,6.65620807 L7.34666025,9.77999359 C7.34666025,10.1408232 7.63917042,10.4333333 8,10.4333333 L8.07118856,10.4294996 C8.39853089,10.3940283 8.65333975,10.1167679 8.65333975,9.77999359 L8.65287474,6.65620807 L11.7766603,6.65667308 C12.1374898,6.65667308 12.43,6.36416291 12.43,6.00333333 L12.4261663,5.93214477 C12.390695,5.60480244 12.1134345,5.34999359 11.7766603,5.34999359 L8.65287474,5.34983858 L8.65333975,2.22667308 C8.65333975,1.8658435 8.36082958,1.57333333 8,1.57333333 Z" id="path-1"></path>
    </defs>
    <g id="Icons/16px/Travel-&amp;-Airport/Container/Add" stroke="none" stroke-width="1" fill="none" fill-rule="evenodd">
        <g id="Icon">
            <mask id="mask-2" fill="white">
                <use xlink:href="#path-1"></use>
            </mask>
            <use id="Mask" fill="#D8D8D8" xlink:href="#path-1"></use>
            <g id="Group" mask="url(#mask-2)" fill="#333333">
                <g id="Color/Grayscale/80%">
                    <rect id="Rectangle" x="0" y="0" width="16" height="16"></rect>
                </g>
            </g>
        </g>
    </g>
</svg>