<?xml version="1.0" encoding="UTF-8"?>
<svg width="16px" height="16px" viewBox="0 0 16 16" version="1.1" xmlns="http://www.w3.org/2000/svg" xmlns:xlink="http://www.w3.org/1999/xlink">
    <title>Icons/16px/Travel &amp; Airport/Container/Container</title>
    <defs>
        <path d="M13.5,13 C14.3284271,13 15,13.6715729 15,14.5 C15,15.3284271 14.3284271,16 13.5,16 C12.6715729,16 12,15.3284271 12,14.5 C12,13.6715729 12.6715729,13 13.5,13 Z M2.5,13 C3.32842712,13 4,13.6715729 4,14.5 C4,15.3284271 3.32842712,16 2.5,16 C1.67157288,16 1,15.3284271 1,14.5 C1,13.6715729 1.67157288,13 2.5,13 Z M14.6666667,0 C15.4030463,0 16,0.596953667 16,1.33333333 L16,10.6666667 C16,11.4030463 15.4030463,12 14.6666667,12 L1.33333333,12 C0.596953667,12 0,11.4030463 0,10.6666667 L0,1.33333333 C0,0.596953667 0.596953667,0 1.33333333,0 L14.6666667,0 Z" id="path-1"></path>
    </defs>
    <g id="Icons/16px/Travel-&amp;-Airport/Container/Container" stroke="none" stroke-width="1" fill="none" fill-rule="evenodd">
        <g id="Icon">
            <mask id="mask-2" fill="white">
                <use xlink:href="#path-1"></use>
            </mask>
            <use id="Mask" fill="#D8D8D8" xlink:href="#path-1"></use>
            <g id="Group" mask="url(#mask-2)" fill="#333333">
                <g id="Color/Grayscale/80%">
                    <rect id="Rectangle" x="0" y="0" width="16" height="16"></rect>
                </g>
            </g>
        </g>
    </g>
</svg>