<?xml version="1.0" encoding="UTF-8"?>
<svg width="16px" height="16px" viewBox="0 0 16 16" version="1.1" xmlns="http://www.w3.org/2000/svg" xmlns:xlink="http://www.w3.org/1999/xlink">
    <title>Icons/16px/Digital/Documents/Copy</title>
    <defs>
        <path d="M12,3 L12,6 C12,6.5 12.5,7 13,7 L16,7 L16,15 C16,15.5 15.5,16 15,16 L6,16 C5.5,16 5,15.5 5,15 L5,4 C5,3.5 5.5,3 6,3 L12,3 Z M7,0 L7,2 L6,2 C4.8,2 4,2.8 4,4 L4,13 L1,13 C0.5,13 0,12.5 0,12 L0,1 C0,0.5 0.5,0 1,0 L7,0 L7,0 Z M13,4 L15,6 L13,6 L13,4 Z M8,1 L9,2 L8,2 L8,1 Z" id="path-1"></path>
    </defs>
    <g id="Icons/16px/Digital/Documents/Copy" stroke="none" stroke-width="1" fill="none" fill-rule="evenodd">
        <g id="Icon">
            <mask id="mask-2" fill="white">
                <use xlink:href="#path-1"></use>
            </mask>
            <use id="Mask" fill="#000000" fill-rule="nonzero" xlink:href="#path-1"></use>
            <g id="Group" mask="url(#mask-2)" fill="#333333">
                <g id="Color/Grayscale/80%">
                    <rect id="Rectangle" x="0" y="0" width="16" height="16"></rect>
                </g>
            </g>
        </g>
    </g>
</svg>