<?xml version="1.0" encoding="UTF-8"?>
<svg width="16px" height="16px" viewBox="0 0 16 16" version="1.1" xmlns="http://www.w3.org/2000/svg" xmlns:xlink="http://www.w3.org/1999/xlink">
    <title>Icons/16px/Interface/External/Detach</title>
    <defs>
        <path d="M12.469498,10.7976263 C12.469498,10.4298636 12.7678057,10.1317329 13.1357869,10.1317329 C13.503768,10.1317329 13.8020757,10.4298636 13.8020757,10.7976263 L13.8020757,15.3341066 C13.8020757,15.7018694 13.503768,16 13.1357869,16 L0.666288825,16 C0.298307668,16 0,15.7018694 0,15.3341066 L0,2.92993106 C0,2.56216828 0.298307668,2.26403764 0.666288825,2.26403764 L5.24336446,2.26403764 C5.61134562,2.26403764 5.90965329,2.56216828 5.90965329,2.92993106 C5.90965329,3.29769385 5.61134562,3.59582449 5.24336446,3.59582449 L1.33257765,3.59582449 L1.33257765,14.6682132 L12.469498,14.6682132 L12.469498,10.7976263 Z M9.66118797,1.33178685 C9.29320681,1.33178685 8.99489914,1.03365621 8.99489914,0.665893423 C8.99489914,0.298130641 9.29320681,3.56159546e-13 9.66118797,3.56159546e-13 L15.3245572,3.56159546e-13 L15.3337112,3.56159546e-13 C15.7016923,3.56159546e-13 16,0.298130641 16,0.665893423 L16,6.34461601 C16,6.7123788 15.7016923,7.01050944 15.3337112,7.01050944 C14.96573,7.01050944 14.6674223,6.7123788 14.6674223,6.34461601 L14.6674223,2.26841302 L7.22968869,9.72791494 C6.96994456,9.98841927 6.54807446,9.98916049 6.28741545,9.72957051 C6.02675644,9.46998053 6.02601478,9.04836078 6.2857589,8.78785646 L13.7200703,1.33178685 L9.66118797,1.33178685 Z" id="path-1"></path>
    </defs>
    <g id="Icons/16px/Interface/External/Detach" stroke="none" stroke-width="1" fill="none" fill-rule="evenodd">
        <mask id="mask-2" fill="white">
            <use xlink:href="#path-1"></use>
        </mask>
        <use id="Mask" fill="#0C2340" fill-rule="nonzero" xlink:href="#path-1"></use>
        <g id="Group" mask="url(#mask-2)" fill="#333333">
            <g id="Color/Grayscale/80%">
                <rect id="Rectangle" x="0" y="0" width="16" height="16"></rect>
            </g>
        </g>
    </g>
</svg>