<?xml version="1.0" encoding="UTF-8"?>
<svg width="16px" height="16px" viewBox="0 0 16 16" version="1.1" xmlns="http://www.w3.org/2000/svg" xmlns:xlink="http://www.w3.org/1999/xlink">
    <title>Icons/16px/Travel &amp; Airport/Directv</title>
    <defs>
        <path d="M0,12.0230976 L0,14.9759532 L1.07841618,14.9759532 C1.38802082,14.9759532 1.66962504,14.8889416 1.866428,14.6927701 C2.20163302,14.3621262 2.16883253,13.9302326 2.16883253,13.4872647 C2.16883253,13.0435058 2.20163302,12.6361335 1.866428,12.3046986 C1.66962504,12.1101092 1.38802082,12.0230976 1.07841618,12.0230976 L0,12.0230976 Z M9.90374856,11.9996836 C10.4781572,11.9996836 10.9013635,12.3311185 11.002165,12.9322892 L11.002165,12.9322892 L10.4101562,12.9322892 C10.3477552,12.6791647 10.1885528,12.5130517 9.90774862,12.5130517 C9.74854623,12.5130517 9.62294434,12.5628856 9.53494302,12.6665085 C9.4133412,12.7954438 9.38854083,12.9275431 9.38854083,13.4994463 C9.38854083,14.0721405 9.4133412,14.2042398 9.53494302,14.3331751 C9.62294434,14.436007 9.74854623,14.4858408 9.90774862,14.4858408 C10.1885528,14.4858408 10.3477552,14.3205189 10.4101562,14.0673944 L10.4101562,14.0673944 L11.002165,14.0673944 C10.9013635,14.6685651 10.4741571,15 9.90374856,15 C9.58454377,15 9.31653975,14.8924221 9.09893648,14.6772663 C8.96853453,14.548331 8.88933334,14.3996203 8.85573284,14.2335074 C8.82213233,14.0673944 8.80533208,13.822971 8.80533208,13.4994463 C8.80533208,13.1759215 8.82213233,12.9322892 8.85573284,12.7661762 C8.88933334,12.5968992 8.96853453,12.4513526 9.09893648,12.3232084 C9.31653975,12.1072615 9.58454377,11.9996836 9.90374856,11.9996836 Z M3.29052936,12.0244423 L3.29052936,14.9757159 L2.70812062,14.9757159 L2.70812062,12.0244423 L3.29052936,12.0244423 Z M8.47876718,12.0242841 L8.47876718,12.5376523 L7.09554643,12.5376523 L7.09554643,13.2305806 L8.27396411,13.2305806 L8.27396411,13.7447398 L7.09554643,13.7447398 L7.09554643,14.4613985 L8.47876718,14.4613985 L8.47876718,14.9755577 L6.5131377,14.9755577 L6.5131377,12.0242841 L8.47876718,12.0242841 Z M13.3025195,12.0242841 L13.3025195,12.5376523 L12.5233078,12.5376523 L12.5233078,14.9755577 L11.9408991,14.9755577 L11.9408991,12.5376523 L11.1608874,12.5376523 L11.1608874,12.0242841 L13.3025195,12.0242841 Z M14.1935729,12.0242841 L14.7927819,13.9472394 L15.3927909,12.0242841 L16,12.0242841 L15.0111852,14.9755577 L14.5751786,14.9755577 L13.5903639,12.0242841 L14.1935729,12.0242841 Z M1.02401536,12.5364657 C1.22481837,12.5364657 1.35842038,12.5989559 1.4600219,12.71919 C1.56882353,12.8520804 1.58562378,13.0387597 1.58562378,13.4872647 C1.58562378,13.9341876 1.56882353,14.1461794 1.4600219,14.2790698 C1.35842038,14.3985129 1.22481837,14.461794 1.02401536,14.461794 L0.583208748,14.461794 L0.583208748,12.5364657 L1.02401536,12.5364657 Z M3.87813817,12.0242841 L3.87813817,14.9755577 L4.46054691,14.9755577 L4.46054691,13.7985287 L4.8797532,13.7985287 L5.46216193,14.9755577 L6.13737206,14.9755577 L5.47096206,13.702816 C5.7597664,13.5991932 6.01577024,13.3429046 6.01577024,12.9276222 C6.01577024,12.4348204 5.65576484,12.0242841 5.04775572,12.0242841 L3.87813817,12.0242841 Z M4.46054691,12.5376523 L5.00935514,12.5376523 C5.26535898,12.5376523 5.4333615,12.6998102 5.4333615,12.9276222 C5.4333615,13.1554343 5.26535898,13.3175922 5.00935514,13.3175922 L4.46054691,13.3175922 L4.46054691,12.5376523 Z M7.75715636,1 C6.86834303,1 6.02433036,1.24600538 5.31631974,1.67473501 C5.10431656,1.80446132 4.98431476,1.90808416 4.98431476,2.04097453 C4.98431476,2.43331751 5.91232868,2.85571903 7.55715336,2.85571903 C9.18597779,2.85571903 10.4484018,2.39297579 10.4484018,1.94842588 C10.4491967,1.84243 10.3547953,1.76807467 10.1651925,1.65575067 C9.45958189,1.23809524 8.64036961,1 7.75715636,1 Z M10.866003,2.17228287 C10.8860033,2.20313242 10.8956034,2.23556399 10.8956034,2.27986078 C10.8956034,2.79639298 9.29557943,3.71159627 6.74834123,3.71159627 C4.87711316,3.71159627 4.5267079,3.02499604 4.5267079,2.58835627 C4.5267079,2.4325265 4.58750881,2.27274165 4.7203108,2.11058377 C4.72751091,2.10030059 4.72191083,2.09713653 4.7131107,2.10425566 C4.46990705,2.30833729 4.2467037,2.53694036 4.05070076,2.78452776 C3.95709936,2.90159785 3.89869848,3.00522069 3.89869848,3.06771081 C3.89869848,3.9718399 6.1931329,4.62759057 8.33876508,4.62759057 C10.6243994,4.62759057 11.6444147,3.89036545 11.6444147,3.2417339 C11.6444147,3.00996678 11.5532133,2.87549438 11.3196098,2.6120867 C11.1684075,2.44201867 11.0252054,2.30280019 10.8732031,2.16674577 C10.866003,2.16041766 10.8604029,2.16516374 10.866003,2.17228287 M3.16748751,4.62047144 C3.14748721,4.72172125 3.15628734,4.77076412 3.19228788,4.84670147 C3.48109222,5.45182724 4.94111412,6.42081949 8.34836523,6.42081949 C10.4267964,6.42081949 12.0412206,5.91615251 12.3028245,4.99541212 C12.3508253,4.82534409 12.3540253,4.64657491 12.2916244,4.40531561 C12.2228233,4.13557981 12.0932214,3.82075621 11.9836198,3.60006328 C11.9804197,3.59294415 11.9732196,3.59452618 11.9748196,3.60243632 C12.0156202,4.81110584 8.60756911,5.59025471 6.88754331,5.59025471 C5.02511538,5.59025471 3.47069206,4.85619364 3.47069206,3.92991615 C3.47069206,3.84053156 3.48989235,3.75114697 3.5130927,3.65859832 C3.51469272,3.64989717 3.50749261,3.64910615 3.50429256,3.65622528 C3.36589049,3.92754311 3.2130882,4.38395823 3.16748751,4.62047144 Z M6.81154217,7.51716501 C4.40190603,7.51716501 3.26588899,6.40816327 3.0602859,5.65037178 C3.05788587,5.64008859 3.04988575,5.64246164 3.04988575,5.6519538 C3.04988575,5.90745135 3.07628614,6.2357222 3.1202868,6.45404208 C3.14188713,6.56082898 3.22908844,6.72694194 3.35709036,6.86062332 C3.9402991,7.46100301 5.39552093,8.303433 7.91395871,8.303433 C11.3460102,8.303433 12.130022,7.17386489 12.2900244,6.80208828 C12.4052261,6.53551653 12.464427,6.05537099 12.464427,5.6519538 C12.464427,5.55465907 12.4620269,5.47634868 12.4580269,5.39962031 C12.4580269,5.3877551 12.4508268,5.38617307 12.4484267,5.39803829 C12.2772242,6.30770448 9.34518018,7.51716501 6.81154217,7.51716501 M8.07716116,9.56430944 C9.23557853,9.56430944 10.5083976,9.2526499 11.269209,8.63407689 C11.4780122,8.46559089 11.6764151,8.2417339 11.8540178,7.94035754 C11.9564193,7.76712545 12.0564208,7.56146179 12.1380221,7.35896219 C12.1412221,7.34867901 12.134822,7.34393292 12.1276219,7.35579813 C11.4196113,8.38490745 9.36998055,9.0280019 7.2531488,9.0280019 C5.75712636,9.0280019 4.1467022,8.55497548 3.51629274,7.6516374 C3.50989265,7.64293624 3.50429256,7.64689131 3.50749261,7.65638348 C4.09470142,8.89036545 5.87632814,9.56430944 8.07716116,9.56430944 M4.87071306,9.32621421 C5.66912504,9.93766809 6.67074006,10.3046986 7.75715636,10.3046986 C8.9467742,10.3046986 10.0307905,9.86726784 10.8580029,9.15140009 C10.868403,9.14190793 10.863603,9.13637083 10.8532028,9.14190793 C10.4819972,9.38712229 9.42358135,9.92263882 7.75715636,9.92263882 C6.30913464,9.92263882 5.39392091,9.60306913 4.87711316,9.31830407 C4.86751301,9.31355798 4.86351295,9.32067711 4.87071306,9.32621421" id="path-1"></path>
    </defs>
    <g id="Icons/16px/Travel-&amp;-Airport/Directv" stroke="none" stroke-width="1" fill="none" fill-rule="evenodd">
        <mask id="mask-2" fill="white">
            <use xlink:href="#path-1"></use>
        </mask>
        <use id="Mask" fill="#0C2340" fill-rule="nonzero" xlink:href="#path-1"></use>
        <g id="Group" mask="url(#mask-2)" fill="#333333">
            <g id="Color/Grayscale/80%">
                <rect id="Rectangle" x="0" y="0" width="16" height="16"></rect>
            </g>
        </g>
    </g>
</svg>