<?xml version="1.0" encoding="UTF-8"?>
<svg width="16px" height="16px" viewBox="0 0 16 16" version="1.1" xmlns="http://www.w3.org/2000/svg" xmlns:xlink="http://www.w3.org/1999/xlink">
    <title>Icons/16px/Digital/Documents/Download file</title>
    <defs>
        <path d="M10.7744875,-1.13686838e-13 L10.7744875,3.936 C10.8143508,4.112 10.9658314,4.256 11.1651481,4.256 L11.1651481,4.256 L15,4.256 L15,15.6 C15,15.824 14.8246014,16 14.6013667,16 L14.6013667,16 L1.39863326,16 C1.17539863,16 1,15.824 1,15.6 L1,15.6 L1,0.4 C1,0.176 1.17539863,-1.13686838e-13 1.39863326,-1.13686838e-13 L1.39863326,-1.13686838e-13 L10.7744875,-1.13686838e-13 Z M8,5.33333333 C7.82559434,5.33333333 7.68421062,5.48090307 7.68421062,5.66293957 L7.68421062,5.66293957 L7.684,10.895 L5.53222118,8.75726713 C5.42336215,8.64911959 5.26097859,8.63836659 5.14153143,8.7219227 L5.08583246,8.77154556 C4.96630098,8.90560346 4.97235719,9.11656159 5.09935939,9.24273373 L5.09935939,9.24273373 L7.78356911,11.9094 C7.90516381,12.0302 8.09483619,12.0302 8.21643089,11.9094 L8.21643089,11.9094 L10.9006406,9.24273373 C11.0276428,9.11656159 11.033699,8.90560346 10.9141675,8.77154556 C10.7946361,8.63748767 10.594781,8.631095 10.4677788,8.75726713 L10.4677788,8.75726713 L8.315,10.894 L8.31578938,5.66293957 C8.31578938,5.50365764 8.20754247,5.37076431 8.06364257,5.34002976 Z M11.5637016,0.23968 L14.7766856,3.45568 L11.5637016,3.45568 L11.5637016,0.23968 Z" id="path-1"></path>
    </defs>
    <g id="Icons/16px/Digital/Documents/Download-file" stroke="none" stroke-width="1" fill="none" fill-rule="evenodd">
        <mask id="mask-2" fill="white">
            <use xlink:href="#path-1"></use>
        </mask>
        <use id="Mask" fill="#0C2340" fill-rule="nonzero" xlink:href="#path-1"></use>
        <g id="Group" mask="url(#mask-2)">
            <g transform="translate(0.000000, 0.000000)" id="Color/Grayscale/80%">
                <rect id="Rectangle" fill="#333333" x="0" y="0" width="16" height="16"></rect>
            </g>
        </g>
    </g>
</svg>