<?xml version="1.0" encoding="UTF-8"?>
<svg width="16px" height="16px" viewBox="0 0 16 16" version="1.1" xmlns="http://www.w3.org/2000/svg" xmlns:xlink="http://www.w3.org/1999/xlink">
    <title>Icons/16px/Digital/Documents/Download PDF</title>
    <defs>
        <path d="M8,0 L8,4 C8,4.5 8.5,5 9,5 L9,5 L12,5 L12,15 C12,15.5 11.5,16 11,16 L11,16 L1,16 C0.5,16 0,15.5 0,15 L0,15 L0,1 C0,0.5 0.5,0 1,0 L1,0 L8,0 Z M3.06801008,8 L2,8 L2,12 L2.78301547,12 L2.78301547,10.5499316 L2.97876934,10.5499316 C3.40482188,10.5499316 3.73059854,10.4363885 3.95609932,10.2093023 C4.1816001,9.98221614 4.29435049,9.65617875 4.29435049,9.23119015 C4.29435049,8.46169631 3.93507107,8.0529027 3.21651223,8.00480934 L3.06801008,8 Z M5.94962217,8 L4.82403742,8 L4.82403742,12 L5.85462397,12 C6.38623006,12 6.79357083,11.8253534 7.07664628,11.4760602 C7.35972172,11.126767 7.50125945,10.621979 7.50125945,9.96169631 C7.50125945,9.34154127 7.3649994,8.85955312 7.09247931,8.51573187 C6.85023923,8.21011299 6.52232425,8.04032471 6.10873438,8.00636706 L5.94962217,8 Z M10,8 L8.11442965,8 L8.11442965,12 L8.89168766,12 L8.89168766,10.3967168 L9.92515293,10.3967168 L9.92515293,9.75376197 L8.89168766,9.75376197 L8.89168766,8.64295486 L10,8.64295486 L10,8 Z M5.92083483,8.64295486 C6.43900684,8.64295486 6.69809284,9.08983128 6.69809284,9.98358413 C6.69809284,10.4395805 6.62996282,10.7811218 6.49370277,11.0082079 C6.35744273,11.2352941 6.14633561,11.3488372 5.86038143,11.3488372 L5.6070529,11.3488372 L5.6070529,8.64295486 L5.92083483,8.64295486 Z M2.97301187,8.64295486 C3.1534125,8.64295486 3.28679381,8.69357045 3.37315581,8.79480164 C3.45951781,8.89603283 3.50269881,9.05152759 3.50269881,9.26128591 C3.50269881,9.48928409 3.4556795,9.65344277 3.36164088,9.75376197 C3.26760226,9.85408117 3.12462516,9.90424077 2.93270961,9.90424077 L2.78301547,9.90424077 L2.78301547,8.64295486 L2.97301187,8.64295486 Z M9,1 L12,4 L9,4 L9,1 Z" id="path-1"></path>
    </defs>
    <g id="Icons/16px/Digital/Documents/Download-PDF" stroke="none" stroke-width="1" fill="none" fill-rule="evenodd">
        <g id="Icon" transform="translate(2.000000, 0.000000)">
            <mask id="mask-2" fill="white">
                <use xlink:href="#path-1"></use>
            </mask>
            <use id="Mask" fill="#000000" xlink:href="#path-1"></use>
            <g id="Group" mask="url(#mask-2)">
                <g transform="translate(-2.000000, 0.000000)" id="Color/Grayscale/80%">
                    <rect id="Rectangle" fill="#333333" x="0" y="0" width="16" height="16"></rect>
                </g>
            </g>
        </g>
    </g>
</svg>