<?xml version="1.0" encoding="UTF-8"?>
<svg width="16px" height="16px" viewBox="0 0 16 16" version="1.1" xmlns="http://www.w3.org/2000/svg" xmlns:xlink="http://www.w3.org/1999/xlink">
    <title>Icons/16px/Digital/Documents/Download Excel</title>
    <defs>
        <path d="M8,0 L8,4 C8,4.5 8.5,5 9,5 L9,5 L12,5 L12,15 C12,15.5 11.5,16 11,16 L11,16 L1,16 C0.5,16 0,15.5 0,15 L0,15 L0,1 C0,0.5 0.5,0 1,0 L1,0 L8,0 Z M4.90482665,7 L3.11828688,7 L4.97824609,9.93023256 L3,13 L4.82324949,13 L5.97348742,11.124487 L7.13596193,13 L9,13 L6.96872876,10.0574555 L8.85723997,7 L7.01767505,7 L5.98164514,8.85499316 L4.90482665,7 Z M9,1 L12,4 L9,4 L9,1 Z" id="path-1"></path>
    </defs>
    <g id="Icons/16px/Digital/Documents/Download-Excel" stroke="none" stroke-width="1" fill="none" fill-rule="evenodd">
        <g id="Icon" transform="translate(2.000000, 0.000000)">
            <mask id="mask-2" fill="white">
                <use xlink:href="#path-1"></use>
            </mask>
            <use id="Mask" fill="#000000" xlink:href="#path-1"></use>
            <g id="Group" mask="url(#mask-2)">
                <g transform="translate(-2.000000, 0.000000)" id="Color/Grayscale/80%">
                    <rect id="Rectangle" fill="#333333" x="0" y="0" width="16" height="16"></rect>
                </g>
            </g>
        </g>
    </g>
</svg>