<?xml version="1.0" encoding="UTF-8"?>
<svg width="16px" height="16px" viewBox="0 0 16 16" version="1.1" xmlns="http://www.w3.org/2000/svg" xmlns:xlink="http://www.w3.org/1999/xlink">
    <title>Icons/16px/Interface/Download</title>
    <defs>
        <path d="M15.3333333,14.6666667 C15.7015232,14.6666667 16,14.9651435 16,15.3333333 C16,15.7015232 15.7015232,16 15.3333333,16 L0.666666667,16 C0.298476833,16 0,15.7015232 0,15.3333333 C0,14.9651435 0.298476833,14.6666667 0.666666667,14.6666667 L15.3333333,14.6666667 Z M8,-1.13686838e-13 C8.36818983,-1.13686838e-13 8.66666667,0.295139524 8.66666667,0.659212577 L8.666,11.124 L13.2097569,6.84786859 C13.4778727,6.59552427 13.899789,6.60830962 14.1521333,6.87642545 C14.4044776,7.14454128 14.3916923,7.5664576 14.1235765,7.81880191 L8.4569098,13.1521352 C8.20020979,13.3937353 7.79979021,13.3937353 7.5430902,13.1521352 L1.87642353,7.81880191 C1.6083077,7.5664576 1.59552236,7.14454128 1.84786667,6.87642545 C2.10021099,6.60830962 2.5221273,6.59552427 2.79024313,6.84786859 L7.333,11.123 L7.33333333,0.659212577 C7.33333333,0.295139524 7.63181017,-1.13686838e-13 8,-1.13686838e-13 Z" id="path-1"></path>
    </defs>
    <g id="Icons/16px/Interface/Download" stroke="none" stroke-width="1" fill="none" fill-rule="evenodd">
        <mask id="mask-2" fill="white">
            <use xlink:href="#path-1"></use>
        </mask>
        <use id="Mask" fill="#0C2340" fill-rule="nonzero" xlink:href="#path-1"></use>
        <g id="Group" mask="url(#mask-2)" fill="#333333">
            <g id="Color/Grayscale/80%">
                <rect id="Rectangle" x="0" y="0" width="16" height="16"></rect>
            </g>
        </g>
    </g>
</svg>