<?xml version="1.0" encoding="UTF-8"?>
<svg width="16px" height="16px" viewBox="0 0 16 16" version="1.1" xmlns="http://www.w3.org/2000/svg" xmlns:xlink="http://www.w3.org/1999/xlink">
    <title>Icons/16px/Digital/Documents/Download folder</title>
    <defs>
        <path d="M5.65178216,1.50068503 C5.72551633,1.50342515 5.74326361,1.51712575 5.832,1.58562874 L5.832,1.58562874 L7.448,2.84670659 L15.6,2.84670659 C15.824,2.84670659 16,3.01796407 16,3.23592814 L16,3.23592814 L16,14.1107784 C16,14.3287425 15.824,14.5 15.6,14.5 L15.6,14.5 L0.4,14.5 C0.184,14.5 0,14.3287425 0,14.1107784 L0,14.1107784 L0,1.88922156 C0,1.67125749 0.184,1.5 0.4,1.5 L0.4,1.5 Z M8,5.4 C7.82559434,5.4 7.68421062,5.5438805 7.68421062,5.72136609 L7.68421062,5.72136609 L7.684,10.823 L5.53222118,8.73833546 C5.42336215,8.6328916 5.26097859,8.62240743 5.14153143,8.70387463 L5.08583246,8.75225693 C4.96630098,8.88296338 4.97235719,9.08864755 5.09935939,9.21166538 L5.09935939,9.21166538 L7.78356911,11.811665 C7.90516381,11.929445 8.09483619,11.929445 8.21643089,11.811665 L8.21643089,11.811665 L10.9006406,9.21166538 C11.0276428,9.08864755 11.033699,8.88296338 10.9141675,8.75225693 C10.7946361,8.62155047 10.594781,8.61531762 10.4677788,8.73833546 L10.4677788,8.73833546 L8.315,10.822 L8.31578938,5.72136609 C8.31578938,5.56923558 8.21191562,5.44179453 8.07240761,5.40848751 Z" id="path-1"></path>
    </defs>
    <g id="Icons/16px/Digital/Documents/Download-folder" stroke="none" stroke-width="1" fill="none" fill-rule="evenodd">
        <mask id="mask-2" fill="white">
            <use xlink:href="#path-1"></use>
        </mask>
        <use id="Mask" fill="#0C2340" fill-rule="nonzero" xlink:href="#path-1"></use>
        <g id="Group" mask="url(#mask-2)" fill="#333333">
            <g id="Color/Grayscale/80%">
                <rect id="Rectangle" x="0" y="0" width="16" height="16"></rect>
            </g>
        </g>
    </g>
</svg>