<?xml version="1.0" encoding="UTF-8"?>
<svg width="16px" height="16px" viewBox="0 0 16 16" version="1.1" xmlns="http://www.w3.org/2000/svg" xmlns:xlink="http://www.w3.org/1999/xlink">
    <title>Icons/16px/Interface/Drag corner/Btm left</title>
    <defs>
        <path d="M14.5,16 C15.3284271,16 16,15.3284271 16,14.5 C16,13.6715729 15.3284271,13 14.5,13 C13.6715729,13 13,13.6715729 13,14.5 C13,15.3284271 13.6715729,16 14.5,16 Z M8,16 C8.82842712,16 9.5,15.3284271 9.5,14.5 C9.5,13.6715729 8.82842712,13 8,13 C7.17157288,13 6.5,13.6715729 6.5,14.5 C6.5,15.3284271 7.17157288,16 8,16 Z M8,9.5 C8.82842712,9.5 9.5,8.82842712 9.5,8 C9.5,7.17157288 8.82842712,6.5 8,6.5 C7.17157288,6.5 6.5,7.17157288 6.5,8 C6.5,8.82842712 7.17157288,9.5 8,9.5 Z M1.5,16 C2.32842712,16 3,15.3284271 3,14.5 C3,13.6715729 2.32842712,13 1.5,13 C0.671572875,13 -2.30402364e-11,13.6715729 -2.30402364e-11,14.5 C-2.30402364e-11,15.3284271 0.671572875,16 1.5,16 Z M1.5,9.5 C2.32842712,9.5 3,8.82842712 3,8 C3,7.17157288 2.32842712,6.5 1.5,6.5 C0.671572875,6.5 -2.30402364e-11,7.17157288 -2.30402364e-11,8 C-2.30402364e-11,8.82842712 0.671572875,9.5 1.5,9.5 Z M1.5,3 C2.32842712,3 3,2.32842712 3,1.5 C3,0.671572875 2.32842712,0 1.5,0 C0.671572875,0 -2.23956409e-11,0.671572875 -2.23956409e-11,1.5 C-2.23956409e-11,2.32842712 0.671572875,3 1.5,3 Z" id="path-1"></path>
    </defs>
    <g id="Icons" stroke="none" stroke-width="1" fill="none" fill-rule="evenodd">
        <g transform="translate(-431.000000, -822.000000)" id="Group">
            <g transform="translate(431.000000, 822.000000)" id="Drag-corner">
                <mask id="mask-2" fill="white">
                    <use xlink:href="#path-1"></use>
                </mask>
                <use id="Mask" fill="#7C878E" xlink:href="#path-1"></use>
                <g id="Group" mask="url(#mask-2)" fill="#333333">
                    <g id="Color/Grayscale/80%">
                        <rect id="Rectangle" x="0" y="0" width="16" height="16"></rect>
                    </g>
                </g>
            </g>
        </g>
    </g>
</svg>