<?xml version="1.0" encoding="UTF-8"?>
<svg width="16px" height="16px" viewBox="0 0 16 16" version="1.1" xmlns="http://www.w3.org/2000/svg" xmlns:xlink="http://www.w3.org/1999/xlink">
    <title>Icons/16px/Interface/Drag</title>
    <defs>
        <path d="M8.83333333,13 C9.66176046,13 10.3333333,13.6715729 10.3333333,14.5 C10.3333333,15.3284271 9.66176046,16 8.83333333,16 C8.00490621,16 7.33333333,15.3284271 7.33333333,14.5 C7.33333333,13.6715729 8.00490621,13 8.83333333,13 Z M1.83333333,13 C2.66176046,13 3.33333333,13.6715729 3.33333333,14.5 C3.33333333,15.3284271 2.66176046,16 1.83333333,16 C1.00490621,16 0.333333333,15.3284271 0.333333333,14.5 C0.333333333,13.6715729 1.00490621,13 1.83333333,13 Z M1.83333333,6.5 C2.66176046,6.5 3.33333333,7.17157288 3.33333333,8 C3.33333333,8.82842712 2.66176046,9.5 1.83333333,9.5 C1.00490621,9.5 0.333333333,8.82842712 0.333333333,8 C0.333333333,7.17157288 1.00490621,6.5 1.83333333,6.5 Z M8.83333333,6.5 C9.66176046,6.5 10.3333333,7.17157288 10.3333333,8 C10.3333333,8.82842712 9.66176046,9.5 8.83333333,9.5 C8.00490621,9.5 7.33333333,8.82842712 7.33333333,8 C7.33333333,7.17157288 8.00490621,6.5 8.83333333,6.5 Z M1.83333333,-9.05941988e-14 C2.66176046,-9.05941988e-14 3.33333333,0.671572875 3.33333333,1.5 C3.33333333,2.32842712 2.66176046,3 1.83333333,3 C1.00490621,3 0.333333333,2.32842712 0.333333333,1.5 C0.333333333,0.671572875 1.00490621,-9.05941988e-14 1.83333333,-9.05941988e-14 Z M8.83333333,-1.81410442e-13 C9.66176046,-1.81410442e-13 10.3333333,0.671572875 10.3333333,1.5 C10.3333333,2.32842712 9.66176046,3 8.83333333,3 C8.00490621,3 7.33333333,2.32842712 7.33333333,1.5 C7.33333333,0.671572875 8.00490621,-1.81410442e-13 8.83333333,-1.81410442e-13 Z" id="path-1"></path>
    </defs>
    <g id="Icons/16px/Interface/Drag" stroke="none" stroke-width="1" fill="none" fill-rule="evenodd">
        <g id="Drag" transform="translate(2.666667, 0.000000)">
            <mask id="mask-2" fill="white">
                <use xlink:href="#path-1"></use>
            </mask>
            <use id="Mask" fill="#7C878E" xlink:href="#path-1"></use>
            <g id="Group" mask="url(#mask-2)">
                <g transform="translate(-2.666667, 0.000000)" id="Color/Grayscale/80%">
                    <rect id="Rectangle" fill="#333333" x="0" y="0" width="16" height="16"></rect>
                </g>
            </g>
        </g>
    </g>
</svg>