<?xml version="1.0" encoding="UTF-8"?>
<svg width="16px" height="16px" viewBox="0 0 16 16" version="1.1" xmlns="http://www.w3.org/2000/svg" xmlns:xlink="http://www.w3.org/1999/xlink">
    <title>Icons/16px/Interface/Drag corner/Btm right</title>
    <defs>
        <path d="M1.5,16 C0.671572875,16 0,15.3284271 0,14.5 C0,13.6715729 0.671572875,13 1.5,13 C2.32842712,13 3,13.6715729 3,14.5 C3,15.3284271 2.32842712,16 1.5,16 Z M8,16 C7.17157288,16 6.5,15.3284271 6.5,14.5 C6.5,13.6715729 7.17157288,13 8,13 C8.82842712,13 9.5,13.6715729 9.5,14.5 C9.5,15.3284271 8.82842712,16 8,16 Z M8,9.5 C7.17157288,9.5 6.5,8.82842712 6.5,8 C6.5,7.17157288 7.17157288,6.5 8,6.5 C8.82842712,6.5 9.5,7.17157288 9.5,8 C9.5,8.82842712 8.82842712,9.5 8,9.5 Z M14.5,16 C13.6715729,16 13,15.3284271 13,14.5 C13,13.6715729 13.6715729,13 14.5,13 C15.3284271,13 16,13.6715729 16,14.5 C16,15.3284271 15.3284271,16 14.5,16 Z M14.5,9.5 C13.6715729,9.5 13,8.82842712 13,8 C13,7.17157288 13.6715729,6.5 14.5,6.5 C15.3284271,6.5 16,7.17157288 16,8 C16,8.82842712 15.3284271,9.5 14.5,9.5 Z M14.5,3 C13.6715729,3 13,2.32842712 13,1.5 C13,0.671572875 13.6715729,0 14.5,0 C15.3284271,0 16,0.671572875 16,1.5 C16,2.32842712 15.3284271,3 14.5,3 Z" id="path-1"></path>
    </defs>
    <g id="Icons" stroke="none" stroke-width="1" fill="none" fill-rule="evenodd">
        <g transform="translate(-471.000000, -822.000000)" id="Group">
            <g transform="translate(471.000000, 822.000000)">
                <g id="Drag-corner" transform="translate(-0.000000, 0.000000)">
                    <mask id="mask-2" fill="white">
                        <use xlink:href="#path-1"></use>
                    </mask>
                    <use id="Shape" fill="#7C878E" xlink:href="#path-1"></use>
                    <g id="Group" mask="url(#mask-2)">
                        <g transform="translate(0.000000, 0.000000)" id="Color/Grayscale/80%">
                            <rect id="Rectangle" fill="#333333" x="0" y="0" width="16" height="16"></rect>
                        </g>
                    </g>
                </g>
            </g>
        </g>
    </g>
</svg>