<?xml version="1.0" encoding="UTF-8"?>
<svg width="16px" height="16px" viewBox="0 0 16 16" version="1.1" xmlns="http://www.w3.org/2000/svg" xmlns:xlink="http://www.w3.org/1999/xlink">
    <title>Icons/16px/Interface/Drag corner/Top right</title>
    <defs>
        <path d="M1.5,0 C0.671572875,0 0,0.671572875 0,1.5 C0,2.32842712 0.671572875,3 1.5,3 C2.32842712,3 3,2.32842712 3,1.5 C3,0.671572875 2.32842712,0 1.5,0 Z M8,1.77635684e-15 C7.17157288,1.77635684e-15 6.5,0.671572875 6.5,1.5 C6.5,2.32842712 7.17157288,3 8,3 C8.82842712,3 9.5,2.32842712 9.5,1.5 C9.5,0.671572875 8.82842712,1.77635684e-15 8,1.77635684e-15 Z M8,6.5 C7.17157288,6.5 6.5,7.17157288 6.5,8 C6.5,8.82842712 7.17157288,9.5 8,9.5 C8.82842712,9.5 9.5,8.82842712 9.5,8 C9.5,7.17157288 8.82842712,6.5 8,6.5 Z M14.5,1.77635684e-15 C13.6715729,1.77635684e-15 13,0.671572875 13,1.5 C13,2.32842712 13.6715729,3 14.5,3 C15.3284271,3 16,2.32842712 16,1.5 C16,0.671572875 15.3284271,1.77635684e-15 14.5,1.77635684e-15 Z M14.5,6.5 C13.6715729,6.5 13,7.17157288 13,8 C13,8.82842712 13.6715729,9.5 14.5,9.5 C15.3284271,9.5 16,8.82842712 16,8 C16,7.17157288 15.3284271,6.5 14.5,6.5 Z M14.5,13 C13.6715729,13 13,13.6715729 13,14.5 C13,15.3284271 13.6715729,16 14.5,16 C15.3284271,16 16,15.3284271 16,14.5 C16,13.6715729 15.3284271,13 14.5,13 Z" id="path-1"></path>
    </defs>
    <g id="Icons" stroke="none" stroke-width="1" fill="none" fill-rule="evenodd">
        <g transform="translate(-551.000000, -822.000000)" id="Group">
            <g transform="translate(551.000000, 822.000000)">
                <g id="Drag-corner" transform="translate(-0.000000, 0.000000)">
                    <mask id="mask-2" fill="white">
                        <use xlink:href="#path-1"></use>
                    </mask>
                    <use id="Shape" fill="#7C878E" xlink:href="#path-1"></use>
                    <g id="Group" mask="url(#mask-2)">
                        <g transform="translate(0.000000, 0.000000)" id="Color/Grayscale/80%">
                            <rect id="Rectangle" fill="#333333" x="0" y="0" width="16" height="16"></rect>
                        </g>
                    </g>
                </g>
            </g>
        </g>
    </g>
</svg>