<?xml version="1.0" encoding="UTF-8"?>
<svg width="16px" height="16px" viewBox="0 0 16 16" version="1.1" xmlns="http://www.w3.org/2000/svg" xmlns:xlink="http://www.w3.org/1999/xlink">
    <title>Icons/16px/Interface/Edit</title>
    <defs>
        <path d="M5.6816484,10.7282963 C5.46182952,10.7579497 5.2741408,10.5696952 5.30370504,10.3492137 C5.51547418,8.89135495 5.6387272,8.14500735 5.67346412,8.11017088 L11.125351,2.64265834 C11.2566026,2.51103054 11.4693779,2.51101404 11.6006498,2.64262149 L13.3657768,4.41226037 C13.4970981,4.54392669 13.4971224,4.75743158 13.3658312,4.88911857 L7.91394427,10.3574403 C6.57229294,10.5849087 5.82819432,10.7085274 5.6816484,10.7282963 Z M15.9015475,1.86919733 C16.0328464,2.00089203 16.0328133,2.21442158 15.9014735,2.34607527 L14.6058638,3.64478144 C14.474603,3.77635589 14.2618713,3.77634705 14.1306214,3.6447617 L12.3654944,1.87512281 C12.2341732,1.74346593 12.2341489,1.52995161 12.3654401,1.39826462 L13.6610498,0.0987492814 C13.7923198,-0.0329164271 14.0051505,-0.0329164271 14.1364205,0.0987492814 L15.9015475,1.86919733 Z M12.4765693,10.7758844 C12.4765693,10.4065847 12.7750461,10.1072081 13.143236,10.1072081 C13.5114258,10.1072081 13.8099026,10.4065847 13.8099026,10.7758844 L13.8099026,15.3313237 C13.8099026,15.7006234 13.5114258,16 13.143236,16 L0.666666667,16 C0.298476833,16 -9.76996262e-15,15.7006234 -9.76996262e-15,15.3313237 L-9.76996262e-15,2.87530828 C-9.76996262e-15,2.50600853 0.298476833,2.20663193 0.666666667,2.20663193 L5.24633789,2.20663193 C5.61452772,2.20663193 5.91300456,2.50600853 5.91300456,2.87530828 C5.91300456,3.24460802 5.61452772,3.54398462 5.24633789,3.54398462 L1.33333333,3.54398462 L1.33333333,14.6626473 L12.4765693,14.6626473 L12.4765693,10.7758844 Z" id="path-1"></path>
    </defs>
    <g id="Icons/16px/Interface/Edit" stroke="none" stroke-width="1" fill="none" fill-rule="evenodd">
        <mask id="mask-2" fill="white">
            <use xlink:href="#path-1"></use>
        </mask>
        <use id="Combined-Shape" fill="#0C2340" fill-rule="nonzero" xlink:href="#path-1"></use>
        <g id="Group" mask="url(#mask-2)" fill="#333333">
            <g id="Color/Grayscale/80%">
                <rect id="Rectangle" x="0" y="0" width="16" height="16"></rect>
            </g>
        </g>
    </g>
</svg>