<?xml version="1.0" encoding="UTF-8"?>
<svg width="16px" height="16px" viewBox="0 0 16 16" version="1.1" xmlns="http://www.w3.org/2000/svg" xmlns:xlink="http://www.w3.org/1999/xlink">
    <title>Icons/16px/Travel &amp; Airport/Extra legroom</title>
    <defs>
        <path d="M3.76490953,4.29396474 C4.47689303,4.00129506 5.29137416,4.34795725 5.58136745,5.06651179 L5.58136745,5.06651179 L7.18783023,9.09172918 L10.9452432,7.30038886 C11.426732,7.07028993 11.9912189,7.22621223 12.2957119,7.64503264 L12.2957119,7.64503264 L15.788131,11.3286339 C16.0791242,11.63846 16.0701244,12.1299433 15.7626316,12.4266498 C15.4571386,12.7223471 14.9696499,12.7117504 14.6756567,12.4019242 L14.6756567,12.4019242 L13.24119,10.8886201 L15.2996423,14.171062 C15.5516364,14.575249 15.4336392,15.1106326 15.0321485,15.3654571 C14.6326577,15.6217954 14.10267,15.5006907 13.8486759,15.0970084 L13.8486759,15.0970084 L11.4307319,11.2403284 C11.4227321,11.2413376 11.4172322,11.2448698 11.4092324,11.2468882 C8.59496429,11.774256 7.04516686,12.063057 6.75984014,12.1132914 C6.33185006,12.1886429 5.41064918,12.1587056 5.0653794,11.3034037 L5.0653794,11.3034037 L2.99942726,6.12567329 C2.70943398,5.40762336 3.05092607,4.58663443 3.76490953,4.29396474 Z M0.406637336,3.05324712 C0.734629737,2.92003195 1.111621,3.0845325 1.24161799,3.415552 L1.24161799,3.415552 L4.49804254,11.7586565 C5.05502964,12.8021753 6.03350697,12.8132765 6.3429998,12.7865326 L6.3429998,12.7865326 L10.6728995,12.0074257 C11.0223914,11.9428365 11.3583836,12.1749539 11.4228821,12.5286805 C11.4893806,12.8788749 11.2588859,13.2199865 10.910394,13.2870987 C7.86546453,13.829715 6.32316693,14.1000139 6.28350118,14.0979955 C4.40654466,14.2922676 3.57056403,12.8269008 3.40556786,12.4918445 C3.40056797,12.4827616 3.39656806,12.4711558 3.38906824,12.4600545 C3.38106842,12.4368428 3.37406858,12.4242277 3.37406858,12.4242277 L3.37406858,12.4242277 L0.0471456646,3.89795238 C-0.0868512309,3.56239145 0.0746450274,3.18545308 0.406637336,3.05324712 Z M3.60741318,0.500410555 C4.46889322,0.480731042 5.17987675,1.17102782 5.1993763,2.03490799 C5.2208758,2.90332959 4.53939159,3.62289334 3.67891152,3.64156365 C2.81843146,3.66124316 2.10594797,2.973974 2.08794838,2.10807541 C2.06644888,1.24015842 2.74943306,0.520594671 3.60741318,0.500410555 Z" id="path-1"></path>
    </defs>
    <g id="Icons/16px/Travel-&amp;-Airport/Extra-legroom" stroke="none" stroke-width="1" fill="none" fill-rule="evenodd">
        <mask id="mask-2" fill="white">
            <use xlink:href="#path-1"></use>
        </mask>
        <use id="Mask" fill="#0C2340" fill-rule="nonzero" xlink:href="#path-1"></use>
        <g id="Group" mask="url(#mask-2)" fill="#333333">
            <g id="Color/Grayscale/80%">
                <rect id="Rectangle" x="0" y="0" width="16" height="16"></rect>
            </g>
        </g>
    </g>
</svg>