<?xml version="1.0" encoding="UTF-8"?>
<svg width="16px" height="16px" viewBox="0 0 16 16" version="1.1" xmlns="http://www.w3.org/2000/svg" xmlns:xlink="http://www.w3.org/1999/xlink">
    <title>Icons/16px/Digital/Farelock</title>
    <defs>
        <path d="M6.66666667,0.0020702645 C8.66666667,-4.7300705e-14 10.6666667,1.77333333 10.6666667,4 L10.6666667,5.33333333 L12,5.33333333 C12.6666667,5.33333333 13.3333333,6 13.3333333,6.66666667 L13.3333333,14.6666667 C13.3333333,15.3333333 12.6666667,16 12,16 L1.33333333,16 C0.514668109,16 0,15.3333333 0,14.6666667 L0,6.66666667 C0,6 0.666666667,5.33333333 1.33333333,5.33333333 L2.66666667,5.33333333 L2.66666667,4 C2.66666667,1.77333333 4.66666667,0.00414415702 6.66666667,0.0020702645 Z M6.36473785,6.78456814 L6.25303736,6.91243147 L6.16813699,7.01655129 L6.11003673,7.0969276 C6.08768663,7.13117988 6.07538658,7.15652835 6.07313657,7.172973 L5.81272043,9.68020434 L2.79181221,11.9562328 C2.70838185,12.0210336 2.66666667,12.1042346 2.66666667,12.1966358 L2.66666667,12.6870419 L5.96864611,11.6602291 L6.10432171,13.6118535 L5.35425842,14.3430626 C5.34386338,14.3522627 5.33431209,14.3838298 5.32560455,14.4377638 L5.31317606,14.53544 L5.3020132,14.6666667 L6.67699421,14.2502615 L8.03132014,14.6666667 L8.02015728,14.5429151 L8.00772878,14.4492639 C7.99902125,14.3968633 7.98946995,14.3645296 7.97907491,14.3522627 L7.22941663,13.6214536 L7.36468722,11.6694292 L10.6666667,12.696242 L10.6666667,12.2058359 C10.6666667,12.1134348 10.6249515,12.0210336 10.5419261,11.9654329 L7.50036281,9.68020434 L7.23994667,7.172973 C7.23526665,7.1400837 7.19044646,7.07157914 7.10548609,6.96745932 L7.00714566,6.85146774 C6.98852557,6.83015719 6.96879049,6.80785732 6.9479404,6.78456814 C6.79201472,6.62736618 6.52106853,6.62736618 6.36473785,6.78456814 Z M6.66666667,2 C5.71212121,2 4.75757576,2.80991736 4.6727711,3.84992487 L4.66666667,4 L4.66666667,5.33333333 L8.66666667,5.33333333 L8.66666667,4 C8.66666667,2.88888889 7.66666667,2 6.66666667,2 Z" id="path-1"></path>
    </defs>
    <g id="Icons/16px/Digital/Farelock" stroke="none" stroke-width="1" fill="none" fill-rule="evenodd">
        <g id="Icon" transform="translate(1.333333, 0.000000)">
            <mask id="mask-2" fill="white">
                <use xlink:href="#path-1"></use>
            </mask>
            <use id="Mask" fill="#0C2340" fill-rule="nonzero" xlink:href="#path-1"></use>
            <g id="Group" mask="url(#mask-2)">
                <g transform="translate(-1.333333, 0.000000)" id="Color/Grayscale/80%">
                    <rect id="Rectangle" fill="#333333" x="0" y="0" width="16" height="16"></rect>
                </g>
            </g>
        </g>
    </g>
</svg>