<?xml version="1.0" encoding="UTF-8"?>
<svg width="16px" height="16px" viewBox="0 0 16 16" version="1.1" xmlns="http://www.w3.org/2000/svg" xmlns:xlink="http://www.w3.org/1999/xlink">
    <title>Icons/16px/Digital/Favorite/Off</title>
    <defs>
        <path d="M11.6664,0.5 C14.0528,0.5 16,2.44293078 16,4.83293595 C16,5.79438624 15.676213,6.72716368 15.0865274,7.49010971 L14.9336,7.67722638 L8.46,15.1949664 C8.15681641,15.5703924 7.91562292,15.5992713 7.61048857,15.2816032 L7.5328,15.1949664 L1.06,7.67722638 C0.3728,6.88242747 0,5.87450709 0,4.83293595 C0,2.44293078 1.94,0.5 4.3264,0.5 C5.6064,0.5 6.78648028,1.05003384 7.61519495,2.01650697 L7.7664,2.20256821 L8,2.50302143 L8.2264,2.20256821 C9.06,1.12093664 10.3136,0.5 11.6664,0.5 Z M11.6664,1.83 C10.7947786,1.83 9.98659744,2.19925909 9.41598237,2.84826818 L9.28859837,3.00296475 L8.01653106,4.69111277 L6.71257544,3.01395826 C6.12902742,2.25605244 5.269553,1.83 4.3264,1.83 C2.67498854,1.83 1.33,3.17702043 1.33,4.83293595 C1.33,5.4855285 1.54041228,6.11649997 1.9310427,6.63929367 L2.06788617,6.80943292 L7.996,13.695 L13.9270146,6.80792445 C14.3590789,6.30762688 14.6152456,5.690418 14.6621583,5.04791483 L14.67,4.83293595 C14.67,3.17907344 13.3198661,1.83 11.6664,1.83 Z" id="path-1"></path>
    </defs>
    <g id="Icons/16px/Digital/Favorite/Off" stroke="none" stroke-width="1" fill="none" fill-rule="evenodd">
        <g id="Color/Grayscale/80%">
            <mask id="mask-2" fill="white">
                <use xlink:href="#path-1"></use>
            </mask>
            <use id="Mask" fill="#979797" fill-rule="nonzero" xlink:href="#path-1"></use>
            <g id="Group" mask="url(#mask-2)" fill="#333333">
                <g id="Color/Grayscale/80%">
                    <rect id="Rectangle" x="0" y="0" width="16" height="16"></rect>
                </g>
            </g>
        </g>
    </g>
</svg>