<?xml version="1.0" encoding="UTF-8"?>
<svg width="16px" height="16px" viewBox="0 0 16 16" version="1.1" xmlns="http://www.w3.org/2000/svg" xmlns:xlink="http://www.w3.org/1999/xlink">
    <title>Icons/16px/Interface/Filter</title>
    <defs>
        <path d="M6,10.1 C6.99115066,10.1 7.81390667,10.8029586 7.97242011,11.7254241 L15.3333333,11.725 C15.7015232,11.725 16,12.0160149 16,12.375 C16,12.7339851 15.7015232,13.025 15.3333333,13.025 L7.73177703,13.0261092 C7.38580598,13.6083538 6.73981267,14 6,14 C5.26018733,14 4.61419402,13.6083538 4.26822297,13.0261092 L0.666666667,13.025 C0.298476833,13.025 0,12.7339851 0,12.375 C0,12.0160149 0.298476833,11.725 0.666666667,11.725 L4.02757989,11.7254241 C4.18609333,10.8029586 5.00884934,10.1 6,10.1 Z M11.3333333,5.55 C12.324484,5.55 13.14724,6.2529586 13.3057534,7.17542409 L15.3333333,7.175 C15.7015232,7.175 16,7.46601491 16,7.825 C16,8.18398509 15.7015232,8.475 15.3333333,8.475 L13.0651104,8.47610918 C12.7191393,9.05835378 12.073146,9.45 11.3333333,9.45 C10.5935207,9.45 9.94752735,9.05835378 9.6015563,8.47610918 L0.666666667,8.475 C0.298476833,8.475 0,8.18398509 0,7.825 C0,7.46601491 0.298476833,7.175 0.666666667,7.175 L9.36091322,7.17542409 C9.51942667,6.2529586 10.3421827,5.55 11.3333333,5.55 Z M4,1 C4.99115066,1 5.81390667,1.7029586 5.97242011,2.62542409 L15.3333333,2.625 C15.7015232,2.625 16,2.91601491 16,3.275 C16,3.63398509 15.7015232,3.925 15.3333333,3.925 L5.73177703,3.92610918 C5.38580598,4.50835378 4.73981267,4.9 4,4.9 C3.26018733,4.9 2.61419402,4.50835378 2.26822297,3.92610918 L0.666666667,3.925 C0.298476833,3.925 0,3.63398509 0,3.275 C0,2.91601491 0.298476833,2.625 0.666666667,2.625 L2.02757989,2.62542409 C2.18609333,1.7029586 3.00884934,1 4,1 Z" id="path-1"></path>
    </defs>
    <g id="Icons/16px/Interface/Filter" stroke="none" stroke-width="1" fill="none" fill-rule="evenodd">
        <mask id="mask-2" fill="white">
            <use xlink:href="#path-1"></use>
        </mask>
        <use id="Mask" fill="#0C2340" fill-rule="nonzero" xlink:href="#path-1"></use>
        <g id="Group" mask="url(#mask-2)" fill="#333333">
            <g id="Color/Grayscale/80%">
                <rect id="Rectangle" x="0" y="0" width="16" height="16"></rect>
            </g>
        </g>
    </g>
</svg>