<?xml version="1.0" encoding="UTF-8"?>
<svg width="16px" height="16px" viewBox="0 0 16 16" version="1.1" xmlns="http://www.w3.org/2000/svg" xmlns:xlink="http://www.w3.org/1999/xlink">
    <title>Icons/16px/Weather/Fog</title>
    <defs>
        <path d="M14.4709791,13.1467163 C14.7099776,13.1486756 14.9029764,13.3406881 14.9029764,13.5758054 C14.9029764,13.8099431 14.7069776,14.0009759 14.4689791,13.9999962 L14.4689791,13.9999962 L1.10506079,13.9990166 C0.864062264,13.9980369 0.669063456,13.8060245 0.669063456,13.5709071 C0.672063438,13.3367695 0.866062252,13.1457366 1.10706078,13.1467163 L1.10706078,13.1467163 Z M6.7798261,11.0256642 L15.5657724,11.0266438 C15.8067709,11.0286031 15.9987697,11.2206156 15.9987697,11.4557329 C15.9987697,11.6908503 15.800771,11.8818831 15.5627724,11.8809034 L15.5627724,11.8809034 L6.77882611,11.8799238 C6.5348276,11.8789441 6.34082878,11.6879113 6.34379444,11.4518143 C6.34379444,11.216697 6.53782758,11.0256642 6.7798261,11.0256642 L6.7798261,11.0256642 Z M0.43606488,11.0256642 L4.93503738,11.0266438 C5.17503591,11.0286031 5.36803473,11.2206156 5.36803473,11.4557329 C5.36603474,11.6908503 5.17203593,11.8818831 4.9320374,11.8809034 L4.9320374,11.8809034 L0.433064899,11.8799238 C0.192066372,11.8789441 -0.00293243586,11.6879113 3.33887228e-05,11.4518143 C3.33887228e-05,11.216697 0.196066348,11.0256642 0.43606488,11.0256642 L0.43606488,11.0256642 Z M9.21831119,8.87316508 C9.45930972,8.87316508 9.65630852,9.0641979 9.65630852,9.29833557 C9.65630852,9.53345289 9.46330969,9.72546537 9.22031118,9.72644503 L0.434364891,9.72840434 C0.19736634,9.72840434 0.00035221809,9.53737151 0.00035221809,9.30225419 C-0.00163244381,9.06811652 0.19236637,8.87512439 0.433364897,8.87414473 L9.21831119,8.87316508 Z M15.5619724,8.87316508 C15.8029709,8.87316508 15.999985,9.0641979 15.999985,9.29833557 C16.0019697,9.53345289 15.8069709,9.72546537 15.5639724,9.72644503 L11.0659999,9.72840434 C10.8250014,9.72840434 10.6309987,9.53737151 10.6309987,9.30225419 C10.6300026,9.06811652 10.8220014,8.87512439 11.0629999,8.87414473 L15.5619724,8.87316508 Z M5.54133367,2 C6.88932543,2 8.15831767,2.5152988 9.11131185,3.4489105 C9.43630986,3.76631888 9.71330817,4.11997452 9.9363068,4.50399948 L9.9363068,4.50399948 L10.0343062,4.67152057 L10.228305,4.63527332 C10.4583036,4.59412779 10.6893022,4.57355502 10.9223008,4.57355502 C12.7992893,4.57355502 14.3392799,5.93429652 14.6052783,7.69865609 L14.6052783,7.69865609 L13.7662834,7.69865609 C13.509285,6.38787702 12.3342921,5.39352668 10.9223008,5.39352668 C10.4423037,5.39352668 9.98030653,5.50814637 9.56330908,5.72367059 C9.02431238,4.02200897 7.38932237,2.82095132 5.54133367,2.82095132 C3.21634788,2.82095132 1.32635944,4.67347988 1.32635944,6.94823997 C1.32635944,7.20588937 1.35535926,7.45472187 1.40435896,7.69865609 L1.40435896,7.69865609 L0.550364182,7.69865609 C0.509364432,7.4517829 0.486364573,7.2029504 0.486364573,6.94823997 C0.486364573,5.62668469 1.01236136,4.38350185 1.96635553,3.4489105 C2.92234968,2.5152988 4.18934194,2 5.54133367,2 Z" id="path-1"></path>
    </defs>
    <g id="Icons/16px/Weather/Fog" stroke="none" stroke-width="1" fill="none" fill-rule="evenodd">
        <mask id="mask-2" fill="white">
            <use xlink:href="#path-1"></use>
        </mask>
        <use id="Mask" fill="#0C2340" fill-rule="nonzero" xlink:href="#path-1"></use>
        <g id="Group" mask="url(#mask-2)" fill="#333333">
            <g id="Color/Grayscale/80%">
                <rect id="Rectangle" x="0" y="0" width="16" height="16"></rect>
            </g>
        </g>
    </g>
</svg>