<?xml version="1.0" encoding="UTF-8"?>
<svg width="16px" height="16px" viewBox="0 0 16 16" version="1.1" xmlns="http://www.w3.org/2000/svg" xmlns:xlink="http://www.w3.org/1999/xlink">
    <title>Icons/16px/Travel &amp; Airport/Food</title>
    <defs>
        <path d="M10.2317297,11.2029288 C10.4613236,11.2029288 10.6421188,11.378502 10.6421188,11.6014644 C10.6421188,11.8166581 10.4613236,12 10.2317297,12 L10.2317297,12 L0.410389158,12 C0.180795223,12 0,11.8166581 0,11.6014644 C0,11.378502 0.180795223,11.2029288 0.410389158,11.2029288 L0.410389158,11.2029288 Z M15.5979079,4 L15.9834977,6.93269371 C16.0322964,7.32268371 15.9754979,7.72898803 15.7779032,8.0715888 C15.4922193,8.55371588 14.9874006,8.91530659 14.3512737,9.02511191 L14.3509009,10.8694951 C15.2260777,11.0119218 15.6636662,11.1895666 15.6636662,11.4024297 C15.6636662,11.7287161 14.8916866,11.9813029 13.9405117,11.9813029 C12.9885368,11.9813029 12.2173572,11.7287161 12.2173572,11.4024297 C12.2173572,11.1895666 12.6549457,11.0119218 13.5301225,10.8694951 L13.5301225,10.8694951 L13.530188,9.02520468 C12.8179189,8.90283683 12.253442,8.46631772 12.0044028,7.88824689 C11.8804061,7.60934966 11.8644065,7.29860066 11.8972057,6.99639725 L11.8972057,6.99639725 L12.2907953,4 L15.5979079,4 Z M5.35785845,5.84895656 C5.58745238,5.84895656 5.7682476,6.02375288 5.7682476,6.24671529 L5.7682476,6.24671529 L5.7682476,6.59786166 C7.74579536,6.75712052 9.46015007,8.01565398 10.1169327,9.84829622 C10.1169327,9.85684182 10.3874817,10.4146363 9.73934269,10.4146363 L9.73934269,10.4146363 L0.985173972,10.4146363 C0.374430339,10.4146363 0.607583948,9.84829622 0.607583948,9.84829622 C1.26356662,8.01565398 2.9787213,6.75712052 4.94826927,6.59786166 L4.94826927,6.59786166 L4.94826927,6.24671529 C4.94826927,6.02375288 5.1362643,5.84895656 5.35785845,5.84895656 Z" id="path-1"></path>
    </defs>
    <g id="Icons/16px/Travel-&amp;-Airport/Food" stroke="none" stroke-width="1" fill="none" fill-rule="evenodd">
        <mask id="mask-2" fill="white">
            <use xlink:href="#path-1"></use>
        </mask>
        <use id="Mask" fill="#0C2340" fill-rule="nonzero" xlink:href="#path-1"></use>
        <g id="Group" mask="url(#mask-2)" fill="#333333">
            <g id="Color/Grayscale/80%">
                <rect id="Rectangle" x="0" y="0" width="16" height="16"></rect>
            </g>
        </g>
    </g>
</svg>