<?xml version="1.0" encoding="UTF-8"?>
<svg width="16px" height="16px" viewBox="0 0 16 16" version="1.1" xmlns="http://www.w3.org/2000/svg" xmlns:xlink="http://www.w3.org/1999/xlink">
    <title>Icons/16px/Weather/Freezing rain</title>
    <defs>
        <path d="M10.7289,9.54511499 L12.5449,12.7470737 C12.7469,13.0718667 12.8619,13.4586201 12.8619,13.8643615 C12.8619,15.0436097 11.9049,16 10.7289,16 C9.5489,16 8.5919,15.0436097 8.5919,13.8643615 C8.5919,13.4586201 8.7079,13.0718667 8.9069,12.7470737 L8.9069,12.7470737 L10.7289,9.54511499 Z M4.6919,11.6232902 C5.5119,11.6232902 6.1699,12.283869 6.1699,13.0993492 C6.1699,13.9128306 5.5119,14.5734095 4.6919,14.5734095 C3.8789,14.5734095 3.2189,13.9128306 3.2189,13.0993492 C3.2189,12.283869 3.8789,11.6232902 4.6919,11.6232902 Z M5.702,-8.2600593e-14 C7.227,-8.2600593e-14 8.659,0.593621566 9.735,1.66693733 C10.104,2.03170479 10.413,2.44044422 10.665,2.88116326 L10.665,2.88116326 L10.774,3.0740403 L10.995,3.03306642 C11.254,2.98709573 11.518,2.96111229 11.778,2.96111229 C14.104,2.96111229 16,4.85090755 16,7.17342694 C16,8.76641141 15.106,10.150529 13.797,10.8640742 L13.797,10.8640742 L13.305,10.0895679 L13.319,10.0525915 C14.352,9.50194251 15.053,8.41863312 15.053,7.17342694 C15.053,5.37157562 13.584,3.90551024 11.778,3.90551024 C11.237,3.90551024 10.717,4.03642678 10.245,4.28426878 C9.637,2.32651685 7.79,0.947396035 5.702,0.947396035 C3.079,0.947396035 0.946,3.07603903 0.946,5.69436984 C0.946,7.29634858 1.75,8.71344518 2.973,9.57189792 L2.973,9.57189792 L2.579,10.4563341 C2.256,10.2434698 1.95,9.99762651 1.67,9.71680554 C0.594,8.64149105 0,7.21440082 0,5.69436984 C0,4.1733395 0.594,2.74325118 1.67,1.66693733 C2.747,0.593621566 4.18,-8.2600593e-14 5.702,-8.2600593e-14 Z M6.8477,6.0930157 C7.9727,6.0930157 8.8867,7.0064334 8.8867,8.13371476 C8.8867,9.25999675 7.9727,10.1734144 6.8477,10.1734144 C5.7177,10.1734144 4.8047,9.25999675 4.8047,8.13371476 C4.8047,7.0064334 5.7177,6.0930157 6.8477,6.0930157 Z" id="path-1"></path>
    </defs>
    <g id="Icons/16px/Weather/Freezing-rain" stroke="none" stroke-width="1" fill="none" fill-rule="evenodd">
        <mask id="mask-2" fill="white">
            <use xlink:href="#path-1"></use>
        </mask>
        <use id="Mask" fill="#0C2340" fill-rule="nonzero" xlink:href="#path-1"></use>
        <g id="Group" mask="url(#mask-2)" fill="#333333">
            <g id="Color/Grayscale/80%">
                <rect id="Rectangle" x="0" y="0" width="16" height="16"></rect>
            </g>
        </g>
    </g>
</svg>