<?xml version="1.0" encoding="UTF-8"?>
<svg width="16px" height="16px" viewBox="0 0 16 16" version="1.1" xmlns="http://www.w3.org/2000/svg" xmlns:xlink="http://www.w3.org/1999/xlink">
    <title>Icons/16px/Digital/Gift</title>
    <defs>
        <path d="M14.68776,8.61111111 L14.68776,14.6031746 C14.68776,14.8253968 14.50376,15 14.28776,15 L14.28776,15 L8.40776,15 L8.40776,8.61111111 L14.68776,8.61111111 Z M7.60768,8.61111111 L7.60768,15 L1.72768,15 C1.51168,15 1.32768,14.8253968 1.32768,14.6031746 L1.32768,14.6031746 L1.32768,8.61111111 L7.60768,8.61111111 Z M7.608,4.09539683 L7.608,7.81761905 L0,7.81761905 L0,4.09539683 L7.608,4.09539683 Z M16,4.09539683 L16,7.81761905 L8.408,7.81761905 L8.408,4.09539683 L16,4.09539683 Z M4.77592,2.1031746 C4.26392,1.88888889 4.17592,1.53174603 4.16792,1.34920635 C4.15192,1.11904762 4.24792,0.912698413 4.39192,0.833333333 C4.63192,0.706349206 5.10392,0.849206349 5.60792,1.1984127 C6.72792,1.97619048 7.23192,2.62698413 7.45592,3.07936508 C7.15725333,3.06349206 6.26392,2.73809524 4.77592,2.1031746 Z M11.08792,1.19047619 C11.14392,1.19047619 11.36792,1.38888889 11.35992,1.56349206 C11.35192,1.70634921 11.27992,1.98412698 10.87192,2.15873016 C9.63992,2.68253968 8.90392,2.97354497 8.66392,3.03174603 C8.91992,2.65079365 9.38392,2.14285714 10.22392,1.55555556 C10.59992,1.29365079 10.90392,1.19047619 11.08792,1.19047619 Z M10.20792,3.3015873 C10.3305867,3.24867725 10.65592,3.11111111 11.18392,2.88888889 C12.02392,2.52380952 12.15192,1.87301587 12.15992,1.6031746 C12.18392,1.14285714 11.96792,0.722222222 11.60792,0.523809524 C11.14392,0.26984127 10.48792,0.404761905 9.76792,0.904761905 C8.91192,1.50793651 8.37592,2.04761905 8.05592,2.50793651 C7.72792,1.96031746 7.12792,1.28571429 6.06392,0.547619048 C5.54392,0.182539683 5.03992,0 4.60792,0 C4.38392,0 4.18392,0.0476190476 4.00792,0.142857143 C3.59192,0.365079365 3.34392,0.857142857 3.36792,1.38095238 C3.38392,1.68253968 3.51992,2.42857143 4.46392,2.83333333 C5.04525333,3.08730159 5.40792,3.24338624 5.55192,3.3015873 L10.20792,3.3015873 Z" id="path-1"></path>
    </defs>
    <g id="Icons/16px/Digital/Gift" stroke="none" stroke-width="1" fill="none" fill-rule="evenodd">
        <mask id="mask-2" fill="white">
            <use xlink:href="#path-1"></use>
        </mask>
        <use id="Mask" fill="#0C2340" fill-rule="nonzero" xlink:href="#path-1"></use>
        <g id="Group" mask="url(#mask-2)" fill="#333333">
            <g id="Color/Grayscale/80%">
                <rect id="Rectangle" x="0" y="0" width="16" height="16"></rect>
            </g>
        </g>
    </g>
</svg>