<?xml version="1.0" encoding="UTF-8"?>
<svg width="16px" height="16px" viewBox="0 0 16 16" version="1.1" xmlns="http://www.w3.org/2000/svg" xmlns:xlink="http://www.w3.org/1999/xlink">
    <title>Icons/16px/Travel &amp; Airport/Global reception</title>
    <defs>
        <path d="M16,11.3935278 L16,15.1103916 C16,15.3207802 15.816,15.5 15.6,15.5 L13.1152,15.5 L13.1152,12.2117054 L14.904,12.2117054 C15.072,12.2117054 15.232,12.1337837 15.336,11.9935247 C15.432,11.8610579 15.448,11.681838 15.4,11.5337868 L15.344,11.3935278 L16,11.3935278 Z M6.736,11.393372 L6.68,11.533631 C6.616,11.6816822 6.632,11.860902 6.736,11.9933689 C6.832,12.1336279 6.992,12.2115496 7.168,12.2115496 L8.9576,12.2115496 L8.9576,15.4998442 L0.4,15.4998442 C0.176,15.4998442 0,15.3206243 0,15.1102358 L0,11.393372 L6.736,11.393372 Z M11.03224,5.21426122 C11.71224,5.21426122 12.32024,5.58828526 12.60824,6.18828214 L12.60824,6.18828214 L12.88024,6.90516153 L12.88024,6.9129537 L14.37624,10.9103355 C14.41624,11.027218 14.40024,11.1596849 14.32824,11.2609831 C14.24824,11.3700734 14.12824,11.4324107 14.00024,11.4324107 L14.00024,11.4324107 L12.31224,11.4324107 L12.31224,15.1103137 C12.31224,15.3207022 12.13624,15.4999221 11.91224,15.4999221 C11.68824,15.4999221 11.51224,15.3207022 11.51224,15.1103137 L11.51224,15.1103137 L11.51224,11.4324107 L10.56024,11.4324107 L10.56024,15.1103137 C10.56024,15.3207022 10.37624,15.4999221 10.16024,15.4999221 C9.93624,15.4999221 9.76024,15.3207022 9.76024,15.1103137 L9.76024,15.1103137 L9.76024,11.4324107 L8.07224,11.4324107 C7.93624,11.4324107 7.81624,11.3700734 7.74424,11.2609831 C7.66424,11.1596849 7.64824,11.027218 7.69624,10.9103355 L7.69624,10.9103355 L9.44824,6.21945081 C9.74424,5.59607742 10.36024,5.21426122 11.03224,5.21426122 Z M7.8256,8.2766609 L6.9536,10.6143111 L0,10.6143111 L0,8.66626927 C0,8.45588075 0.176,8.2766609 0.4,8.2766609 L7.8256,8.2766609 Z M15.6,8.2766609 C15.816,8.2766609 16,8.45588075 16,8.66626927 L16,10.6143111 L15.116,10.6143111 L14.2432,8.2766609 L15.6,8.2766609 Z M4.168,4.0766048 C5.592,4.0766048 6.744,5.14413172 6.744,6.45321583 L6.744,6.45321583 L6.744,7.20126389 C6.744,7.41165241 6.568,7.59087226 6.344,7.59087226 L6.344,7.59087226 L2,7.59087226 C1.784,7.59087226 1.6,7.41165241 1.6,7.20126389 L1.6,7.20126389 L1.6,6.45321583 C1.6,5.14413172 2.752,4.0766048 4.168,4.0766048 Z M11.03208,1.61435785 C11.93608,1.61435785 12.66408,2.33123724 12.66408,3.20395998 C12.66408,4.08447489 11.93608,4.80135428 11.03208,4.80135428 C10.12808,4.80135428 9.40008,4.08447489 9.40008,3.20395998 C9.40008,2.33123724 10.12808,1.61435785 11.03208,1.61435785 Z M4.17624,0.5 C5.07224,0.5 5.80824,1.21687939 5.80824,2.0973943 C5.80824,2.97011704 5.07224,3.68699643 4.17624,3.68699643 C3.27224,3.68699643 2.53624,2.97011704 2.53624,2.0973943 C2.53624,1.21687939 3.27224,0.5 4.17624,0.5 Z" id="path-1"></path>
    </defs>
    <g id="Icons/16px/Travel-&amp;-Airport/Global-reception" stroke="none" stroke-width="1" fill="none" fill-rule="evenodd">
        <mask id="mask-2" fill="white">
            <use xlink:href="#path-1"></use>
        </mask>
        <use id="Mask" fill="#0C2340" fill-rule="nonzero" xlink:href="#path-1"></use>
        <g id="Group" mask="url(#mask-2)" fill="#333333">
            <g id="Color/Grayscale/80%">
                <rect id="Rectangle" x="0" y="0" width="16" height="16"></rect>
            </g>
        </g>
    </g>
</svg>