<?xml version="1.0" encoding="UTF-8"?>
<svg width="16px" height="16px" viewBox="0 0 16 16" version="1.1" xmlns="http://www.w3.org/2000/svg" xmlns:xlink="http://www.w3.org/1999/xlink">
    <title>Icons/16px/Travel &amp; Airport/GSMC</title>
    <defs>
        <path d="M5.03422993,0 C6.13719542,0 6.9950575,0.926640925 6.9950575,1.97683398 C6.9950575,2.40926641 6.87250576,2.77992278 6.62740229,3.08880309 L6.62740229,3.08880309 L7.17888507,3.08880309 C7.91419542,3.08880309 8.73590472,3.55274131 8.76531715,4.31629343 C8.78101319,4.47512127 8.82814604,8.95482073 8.83293889,9.41385941 L8.83333333,9.45173746 C8.83333333,9.82239381 8.7107816,10.1312742 8.46567819,10.3783784 C8.22057472,10.5637066 7.91419542,10.6872587 7.60781611,10.6872587 L7.60781611,10.6872587 L7.48526437,10.6872587 C7.36271264,10.6872587 7.2401609,10.6254826 7.17888507,10.6254826 L7.17888507,10.6254826 L7.17888507,14.7644787 C7.17888507,15.4446332 6.62740229,16 5.95336785,16 C5.27933333,16 4.72785063,15.6911197 4.72785063,14.8880309 L4.72785063,14.8880309 L4.72785063,10.0694981 L4.85040236,9.94594595 L5.34060924,9.94594595 L5.34060924,14.7644787 C5.34060924,15.1357529 5.58571271,15.3822394 5.95336785,15.3822394 C6.25974715,15.3822394 6.56612646,15.1357529 6.56612646,14.7644787 L6.56612646,14.7644787 L6.56612646,6.11583011 L6.9337816,6.11583011 L6.9337816,9.38996139 C6.9337816,9.69884167 7.11760924,10.007722 7.48526437,10.007722 L7.48526437,10.007722 L7.54654021,10.007722 C7.73036785,10.007722 7.85291958,9.94594595 7.97547125,9.82239381 C8.09802299,9.69884167 8.15929889,9.57590734 8.15929889,9.38996139 L8.15929889,9.38996139 L8.15929889,4.6949807 L8.15929889,4.6949807 L8.15255854,4.50162162 C8.09128264,4.06918919 7.66909194,3.70656371 7.17888507,3.70656371 L7.17888507,3.70656371 L2.88957477,3.70656371 C2.33809201,3.70656371 1.90916099,4.13899614 1.90916099,4.63320463 L1.90916099,4.63320463 L1.90916099,5.43629343 C1.7253334,5.4980695 1.60278168,5.62162162 1.48022996,5.74517375 C1.4189541,5.80694981 1.35767824,5.93050193 1.29640238,5.99227799 L1.29640238,5.99227799 L1.29640238,4.63320463 C1.29640238,3.83011583 2.03171271,3.08880309 2.88957477,3.08880309 L2.88957477,3.08880309 L3.4410575,3.08880309 C3.19595408,2.77992278 3.07340235,2.40926641 3.07340235,1.97683398 C3.07340235,0.864864863 3.93126444,0 5.03422993,0 Z M5.09568958,7.78403089 C5.15696549,7.78403089 5.27951722,7.78403089 5.40206889,7.90758303 C5.46334479,7.9693591 5.52462063,8.09291117 5.52462063,8.2164633 C5.52462063,8.34001544 5.46334479,8.46294977 5.40206889,8.52534365 L5.40206889,8.52534365 L4.11527583,9.8226409 L4.11527583,15.3207104 C4.11527583,15.4442625 4.06502965,15.8149189 3.62506896,15.8149189 C3.1710148,15.8149189 3.13486204,15.4442625 3.13486204,15.3207104 L3.13486204,15.3207104 L3.13486204,12.9732201 L2.8897586,12.9732201 L2.8897586,15.3207104 C2.8897586,15.4442625 2.84012515,15.8149189 2.39955171,15.8149189 C1.93998274,15.8149189 1.90934481,15.4442625 1.90934481,15.3207104 L1.90934481,15.3207104 L1.90934481,9.8226409 L0.622551722,8.52534365 C0.561275861,8.46294977 0.5,8.34001544 0.5,8.2164633 C0.5,8.09291117 0.561275861,7.9693591 0.622551722,7.90758303 C0.906871722,7.63267951 1.2965862,7.9693591 1.2965862,7.9693591 L1.2965862,7.9693591 L1.90934481,8.40179151 L2.52210343,8.896 L3.37996549,8.896 L4.78931028,7.90758303 C4.85058618,7.84518922 5.03441375,7.78403089 5.09568958,7.78403089 Z M3.00345976,5.86860232 C3.37111492,5.86860232 3.67749422,5.99215444 3.92259769,6.23925869 C4.1677011,6.48636292 4.29025283,6.79524327 4.29025283,7.16589962 C4.29025283,7.53655597 4.1677011,7.84543631 3.92259769,8.09254052 C3.67749422,8.34026254 3.37111492,8.46319694 3.00345976,8.46319694 C2.63580459,8.46319694 2.32942528,8.34026254 2.08432183,8.09254052 C1.83921839,7.84543631 1.71666667,7.53655597 1.71666667,7.16589962 C1.71666667,6.79524327 1.83921839,6.48636292 2.08432183,6.23925869 C2.32942528,5.99215444 2.63580459,5.86860232 3.00345976,5.86860232 Z M5.03422993,0.617760619 C4.29891958,0.617760619 3.68616097,1.23552124 3.68616097,1.97683398 C3.68616097,2.71814672 4.29891958,3.33590734 5.03422993,3.33590734 C5.76954028,3.33590734 6.38229889,2.71814672 6.38229889,1.97683398 C6.38229889,1.23552124 5.76954028,0.617760619 5.03422993,0.617760619 Z" id="path-1"></path>
    </defs>
    <g id="Icons/16px/Travel-&amp;-Airport/GSMC" stroke="none" stroke-width="1" fill="none" fill-rule="evenodd">
        <g id="Icon" transform="translate(3.333333, 0.000000)">
            <mask id="mask-2" fill="white">
                <use xlink:href="#path-1"></use>
            </mask>
            <use id="Mask" fill="#333333" fill-rule="nonzero" xlink:href="#path-1"></use>
            <g id="Group" mask="url(#mask-2)">
                <g transform="translate(-3.333333, 0.000000)" id="Color/Grayscale/80%">
                    <rect id="Rectangle" fill="#333333" x="0" y="0" width="16" height="16"></rect>
                </g>
            </g>
        </g>
    </g>
</svg>