<?xml version="1.0" encoding="UTF-8"?>
<svg width="16px" height="16px" viewBox="0 0 16 16" version="1.1" xmlns="http://www.w3.org/2000/svg" xmlns:xlink="http://www.w3.org/1999/xlink">
    <title>Icons/16px/Travel &amp; Airport/GSME</title>
    <defs>
        <path d="M7.88481683,3.12489941 C8.35207046,3.12489941 8.76379034,3.39712376 8.86793297,3.84045019 L8.88544964,3.93803076 L8.88544964,8.87494436 C8.88544964,8.99994528 8.82232413,9.18744677 8.69794815,9.31244776 C8.57294716,9.43744876 8.38544574,9.49994918 8.19731924,9.49994918 C7.8517396,9.49994918 7.66539202,9.23367493 7.63876798,8.94691807 L7.63543986,8.87494436 L7.63543986,5.56241845 L7.25981194,5.56241845 L7.25981194,14.7499902 C7.25981194,15.1249931 7.01043497,15.3749951 6.63480705,15.3749951 C6.34634326,15.3749951 6.05787948,15.1619757 6.01520733,14.8342535 L6.00980216,14.7499902 L6.00980216,9.43744876 L5.51042327,9.43744876 L5.38479727,9.56307469 L5.38479727,14.8756162 C5.38479727,15.1881186 5.26042129,15.5006211 5.07229486,15.6874975 C4.82291789,15.874999 4.5729159,16 4.26041349,16 C4.072912,16 3.82228507,15.9381245 3.63540861,15.8131235 C3.44790714,15.9381245 3.26040568,16 3.01040372,16 C2.69790129,16 2.38539884,15.874999 2.19789738,15.6874975 C2.0338336,15.4687458 1.91762176,15.2504727 1.89113228,14.9899701 L1.88539494,14.8756162 L1.88539494,9.56307469 L0.760386148,8.4380659 C0.572884688,8.24993947 0.44788371,7.93743699 0.44788371,7.68806009 C0.44788371,7.37555761 0.572884688,7.12493068 0.760386148,6.9374292 C1.0381661,6.71520522 1.26606911,6.64113057 1.44541208,6.62741305 L1.51039201,6.62492679 L1.5728925,6.62492679 L1.5728925,6.56242629 C1.5728925,6.06242236 1.76039396,5.56241845 2.13539689,5.18804053 C2.23489767,5.08753975 2.37519877,4.98743896 2.49101967,4.91973843 L2.5722753,4.87553809 L2.5722753,4.06240673 C2.51403955,3.59181483 2.89816021,3.17658667 3.41199487,3.12936464 L3.50978262,3.12489941 L7.88481683,3.12489941 Z M5.82292568,7.18743118 C5.69729975,7.18743118 5.57292377,7.24993161 5.51042327,7.3124321 L5.51042327,7.3124321 L4.072912,8.31306491 L3.19728019,8.31306491 L1.82289445,7.3124321 C1.76039396,7.24993161 1.63476798,7.18743118 1.51039201,7.18743118 C1.38539103,7.18743118 1.26039005,7.24993161 1.19788956,7.3124321 C1.13538908,7.37555761 1.07288859,7.49993359 1.07288859,7.62493458 C1.07288859,7.74993557 1.13538908,7.8749365 1.19788956,7.93743699 L1.19788956,7.93743699 L2.44789933,9.25057228 L2.44826194,14.8892205 C2.45043762,15.0349032 2.46566733,15.1340111 2.5722753,15.1881186 C2.69790129,15.2499941 2.82290226,15.3131196 2.94790324,15.3131196 C3.1354047,15.3131196 3.19728019,15.3131196 3.32290617,15.1881186 C3.38540666,15.0624927 3.44790714,14.9374917 3.44790714,14.8124907 L3.44790714,14.8124907 L3.44790714,12.4374721 L3.76040959,12.4374721 L3.76077402,14.8892205 C3.76296063,15.0349032 3.77826686,15.1340111 3.88541056,15.1881186 C4.01041151,15.2499941 4.13478749,15.3131196 4.26041349,15.3131196 C4.44728997,15.3131196 4.51041548,15.3131196 4.6354164,15.1881186 C4.69791689,15.0624927 4.75979238,14.9374917 4.75979238,14.8124907 L4.75979238,14.8124907 L4.75979238,9.25057228 L6.07292767,7.93743699 C6.07292767,7.93743699 6.43230547,7.63055963 6.13542816,7.3124321 C6.07480263,7.24805664 5.94792667,7.18743118 5.82292568,7.18743118 Z M3.67188524,5.24991601 C3.29750732,5.24991601 2.98500488,5.37491699 2.73437792,5.62491894 C2.48500097,5.8749209 2.36,6.18742333 2.36,6.56242629 C2.36,6.9374292 2.48500097,7.24993161 2.73437792,7.49993359 C2.98500488,7.74993557 3.29750732,7.8749365 3.67188524,7.8749365 C4.04751318,7.8749365 4.36001561,7.74993557 4.60939259,7.49993359 C4.86001951,7.24993161 4.9850205,6.9374292 4.9850205,6.56242629 C4.9850205,6.18742333 4.86001951,5.8749209 4.60939259,5.62491894 C4.36001561,5.37491699 4.04751318,5.24991601 3.67188524,5.24991601 Z M5.69754971,0 C6.44755559,0 7.07256048,0.625004883 7.07256048,1.37501074 C7.07256048,2.1250166 6.44755559,2.75002148 5.69754971,2.75002148 C4.94816884,2.75002148 4.32316395,2.1250166 4.32316395,1.37501074 C4.32316395,0.625004883 4.94816884,0 5.69754971,0 Z" id="path-1"></path>
    </defs>
    <g id="Icons/16px/Travel-&amp;-Airport/GSME" stroke="none" stroke-width="1" fill="none" fill-rule="evenodd">
        <g id="Icon" transform="translate(3.333333, 0.000000)">
            <mask id="mask-2" fill="white">
                <use xlink:href="#path-1"></use>
            </mask>
            <use id="Mask" fill="#333333" fill-rule="nonzero" xlink:href="#path-1"></use>
            <g id="Group" mask="url(#mask-2)">
                <g transform="translate(-3.333333, 0.000000)" id="Color/Grayscale/80%">
                    <rect id="Rectangle" fill="#333333" x="0" y="0" width="16" height="16"></rect>
                </g>
            </g>
        </g>
    </g>
</svg>