<?xml version="1.0" encoding="UTF-8"?>
<svg width="16px" height="16px" viewBox="0 0 16 16" version="1.1" xmlns="http://www.w3.org/2000/svg" xmlns:xlink="http://www.w3.org/1999/xlink">
    <title>Icons/16px/Travel &amp; Airport/Headphones</title>
    <defs>
        <path d="M4.08808176,9.47734931 C4.31208624,9.47734931 4.48808976,9.65446056 4.48808976,9.87987487 L4.48808976,9.87987487 L4.48808976,14.5974744 C4.48808976,14.8148382 4.31208624,15 4.08808176,15 L4.08808176,15 L2.2400448,15 C1.9733728,15 1.8400368,14.8202052 1.8400368,14.4606157 L1.8400368,14.4606157 L0.400008,14.4606157 C0.17600352,14.4606157 0,14.275454 0,14.0580902 L0,14.0580902 L0,10.4192591 C0,10.1938448 0.17600352,10.0167336 0.400008,10.0167336 L0.400008,10.0167336 L1.8400368,10.0167336 C1.8400368,9.65714406 1.9733728,9.47734931 2.2400448,9.47734931 L2.2400448,9.47734931 Z M13.751955,9.47734931 C14.018627,9.47734931 14.151963,9.65714406 14.151963,10.0167336 L14.151963,10.0167336 L15.599992,10.0167336 C15.8159963,10.0167336 16,10.1938448 16,10.4192591 L16,10.4192591 L16,14.0580902 C16,14.275454 15.8159963,14.4606157 15.599992,14.4606157 L15.599992,14.4606157 L14.151963,14.4606157 C14.151963,14.8202052 14.018627,15 13.751955,15 L13.751955,15 L11.9039181,15 C11.6799136,15 11.5039101,14.8148382 11.5039101,14.5974744 L11.5039101,14.5974744 L11.5039101,9.87987487 C11.5039101,9.65446056 11.6799136,9.47734931 11.9039181,9.47734931 L11.9039181,9.47734931 Z M8.00016,1 C10.4722094,1 12.5442509,2.03046543 13.7842757,3.69692125 C14.6082922,4.79179078 15.0723014,6.15232717 15.0723014,7.68997481 C15.0723014,7.8268335 15.0643013,7.96369219 15.0563011,8.1086014 C15.0403008,8.3259652 14.8402968,8.49502593 14.6242925,8.47892491 C14.4082882,8.45477338 14.2402848,8.26156111 14.2562851,8.04419731 C14.2616186,7.96369219 14.266952,7.84561803 14.2722854,7.68997481 C14.2722854,6.10402411 13.7042741,4.71933618 12.7202544,3.69692125 C11.6082322,2.51349611 9.94419888,1.80505112 8.00016,1.80505112 C6.04812096,1.80505112 4.39208784,2.51349611 3.27206544,3.69692125 C2.29604592,4.71933618 1.7200344,6.10402411 1.7200344,7.68997481 C1.7200344,7.80268197 1.72803456,7.92343964 1.73603472,8.04419731 C1.75203504,8.26156111 1.58403168,8.45477338 1.36802736,8.47892491 L1.36802736,8.47892491 L1.33602672,8.47892491 C1.12802256,8.47892491 0.95201904,8.31791469 0.93601872,8.1086014 C0.92801856,7.96369219 0.9200184,7.8268335 0.9200184,7.68997481 C0.9200184,6.15232717 1.38402768,4.79179078 2.20804416,3.69692125 C3.45606912,2.03046543 5.5201104,1 8.00016,1 Z" id="path-1"></path>
    </defs>
    <g id="Icons/16px/Travel-&amp;-Airport/Headphones" stroke="none" stroke-width="1" fill="none" fill-rule="evenodd">
        <mask id="mask-2" fill="white">
            <use xlink:href="#path-1"></use>
        </mask>
        <use id="Mask" fill="#0C2340" fill-rule="nonzero" xlink:href="#path-1"></use>
        <g id="Group" mask="url(#mask-2)" fill="#333333">
            <g id="Color/Grayscale/80%">
                <rect id="Rectangle" x="0" y="0" width="16" height="16"></rect>
            </g>
        </g>
    </g>
</svg>