<?xml version="1.0" encoding="UTF-8"?>
<svg width="16px" height="16px" viewBox="0 0 16 16" version="1.1" xmlns="http://www.w3.org/2000/svg" xmlns:xlink="http://www.w3.org/1999/xlink">
    <title>Icons/16px/Digital/Home</title>
    <defs>
        <path d="M7.71615036,3.62322289 C7.9968158,3.43664185 7.9968158,3.43664185 8.2823639,3.62978143 C8.29822768,3.64051141 8.32677413,3.65964607 8.36800325,3.68718542 L8.4673717,3.75347036 C9.06814483,4.15384151 11.0231448,5.45164628 14.3323716,7.64688468 C14.5658947,7.81614267 14.5658947,7.81614267 14.5658947,8.0772886 L14.5658947,15.4810558 C14.5658947,15.7679918 14.3395693,16 14.0596614,16 L14.0596614,16 L10.2145276,16 C9.93461981,16 9.70189645,15.7679918 9.70189645,15.4810558 L9.70189645,15.4810558 L9.70189645,10.480992 L6.29021992,10.480992 L6.29021992,15.4810558 C6.29021992,15.7679918 6.06389445,16 5.77678899,16 L5.77678899,16 L1.93885282,16 C1.65254711,16 1.42622163,15.7679918 1.42622163,15.4810558 L1.42622163,15.4810558 L1.42667617,7.99547823 C1.42985794,7.82765433 1.45531206,7.80756881 1.658945,7.64688468 L1.658945,7.64688468 Z M7.71623033,1.13024141 C7.99613816,0.955508212 7.9968158,0.955508212 8.28244387,1.13679994 C8.47286259,1.2576611 10.964842,2.91068542 15.758382,6.09587292 C15.998303,6.25327778 16.0786262,6.58247761 15.9119315,6.81977132 C15.7250092,7.08585945 15.4578647,7.08585945 15.205764,6.97717618 L15.205764,6.97717618 L7.99613816,2.19600349 L0.786512292,6.97717618 C0.538736287,7.05915788 0.233094533,7.05915788 0.0803448333,6.81977132 C-0.0719489154,6.58109932 -0.000428567964,6.25327778 0.233094533,6.09587292 L0.233094533,6.09587292 L2.49874845,4.59314837 L2.49874845,1.5737624 C2.49874845,1.28026792 2.72507392,1.04825971 3.01217938,1.04825971 L3.01217938,1.04825971 L5.56413902,1.04825971 C5.84404684,1.04825971 6.07037231,1.28026792 6.07037231,1.5737624 L6.07037231,1.5737624 L6.07037231,2.22305746 Z" id="path-1"></path>
    </defs>
    <g id="Icons/16px/Digital/Home" stroke="none" stroke-width="1" fill="none" fill-rule="evenodd">
        <mask id="mask-2" fill="white">
            <use xlink:href="#path-1"></use>
        </mask>
        <use id="Mask" fill="#0C2340" fill-rule="nonzero" xlink:href="#path-1"></use>
        <g id="Group" mask="url(#mask-2)" fill="#333333">
            <g id="Color/Grayscale/80%">
                <rect id="Rectangle" x="0" y="0" width="16" height="16"></rect>
            </g>
        </g>
    </g>
</svg>