<?xml version="1.0" encoding="UTF-8"?>
<svg width="16px" height="16px" viewBox="0 0 16 16" version="1.1" xmlns="http://www.w3.org/2000/svg" xmlns:xlink="http://www.w3.org/1999/xlink">
    <title>Icons/16px/Digital/Hourglass</title>
    <defs>
        <path d="M11.3333333,0 C11.6666667,0 12,0.333333333 12,0.666666667 C12,1 11.6666667,1.33333333 11.3333333,1.33333333 C11.3333333,4.11281944 9.59529531,7.1055444 7.47824877,7.94605525 L7.33333333,8 L7.47824877,8.05394475 C9.59529531,8.8944556 11.3333333,11.8871806 11.3333333,14.6666667 C11.6666667,14.6666667 12,15 12,15.3333333 C12,15.6428571 11.712585,15.952381 11.4046404,15.9950194 L11.3333333,16 L0.666666667,16 C0.333333333,16 0,15.6666667 0,15.3333333 C0,15 0.333333333,14.6666667 0.666666667,14.6666667 C0.666666667,11.8871806 2.40470469,8.8944556 4.52175123,8.05394475 L4.66666667,8 C2.48460417,7.2416875 0.666666667,4.17598958 0.666666667,1.33333333 C0.333333333,1.33333333 0,1 0,0.666666667 C0,0.333333333 0.333333333,0 0.666666667,0 L11.3333333,0 Z M6,9 C4.33333333,9 2.66666667,10.6666667 2.33333333,12.6666667 L2.33333333,12.6666667 L9.66666667,12.6666667 L9.62748233,12.4610138 C9.2183908,10.5537059 7.6091954,9 6,9 Z M10,1.33333333 L2,1.33333333 L2.00475725,1.6013859 C2.11831939,4.79108839 4.24296284,7 6,7 C7.73667708,7 10.0033333,4.66666667 10,1.33333333 L10,1.33333333 Z" id="path-1"></path>
    </defs>
    <g id="Icons/16px/Digital/Hourglass" stroke="none" stroke-width="1" fill="none" fill-rule="evenodd">
        <g id="Icon" transform="translate(2.000000, 0.000000)">
            <mask id="mask-2" fill="white">
                <use xlink:href="#path-1"></use>
            </mask>
            <use id="Mask" fill="#333333" fill-rule="nonzero" xlink:href="#path-1"></use>
            <g id="Group" mask="url(#mask-2)">
                <g transform="translate(-2.000000, 0.000000)" id="Color/Grayscale/80%">
                    <rect id="Rectangle" fill="#333333" x="0" y="0" width="16" height="16"></rect>
                </g>
            </g>
        </g>
    </g>
</svg>