<?xml version="1.0" encoding="UTF-8"?>
<svg width="16px" height="16px" viewBox="0 0 16 16" version="1.1" xmlns="http://www.w3.org/2000/svg" xmlns:xlink="http://www.w3.org/1999/xlink">
    <title>Icons/16px/Weather/Hurricane</title>
    <defs>
        <path d="M11.8929059,0.000840236686 C12.5209475,0.00808284024 13.7601261,0.0681538462 14.4806086,0.406 C14.8452544,0.577 15.0562065,0.969 14.9868936,1.364 C14.9185853,1.758 14.5971345,2.057 14.1993392,2.095 C14.1169674,2.104 13.1264971,2.243 12.2465256,3.015 C12.8221234,3.501 13.3113313,4.085 13.6910451,4.737 C14.2626248,5.725 14.565994,6.853 14.565994,8 C14.565994,10.829 13.2369958,13.063 10.7216433,14.465 C8.2334132,15.85 5.36848293,16 4.24943232,16 C3.68990702,16 2.2996323,15.96 1.51910957,15.594 C1.15245475,15.423 0.942507194,15.031 1.01382909,14.636 C1.08113285,14.242 1.40258365,13.944 1.80037902,13.905 C1.88275079,13.895 2.87121201,13.757 3.75118358,12.985 C3.1775948,12.499 2.68838686,11.915 2.30967764,11.263 C1.7370934,10.274 1.4337242,9.146 1.4337242,8 C1.4337242,5.171 2.76272236,2.936 5.27907942,1.535 C7.76530047,0.149 10.6322398,-1.13686838e-13 11.7492813,-1.13686838e-13 Z M14.1008949,1.21 C12.4102646,0.418 2.32575018,0.557 2.32575018,8 C2.32575018,10.054 3.42671917,11.85 5.07415454,12.839 C3.84360068,14.584 1.89882333,14.79 1.89882333,14.79 C3.58945364,15.582 13.671959,15.442 13.671959,8 C13.671959,5.946 12.572999,4.149 10.9255637,3.161 L10.9255637,3.161 L11.0553011,2.985918 C12.2879276,1.40203805 14.1008949,1.21 14.1008949,1.21 Z M8.00026091,5.3957 C9.44478046,5.3957 10.6160668,6.5617 10.6160668,7.9997 C10.6160668,9.4387 9.44478046,10.6047 8.00026091,10.6047 C6.55473684,10.6047 5.38445501,9.4387 5.38445501,7.9997 C5.38445501,6.5617 6.55473684,5.3957 8.00026091,5.3957 Z M8.00026091,6.2837 C7.04997198,6.2837 6.27447192,7.0537 6.27447192,7.9997 C6.27447192,8.9457 7.04997198,9.7157 8.00026091,9.7157 C8.94954531,9.7157 9.72504537,8.9457 9.72504537,7.9997 C9.72504537,7.0537 8.94954531,6.2837 8.00026091,6.2837 Z" id="path-1"></path>
    </defs>
    <g id="Icons/16px/Weather/Hurricane" stroke="none" stroke-width="1" fill="none" fill-rule="evenodd">
        <mask id="mask-2" fill="white">
            <use xlink:href="#path-1"></use>
        </mask>
        <use id="Mask" fill="#0C2340" fill-rule="nonzero" xlink:href="#path-1"></use>
        <g id="Group" mask="url(#mask-2)" fill="#333333">
            <g id="Color/Grayscale/80%">
                <rect id="Rectangle" x="0" y="0" width="16" height="16"></rect>
            </g>
        </g>
    </g>
</svg>