<?xml version="1.0" encoding="UTF-8"?>
<svg width="15px" height="16px" viewBox="0 0 15 16" version="1.1" xmlns="http://www.w3.org/2000/svg" xmlns:xlink="http://www.w3.org/1999/xlink">
    <title>Icons/16px/Travel &amp; Airport/In-seat power</title>
    <defs>
        <path d="M13,4.8 L13,10 C13,12.208 10.536,14 8.328,14 L8.328,14 L8.328,16 L6.664,16 L6.664,14 C4.456,14 2,12.208 2,10 L2,10 L2,4.8 L13,4.8 Z M5,0 C5.552,0 6,0.448 6,1 L6,1 L6,4 L4,4 L4,1 C4,0.448 4.448,0 5,0 Z M10,0 C10.552,0 11,0.448 11,1 L11,1 L11,4 L9,4 L9,1 C9,0.448 9.448,0 10,0 Z" id="path-1"></path>
    </defs>
    <g id="Icons/16px/Travel-&amp;-Airport/In-seat-power" stroke="none" stroke-width="1" fill="none" fill-rule="evenodd">
        <mask id="mask-2" fill="white">
            <use xlink:href="#path-1"></use>
        </mask>
        <use id="Mask" fill="#0C2340" fill-rule="nonzero" xlink:href="#path-1"></use>
        <g id="Group" mask="url(#mask-2)" fill="#333333">
            <g id="Color/Grayscale/80%">
                <rect id="Rectangle" x="0" y="0" width="16" height="16"></rect>
            </g>
        </g>
    </g>
</svg>