<?xml version="1.0" encoding="UTF-8"?>
<svg width="16px" height="16px" viewBox="0 0 16 16" version="1.1" xmlns="http://www.w3.org/2000/svg" xmlns:xlink="http://www.w3.org/1999/xlink">
    <title>Icons/16px/Travel &amp; Airport/Infant</title>
    <defs>
        <path d="M3.34824385,3.36022151 L5.39207253,12.5587586 C5.83732732,13.9830316 6.54098338,14.6125813 7.57780179,14.6125813 L11.5544691,14.6125813 C11.9313766,14.6125813 12.2369206,14.9231655 12.2369206,15.3062906 C12.2369206,15.6894157 11.9313766,16 11.5544691,16 L7.57780179,16 C5.89078152,16 4.70368354,14.9379227 4.07602688,12.92186 L2.01695617,3.66624115 C1.93382258,3.29255176 2.16444838,2.92111184 2.53207332,2.83660685 C2.89969826,2.75210186 3.26511026,2.98653213 3.34824385,3.36022151 Z M5.89381078,3.60418905 C6.62727549,3.4434219 7.35152711,3.91947995 7.5091734,4.66452382 L7.5091734,4.66452382 L8.26722307,8.0959473 L12.0340124,8.0959473 C12.4061191,8.0959473 12.7321603,8.28897193 12.9240997,8.58241099 C13.0521843,8.73761207 13.4062151,10.1114524 13.9861922,12.7039319 C14.06911,13.1643815 13.7701963,13.6092226 13.3146599,13.6950691 C12.8611709,13.7803954 12.4235489,13.4755101 12.3396074,13.0134997 L12.3396074,13.0134997 L11.6081627,10.268645 L7.07515096,10.268645 C6.43074617,10.2800912 5.85390406,9.83472983 5.71161293,9.17709335 L5.71161293,9.17709335 L4.85017187,5.24567884 C4.69201374,4.50063498 5.15881055,3.76495619 5.89381078,3.60418905 Z M7.51127294,11.0105115 L9.81119483,11.076531 C10.3370246,11.091625 10.8048295,11.4144783 11.0054736,11.9007568 L11.2107271,12.3982069 C11.408485,12.8774904 11.1802633,13.4263409 10.7009797,13.6240988 C10.5874156,13.6709566 10.4657588,13.6950691 10.3429074,13.6950691 L7.86587698,13.6950691 C7.26618498,13.6950691 6.74027859,13.2947077 6.58064842,12.7166517 L6.47456782,12.3325105 C6.32102683,11.7765049 6.64728893,11.2013036 7.20329462,11.0477626 C7.30352725,11.0200834 7.40733152,11.0075279 7.51127294,11.0105115 Z M4.09802313,1.31270065 C4.22291174,0.468803204 4.9993709,-0.110270693 5.82752576,0.0177186862 C6.65926349,0.146228347 7.22689249,0.936016466 7.1009802,1.7773125 C6.9750679,2.62068967 6.19912058,3.20028385 5.36943021,3.07021334 C4.53973984,2.94170368 3.97108715,2.15451698 4.09802313,1.31270065 Z" id="path-1"></path>
    </defs>
    <g id="Icons/16px/Travel-&amp;-Airport/Infant" stroke="none" stroke-width="1" fill="none" fill-rule="evenodd">
        <mask id="mask-2" fill="white">
            <use xlink:href="#path-1"></use>
        </mask>
        <use id="Mask" fill="#0C2340" fill-rule="nonzero" xlink:href="#path-1"></use>
        <g id="Group" mask="url(#mask-2)" fill="#333333">
            <g id="Color/Grayscale/80%">
                <rect id="Rectangle" x="0" y="0" width="16" height="16"></rect>
            </g>
        </g>
    </g>
</svg>