<?xml version="1.0" encoding="UTF-8"?>
<svg width="16px" height="16px" viewBox="0 0 16 16" version="1.1" xmlns="http://www.w3.org/2000/svg" xmlns:xlink="http://www.w3.org/1999/xlink">
    <title>Icons/16px/Travel &amp; Airport/Kiosk</title>
    <defs>
        <path d="M4,15.6183981 C4,15.8287991 4.17807514,16 4.39795195,16 L11.5803157,16 C11.7951764,16 11.9782677,15.8319992 11.9782677,15.6183981 L11.9782677,14.5871929 C11.9782677,14.3783919 11.8010286,14.208791 11.5836599,14.208791 L4.39460781,14.208791 C4.17640307,14.208791 4,14.3783919 4,14.5871929 L4,15.6183981 Z M6.85028901,7.9004395 C6.62706807,7.9004395 6.45233707,7.72523863 6.45233707,7.5196376 C6.45233707,7.30603653 6.62706807,7.13883569 6.85028901,7.13883569 L9.12764427,7.13883569 C9.34250488,7.13883569 9.52559621,7.30603653 9.52559621,7.5196376 C9.52559621,7.72523863 9.34250488,7.9004395 9.12764427,7.9004395 L6.85028901,7.9004395 Z M4.65235694,13.4476672 L11.31638,13.4476672 L11.31638,6.37723189 L4.65235694,6.37723189 L4.65235694,13.4476672 Z M10.178622,4.31762159 C10.178622,4.5008225 10.0222837,4.65762329 9.82247171,4.65762329 L6.26682123,4.65762329 C6.07453353,4.65762329 5.91150699,4.5008225 5.91150699,4.31762159 L5.91150699,1.75840879 C5.91150699,1.56800784 6.07453353,1.41840709 6.26682123,1.41840709 L9.82247171,1.41840709 C10.0222837,1.41840709 10.178622,1.56800784 10.178622,1.75840879 L10.178622,4.31762159 Z M11.5806502,5.61522808 C11.7946747,5.61522808 11.9710778,5.44882724 11.9802742,5.24482622 C12.0162236,4.47122236 12.002011,2.04161021 11.9459968,0.936804684 C11.9384725,0.768803844 11.8105594,0.63200316 11.6433527,0.586402932 C10.0515449,0.189600948 8.88109799,0 8.06094912,0 C7.23243992,0 6.05446872,0.189600948 4.44594027,0.586402932 C4.27873357,0.63200316 4.15165648,0.768803844 4.14329614,0.936804684 C4.0872819,1.98800994 4.07390536,4.46242231 4.1098548,5.24482622 C4.11905117,5.44882724 4.29545424,5.61522808 4.50864278,5.61522808 L11.5806502,5.61522808 Z" id="path-1"></path>
    </defs>
    <g id="Icons/16px/Travel-&amp;-Airport/Kiosk" stroke="none" stroke-width="1" fill="none" fill-rule="evenodd">
        <mask id="mask-2" fill="white">
            <use xlink:href="#path-1"></use>
        </mask>
        <use id="Mask" fill="#0C2340" fill-rule="nonzero" xlink:href="#path-1"></use>
        <g id="Group" mask="url(#mask-2)" fill="#333333">
            <g id="Color/Grayscale/80%">
                <rect id="Rectangle" x="0" y="0" width="16" height="16"></rect>
            </g>
        </g>
    </g>
</svg>