<?xml version="1.0" encoding="UTF-8"?>
<svg width="16px" height="16px" viewBox="0 0 16 16" version="1.1" xmlns="http://www.w3.org/2000/svg" xmlns:xlink="http://www.w3.org/1999/xlink">
    <title>Icons/16px/Digital/Language</title>
    <defs>
        <path d="M11.062892,12.2223433 C10.3573843,14.533578 9.13359348,16 7.99979912,16 C6.86600475,16 5.64301749,14.533578 4.93750973,12.2223433 L4.93750973,12.2223433 Z M3.53629739,12.2223433 C3.8753911,13.467162 4.34867592,14.5511783 4.94650937,15.3959909 C3.37478593,14.7559813 2.06260578,13.6359645 1.17871223,12.2223433 L1.17871223,12.2223433 Z M14.8212878,12.2221833 C13.9373942,13.6358045 12.6252141,14.7558213 11.0534906,15.3958309 C11.6513241,14.5510183 12.1246089,13.467002 12.4645061,12.2221833 L12.4645061,12.2221833 Z M3.00925577,8.66685 C3.03577258,9.44046161 3.11693008,10.1868728 3.24147871,10.8892833 L3.24147871,10.8892833 L0.509444101,10.8892833 C0.232222942,10.1956729 0.0538371527,9.44926174 0,8.66685 L0,8.66685 Z M11.6513241,8.66669 C11.6248073,9.45790187 11.5356144,10.1955129 11.3925843,10.8891233 L11.3925843,10.8891233 L4.60749602,10.8891233 C4.46446597,10.1955129 4.37527308,9.45790187 4.34875627,8.66669 L4.34875627,8.66669 Z M15.9995179,8.66669 C15.9464843,9.44910174 15.7680985,10.1955129 15.4908773,10.8891233 L15.4908773,10.8891233 L12.7588427,10.8891233 C12.8841949,10.1867128 12.9645488,9.4403016 12.9910656,8.66669 L12.9910656,8.66669 Z M3.2411573,5.11127667 C3.11660866,5.81368721 3.0362547,6.5600984 3.00893436,7.33371001 L3.00893436,7.33371001 L0.000482123755,7.33371001 C0.0543192764,6.55129827 0.232705066,5.80488707 0.509122685,5.11127667 L0.509122685,5.11127667 Z M11.3926647,5.11127667 C11.5356947,5.80488707 11.6248876,6.54249814 11.6514044,7.33371001 L11.6514044,7.33371001 L4.34883663,7.33371001 C4.37535343,6.54249814 4.46454633,5.80488707 4.60757637,5.11127667 L4.60757637,5.11127667 Z M15.4913594,5.11119667 C15.7677771,5.80480707 15.9461628,6.55121827 16,7.33363 L16,7.33363 L12.9907442,7.33363 C12.9642274,6.5600184 12.8838735,5.8136072 12.7585213,5.11119667 L12.7585213,5.11119667 Z M4.94675044,0.604569069 C4.34891698,1.44858173 3.87563216,2.533398 3.53573491,3.77741666 L3.53573491,3.77741666 L1.17895329,3.77741666 C2.06284684,2.36459547 3.37502699,1.24457867 4.94675044,0.604569069 Z M8.00020088,0 C9.13399525,0 10.3569825,1.466422 11.0624903,3.77765666 L11.0624903,3.77765666 L4.93710796,3.77765666 C5.64261572,1.466422 6.86640652,0 8.00020088,0 Z M11.0534906,0.604809072 C12.6252141,1.24401866 13.9373942,2.36483547 14.8212878,3.77765666 L14.8212878,3.77765666 L12.4645061,3.77765666 C12.1254124,2.533638 11.6513241,1.44882173 11.0534906,0.604809072 Z" id="path-1"></path>
    </defs>
    <g id="Icons/16px/Digital/Language" stroke="none" stroke-width="1" fill="none" fill-rule="evenodd">
        <mask id="mask-2" fill="white">
            <use xlink:href="#path-1"></use>
        </mask>
        <use id="Mask" fill="#0C2340" fill-rule="nonzero" xlink:href="#path-1"></use>
        <g id="Group" mask="url(#mask-2)" fill="#333333">
            <g id="Color/Grayscale/80%">
                <rect id="Rectangle" x="0" y="0" width="16" height="16"></rect>
            </g>
        </g>
    </g>
</svg>