<?xml version="1.0" encoding="UTF-8"?>
<svg width="16px" height="16px" viewBox="0 0 16 16" version="1.1" xmlns="http://www.w3.org/2000/svg" xmlns:xlink="http://www.w3.org/1999/xlink">
    <title>Icons/16px/Travel &amp; Airport/Lap infant</title>
    <defs>
        <path d="M8.68145821,10.1793397 L8.77312,10.2716532 C8.90779834,10.4072803 9.17192815,10.6732382 9.43636737,10.9393223 L9.95643273,11.4622458 C9.98486023,11.4907935 10.0114115,11.5174458 10.03571,11.5418231 L10.1514562,11.6577491 C10.1790193,11.6852664 10.1945594,11.7006467 10.1950645,11.7008531 C10.6759777,12.1878071 10.5516063,13.0448592 10.0953148,13.5119668 L7.99078656,15.7179469 C7.17811098,16.5326067 6.09191298,15.4016728 6.88107164,14.6119401 L8.21585454,13.2680928 L6.90884998,11.9623508 L8.68145821,10.1793397 Z M3.36340595,10.1793397 L5.13711893,11.9623508 L3.83926862,13.2680928 L5.17199978,14.6119401 C5.95721256,15.4016728 4.87085684,16.5326067 4.06118003,15.7179469 L4.06118003,15.7179469 L1.94844449,13.5119668 C1.49736141,13.0448592 1.37299001,12.1878071 1.85800691,11.7008531 C1.85800691,11.6999242 2.16285022,11.3917249 2.49817785,11.0529866 L2.72323501,10.8256736 C2.94678677,10.59991 3.15678993,10.387905 3.27195296,10.2716532 L3.35249181,10.1903559 L3.35249181,10.1903559 L3.36340595,10.1793397 Z M6.21283896,5.29325663 C7.56619976,5.29325663 8.40044336,5.57333068 8.97019431,6.06854097 C9.00302186,6.09700087 9.05687675,6.14859007 9.12687628,6.21802557 L9.28695475,6.37912633 C9.97201402,7.07589286 11.4146881,8.61461093 11.4146881,8.61461093 C11.7348293,8.90802184 11.7526239,9.40116803 11.4525421,9.71648952 C11.2965967,9.88081869 11.084032,9.96353896 10.8722762,9.96353896 C10.6771825,9.96353896 10.4824125,9.89542576 10.3297024,9.75491239 L10.3297024,9.75491239 L8.46563627,8.04715933 L8.43295895,9.54914374 L3.56710431,9.54914374 L3.53442694,8.04715933 L1.67019912,9.75491239 C1.51748903,9.89526692 1.32255719,9.96353896 1.12778711,9.96353896 C0.916193048,9.96353896 0.703304835,9.88081869 0.54752113,9.71648952 C0.247277569,9.40116803 0.265233941,8.9081806 0.585375111,8.61461093 C0.585375111,8.61461093 2.02804921,7.07600001 2.71319817,6.37918373 L2.87330208,6.21806626 C2.9433154,6.14862045 2.99718577,6.09701788 3.03003069,6.06854097 C3.59978168,5.57333068 4.43402525,5.29325663 5.78738606,5.29325663 L5.78738606,5.29325663 L6.21283896,5.29325663 Z M6.09945288,0 C7.43943276,0 8.5263618,1.09202159 8.5263618,2.43987011 C8.5263618,3.79459002 7.43943276,4.88608305 6.09945288,4.88608305 C4.75737293,4.88608305 3.66921895,3.79476621 3.66921895,2.4400463 C3.66921895,1.09202159 4.75737293,0 6.09945288,0 Z" id="path-1"></path>
    </defs>
    <g id="Icons/16px/Travel-&amp;-Airport/Lap-infant" stroke="none" stroke-width="1" fill="none" fill-rule="evenodd">
        <g id="Icon" transform="translate(2.000000, 0.000000)">
            <mask id="mask-2" fill="white">
                <use xlink:href="#path-1"></use>
            </mask>
            <use id="Mask" fill="#000000" fill-rule="nonzero" xlink:href="#path-1"></use>
            <g id="Group" mask="url(#mask-2)">
                <g transform="translate(-2.000000, 0.000000)" id="Color/Grayscale/80%">
                    <rect id="Rectangle" fill="#333333" x="0" y="0" width="16" height="16"></rect>
                </g>
            </g>
        </g>
    </g>
</svg>