<?xml version="1.0" encoding="UTF-8"?>
<svg width="16px" height="16px" viewBox="0 0 16 16" version="1.1" xmlns="http://www.w3.org/2000/svg" xmlns:xlink="http://www.w3.org/1999/xlink">
    <title>Icons/16px/Weather/Lightning</title>
    <defs>
        <path d="M11.9831,6.15724607 L8.8201,9.46616335 L12.2171,9.46616335 L3.6231,16 L7.4061,11.0031249 L4.2111,11.0041249 L8.0101,6.15724607 L11.9831,6.15724607 Z M5.703,-1.27009514e-13 C7.225,-1.27009514e-13 8.66,0.59398515 9.735,1.66895828 C10.102,2.03394915 10.414,2.44293893 10.666,2.88292793 L10.666,2.88292793 L10.774,3.07692308 L10.996,3.0359241 C11.254,2.98692533 11.516,2.9639259 11.779,2.9639259 C14.104,2.9639259 16,4.85287868 16,7.17882053 C16,8.56878578 15.317,9.80375491 14.272,10.5687358 L14.272,10.5687358 L13.779,9.75475613 C14.55,9.15677108 15.051,8.22779431 15.051,7.17882053 C15.051,5.37486563 13.584,3.90890228 11.779,3.90890228 C11.238,3.90890228 10.716,4.03889903 10.246,4.2878928 C9.635,2.3279418 7.791,0.947976301 5.703,0.947976301 C3.08,0.947976301 0.947,3.07792305 0.947,5.6958576 C0.947,7.16882078 1.627,8.47778806 2.68,9.34876628 L2.68,9.34876628 L2.053,10.0687483 C1.924,9.95975101 1.793,9.84475388 1.67,9.72375691 C0.592,8.64778381 0,7.21781955 0,5.6958576 C0,4.17689558 0.592,2.74493138 1.67,1.66895828 C2.748,0.59398515 4.178,-1.27009514e-13 5.703,-1.27009514e-13 Z" id="path-1"></path>
    </defs>
    <g id="Icons/16px/Weather/Lightning" stroke="none" stroke-width="1" fill="none" fill-rule="evenodd">
        <mask id="mask-2" fill="white">
            <use xlink:href="#path-1"></use>
        </mask>
        <use id="Mask" fill="#0C2340" fill-rule="nonzero" xlink:href="#path-1"></use>
        <g id="Group" mask="url(#mask-2)" fill="#333333">
            <g id="Color/Grayscale/80%">
                <rect id="Rectangle" x="0" y="0" width="16" height="16"></rect>
            </g>
        </g>
    </g>
</svg>