<?xml version="1.0" encoding="UTF-8"?>
<svg width="16px" height="16px" viewBox="0 0 16 16" version="1.1" xmlns="http://www.w3.org/2000/svg" xmlns:xlink="http://www.w3.org/1999/xlink">
    <title>Icons/16px/Travel &amp; Airport/Live tv</title>
    <defs>
        <path d="M15.584,2 C15.816,2 16,2.18101266 16,2.41962025 L16,2.41962025 L16,11.9803797 C16,12.2107595 15.816,12.4 15.584,12.4 L15.584,12.4 L8.408,12.4 L8.408,14.1607595 L9.896,14.1607595 C10.12,14.1607595 10.304,14.35 10.304,14.5803797 C10.304,14.8107595 10.12,15 9.896,15 L9.896,15 L6.096,15 C5.872,15 5.688,14.8107595 5.688,14.5803797 C5.688,14.35 5.872,14.1607595 6.096,14.1607595 L6.096,14.1607595 L7.584,14.1607595 L7.584,12.4 L0.408,12.4 C0.184,12.4 0,12.2107595 0,11.9803797 L0,11.9803797 L0,2.41962025 C0,2.18101266 0.184,2 0.408,2 L0.408,2 Z M11.6730212,4.52363002 C11.5310719,4.36665014 11.2919993,4.35169967 11.1276369,4.48625385 C10.9707455,4.62828327 10.9558035,4.87496593 11.0977528,5.03194581 C11.6132531,5.60753869 11.8971518,6.35506191 11.8971518,7.13248606 C11.8971518,7.90991021 11.6132531,8.6499582 11.0977528,9.23302631 C10.9558035,9.39000619 10.9707455,9.62921362 11.1276369,9.77124303 C11.2023471,9.83852012 11.2919993,9.86842105 11.3816515,9.86842105 C11.4937168,9.86842105 11.598311,9.82356966 11.6730212,9.7413421 C12.3155288,9.02371981 12.6666667,8.09679102 12.6666667,7.13248606 C12.6666667,6.1681811 12.3155288,5.24125231 11.6730212,4.52363002 Z M5.66666667,4.73684211 C4.37800225,4.73684211 3.33333333,5.80900231 3.33333333,7.13157895 C3.33333333,8.45415559 4.37800225,9.52631579 5.66666667,9.52631579 C6.95533108,9.52631579 8,8.45415559 8,7.13157895 C8,5.80900231 6.95533108,4.73684211 5.66666667,4.73684211 Z M9.65423969,5.21297025 C9.52420048,5.0550232 9.29301966,5.03245933 9.13408285,5.16784252 C8.97514604,5.30322571 8.95347284,5.55142823 9.09073645,5.70937529 C9.40861007,6.10800357 9.58922008,6.6119299 9.58922008,7.13089879 C9.58922008,7.64986769 9.40861007,8.15379402 9.09073645,8.54490101 C8.96069724,8.71036936 8.97514604,8.95105059 9.13408285,9.08643378 C9.19910246,9.15412537 9.28579526,9.18421053 9.37248807,9.18421053 C9.47362968,9.18421053 9.58199568,9.1390828 9.65423969,9.04882734 C10.0877037,8.51481586 10.3333333,7.83037862 10.3333333,7.13089879 C10.3333333,6.43141897 10.0877037,5.75450302 9.65423969,5.21297025 Z M5.4,5.83220007 L6.73333333,6.85851586 C6.91111111,6.99535796 6.91111111,7.26904217 6.73333333,7.40588428 L5.4,8.43220007 C5.18025458,8.60134621 4.86666667,8.4404261 4.86666667,8.15851586 L4.86666667,6.10588428 C4.86666667,5.82397404 5.18025458,5.66305392 5.4,5.83220007 Z" id="path-1"></path>
    </defs>
    <g id="Icons/16px/Travel-&amp;-Airport/Live-tv" stroke="none" stroke-width="1" fill="none" fill-rule="evenodd">
        <mask id="mask-2" fill="white">
            <use xlink:href="#path-1"></use>
        </mask>
        <use id="Mask" fill="#0C2340" fill-rule="nonzero" xlink:href="#path-1"></use>
        <g id="Group" mask="url(#mask-2)" fill="#333333">
            <g id="Color/Grayscale/80%">
                <rect id="Rectangle" x="0" y="0" width="16" height="16"></rect>
            </g>
        </g>
    </g>
</svg>