<?xml version="1.0" encoding="UTF-8"?>
<svg width="16px" height="16px" viewBox="0 0 16 16" version="1.1" xmlns="http://www.w3.org/2000/svg" xmlns:xlink="http://www.w3.org/1999/xlink">
    <title>Icons/16px/Digital/Map</title>
    <defs>
        <path d="M8,0 C12.416,0 16,3.584 16,8 C16,12.416 12.416,16 8,16 C3.576,16 0,12.416 0,8 C0,3.584 3.576,0 8,0 Z M10.12,14.64 C9.8,14.68 9.504,14.712 9.264,14.84 C9.176,14.88 9.112,14.976 9.024,15 C8.968,15.008 8.888,14.968 8.832,14.976 C8.712,14.992 8.536,15.112 8.368,15.192 C9.112,15.152 9.832,15 10.496,14.752 C10.44,14.728 10.392,14.72 10.32,14.76 C10.32,14.648 10.128,14.736 10.12,14.64 Z M5.376,14.04 C5.296,13.856 4.88,13.936 4.896,14.2 C4.904,14.288 4.96,14.28 4.976,14.4 C4.888,14.36 4.872,14.24 4.752,14.224 C4.808,14.184 4.8,14.088 4.712,14.08 C4.624,14.064 4.68,14.192 4.64,14.224 C4.536,14.224 4.544,14.2 4.456,14.224 C4.456,14.24 4.464,14.256 4.472,14.272 C4.52,14.304 4.568,14.328 4.616,14.352 C4.648,14.352 4.688,14.344 4.712,14.32 C4.736,14.36 4.752,14.392 4.752,14.424 C4.856,14.48 4.968,14.528 5.08,14.576 L5.08,14.576 L5.096,14.576 C5.136,14.584 5.088,14.52 5.072,14.52 C5.112,14.464 5.16,14.576 5.176,14.616 C5.424,14.728 5.688,14.824 5.952,14.904 C5.648,14.72 5.424,14.448 5.136,14.24 C5.128,14.088 5.256,14.072 5.376,14.04 Z M4.496,1.712 C4.032,1.968 3.6,2.28 3.208,2.624 L3.208,2.624 C3.256,2.736 3.264,2.952 3.104,2.96 C3.064,2.896 3.064,2.824 3.08,2.752 C2.176,3.592 1.496,4.656 1.128,5.864 C1.168,5.936 1.224,6.016 1.24,6.096 C1.256,6.176 1.216,6.224 1.224,6.296 C1.248,6.528 1.432,6.56 1.64,6.712 C1.736,6.736 1.72,6.656 1.792,6.656 C1.856,6.92 2.24,6.856 2.256,7.168 C2.296,7.232 2.384,7.248 2.392,7.352 C2.496,7.328 2.488,7.424 2.608,7.432 C2.648,7.4 2.616,7.304 2.688,7.312 C2.792,7.392 2.8,7.576 2.792,7.768 C2.712,7.944 2.472,8.208 2.648,8.4 C2.496,8.56 2.656,8.816 2.792,8.88 C2.864,9.168 2.976,9.416 3.144,9.608 C3.312,9.648 3.376,9.776 3.464,9.888 C3.464,10.312 3.52,10.68 3.56,11.04 C3.592,11.24 3.52,11.44 3.528,11.64 C3.536,11.912 3.736,12.08 3.704,12.376 C3.672,12.376 3.624,12.368 3.624,12.392 C3.592,12.512 3.704,12.488 3.72,12.552 C3.808,12.84 3.872,13.152 4.144,13.248 C4.2,13.256 4.152,13.152 4.2,13.152 C4.224,13.096 4.208,13.32 4.144,13.312 C4.232,13.432 4.496,13.504 4.656,13.448 C4.48,13.32 4.32,13.176 4.224,12.968 C4.28,12.88 4.328,12.784 4.376,12.696 C4.368,12.6 4.264,12.592 4.224,12.536 C4.208,12.448 4.312,12.488 4.344,12.456 C4.312,12.424 4.32,12.352 4.32,12.296 C4.344,12.264 4.416,12.288 4.416,12.232 C4.432,12.136 4.264,12.208 4.28,12.096 C4.328,12.112 4.384,12.12 4.456,12.12 C4.488,12.048 4.456,11.984 4.456,11.92 C4.752,12.016 4.92,11.8 4.776,11.584 C4.832,11.584 4.904,11.568 4.936,11.6 C5.168,11.464 5.248,11.168 5.416,10.96 C5.424,10.872 5.376,10.824 5.392,10.728 C5.472,10.608 5.632,10.568 5.728,10.464 C5.824,10.456 5.896,10.496 5.968,10.464 C6.152,10.392 6.224,9.832 6.192,9.512 C6.264,9.456 6.648,9.064 6.568,8.84 C6.48,8.592 5.936,8.344 5.576,8.384 C5.48,8.168 5.24,8.2 5.056,8.104 C4.992,7.752 4.84,7.472 4.376,7.512 C4.288,7.312 4.008,7.232 3.984,7.032 C3.856,7.016 3.768,7.04 3.728,7.112 C3.648,7.064 3.616,7.088 3.504,7.088 C3.472,7.016 3.392,6.992 3.368,6.912 C3.272,6.912 3.288,6.976 3.248,6.888 C3.08,6.968 2.92,7.04 2.872,7.232 C2.8,7.192 2.64,7.144 2.512,7.232 C2.304,7.056 2.648,6.456 2.136,6.616 C2.176,6.448 2.24,6.312 2.272,6.136 C2.248,6.12 2.224,6.112 2.208,6.104 C2.264,6.032 2.36,6 2.504,6.008 C2.504,5.736 2.208,5.736 1.992,5.792 C1.952,5.728 1.872,5.656 1.768,5.592 C1.824,5.512 1.888,5.448 1.976,5.424 C2.072,5.416 2.072,5.496 2.16,5.504 C2.208,5.48 2.224,5.424 2.216,5.344 C2.368,5.312 2.384,5.376 2.512,5.344 C2.528,5.512 2.568,5.664 2.632,5.776 C2.856,5.584 2.6,5.24 2.752,5.008 C2.864,4.84 3.064,4.84 3.128,4.632 C3.136,4.56 3.112,4.536 3.112,4.488 C3.224,4.416 3.264,4.256 3.328,4.128 C3.456,4.088 3.488,3.952 3.624,3.912 C3.648,3.832 3.56,3.872 3.584,3.792 C3.64,3.664 3.816,3.648 3.904,3.56 C3.928,3.592 3.888,3.672 3.944,3.712 C4.072,3.624 4.24,3.576 4.36,3.48 C4.376,3.392 4.328,3.368 4.264,3.36 C4.264,3.304 4.344,3.32 4.344,3.256 C4.328,3.192 4.192,3.24 4.144,3.2 C4.16,3.024 4.328,3.12 4.44,3.04 C4.456,2.944 4.312,3.008 4.28,2.96 C4.408,2.896 4.624,2.92 4.64,2.744 C4.816,2.712 4.912,2.6 4.952,2.448 C4.944,2.344 4.8,2.376 4.816,2.248 C4.744,2.256 4.688,2.24 4.64,2.224 C4.592,2.048 4.552,1.872 4.496,1.712 Z M9.704,1.456 C9.672,1.416 9.592,1.432 9.528,1.432 C9.432,1.488 9.448,1.656 9.368,1.728 C9.36,1.792 9.464,1.736 9.448,1.808 C9.456,1.888 9.352,1.832 9.344,1.808 C9.216,1.864 9.184,1.968 9.032,1.952 C9.048,2.024 9.056,2.112 9.048,2.208 C9.096,2.256 9.192,2.264 9.224,2.328 C9.344,2.304 9.432,2.256 9.488,2.168 L9.488,2.168 L9.488,1.984 C9.536,1.968 9.576,1.944 9.648,1.952 C9.624,2.024 9.704,2.008 9.688,2.088 C9.64,2.088 9.584,2.08 9.568,2.104 C9.552,2.184 9.6,2.192 9.584,2.264 C9.536,2.264 9.488,2.264 9.464,2.288 C9.472,2.336 9.512,2.36 9.584,2.344 C9.576,2.424 9.488,2.44 9.464,2.504 C9.608,2.552 9.84,2.52 9.96,2.48 C9.92,2.584 10.024,2.536 10.024,2.6 C9.824,2.504 9.824,2.68 9.584,2.64 C9.56,2.672 9.568,2.728 9.568,2.784 C9.744,2.872 10,2.976 9.88,3.296 C9.6,3.344 9.288,3.144 9.128,3.32 C9.248,3.56 9.104,3.8 9.152,4.032 C9.264,4.064 9.44,4.048 9.504,4.128 C9.448,4.184 9.384,4.24 9.384,4.352 C9.096,4.416 9.136,4.816 8.952,4.984 C8.592,5.12 8.496,5.52 8.296,5.8 C8.464,5.976 8.384,6.36 8.272,6.536 C8.304,6.608 8.352,6.648 8.328,6.776 C8.392,6.872 8.496,6.92 8.592,6.976 C8.728,7.288 8.888,7.688 9.224,7.728 C9.376,7.744 9.448,7.616 9.584,7.608 C9.712,7.6 9.744,7.696 9.88,7.704 C10.088,7.648 10.272,7.472 10.48,7.512 C10.648,7.536 10.768,7.84 10.976,7.688 C11.048,7.824 11.016,8.104 10.952,8.224 C11.032,8.48 11.224,8.616 11.272,8.896 C11.4744615,9.03815385 11.4426509,9.21973964 11.3751552,9.41203095 L11.3131944,9.57880382 C11.2722367,9.69084024 11.2381538,9.80369231 11.248,9.912 C11.272,10.088 11.424,10.216 11.448,10.408 C11.496,10.776 11.608,11.048 11.792,11.32 C11.792,11.376 11.72,11.36 11.752,11.44 C11.824,11.752 12.152,11.424 12.344,11.496 C12.536,11.376 12.76,11.288 12.824,11.04 C13.08,10.944 13.088,10.608 13.216,10.384 L13.216,10.384 L13.32,10.384 C13.392,10.28 13.4,10.056 13.32,9.952 C13.408,9.76 13.576,9.656 13.736,9.536 C13.744,9.288 13.84,9.128 13.776,8.936 C13.744,8.848 13.624,8.8 13.616,8.72 C13.568,8.408 13.984,8.32 14.016,7.984 C14.064,7.968 14.088,7.928 14.136,7.904 C14.2,7.56 14.44,7.288 14.408,6.912 C14.264,6.984 14.08,7 13.936,7.032 C13.88,6.968 13.968,6.92 13.992,6.872 C13.832,6.624 13.504,6.352 13.56,6.016 C13.424,5.848 13.28,5.584 13.256,5.36 C13.384,5.336 13.424,5.552 13.456,5.68 C13.48,5.76 13.56,5.776 13.6,5.84 C13.616,6.208 13.896,6.312 13.912,6.672 C13.992,6.736 13.984,6.888 14.096,6.912 C14.176,6.928 14.152,6.84 14.152,6.776 C14.368,6.632 14.624,6.528 14.808,6.36 C14.808,6.208 14.896,6.192 14.888,6.08 C14.872,5.952 14.704,5.904 14.704,5.76 C14.76,5.768 14.808,5.776 14.848,5.792 C14.696,5.296 14.48,4.824 14.216,4.384 C13.968,4.368 13.872,4.176 13.944,3.936 C13.416,3.176 12.752,2.52 11.984,2.008 C11.984,2.008 11.992,2.016 11.992,2.024 C11.928,2.032 11.92,1.976 11.896,1.952 C11.88,1.936 11.864,1.928 11.848,1.928 L11.848,1.928 L11.832,1.928 C11.704,1.968 11.736,2.176 11.672,2.288 C11.432,2.2 11.216,2.392 11.016,2.208 C11.08,2.072 10.928,2.08 10.88,2.008 C10.928,1.864 10.936,1.8 10.88,1.648 C10.608,1.664 10.648,1.952 10.736,2.128 C10.648,2.136 10.504,2.128 10.4,2.168 C10.336,2.248 10.32,2.384 10.16,2.368 C10.096,2.312 10.232,2.264 10.16,2.208 C10.136,2.168 10.064,2.176 10.024,2.144 C10.016,2.008 9.944,1.952 9.84,1.904 C9.856,1.832 9.872,1.768 9.76,1.768 C9.752,1.688 9.824,1.688 9.824,1.608 C9.808,1.56 9.76,1.544 9.688,1.552 C9.664,1.496 9.712,1.496 9.704,1.456 Z M6.304,1 C6.096,1.048 5.896,1.112 5.696,1.184 C5.672,1.248 5.68,1.28 5.728,1.328 C5.808,1.344 5.848,1.312 5.912,1.312 C5.952,1.336 5.96,1.392 6.008,1.408 C6.16,1.32 6.36,1.184 6.304,1 Z" id="path-1"></path>
    </defs>
    <g id="Icons/16px/Digital/Map" stroke="none" stroke-width="1" fill="none" fill-rule="evenodd">
        <mask id="mask-2" fill="white">
            <use xlink:href="#path-1"></use>
        </mask>
        <use id="Mask" fill="#0C2340" fill-rule="nonzero" xlink:href="#path-1"></use>
        <g id="Group" mask="url(#mask-2)" fill="#333333">
            <g id="Color/Grayscale/80%">
                <rect id="Rectangle" x="0" y="0" width="16" height="16"></rect>
            </g>
        </g>
    </g>
</svg>