<?xml version="1.0" encoding="UTF-8"?>
<svg width="16px" height="16px" viewBox="0 0 16 16" version="1.1" xmlns="http://www.w3.org/2000/svg" xmlns:xlink="http://www.w3.org/1999/xlink">
    <title>Icons/16px/Interface/Menu</title>
    <defs>
        <path d="M15.3333333,13.1999675 C15.7013333,13.1999675 16,13.4911748 16,13.8499837 L16,13.8499837 L15.9927673,13.9459967 C15.945124,14.2593328 15.6678788,14.5 15.3333333,14.5 L15.3333333,14.5 L0.666666667,14.5 C0.298666667,14.5 0,14.2087927 0,13.8499837 L0,13.8499837 L0.00723265715,13.7539708 C0.0548760331,13.4406347 0.332121212,13.1999675 0.666666667,13.1999675 L0.666666667,13.1999675 Z M15.3333333,7.35014625 C15.7013333,7.35014625 16,7.64070352 16,8.0001625 C16,8.35897147 15.7013333,8.65017875 15.3333333,8.65017875 L15.3333333,8.65017875 L0.666666667,8.65017875 C0.298666667,8.65017875 0,8.35897147 0,8.0001625 C0,7.64070352 0.298666667,7.35014625 0.666666667,7.35014625 L0.666666667,7.35014625 Z M15.3333333,1.5 C15.7013333,1.5 16,1.79055726 16,2.15001625 C16,2.50882522 15.7013333,2.8000325 15.3333333,2.8000325 L15.3333333,2.8000325 L0.666666667,2.8000325 C0.298666667,2.8000325 0,2.50882522 0,2.15001625 C0,1.79055726 0.298666667,1.5 0.666666667,1.5 L0.666666667,1.5 Z" id="path-1"></path>
    </defs>
    <g id="Icons/16px/Interface/Menu" stroke="none" stroke-width="1" fill="none" fill-rule="evenodd">
        <mask id="mask-2" fill="white">
            <use xlink:href="#path-1"></use>
        </mask>
        <g id="Combined-Shape"></g>
        <g id="Group" mask="url(#mask-2)" fill="#333333">
            <g id="Color/Grayscale/80%">
                <rect id="Rectangle" x="0" y="0" width="16" height="16"></rect>
            </g>
        </g>
    </g>
</svg>