<?xml version="1.0" encoding="UTF-8"?>
<svg width="16px" height="16px" viewBox="0 0 16 16" version="1.1" xmlns="http://www.w3.org/2000/svg" xmlns:xlink="http://www.w3.org/1999/xlink">
    <title>Icons/16px/Digital/Microphone/Off</title>
    <defs>
        <path d="M3.85185844,6.66666667 C4.09991411,6.66666667 4.30728675,6.84584694 4.3583361,7.08525074 L4.36883073,7.15856084 L4.37037657,7.20005557 L4.36733681,7.24102197 L4.36788768,8.66696936 L4.36519139,8.67123647 L4.36788768,8.72884247 L4.36666667,8.86666667 C4.36903085,10.6666667 6.04088626,12.3048906 7.89028505,12.3708219 L8.09976637,12.3708219 C8.56874368,12.3543836 9.02659818,12.2367646 9.44883105,12.0420186 L10.1760319,12.7679104 C9.67236482,13.0453931 9.11204155,13.2319942 8.51437347,13.3053193 L8.51437347,14.9268215 L10.8466667,14.9268215 L10.8460035,14.935022 L10.8822113,14.9380914 C11.1353004,14.9734106 11.3303696,15.1965771 11.3303696,15.4666111 C11.3303696,15.725606 11.1509234,15.941487 10.9129503,15.989867 L10.8466667,16 L5.15333333,16 L5.15267015,15.9976886 L5.11482496,15.9951308 C4.86173587,15.9598116 4.66666319,15.7366451 4.66666319,15.4666111 C4.66666319,15.1832507 4.88146454,14.9514979 5.15270274,14.9342518 L5.15333333,14.9268215 L7.48770757,14.9268215 L7.48770757,13.3053193 C5.11741583,13.0219553 3.33045468,10.9552308 3.3333264,8.50055202 L3.33728104,8.4344118 L3.3357792,7.25212227 L3.3333264,7.20005557 L3.3333264,7.20005557 C3.3333264,6.90547301 3.56548878,6.66666667 3.85185844,6.66666667 Z M1.52159208,0.349996126 L1.58925565,0.410744349 L15.5892557,14.4107443 C15.9146926,14.7361813 15.9146926,15.2638187 15.5892557,15.5892557 C15.2855145,15.8929968 14.8056343,15.9132462 14.4784079,15.6500039 L14.4107443,15.5892557 L0.410744349,1.58925565 C0.0853074392,1.26381874 0.0853074392,0.736181259 0.410744349,0.410744349 C0.714485465,0.107003233 1.19436575,0.0867538255 1.52159208,0.349996126 Z M5.33433685,7.92689262 L8.65001311,11.2432164 C7.88971629,11.4564588 7.05678415,11.2912569 6.40903049,10.7476109 C5.95418418,10.386762 5.62440428,9.87592312 5.47113474,9.29478242 C5.40159476,9.01832244 5.36062848,8.73461474 5.34896356,8.44869876 C5.33971172,8.27788788 5.33589213,8.10220104 5.33433685,7.92689262 Z M12.1481485,6.6123553 C12.4345182,6.6123553 12.6666667,6.85116165 12.6666667,7.14574421 L12.6646701,7.1663553 L12.6648,8.50055202 L12.6585778,8.50055202 C12.6588536,8.97633198 12.5919522,9.43755639 12.4666358,9.87406421 L11.6247424,9.03150414 L11.6266667,8.9293967 L11.6256897,7.15214487 L11.629142,7.14884471 C11.6296304,6.85116165 11.8617789,6.6123553 12.1481485,6.6123553 Z M7.99607168,0 C9.17241056,0 10.2046427,0.833719568 10.5206139,2.03903773 C10.5948149,2.31503843 10.6411295,2.59867057 10.6587719,2.88512139 L10.6647881,3.10541278 L10.6642608,4.04565988 L10.658993,4.7514614 L10.6583772,7.48084625 C10.6583772,7.67092742 10.6583772,7.86704677 10.6549737,8.06196344 L5.34066319,2.748 L5.34266797,2.71295062 C5.35662298,2.54124004 5.38440594,2.3711188 5.42571833,2.20446549 L5.47152948,2.03903773 C5.78750068,0.833719568 6.8197328,0 7.99607168,0 Z" id="path-1"></path>
    </defs>
    <g id="Icons/16px/Digital/Microphone/Off" stroke="none" stroke-width="1" fill="none" fill-rule="evenodd">
        <g id="Icon">
            <mask id="mask-2" fill="white">
                <use xlink:href="#path-1"></use>
            </mask>
            <use id="Mask" fill="#333333" xlink:href="#path-1"></use>
            <g id="Group" mask="url(#mask-2)" fill="#333333">
                <g id="Color/Grayscale/80%">
                    <rect id="Rectangle" x="0" y="0" width="16" height="16"></rect>
                </g>
            </g>
        </g>
    </g>
</svg>