<?xml version="1.0" encoding="UTF-8"?>
<svg width="16px" height="16px" viewBox="0 0 16 16" version="1.1" xmlns="http://www.w3.org/2000/svg" xmlns:xlink="http://www.w3.org/1999/xlink">
    <title>Icons/16px/Digital/Microphone/On</title>
    <defs>
        <path d="M8.8148152,6.6123553 C9.10118486,6.6123553 9.33333333,6.85116165 9.33333333,7.14574421 L9.33133681,7.1663553 L9.33146667,8.50055202 L9.32524445,8.50055202 C9.32666483,10.9508794 7.54629105,13.015138 5.18104014,13.3053193 L5.18104014,14.9268215 L7.51333333,14.9268215 L7.51267015,14.935022 L7.54887797,14.9380914 C7.80196706,14.9734106 7.99703626,15.1965771 7.99703626,15.4666111 C7.99703626,15.725606 7.81759011,15.941487 7.57961694,15.989867 L7.51333333,16 L1.82,16 L1.81933681,15.9976886 L1.78149163,15.9951308 C1.52840254,15.9598116 1.33333333,15.7366451 1.33333333,15.4666111 C1.33333333,15.1832507 1.54813121,14.9514979 1.81936941,14.9342518 L1.82,14.9268215 L4.15437424,14.9268215 L4.15437424,13.3053193 C1.7840825,13.0219553 -0.00287865682,10.9552308 3.48140808e-06,8.50055202 L0.00394770904,8.4344118 L0.00244586799,7.25212227 C0.000832513966,7.23499092 3.48140808e-06,7.21762242 3.48140808e-06,7.20005557 C3.48140808e-06,6.90547301 0.232155446,6.66666667 0.518525102,6.66666667 C0.766580776,6.66666667 0.973953417,6.84584694 1.02500276,7.08525074 L1.0354974,7.15856084 L1.03704323,7.20005557 L1.03400348,7.24102197 L1.03455435,8.66696936 L1.03185805,8.67123647 L1.03455435,8.72884247 L1.03333333,8.86666667 C1.03569751,10.6666667 2.70755293,12.3048906 4.55695172,12.3708219 L4.76643304,12.3708219 C6.61642382,12.3059773 8.29333333,10.6666667 8.29333333,8.9293967 L8.29235633,7.15214487 L8.29580868,7.14884471 C8.29629707,6.85116165 8.52844555,6.6123553 8.8148152,6.6123553 Z M4.66273834,0 C5.83907722,0 6.87130934,0.833719568 7.18728054,2.03903773 C7.26148152,2.31503843 7.30779617,2.59867057 7.32543859,2.88512139 C7.3417215,3.17572208 7.32815241,4.30075732 7.32577782,4.72881332 L7.32543859,7.48084625 C7.32504385,7.79786518 7.32504385,8.13167983 7.30925436,8.44869876 C7.29713384,8.73458138 7.25610783,9.01824448 7.18688581,9.29478242 C7.03242342,9.87521863 6.703051,10.3856412 6.24938479,10.7476109 C5.31886796,11.5285741 4.00621399,11.5285741 3.07569716,10.7476109 C2.62085085,10.386762 2.29107095,9.87592312 2.13780141,9.29478242 C2.06826143,9.01832244 2.02729514,8.73461474 2.01563022,8.44869876 C1.99845915,8.13167983 2,7.79786518 2,7.48084625 L2,4.82712481 L2.0000265,4.73634907 L2.0000265,4.73634907 L2.00031796,2.95890266 C2.00022964,2.92814175 2.00012439,2.90320907 2,2.88512139 C2.00783867,2.59751906 2.05436475,2.31259211 2.13819614,2.03903773 C2.45416735,0.833719568 3.48639946,0 4.66273834,0 Z" id="path-1"></path>
    </defs>
    <g id="Icons/16px/Digital/Microphone/On" stroke="none" stroke-width="1" fill="none" fill-rule="evenodd">
        <g id="Color/Grayscale/80%" transform="translate(3.333333, 0.000000)">
            <mask id="mask-2" fill="white">
                <use xlink:href="#path-1"></use>
            </mask>
            <use id="Mask" fill="#333333" xlink:href="#path-1"></use>
            <g id="Group" mask="url(#mask-2)">
                <g transform="translate(-3.333333, 0.000000)" id="Color/Grayscale/80%">
                    <rect id="Rectangle" fill="#333333" x="0" y="0" width="16" height="16"></rect>
                </g>
            </g>
        </g>
    </g>
</svg>