<?xml version="1.0" encoding="UTF-8"?>
<svg width="16px" height="16px" viewBox="0 0 16 16" version="1.1" xmlns="http://www.w3.org/2000/svg" xmlns:xlink="http://www.w3.org/1999/xlink">
    <title>Icons/16px/MileagePlus badges/Platinum</title>
    <g id="Icons/16px/MileagePlus-badges/Platinum" stroke="none" stroke-width="1" fill="none" fill-rule="evenodd">
        <g id="Badge" transform="translate(1.000000, 0.000000)">
            <polygon id="Fill-1" fill="#7C848A" points="0 0 0 16 7.00030986 13.6169093 14 16 14 0"></polygon>
            <path d="M7.4002678,6.87394958 C7.86152923,6.87955182 8.19893342,6.78728992 8.41230242,6.59663866 C8.62602733,6.40633754 8.73280081,6.13182773 8.73280081,5.77328431 C8.73280081,5.4147409 8.62602733,5.14145658 8.41230242,4.95378151 C8.19893342,4.76628151 7.86152923,4.67244398 7.4002678,4.67244398 L5.81147844,4.67244398 L5.81147844,6.87394958 L7.4002678,6.87394958 Z M7.6736079,4 C8.28862314,4 8.75397755,4.15563725 9.07020501,4.46638655 C9.3862545,4.77731092 9.54427925,5.21306022 9.54427925,5.77328431 C9.54427925,6.3335084 9.3862545,6.77048319 9.07020501,7.08403361 C8.75397755,7.39793417 8.28862314,7.5519958 7.6736079,7.54639356 L5.81147844,7.54639356 L5.81147844,10 L5,10 L5,4 L7.6736079,4 Z" id="Fill-2" fill="#FFFFFF"></path>
        </g>
    </g>
</svg>