<?xml version="1.0" encoding="UTF-8"?>
<svg width="16px" height="16px" viewBox="0 0 16 16" version="1.1" xmlns="http://www.w3.org/2000/svg" xmlns:xlink="http://www.w3.org/1999/xlink">
    <title>Icons/16px/MileagePlus badges/Global Services</title>
    <g id="Icons/16px/MileagePlus-badges/Global-Services" stroke="none" stroke-width="1" fill="none" fill-rule="evenodd">
        <g id="Badge" transform="translate(1.000000, 0.000015)">
            <polygon id="Fill-1" fill="#25282A" points="0 0 0 16 7.00038733 13.6168876 14 16 14 0"></polygon>
            <g id="Group-6" transform="translate(1.580928, 3.999985)" fill="#FFFFFF">
                <path d="M3.78089744,5.80181667 C3.4478083,5.93248333 3.11203297,5.99781667 2.77357143,5.99781667 C2.343779,5.99781667 1.95965201,5.91915 1.62119048,5.76181667 C1.28272894,5.60448333 0.99530525,5.39265 0.758919414,5.12581667 C0.522533578,4.85931667 0.342557998,4.55265 0.218992674,4.20581667 C0.0954273504,3.85931667 0.0336446886,3.49931667 0.0336446886,3.12581667 C0.0336446886,2.70981667 0.0913980464,2.31381667 0.206904762,1.93781667 C0.322411477,1.56198333 0.494328449,1.23265 0.722655678,0.949983333 C0.950982906,0.66715 1.23572039,0.441816667 1.57686813,0.273816667 C1.91801587,0.105816667 2.31691697,0.0218166667 2.77357143,0.0218166667 C3.08500305,0.0218166667 3.37931013,0.0578166667 3.65598901,0.129816667 C3.93266789,0.201816667 4.17979853,0.31515 4.39738095,0.469816667 C4.61496337,0.62465 4.79762515,0.820483333 4.9453663,1.05781667 C5.09310745,1.29531667 5.19384005,1.58198333 5.2475641,1.91781667 L4.48199634,1.91781667 C4.4443895,1.69931667 4.37454823,1.51131667 4.27247253,1.35398333 C4.17039683,1.19665 4.0441453,1.06731667 3.89371795,0.965816667 C3.7432906,0.86465 3.57271673,0.78865 3.38199634,0.737816667 C3.19127595,0.687316667 2.98846764,0.661816667 2.77357143,0.661816667 C2.42436508,0.661816667 2.12485348,0.73115 1.87503663,0.869816667 C1.62521978,1.00848333 1.42106838,1.19131667 1.26258242,1.41781667 C1.10409646,1.64465 0.987246642,1.90315 0.912032967,2.19398333 C0.836819292,2.48465 0.799212454,2.78181667 0.799212454,3.08581667 C0.799212454,3.38465 0.842191697,3.67131667 0.928150183,3.94581667 C1.01410867,4.22065 1.1403602,4.46331667 1.30690476,4.67381667 C1.47344933,4.88465 1.67877595,5.05265 1.92338828,5.17781667 C2.16783272,5.30331667 2.45122711,5.36581667 2.77357143,5.36581667 C3.07442613,5.36581667 3.3403602,5.31798333 3.57137363,5.22198333 C3.80238706,5.12581667 3.99713675,4.99381667 4.15562271,4.82598333 C4.31410867,4.65781667 4.43364469,4.46065 4.51423077,4.23381667 C4.59481685,4.00715 4.62973748,3.76331667 4.61899267,3.50181667 L2.78163004,3.50181667 L2.78163004,2.86181667 L5.30397436,2.86181667 L5.30397436,5.86981667 L4.82045788,5.86981667 L4.61899267,5.15781667 C4.39335165,5.45665 4.11398657,5.67131667 3.78089744,5.80181667" id="Fill-2"></path>
                <path d="M9.31298077,0.937883333 C9.05779151,0.753883333 8.73141789,0.661883333 8.33385989,0.661883333 C8.17268773,0.661883333 8.01420177,0.677716667 7.85840201,0.709883333 C7.70260226,0.741883333 7.56426282,0.795383333 7.4433837,0.869883333 C7.32250458,0.94455 7.22580128,1.04471667 7.15327381,1.16988333 C7.08074634,1.29538333 7.0444826,1.45121667 7.0444826,1.63788333 C7.0444826,1.81388333 7.09686355,1.95655 7.20162546,2.06588333 C7.30638736,2.17521667 7.4460699,2.26455 7.62067308,2.33388333 C7.79510836,2.40321667 7.99271215,2.46071667 8.21298077,2.50588333 C8.43324939,2.55121667 8.65754731,2.60071667 8.88587454,2.65388333 C9.11420177,2.70721667 9.33849969,2.76988333 9.55876832,2.84188333 C9.77903694,2.91371667 9.97647283,3.01121667 10.151076,3.13388333 C10.3256792,3.25655 10.4653617,3.41121667 10.5701236,3.59788333 C10.6748855,3.78455 10.7272665,4.01921667 10.7272665,4.30188333 C10.7272665,4.60588333 10.6587683,4.86571667 10.521772,5.08188333 C10.3847756,5.29788333 10.2086615,5.47388333 9.99393315,5.60988333 C9.77903694,5.74588333 9.53862179,5.84455 9.27268773,5.90588333 C9.00675366,5.96721667 8.7421627,5.99771667 8.47891484,5.99771667 C8.15657051,5.99771667 7.85168651,5.95788333 7.56426282,5.87788333 C7.27683913,5.79788333 7.02433608,5.67671667 6.80675366,5.51388333 C6.58917125,5.35121667 6.41708639,5.14321667 6.29100275,4.88988333 C6.16475122,4.63655 6.10162546,4.33671667 6.10162546,3.98988333 L6.82690018,3.98988333 C6.82690018,4.22988333 6.87390873,4.43655 6.96792582,4.60988333 C7.06194292,4.78321667 7.18550824,4.92588333 7.33862179,5.03788333 C7.49173535,5.14971667 7.67036783,5.23271667 7.87451923,5.28588333 C8.07867063,5.33921667 8.28819444,5.36571667 8.50309066,5.36571667 C8.67500763,5.36571667 8.8482677,5.34988333 9.02287088,5.31788333 C9.19747405,5.28588333 9.35461691,5.23121667 9.49429945,5.15388333 C9.63398199,5.07655 9.7468025,4.97121667 9.83276099,4.83771667 C9.91871947,4.70471667 9.96169872,4.53388333 9.96169872,4.32588333 C9.96169872,4.12871667 9.90931777,3.96871667 9.80455586,3.84588333 C9.69979396,3.72321667 9.56011142,3.62321667 9.38550824,3.54571667 C9.21090507,3.46871667 9.01346917,3.40588333 8.79320055,3.35788333 C8.57293193,3.30971667 8.348634,3.26071667 8.12030678,3.20988333 C7.89197955,3.15921667 7.66768162,3.10071667 7.447413,3.03388333 C7.22714438,2.96721667 7.02970849,2.87921667 6.85510531,2.76988333 C6.68050214,2.66055 6.5408196,2.51921667 6.43605769,2.34588333 C6.33129579,2.17255 6.27891484,1.95521667 6.27891484,1.69388333 C6.27891484,1.40588333 6.33801129,1.15655 6.45620421,0.945883333 C6.57439713,0.735216667 6.73153999,0.561883333 6.92763278,0.425883333 C7.12372558,0.289716667 7.3466804,0.18855 7.59649725,0.121883333 C7.8463141,0.0552166667 8.10284646,0.0218833333 8.36609432,0.0218833333 C8.66157662,0.0218833333 8.9354014,0.05655 9.18807234,0.125883333 C9.4405754,0.195216667 9.66218712,0.30455 9.85290751,0.453883333 C10.0436279,0.603216667 10.1940553,0.791216667 10.3041896,1.01771667 C10.4143239,1.24455 10.4747634,1.51521667 10.4855082,1.82988333 L9.76023352,1.82988333 C9.71725427,1.41921667 9.56817002,1.12188333 9.31298077,0.937883333" id="Fill-4"></path>
            </g>
        </g>
    </g>
</svg>