<?xml version="1.0" encoding="UTF-8"?>
<svg width="16px" height="16px" viewBox="0 0 16 16" version="1.1" xmlns="http://www.w3.org/2000/svg" xmlns:xlink="http://www.w3.org/1999/xlink">
    <title>Icons/16px/MileagePlus badges/1K</title>
    <g id="Icons/16px/MileagePlus-badges/1K" stroke="none" stroke-width="1" fill="none" fill-rule="evenodd">
        <g id="Badge" transform="translate(1.000000, 0.000000)">
            <polygon id="Fill-1" fill="#D4D4D0" points="0 0 0 16 7.00030986 13.6169093 14 16 14 0"></polygon>
            <g id="Group-6" transform="translate(2.074286, 4.000000)" fill="#333333">
                <path d="M1.66587127,5.88920571 L1.66587127,1.70909143 L0.126857143,1.70909143 L0.126857143,1.14954857 C0.327598116,1.14954857 0.522588697,1.13463429 0.712351648,1.10429143 C0.901766091,1.07412 1.07340659,1.01789143 1.22657614,0.935605714 C1.37991994,0.85332 1.5097394,0.741034286 1.61568603,0.598234286 C1.7214584,0.455777143 1.79394819,0.274577143 1.83315542,0.0551485714 L2.37682889,0.0551485714 L2.37682889,5.88920571 L1.66587127,5.88920571 Z" id="Fill-2"></path>
                <polygon id="Fill-4" points="5.49674788 0.01392 5.49674788 2.94346286 8.52459089 0.01392 9.55321413 0.01392 7.03576201 2.38374857 9.65358462 5.88912 8.650054 5.88912 6.49208854 2.91860571 5.49674788 3.83197714 5.49674788 5.88912 4.70197394 5.88912 4.70197394 0.01392"></polygon>
            </g>
        </g>
    </g>
</svg>