<?xml version="1.0" encoding="UTF-8"?>
<svg width="16px" height="16px" viewBox="0 0 16 16" version="1.1" xmlns="http://www.w3.org/2000/svg" xmlns:xlink="http://www.w3.org/1999/xlink">
    <title>Icons/16px/MileagePlus badges/Premier Silver</title>
    <g id="Icons/16px/MileagePlus-badges/Premier-Silver" stroke="none" stroke-width="1" fill="none" fill-rule="evenodd">
        <g id="Badge" transform="translate(1.000000, 0.000000)">
            <polygon id="Fill-1" fill="#C1C6C8" points="0 0 0 16 7.00030986 13.6169093 14 16 14 0"></polygon>
            <path d="M7.91037007,4.91970436 C7.65181952,4.73496026 7.32114699,4.6425882 6.91835246,4.6425882 C6.75505738,4.6425882 6.59448389,4.65848557 6.43663198,4.69078232 C6.27878007,4.72291173 6.13861846,4.77662809 6.01614715,4.85142937 C5.89367584,4.92639799 5.79569879,5.02696974 5.72221601,5.15264259 C5.64873322,5.27865012 5.61199183,5.43511365 5.61199183,5.62253521 C5.61199183,5.79924697 5.66506273,5.94249059 5.77120453,6.05226607 C5.87734633,6.16204156 6.01886873,6.25173616 6.19577174,6.32134988 C6.37250464,6.3909636 6.57271121,6.44869614 6.79588115,6.49404546 C7.01905109,6.53956213 7.24630341,6.58926231 7.47763811,6.64264398 C7.7089728,6.696193 7.93622512,6.75911309 8.15939506,6.83140427 C8.382565,6.9035281 8.58260147,7.0014224 8.75950448,7.12458513 C8.93640748,7.24774787 9.07792988,7.40304002 9.18407168,7.59046158 C9.29021348,7.77788314 9.34328438,8.01349881 9.34328438,8.2973086 C9.34328438,8.602538 9.27388397,8.86342212 9.13508316,9.08046298 C8.99628234,9.29733649 8.81784845,9.47404825 8.60029177,9.61059824 C8.382565,9.74714824 8.13898318,9.84621392 7.8695463,9.90779529 C7.60010942,9.96937666 7.33203333,10 7.06531803,10 C6.73872787,10 6.42982802,9.96000558 6.13861846,9.87968205 C5.8474089,9.79935853 5.59157994,9.67770185 5.37113159,9.51421001 C5.15068323,9.35088551 4.97633171,9.14204435 4.84858734,8.88768652 C4.72067286,8.63332868 4.65671562,8.33228281 4.65671562,7.98404686 L5.39154347,7.98404686 C5.39154347,8.22501743 5.4391712,8.43251987 5.53442667,8.60655418 C5.62968213,8.78058848 5.75487502,8.9238321 5.91000535,9.03628504 C6.06513567,9.14857063 6.24612105,9.23190629 6.45296149,9.28528797 C6.65980192,9.33883698 6.87208552,9.36544415 7.08981229,9.36544415 C7.26399371,9.36544415 7.43953592,9.34954679 7.61643892,9.31741738 C7.79334193,9.28528797 7.95255463,9.23040022 8.09407703,9.15275415 C8.23559943,9.07510807 8.34990599,8.96934877 8.43699669,8.83530888 C8.5240874,8.70177102 8.56763276,8.53024683 8.56763276,8.32140566 C8.56763276,8.12344164 8.51456186,7.96279459 8.40842006,7.83946451 C8.30227825,7.71630177 8.16075585,7.61589736 7.98385285,7.53808395 C7.80694985,7.46077256 7.60691338,7.39768512 7.38374344,7.34949101 C7.16057349,7.30112955 6.93332118,7.25193139 6.70198648,7.20089248 C6.47065179,7.15002092 6.24339947,7.09128434 6.02022953,7.02418073 C5.79705959,6.95724446 5.59702311,6.86888858 5.42012011,6.75911309 C5.24321711,6.64933761 5.10169471,6.50743272 4.99555291,6.33339841 C4.8894111,6.15936411 4.8363402,5.94115186 4.8363402,5.67876168 C4.8363402,5.38959699 4.89621507,5.13925533 5.01596479,4.92773672 C5.13571452,4.7162181 5.29492722,4.5421838 5.4936029,4.4056338 C5.69227858,4.26891647 5.9181701,4.16734068 6.17127747,4.10040441 C6.42438485,4.03346814 6.68429618,4 6.95101148,4 C7.25038579,4 7.52781732,4.03480686 7.78381638,4.10442058 C8.03964534,4.1740343 8.26417607,4.28380979 8.45740858,4.43374704 C8.65064109,4.58368428 8.80304983,4.77244457 8.9146348,4.99986055 C9.02621977,5.22761121 9.08745543,5.49937247 9.09834176,5.81531167 L8.36351391,5.81531167 C8.31996855,5.40298424 8.16892061,5.10444847 7.91037007,4.91970436" id="Fill-2" fill="#333333"></path>
        </g>
    </g>
</svg>