<?xml version="1.0" encoding="UTF-8"?>
<svg width="16px" height="16px" viewBox="0 0 16 16" version="1.1" xmlns="http://www.w3.org/2000/svg" xmlns:xlink="http://www.w3.org/1999/xlink">
    <title>Icons/16px/MileagePlus badges/Premier Gold</title>
    <g id="Icons/16px/MileagePlus-badges/Premier-Gold" stroke="none" stroke-width="1" fill="none" fill-rule="evenodd">
        <g id="Badge" transform="translate(1.000000, 0.000000)">
            <polygon id="Fill-1" fill="#9F7D23" points="0 0 0 16 7.00030986 13.6167632 14 16 14 0"></polygon>
            <path d="M8.12661957,9.80321285 C7.78915249,9.93440428 7.44913399,10 7.10605379,10 C6.67061239,10 6.28143664,9.9210174 5.93869664,9.76305221 C5.59561644,9.60508701 5.304415,9.39240295 5.06492223,9.12449799 C4.82542947,8.85692771 4.64325847,8.54902945 4.51789898,8.20080321 C4.39270957,7.85291165 4.33028497,7.49146586 4.33028497,7.11646586 C4.33028497,6.69879518 4.38862731,6.30120482 4.50582228,5.92369478 C4.62267706,5.54635207 4.79685362,5.21569612 5.02818187,4.93189424 C5.2596802,4.64792503 5.54799004,4.42168675 5.89362165,4.25301205 C6.23925326,4.08433735 6.64339731,4 7.10605379,4 C7.42157871,4 7.71975402,4.03614458 8.00023951,4.10843373 C8.28038482,4.18072289 8.53076362,4.29451138 8.75137592,4.4497992 C8.97181813,4.60525435 9.15671063,4.80187416 9.30656371,5.04016064 C9.4560766,5.27861446 9.55813317,5.5664324 9.61256335,5.90361446 L8.83710345,5.90361446 C8.79883223,5.68423695 8.72807301,5.49548193 8.62482577,5.33751673 C8.52123834,5.17955154 8.39332743,5.0496988 8.24109304,4.94779116 C8.08851845,4.84621821 7.91570265,4.76991299 7.72247552,4.7188755 C7.5292484,4.66817269 7.32377449,4.64257028 7.10605379,4.64257028 C6.75225766,4.64257028 6.44897953,4.71218206 6.19570912,4.85140562 C5.94260881,4.99062918 5.73577414,5.17419679 5.57520512,5.40160643 C5.4148062,5.62935074 5.29625048,5.88888889 5.22004823,6.18089023 C5.14384599,6.47272423 5.10574487,6.77108434 5.10574487,7.07630522 C5.10574487,7.37633869 5.14928901,7.66415663 5.23654738,7.93975904 C5.32346557,8.21569612 5.45137648,8.45933735 5.62028011,8.67068273 C5.78884356,8.88236278 5.99686889,9.05103748 6.24486637,9.17670683 C6.49252367,9.30271084 6.77947274,9.36546185 7.10605379,9.36546185 C7.41086277,9.36546185 7.68029214,9.31743641 7.91451199,9.22105087 C8.14839164,9.12449799 8.34570103,8.99196787 8.50627004,8.82346051 C8.66683906,8.65461847 8.78811629,8.45665997 8.86959146,8.22891566 C8.95140682,8.00133869 8.98678643,7.7565261 8.9757303,7.4939759 L7.11438841,7.4939759 L7.11438841,6.85140562 L9.66971503,6.85140562 L9.66971503,9.87148594 L9.17984346,9.87148594 L8.9757303,9.15662651 C8.74712357,9.45665997 8.46408666,9.67218876 8.12661957,9.80321285" id="Fill-2" fill="#FFFFFF"></path>
        </g>
    </g>
</svg>