<?xml version="1.0" encoding="UTF-8"?>
<svg width="16px" height="16px" viewBox="0 0 16 16" version="1.1" xmlns="http://www.w3.org/2000/svg" xmlns:xlink="http://www.w3.org/1999/xlink">
    <title>Icons/16px/Interface/More menu horizontal</title>
    <defs>
        <path d="M1.5,0.5 C2.32842712,0.5 3,1.17157288 3,2 C3,2.82842712 2.32842712,3.5 1.5,3.5 C0.671572875,3.5 1.33226763e-15,2.82842712 1.33226763e-15,2 C1.33226763e-15,1.17157288 0.671572875,0.5 1.5,0.5 Z M14.5,0.5 C15.3284271,0.5 16,1.17157288 16,2 C16,2.82842712 15.3284271,3.5 14.5,3.5 C13.6715729,3.5 13,2.82842712 13,2 C13,1.17157288 13.6715729,0.5 14.5,0.5 Z M8,0.5 C8.82842712,0.5 9.5,1.17157288 9.5,2 C9.5,2.82842712 8.82842712,3.5 8,3.5 C7.17157288,3.5 6.5,2.82842712 6.5,2 C6.5,1.17157288 7.17157288,0.5 8,0.5 Z" id="path-1"></path>
    </defs>
    <g id="Icons/16px/Interface/More-menu-horizontal" stroke="none" stroke-width="1" fill="none" fill-rule="evenodd">
        <g id="Dots" transform="translate(0.000000, 6.000000)">
            <mask id="mask-2" fill="white">
                <use xlink:href="#path-1"></use>
            </mask>
            <use id="Mask" fill="#7C878E" xlink:href="#path-1"></use>
            <g id="Group" mask="url(#mask-2)">
                <g transform="translate(0.000000, -6.000000)" id="Color/Grayscale/80%">
                    <rect id="Rectangle" fill="#333333" x="0" y="0" width="16" height="16"></rect>
                </g>
            </g>
        </g>
    </g>
</svg>