<?xml version="1.0" encoding="UTF-8"?>
<svg width="16px" height="16px" viewBox="0 0 16 16" version="1.1" xmlns="http://www.w3.org/2000/svg" xmlns:xlink="http://www.w3.org/1999/xlink">
    <title>Icons/16px/Weather/Mostly cloudy night</title>
    <defs>
        <path d="M4.75583944,5.64791681 C5.25457171,5.64791681 5.7413821,5.72822431 6.20335522,5.88060265 C6.46861721,5.96811724 6.72692476,6.08034182 6.97529741,6.21418766 C7.39156996,6.44378475 7.77704431,6.73721601 8.11880507,7.09139268 C8.42480017,7.40747478 8.68310773,7.75959228 8.89273424,8.14156771 L8.89273424,8.14156771 L8.98512886,8.30836022 L9.16991811,8.2723248 C9.38451208,8.23114146 9.6040735,8.2105498 9.82164794,8.2105498 C10.3134258,8.2105498 10.7813598,8.3155673 11.2065738,8.50501064 C11.4619009,8.61929439 11.7023256,8.76858398 11.923874,8.93846523 C12.7812564,9.6025465 13.3405916,10.6619878 13.3405916,11.8552749 C13.3405916,13.8650216 11.7619351,15.5 9.82164794,15.5 C9.02486849,15.5 8.27577659,15.2323083 7.64987752,14.721635 L7.64987752,14.721635 L7.50284091,14.6011737 L7.34785638,14.7061912 C6.57889466,15.2271604 5.68177266,15.5 4.75583944,15.5 C3.48715196,15.5 2.29297627,14.9872675 1.3928738,14.0585833 C0.495751803,13.1268104 -3.8191672e-14,11.8913103 -3.8191672e-14,10.5744732 C-3.8191672e-14,9.25866566 0.495751803,8.02110646 1.3928738,7.09139268 C2.29297627,6.16167891 3.48715196,5.64791681 4.75583944,5.64791681 Z M4.75583944,6.46643558 C2.56916666,6.46643558 0.790818507,8.3093898 0.790818507,10.5744732 C0.790818507,12.838527 2.56916666,14.6835404 4.75583944,14.6835404 C5.82483531,14.6835404 6.83223476,14.2418491 7.57536572,13.4634841 C8.08204592,14.2243462 8.91260405,14.6835404 9.82164794,14.6835404 C11.3267862,14.6835404 12.5507666,13.4150937 12.5507666,11.8552749 C12.5507666,11.0367561 12.2119863,10.3016336 11.6735144,9.78375317 C11.4827642,9.60151692 11.2681702,9.448109 11.0346999,9.32558858 C10.6700889,9.13717482 10.2577903,9.02906857 9.82164794,9.02906857 C9.3715967,9.02906857 8.93545433,9.14129316 8.54401904,9.35647608 C8.20623224,8.23114146 7.41442025,7.32922644 6.41099475,6.84841101 C6.17851796,6.73618642 5.93312578,6.6445535 5.67978568,6.5827785 C5.38173851,6.50658933 5.07375643,6.46643558 4.75583944,6.46643558 Z M9.02188802,0.540919344 C9.28615651,0.447227258 9.58619067,0.517238927 9.78886275,0.722126016 C10.0094177,0.944516022 10.0720076,1.2863377 9.94285379,1.57462104 C9.53651614,2.47550648 9.48982208,3.48655734 9.80773907,4.42141904 C10.4862931,6.41778117 12.6292523,7.48237037 14.5874223,6.79151993 C14.7086281,6.74930702 14.8308275,6.69988702 14.9440854,6.64428951 C14.9699162,6.63605285 14.9927664,6.62472743 15.0156167,6.61649076 C15.2828657,6.52279868 15.5779324,6.59178076 15.7806045,6.79666785 C16.0021529,7.02111702 16.0617623,7.36087953 15.9326085,7.64916287 C15.5093815,8.59226123 14.6877648,9.46843668 13.8572067,10.0151454 C13.7548772,9.78040043 13.669437,9.54050751 13.5214069,9.33973876 C14.2406941,8.85995291 14.9113002,8.1052683 15.2580284,7.33308078 C15.1199332,7.39691495 14.9798511,7.45663079 14.8308275,7.50810995 C12.4822157,8.33486539 9.92000351,7.06332994 9.10434773,4.66851904 C8.7069515,3.50611943 8.8023266,2.29327023 9.26529321,1.25853895 C7.75518752,1.97204022 6.79944957,3.46390651 6.6911591,5.09064822 C6.68619165,5.08858905 6.68321118,5.08755947 6.67824372,5.08652989 C6.44278645,5.00416322 6.20136824,4.95062488 5.96094352,4.90532322 C6.12685645,3.06957608 7.2087677,1.39444395 8.95433066,0.570777261 C8.97519396,0.560481428 8.99705075,0.551215178 9.02188802,0.540919344 Z" id="path-1"></path>
    </defs>
    <g id="Icons/16px/Weather/Mostly-cloudy-night" stroke="none" stroke-width="1" fill="none" fill-rule="evenodd">
        <mask id="mask-2" fill="white">
            <use xlink:href="#path-1"></use>
        </mask>
        <use id="Mask" fill="#0C2340" fill-rule="nonzero" xlink:href="#path-1"></use>
        <g id="Group" mask="url(#mask-2)" fill="#333333">
            <g id="Color/Grayscale/80%">
                <rect id="Rectangle" x="0" y="0" width="16" height="16"></rect>
            </g>
        </g>
    </g>
</svg>