<?xml version="1.0" encoding="UTF-8"?>
<svg width="16px" height="16px" viewBox="0 0 16 16" version="1.1" xmlns="http://www.w3.org/2000/svg" xmlns:xlink="http://www.w3.org/1999/xlink">
    <title>Icons/16px/Weather/Mostly cloudy</title>
    <defs>
        <path d="M5.05095897,4.95256917 C5.58028676,4.95256917 6.09670412,5.03458498 6.58928682,5.18972332 C6.87133015,5.27865613 7.14344237,5.39229249 7.4066166,5.52964427 C7.84954379,5.76284585 8.25969834,6.06225296 8.62317671,6.42391304 C8.94792378,6.74604743 9.22202222,7.10573123 9.44547204,7.49505929 L9.44547204,7.49505929 L9.54279685,7.66501976 L9.73943269,7.6284585 C9.96685494,7.58695652 10.201229,7.56521739 10.4306375,7.56521739 C10.9530135,7.56521739 11.4495686,7.6729249 11.9014338,7.86660079 C12.1755322,7.98221344 12.4277823,8.13438735 12.6641425,8.30731225 C13.5748247,8.98616601 14.1696977,10.0652174 14.1696977,11.2826087 C14.1696977,13.3320158 12.4933275,15 10.4306375,15 C9.5864937,15 8.78902613,14.7252964 8.12562845,14.2045455 L8.12562845,14.2045455 L7.96871703,14.083004 L7.80286761,14.1897233 C6.98752405,14.7203557 6.03413817,15 5.05095897,15 C3.7033083,15 2.43411334,14.4762846 1.47874123,13.5286561 C0.525355347,12.5790514 -1.20348176e-12,11.3181818 -1.20348176e-12,9.97628458 C-1.20348176e-12,8.63438735 0.525355347,7.37252964 1.47874123,6.42391304 C2.43411334,5.47628458 3.7033083,4.95256917 5.05095897,4.95256917 Z M5.05095897,5.78754941 C2.7290671,5.78754941 0.840171312,7.66600791 0.840171312,9.97628458 C0.840171312,12.2855731 2.7290671,14.1660079 5.05095897,14.1660079 C6.18608404,14.1660079 7.25665694,13.715415 8.04617963,12.9229249 C8.5834523,13.6986166 9.46533424,14.1660079 10.4306375,14.1660079 C12.0285519,14.1660079 13.3315126,12.8725296 13.3315126,11.2826087 C13.3315126,10.4476285 12.9710136,9.69762846 12.397989,9.16996047 C12.1963876,8.98418972 11.9689653,8.8270751 11.7187015,8.70256917 C11.3303954,8.51086957 10.8954131,8.39920949 10.4306375,8.39920949 C9.9529514,8.39920949 9.49115511,8.51482213 9.0750419,8.73320158 C8.71553597,7.58695652 7.87536466,6.66699605 6.80975731,6.17588933 C6.56147973,6.06126482 6.30227795,5.96936759 6.03314506,5.90513834 C5.71634287,5.82806324 5.38762336,5.78754941 5.05095897,5.78754941 Z M15.6325492,7.05088933 C15.8351437,7.05088933 16,7.21788538 16,7.42341897 C16,7.62796443 15.8351437,7.79496047 15.6325492,7.79496047 L15.6325492,7.79496047 L14.2700019,7.79496047 C14.0664143,7.79496047 13.9035442,7.62796443 13.9035442,7.42341897 C13.9035442,7.21788538 14.0664143,7.05088933 14.2700019,7.05088933 L14.2700019,7.05088933 Z M9.75135001,3.96442688 C11.6144249,3.96442688 13.1348768,5.39229249 13.3046987,7.20355731 C13.1507666,7.11462451 12.9948482,7.03656126 12.8379368,6.96936759 C12.7028738,6.91106719 12.5658246,6.86166008 12.4267892,6.81719368 C12.1070076,5.64031621 11.0344485,4.76581028 9.75135001,4.76581028 C9.42858916,4.76581028 9.11575942,4.82213439 8.82378499,4.92490119 C8.68177022,4.83498024 8.54670722,4.73814229 8.39972689,4.66007905 C8.25473279,4.58498024 8.09682825,4.53557312 7.94488238,4.47134387 C8.4871206,4.1541502 9.10483521,3.96442688 9.75135001,3.96442688 Z M5.06983971,3.08289593 C5.2138407,2.93862715 5.44821473,2.94159158 5.59420194,3.0868485 L5.59420194,3.0868485 L6.58731224,4.0730145 C6.73131323,4.21629514 6.73627879,4.44850857 6.59128468,4.59178921 C6.4482768,4.7340817 6.21290966,4.7340817 6.06890867,4.58882478 L6.06890867,4.58882478 L5.07579837,3.60265877 C4.92981115,3.45839 4.92981115,3.22321213 5.06983971,3.08289593 Z M14.059836,3.07613294 C14.2117819,2.93680488 14.4471491,2.94471001 14.5822121,3.09095507 C14.7222406,3.2411527 14.7113164,3.472378 14.5583774,3.6126942 L14.5583774,3.6126942 L13.528522,4.5613108 C13.3785624,4.69965073 13.1461746,4.69273373 13.006146,4.54352424 C12.8700899,4.39826733 12.880021,4.16210132 13.0299807,4.0237614 L13.0299807,4.0237614 Z M9.35146943,1.00125993 C9.55307082,0.984461507 9.72885134,1.13762356 9.74573422,1.34216902 L9.74573422,1.34216902 L9.85596946,2.73347336 C9.87285234,2.93703068 9.72388579,3.11588443 9.52029818,3.13169471 C9.32068301,3.14849313 9.13993694,2.99434293 9.12504028,2.79078562 L9.12504028,2.79078562 L9.01281882,1.40046941 C8.99792216,1.19592396 9.15185426,1.01608206 9.35146943,1.00125993 Z" id="path-1"></path>
    </defs>
    <g id="Icons/16px/Weather/Mostly-cloudy" stroke="none" stroke-width="1" fill="none" fill-rule="evenodd">
        <mask id="mask-2" fill="white">
            <use xlink:href="#path-1"></use>
        </mask>
        <use id="Mask" fill="#0C2340" fill-rule="nonzero" xlink:href="#path-1"></use>
        <g id="Group" mask="url(#mask-2)" fill="#333333">
            <g id="Color/Grayscale/80%">
                <rect id="Rectangle" x="0" y="0" width="16" height="16"></rect>
            </g>
        </g>
    </g>
</svg>