<?xml version="1.0" encoding="UTF-8"?>
<svg width="16px" height="16px" viewBox="0 0 16 16" version="1.1" xmlns="http://www.w3.org/2000/svg" xmlns:xlink="http://www.w3.org/1999/xlink">
    <title>Icons/16px/Digital/Mouse</title>
    <defs>
        <path d="M8.4,6.016 C8.4,6.24 8.216,6.416 8,6.416 C7.776,6.416 7.6,6.24 7.6,6.016 L7.6,4.04 C7.6,3.824 7.776,3.64 8,3.64 C8.216,3.64 8.4,3.824 8.4,4.04 L8.4,6.016 Z M3,5 L3,11 C3,13.76 5.24,16 8,16 C10.76,16 13,13.76 13,11 L13,5 C13,2.24 10.76,0 8,0 C5.24,0 3,2.24 3,5 Z" id="path-1"></path>
    </defs>
    <g id="Icons/16px/Digital/Mouse" stroke="none" stroke-width="1" fill="none" fill-rule="evenodd">
        <mask id="mask-2" fill="white">
            <use xlink:href="#path-1"></use>
        </mask>
        <use id="Mask" fill="#0C2340" fill-rule="nonzero" xlink:href="#path-1"></use>
        <g id="Group" mask="url(#mask-2)" fill="#333333">
            <g id="Color/Grayscale/80%">
                <rect id="Rectangle" x="0" y="0" width="16" height="16"></rect>
            </g>
        </g>
    </g>
</svg>