<?xml version="1.0" encoding="UTF-8"?>
<svg width="16px" height="15px" viewBox="0 0 16 15" version="1.1" xmlns="http://www.w3.org/2000/svg" xmlns:xlink="http://www.w3.org/1999/xlink">
    <title>Icons/16px/Travel &amp; Airport/Movies</title>
    <defs>
        <path d="M15.5072,0 C15.7496889,0 15.9504593,0.177633595 15.9920812,0.412899422 L16,0.503591241 L16,13.4964088 C16,13.7442076 15.8261728,13.9493744 15.5959484,13.9919078 L15.5072,14 L0.4872,14 C0.244,14 0.0482074074,13.8223664 0.00770041152,13.5871006 L0,13.4964088 L0,0.503591241 C0,0.255792376 0.16877037,0.0506255745 0.398432922,0.00809219709 L0.4872,0 L15.5072,0 Z M15.02,10.7985985 L12.8664,10.7985985 L12.8664,12.9985401 L15.02,12.9985401 L15.02,10.7985985 Z M3.1272,10.7985985 L0.9736,10.7985985 L0.9736,12.9985401 L3.1272,12.9985401 L3.1272,10.7985985 Z M15.02,7.50072993 L12.8664,7.50072993 L12.8664,9.79632117 L15.02,9.79632117 L15.02,7.50072993 Z M3.1272,7.50072993 L0.9736,7.50072993 L0.9736,9.79632117 L3.1272,9.79632117 L3.1272,7.50072993 Z M7.9936,4.44157664 C7.7,4.44157664 7.4264,4.4889927 7.1664,4.58464234 C6.38,4.87077372 5.7672,5.55258394 5.5664,6.39054015 C5.52,6.58756204 5.4936,6.79194161 5.4936,6.99632117 C5.4936,7.20070073 5.52,7.41243796 5.5664,7.60291971 C5.8264,8.7270073 6.82,9.55842336 7.9936,9.55842336 C8.92,9.55842336 9.7336,9.04011679 10.1664,8.27737226 C10.38,7.90213139 10.5,7.46639416 10.5,6.99632117 C10.5,6.53278832 10.38,6.09705109 10.1664,5.72262774 C9.8736,5.19778102 9.3936,4.7890219 8.8264,4.58464234 C8.5664,4.4889927 8.2864,4.44157664 7.9936,4.44157664 Z M7.73333333,5.73393853 L9.06666667,6.73393853 C9.24444444,6.86727186 9.24444444,7.13393853 9.06666667,7.26727186 L7.73333333,8.26727186 C7.51358792,8.43208092 7.2,8.27528697 7.2,8.00060519 L7.2,6.00060519 C7.2,5.72592342 7.51358792,5.56912946 7.73333333,5.73393853 Z M15.02,4.20286131 L12.8664,4.20286131 L12.8664,6.49927007 L15.02,6.49927007 L15.02,4.20286131 Z M3.1272,4.20286131 L0.9736,4.20286131 L0.9736,6.49927007 L3.1272,6.49927007 L3.1272,4.20286131 Z M15.02,1.00145985 L12.8664,1.00145985 L12.8664,3.20221898 L15.02,3.20221898 L15.02,1.00145985 Z M3.1272,1.00145985 L0.9736,1.00145985 L0.9736,3.20221898 L3.1272,3.20221898 L3.1272,1.00145985 Z" id="path-1"></path>
    </defs>
    <g id="Icons" stroke="none" stroke-width="1" fill="none" fill-rule="evenodd">
        <g transform="translate(-631.000000, -1201.000000)" id="Icons/16px/Travel-&amp;-Airport/Movies">
            <g transform="translate(631.000000, 1201.833333)">
                <mask id="mask-2" fill="white">
                    <use xlink:href="#path-1"></use>
                </mask>
                <use id="Shape" fill="#0C2340" fill-rule="nonzero" xlink:href="#path-1"></use>
                <g id="Color/Grayscale/80%" mask="url(#mask-2)" fill="#333333">
                    <g transform="translate(0.000000, -0.833333)" id="Rectangle">
                        <rect x="0" y="0" width="16" height="16"></rect>
                    </g>
                </g>
            </g>
        </g>
    </g>
</svg>