<?xml version="1.0" encoding="UTF-8"?>
<svg width="16px" height="16px" viewBox="0 0 16 16" version="1.1" xmlns="http://www.w3.org/2000/svg" xmlns:xlink="http://www.w3.org/1999/xlink">
    <title>Icons/16px/Travel &amp; Airport/Music</title>
    <defs>
        <path d="M15.536,0.506361232 L6.136,1.92467841 C5.944,1.95585022 5.8,2.1195022 5.8,2.31432599 L5.8,10.2163789 C5.192,9.52280617 4.304,9.07081498 3.296,9.07081498 C1.48,9.07081498 0,10.512511 0,12.289304 C0,14.058304 1.48,15.5 3.296,15.5 C5.12,15.5 6.6,14.058304 6.6,12.289304 L6.6,2.64162995 L15.2,1.34020705 L15.2,8.54089427 C14.592,7.85511454 13.704,7.40312335 12.696,7.40312335 C10.88,7.40312335 9.4,8.84481938 9.4,10.6216123 C9.4,12.3906123 10.88,13.8323084 12.696,13.8323084 C14.52,13.8323084 16,12.3906123 16,10.6216123 L16,0.888215858 C16,0.594567995 15.8601074,0.469210066 15.536,0.506361232 Z" id="path-1"></path>
    </defs>
    <g id="Icons/16px/Travel-&amp;-Airport/Music" stroke="none" stroke-width="1" fill="none" fill-rule="evenodd">
        <mask id="mask-2" fill="white">
            <use xlink:href="#path-1"></use>
        </mask>
        <use id="Mask" fill="#0C2340" fill-rule="nonzero" xlink:href="#path-1"></use>
        <g id="Group" mask="url(#mask-2)" fill="#333333">
            <g id="Color/Grayscale/80%">
                <rect id="Rectangle" x="0" y="0" width="16" height="16"></rect>
            </g>
        </g>
    </g>
</svg>