<?xml version="1.0" encoding="UTF-8"?>
<svg width="16px" height="16px" viewBox="0 0 16 16" version="1.1" xmlns="http://www.w3.org/2000/svg" xmlns:xlink="http://www.w3.org/1999/xlink">
    <title>Icons/16px/Travel &amp; Airport/My trips</title>
    <defs>
        <path d="M11.2668034,3.72233861 L11.2668034,16 L4.73360992,16 L4.73360992,3.72233861 L11.2668034,3.72233861 Z M3.90685467,3.72233861 L3.90685467,16 L1.79966623,16 C0.806832449,16 0,15.2191961 0,14.2575913 L0,14.2575913 L0,5.46474732 C0,5.17434587 0.0735738606,4.90954455 0.193441386,4.67114336 C0.493523537,4.10954055 1.10030122,3.72233861 1.79966623,3.72233861 L1.79966623,3.72233861 L3.90685467,3.72233861 Z M14.1995071,3.72233861 C14.9005255,3.72233861 15.5064765,4.10954055 15.8065586,4.67114336 C15.9264261,4.90954455 16,5.17434587 16,5.46474732 L16,5.46474732 L16,14.2575913 C16,15.2191961 15.1931676,16 14.1995071,16 L14.1995071,16 L12.0931453,16 L12.0931453,3.72233861 Z M8.00004133,0 C9.83360114,0 11.3530254,1.19360597 11.6134272,2.75521378 L11.6134272,2.75521378 L10.5999266,2.75521378 C10.3403514,1.73520868 9.2739438,0.967204836 8.00004133,0.967204836 C6.72696554,0.967204836 5.65973123,1.73520868 5.40015603,2.75521378 L5.40015603,2.75521378 L4.38665544,2.75521378 C4.64623063,1.19360597 6.16648153,0 8.00004133,0 Z" id="path-1"></path>
    </defs>
    <g id="Icons/16px/Travel-&amp;-Airport/My-trips" stroke="none" stroke-width="1" fill="none" fill-rule="evenodd">
        <mask id="mask-2" fill="white">
            <use xlink:href="#path-1"></use>
        </mask>
        <use id="Mask" fill="#0C2340" fill-rule="nonzero" xlink:href="#path-1"></use>
        <g id="Group" mask="url(#mask-2)" fill="#333333">
            <g id="Color/Grayscale/80%">
                <rect id="Rectangle" x="0" y="0" width="16" height="16"></rect>
            </g>
        </g>
    </g>
</svg>