<?xml version="1.0" encoding="UTF-8"?>
<svg width="16px" height="16px" viewBox="0 0 16 16" version="1.1" xmlns="http://www.w3.org/2000/svg" xmlns:xlink="http://www.w3.org/1999/xlink">
    <title>Icons/16px/Digital/Documents/Notes</title>
    <defs>
        <path d="M8.66666667,0 L8.66666667,4 C8.66666667,4.5 9.16666667,5 9.66666667,5 L9.66666667,5 L12.6666667,5 L12.6666667,15 C12.6666667,15.5 12.1666667,16 11.6666667,16 L11.6666667,16 L1.66666667,16 C1.16666667,16 0.666666667,15.5 0.666666667,15 L0.666666667,15 L0.666666667,1 C0.666666667,0.5 1.16666667,0 1.66666667,0 L1.66666667,0 L8.66666667,0 Z M6.16666667,11 L2.16666667,11 C1.91666667,11 1.66666667,11.25 1.66666667,11.5 C1.66666667,11.75 1.91666667,12 2.16666667,12 L2.16666667,12 L6.16666667,12 C6.41666667,12 6.66666667,11.75 6.66666667,11.5 C6.66666667,11.25 6.41666667,11 6.16666667,11 L6.16666667,11 Z M11.1666667,9 L2.16666667,9 C1.91666667,9 1.66666667,9.25 1.66666667,9.5 C1.66666667,9.75 1.91666667,10 2.16666667,10 L2.16666667,10 L11.1666667,10 C11.4166667,10 11.6666667,9.75 11.6666667,9.5 C11.6666667,9.25 11.4166667,9 11.1666667,9 L11.1666667,9 Z M11.1666667,7 L2.16666667,7 C1.91666667,7 1.66666667,7.25 1.66666667,7.5 C1.66666667,7.75 1.91666667,8 2.16666667,8 L2.16666667,8 L11.1666667,8 C11.4166667,8 11.6666667,7.75 11.6666667,7.5 C11.6666667,7.25 11.4166667,7 11.1666667,7 L11.1666667,7 Z M9.66666667,1 L12.6666667,4 L9.66666667,4 L9.66666667,1 Z" id="path-1"></path>
    </defs>
    <g id="Icons/16px/Digital/Documents/Notes" stroke="none" stroke-width="1" fill="none" fill-rule="evenodd">
        <g id="Group" transform="translate(1.333333, 0.000000)">
            <mask id="mask-2" fill="white">
                <use xlink:href="#path-1"></use>
            </mask>
            <use id="Mask" fill="#0C2340" fill-rule="nonzero" xlink:href="#path-1"></use>
            <g mask="url(#mask-2)" id="Color/Grayscale/80%">
                <g transform="translate(-1.333333, 0.000000)">
                    <rect id="Rectangle" fill="#333333" x="0" y="0" width="16" height="16"></rect>
                </g>
            </g>
        </g>
    </g>
</svg>