<?xml version="1.0" encoding="UTF-8"?>
<svg width="16px" height="16px" viewBox="0 0 16 16" version="1.1" xmlns="http://www.w3.org/2000/svg" xmlns:xlink="http://www.w3.org/1999/xlink">
    <title>Icons/16px/Travel &amp; Airport/On-demand</title>
    <defs>
        <path d="M8,5.33333333 C9.28866442,5.33333333 10.3333333,6.37800225 10.3333333,7.66666667 C10.3333333,8.95533108 9.28866442,10 8,10 C6.71133558,10 5.66666667,8.95533108 5.66666667,7.66666667 C5.66666667,6.37800225 6.71133558,5.33333333 8,5.33333333 Z M7.73333333,6.40060519 C7.51358792,6.23579613 7.2,6.39259009 7.2,6.66727186 L7.2,6.66727186 L7.2,8.66727186 C7.2,8.94195363 7.51358792,9.09874759 7.73333333,8.93393853 L7.73333333,8.93393853 L9.06666667,7.93393853 C9.24444444,7.80060519 9.24444444,7.53393853 9.06666667,7.40060519 L9.06666667,7.40060519 Z M5.71960681,13.2919531 L3.50432209,13.2919531 C3.2747133,13.2919531 3.09390639,13.1010918 3.09390639,12.8770724 C3.09390639,12.6449656 3.2747133,12.4621917 3.50432209,12.4621917 L5.71960681,12.4621917 C5.94121529,12.4621917 6.13002251,12.6449656 6.13002251,12.8770724 C6.13002251,13.1010918 5.94121529,13.2919531 5.71960681,13.2919531 Z M12.5382676,13.2919531 L10.3221828,13.2919531 C10.1013744,13.2919531 9.91256718,13.1010918 9.91256718,12.8770724 C9.91256718,12.6449656 10.1013744,12.4621917 10.3221828,12.4621917 L12.5382676,12.4621917 C12.7678764,12.4621917 12.9486833,12.6449656 12.9486833,12.8770724 C12.9486833,13.1010918 12.7678764,13.2919531 12.5382676,13.2919531 Z M2.46268225,5.17145168 C2.46268225,4.40072786 3.07790578,3.77881116 3.84113497,3.77881116 L12.2014547,3.77881116 C12.9646839,3.77881116 13.5799074,4.40072786 13.5799074,5.17145168 L13.5799074,9.9987869 C13.5799074,10.7703195 12.9646839,11.3922362 12.2014547,11.3922362 L3.84113497,11.3922362 C3.07790578,11.3922362 2.46268225,10.7703195 2.46268225,9.9987869 L2.46268225,5.17145168 Z M15.6151853,5.62838658 C15.6151853,3.07278609 13.5639068,1 11.0446105,1 L4.95637762,1 C3.73393087,1 2.58588696,1.48119693 1.72345397,2.36029114 C0.853820713,3.23129802 0.378602537,4.38374444 0.378602537,5.59522847 L0.00098809501,14.5689446 C-0.00701221097,14.6854023 0.0337893495,14.792964 0.115392471,14.8762636 C0.189795316,14.9587545 0.296199386,15 0.411403792,15 L15.5903843,15 C15.6967884,15 15.8039925,14.9587545 15.8855956,14.8762636 C15.9591984,14.792964 16,14.6854023 16,14.5689446 L15.6151853,5.62838658 Z" id="path-1"></path>
    </defs>
    <g id="Icons/16px/Travel-&amp;-Airport/On-demand" stroke="none" stroke-width="1" fill="none" fill-rule="evenodd">
        <mask id="mask-2" fill="white">
            <use xlink:href="#path-1"></use>
        </mask>
        <use id="Mask" fill="#0C2340" fill-rule="nonzero" xlink:href="#path-1"></use>
        <g id="Group" mask="url(#mask-2)" fill="#333333">
            <g id="Color/Grayscale/80%">
                <rect id="Rectangle" x="0" y="0" width="16" height="16"></rect>
            </g>
        </g>
    </g>
</svg>