<?xml version="1.0" encoding="UTF-8"?>
<svg width="16px" height="16px" viewBox="0 0 16 16" version="1.1" xmlns="http://www.w3.org/2000/svg" xmlns:xlink="http://www.w3.org/1999/xlink">
    <title>Icons/16px/Weather/Partly cloudy night</title>
    <defs>
        <path d="M3.81923398,8.08182851 C4.16369021,8.08182851 4.49908181,8.13233994 4.82440158,8.22427074 C5.45892621,8.40207097 6.04208457,8.74655891 6.520496,9.24157091 C6.76221967,9.49311782 6.9727207,9.77800227 7.14192726,10.0851118 L7.14192726,10.0851118 L7.179193,10.1548175 L7.25573883,10.1396641 C7.42897412,10.1053163 7.60623815,10.0871322 7.78350217,10.0871322 C8.90852442,10.0871322 9.88347655,10.771057 10.3477874,11.75704 C10.4918145,12.0712211 10.5895111,12.4116681 10.6207337,12.7743402 C10.6287912,12.8622301 10.6338271,12.9541609 10.6338271,13.0440712 C10.6338271,14.0674328 10.1302361,14.9685566 9.36880657,15.5019573 C9.12003263,15.6726859 8.84305759,15.8030054 8.5469461,15.8878646 C8.30522243,15.9585806 8.04839103,16 7.78350217,16 C7.13689135,16 6.52956063,15.7807804 6.02294811,15.3675969 L6.02294811,15.3675969 L5.96453156,15.3201162 L5.90007191,15.3615355 C5.28367655,15.7797702 4.56253427,16 3.81923398,16 C2.79996584,16 1.8421358,15.588837 1.11897916,14.8402576 C0.396829691,14.0916782 1.51612056e-12,13.0976133 1.51612056e-12,12.0409143 C1.51612056e-12,10.9842152 0.396829691,9.99015027 1.12099352,9.24157091 C1.83407835,8.50107337 2.78082939,8.08991034 3.79103289,8.08283874 C3.80110471,8.08283874 3.80916217,8.08182851 3.81923398,8.08182851 Z M3.81923398,8.92637959 C2.16241966,8.92637959 0.814810204,10.3235257 0.814810204,12.0409143 C0.814810204,13.759313 2.16241966,15.1564591 3.81923398,15.1564591 C4.6280011,15.1564591 5.38640911,14.8261144 5.95748128,14.2321 L5.95748128,14.2321 L6.0400702,14.1452204 L6.10654421,14.245233 C6.48423745,14.8150019 7.11372617,15.1564591 7.78350217,15.1564591 C8.05644848,15.1564591 8.31529425,15.0988761 8.55399637,14.9988635 C8.75140403,14.9129941 8.93471115,14.797828 9.09485308,14.6574062 C9.53801314,14.2694785 9.82103127,13.6906175 9.82103127,13.0440712 C9.82103127,13.0228564 9.81800973,13.0036621 9.81800973,12.9834575 C9.80793791,12.6106832 9.70319098,12.2621543 9.5289485,11.9631267 C9.17341327,11.345877 8.52478809,10.9306731 7.78350217,10.9306731 C7.45012494,10.9306731 7.12178363,11.0155323 6.82869368,11.1771688 L6.82869368,11.1771688 L6.72293957,11.2347519 L6.68970257,11.1185756 C6.43186398,10.2588711 5.82352608,9.5739361 5.06008216,9.21126405 C4.70555411,9.04255588 4.31879624,8.94456371 3.91693063,8.93042051 C3.88369363,8.92941028 3.85247099,8.92637959 3.81923398,8.92637959 Z M8.46946606,0.00904767662 C8.81492948,-0.040453523 9.1654288,0.116131904 9.36384364,0.406067502 C9.57938058,0.726309957 9.57132313,1.15363664 9.35075028,1.46680749 C8.55910526,2.56997709 8.22874958,3.91661176 8.41809978,5.25920552 C8.82298693,8.1232035 11.474897,10.1234561 14.3292507,9.71734418 C14.5055075,9.69309869 14.6817644,9.65875092 14.8549997,9.61531109 C14.8862223,9.60621904 14.9164378,9.60015767 14.9476604,9.59611675 C15.294131,9.54762578 15.6456375,9.70320098 15.842038,9.99515703 C16.0575749,10.3143893 16.052539,10.7407057 15.8269303,11.055897 C14.845935,12.425767 13.4499808,13.3612386 11.8475544,13.7713914 C11.8727339,13.5865196 11.8868344,13.3986171 11.8868344,13.2086941 C11.8868344,13.1056508 11.8797842,13.0026075 11.8727339,12.9015846 C13.1881135,12.5106262 14.3342866,11.7115354 15.1521184,10.5679566 L15.1521184,10.5679566 L15.2991669,10.3638905 L15.0554289,10.4255144 C14.8549997,10.4750156 14.6485274,10.5144145 14.447091,10.5427009 C11.1364839,11.0134674 8.06357174,8.6960031 7.59422494,5.37639204 C7.37566646,3.82064005 7.75940278,2.25983692 8.673924,0.980887555 L8.673924,0.980887555 L8.8189582,0.776821385 L8.57522017,0.836424871 C5.70575877,1.54661555 3.78606996,4.13684159 3.84952242,7.03518734 L3.84952242,7.03518734 L3.82535006,7.03518734 C3.55441811,7.0372078 3.28751489,7.06650443 3.0246404,7.11196471 C2.92795093,3.80346616 5.10547832,0.837435099 8.37781251,0.0282420193 C8.40702078,0.0201601908 8.43824342,0.0140988194 8.46946606,0.00904767662 Z" id="path-1"></path>
    </defs>
    <g id="Icons/16px/Weather/Partly-cloudy-night" stroke="none" stroke-width="1" fill="none" fill-rule="evenodd">
        <mask id="mask-2" fill="white">
            <use xlink:href="#path-1"></use>
        </mask>
        <use id="Mask" fill="#0C2340" fill-rule="nonzero" xlink:href="#path-1"></use>
        <g id="Group" mask="url(#mask-2)" fill="#333333">
            <g id="Color/Grayscale/80%">
                <rect id="Rectangle" x="0" y="0" width="16" height="16"></rect>
            </g>
        </g>
    </g>
</svg>