<?xml version="1.0" encoding="UTF-8"?>
<svg width="16px" height="16px" viewBox="0 0 16 16" version="1.1" xmlns="http://www.w3.org/2000/svg" xmlns:xlink="http://www.w3.org/1999/xlink">
    <title>Icons/16px/Weather/Partly cloudy</title>
    <defs>
        <path d="M3.91413653,8.07927791 C4.26687295,8.07927791 4.61135822,8.12876349 4.94243538,8.22066528 C5.59427577,8.3994193 6.19145233,8.74379852 6.68239541,9.23966421 C6.93096113,9.49113173 7.14652227,9.77491637 7.31876491,10.0829388 L7.31876491,10.0829388 L7.35795784,10.1526226 L7.43428093,10.137474 C7.61168053,10.1021271 7.79423709,10.0839487 7.97679366,10.0839487 C9.13092245,10.0839487 10.1282795,10.7696775 10.6037517,11.7553494 C10.7533037,12.0694313 10.8533488,12.4107808 10.885322,12.7733384 C10.8935731,12.8612005 10.8987301,12.9531023 10.8987301,13.0429843 C10.8987301,14.0670328 10.3809708,14.9678722 9.59917489,15.5021145 C9.34648359,15.6727892 9.06181912,15.8030676 8.76065236,15.8889099 C8.51105524,15.9596036 8.24805002,16 7.97679366,16 C7.31360794,16 6.69064655,15.7808496 6.17185586,15.3677965 L6.17185586,15.3677965 L6.11203507,15.3203307 L6.04602591,15.361737 C5.41481338,15.7798397 4.67633598,16 3.91413653,16 C2.87036679,16 1.88744924,15.5889667 1.14690904,14.8406236 C0.407400245,14.0912706 -1.51345603e-12,13.0965095 -1.51345603e-12,12.039134 C-1.51345603e-12,10.9827684 0.407400245,9.98699741 1.14690904,9.23966421 C1.87919809,8.49839046 2.84973893,8.08634728 3.88525753,8.08028782 C3.89454006,8.08028782 3.90279121,8.07927791 3.91413653,8.07927791 Z M3.91413653,8.92356246 C2.21543222,8.92356246 0.834396957,10.3212775 0.834396957,12.039134 C0.834396957,13.7580004 2.21543222,15.1557155 3.91413653,15.1557155 C4.74234513,15.1557155 5.52104686,14.8264849 6.10481532,14.231648 L6.10481532,14.231648 L6.19042094,14.1447958 L6.25746148,14.2447769 C6.64526526,14.8153759 7.28885451,15.1557155 7.97679366,15.1557155 C8.25630117,15.1557155 8.52136917,15.0991605 8.76684071,14.9981695 C8.97002514,14.9133371 9.15670728,14.7982074 9.31966738,14.65783 C9.77554309,14.2690147 10.0633017,13.6903364 10.0633017,13.0429843 L10.0633017,13.0429843 L10.061239,12.9823897 C10.050925,12.6087231 9.94469155,12.2613141 9.76522916,11.961371 C9.40114742,11.3443161 8.73693032,10.9282333 7.97679366,10.9282333 C7.63540257,10.9282333 7.29710565,11.0140756 6.99903307,11.1756612 L6.99903307,11.1756612 L6.8907368,11.233226 L6.85670083,11.1160765 C6.59060143,10.2566433 5.96764004,9.57192451 5.18584413,9.20936691 C4.82279379,9.03970208 4.42570747,8.94174083 4.01418165,8.9276021 C3.98014568,8.92558228 3.9481725,8.92356246 3.91413653,8.92356246 Z M12.4788242,12.2211702 C12.6108425,12.0848324 12.8315606,12.0848324 12.9656417,12.2211702 L12.9656417,12.2211702 L14.3116096,13.5835385 C14.4467221,13.7198763 14.4467221,13.9410465 14.3116096,14.0763744 C14.1775285,14.2117023 13.9568104,14.2127122 13.8227293,14.0773843 L13.8227293,14.0773843 L12.4788242,12.7150161 C12.3426803,12.5786783 12.3426803,12.3564981 12.4788242,12.2211702 Z M8.34293818,3.02972922 C10.7574293,3.02972922 12.7129504,5.01016222 12.7129504,7.45313388 C12.7129504,8.6165499 12.2560433,9.66180648 11.530974,10.4485262 C11.3886418,10.1849397 11.2225875,9.93751183 11.0286856,9.7163416 C11.5392252,9.10029666 11.8558628,8.31963643 11.8558628,7.45313388 C11.8558628,5.48885943 10.2829885,3.89724168 8.34293818,3.89724168 C6.74737317,3.89724168 5.41790756,4.98087483 4.98884806,6.45635296 C4.70934055,6.39878811 4.4215819,6.36041154 4.1255721,6.35334217 C4.61032682,4.44562267 6.30696835,3.02972922 8.34293818,3.02972922 Z M1.65951138,7.22539923 C1.30883775,7.41526226 0.978791981,7.64350186 0.680719397,7.92324686 L0.680719397,7.92324686 L0.34448527,7.92324686 C0.153677561,7.92324686 -1.08657527e-12,7.76671085 -1.08657527e-12,7.574828 C-1.08657527e-12,7.38092533 0.153677561,7.22539923 0.34448527,7.22539923 L0.34448527,7.22539923 Z M15.6565461,7.22539923 C15.8473538,7.22539923 16,7.38092533 16,7.574828 C16,7.76671085 15.8473538,7.92324686 15.6565461,7.92324686 L15.6565461,7.92324686 L13.7515632,7.92324686 C13.5617869,7.92324686 13.4081093,7.76671085 13.4081093,7.574828 C13.4081093,7.38092533 13.5617869,7.22539923 13.7515632,7.22539923 L13.7515632,7.22539923 Z M13.8227293,2.12207284 C13.9568104,1.98573502 14.1775285,1.98573502 14.3116096,2.12207284 C14.4467221,2.25841065 14.4467221,2.4805908 14.3116096,2.6159187 L14.3116096,2.6159187 L12.9656417,3.97828694 C12.8315606,4.11462476 12.6108425,4.11462476 12.4788242,3.97828694 C12.3426803,3.84194913 12.3426803,3.62077889 12.4788242,3.48545099 L12.4788242,3.48545099 Z M2.16334687,2.12207284 C2.29845936,1.98573502 2.51814607,1.98573502 2.65222716,2.12207284 L2.65222716,2.12207284 L3.99819506,3.48545099 C4.13227616,3.62077889 4.13227616,3.84194913 3.99819506,3.97828694 C3.86411397,4.11462476 3.64442725,4.11563467 3.50931477,3.97828694 L3.50931477,3.97828694 L2.16334687,2.6159187 C2.02926578,2.4805908 2.02926578,2.25841065 2.16334687,2.12207284 Z M7.73493199,-5.68434189e-14 C7.9257397,-5.68434189e-14 8.07941726,0.15653601 8.07941726,0.34942877 L8.07941726,0.34942877 L8.07941726,2.27431673 C8.07941726,2.4682194 7.9257397,2.62475541 7.73493199,2.62475541 C7.54412428,2.62475541 7.39147812,2.4682194 7.39147812,2.27431673 L7.39147812,2.27431673 L7.39147812,0.34942877 C7.39147812,0.15653601 7.54412428,-5.68434189e-14 7.73493199,-5.68434189e-14 Z" id="path-1"></path>
    </defs>
    <g id="Icons/16px/Weather/Partly-cloudy" stroke="none" stroke-width="1" fill="none" fill-rule="evenodd">
        <mask id="mask-2" fill="white">
            <use xlink:href="#path-1"></use>
        </mask>
        <use id="Mask" fill="#0C2340" fill-rule="nonzero" xlink:href="#path-1"></use>
        <g id="Group" mask="url(#mask-2)" fill="#333333">
            <g id="Color/Grayscale/80%">
                <rect id="Rectangle" x="0" y="0" width="16" height="16"></rect>
            </g>
        </g>
    </g>
</svg>