<?xml version="1.0" encoding="UTF-8"?>
<svg width="16px" height="16px" viewBox="0 0 16 16" version="1.1" xmlns="http://www.w3.org/2000/svg" xmlns:xlink="http://www.w3.org/1999/xlink">
    <title>Icons/16px/Travel &amp; Airport/Personal device</title>
    <defs>
        <path d="M9.06666667,8.25772644 L7.73333333,9.22201215 C7.51358792,9.38093518 7.2,9.229741 7.2,8.96486929 L7.2,7.03629787 C7.2,6.77142616 7.51358792,6.62023198 7.73333333,6.77915501 L9.06666667,7.74344072 C9.24444444,7.87201215 9.24444444,8.12915501 9.06666667,8.25772644 Z M1.568,7.01861827 L1.568,8.30095915 C1.568,8.43388473 1.456,8.54335285 1.32,8.54335285 C1.192,8.54335285 1.08,8.43388473 1.08,8.30095915 L1.08,7.01861827 C1.08,6.88569269 1.192,6.78404372 1.32,6.78404372 C1.456,6.78404372 1.568,6.88569269 1.568,7.01861827 M1.568,8.98122535 C1.568,9.11415093 1.456,9.2157999 1.32,9.2157999 C1.192,9.2157999 1.08,9.11415093 1.08,8.98122535 C1.08,8.84829977 1.192,8.73883164 1.32,8.73883164 C1.456,8.73883164 1.568,8.84829977 1.568,8.98122535 M0,10.8734601 C0,11.7726625 0.752,12.4998436 1.672,12.4998436 L2.648,12.4998436 L2.648,3.5 L1.672,3.5 C0.752,3.5 0,4.22718111 0,5.12638356 L0,10.8734601 Z M14.016,8.00398777 C14.016,7.64430679 14.312,7.35499818 14.68,7.35499818 C15.048,7.35499818 15.344,7.64430679 15.344,8.00398777 C15.344,8.35584959 15.048,8.64515821 14.68,8.64515821 C14.312,8.64515821 14.016,8.35584959 14.016,8.00398777 L14.016,8.00398777 Z M13.36,12.5 L14.336,12.5 C15.256,12.5 16,11.7728189 16,10.8736164 L16,5.12653994 C16,4.22733749 15.256,3.50015638 14.336,3.50015638 L13.36,3.50015638 L13.36,12.5 Z M9.26408,5.85372105 C10.02408,6.28377439 10.53608,7.08914702 10.53608,8.00398777 C10.53608,9.16904137 9.71208,10.1464353 8.60008,10.4044673 C8.40808,10.4513823 8.20008,10.4748397 8.00008,10.4748397 C7.79208,10.4748397 7.59208,10.4513823 7.40008,10.4044673 C6.56808,10.2089885 5.89608,9.59909472 5.61608,8.8249987 C5.52008,8.56696669 5.47208,8.29329638 5.47208,8.00398777 C5.47208,7.71467915 5.52008,7.44100884 5.61608,7.18297684 C5.81608,6.61999791 6.21608,6.14302966 6.73608,5.85372105 C7.11208,5.64260395 7.54408,5.52531668 8.00008,5.52531668 C8.46408,5.52531668 8.89608,5.64260395 9.26408,5.85372105 L9.26408,5.85372105 Z M3.44808,12.5 L12.56008,12.5 L12.56008,3.50015638 L3.44808,3.50015638 L3.44808,12.5 Z" id="path-1"></path>
    </defs>
    <g id="Icons/16px/Travel-&amp;-Airport/Personal-device" stroke="none" stroke-width="1" fill="none" fill-rule="evenodd">
        <mask id="mask-2" fill="white">
            <use xlink:href="#path-1"></use>
        </mask>
        <use id="Mask" fill="#0C2340" fill-rule="nonzero" xlink:href="#path-1"></use>
        <g id="Group" mask="url(#mask-2)">
            <g transform="translate(0.000000, 0.000000)" id="Color/Grayscale/80%">
                <rect id="Rectangle" fill="#333333" x="0" y="0" width="16" height="16"></rect>
            </g>
        </g>
    </g>
</svg>