<?xml version="1.0" encoding="UTF-8"?>
<svg width="16px" height="16px" viewBox="0 0 16 16" version="1.1" xmlns="http://www.w3.org/2000/svg" xmlns:xlink="http://www.w3.org/1999/xlink">
    <title>Icons/16px/Travel &amp; Airport/Pet</title>
    <defs>
        <path d="M8.0065406,6.72258004 C9.02118692,6.72258004 9.9212764,7.47956079 10.2567643,8.60680387 C10.2649469,8.62325997 10.2731296,8.64794413 10.2731296,8.66440023 C10.2894948,8.72199659 10.3058601,8.77959295 10.330408,8.83718931 C10.6577132,9.83278356 11.3123238,10.6473607 11.9996648,10.9188864 C12.8670238,11.2644646 13.4234427,12.0296734 13.4234427,12.8689346 C13.4234427,14.045546 12.3433354,15 11.017749,15 L11.017749,15 L4.9789669,15 C3.66156322,15 2.58145584,14.045546 2.58145584,12.8689346 C2.58145584,11.9967611 3.17060532,11.2233243 4.07887743,10.8942022 C4.73348796,10.6062204 5.36355059,9.81632746 5.68267322,8.84541737 L5.68267322,8.84541737 L5.71540375,8.74668075 C6.00997849,7.55361326 6.95098112,6.72258004 8.0065406,6.72258004 Z M11.8638209,6.10516093 C12.5739306,4.71079181 13.8617799,4.04658471 14.7403128,4.62161284 C15.6188458,5.19664097 15.7553798,6.79315288 15.04527,8.187522 C14.3351603,9.58189111 13.047311,10.2460982 12.1687781,9.67107008 C11.2902451,9.09604195 11.1537111,7.49953004 11.8638209,6.10516093 Z M1.25968716,4.62161284 C2.1382201,4.04658471 3.42606942,4.71079181 4.13617914,6.10516093 C4.84628886,7.49953004 4.70975486,9.09604195 3.83122193,9.67107008 C2.95268899,10.2460982 1.66483967,9.58189111 0.954729952,8.187522 C0.244620235,6.79315288 0.38115423,5.19664097 1.25968716,4.62161284 Z M4.89540761,1.04919181 C5.95282233,0.765641778 7.13158829,1.73678216 7.52825507,3.21829456 C7.92492186,4.69980696 7.38927983,6.13067278 6.33186511,6.41422282 C5.2744504,6.69777286 4.09568444,5.72663248 3.69901766,4.24512008 C3.30235087,2.76360767 3.8379929,1.33274185 4.89540761,1.04919181 Z M8.47174493,3.21829456 C8.86841171,1.73678216 10.0471777,0.765641778 11.1045924,1.04919181 C12.1620071,1.33274185 12.6976491,2.76360767 12.3009823,4.24512008 C11.9043156,5.72663248 10.7255496,6.69777286 9.66813489,6.41422282 C8.61072017,6.13067278 8.07507814,4.69980696 8.47174493,3.21829456 Z" id="path-1"></path>
    </defs>
    <g id="Icons/16px/Travel-&amp;-Airport/Pet" stroke="none" stroke-width="1" fill="none" fill-rule="evenodd">
        <mask id="mask-2" fill="white">
            <use xlink:href="#path-1"></use>
        </mask>
        <use id="Combined-Shape" fill="#0C2340" fill-rule="nonzero" xlink:href="#path-1"></use>
        <g id="Group" mask="url(#mask-2)" fill="#333333">
            <g id="Color/Grayscale/80%">
                <rect id="Rectangle" x="0" y="0" width="16" height="16"></rect>
            </g>
        </g>
    </g>
</svg>