<?xml version="1.0" encoding="UTF-8"?>
<svg width="10px" height="16px" viewBox="0 0 10 16" version="1.1" xmlns="http://www.w3.org/2000/svg" xmlns:xlink="http://www.w3.org/1999/xlink">
    <title>Icons/16px/Digital/Phone</title>
    <defs>
        <path d="M5.48138173,1.568 L4.19904085,1.568 C4.06611527,1.568 3.95664715,1.456 3.95664715,1.32 C3.95664715,1.192 4.06611527,1.08 4.19904085,1.08 L5.48138173,1.08 C5.61430731,1.08 5.71595628,1.192 5.71595628,1.32 C5.71595628,1.456 5.61430731,1.568 5.48138173,1.568 Z M3.51877465,1.568 C3.38584907,1.568 3.2842001,1.456 3.2842001,1.32 C3.2842001,1.192 3.38584907,1.08 3.51877465,1.08 C3.65170023,1.08 3.76116836,1.192 3.76116836,1.32 C3.76116836,1.456 3.65170023,1.568 3.51877465,1.568 Z M1.62653994,0 C0.727337492,0 0.000156383034,0.752 0.000156383034,1.672 L0.000156383034,2.648 L9,2.648 L9,1.672 C9,0.752 8.27281889,0 7.37361644,0 L1.62653994,0 Z M4.49601223,14.016 C4.85569321,14.016 5.14500182,14.312 5.14500182,14.68 C5.14500182,15.048 4.85569321,15.344 4.49601223,15.344 C4.14415041,15.344 3.85484179,15.048 3.85484179,14.68 C3.85484179,14.3454545 4.09393982,14.0704132 4.40177119,14.0231705 L4.49601223,14.016 Z M0,13.36 L0,14.336 C0,15.256 0.727181109,16 1.62638356,16 L7.37346006,16 C8.27266251,16 8.99984362,15.256 8.99984362,14.336 L8.99984362,13.36 L0,13.36 Z M0,3.44808 L0,12.56008 L8.99984362,12.56008 L8.99984362,3.44808 L0,3.44808 Z" id="path-1"></path>
    </defs>
    <g id="Icons" stroke="none" stroke-width="1" fill="none" fill-rule="evenodd">
        <g transform="translate(-914.000000, -505.000000)" id="Icons/16px/Digital/Phone">
            <g transform="translate(914.500000, 505.000000)">
                <mask id="mask-2" fill="white">
                    <use xlink:href="#path-1"></use>
                </mask>
                <use id="Shape" fill="#0C2340" fill-rule="nonzero" xlink:href="#path-1"></use>
                <g id="Color/Grayscale/80%" mask="url(#mask-2)" fill="#333333">
                    <g transform="translate(-3.500000, 0.000000)" id="Rectangle">
                        <rect x="0" y="0" width="16" height="16"></rect>
                    </g>
                </g>
            </g>
        </g>
    </g>
</svg>