<?xml version="1.0" encoding="UTF-8"?>
<svg width="16px" height="16px" viewBox="0 0 16 16" version="1.1" xmlns="http://www.w3.org/2000/svg" xmlns:xlink="http://www.w3.org/1999/xlink">
    <title>Icons/16px/Digital/Pin/Pin</title>
    <defs>
        <path d="M8.25514533,0 C8.44952802,0 8.60710634,0.150450384 8.60710634,0.336040338 C8.60710634,0.399020923 8.58856875,0.460733932 8.55360767,0.514141361 L6.66666667,2.66666667 L6.66666667,6 L9.28533152,9.57584881 C9.38327533,9.7361575 9.32656166,9.9064866 9.15865798,10 C9.10483045,10.0299791 9.04363136,10 8.98131503,10 L5.66666667,10 L4.98666667,15.6997311 C4.97333333,15.8842649 4.84006457,15.9980596 4.66666667,15.9980596 C4.49326877,15.9980596 4.33432708,15.8866667 4.31667996,15.6997311 L3.66666667,10 L0.351961011,10 C0.157578312,10 0,9.93075975 0,9.7451698 C0,9.6856723 0.0165451232,9.6272415 0.0479445157,9.57584881 L2.66666667,6 L2.66666667,2.66666667 L0.779668374,0.514141361 C0.676645749,0.356761395 0.726755552,0.14944118 0.891591751,0.0510787013 C0.947529479,0.0176990581 1.01216628,0 1.07813071,0 L8.25514533,0 Z" id="path-1"></path>
    </defs>
    <g id="Icons/16px/Digital/Pin/Pin" stroke="none" stroke-width="1" fill="none" fill-rule="evenodd">
        <g id="Pin" transform="translate(3.333333, 0.000000)">
            <mask id="mask-2" fill="white">
                <use xlink:href="#path-1"></use>
            </mask>
            <use id="Mask" fill="#D8D8D8" xlink:href="#path-1"></use>
            <g id="Group" mask="url(#mask-2)">
                <g transform="translate(-3.333333, 0.000000)" id="Color/Grayscale/80%">
                    <rect id="Rectangle" fill="#333333" x="0" y="0" width="16" height="16"></rect>
                </g>
            </g>
        </g>
    </g>
</svg>