<?xml version="1.0" encoding="UTF-8"?>
<svg width="16px" height="16px" viewBox="0 0 16 16" version="1.1" xmlns="http://www.w3.org/2000/svg" xmlns:xlink="http://www.w3.org/1999/xlink">
    <title>Icons/16px/Digital/Pin/Pinned</title>
    <defs>
        <path d="M14.5938215,6.15360671 C14.7312708,6.29105604 14.736311,6.50886522 14.6050791,6.64009713 C14.5605451,6.68463113 14.5037994,6.71516076 14.4413134,6.7282043 L11.5849794,6.91600076 L9.22795677,9.27302337 L8.55112551,13.653206 C8.50702688,13.8358181 8.34648339,13.9161563 8.16163361,13.8635545 L8.11257658,13.8333405 L8.11257658,13.8333405 L8.0362332,13.738154 L8.0362332,13.738154 L5.69242286,11.3943437 L1.18127176,14.9438296 C1.04135858,15.0648866 0.866658275,15.0511164 0.744047444,14.9285056 C0.621436614,14.8058947 0.58781459,14.6147393 0.70751962,14.4700775 L4.2782093,9.98013015 L1.93435846,7.6362793 C1.79690913,7.49882998 1.73444468,7.33844504 1.8656766,7.20721312 C1.90774769,7.16514204 1.96076367,7.13552439 2.01930651,7.12138699 L6.39952965,6.44459624 L8.75655225,4.08757364 L8.9443082,1.23119911 C8.98274465,1.04706667 9.16477516,0.935902123 9.35088473,0.982906141 C9.41404165,0.998857115 9.47226189,1.03204711 9.51890579,1.07869101 L14.5938215,6.15360671 Z" id="path-1"></path>
    </defs>
    <g id="Icons/16px/Digital/Pin/Pinned" stroke="none" stroke-width="1" fill="none" fill-rule="evenodd">
        <g id="Pin" transform="translate(0.333333, 0.000000)">
            <mask id="mask-2" fill="white">
                <use xlink:href="#path-1"></use>
            </mask>
            <use id="Mask" fill="#D8D8D8" xlink:href="#path-1"></use>
            <g id="Group" mask="url(#mask-2)">
                <g transform="translate(-0.333333, 0.000000)" id="Color/Grayscale/80%">
                    <rect id="Rectangle" fill="#333333" x="0" y="0" width="16" height="16"></rect>
                </g>
            </g>
        </g>
    </g>
</svg>