<?xml version="1.0" encoding="UTF-8"?>
<svg width="16px" height="16px" viewBox="0 0 16 16" version="1.1" xmlns="http://www.w3.org/2000/svg" xmlns:xlink="http://www.w3.org/1999/xlink">
    <title>Icons/16px/Travel &amp; Airport/Plane</title>
    <defs>
        <path d="M3.94084926,16 L4.92166152,16 C5.10646383,16 5.29126614,15.9165696 5.40246753,15.7505189 L9.97292466,9.66739229 L14.9873873,9.14656002 C15.0860552,9.13251995 15.3449918,8.9378491 15.7641971,8.56254746 C16.078601,8.2506961 16.078601,7.70880373 15.7641971,7.39614236 C15.3449918,7.02084072 15.0860552,6.82643987 14.9873873,6.81293981 L9.97292466,6.29210753 L5.42086776,0.250291095 C5.29126614,0.083430365 5.12486406,-1.13686838e-13 4.94006175,-1.13686838e-13 L3.95924949,-1.13686838e-13 L6.01287516,6.60395889 L2.10962637,6.87531008 L0.64720809,5.37518352 C0.61040763,5.33360333 0.3946716,5.29877318 0,5.27069306 L0.83281041,8.02065509 L0,10.7293069 C0.37013796,10.7012268 0.57974058,10.6663967 0.62880786,10.6248165 L2.09042613,9.12549992 L5.99447493,9.39604111 L3.94084926,16 Z" id="path-1"></path>
    </defs>
    <g id="Icons/16px/Travel-&amp;-Airport/Plane" stroke="none" stroke-width="1" fill="none" fill-rule="evenodd">
        <mask id="mask-2" fill="white">
            <use xlink:href="#path-1"></use>
        </mask>
        <use id="Mask" fill="#0C2340" fill-rule="nonzero" xlink:href="#path-1"></use>
        <g id="Group" mask="url(#mask-2)" fill="#333333">
            <g id="Color/Grayscale/80%">
                <rect id="Rectangle" x="0" y="0" width="16" height="16"></rect>
            </g>
        </g>
    </g>
</svg>