<?xml version="1.0" encoding="UTF-8"?>
<svg width="16px" height="14px" viewBox="0 0 16 14" version="1.1" xmlns="http://www.w3.org/2000/svg" xmlns:xlink="http://www.w3.org/1999/xlink">
    <title>Icons/16px/Travel &amp; Airport/Plane arriving</title>
    <defs>
        <path d="M6.50010904,7.98344133 C6.50010904,8.39756795 6.83578566,8.73344133 7.24966967,8.73344133 C7.66443241,8.73344133 8.00010904,8.39756795 8.00010904,7.98344133 C8.00010904,7.56931472 7.66443241,7.23344133 7.24966967,7.23344133 C6.83578566,7.23344133 6.50010904,7.56931472 6.50010904,7.98344133 M8.50010904,8.28300197 C8.50010904,8.69688597 8.83578566,9.0325626 9.24966967,9.0325626 C9.66443241,9.0325626 10.000109,8.69688597 10.000109,8.28300197 C10.000109,7.86911796 9.66443241,7.53344133 9.24966967,7.53344133 C8.83578566,7.53344133 8.50010904,7.86911796 8.50010904,8.28300197 M4.3327757,6.36390832 C11.2314424,7.54924166 14.8447757,8.12657499 15.2434424,8.07990832 C16.0407757,7.98590832 16.2074424,7.54257499 15.7454424,6.93390832 C15.500109,6.65124166 14.6634424,5.67590832 13.592109,5.52990832 C12.836109,5.46590832 11.6787757,5.26390832 10.1947757,5.09324166 L7.2967757,0.501908323 C7.13744237,0.275908323 6.92210904,0.135241657 6.6507757,0.0805749901 C6.4227757,0.0545749901 6.19410904,0.0285749901 5.96544237,0.00190832346 C5.66610904,-0.0087583432 5.3387757,0.0225749901 5.3687757,0.165241657 L6.4367757,4.36057499 C5.0947757,4.15990832 3.9807757,3.98590832 3.05210904,3.80990832 C2.08410904,2.56457499 1.56410904,1.85724166 1.2627757,1.66057499 C0.976109038,1.53524166 0.290775705,1.45657499 0.264775705,1.68457499 C0.328109038,2.33990832 0.434775705,3.02324166 0.569442372,3.66390832 C0.0867757048,3.83990832 -0.111890962,3.95590832 0.0621090382,4.25324166 C0.279442372,4.57924166 2.11810904,5.90124166 4.3327757,6.36390832 M15.3334424,12.666575 L0.666775705,12.666575 C0.298775705,12.666575 0.00010903818,12.368575 0.00010903818,11.9999083 C0.00010903818,11.6319083 0.298775705,11.3332417 0.666775705,11.3332417 L15.3334424,11.3332417 C15.7014424,11.3332417 16.000109,11.6319083 16.000109,11.9999083 C16.000109,12.368575 15.7014424,12.666575 15.3334424,12.666575 Z" id="path-1"></path>
    </defs>
    <g id="Icons" stroke="none" stroke-width="1" fill="none" fill-rule="evenodd">
        <g transform="translate(-911.000000, -1203.000000)" id="Icons/16px/Travel-&amp;-Airport/Plane-arriving">
            <g transform="translate(911.000000, 1203.666559)">
                <mask id="mask-2" fill="white">
                    <use xlink:href="#path-1"></use>
                </mask>
                <use id="Fill-1" fill="#333333" xlink:href="#path-1"></use>
                <g id="Color/Grayscale/80%" mask="url(#mask-2)" fill="#333333">
                    <g transform="translate(0.000000, -2.666559)" id="Rectangle">
                        <rect x="0" y="0" width="16" height="16"></rect>
                    </g>
                </g>
            </g>
        </g>
    </g>
</svg>