<?xml version="1.0" encoding="UTF-8"?>
<svg width="16px" height="14px" viewBox="0 0 16 14" version="1.1" xmlns="http://www.w3.org/2000/svg" xmlns:xlink="http://www.w3.org/1999/xlink">
    <title>Icons/16px/Travel &amp; Airport/Plane departing</title>
    <defs>
        <path d="M15.3333333,11.3331667 C15.7013333,11.3331667 16,11.6318333 16,11.9998333 C16,12.3678333 15.7013333,12.6665 15.3333333,12.6665 L0.666666667,12.6665 C0.298666667,12.6665 0,12.3678333 0,11.9998333 C0,11.6318333 0.298666667,11.3331667 0.666666667,11.3331667 L15.3333333,11.3331667 Z M12.9073333,0.8245 C13.8566667,0.3745 15.056,0.7245 15.406,0.8245 C16.106,1.0745 16.206,1.5245 15.606,2.0245 C15.306,2.27383333 12.0573333,3.72383333 5.80933333,6.4225 C3.76,7.2225 1.56066667,7.1225 1.21066667,6.9725 C0.910666667,6.8225 1.01066667,6.6225 1.31066667,6.22316667 C0.860666667,5.77316667 0.410666667,5.27316667 0.0113333333,4.77316667 C-0.0886666667,4.57316667 0.510666667,4.27316667 0.810666667,4.22316667 C1.16066667,4.22316667 1.96066667,4.52316667 3.41,5.02316667 C4.26,4.67316667 5.25933333,4.22316667 6.45933333,3.67383333 L3.36,0.8245 C3.26,0.7245 3.51,0.5245 3.76,0.3745 C3.96,0.2745 4.16,0.1745 4.36,0.0745 C4.60933333,-0.0248333333 4.85933333,-0.0248333333 5.10933333,0.0745 L9.908,2.27383333 C11.2073333,1.6245 12.2573333,1.1745 12.9073333,0.8245" id="path-1"></path>
    </defs>
    <g id="Icons" stroke="none" stroke-width="1" fill="none" fill-rule="evenodd">
        <g transform="translate(-951.000000, -1203.000000)" id="Icons/16px/Travel-&amp;-Airport/Plane-departing">
            <g transform="translate(951.000000, 1203.666667)">
                <mask id="mask-2" fill="white">
                    <use xlink:href="#path-1"></use>
                </mask>
                <use id="Fill-1" fill="#333333" xlink:href="#path-1"></use>
                <g id="Color/Grayscale/80%" mask="url(#mask-2)" fill="#333333">
                    <g transform="translate(0.000000, -2.666667)" id="Rectangle">
                        <rect x="0" y="0" width="16" height="16"></rect>
                    </g>
                </g>
            </g>
        </g>
    </g>
</svg>