<?xml version="1.0" encoding="UTF-8"?>
<svg width="16px" height="16px" viewBox="0 0 16 16" version="1.1" xmlns="http://www.w3.org/2000/svg" xmlns:xlink="http://www.w3.org/1999/xlink">
    <title>Icons/16px/Background shape/Add</title>
    <defs>
        <path d="M8,2.27373675e-13 C12.418278,2.27373675e-13 16,3.581722 16,8 C16,12.418278 12.418278,16 8,16 C3.581722,16 0,12.418278 0,8 C0,3.581722 3.581722,2.27373675e-13 8,2.27373675e-13 Z M8,2.5 C7.75,2.5 7.5,2.75 7.5,3 L7.5,3 L7.5,7.5 L3,7.5 C2.75,7.5 2.5,7.75 2.5,8 C2.5,8.25 2.75,8.5 3,8.5 L3,8.5 L7.5,8.5 L7.5,13 C7.5,13.25 7.75,13.5 8,13.5 C8.25,13.5 8.5,13.25 8.5,13 L8.5,13 L8.5,8.5 L13,8.5 C13.25,8.5 13.5,8.25 13.5,8 C13.5,7.75 13.25,7.5 13,7.5 L13,7.5 L8.5,7.5 L8.5,3 C8.5,2.75 8.25,2.5 8,2.5 Z" id="path-1"></path>
    </defs>
    <g id="Icons/16px/Background-shape/Add" stroke="none" stroke-width="1" fill="none" fill-rule="evenodd">
        <g id="Icon">
            <mask id="mask-2" fill="white">
                <use xlink:href="#path-1"></use>
            </mask>
            <use id="Mask" fill="#333333" xlink:href="#path-1"></use>
            <g id="Group" mask="url(#mask-2)" fill="#333333">
                <g id="Color/Grayscale/80%">
                    <rect id="Rectangle" x="0" y="0" width="16" height="16"></rect>
                </g>
            </g>
        </g>
    </g>
</svg>