<?xml version="1.0" encoding="UTF-8"?>
<svg width="16px" height="16px" viewBox="0 0 16 16" version="1.1" xmlns="http://www.w3.org/2000/svg" xmlns:xlink="http://www.w3.org/1999/xlink">
    <title>Icons/16px/Travel &amp; Airport/Premier access</title>
    <defs>
        <path d="M3.78188659,14.8055916 C4.10098477,14.8039988 4.3590448,15.0719959 4.35750643,15.3999923 C4.3567269,15.7295887 4.09634896,15.9991858 3.77802342,15.9999929 C3.45660734,16.0015857 3.19700204,15.7343887 3.19854045,15.4047922 C3.19931995,15.0759958 3.46047051,14.8063988 3.78188659,14.8055916 Z M8.89170693,2.95772779 C9.5901688,2.95772779 10.3465783,3.27612432 10.6958092,3.80091861 L10.6958092,3.80091861 L12.0170148,5.94409527 L13.5383327,6.30569133 C13.8543403,6.37449058 14.0536801,6.70168702 13.9872335,7.02888346 L13.9872335,7.02888346 C13.9207869,7.32168027 13.6797249,7.51047821 13.4139385,7.51047821 C13.3722162,7.51047821 13.3304939,7.51047821 13.2887717,7.5024783 C13.2887717,7.5024783 11.4019974,7.03768336 11.3440498,7.00328374 C11.2691043,6.9512843 11.2026577,6.89048497 11.14471,6.8048859 L11.14471,6.8048859 L10.4215239,5.61689883 L9.90540381,8.40566847 C10.88665,10.7640428 12.4411913,14.4912022 12.4411913,14.4912022 C12.5825834,14.8607982 12.407968,15.2911935 12.0425117,15.4463918 L12.0425117,15.4463918 C11.9420692,15.4807914 11.8593973,15.4983912 11.7674537,15.4983912 C11.485442,15.4983912 11.218883,15.3255931 11.1022151,15.0415962 L11.1022151,15.0415962 L9.40705435,11.108039 L9.14976696,12.5200237 L8.79203704,14.9471972 C8.74181578,15.3087933 8.43430712,15.5671905 8.09357517,15.5671905 L8.09357517,15.5671905 L7.9854063,15.5671905 L7.96840833,15.5583906 C7.5859541,15.4983912 7.32016772,15.1279953 7.37038899,14.7231997 L7.37038899,14.7231997 L8.24269369,8.81926396 C7.88573641,8.56086678 7.38738695,8.11287165 7.44533456,7.63927681 L7.44533456,7.63927681 L7.78606651,4.95450605 L5.99046321,6.09049368 L5.43416614,8.23927028 L4.32775309,14.7231997 C4.17786194,14.5768013 3.97852215,14.4912022 3.75368542,14.4912022 C3.28006028,14.4912022 2.89760605,14.8951978 2.89760605,15.3775925 C2.89760605,15.5927902 2.97255163,15.790388 3.09694583,15.9455864 L3.09694583,15.9455864 L1.62584915,15.7647883 C1.42573673,15.7303887 1.25962025,15.6271898 1.14372502,15.4719915 C1.02705717,15.3087933 0.976835905,15.1103955 1.0100592,14.9127976 L1.0100592,14.9127976 L1.89163552,10.0328507 C1.94108415,9.64565496 2.29881407,9.36965797 2.70599262,9.40485759 L2.70599262,9.40485759 L4.34397842,9.68885449 C4.34397842,9.68885449 4.40209806,9.36362053 4.46838847,8.99545462 L4.52604484,8.67595419 C4.59292679,8.3063008 4.6537084,7.97437316 4.65844079,7.96247329 C4.43051352,7.82567478 4.30766459,7.55047778 4.38647334,7.27848074 C4.38647334,7.27848074 5.00149065,5.24730286 5.08416257,5.1609038 C5.08416257,5.1609038 7.952183,3.15532564 8.30141394,3.04332686 C8.48375575,2.99212742 8.68386817,2.95772779 8.89170693,2.95772779 Z M9.91413458,-7.39408534e-14 C10.5878721,-7.39408534e-14 11.1356702,0.567993815 11.1356702,1.27438612 C11.1356702,1.97117853 10.5878721,2.54797225 9.91413458,2.54797225 C9.23189804,2.54797225 8.68409996,1.97117853 8.68409996,1.27438612 C8.68409996,0.567993815 9.23189804,-7.39408534e-14 9.91413458,-7.39408534e-14 Z" id="path-1"></path>
    </defs>
    <g id="Icons/16px/Travel-&amp;-Airport/Premier-access" stroke="none" stroke-width="1" fill="none" fill-rule="evenodd">
        <mask id="mask-2" fill="white">
            <use xlink:href="#path-1"></use>
        </mask>
        <use id="Mask" fill="#0C2340" fill-rule="nonzero" xlink:href="#path-1"></use>
        <g id="Group" mask="url(#mask-2)" fill="#333333">
            <g id="Color/Grayscale/80%">
                <rect id="Rectangle" x="0" y="0" width="16" height="16"></rect>
            </g>
        </g>
    </g>
</svg>