<?xml version="1.0" encoding="UTF-8"?>
<svg width="16px" height="16px" viewBox="0 0 16 16" version="1.1" xmlns="http://www.w3.org/2000/svg" xmlns:xlink="http://www.w3.org/1999/xlink">
    <title>Icons/16px/Background shape/Price</title>
    <defs>
        <path d="M8,-1.13686838e-13 C12.418278,-1.13686838e-13 16,3.581722 16,8 C16,12.418278 12.418278,16 8,16 C3.581722,16 0,12.418278 0,8 C0,3.581722 3.581722,-1.13686838e-13 8,-1.13686838e-13 Z M8.3671875,3.57291667 L7.65364583,3.57291667 L7.65364583,4.36979167 C6.59635417,4.47395833 6.59635417,4.47395833 6.00520833,4.9609375 C5.4140625,5.44791667 5.4140625,5.44791667 5.4140625,6.203125 C5.4140625,6.90625 5.4140625,6.90625 5.84375,7.3828125 C6.22569444,7.80642361 6.22569444,7.80642361 7.08294753,8.17447917 L7.3046875,8.265625 L7.65364583,8.40104167 L7.65364583,10.015625 C7.15364583,9.984375 7.15364583,9.984375 6.515625,9.8125 C6.00520833,9.675 6.00520833,9.675 5.613125,9.50416667 L5.42447917,9.41666667 L5.42447917,10.7916667 C6.26302083,11.1608073 6.26302083,11.1608073 7.34082031,11.226888 L7.65364583,11.2395833 L7.65364583,12.2864583 L8.3671875,12.2864583 L8.3671875,11.21875 C9.4453125,11.1197917 9.4453125,11.1197917 10.0442708,10.6171875 C10.6432292,10.1145833 10.6432292,10.1145833 10.6432292,9.28645833 C10.6432292,8.828125 10.6432292,8.828125 10.4427083,8.484375 C10.2421875,8.140625 10.2421875,8.140625 9.8125,7.85416667 C9.43055556,7.59953704 9.43055556,7.59953704 8.58564815,7.26260288 L8.3671875,7.17708333 L8.3671875,5.640625 C9.05052083,5.69895833 9.05052083,5.69895833 9.7071875,5.92395833 L10.0338542,6.046875 L10.5234375,4.828125 C9.69754464,4.46205357 9.69754464,4.46205357 8.70328444,4.37149235 L8.3671875,4.34895833 L8.3671875,3.57291667 Z M8.3671875,8.68229167 C8.72135417,8.84375 8.72135417,8.84375 8.8984375,8.99479167 C9.07552083,9.14583333 9.07552083,9.14583333 9.07552083,9.36458333 C9.07552083,9.859375 9.07552083,9.859375 8.3671875,9.97916667 L8.3671875,8.68229167 Z M7.65364583,5.66145833 L7.65364583,6.88541667 C7.29947917,6.72916667 7.29947917,6.72916667 7.140625,6.58072917 C6.98177083,6.43229167 6.98177083,6.43229167 6.98177083,6.203125 C6.98177083,5.8046875 6.98177083,5.8046875 7.52598958,5.6846875 L7.65364583,5.66145833 Z" id="path-1"></path>
    </defs>
    <g id="Icons/16px/Background-shape/Price" stroke="none" stroke-width="1" fill="none" fill-rule="evenodd">
        <mask id="mask-2" fill="white">
            <use xlink:href="#path-1"></use>
        </mask>
        <use id="Combined-Shape" fill="#0C2340" xlink:href="#path-1"></use>
        <g id="Group" mask="url(#mask-2)" fill="#333333">
            <g id="Color/Grayscale/80%">
                <rect id="Rectangle" x="0" y="0" width="16" height="16"></rect>
            </g>
        </g>
    </g>
</svg>