<?xml version="1.0" encoding="UTF-8"?>
<svg width="16px" height="16px" viewBox="0 0 16 16" version="1.1" xmlns="http://www.w3.org/2000/svg" xmlns:xlink="http://www.w3.org/1999/xlink">
    <title>Icons/16px/Digital/Print</title>
    <defs>
        <path d="M13,1 C13.28,1 13.504,1.2288383 13.504,1.51488616 L13.504,1.51488616 L13.504,4.53882078 L14.872,4.53882078 C15.496,4.53882078 16,5.06187974 16,5.69935785 L16,5.69935785 L16,11.4366608 C16,12.0741389 15.496,12.5971979 14.872,12.5971979 L14.872,12.5971979 L13.504,12.5971979 L13.504,14.4851138 C13.504,14.7711617 13.28,15 13,15 L13,15 L3.008,15 C2.728,15 2.504,14.7711617 2.504,14.4851138 L2.504,14.4851138 L2.504,12.5971979 L1.136,12.5971979 C0.512,12.5971979 0,12.0741389 0,11.4366608 L0,11.4366608 L0,5.69935785 C0,5.06187974 0.512,4.53882078 1.136,4.53882078 L1.136,4.53882078 L2.504,4.53882078 L2.504,1.51488616 C2.504,1.2288383 2.728,1 3.008,1 L3.008,1 Z M12.496,10.1780502 L3.512,10.1780502 L3.512,13.9702277 L12.496,13.9702277 L12.496,10.1780502 Z M10.50392,12.3929597 C10.78392,12.3929597 11.00792,12.621798 11.00792,12.9078459 C11.00792,13.1938938 10.78392,13.422732 10.50392,13.422732 L10.50392,13.422732 L5.50392,13.422732 C5.22392,13.422732 4.99992,13.1938938 4.99992,12.9078459 C4.99992,12.621798 5.22392,12.3929597 5.50392,12.3929597 L5.50392,12.3929597 Z M10.50392,10.7336369 C10.78392,10.7336369 11.00792,10.9624752 11.00792,11.2485231 C11.00792,11.5345709 10.78392,11.7634092 10.50392,11.7634092 L10.50392,11.7634092 L5.50392,11.7634092 C5.22392,11.7634092 4.99992,11.5345709 4.99992,11.2485231 C4.99992,10.9624752 5.22392,10.7336369 5.50392,10.7336369 L5.50392,10.7336369 Z M13.312,5.99112668 C12.6104,5.99112668 12.0368,6.56976065 12.0368,7.29305312 C12.0368,8.00980736 12.6104,8.59497957 13.312,8.59497957 C14.0128,8.59497957 14.5864,8.00980736 14.5864,7.29305312 C14.5864,6.56976065 14.0128,5.99112668 13.312,5.99112668 Z M12.496,2.02977233 L3.512,2.02977233 L3.512,4.53882078 L12.496,4.53882078 L12.496,2.02977233 Z" id="path-1"></path>
    </defs>
    <g id="Icons/16px/Digital/Print" stroke="none" stroke-width="1" fill="none" fill-rule="evenodd">
        <mask id="mask-2" fill="white">
            <use xlink:href="#path-1"></use>
        </mask>
        <use id="Mask" fill="#0C2340" fill-rule="nonzero" xlink:href="#path-1"></use>
        <g id="Group" mask="url(#mask-2)" fill="#333333">
            <g id="Color/Grayscale/80%">
                <rect id="Rectangle" x="0" y="0" width="16" height="16"></rect>
            </g>
        </g>
    </g>
</svg>