<?xml version="1.0" encoding="UTF-8"?>
<svg width="16px" height="16px" viewBox="0 0 16 16" version="1.1" xmlns="http://www.w3.org/2000/svg" xmlns:xlink="http://www.w3.org/1999/xlink">
    <title>Icons/16px/Background shape/Priority</title>
    <defs>
        <path d="M8,16 C12.418278,16 16,12.418278 16,8 C16,3.581722 12.418278,0 8,0 C3.581722,0 0,3.581722 0,8 C0,12.418278 3.581722,16 8,16 Z M7.6369637,12 L7.6369637,8.97425743 L8.33927393,8.97425743 C9.29680968,8.97425743 10.0352035,8.75423542 10.5544554,8.31419142 C11.0737074,7.87414741 11.3333333,7.23872387 11.3333333,6.40792079 C11.3333333,5.60880088 11.089549,5.00770077 10.6019802,4.60462046 C10.1144114,4.20154015 9.40242024,4 8.4660066,4 L6,4 L6,12 L7.6369637,12 Z M7.6369637,7.6330033 L7.6369637,5.34125413 L8.38151815,5.34125413 C8.82860286,5.34125413 9.15687569,5.43278328 9.36633663,5.61584158 C9.57579758,5.79889989 9.68052805,6.08228823 9.68052805,6.4660066 C9.68052805,6.84620462 9.55555556,7.13575358 9.30561056,7.33465347 C9.05566557,7.53355336 8.6789879,7.6330033 8.17557756,7.6330033 L7.6369637,7.6330033 Z" id="path-1"></path>
    </defs>
    <g id="Icons/16px/Background-shape/Priority" stroke="none" stroke-width="1" fill="none" fill-rule="evenodd">
        <g id="Icon">
            <mask id="mask-2" fill="white">
                <use xlink:href="#path-1"></use>
            </mask>
            <use id="Mask" fill="#0C2340" xlink:href="#path-1"></use>
            <g id="Group" mask="url(#mask-2)" fill="#333333">
                <g id="Color/Grayscale/80%">
                    <rect id="Rectangle" x="0" y="0" width="16" height="16"></rect>
                </g>
            </g>
        </g>
    </g>
</svg>