<?xml version="1.0" encoding="UTF-8"?>
<svg width="16px" height="16px" viewBox="0 0 16 16" version="1.1" xmlns="http://www.w3.org/2000/svg" xmlns:xlink="http://www.w3.org/1999/xlink">
    <title>Icons/16px/Travel &amp; Airport/Priority desk</title>
    <defs>
        <path d="M14.352,6.29153605 C14.264,2.99216301 11.616,0.5 8,0.5 C4.384,0.5 1.744,2.99216301 1.648,6.29153605 C1.648,6.30198537 1.232,6.30198537 0.4,6.29153605 C0.184,6.29153605 0,6.47178683 0,6.68338558 L0,9.84169279 C0,10.0532915 0.184,10.2335423 0.4,10.2335423 L1.648,10.2335423 C1.648,10.4451411 1.824,10.7037618 2.048,10.7037618 L3.696,10.7037618 C3.912,10.7037618 4.096,10.523511 4.096,10.3119122 L4.096,6.21316614 C4.096,6.0015674 3.912,5.82131661 3.696,5.82131661 L2.472,5.82131661 C2.736,3.1645768 4.976,1.28369906 8,1.28369906 C11.024,1.28369906 13.264,3.1645768 13.528,5.82131661 L12.304,5.82131661 C12.088,5.82131661 11.904,6.0015674 11.904,6.21316614 L11.904,10.3119122 C11.904,10.523511 12.088,10.7037618 12.304,10.7037618 L13.512,10.7037618 C13.4,11.4717868 13.064,12.177116 12.496,12.8119122 C11.92,13.4702194 11.08,13.846395 10.168,13.9169279 C9.888,13.4780564 9.184,13.1724138 8.304,13.1724138 C7.176,13.1724138 6.32,13.6739812 6.32,14.3401254 C6.32,14.9984326 7.176,15.5 8.304,15.5 C9.216,15.5 9.928,15.1786834 10.184,14.7163009 C11.328,14.637931 12.376,14.1442006 13.104,13.3291536 C13.896,12.4278997 14.32,11.369906 14.352,10.2335423 L15.6,10.2335423 C15.824,10.2335423 16,10.0532915 16,9.84169279 L16,6.68338558 C16,6.47178683 15.824,6.29153605 15.6,6.29153605 C14.768,6.30198537 14.352,6.30198537 14.352,6.29153605 Z" id="path-1"></path>
    </defs>
    <g id="Icons/16px/Travel-&amp;-Airport/Priority-desk" stroke="none" stroke-width="1" fill="none" fill-rule="evenodd">
        <mask id="mask-2" fill="white">
            <use xlink:href="#path-1"></use>
        </mask>
        <use id="Mask" fill="#0C2340" fill-rule="nonzero" xlink:href="#path-1"></use>
        <g id="Group" mask="url(#mask-2)" fill="#333333">
            <g id="Color/Grayscale/80%">
                <rect id="Rectangle" x="0" y="0" width="16" height="16"></rect>
            </g>
        </g>
    </g>
</svg>