<?xml version="1.0" encoding="UTF-8"?>
<svg width="16px" height="16px" viewBox="0 0 16 16" version="1.1" xmlns="http://www.w3.org/2000/svg" xmlns:xlink="http://www.w3.org/1999/xlink">
    <title>Icons/16px/Background shape/Question</title>
    <defs>
        <path d="M8,-1.13686838e-13 C12.418278,-1.13686838e-13 16,3.581722 16,8 C16,12.418278 12.418278,16 8,16 C3.581722,16 0,12.418278 0,8 C0,3.581722 3.581722,-1.13686838e-13 8,-1.13686838e-13 Z M7.64322917,10.0364583 C7.1953125,10.0364583 7.1953125,10.0364583 6.9609375,10.2604167 C6.7265625,10.484375 6.7265625,10.484375 6.7265625,10.921875 C6.7265625,11.34375 6.7265625,11.34375 6.96614583,11.5755208 C7.20572917,11.8072917 7.20572917,11.8072917 7.64322917,11.8072917 C8.0703125,11.8072917 8.0703125,11.8072917 8.30989583,11.5703125 C8.54947917,11.3333333 8.54947917,11.3333333 8.54947917,10.921875 C8.54947917,10.4947917 8.54947917,10.4947917 8.3125,10.265625 C8.07552083,10.0364583 8.07552083,10.0364583 7.64322917,10.0364583 Z M7.95052083,3.94270833 C6.79311343,3.94270833 6.79311343,3.94270833 5.74681713,4.45711163 L5.48697917,4.59375 L6.0546875,5.734375 C7.0546875,5.22395833 7.0546875,5.22395833 7.8359375,5.22395833 C8.28385417,5.22395833 8.28385417,5.22395833 8.53385417,5.40104167 C8.78385417,5.578125 8.78385417,5.578125 8.78385417,5.91666667 C8.78385417,6.21875 8.78385417,6.21875 8.609375,6.46354167 C8.43489583,6.70833333 8.43489583,6.70833333 7.88802083,7.09895833 C7.3203125,7.515625 7.3203125,7.515625 7.10677083,7.88541667 C6.9359375,8.18125 6.9359375,8.18125 6.90177083,8.56041667 L6.89322917,8.75520833 L6.89322917,9.140625 L8.2734375,9.140625 L8.2734375,8.828125 C8.2734375,8.515625 8.2734375,8.515625 8.40625,8.32291667 C8.5390625,8.13020833 8.5390625,8.13020833 9.0390625,7.76041667 C9.76822917,7.23958333 9.76822917,7.23958333 10.0286458,6.82291667 C10.2890625,6.40625 10.2890625,6.40625 10.2890625,5.83333333 C10.2890625,4.97395833 10.2890625,4.97395833 9.65625,4.45833333 C9.0234375,3.94270833 9.0234375,3.94270833 7.95052083,3.94270833 Z" id="path-1"></path>
    </defs>
    <g id="Icons/16px/Background-shape/Question" stroke="none" stroke-width="1" fill="none" fill-rule="evenodd">
        <mask id="mask-2" fill="white">
            <use xlink:href="#path-1"></use>
        </mask>
        <use id="Combined-Shape" fill="#002244" xlink:href="#path-1"></use>
        <g id="Group" mask="url(#mask-2)" fill="#333333">
            <g id="Color/Grayscale/80%">
                <rect id="Rectangle" x="0" y="0" width="16" height="16"></rect>
            </g>
        </g>
    </g>
</svg>