<?xml version="1.0" encoding="UTF-8"?>
<svg width="16px" height="16px" viewBox="0 0 16 16" version="1.1" xmlns="http://www.w3.org/2000/svg" xmlns:xlink="http://www.w3.org/1999/xlink">
    <title>Icons/16px/Weather/Rain</title>
    <defs>
        <path d="M8,7.41055161 L10.416,11.6722395 C10.685,12.1057163 10.837,12.617279 10.837,13.1598759 C10.837,14.7296026 9.566,16 8,16 C6.435,16 5.162,14.7296026 5.162,13.1598759 C5.162,12.617279 5.316,12.1057163 5.582,11.6722395 L5.582,11.6722395 L8,7.41055161 Z M5.703,-3.64153152e-14 C7.228,-3.64153152e-14 8.658,0.593653018 9.736,1.66983682 C10.103,2.03423766 10.414,2.44368806 10.666,2.88617479 L10.666,2.88617479 L10.775,3.07838622 L10.994,3.03734108 C11.253,2.99129042 11.519,2.96526179 11.779,2.96526179 C14.105,2.96526179 16,4.85834418 16,7.18490339 C16,8.78065872 15.107,10.1671839 13.798,10.8819702 L13.798,10.8819702 L13.306,10.1061167 L13.32,10.0700771 C14.351,9.51746922 15.054,8.4322755 15.054,7.18490339 C15.054,5.37991791 13.584,3.91130243 11.779,3.91130243 C11.236,3.91130243 10.718,4.04244669 10.244,4.29071979 C9.636,2.32956252 7.791,0.948042847 5.703,0.948042847 C3.08,0.948042847 0.947,3.08038843 0.947,5.7032736 C0.947,7.30803884 1.75,8.72760036 2.972,9.5885474 L2.972,9.5885474 L2.58,10.4735209 C2.257,10.2602863 1.951,10.0140154 1.671,9.73370708 C0.595,8.65652217 0,7.22594854 0,5.7032736 C0,4.17959756 0.595,2.74702172 1.671,1.66983682 C2.748,0.593653018 4.181,-3.64153152e-14 5.703,-3.64153152e-14 Z" id="path-1"></path>
    </defs>
    <g id="Icons/16px/Weather/Rain" stroke="none" stroke-width="1" fill="none" fill-rule="evenodd">
        <mask id="mask-2" fill="white">
            <use xlink:href="#path-1"></use>
        </mask>
        <use id="Mask" fill="#0C2340" fill-rule="nonzero" xlink:href="#path-1"></use>
        <g id="Group" mask="url(#mask-2)" fill="#333333">
            <g id="Color/Grayscale/80%">
                <rect id="Rectangle" x="0" y="0" width="16" height="16"></rect>
            </g>
        </g>
    </g>
</svg>