<?xml version="1.0" encoding="UTF-8"?>
<svg width="16px" height="16px" viewBox="0 0 16 16" version="1.1" xmlns="http://www.w3.org/2000/svg" xmlns:xlink="http://www.w3.org/1999/xlink">
    <title>Icons/16px/Digital/Rating</title>
    <defs>
        <path d="M15.2676511,5.67333431 L10.331888,5.57898779 L8.70796601,0.987457032 C8.603971,0.688693045 8.32398445,0.5 7.99600019,0.5 C7.67601555,0.5 7.40402861,0.688693045 7.29203399,0.987457032 L5.66811195,5.57898779 L0.732348915,5.67333431 C0.412364277,5.68119652 0.140377335,5.87775177 0.0363823275,6.17651576 C-0.0596130639,6.48314196 0.0363823275,6.80549258 0.300369654,6.99418562 L4.2361807,9.92679003 L2.80424944,14.5733563 C2.7322529,14.8013603 2.68943278,15.0867202 3.03477882,15.3460521 C3.38012486,15.605384 3.82020067,15.4775104 3.94819452,15.3910261 L7.99600019,12.6156659 L12.0518055,15.3910261 C12.1797993,15.4775104 12.6781351,15.5920472 12.9729411,15.3460521 C13.2677471,15.1000571 13.2677471,14.8013603 13.1957506,14.5733563 L11.7638193,9.92679003 L15.6996303,6.99418562 C15.9636177,6.80549258 16.0596131,6.48314196 15.9636177,6.17651576 C15.8596227,5.87775177 15.5876357,5.68119652 15.2676511,5.67333431 Z" id="path-1"></path>
    </defs>
    <g id="Icons/16px/Digital/Rating" stroke="none" stroke-width="1" fill="none" fill-rule="evenodd">
        <mask id="mask-2" fill="white">
            <use xlink:href="#path-1"></use>
        </mask>
        <use id="Mask" fill="#0C2340" fill-rule="nonzero" xlink:href="#path-1"></use>
        <g id="Group" mask="url(#mask-2)" fill="#333333">
            <g id="Color/Grayscale/80%">
                <rect id="Rectangle" x="0" y="0" width="16" height="16"></rect>
            </g>
        </g>
    </g>
</svg>