<?xml version="1.0" encoding="UTF-8"?>
<svg width="16px" height="16px" viewBox="0 0 16 16" version="1.1" xmlns="http://www.w3.org/2000/svg" xmlns:xlink="http://www.w3.org/1999/xlink">
    <title>Icons/16px/Interface/External/Re-attach</title>
    <defs>
        <path d="M12.4765693,8.81016468 C12.4765693,8.44197484 12.7750461,8.14349801 13.143236,8.14349801 C13.5114258,8.14349801 13.8099026,8.44197484 13.8099026,8.81016468 L13.8099026,13.3519127 C13.8099026,13.7201026 13.5114258,14.0185794 13.143236,14.0185794 L0.666666667,14.0185794 C0.298476833,14.0185794 9.09494702e-13,13.7201026 9.09494702e-13,13.3519127 L9.09494702e-13,0.933333333 C9.09494702e-13,0.5651435 0.298476833,0.266666667 0.666666667,0.266666667 L5.24633789,0.266666667 C5.61452772,0.266666667 5.91300456,0.5651435 5.91300456,0.933333333 C5.91300456,1.30152317 5.61452772,1.6 5.24633789,1.6 L1.33333333,1.6 L1.33333333,12.6852461 L12.4765693,12.6852461 L12.4765693,8.81016468 Z M9.77062932,9.26863607 C10.1388192,9.26863607 10.437296,9.56711291 10.437296,9.93530274 C10.437296,10.3034926 10.1388192,10.6019694 9.77062932,10.6019694 L4.10404847,10.6019694 L4.09488932,10.6019694 C3.72669948,10.6019694 3.42822265,10.3034926 3.42822265,9.93530274 L3.42822265,4.24998595 C3.42822265,3.88179612 3.72669948,3.58331928 4.09488932,3.58331928 C4.46307915,3.58331928 4.76155598,3.88179612 4.76155598,4.24998595 L4.76155598,8.33092228 L12.2035075,0.862758292 C12.4633989,0.601951464 12.8855082,0.60120938 13.146315,0.861100803 C13.4071219,1.12099223 13.407864,1.54310156 13.1479725,1.80390839 L5.7094453,9.26863607 L9.77062932,9.26863607 Z" id="path-1"></path>
    </defs>
    <g id="Icons/16px/Interface/External/Re-attach" stroke="none" stroke-width="1" fill="none" fill-rule="evenodd">
        <g id="Icon" transform="translate(0.000000, 2.000000)">
            <mask id="mask-2" fill="white">
                <use xlink:href="#path-1"></use>
            </mask>
            <use id="Mask" fill="#0C2340" fill-rule="nonzero" xlink:href="#path-1"></use>
            <g id="Group" mask="url(#mask-2)">
                <g transform="translate(0.000000, -2.000000)" id="Color/Grayscale/80%">
                    <rect id="Rectangle" fill="#333333" x="0" y="0" width="16" height="16"></rect>
                </g>
            </g>
        </g>
    </g>
</svg>