<?xml version="1.0" encoding="UTF-8"?>
<svg width="16px" height="16px" viewBox="0 0 16 16" version="1.1" xmlns="http://www.w3.org/2000/svg" xmlns:xlink="http://www.w3.org/1999/xlink">
    <title>Icons/16px/Digital/Redeposit</title>
    <defs>
        <path d="M11.74368,4.62628448 L11.74368,15.0995133 C11.74368,15.5943753 11.35168,16 10.86368,16 L10.86368,16 L5.12768,16 C4.64768,16 4.24768,15.5943753 4.24768,15.0995133 L4.24768,15.0995133 L4.24768,4.62628448 L11.74368,4.62628448 Z M7.99968,7.06814494 C7.95168,7.06814494 7.89568,7.07625744 7.84768,7.10059492 L7.84768,7.10059492 C7.79168,7.1249324 7.75168,7.14926988 7.71168,7.18983234 C7.69568,7.20605733 7.67968,7.22228231 7.66368,7.24661979 L7.66368,7.24661979 L5.18368,9.75338021 C5.03168,9.90751758 5.03168,10.1671174 5.18368,10.3212547 C5.26368,10.4023797 5.36768,10.4429421 5.47168,10.4429421 C5.56768,10.4429421 5.67168,10.4023797 5.75168,10.3212547 L5.75168,10.3212547 L7.59968,8.44726879 L7.59968,13.1525149 C7.59968,13.3715522 7.77568,13.5581395 7.99968,13.5581395 C8.21568,13.5581395 8.39968,13.3715522 8.39968,13.1525149 L8.39968,13.1525149 L8.39968,8.45538129 L10.23968,10.3212547 C10.31968,10.4023797 10.42368,10.4429421 10.52768,10.4429421 C10.63168,10.4429421 10.72768,10.4023797 10.80768,10.3212547 C10.96768,10.1671174 10.96768,9.90751758 10.80768,9.75338021 L10.80768,9.75338021 L8.32768,7.24661979 L8.27968,7.18983234 C8.23968,7.14926988 8.19968,7.1168199 8.15168,7.10059492 C8.10368,7.07625744 8.04768,7.06814494 7.99968,7.06814494 Z M14.704,1 C15.424,1 16,1.59221201 16,2.3142239 L16,2.3142239 L16,8.50405625 C16,9.22606814 15.424,9.81828015 14.704,9.81828015 L14.704,9.81828015 L12.544,9.81828015 L12.544,7.003245 L13.056,7.003245 C13.656,7.003245 14.136,6.5164954 14.136,5.9161709 L14.136,5.9161709 L14.136,4.90210925 C14.136,4.30178475 13.656,3.81503515 13.056,3.81503515 L13.056,3.81503515 L2.936,3.81503515 C2.336,3.81503515 1.864,4.29367226 1.864,4.90210925 L1.864,4.90210925 L1.864,5.9161709 C1.864,6.5246079 2.336,7.003245 2.936,7.003245 L2.936,7.003245 L3.448,7.003245 L3.448,9.81828015 L1.288,9.81828015 C0.576,9.81828015 0,9.22606814 0,8.50405625 L0,8.50405625 L0,2.3142239 C0,1.59221201 0.576,1 1.288,1 L1.288,1 Z M3.44776,4.62628448 L3.44776,6.19199567 L2.93576,6.19199567 C2.78376,6.19199567 2.66376,6.07030827 2.66376,5.9161709 L2.66376,5.9161709 L2.66376,4.90210925 C2.66376,4.74797188 2.78376,4.62628448 2.93576,4.62628448 L2.93576,4.62628448 L3.44776,4.62628448 Z M13.05608,4.62628448 C13.21608,4.62628448 13.33608,4.74797188 13.33608,4.90210925 L13.33608,4.90210925 L13.33608,5.9161709 C13.33608,6.07030827 13.21608,6.19199567 13.05608,6.19199567 L13.05608,6.19199567 L12.54408,6.19199567 L12.54408,4.62628448 Z" id="path-1"></path>
    </defs>
    <g id="Icons/16px/Digital/Redeposit" stroke="none" stroke-width="1" fill="none" fill-rule="evenodd">
        <mask id="mask-2" fill="white">
            <use xlink:href="#path-1"></use>
        </mask>
        <use id="Mask" fill="#0C2340" fill-rule="nonzero" xlink:href="#path-1"></use>
        <g id="Group" mask="url(#mask-2)" fill="#333333">
            <g id="Color/Grayscale/80%">
                <rect id="Rectangle" x="0" y="0" width="16" height="16"></rect>
            </g>
        </g>
    </g>
</svg>