<?xml version="1.0" encoding="UTF-8"?>
<svg width="16px" height="16px" viewBox="0 0 16 16" version="1.1" xmlns="http://www.w3.org/2000/svg" xmlns:xlink="http://www.w3.org/1999/xlink">
    <title>Icons/16px/Interface/Refresh</title>
    <defs>
        <path d="M15.0299463,5.35419256 L15.9826054,1.8021337 C16.0572715,1.52556943 15.8846062,1.27402443 15.5979418,1.24021462 C15.3112774,1.20640481 15.018613,1.40385411 14.9446136,1.68041837 L14.4419509,3.55551055 C13.9512881,2.8096661 13.3519595,2.17268924 12.6772982,1.64931335 C12.6032988,1.58913188 12.5332993,1.53368379 12.4679665,1.48499766 C12.2353017,1.31730099 11.9959702,1.16109966 11.7486388,1.02112704 C11.6526396,0.96635514 11.553307,0.921726188 11.4559745,0.871687666 C11.3273088,0.805420434 11.2006431,0.735772221 11.0693109,0.676943148 C10.9106454,0.605942543 10.7493134,0.547789666 10.5879813,0.488284397 C10.5113153,0.459884154 10.4366492,0.426750539 10.3599831,0.401055081 C10.1933178,0.344930793 10.0239858,0.300978037 9.85532043,0.257025282 C9.77732104,0.236739394 9.69998832,0.211720133 9.62132227,0.193462835 C9.46732349,0.15830063 9.31265804,0.133957566 9.1579926,0.108938305 C9.05799338,0.0920333985 8.9593275,0.0717475112 8.85866162,0.0588997826 C8.72999597,0.043347269 8.60066366,0.0365853066 8.47199801,0.026442363 C8.34199903,0.0162994193 8.21266672,0.00412788696 8.08266774,0.000746905745 C7.98266853,-0.00195787922 7.88266932,0.00345169072 7.78200345,0.0048040832 C7.62467136,0.00683267193 7.4666726,0.00750886817 7.30867385,0.0190042043 C7.22934114,0.0250899705 7.15134176,0.0386138953 7.07267571,0.046052054 C6.89734376,0.0649855488 6.72267847,0.0832428473 6.54801318,0.113671678 C6.4700138,0.127871799 6.3940144,0.148833883 6.31668167,0.164386396 C6.14601635,0.199548601 5.97601769,0.234034609 5.8066857,0.28069215 C5.66735346,0.319235336 5.53002121,0.369950054 5.39268896,0.415931399 C5.29002311,0.451093603 5.18669059,0.479493845 5.08535805,0.518713228 C4.59202861,0.708048175 4.11603237,0.948774038 3.66470259,1.23886223 C3.62003628,1.26726247 3.58003659,1.30039608 3.53603694,1.33014872 C3.36537162,1.44442588 3.19603962,1.56140783 3.03337424,1.68988512 C2.93204171,1.77035247 2.83870911,1.85825798 2.7420432,1.94278251 C2.64471064,2.02730704 2.54471143,2.10845059 2.45137883,2.19838469 C2.30204667,2.34309069 2.16271444,2.49523484 2.02604885,2.65008378 C1.9907158,2.68997936 1.9527161,2.72514157 1.91871637,2.76571334 C1.56938579,3.17481207 1.26405486,3.61704441 1.0060569,4.08361982 C0.952723985,4.18099208 0.909390993,4.28106912 0.860058049,4.37979377 C0.794725231,4.50962345 0.725392445,4.63877693 0.668059564,4.77266379 C0.597393455,4.93427469 0.539393912,5.09926657 0.480061047,5.26358226 C0.452727929,5.33999244 0.420728181,5.41437402 0.395395048,5.4914604 C0.340062151,5.66186185 0.296062498,5.83429189 0.252729507,6.00672193 C0.232729664,6.0844845 0.208729854,6.16157087 0.191396657,6.24136203 C0.156063602,6.39688716 0.132730453,6.55376469 0.10739732,6.71199461 C0.0907307844,6.81274785 0.0707309421,6.91350109 0.0580643754,7.01493053 C0.042731163,7.1454364 0.0360645489,7.27729467 0.0260646278,7.40780055 C0.0167313681,7.53898262 0.00406480134,7.66948849 0.000731494297,7.80134676 C-0.00193515134,7.90412859 0.00339813993,8.00623422 0.00539812415,8.10901605 C0.00739810838,8.26859836 0.00806476979,8.42682828 0.0193980137,8.5864106 C0.0253979664,8.66755415 0.0380645331,8.7486977 0.04606447,8.82984124 C0.0647309895,9.00565227 0.0827308475,9.18213949 0.112730611,9.35795051 C0.126063839,9.43841786 0.146730343,9.51685663 0.162730216,9.59597159 C0.19739661,9.76772543 0.23072968,9.93947928 0.276729317,10.1098807 C0.314729017,10.2518819 0.364728623,10.389826 0.410061599,10.5291224 C0.444727992,10.6339328 0.472727771,10.7387432 0.511394133,10.8422013 C0.698059327,11.3425865 0.93605745,11.8247144 1.22205519,12.2824993 C1.25005497,12.3278044 1.28272138,12.3690524 1.31138782,12.4136813 C1.4240536,12.5867876 1.53938602,12.7585414 1.66671835,12.9228571 C1.7453844,13.0263151 1.83205038,13.1203064 1.91538306,13.2190311 C1.9993824,13.3170795 2.0787151,13.4185089 2.16804773,13.5131764 C2.31004661,13.6653206 2.46071209,13.8059694 2.61271089,13.9452658 C2.65204391,13.980428 2.68671031,14.0189712 2.72670999,14.0541334 C3.13070681,14.4084602 3.5660367,14.7181581 4.02603308,14.9791699 C4.12269898,15.0339418 4.22269819,15.0785707 4.32069742,15.1292854 C4.44802975,15.1948765 4.57402875,15.2638485 4.70536105,15.3226776 C4.86535979,15.3950306 5.02869183,15.4538596 5.19135722,15.5133649 C5.2660233,15.541089 5.33868939,15.5735464 5.41402213,15.5985656 C5.58268746,15.6546899 5.75201946,15.6993189 5.92268478,15.7432716 C6.00001751,15.7642337 6.07535024,15.7885768 6.15334963,15.8061579 C6.30734841,15.8413201 6.46201386,15.8656631 6.61734597,15.8913586 C6.71734518,15.9075873 6.81601107,15.9285494 6.91601028,15.9407209 C7.04534259,15.9576258 7.17467491,15.9637116 7.30400722,15.9731784 C7.43333953,15.9833213 7.56200518,15.9954928 7.6913375,15.99955 C7.79267003,16.0015786 7.8933359,15.996169 7.99466844,15.9948166 C8.15200053,15.992788 8.3079993,15.9914356 8.46533139,15.9806165 C8.54533076,15.9745307 8.62533013,15.961683 8.7053295,15.9528925 C8.87866147,15.933959 9.05266009,15.9163779 9.22599206,15.885949 C9.30532477,15.8724251 9.38265749,15.8507868 9.46132354,15.8345581 C9.63065553,15.7993959 9.79998753,15.7655861 9.96798621,15.7189286 C10.1059851,15.6803854 10.2406507,15.6310231 10.3773163,15.5850417 C10.4813155,15.5498795 10.586648,15.5208031 10.6899805,15.4815837 C10.9713116,15.3727161 11.2453095,15.244915 11.513974,15.1042662 C11.6799727,15.0170369 11.8426381,14.9250742 11.9999702,14.8283781 C12.0766362,14.7803682 12.1506357,14.7289773 12.2259684,14.6789387 C12.3513007,14.5950904 12.4746331,14.5092135 12.5932988,14.4192794 C12.6606316,14.3685647 12.7279644,14.3178499 12.7939639,14.2644304 C12.9446294,14.1433913 13.0892949,14.0176188 13.2292938,13.8864367 C13.2586269,13.8593889 13.2892933,13.8343696 13.3179598,13.8066456 C13.4946251,13.6369203 13.6606237,13.4584045 13.8199558,13.2744791 C13.8479556,13.2420217 13.8746221,13.2075357 13.9019552,13.1744021 C14.0392874,13.0107626 14.1686197,12.8417136 14.2919521,12.6679311 C14.3092853,12.6429119 14.3292851,12.6219498 14.3466183,12.5969305 C14.3599516,12.5773208 14.3712848,12.5563587 14.384618,12.536749 C14.4539508,12.4339672 14.5199503,12.3284806 14.5846165,12.222994 C14.6272828,12.1546982 14.6699491,12.0857262 14.7106155,12.0160779 C14.723282,11.9924111 14.7386152,11.9707728 14.7512818,11.9477821 L14.7486152,11.9464297 C14.7499485,11.9437249 14.7526151,11.9430487 14.7539485,11.940344 C14.7552818,11.936963 14.7539485,11.933582 14.7559484,11.9315534 C15.4152766,10.74821 15.7519406,9.45397038 15.7766071,8.16378795 L15.7732737,8.16446414 C15.7732737,8.16175936 15.7752737,8.15905457 15.7752737,8.15702598 C15.7652738,7.8121659 15.39861,7.54371599 14.9572802,7.55723992 C14.5159503,7.57008764 14.1659531,7.86017583 14.175953,8.20503592 C14.1766197,8.23208377 14.1926195,8.25439824 14.1979528,8.2800937 L14.1886196,8.2807699 C14.1459533,9.28356892 13.8599555,10.279606 13.3386263,11.1958519 C13.335293,11.2019377 13.327293,11.2053186 13.3239597,11.2120806 C13.3219598,11.2161378 13.3226264,11.220195 13.3212931,11.2242521 C13.2812934,11.2939004 13.2419604,11.3635486 13.1992941,11.4318444 C13.0872949,11.6103602 12.9719625,11.7861712 12.8426302,11.9531917 C12.8179637,11.9856491 12.7932973,12.0187827 12.7672975,12.0505639 C12.4239668,12.4792724 12.0206367,12.8647042 11.5646403,13.1973928 C11.5206406,13.229174 11.4759743,13.260279 11.431308,13.2913841 C11.2026431,13.449614 10.964645,13.5970248 10.710647,13.7268544 C10.5186485,13.8235505 10.3246501,13.9087512 10.1293183,13.9851614 C10.0466523,14.0169426 9.96198625,14.0406095 9.87865358,14.0683335 C9.76998777,14.1048481 9.66132196,14.1447437 9.55198949,14.1751725 C9.41732388,14.2130395 9.27999163,14.2407636 9.14332604,14.2684876 C9.08199319,14.2813354 9.02066035,14.2982403 8.95866083,14.3083832 C8.81999526,14.3327263 8.67999637,14.3476026 8.53999747,14.3624789 C8.47666464,14.3692409 8.4133318,14.38006 8.34999897,14.3841172 C8.22466662,14.3935839 8.09866762,14.3935839 7.97266861,14.3956125 C7.89200258,14.3969649 7.81133655,14.4016983 7.73067052,14.3996697 C7.627338,14.3969649 7.52400548,14.3861458 7.42067297,14.3787076 C7.31734045,14.3705933 7.21267461,14.3658599 7.11000875,14.3530122 C7.03067604,14.3428692 6.95201,14.3266405 6.87334395,14.3131166 C6.74801161,14.2928307 6.62267926,14.2725448 6.50001356,14.2448208 C6.43868071,14.2312968 6.37801452,14.2116871 6.31734834,14.1954584 C6.18068275,14.15962 6.0433505,14.1237816 5.90868489,14.0784765 C5.84935203,14.0588668 5.79201915,14.0338475 5.73335294,14.0122092 C5.60135398,13.9628469 5.47002169,13.9155132 5.3420227,13.8580365 C5.23602353,13.8107028 5.13269101,13.7545785 5.0293585,13.701159 C4.95202577,13.6612634 4.87402639,13.6261012 4.79869365,13.5835008 C4.61602842,13.4793666 4.4366965,13.3657656 4.26136455,13.2406693 C4.08536594,13.1162492 3.91803393,12.9823624 3.75870185,12.8430659 C3.72736877,12.8153419 3.69870232,12.7842369 3.66736924,12.7558366 C3.54470354,12.6435881 3.42403782,12.5299871 3.31137205,12.4109765 C3.24070594,12.3352426 3.17603978,12.2527466 3.10870698,12.1736317 C3.0427075,12.0958691 2.97337471,12.0194589 2.91070854,11.9383154 C2.81004267,11.8078095 2.71671007,11.6698655 2.62604412,11.5298928 C2.60271097,11.4947306 2.57671118,11.461597 2.55471135,11.4257586 C2.44271223,11.2458904 2.33737973,11.0585841 2.24138049,10.8631633 C2.14538124,10.669095 2.06138191,10.4723219 1.98671583,10.2735202 C1.9560494,10.1923767 1.93338292,10.1078521 1.9060498,10.0253562 C1.86938342,9.91310763 1.82938374,9.80085905 1.79871731,9.68793428 C1.7627176,9.55337122 1.73605114,9.41610339 1.70871802,9.27951175 C1.69538479,9.2152731 1.67871826,9.15035826 1.66738501,9.08679582 C1.6433852,8.946147 1.62938531,8.80549818 1.61471876,8.66484936 C1.60805215,8.59993452 1.59805223,8.53434349 1.59271894,8.46875245 C1.58405234,8.34230375 1.58338568,8.21517886 1.58138569,8.08873016 C1.58071903,8.00623422 1.5760524,7.92306208 1.57805239,7.84056614 C1.58071903,7.73643192 1.59071895,7.6322977 1.59871889,7.52883967 C1.60605216,7.42267686 1.61138546,7.31583786 1.62405202,7.21102744 C1.63405194,7.13123628 1.65005182,7.05144513 1.66271838,6.97165397 C1.68338489,6.84452908 1.70271807,6.71808038 1.73071785,6.59230788 C1.74405108,6.53009782 1.76405092,6.46788777 1.77938413,6.40635391 C1.81471719,6.26773368 1.84938358,6.12911345 1.89404989,5.99252181 C1.91338307,5.93234035 1.93871621,5.87418747 1.96071603,5.8146822 C2.00804899,5.68079534 2.05538195,5.54758468 2.11204817,5.4184312 C2.15738115,5.31294459 2.21138072,5.21151515 2.26338031,5.10873332 C2.30338,5.02826597 2.33937971,4.94577003 2.38271271,4.86597887 C2.48537856,4.6813773 2.59737768,4.49948051 2.72004338,4.32231709 C2.8440424,4.14380128 2.97470804,3.97407603 3.11204029,3.81246512 C3.1393734,3.7806839 3.17003983,3.75160746 3.19737295,3.72050244 C3.30803874,3.59540613 3.42070452,3.47301461 3.53870359,3.35873745 C3.612703,3.28773684 3.69270237,3.222822 3.7700351,3.15452618 C3.84803448,3.08623036 3.92403388,3.01590595 4.00403325,2.95166731 C4.13203224,2.85159026 4.26669784,2.75759899 4.40336343,2.6656363 C4.43936315,2.64196943 4.47336288,2.61424538 4.5093626,2.59057851 C4.68736119,2.47697755 4.87269306,2.37081474 5.06469155,2.27276628 C5.25535671,2.17607022 5.44935518,2.09086949 5.64468697,2.01513551 C5.72801965,1.98335429 5.81335231,1.95901122 5.89801831,1.93128718 C6.00601746,1.89409638 6.11401661,1.854877 6.22268242,1.82444817 C6.3560147,1.78793357 6.49134696,1.76020953 6.62734589,1.73248548 C6.69001206,1.71896156 6.75267824,1.70205665 6.81601107,1.69123751 C6.95467664,1.66689445 7.09400888,1.65201813 7.23400777,1.63781801 C7.29734061,1.63037985 7.3613401,1.62023691 7.42467293,1.61550353 C7.55000528,1.60603679 7.67600429,1.60603679 7.80200329,1.6040082 C7.88266932,1.6026558 7.96333535,1.59792243 8.04400138,1.59995102 C8.1473339,1.6026558 8.25066642,1.61347494 8.3546656,1.6209131 C8.45799812,1.62902746 8.56133064,1.63376083 8.66466315,1.64728476 C8.74466252,1.6567515 8.82399523,1.67433261 8.9039946,1.68718033 C9.02799362,1.70746622 9.15199264,1.72707591 9.27465834,1.75479996 C9.33732451,1.76900008 9.39932403,1.78928597 9.46132354,1.80551468 C9.59732246,1.84135308 9.73265473,1.87583909 9.86532035,1.92046804 C9.9266532,1.94075393 9.98665273,1.96712558 10.0466523,1.98944006 C10.1766512,2.03812618 10.3066502,2.08478373 10.4326492,2.14158421 C10.539315,2.18891795 10.6433142,2.24571843 10.7479801,2.29981413 C10.8239795,2.33970971 10.9019788,2.37419572 10.9759783,2.41611988 C11.1586435,2.5209303 11.3379754,2.63453127 11.5133074,2.75895138 L11.5146407,2.75895138 C12.1233025,3.19171697 12.657965,3.74214072 13.0939615,4.39128911 L13.3072932,4.63539595 L13.0012956,4.63539595 L11.047311,4.47851842 C10.7659799,4.45620395 10.4839821,4.66852957 10.4186493,4.95388438 C10.3526498,5.238563 10.5279818,5.48807941 10.8099796,5.51039389 L14.427951,5.80115827 L14.4219511,5.78628196 C14.6892823,5.79507251 14.9586135,5.61993768 15.0299463,5.35419256" id="path-1"></path>
    </defs>
    <g id="Icons/16px/Interface/Refresh" stroke="none" stroke-width="1" fill="none" fill-rule="evenodd">
        <mask id="mask-2" fill="white">
            <use xlink:href="#path-1"></use>
        </mask>
        <use id="Mask" fill="#0C2340" xlink:href="#path-1"></use>
        <g id="Group" mask="url(#mask-2)" fill="#333333">
            <g id="Color/Grayscale/80%">
                <rect id="Rectangle" x="0" y="0" width="16" height="16"></rect>
            </g>
        </g>
    </g>
</svg>