<?xml version="1.0" encoding="UTF-8"?>
<svg width="16px" height="16px" viewBox="0 0 16 16" version="1.1" xmlns="http://www.w3.org/2000/svg" xmlns:xlink="http://www.w3.org/1999/xlink">
    <title>Icons/16px/Digital/Documents/Register</title>
    <defs>
        <path d="M12.5546683,9.41369593 L13.9647836,10.8546308 C14.0696928,10.9618329 14.0697123,11.1356877 13.9648271,11.2429143 L9.60945248,15.695515 L7.82612776,15.9974859 C7.65052002,16.0216312 7.50058024,15.8683443 7.52419837,15.6888164 C7.69337538,14.5017497 7.7918391,13.8940335 7.81958954,13.8656677 L12.1749641,9.41372593 C12.2798177,9.30654752 12.4497985,9.30653409 12.5546683,9.41369593 Z M8.98913043,-1.13908882e-13 L8.98913043,3.33333333 C8.98913043,3.57879322 9.16216048,3.7829417 9.39033906,3.82527766 L9.47826087,3.83333333 L13.391,3.833 L13.3913043,6.26356543 C13.3913043,6.63175526 5.79005093,14.6666667 5.42986522,14.6666667 L1.65217391,14.6666667 C1.29198821,14.6666667 1,14.3681898 1,14 L1,0.666666667 C1,0.298476833 1.29198821,-1.13686838e-13 1.65217391,-1.13686838e-13 L8.98913043,-1.13908882e-13 Z M6.85022213,9.74041378 L3.27927542,9.74041378 C3.10102348,9.74041378 2.95652174,9.9642714 2.95652174,10.2404138 C2.95652174,10.4858737 3.07069596,10.6900221 3.22126004,10.7323581 L3.27927542,10.7404138 L6.85022213,10.7404138 C7.02847406,10.7404138 7.17297581,10.5165562 7.17297581,10.2404138 C7.17297581,9.9642714 7.02847406,9.74041378 6.85022213,9.74041378 Z M14.6976974,7.40367779 L15.9311996,8.66486376 C16.0229537,8.75867702 16.0229305,8.91078568 15.9311479,9.00456972 L15.0257527,9.92970842 C14.9340254,10.023436 14.7853647,10.0234297 14.6936449,9.92969436 L13.4601427,8.6690848 C13.3683731,8.57529848 13.3683561,8.42320067 13.4601047,8.3293929 L14.3654999,7.40367779 C14.4572337,7.30988518 14.6059636,7.30988518 14.6976974,7.40367779 Z M8.96955189,7.38265941 L3.27927542,7.38265941 C3.10102348,7.38265941 2.95652174,7.60651703 2.95652174,7.88265941 C2.95652174,8.1281193 3.07069596,8.33226778 3.22126004,8.37460374 L3.27927542,8.38265941 L8.96955189,8.38265941 C9.14780382,8.38265941 9.29230557,8.15880178 9.29230557,7.88265941 C9.29230557,7.60651703 9.14780382,7.38265941 8.96955189,7.38265941 Z M8.96955189,5.02482437 L3.27927542,5.02482437 C3.10102348,5.02482437 2.95652174,5.248682 2.95652174,5.52482437 C2.95652174,5.77028426 3.07069596,5.97443274 3.22126004,6.0167687 L3.27927542,6.02482437 L8.96955189,6.02482437 C9.14780382,6.02482437 9.29230557,5.80096675 9.29230557,5.52482437 C9.29230557,5.248682 9.14780382,5.02482437 8.96955189,5.02482437 Z M6.01054616,2.66666667 L3.27927542,2.66666667 C3.10102348,2.66666667 2.95652174,2.89052429 2.95652174,3.16666667 C2.95652174,3.41212656 3.07069596,3.61627504 3.22126004,3.658611 L3.27927542,3.66666667 L6.01054616,3.66666667 C6.18879809,3.66666667 6.33329984,3.44280904 6.33329984,3.16666667 C6.33329984,2.89052429 6.18879809,2.66666667 6.01054616,2.66666667 Z M9.96757195,0.0276625773 C10.0695557,0.0586715942 10.163518,0.115008204 10.240486,0.192900023 L12.849,2.833 L9.9673913,2.83333333 L9.96757195,0.0276625773 Z" id="path-1"></path>
    </defs>
    <g id="Icons/16px/Digital/Documents/Register" stroke="none" stroke-width="1" fill="none" fill-rule="evenodd">
        <mask id="mask-2" fill="white">
            <use xlink:href="#path-1"></use>
        </mask>
        <use id="Mask" fill="#0C2340" fill-rule="nonzero" xlink:href="#path-1"></use>
        <g id="Group" mask="url(#mask-2)" fill="#333333">
            <g id="Color/Grayscale/80%">
                <rect id="Rectangle" x="0" y="0" width="16" height="16"></rect>
            </g>
        </g>
    </g>
</svg>