<?xml version="1.0" encoding="UTF-8"?>
<svg width="16px" height="16px" viewBox="0 0 16 16" version="1.1" xmlns="http://www.w3.org/2000/svg" xmlns:xlink="http://www.w3.org/1999/xlink">
    <title>Icons/16px/Travel &amp; Airport/Restrooms</title>
    <defs>
        <path d="M4.41913935,3.9021153 C4.91450043,3.9021153 5.1466306,4.32129134 5.1466306,4.48004059 L5.1466306,4.48004059 L6.14161863,8.10534622 C6.20711784,8.3525951 6.06161959,8.60843954 5.82212247,8.67518157 C5.58012538,8.74445171 5.33212837,8.59782149 5.26562917,8.3525951 L5.26562917,8.3525951 L4.4236393,5.29307985 L4.1076431,5.29307985 L5.46662675,10.5606439 L4.50063837,10.5606439 L4.50063837,14.4458389 C4.50063837,14.7527511 4.2576413,15 3.95714491,15 C3.65514855,15 3.41015149,14.7527511 3.41015149,14.4458389 L3.41015149,14.4458389 L3.41015149,10.5606439 L2.8361584,10.5606439 L2.8361584,14.4458389 C2.8361584,14.7527511 2.59166134,15 2.28816499,15 C1.98716862,15 1.7471715,14.7527511 1.7471715,14.4458389 L1.7471715,14.4458389 L1.7471715,10.5606439 L0.673684422,10.5606439 L2.02666814,5.2895405 L1.7306717,5.29307985 L0.894681762,8.3525951 C0.827182575,8.59782149 0.574185619,8.74445171 0.333688513,8.67518157 C0.0926914128,8.60843954 -0.0508068605,8.3525951 0.0166923273,8.10534622 L0.0166923273,8.10534622 L1.00968038,4.48004059 C1.04763848,4.2922294 1.26680437,3.9021153 1.75967135,3.9021153 L1.75967135,3.9021153 Z M8.58178926,1.2469455 L8.58178926,14.8876004 L7.67830014,14.8876004 L7.67830014,1.2469455 L8.58178926,1.2469455 Z M15.1290105,3.7963393 C15.5585053,3.7963393 16,4.093757 16,4.6953342 L16,4.6953342 L16,9.00272313 C16,9.42137767 15.749003,9.56952475 15.4430067,9.56952475 C15.1355104,9.56952475 14.9765123,9.30963534 14.9765123,9.00272313 L14.9765123,9.00272313 L14.9765123,5.68635219 L14.6230166,5.68635219 L14.6230166,14.3077031 C14.6230166,14.6156266 14.3750196,14.8704598 14.0645233,14.8704598 C13.757527,14.8704598 13.5115299,14.6156266 13.5115299,14.3077031 L13.5115299,14.3077031 L13.5115299,9.47901852 L12.9620366,9.47901852 L12.9620366,14.3077031 C12.9620366,14.6156266 12.7085396,14.8704598 12.3995433,14.8704598 C12.093547,14.8704598 11.84555,14.6156266 11.84555,14.3077031 L11.84555,14.3077031 L11.84555,5.68635219 L11.4960542,5.68635219 L11.5065541,8.98957698 C11.5065541,9.30002853 11.3300562,9.55536735 11.0300598,9.55536735 C10.7195635,9.55536735 10.5075661,9.42137767 10.4685666,8.98957698 L10.4685666,8.98957698 L10.4685666,4.6599407 C10.4685666,4.18313969 10.851562,3.7963393 11.3210563,3.7963393 L11.3210563,3.7963393 Z M3.13665478,1.10623106 C3.80464675,1.10623106 4.34964019,1.6523022 4.34964019,2.3247787 C4.34964019,2.99826644 3.80464675,3.54636007 3.13665478,3.54636007 C2.47266277,3.54636007 1.92866932,2.99826644 1.92866932,2.3247787 C1.92866932,1.6523022 2.47266277,1.10623106 3.13665478,1.10623106 Z M13.2187835,1 C13.8787755,1 14.421769,1.54657676 14.421769,2.22057012 C14.421769,2.89456349 13.8787755,3.44063463 13.2187835,3.44063463 C12.5477915,3.44063463 12.0057981,2.89456349 12.0057981,2.22057012 C12.0057981,1.54657676 12.5477915,1 13.2187835,1 Z" id="path-1"></path>
    </defs>
    <g id="Icons/16px/Travel-&amp;-Airport/Restrooms" stroke="none" stroke-width="1" fill="none" fill-rule="evenodd">
        <mask id="mask-2" fill="white">
            <use xlink:href="#path-1"></use>
        </mask>
        <use id="Mask" fill="#0C2340" fill-rule="nonzero" xlink:href="#path-1"></use>
        <g id="Group" mask="url(#mask-2)" fill="#333333">
            <g id="Color/Grayscale/80%">
                <rect id="Rectangle" x="0" y="0" width="16" height="16"></rect>
            </g>
        </g>
    </g>
</svg>