<?xml version="1.0" encoding="UTF-8"?>
<svg width="16px" height="16px" viewBox="0 0 16 16" version="1.1" xmlns="http://www.w3.org/2000/svg" xmlns:xlink="http://www.w3.org/1999/xlink">
    <title>Icons/16px/Travel &amp; Airport/Scan container</title>
    <defs>
        <path d="M0.5,11.519 C0.776142375,11.519 1,11.7428576 1,12.019 L1,14.3913043 C1,14.6881517 1.21249174,14.935369 1.49366533,14.9891463 L1.60869565,15 L4.3,15 C4.57614237,15 4.8,15.2238576 4.8,15.5 C4.8,15.7761424 4.57614237,16 4.3,16 L1.28,16 C0.57307552,16 0,15.4269245 0,14.72 L0,12.019 C-3.38176876e-17,11.7428576 0.223857625,11.519 0.5,11.519 Z M15.5,11.519 C15.7761424,11.519 16,11.7428576 16,12.019 L16,14.72 C16,15.4269245 15.4269245,16 14.72,16 L11.7,16 C11.4238576,16 11.2,15.7761424 11.2,15.5 C11.2,15.2238576 11.4238576,15 11.7,15 L14.3913043,15 C14.6881517,15 14.935369,14.7875083 14.9891463,14.5063347 L15,14.3913043 L15,12.019 C15,11.7428576 15.2238576,11.519 15.5,11.519 Z M11.8958333,11.2083333 C12.5286596,11.2083333 13.0416667,11.7213404 13.0416667,12.3541667 C13.0416667,12.9869929 12.5286596,13.5 11.8958333,13.5 C11.2630071,13.5 10.75,12.9869929 10.75,12.3541667 C10.75,11.7213404 11.2630071,11.2083333 11.8958333,11.2083333 Z M4.10416667,11.2083333 C4.73699294,11.2083333 5.25,11.7213404 5.25,12.3541667 C5.25,12.9869929 4.73699294,13.5 4.10416667,13.5 C3.47134039,13.5 2.95833333,12.9869929 2.95833333,12.3541667 C2.95833333,11.7213404 3.47134039,11.2083333 4.10416667,11.2083333 Z M12.5833333,2.5 C13.0895944,2.5 13.5,2.91040565 13.5,3.41666667 L13.5,9.83333333 C13.5,10.3395944 13.0895944,10.75 12.5833333,10.75 L3.41666667,10.75 C2.91040565,10.75 2.5,10.3395944 2.5,9.83333333 L2.5,3.41666667 C2.5,2.91040565 2.91040565,2.5 3.41666667,2.5 L12.5833333,2.5 Z M14.72,0 C15.4269245,0 16,0.57307552 16,1.28 L16,4.619 C16,4.89514237 15.7761424,5.119 15.5,5.119 C15.2238576,5.119 15,4.89514237 15,4.619 L15,1.60869565 C15,1.27886522 14.7376645,1.01030652 14.4102636,1.00028965 L11.7,1.00004511 C11.4238503,1.0000202 11.2,0.776149672 11.2,0.5 C11.2,0.223857625 11.4238576,5.07265313e-17 11.7,0 L14.72,0 Z M4.3,0 C4.57614237,-5.07265313e-17 4.8,0.223857625 4.8,0.5 C4.8,0.776142375 4.57614237,1 4.3,1 L1.60869565,1 C1.27886522,1 1.01030652,1.26233548 1.00028965,1.58973636 L1.00004104,4.619 C1.00001837,4.89514901 0.776149013,5.119 0.5,5.119 C0.223857625,5.119 1.81017453e-15,4.89514237 0,4.619 L0,1.28 C0,0.57307552 0.57307552,0 1.28,0 L4.3,0 Z" id="path-1"></path>
    </defs>
    <g id="Icons/16px/Travel-&amp;-Airport/Scan-container" stroke="none" stroke-width="1" fill="none" fill-rule="evenodd">
        <g id="Icon">
            <mask id="mask-2" fill="white">
                <use xlink:href="#path-1"></use>
            </mask>
            <use id="Mask" fill="#949494" fill-rule="nonzero" xlink:href="#path-1"></use>
            <g id="Group" mask="url(#mask-2)" fill="#333333">
                <g id="Color/Grayscale/80%">
                    <rect id="Rectangle" x="0" y="0" width="16" height="16"></rect>
                </g>
            </g>
        </g>
    </g>
</svg>