<?xml version="1.0" encoding="UTF-8"?>
<svg width="16px" height="16px" viewBox="0 0 16 16" version="1.1" xmlns="http://www.w3.org/2000/svg" xmlns:xlink="http://www.w3.org/1999/xlink">
    <title>Icons/16px/Travel &amp; Airport/Scan</title>
    <defs>
        <path d="M0.5,11.519 C0.776142375,11.519 1,11.7428576 1,12.019 L1,14.3913043 C1,14.6881517 1.21249174,14.935369 1.49366533,14.9891463 L1.60869565,15 L4.3,15 C4.57614237,15 4.8,15.2238576 4.8,15.5 C4.8,15.7761424 4.57614237,16 4.3,16 L1.28,16 C0.57307552,16 0,15.4269245 0,14.72 L0,12.019 C-3.38176876e-17,11.7428576 0.223857625,11.519 0.5,11.519 Z M15.5,11.519 C15.7761424,11.519 16,11.7428576 16,12.019 L16,14.72 C16,15.4269245 15.4269245,16 14.72,16 L11.7,16 C11.4238576,16 11.2,15.7761424 11.2,15.5 C11.2,15.2238576 11.4238576,15 11.7,15 L14.3913043,15 C14.6881517,15 14.935369,14.7875083 14.9891463,14.5063347 L15,14.3913043 L15,12.019 C15,11.7428576 15.2238576,11.519 15.5,11.519 Z M3.04166667,4 L3.04166667,12 L2.66666667,12 L2.66666667,4 L3.04166667,4 Z M13.3333333,4 L13.3333333,12 L12.9583333,12 L12.9583333,4 L13.3333333,4 Z M3.41666667,4 L3.41666667,11.9943125 L3.2261875,11.9943125 L3.2261875,4 L3.41666667,4 Z M3.9761875,4 L3.9761875,11.9943125 L3.79166667,11.9943125 L3.79166667,4 L3.9761875,4 Z M4.91070833,4 L4.91070833,11.9943125 L4.7261875,11.9943125 L4.7261875,4 L4.91070833,4 Z M5.84522917,4 L5.84522917,11.9943125 L5.4761875,11.9943125 L5.4761875,4 L5.84522917,4 Z M6.59522917,4 L6.59522917,11.9943125 L6.41070833,11.9943125 L6.41070833,4 L6.59522917,4 Z M6.97022917,4 L6.97022917,11.9943125 L6.78570833,11.9943125 L6.78570833,4 L6.97022917,4 Z M7.34522917,4 L7.34522917,11.9943125 L7.16070833,11.9943125 L7.16070833,4 L7.34522917,4 Z M8.27977083,4 L8.27977083,11.9943125 L7.90477083,11.9943125 L7.90477083,4 L8.27977083,4 Z M9.21429167,4 L9.21429167,11.9943125 L8.83929167,11.9943125 L8.83929167,4 L9.21429167,4 Z M9.96429167,4 L9.96429167,11.9943125 L9.58927083,11.9943125 L9.58927083,4 L9.96429167,4 Z M10.7143125,4 L10.7143125,11.9943125 L10.3392917,11.9943125 L10.3392917,4 L10.7143125,4 Z M11.2738125,4 L11.2738125,11.9943125 L10.8988125,11.9943125 L10.8988125,4 L11.2738125,4 Z M12.3988125,4 L12.3988125,11.9943125 L11.8392917,11.9943125 L11.8392917,4 L12.3988125,4 Z M12.7738125,4 L12.7738125,11.9943125 L12.5833333,11.9943125 L12.5833333,4 L12.7738125,4 Z M14.72,0 C15.4269245,0 16,0.57307552 16,1.28 L16,4.619 C16,4.89514237 15.7761424,5.119 15.5,5.119 C15.2238576,5.119 15,4.89514237 15,4.619 L15,1.60869565 C15,1.27886522 14.7376645,1.01030652 14.4102636,1.00028965 L11.7,1.00004511 C11.4238503,1.0000202 11.2,0.776149672 11.2,0.5 C11.2,0.223857625 11.4238576,5.07265313e-17 11.7,0 L14.72,0 Z M4.3,0 C4.57614237,-5.07265313e-17 4.8,0.223857625 4.8,0.5 C4.8,0.776142375 4.57614237,1 4.3,1 L1.60869565,1 C1.27886522,1 1.01030652,1.26233548 1.00028965,1.58973636 L1.00004104,4.619 C1.00001837,4.89514901 0.776149013,5.119 0.5,5.119 C0.223857625,5.119 1.81017453e-15,4.89514237 0,4.619 L0,1.28 C0,0.57307552 0.57307552,0 1.28,0 L4.3,0 Z" id="path-1"></path>
    </defs>
    <g id="Icons/16px/Travel-&amp;-Airport/Scan" stroke="none" stroke-width="1" fill="none" fill-rule="evenodd">
        <g id="Icon">
            <mask id="mask-2" fill="white">
                <use xlink:href="#path-1"></use>
            </mask>
            <use id="Mask" fill="#949494" fill-rule="nonzero" xlink:href="#path-1"></use>
            <g id="Group" mask="url(#mask-2)" fill="#333333">
                <g id="Color/Grayscale/80%">
                    <rect id="Rectangle" x="0" y="0" width="16" height="16"></rect>
                </g>
            </g>
        </g>
    </g>
</svg>