<?xml version="1.0" encoding="UTF-8"?>
<svg width="16px" height="16px" viewBox="0 0 16 16" version="1.1" xmlns="http://www.w3.org/2000/svg" xmlns:xlink="http://www.w3.org/1999/xlink">
    <title>Icons/16px/Travel &amp; Airport/Scan bag</title>
    <defs>
        <path d="M0.5,11.519 C0.776142375,11.519 1,11.7428576 1,12.019 L1,14.3913043 C1,14.6881517 1.21249174,14.935369 1.49366533,14.9891463 L1.60869565,15 L4.3,15 C4.57614237,15 4.8,15.2238576 4.8,15.5 C4.8,15.7761424 4.57614237,16 4.3,16 L1.28,16 C0.57307552,16 0,15.4269245 0,14.72 L0,12.019 C-3.38176876e-17,11.7428576 0.223857625,11.519 0.5,11.519 Z M15.5,11.519 C15.7761424,11.519 16,11.7428576 16,12.019 L16,14.72 C16,15.4269245 15.4269245,16 14.72,16 L11.7,16 C11.4238576,16 11.2,15.7761424 11.2,15.5 C11.2,15.2238576 11.4238576,15 11.7,15 L14.3913043,15 C14.6881517,15 14.935369,14.7875083 14.9891463,14.5063347 L15,14.3913043 L15,12.019 C15,11.7428576 15.2238576,11.519 15.5,11.519 Z M10.1778689,5.14822574 L10.1778689,13.3333333 L5.82240662,13.3333333 L5.82240662,5.14822574 L10.1778689,5.14822574 Z M5.27123644,5.14822574 L5.27123644,13.3333333 L3.86644415,13.3333333 C3.24592304,13.3333333 2.73438708,12.875831 2.672869,12.290418 L2.66666667,12.1717275 L2.66666667,6.30983155 C2.66666667,6.11623058 2.71571591,5.93969637 2.79562759,5.78076224 C2.97567688,5.44380055 3.32134176,5.20101534 3.72856564,5.15582791 L3.86644415,5.14822574 L5.27123644,5.14822574 Z M12.1330047,5.14822574 C12.6003503,5.14822574 13.0043176,5.40636037 13.2043724,5.78076224 C13.2643062,5.89996283 13.3068798,6.02906348 13.3244208,6.16783917 L13.3333333,6.30983155 L13.3333333,12.1717275 C13.3333333,12.7727305 12.8605799,13.2677955 12.2556518,13.327331 L12.1330047,13.3333333 L10.7287636,13.3333333 L10.7287636,5.14822574 L12.1330047,5.14822574 Z M14.72,0 C15.4269245,0 16,0.57307552 16,1.28 L16,4.619 C16,4.89514237 15.7761424,5.119 15.5,5.119 C15.2238576,5.119 15,4.89514237 15,4.619 L15,1.60869565 C15,1.27886522 14.7376645,1.01030652 14.4102636,1.00028965 L11.7,1.00004511 C11.4238503,1.0000202 11.2,0.776149672 11.2,0.5 C11.2,0.223857625 11.4238576,5.07265313e-17 11.7,0 L14.72,0 Z M4.3,0 C4.57614237,-5.07265313e-17 4.8,0.223857625 4.8,0.5 C4.8,0.776142375 4.57614237,1 4.3,1 L1.60869565,1 C1.27886522,1 1.01030652,1.26233548 1.00028965,1.58973636 L1.00004104,4.619 C1.00001837,4.89514901 0.776149013,5.119 0.5,5.119 C0.223857625,5.119 1.81017453e-15,4.89514237 0,4.619 L0,1.28 C0,0.57307552 0.57307552,0 1.28,0 L4.3,0 Z M8.00002756,2.66666667 C9.16419251,2.66666667 10.138404,3.38842387 10.3785095,4.35647967 L10.4089515,4.50347585 L9.73328442,4.50347585 C9.56023429,3.82347245 8.84929586,3.31146989 8.00002756,3.31146989 C7.20435519,3.31146989 6.52929306,3.76147214 6.30542947,4.37802796 L6.26677069,4.50347585 L5.59110363,4.50347585 C5.76415375,3.46240398 6.77765435,2.66666667 8.00002756,2.66666667 Z" id="path-1"></path>
    </defs>
    <g id="Icons/16px/Travel-&amp;-Airport/Scan-bag" stroke="none" stroke-width="1" fill="none" fill-rule="evenodd">
        <g id="Icon">
            <mask id="mask-2" fill="white">
                <use xlink:href="#path-1"></use>
            </mask>
            <use id="Mask" fill="#949494" fill-rule="nonzero" xlink:href="#path-1"></use>
            <g id="Group" mask="url(#mask-2)" fill="#333333">
                <g id="Color/Grayscale/80%">
                    <rect id="Rectangle" x="0" y="0" width="16" height="16"></rect>
                </g>
            </g>
        </g>
    </g>
</svg>