<?xml version="1.0" encoding="UTF-8"?>
<svg width="16px" height="16px" viewBox="0 0 16 16" version="1.1" xmlns="http://www.w3.org/2000/svg" xmlns:xlink="http://www.w3.org/1999/xlink">
    <title>Icons/16px/Weather/Scattered snow</title>
    <defs>
        <path d="M7.17429048,9.73354423 C7.37963272,9.73354423 7.54390651,9.89609442 7.54390651,10.0985521 L7.54390651,11.9819929 L8.89015025,10.6504441 C8.96527546,10.5813359 9.05742905,10.5433751 9.15459098,10.5433751 C9.25275459,10.5433751 9.34691152,10.5813359 9.41702838,10.6494707 C9.48714524,10.7195523 9.52420701,10.8091009 9.52420701,10.908383 C9.52420701,11.0047451 9.48313856,11.0962404 9.41602671,11.1634019 L8.06577629,12.5017642 L9.97495826,12.5017642 C10.1782972,12.5017642 10.3435726,12.6652877 10.3435726,12.8677455 C10.3435726,13.0672831 10.1782972,13.2308067 9.97495826,13.2308067 L8.06577629,13.2308067 L9.41702838,14.569169 C9.4851419,14.6402239 9.52420701,14.7287991 9.52420701,14.8241879 C9.52420701,14.9195766 9.4851419,15.0120453 9.41702838,15.0811534 C9.34691152,15.1512349 9.25475793,15.1911425 9.15459098,15.1911425 C9.05742905,15.1911425 8.96327212,15.1522083 8.89015025,15.0831001 L7.54390651,13.7486312 L7.54390651,15.6359654 C7.54390651,15.8355031 7.37963272,16 7.17429048,16 C6.97095159,16 6.80567613,15.8355031 6.80567613,15.6359654 L6.80567613,13.7486312 L5.45742905,15.0831001 C5.38731219,15.1512349 5.29315526,15.1911425 5.19398998,15.1911425 C5.09682805,15.1911425 5.00066778,15.1512349 4.93255426,15.0811534 C4.86444073,15.0120453 4.82537563,14.92347 4.82537563,14.8261346 C4.82537563,14.7249057 4.8624374,14.6382772 4.93055092,14.569169 L6.28580968,13.2308067 L4.37662771,13.2308067 C4.17328881,13.2308067 4.00500835,13.0672831 4.00500835,12.8677455 C4.00500835,12.6652877 4.17328881,12.5017642 4.37662771,12.5017642 L6.28580968,12.5017642 L4.93255426,11.1624285 C4.8624374,11.0952671 4.82537563,11.0047451 4.82537563,10.908383 C4.82537563,10.8091009 4.8624374,10.721499 4.93255426,10.6533642 C5.00066778,10.5832826 5.09482471,10.5453218 5.19398998,10.5453218 C5.29315526,10.5453218 5.38731219,10.5823093 5.45742905,10.6514174 L6.80567613,11.9819929 L6.80567613,10.0985521 C6.80567613,9.89609442 6.97095159,9.73354423 7.17429048,9.73354423 Z M5.4033389,4.86677211 C5.87813022,4.86677211 6.33989983,4.94366711 6.77762938,5.08772357 C7.01602671,5.16364521 7.25041736,5.25903395 7.47178631,5.37486312 C7.8524207,5.57634749 8.20400668,5.83428641 8.51752922,6.14575982 C8.8,6.42413919 9.04140234,6.7356126 9.23572621,7.07433994 L9.23572621,7.07433994 L9.31986644,7.22228982 L9.49015025,7.19114247 C9.68948247,7.15610172 9.89282137,7.13663463 10.0941569,7.13663463 C10.7562604,7.13663463 11.3712855,7.33422557 11.8861436,7.67100621 C12.1025042,7.8121426 12.296828,7.97761285 12.4721202,8.16352354 C13.0170284,8.74169607 13.3535893,9.51356613 13.3535893,10.3633045 C13.3535893,11.4748753 12.7786311,12.4492031 11.9111853,13.0283489 L11.9111853,13.0283489 L11.4764608,12.4521231 C12.163606,12.0043801 12.6213689,11.2373768 12.6213689,10.3633045 C12.6213689,8.98308797 11.4874791,7.85983696 10.0941569,7.85983696 C9.67846411,7.85983696 9.27479132,7.96009247 8.90918197,8.14989658 C8.44040067,6.64995742 7.01602671,5.59289451 5.4033389,5.59289451 C3.3769616,5.59289451 1.73021703,7.22423653 1.73021703,9.22934664 C1.73021703,10.2941964 2.19699499,11.2490571 2.93522538,11.9148315 L2.93522538,11.9148315 L2.46944908,12.4579633 C2.41135225,12.4063755 2.34624374,12.3684146 2.28914858,12.3139068 C1.45876461,11.4885023 1,10.3934785 1,9.22934664 C1,8.06424139 1.45876461,6.96921767 2.28914858,6.14575982 C3.12153589,5.32132863 4.22737896,4.86677211 5.4033389,4.86677211 Z M9.31185309,2.92006327 C11.1088481,2.92006327 12.5692821,4.36646794 12.5692821,6.14575982 C12.5692821,6.38033824 12.5422371,6.60810318 12.4911519,6.83197469 C12.3439065,6.69765178 12.2006678,6.55554204 12.036394,6.45041976 C11.9682805,6.4046721 11.8941569,6.37255141 11.8230384,6.33167052 C11.8280467,6.26937584 11.8380634,6.20902786 11.8380634,6.14575982 C11.8380634,4.76554325 10.7041736,3.64229225 9.31185309,3.64229225 C8.71585977,3.64229225 8.15492487,3.85156345 7.71218698,4.21462465 C7.66510851,4.18737073 7.62103506,4.15232997 7.57295492,4.12507604 C7.39866444,4.03552744 7.20233723,3.96252585 7.01001669,3.89147098 C7.61202003,3.28896459 8.43238731,2.92006327 9.31185309,2.92006327 Z M15.654424,5.98369631 C15.8447412,5.98369631 16,6.13748631 16,6.32826378 C16,6.51612118 15.8447412,6.66991118 15.654424,6.66991118 L15.654424,6.66991118 L14.3672788,6.66991118 C14.1749583,6.66991118 14.0217028,6.51612118 14.0217028,6.32826378 C14.0217028,6.13748631 14.1749583,5.98369631 14.3672788,5.98369631 L14.3672788,5.98369631 Z M14.0471233,2.0504194 C14.1833504,1.91512314 14.4067227,1.91220307 14.5399447,2.04165921 C14.6791768,2.1720887 14.6791768,2.38622668 14.5409464,2.5224963 L14.5409464,2.5224963 L13.6144021,3.44036952 C13.4801784,3.57371907 13.2598112,3.5795592 13.1215808,3.447183 C12.9873571,3.31870021 12.9853537,3.10261553 13.1205791,2.96829262 L13.1205791,2.96829262 Z M5.10522576,2.04295774 C5.2414528,1.91350161 5.46282175,1.91447496 5.60005046,2.04685116 L5.60005046,2.04685116 L6.53560973,2.95596419 C6.67183677,3.0902871 6.67684512,3.30345172 6.54061808,3.43485457 C6.4053927,3.56625742 6.18402375,3.56625742 6.04579337,3.43096115 L6.04579337,3.43096115 L5.1102341,2.52282148 C4.97300539,2.38947192 4.97300539,2.17436059 5.10522576,2.04295774 Z M9.51469115,4.61852778e-14 C9.70601002,4.61852778e-14 9.86026711,0.152816644 9.86026711,0.341647402 L9.86026711,0.341647402 L9.86026711,1.62744859 C9.86026711,1.81627935 9.70601002,1.969096 9.51469115,1.969096 C9.32537563,1.969096 9.16811352,1.81627935 9.16811352,1.62744859 L9.16811352,1.62744859 L9.16811352,0.341647402 C9.16811352,0.152816644 9.32537563,4.61852778e-14 9.51469115,4.61852778e-14 Z" id="path-1"></path>
    </defs>
    <g id="Icons/16px/Weather/Scattered-snow" stroke="none" stroke-width="1" fill="none" fill-rule="evenodd">
        <mask id="mask-2" fill="white">
            <use xlink:href="#path-1"></use>
        </mask>
        <use id="Mask" fill="#0C2340" fill-rule="nonzero" xlink:href="#path-1"></use>
        <g id="Group" mask="url(#mask-2)" fill="#333333">
            <g id="Color/Grayscale/80%">
                <rect id="Rectangle" x="0" y="0" width="16" height="16"></rect>
            </g>
        </g>
    </g>
</svg>