<?xml version="1.0" encoding="UTF-8"?>
<svg width="16px" height="16px" viewBox="0 0 16 16" version="1.1" xmlns="http://www.w3.org/2000/svg" xmlns:xlink="http://www.w3.org/1999/xlink">
    <title>Icons/16px/Weather/Scattered showers</title>
    <defs>
        <path d="M7.00273008,10.0294615 L8.68647173,12.9931674 C8.87455995,13.2930483 8.98117681,13.6490942 8.98117681,14.025199 C8.98117681,15.1154015 8.09504993,16 7.00273008,16 C5.90940441,16 5.02327753,15.1154015 5.02327753,14.025199 C5.02327753,13.6490942 5.13090021,13.2930483 5.31395934,12.9931674 L5.31395934,12.9931674 L7.00273008,10.0294615 Z M5.29384295,4.01178462 C5.75651986,4.01178462 6.20712695,4.08800853 6.63460019,4.23243277 C6.86694446,4.30865668 7.09425965,4.40393656 7.31051081,4.52027832 C7.67964653,4.72287344 8.02464257,4.98163355 8.33041167,5.29054096 C8.60600618,5.57036294 8.84136791,5.88127625 9.03046196,6.22027205 L9.03046196,6.22027205 L9.11193333,6.36870808 L9.27889935,6.33761675 C9.47302249,6.30151069 9.67217473,6.28245471 9.86931532,6.28245471 C10.5140455,6.28245471 11.1155255,6.482041 11.6174294,6.81802796 C11.8266398,6.95944336 12.0167397,7.12392653 12.187729,7.31047452 C12.7188016,7.88917445 13.0477046,8.66244593 13.0477046,9.51194133 C13.0477046,10.6242086 12.4864574,11.6000752 11.6415691,12.1797781 L11.6415691,12.1797781 L11.2171133,11.604087 C11.886989,11.1557701 12.332567,10.3875133 12.332567,9.51194133 C12.332567,8.13088447 11.2271715,7.00758478 9.86931532,7.00758478 C9.46296429,7.00758478 9.06767728,7.10687645 8.71362885,7.29743622 C8.25497521,5.79502288 6.86593865,4.73892058 5.29384295,4.73892058 C3.31640204,4.73892058 1.71212012,6.37071397 1.71212012,8.37760923 C1.71212012,9.44374099 2.16574467,10.3985457 2.88591134,11.064502 L2.88591134,11.064502 L2.43329262,11.6091017 C2.37596092,11.5569485 2.31158848,11.5188366 2.25626841,11.4636745 C1.44557799,10.6382499 1,9.54303266 1,8.37760923 C1,7.2101799 1.44557799,6.11596565 2.25626841,5.29054096 C3.06796465,4.46712217 4.14720885,4.01178462 5.29384295,4.01178462 Z M9.2819168,3.00883846 C11.0340542,3.00883846 12.4593002,4.45709271 12.4593002,6.23832508 C12.4593002,6.47100859 12.4321431,6.70068326 12.3808463,6.9233373 C12.2370142,6.78894252 12.1002227,6.64752711 11.9382858,6.54221776 C11.8708959,6.49708519 11.7984769,6.46298502 11.731087,6.42286717 C11.7371219,6.36068451 11.7461743,6.30151069 11.7461743,6.23832508 C11.7461743,4.85626528 10.6407788,3.73196264 9.2819168,3.73196264 C8.69954738,3.73196264 8.15338746,3.94157839 7.72088512,4.30364195 C7.67562325,4.27756535 7.6313672,4.24145929 7.58409368,4.21538269 C7.41712767,4.12511753 7.22300453,4.05190246 7.0349163,3.98069329 C7.62332064,3.3769197 8.42395287,3.00883846 9.2819168,3.00883846 Z M14.6620447,6.17614242 C14.8481213,6.17614242 15,6.32859023 15,6.51915 C15,6.70670093 14.8481213,6.86215759 14.6620447,6.86215759 L14.6620447,6.86215759 L13.4067821,6.86215759 C13.2217113,6.86215759 13.0698326,6.70670093 13.0698326,6.51915 C13.0698326,6.32859023 13.2217113,6.17614242 13.4067821,6.17614242 L13.4067821,6.17614242 Z M13.0654354,2.10811104 C13.1982035,1.9747192 13.4164663,1.97171036 13.5472229,2.10008747 C13.6820027,2.23147341 13.6820027,2.444098 13.5482287,2.58049868 L13.5482287,2.58049868 L12.6450029,3.49919735 C12.5132405,3.63459508 12.2969894,3.63860687 12.1642212,3.50621798 C12.031453,3.37884382 12.0304472,3.1612045 12.1622096,3.02680972 L12.1622096,3.02680972 Z M4.1141515,2.10394302 C4.24691966,1.97155413 4.46317083,1.97356002 4.59593899,2.1079548 L4.59593899,2.1079548 L5.51123463,3.01762697 C5.64299697,3.15001586 5.64802606,3.36364339 5.51425208,3.49603228 C5.38349557,3.62741823 5.16623858,3.62741823 5.03347042,3.4920205 L5.03347042,3.4920205 L4.1191806,2.58435423 C3.9844008,2.45096239 3.9844008,2.23432602 4.1141515,2.10394302 Z M8.54364538,4.74065232e-14 C8.73072778,4.74065232e-14 8.88260651,0.152447815 8.88260651,0.339998746 L8.88260651,0.339998746 L8.88260651,1.62778161 C8.88260651,1.81633549 8.73072778,1.97078919 8.54364538,1.97078919 C8.35958043,1.97078919 8.20468424,1.81633549 8.20468424,1.62778161 L8.20468424,1.62778161 L8.20468424,0.339998746 C8.20468424,0.152447815 8.35958043,4.74065232e-14 8.54364538,4.74065232e-14 Z" id="path-1"></path>
    </defs>
    <g id="Icons/16px/Weather/Scattered-showers" stroke="none" stroke-width="1" fill="none" fill-rule="evenodd">
        <mask id="mask-2" fill="white">
            <use xlink:href="#path-1"></use>
        </mask>
        <use id="Mask" fill="#0C2340" fill-rule="nonzero" xlink:href="#path-1"></use>
        <g id="Group" mask="url(#mask-2)" fill="#333333">
            <g id="Color/Grayscale/80%">
                <rect id="Rectangle" x="0" y="0" width="16" height="16"></rect>
            </g>
        </g>
    </g>
</svg>