<?xml version="1.0" encoding="UTF-8"?>
<svg width="16px" height="16px" viewBox="0 0 16 16" version="1.1" xmlns="http://www.w3.org/2000/svg" xmlns:xlink="http://www.w3.org/1999/xlink">
    <title>Icons/16px/Weather/Scattered storms</title>
    <defs>
        <path d="M7.27404615,10.2197274 C7.46540152,10.3113662 7.55055968,10.5496269 7.46039222,10.7502138 L5.24227286,15.7699795 C5.15410912,15.9685301 4.92167747,16.0550778 4.72831837,15.963439 C4.53796486,15.8697639 4.45280671,15.6335396 4.5419723,15.4339709 L6.76109352,10.4111506 C6.85126098,10.2136182 7.08168892,10.1260523 7.27404615,10.2197274 Z M9.56539944,10.2194524 C9.75775668,10.3110912 9.83990925,10.5483336 9.75074365,10.745866 L7.74802432,15.3990768 C7.65885872,15.5976273 7.42642707,15.6831568 7.23406983,15.5915181 C7.0417126,15.4988612 6.95855817,15.2636551 7.04572004,15.0651045 L9.05344868,10.4108756 C9.14061055,10.212325 9.37103849,10.1267955 9.56539944,10.2194524 Z M5.08195542,10.2195419 C5.27431265,10.3111806 5.3594708,10.5484231 5.27030521,10.7490101 L3.7374585,14.1192787 C3.64929476,14.3178293 3.41886683,14.4033587 3.22650959,14.3127382 C3.03515422,14.2200813 2.94999607,13.9818206 3.03916166,13.78327 L4.57000465,10.4119832 C4.66117397,10.2144508 4.89060004,10.1258667 5.08195542,10.2195419 Z M5.40017175,4.07283218 C5.87505367,4.07283218 6.33691141,4.15327062 6.77472449,4.30396541 C7.01316731,4.38338564 7.24559897,4.48317003 7.46801202,4.60433678 C7.84771719,4.81510585 8.19937026,5.08493098 8.51295263,5.40973935 C8.79447545,5.69992864 9.034922,6.02677342 9.22928295,6.38009162 L9.22928295,6.38009162 L9.31343924,6.53485924 L9.48375555,6.50329479 C9.68312581,6.46460288 9.88650351,6.44525693 10.0888793,6.44525693 C10.7491055,6.44525693 11.3642479,6.65093496 11.8792042,7.00425315 C12.0956061,7.15189332 12.2889652,7.32397047 12.4652927,7.51743 C13.0083011,8.12224558 13.3449263,8.92968456 13.3449263,9.81858019 C13.3449263,10.9783192 12.7708602,11.9975454 11.9042508,12.6043974 L11.9042508,12.6043974 L11.4694433,12.0006 C12.1557178,11.5322243 12.6135681,10.7319128 12.6135681,9.81858019 C12.6135681,8.37476118 11.4804637,7.19974909 10.0888793,7.19974909 C9.67210534,7.19974909 9.26835552,7.30666094 8.90367826,7.50521151 C8.43580936,5.93615291 7.01116359,4.83037897 5.40017175,4.83037897 C3.37641334,4.83037897 1.73035638,6.53689566 1.73035638,8.63236781 C1.73035638,9.74526921 2.19622155,10.7441313 2.93459282,11.4395674 L2.93459282,11.4395674 L2.46772578,12.0056911 C2.41061972,11.9507078 2.34449692,11.9120159 2.29039645,11.8549963 C1.45684843,10.9935923 1,9.84810822 1,8.63236781 C1,7.41357278 1.45684843,6.27012515 2.29039645,5.40973935 C3.12093889,4.54833534 4.22398741,4.07283218 5.40017175,4.07283218 Z M9.31243738,3.05462414 C11.1077716,3.05462414 12.5684843,4.56666309 12.5684843,6.42692919 C12.5684843,6.67129912 12.5394304,6.90854159 12.4903392,7.14374765 C12.341062,7.00323494 12.2008015,6.85355836 12.0354945,6.7446101 C11.9663661,6.69777253 11.8932303,6.66315345 11.8231,6.61937051 C11.8271075,6.55420519 11.8371261,6.4920945 11.8371261,6.42692919 C11.8371261,4.98412839 10.7050236,3.81013451 9.31243738,3.81013451 C8.71733219,3.81013451 8.15629025,4.02803103 7.71346787,4.40782263 C7.66638042,4.37931281 7.62229855,4.34265732 7.57420925,4.31414749 C7.40188922,4.22047235 7.20452268,4.14410675 7.01116359,4.06977756 C7.61328181,3.43950678 8.43280378,3.05462414 9.31243738,3.05462414 Z M14.6533562,6.25943396 C14.8427079,6.25943396 15,6.42132904 15,6.61987961 C15,6.81639376 14.8427079,6.97727064 14.6533562,6.97727064 L14.6533562,6.97727064 L13.3689709,6.97727064 C13.1756119,6.97727064 13.0223272,6.81639376 13.0223272,6.61987961 C13.0223272,6.42132904 13.1756119,6.25943396 13.3689709,6.25943396 L13.3689709,6.25943396 Z M13.0477525,1.12593446 C13.1840056,0.985421747 13.4054168,0.982367123 13.5406679,1.11677058 C13.6789247,1.25321046 13.6789247,1.47619803 13.5426717,1.61874715 L13.5426717,1.61874715 L12.6149488,2.57993555 C12.4806994,2.71943005 12.2602901,2.72350288 12.1220333,2.5860448 C11.987784,2.45265954 11.9857803,2.22559915 12.1210315,2.08508644 L12.1210315,2.08508644 Z M4.10414856,1.12041942 C4.2404016,0.982961334 4.45980907,0.983979542 4.59806584,1.12449225 L4.59806584,1.12449225 L5.53380363,2.07448036 C5.67005668,2.21295665 5.67506598,2.43696242 5.53881294,2.5734023 C5.40356176,2.71086039 5.18215056,2.71086039 5.04589752,2.57136589 L5.04589752,2.57136589 L4.10915786,1.62035957 C3.97190296,1.48290148 3.97190296,1.2568593 4.10414856,1.12041942 Z M8.51595821,-2.13162821e-14 C8.70631172,-2.13162821e-14 8.86059825,0.159858663 8.86059825,0.356372816 L8.86059825,0.356372816 L8.86059825,1.70040744 C8.86059825,1.8979398 8.70631172,2.05881667 8.51595821,2.05881667 C8.32660656,2.05881667 8.16731072,1.8979398 8.16731072,1.70040744 L8.16731072,1.70040744 L8.16731072,0.356372816 C8.16731072,0.159858663 8.32660656,-2.13162821e-14 8.51595821,-2.13162821e-14 Z" id="path-1"></path>
    </defs>
    <g id="Icons/16px/Weather/Scattered-storms" stroke="none" stroke-width="1" fill="none" fill-rule="evenodd">
        <mask id="mask-2" fill="white">
            <use xlink:href="#path-1"></use>
        </mask>
        <use id="Mask" fill="#0C2340" fill-rule="nonzero" xlink:href="#path-1"></use>
        <g id="Group" mask="url(#mask-2)" fill="#333333">
            <g id="Color/Grayscale/80%">
                <rect id="Rectangle" x="0" y="0" width="16" height="16"></rect>
            </g>
        </g>
    </g>
</svg>