<?xml version="1.0" encoding="UTF-8"?>
<svg width="16px" height="16px" viewBox="0 0 16 16" version="1.1" xmlns="http://www.w3.org/2000/svg" xmlns:xlink="http://www.w3.org/1999/xlink">
    <title>Icons/16px/Digital/Search</title>
    <defs>
        <path d="M7.31818182,-1.13686838e-13 C11.0837597,-1.13686838e-13 14.1363636,2.98476833 14.1363636,6.66666667 C14.1363636,8.60674758 13.2888112,10.3532711 11.9359941,11.5715557 L15.3003001,14.8619288 C15.5665666,15.1222783 15.5665666,15.5443883 15.3003001,15.8047379 C15.0340335,16.0650874 14.6023301,16.0650874 14.3360636,15.8047379 L10.9269726,12.4714045 C10.8956124,12.4407411 10.8679456,12.4078339 10.8439724,12.3732113 C9.81670685,12.9824053 8.60935756,13.3333333 7.31818182,13.3333333 C3.55260398,13.3333333 0.5,10.348565 0.5,6.66666667 C0.5,2.98476833 3.55260398,-1.13686838e-13 7.31818182,-1.13686838e-13 Z M7.31818182,1.33333333 C4.30571955,1.33333333 1.86363636,3.721148 1.86363636,6.66666667 C1.86363636,9.61218533 4.30571955,12 7.31818182,12 C10.3306441,12 12.7727273,9.61218533 12.7727273,6.66666667 C12.7727273,3.721148 10.3306441,1.33333333 7.31818182,1.33333333 Z" id="path-1"></path>
    </defs>
    <g id="Icons/16px/Digital/Search" stroke="none" stroke-width="1" fill="none" fill-rule="evenodd">
        <mask id="mask-2" fill="white">
            <use xlink:href="#path-1"></use>
        </mask>
        <use id="Mask" fill="#0C2340" fill-rule="nonzero" xlink:href="#path-1"></use>
        <g id="Group" mask="url(#mask-2)" fill="#333333">
            <g id="Color/Grayscale/80%">
                <rect id="Rectangle" x="0" y="0" width="16" height="16"></rect>
            </g>
        </g>
    </g>
</svg>