<?xml version="1.0" encoding="UTF-8"?>
<svg width="16px" height="16px" viewBox="0 0 16 16" version="1.1" xmlns="http://www.w3.org/2000/svg" xmlns:xlink="http://www.w3.org/1999/xlink">
    <title>Icons/16px/Travel &amp; Airport/Seat</title>
    <defs>
        <path d="M4.6958159,13.7927779 L4.6958159,16 L3.44058577,16 L3.44058577,13.7927779 L4.6958159,13.7927779 Z M12.5527197,13.7927779 L12.5527197,16 L11.2974895,16 L11.2974895,13.7927779 L12.5527197,13.7927779 Z M12.0857741,10.6058661 C13.3677824,10.6058661 14.4899582,11.5610756 14.5,12.7874879 L14.5,12.7874879 L14.5,12.8130881 L1.5,12.8130881 L1.5,12.7874879 C1.51004184,11.5610756 2.63138075,10.6058661 3.91422594,10.6058661 L3.91422594,10.6058661 Z M10.2578243,0 C11.5415063,0 12.5942259,0.999209992 12.5942259,2.23362234 L12.5942259,2.23362234 L12.5942259,6.86326863 L14.4251883,6.86326863 L14.4251883,8.06648066 L12.5942259,8.06648066 L12.5942259,9.56089561 L3.39924686,9.56089561 L3.39924686,8.06248062 L1.56828452,8.06248062 L1.56828452,6.86326863 L3.39924686,6.86326863 L3.39924686,2.23362234 C3.39924686,0.999209992 4.45112971,0 5.73564854,0 L5.73564854,0 Z" id="path-1"></path>
    </defs>
    <g id="Icons/16px/Travel-&amp;-Airport/Seat" stroke="none" stroke-width="1" fill="none" fill-rule="evenodd">
        <mask id="mask-2" fill="white">
            <use xlink:href="#path-1"></use>
        </mask>
        <use id="Mask" fill="#0C2340" fill-rule="nonzero" xlink:href="#path-1"></use>
        <g id="Group" mask="url(#mask-2)" fill="#333333">
            <g id="Color/Grayscale/80%">
                <rect id="Rectangle" x="0" y="0" width="16" height="16"></rect>
            </g>
        </g>
    </g>
</svg>