<?xml version="1.0" encoding="UTF-8"?>
<svg width="16px" height="16px" viewBox="0 0 16 16" version="1.1" xmlns="http://www.w3.org/2000/svg" xmlns:xlink="http://www.w3.org/1999/xlink">
    <title>Icons/16px/Digital/Settings</title>
    <defs>
        <path d="M9.176,-1.13686838e-13 L9.728,2.256 C10.112,2.376 10.488,2.528 10.832,2.72 L10.832,2.72 L12.816,1.512 L14.488,3.184 L13.288,5.168 C13.472,5.512 13.624,5.888 13.744,6.272 L13.744,6.272 L16,6.824 L16,9.184 L13.744,9.736 C13.624,10.12 13.472,10.496 13.288,10.84 L13.288,10.84 L14.488,12.824 L12.816,14.496 L10.832,13.288 C10.488,13.48 10.112,13.632 9.728,13.752 L9.728,13.752 L9.176,16 L6.816,16 L6.264,13.752 C5.88,13.632 5.504,13.48 5.16,13.288 L5.16,13.288 L3.176,14.496 L1.504,12.824 L2.712,10.84 C2.52,10.496 2.368,10.12 2.248,9.736 L2.248,9.736 L0,9.184 L0,6.824 L2.248,6.272 C2.368,5.888 2.52,5.512 2.712,5.168 L2.712,5.168 L1.504,3.184 L3.176,1.512 L5.16,2.72 C5.504,2.528 5.88,2.376 6.264,2.256 L6.264,2.256 L6.816,-1.13686838e-13 L9.176,-1.13686838e-13 Z M8,5 C6.336,5 4.992,6.344 4.992,8 C4.992,9.664 6.336,11.008 8,11.008 C9.656,11.008 11,9.664 11,8 C11,6.344 9.656,5 8,5 Z" id="path-1"></path>
    </defs>
    <g id="Icons/16px/Digital/Settings" stroke="none" stroke-width="1" fill="none" fill-rule="evenodd">
        <mask id="mask-2" fill="white">
            <use xlink:href="#path-1"></use>
        </mask>
        <use id="Mask" fill="#0C2340" fill-rule="nonzero" xlink:href="#path-1"></use>
        <g id="Group" mask="url(#mask-2)" fill="#333333">
            <g id="Color/Grayscale/80%">
                <rect id="Rectangle" x="0" y="0" width="16" height="16"></rect>
            </g>
        </g>
    </g>
</svg>