<?xml version="1.0" encoding="UTF-8"?>
<svg width="16px" height="16px" viewBox="0 0 16 16" version="1.1" xmlns="http://www.w3.org/2000/svg" xmlns:xlink="http://www.w3.org/1999/xlink">
    <title>Icons/16px/Interface/Share</title>
    <defs>
        <path d="M11.672,11.6673662 C11.6613333,11.656873 9.36533333,10.5970619 4.784,8.48793284 C4.816,8.33053515 4.84,8.17313746 4.84,8 C4.84,7.80325289 4.808,7.61437566 4.76,7.43336831 C9.336,5.33473242 11.624,4.28541448 11.624,4.28541448 C12.064,4.87565582 12.776,5.26128017 13.576,5.26128017 C14.912,5.26128017 16,4.19884575 16,2.88457503 C16,1.5703043 14.912,0.5 13.576,0.5 C12.24,0.5 11.152,1.5703043 11.152,2.88457503 C11.152,2.99475341 11.176,3.09706191 11.184,3.19937041 C11.168,3.204617 8.83733333,4.26967471 4.192,6.39454355 C3.744,5.92235047 3.12,5.62329486 2.416,5.62329486 C1.08,5.62329486 0,6.69359916 0,8 C0,9.31427072 1.08,10.384575 2.416,10.384575 C3.152,10.384575 3.8,10.0540399 4.248,9.54249738 C8.86133333,11.6463799 11.1786667,12.7009444 11.2,12.706191 C11.176,12.8478489 11.152,12.9816369 11.152,13.1232949 C11.152,14.4375656 12.24,15.5 13.576,15.5 C14.912,15.5 16,14.4375656 16,13.1232949 C16,11.8090241 14.912,10.7387198 13.576,10.7387198 C12.8,10.7387198 12.12,11.1086044 11.672,11.6673662 Z" id="path-1"></path>
    </defs>
    <g id="Icons/16px/Interface/Share" stroke="none" stroke-width="1" fill="none" fill-rule="evenodd">
        <mask id="mask-2" fill="white">
            <use xlink:href="#path-1"></use>
        </mask>
        <use id="Mask" fill="#0C2340" fill-rule="nonzero" xlink:href="#path-1"></use>
        <g id="Group" mask="url(#mask-2)" fill="#333333">
            <g id="Color/Grayscale/80%">
                <rect id="Rectangle" x="0" y="0" width="16" height="16"></rect>
            </g>
        </g>
    </g>
</svg>