<?xml version="1.0" encoding="UTF-8"?>
<svg width="16px" height="16px" viewBox="0 0 16 16" version="1.1" xmlns="http://www.w3.org/2000/svg" xmlns:xlink="http://www.w3.org/1999/xlink">
    <title>Icons/16px/Weather/Showers night</title>
    <defs>
        <path d="M6.92190907,9.94530085 L8.61064769,12.9497762 C8.79773826,13.2531079 8.90408449,13.6151169 8.90408449,13.9970164 C8.90408449,15.1029339 8.01589659,16 6.92190907,16 C5.82693686,16 4.93874897,15.1029339 4.93874897,13.9970164 C4.93874897,13.6151169 5.04706456,13.2531079 5.23120108,12.9497762 L5.23120108,12.9497762 L6.92190907,9.94530085 Z M5.29815981,4.97265042 C5.7619475,4.97265042 6.21293426,5.04823471 6.63930383,5.19045251 C6.87267471,5.26802586 7.10112215,5.36151169 7.31676865,5.47787171 C7.68799574,5.67677772 8.03263628,5.93436101 8.33887401,6.24266534 C8.61261706,6.52013923 8.84992669,6.83043262 9.03898664,7.16558926 L9.03898664,7.16558926 L9.12071568,7.31377424 L9.28614314,7.28194928 C9.4820959,7.24714073 9.68001803,7.22824465 9.87794017,7.22824465 C10.523895,7.22824465 11.1235695,7.42416708 11.6267447,7.76031825 C11.8374678,7.89955246 12.0265277,8.06464446 12.1978633,8.24763799 C12.7295944,8.82247638 13.0574953,9.59025361 13.0574953,10.4365987 C13.0574953,11.5405271 12.4981929,12.5091994 11.6513619,13.0860269 L11.6513619,13.0860269 L11.2249923,12.5131775 C11.8975337,12.0686226 12.343597,11.305818 12.343597,10.4365987 C12.343597,9.06315266 11.2368086,7.94828444 9.87794017,7.94828444 C9.47027965,7.94828444 9.07738944,8.04773744 8.72093266,8.23570363 C8.26305309,6.7439085 6.87267471,5.69368473 5.29815981,5.69368473 C3.31992314,5.69368473 1.71389825,7.31476877 1.71389825,9.30780706 C1.71389825,10.3689707 2.16882376,11.3177524 2.88961482,11.9781203 L2.88961482,11.9781203 L2.435674,12.5181502 C2.37757745,12.4664346 2.31357278,12.429637 2.25941498,12.3739433 C1.44704801,11.553456 1,10.4644455 1,9.30780706 C1,8.15017404 1.44704801,7.06315266 2.25941498,6.24266534 C3.06981258,5.42317255 4.15099917,4.97265042 5.29815981,4.97265042 Z M8.69336142,0.0360686799 C8.93165573,-0.0464773171 9.20146003,0.0151835481 9.38559655,0.195193493 C9.58548806,0.39211045 9.64063054,0.692458536 9.52443745,0.947058237 C9.15813379,1.74069324 9.11480756,2.63079767 9.40233623,3.45426858 C10.0167811,5.21259777 11.9546456,6.15043964 13.7221592,5.54278176 C13.8324441,5.50598414 13.9427291,5.46123029 14.0451366,5.41249832 L14.0451366,5.41249832 L14.1091412,5.38862959 C14.3503896,5.3060836 14.6172399,5.3657554 14.8023611,5.54675988 C15.0012679,5.74467137 15.0554257,6.04402492 14.9402173,6.29763009 C14.5561893,7.12905724 13.8137351,7.90081259 13.0634034,8.38117062 C12.9708428,8.17530289 12.8940372,7.96446251 12.7581503,7.78843069 C13.4090286,7.36476087 14.0146113,6.70041478 14.3297112,6.02115073 C14.2046559,6.07684441 14.0766466,6.12756545 13.9427291,6.17430836 C11.8217128,6.90230438 9.50178964,5.78146898 8.76721296,3.67207067 C8.4087868,2.64869921 8.49346991,1.5805739 8.91393136,0.668589814 C7.54718547,1.29713283 6.68361476,2.6119016 6.58317666,4.04402492 C6.5802226,4.04303039 6.57726854,4.04104133 6.57332979,4.03905227 C6.36063734,3.96943516 6.14400615,3.91970866 5.92343621,3.88092199 C6.07507804,2.26381607 7.05484185,0.787933424 8.62935675,0.060931932 C8.65003518,0.0539702214 8.66972892,0.0460139808 8.69336142,0.0360686799 Z" id="path-1"></path>
    </defs>
    <g id="Icons/16px/Weather/Showers-night" stroke="none" stroke-width="1" fill="none" fill-rule="evenodd">
        <mask id="mask-2" fill="white">
            <use xlink:href="#path-1"></use>
        </mask>
        <use id="Mask" fill="#0C2340" fill-rule="nonzero" xlink:href="#path-1"></use>
        <g id="Group" mask="url(#mask-2)" fill="#333333">
            <g id="Color/Grayscale/80%">
                <rect id="Rectangle" x="0" y="0" width="16" height="16"></rect>
            </g>
        </g>
    </g>
</svg>