<?xml version="1.0" encoding="UTF-8"?>
<svg width="16px" height="16px" viewBox="0 0 16 16" version="1.1" xmlns="http://www.w3.org/2000/svg" xmlns:xlink="http://www.w3.org/1999/xlink">
    <title>Icons/16px/Travel &amp; Airport/Ski boot</title>
    <defs>
        <path d="M14.9552,13.4779637 L15.0464,13.1442376 C15.3016,12.2181476 14.916,11.2436673 14.1,10.7814566 L13.7472,10.576215 L12.5848,12.756281 C12.3585612,13.0855167 11.9904,12.9940608 11.9184,12.9540137 C11.684,12.817186 11.5984,12.5043178 11.7288,12.259029 L12.8848,10.086472 L12.0952,9.636776 L10.8152,12.0345982 C10.631307,12.3673128 10.2272,12.2790526 10.1488,12.2314966 C9.9136,12.0955032 9.8288,11.7818007 9.9592,11.5373463 L11.2392,9.14619859 L9.4824,8.13834568 L9.476,8.13834568 L5.9168,11.9862079 C5.688,12.2314966 5.39469401,12.1628097 5.2248,11.9937168 C5.05490599,11.8246239 5.0288,11.475607 5.2112,11.2711997 L9.0712,7.11046921 L5.9432,6.8376481 C5.6752,6.81679021 5.4728,6.57233582 5.4928,6.29284019 C5.5184,6.00667004 5.7536,5.80226278 6.0216,5.82312067 L9.8544,6.14933796 L9.9528,5.22324795 L6.1392,4.88952182 C5.8712,4.86949826 5.6688,4.62420955 5.688,4.3380394 C5.7144,4.05854376 5.9496,3.84746199 6.2176,3.87499439 L10.0576,4.202046 L10.1488,3.30932861 C10.1688,3.13912828 10.1032,2.96892796 9.9792,2.85963265 L9.176,2.15880778 C8.7776,1.80422377 8.2224,1.7024373 7.732,1.89266119 L6.5376,2.34235715 L3.1608,1.5389115 C2.7696,1.44379955 2.3512,1.52556245 2.0184,1.75666779 C1.6784,1.98860745 1.4504,2.36321503 1.3848,2.77119522 L0.7512,6.66744777 C0.7184,6.8651805 0.7968,7.06291323 0.9472,7.17137422 L1.3648,7.47840226 L0.5944,11.6116004 C0.4768,12.2448457 0.5552,12.8989489 0.8104,13.4779637 L0.4904,13.4779637 C0.2224,13.4779637 0,13.7032289 0,13.9885647 C0,14.2680603 0.2224,14.5 0.4904,14.5 L15.5104,14.5 C15.7784,14.5 16,14.2680603 16,13.9885647 C16,13.7032289 15.7784,13.4779637 15.5104,13.4779637 L14.9552,13.4779637 Z" id="path-1"></path>
    </defs>
    <g id="Icons/16px/Travel-&amp;-Airport/Ski-boot" stroke="none" stroke-width="1" fill="none" fill-rule="evenodd">
        <mask id="mask-2" fill="white">
            <use xlink:href="#path-1"></use>
        </mask>
        <use id="Mask" fill="#0C2340" fill-rule="nonzero" xlink:href="#path-1"></use>
        <g id="Group" mask="url(#mask-2)" fill="#333333">
            <g id="Color/Grayscale/80%">
                <rect id="Rectangle" x="0" y="0" width="16" height="16"></rect>
            </g>
        </g>
    </g>
</svg>