<?xml version="1.0" encoding="UTF-8"?>
<svg width="16px" height="16px" viewBox="0 0 16 16" version="1.1" xmlns="http://www.w3.org/2000/svg" xmlns:xlink="http://www.w3.org/1999/xlink">
    <title>Icons/16px/Weather/Sleet</title>
    <defs>
        <path d="M5.1292,12.2728086 C6.1582,12.2728086 6.9892,13.1075233 6.9892,14.1374052 C6.9892,15.1652853 6.1582,16 5.1292,16 C4.0982,16 3.2642,15.1652853 3.2642,14.1374052 C3.2642,13.1075233 4.0982,12.2728086 5.1292,12.2728086 Z M11.1311,10.8144599 C12.1841,10.8144599 13.0371,11.6701926 13.0371,12.724095 C13.0371,13.7799991 12.1841,14.6357318 11.1311,14.6357318 C10.0751,14.6357318 9.2231,13.7799991 9.2231,12.724095 C9.2231,11.6701926 10.0751,10.8144599 11.1311,10.8144599 Z M5.702,-3.64153152e-14 C7.227,-3.64153152e-14 8.659,0.593508191 9.735,1.66942945 C10.104,2.03374139 10.413,2.4430919 10.665,2.88547068 L10.665,2.88547068 L10.774,3.07863608 L10.995,3.03660009 C11.254,2.99056067 11.518,2.96353753 11.778,2.96353753 C14.104,2.96353753 16,4.85615809 16,7.18415143 C16,8.77951746 15.106,10.1647035 13.797,10.8793154 L13.797,10.8793154 L13.305,10.1026504 L13.319,10.0676204 C14.352,9.51514734 15.053,8.42921752 15.053,7.18415143 C15.053,5.37860543 13.584,3.91034824 11.778,3.91034824 C11.237,3.91034824 10.717,4.0414605 10.245,4.29067389 C9.637,2.3289942 7.79,0.946810707 5.702,0.946810707 C3.079,0.946810707 0.946,3.07963694 0.946,5.70088138 C0.946,7.30625598 1.75,8.72547118 2.973,9.58620819 L2.973,9.58620819 L2.579,10.4699649 C2.256,10.2577832 1.95,10.0115724 1.67,9.73133245 C0.594,8.65441034 0,7.22418571 0,5.70088138 C0,4.17857791 0.594,2.74635156 1.67,1.66942945 C2.747,0.593508191 4.18,-3.64153152e-14 5.702,-3.64153152e-14 Z M6.6799,6.23243652 C7.8479,6.23243652 8.7919,7.18024809 8.7919,8.34824819 C8.7919,9.51624829 7.8479,10.4640599 6.6799,10.4640599 C5.5119,10.4640599 4.5669,9.51624829 4.5669,8.34824819 C4.5669,7.18024809 5.5119,6.23243652 6.6799,6.23243652 Z" id="path-1"></path>
    </defs>
    <g id="Icons/16px/Weather/Sleet" stroke="none" stroke-width="1" fill="none" fill-rule="evenodd">
        <mask id="mask-2" fill="white">
            <use xlink:href="#path-1"></use>
        </mask>
        <use id="Mask" fill="#0C2340" fill-rule="nonzero" xlink:href="#path-1"></use>
        <g id="Group" mask="url(#mask-2)" fill="#333333">
            <g id="Color/Grayscale/80%">
                <rect id="Rectangle" x="0" y="0" width="16" height="16"></rect>
            </g>
        </g>
    </g>
</svg>