<?xml version="1.0" encoding="UTF-8"?>
<svg width="16px" height="16px" viewBox="0 0 16 16" version="1.1" xmlns="http://www.w3.org/2000/svg" xmlns:xlink="http://www.w3.org/1999/xlink">
    <title>Icons/16px/Weather/Snow</title>
    <defs>
        <path d="M7.9694,7.28878222 C8.2364,7.28878222 8.4494,7.50478762 8.4494,7.77079427 L8.4494,10.4828621 L10.3704,8.56481412 C10.4624,8.47381185 10.5824,8.4238106 10.7124,8.4238106 C10.8404,8.4238106 10.9614,8.47381185 11.0514,8.56481412 C11.1434,8.65481637 11.1934,8.7758194 11.1954,8.90482262 C11.1954,9.03382585 11.1434,9.15482887 11.0514,9.24483112 L9.1294,11.1638791 L11.8494,11.1638791 C12.1144,11.1638791 12.3294,11.3808845 12.3294,11.6458911 C12.3294,11.9108978 12.1144,12.1249031 11.8494,12.1249031 L9.1294,12.1249031 L11.0514,14.0449511 C11.1434,14.1359534 11.1934,14.2559564 11.1954,14.3829596 C11.1954,14.5129628 11.1434,14.6329658 11.0514,14.7259681 C10.9614,14.8169704 10.8404,14.8669717 10.7124,14.8669717 C10.5824,14.8669717 10.4614,14.8169704 10.3684,14.7249681 L8.4494,12.8069202 L8.4494,15.520988 C8.4494,15.7859946 8.2364,16 7.9694,16 C7.7034,16 7.4894,15.7859946 7.4894,15.520988 L7.4894,12.8069202 L5.5674,14.7259681 C5.4784,14.8169704 5.3544,14.8669717 5.2264,14.8669717 C5.0954,14.8669717 4.9784,14.8169704 4.8864,14.7269682 C4.7934,14.6339658 4.7434,14.5129628 4.7434,14.3849596 C4.7434,14.2549564 4.7934,14.1349534 4.8844,14.0449511 L6.8074,12.1249031 L4.0894,12.1249031 C3.8244,12.1249031 3.6114,11.9108978 3.6114,11.6458911 C3.6114,11.3808845 3.8244,11.1638791 4.0894,11.1638791 L6.8074,11.1638791 L4.8864,9.24483112 C4.7934,9.15482887 4.7434,9.03482587 4.7434,8.90582265 C4.7434,8.77781945 4.7934,8.65781645 4.8844,8.56681417 C4.9784,8.47481187 5.0984,8.42481062 5.2264,8.42481062 C5.3544,8.42481062 5.4784,8.47481187 5.5674,8.56681417 L7.4894,10.480862 L7.4894,7.77079427 C7.4894,7.50478762 7.7034,7.28878222 7.9694,7.28878222 Z M5.703,8.8817842e-15 C7.225,8.8817842e-15 8.661,0.593014825 9.736,1.66704168 C10.102,2.0320508 10.414,2.440061 10.667,2.88207205 L10.667,2.88207205 L10.775,3.07507688 L10.997,3.03407585 C11.255,2.98607465 11.517,2.96207405 11.779,2.96207405 C14.105,2.96207405 16,4.8521213 16,7.17717943 C16,8.56821421 15.317,9.80124503 14.272,10.5672642 L14.272,10.5672642 L13.779,9.75424386 C14.55,9.15622891 15.051,8.22620566 15.051,7.17717943 C15.051,5.37513438 13.584,3.90709768 11.779,3.90709768 C11.239,3.90709768 10.716,4.03910098 10.247,4.28610715 C9.636,2.3280582 7.792,0.946023651 5.703,0.946023651 C3.081,0.946023651 0.948,3.07807695 0.948,5.69514238 C0.948,7.16717918 1.628,8.47621191 2.681,9.34623366 L2.681,9.34623366 L2.053,10.0682517 C1.924,9.95824896 1.794,9.84524613 1.67,9.72124303 C0.592,8.64621616 0,7.21718043 0,5.69514238 C0,4.17410435 0.592,2.74306858 1.67,1.66704168 C2.748,0.593014825 4.178,8.8817842e-15 5.703,8.8817842e-15 Z" id="path-1"></path>
    </defs>
    <g id="Icons/16px/Weather/Snow" stroke="none" stroke-width="1" fill="none" fill-rule="evenodd">
        <mask id="mask-2" fill="white">
            <use xlink:href="#path-1"></use>
        </mask>
        <use id="Mask" fill="#0C2340" fill-rule="nonzero" xlink:href="#path-1"></use>
        <g id="Group" mask="url(#mask-2)" fill="#333333">
            <g id="Color/Grayscale/80%">
                <rect id="Rectangle" x="0" y="0" width="16" height="16"></rect>
            </g>
        </g>
    </g>
</svg>