<?xml version="1.0" encoding="UTF-8"?>
<svg width="16px" height="16px" viewBox="0 0 16 16" version="1.1" xmlns="http://www.w3.org/2000/svg" xmlns:xlink="http://www.w3.org/1999/xlink">
    <title>Icons/16px/Weather/Snow night</title>
    <defs>
        <path d="M6.57681747,9.64790188 C6.78417138,9.64790188 6.95316482,9.81290443 6.95316482,10.0189076 L6.95316482,11.9289371 L8.3268845,10.5789163 C8.40360545,10.5089152 8.49898825,10.4699146 8.59748136,10.4699146 C8.69908477,10.4699146 8.79343081,10.5089152 8.86496791,10.5769162 C8.93650501,10.6489173 8.97486548,10.7389187 8.97486548,10.8389203 C8.97486548,10.9369218 8.93132116,11.0299232 8.86289437,11.0989243 L7.48399084,12.4549452 L9.4341544,12.4549452 C9.64254508,12.4549452 9.81050175,12.6199478 9.81050175,12.824951 C9.81050175,13.0279541 9.64254508,13.1929566 9.4341544,13.1929566 L7.48399084,13.1929566 L8.86496791,14.5499776 C8.93443147,14.6209787 8.97486548,14.7119801 8.97486548,14.8079816 C8.97486548,14.9029831 8.93443147,14.9989845 8.86600468,15.0669856 C8.79446758,15.1399867 8.69908477,15.1799873 8.59748136,15.1799873 C8.49795148,15.1799873 8.40153191,15.1409867 8.3268845,15.0689856 L6.95316482,13.7199648 L6.95316482,15.6309943 C6.95316482,15.8329974 6.78417138,16 6.57681747,16 C6.36842679,16 6.19839658,15.8329974 6.19839658,15.6309943 L6.19839658,13.7199648 L4.82364013,15.0689856 C4.75002949,15.1399867 4.65568346,15.1799873 4.55408004,15.1799873 C4.45247662,15.1799873 4.35709382,15.1399867 4.28451995,15.0669856 C4.21712993,14.9989845 4.17876946,14.9089831 4.17876946,14.8099816 C4.17876946,14.70798 4.21505639,14.6199787 4.28348318,14.5499776 L5.66860733,13.1929566 L3.717407,13.1929566 C3.51212663,13.1929566 3.34105965,13.0279541 3.34105965,12.824951 C3.34105965,12.6199478 3.51212663,12.4549452 3.717407,12.4549452 L5.66860733,12.4549452 L4.28659349,11.0979243 C4.21712993,11.0289232 4.17876946,10.9379218 4.17876946,10.8389203 C4.17876946,10.7389187 4.21505639,10.6509174 4.28451995,10.5809163 C4.35709382,10.5109152 4.45143985,10.4719146 4.55408004,10.4719146 C4.65568346,10.4719146 4.75106626,10.5089152 4.82364013,10.5789163 L6.19839658,11.9279371 L6.19839658,10.0189076 C6.19839658,9.81290443 6.36842679,9.64790188 6.57681747,9.64790188 Z M4.99128577,4.52072268 C5.47545716,4.52072268 5.94718731,4.59872389 6.39403499,4.74072608 C6.63767584,4.81572724 6.87509607,4.9107287 7.10214861,5.02573048 C7.48886366,5.22673359 7.8486227,5.48173753 8.16794773,5.78974228 C8.45616967,6.06574655 8.70188405,6.37675135 8.89887027,6.71175653 L8.89887027,6.71175653 L8.98595891,6.85775878 L9.1601362,6.8267583 C9.36334304,6.79175776 9.57069695,6.77375748 9.77701409,6.77375748 C10.4519511,6.77375748 11.0791967,6.96976051 11.6048388,7.30376567 C11.8256708,7.44376783 12.0236937,7.60777037 12.2030549,7.79177321 C12.7566898,8.36578207 13.1008973,9.13179391 13.1008973,9.97680696 C13.1008973,11.076824 12.5140858,12.0448389 11.6307581,12.6198478 L11.6307581,12.6198478 L11.1870207,12.047839 C11.8878769,11.6048321 12.3544232,10.8438204 12.3544232,9.97680696 C12.3544232,8.60578578 11.1973884,7.49176857 9.77701409,7.49176857 C9.35193857,7.49176857 8.94034105,7.5907701 8.56710401,7.77977302 C8.08915324,6.29175004 6.6356023,5.2407338 4.99128577,5.2407338 C2.92500402,5.2407338 1.24647409,6.86175884 1.24647409,8.85078957 C1.24647409,9.90780589 1.72027778,10.8548205 2.47400926,11.5148307 L2.47400926,11.5148307 L1.99813203,12.053839 C1.94007293,12.0028383 1.87164614,11.9648377 1.81566058,11.9098368 C0.965509536,11.0908242 0.5,10.0048074 0.5,8.85078957 C0.5,7.69377169 0.965509536,6.6067549 1.81566058,5.78974228 C2.66477486,4.97372968 3.79174338,4.52072268 4.99128577,4.52072268 Z M8.90768281,0.0358534027 C9.15754428,-0.0461478639 9.44058237,0.0148530784 9.63342151,0.194855859 C9.84077542,0.390858886 9.89883452,0.689863505 9.77753248,0.943867429 C9.39392774,1.73587966 9.34934665,2.62589341 9.65000982,3.44790611 C10.2917702,5.2019332 12.3165812,6.13794766 14.1651413,5.5319383 C14.2791859,5.4929377 14.3953041,5.44993703 14.5020914,5.40093628 C14.5259371,5.39293615 14.5466725,5.38393601 14.5674079,5.37793592 C14.8214164,5.29393462 15.0992707,5.35393555 15.2931466,5.53593836 C15.5005005,5.73094137 15.5585596,6.03094601 15.4372576,6.28394992 C15.0370645,7.11396274 14.2594873,7.88597466 13.4756895,8.36398205 C13.3782332,8.15897888 13.2984019,7.94597559 13.1563645,7.7719729 C13.8364853,7.34896637 14.4699515,6.68595613 14.7975707,6.00694564 C14.6679745,6.06494653 14.5363048,6.11594732 14.3953041,6.16194803 C12.1766173,6.88795925 9.75472355,5.76994198 8.9864773,3.66490946 C8.61220348,2.64289367 8.7003289,1.57587719 9.13784566,0.665863134 C7.71125073,1.29387284 6.80822444,2.60389307 6.70454748,4.03591519 C6.70143717,4.03491518 6.69832686,4.03191513 6.69314301,4.03191513 C6.47127433,3.96091403 6.24318502,3.91091326 6.01613249,3.87191266 C6.17164792,2.25888774 7.19597626,0.783864957 8.84236633,0.0608537889 C8.86310172,0.0528536653 8.88383711,0.0438535263 8.90768281,0.0358534027 Z" id="path-1"></path>
    </defs>
    <g id="Icons/16px/Weather/Snow-night" stroke="none" stroke-width="1" fill="none" fill-rule="evenodd">
        <mask id="mask-2" fill="white">
            <use xlink:href="#path-1"></use>
        </mask>
        <use id="Mask" fill="#0C2340" fill-rule="nonzero" xlink:href="#path-1"></use>
        <g id="Group" mask="url(#mask-2)" fill="#333333">
            <g id="Color/Grayscale/80%">
                <rect id="Rectangle" x="0" y="0" width="16" height="16"></rect>
            </g>
        </g>
    </g>
</svg>