<?xml version="1.0" encoding="UTF-8"?>
<svg width="16px" height="16px" viewBox="0 0 16 16" version="1.1" xmlns="http://www.w3.org/2000/svg" xmlns:xlink="http://www.w3.org/1999/xlink">
    <title>Icons/16px/Travel &amp; Airport/Special needs</title>
    <defs>
        <path d="M4.04809659,6.39012012 L4.12471551,7.67810402 C3.21460705,8.43359458 2.62961129,9.54558068 2.62961129,10.7930651 C2.62961129,13.0695366 4.53835411,14.9090136 6.89231494,14.9090136 C8.9408355,14.9090136 10.6383586,13.5025312 11.0442318,11.6420545 L11.0442318,11.6420545 L11.8021378,12.9105386 C10.958812,14.7250159 9.08527251,16 6.89231494,16 C3.91246041,16 1.5,13.6660292 1.5,10.7930651 C1.5,8.9280884 2.52400144,7.30910864 4.04809659,6.39012012 L4.04809659,6.39012012 Z M5.99421702,3.26710916 C6.75678229,3.22610967 7.4039015,3.79810252 7.45463565,4.52559343 L7.45463565,4.52559343 L7.5493739,5.71507856 L10.2320713,5.71507856 C10.5960111,5.7280784 10.8791905,5.99757503 10.8791905,6.3440707 C10.8791905,6.6960663 10.587728,6.95806302 10.2320713,6.97956276 L10.2320713,6.97956276 L7.62443973,6.97956276 L7.65757223,8.02504969 L11.2483073,8.02504969 C11.5221681,8.03354958 11.789299,8.17304784 11.9420191,8.41804477 L11.9420191,8.41804477 L14.387612,12.4974938 C14.6112564,12.8979888 14.4937395,13.3764828 14.1008088,13.6044799 C13.7021833,13.8339771 13.1772402,13.6864789 12.9484189,13.3269834 L12.9484189,13.3269834 L11.0479592,10.1470232 L6.39698401,10.1470232 C5.64063108,10.1505231 4.99972422,9.62352971 4.93552999,8.88753891 L4.93552999,8.88753891 L4.68600083,4.68209147 C4.64872676,3.94460069 5.22802787,3.30810865 5.99421702,3.26710916 Z M5.96916056,-6.94999613e-14 C6.76485834,-6.94999613e-14 7.40369442,0.617492281 7.40369442,1.38598268 C7.40369442,2.14647317 6.76485834,2.77146536 5.96916056,2.77146536 C5.17760435,2.77146536 4.5346267,2.14647317 4.5346267,1.38598268 C4.5346267,0.617492281 5.17760435,-6.94999613e-14 5.96916056,-6.94999613e-14 Z" id="path-1"></path>
    </defs>
    <g id="Icons/16px/Travel-&amp;-Airport/Special-needs" stroke="none" stroke-width="1" fill="none" fill-rule="evenodd">
        <mask id="mask-2" fill="white">
            <use xlink:href="#path-1"></use>
        </mask>
        <use id="Combined-Shape" fill="#0C2340" fill-rule="nonzero" xlink:href="#path-1"></use>
        <g id="Group" mask="url(#mask-2)" fill="#333333">
            <g id="Color/Grayscale/80%">
                <rect id="Rectangle" x="0" y="0" width="16" height="16"></rect>
            </g>
        </g>
    </g>
</svg>