<?xml version="1.0" encoding="UTF-8"?>
<svg width="16px" height="16px" viewBox="0 0 16 16" version="1.1" xmlns="http://www.w3.org/2000/svg" xmlns:xlink="http://www.w3.org/1999/xlink">
    <title>Icons/16px/Travel &amp; Airport/Sports equipment</title>
    <defs>
        <path d="M10.3791564,1.38545087 C11.5663583,0.871516376 12.9279606,0.871516376 14.1151626,1.38545087 C15.0719642,1.8011563 15.6751652,2.41253403 15.9079656,3.20308159 C16.1215659,3.93076254 15.9583657,4.74252757 15.4703649,5.37748028 C15.1847644,5.74839325 14.9007639,6.29611855 14.7127636,6.69060649 C14.5943634,6.93892958 14.5343633,7.20532682 14.5343633,7.48272572 L14.5343633,7.48272572 L14.5343633,8.89329516 C14.5343633,10.5325419 13.3879614,11.1289888 12.6527602,11.292442 L12.6527602,11.292442 L12.6527602,14.6023687 C12.6527602,14.821616 12.4711599,15 12.2471595,15 C12.0231591,15 11.8423588,14.821616 11.8423588,14.6023687 L11.8423588,14.6023687 L11.8423588,11.2979428 C11.5119583,11.2287895 11.0407575,11.0684797 10.6423568,10.6834217 C10.1895561,10.2449272 9.95995567,9.64297943 9.95995567,8.89329516 L9.95995567,8.89329516 L9.95995567,7.48272572 C9.95995567,7.20532682 9.89995557,6.93971542 9.78155537,6.69060649 C9.59355506,6.29611855 9.30875458,5.74839325 9.02395411,5.37748028 C8.5367533,4.74252757 8.37275302,3.93076254 8.58635338,3.20308159 C8.81915377,2.41253403 9.42235477,1.8011563 10.3791564,1.38545087 Z M1.31146125,1.00007858 C1.44026147,1.00007858 1.57786169,1.04251354 1.68906188,1.11795347 C4.99466739,3.40394039 6.35946967,5.47853835 6.9178706,6.76023126 C7.18427104,7.35903567 7.31307126,8.00813337 7.31307126,8.6580169 L7.31307126,8.6580169 L7.31307126,14.5776936 C7.31307126,14.805585 7.12427094,14.9996857 6.88347054,14.9996857 L6.88347054,14.9996857 L6.60027007,14.9996857 C6.35946967,14.9996857 6.17066935,14.805585 6.17066935,14.5776936 L6.17066935,14.5776936 L6.17066935,11.069737 C6.16266934,10.3106228 6.00746908,9.61044596 5.78426871,8.99513906 C5.33786796,7.704802 4.49706656,6.59127726 3.44906481,5.6969998 L3.44906481,5.6969998 L0.229859447,2.96465999 C-0.0365409968,2.73755438 -0.0797410688,2.34070893 0.144259305,2.06252421 L0.144259305,2.06252421 L0.779460364,1.25311667 C0.908260578,1.09280683 1.11386092,1.00007858 1.31146125,1.00007858 Z M12.2479595,9.52353288 L11.4527582,10.3046504 C11.8239588,10.5372569 12.2143594,10.5545452 12.2447595,10.555331 C12.2711595,10.5537594 12.6583602,10.5270411 13.0311608,10.292863 L13.0311608,10.292863 L12.2479595,9.52353288 Z M11.4527582,8.74320115 L10.8231571,9.36165137 C10.9063572,9.74670933 11.0839575,10.0060341 11.2911579,10.1820606 L11.2911579,10.1820606 L12.1047592,9.38286885 L11.4527582,8.74320115 Z M13.0455608,8.74005781 L12.3911597,9.38286885 L13.1919611,10.1694872 C13.4031614,9.99267492 13.5863617,9.73413601 13.6703619,9.35222138 L13.6703619,9.35222138 L13.0455608,8.74005781 Z M12.2503595,7.95972608 L11.5959584,8.60253712 L12.2479595,9.24220482 L12.9023606,8.59939379 L12.2503595,7.95972608 Z M10.770357,8.07210014 L10.770357,8.89329516 C10.770357,8.97266425 10.787157,9.03081586 10.7935571,9.10232663 L10.7935571,9.10232663 L11.3063579,8.59860795 L10.770357,8.07210014 Z M13.7247619,8.07288597 L13.1887611,8.59860795 L13.6999619,9.10075496 C13.7063619,9.03003003 13.7247619,8.97187842 13.7247619,8.89329516 L13.7247619,8.89329516 L13.7247619,8.07288597 Z M13.0503608,7.17389352 L12.3935597,7.81906205 L13.0455608,8.45872976 L13.7015619,7.81356122 L13.0503608,7.17389352 Z M11.4471581,7.17232185 L10.7935571,7.81356122 L11.4495582,8.45872976 L12.1047592,7.81670456 L11.4471581,7.17232185 Z M12.2479595,6.38570346 L11.5903584,7.03087199 L12.2479595,7.67604053 L12.9055606,7.03087199 L12.2479595,6.38570346 Z M10.6479568,6.38806096 L10.5575567,6.47607421 C10.6919569,6.79669389 10.770357,7.13303023 10.770357,7.48351155 L10.770357,7.48351155 L10.770357,7.55580814 L11.3039579,7.03165783 L10.6479568,6.38806096 Z M13.8487622,6.38884679 L13.1935611,7.03322949 L13.7247619,7.55423648 L13.7247619,7.48272572 C13.7247619,7.13224439 13.8031621,6.79590806 13.9367623,6.47528837 L13.9367623,6.47528837 L13.8487622,6.38884679 Z M13.0463608,5.60065673 L12.3911597,6.2442536 L13.0487608,6.8909938 L13.7047619,6.24739693 L13.0463608,5.60065673 Z M11.4495582,5.60065673 L10.7911571,6.24739693 L11.4471581,6.8909938 L12.1047592,6.2442536 L11.4495582,5.60065673 Z M13.8447621,4.81639584 L13.1895611,5.4599927 L13.8479621,6.1067329 L14.377563,5.58729758 C14.4079631,5.5346468 14.4399631,5.48356768 14.4711632,5.4309169 L14.4711632,5.4309169 L13.8447621,4.81639584 Z M10.6503568,4.81639584 L10.0239558,5.43170273 C10.0543558,5.48356768 10.0855559,5.53307513 10.1151559,5.58494008 L10.1151559,5.58494008 L10.6471568,6.1067329 L11.3063579,5.4599927 L10.6503568,4.81639584 Z M12.2479595,4.81639584 L11.5927584,5.4599927 L12.2479595,6.1043754 L12.9031606,5.4599927 L12.2479595,4.81639584 Z M11.4487581,4.03134911 L10.7935571,4.67573181 L11.4495582,5.31932867 L12.1047592,4.67573181 L11.4487581,4.03134911 Z M13.0463608,4.03134911 L12.3911597,4.67573181 L13.0463608,5.31932867 L13.7015619,4.67573181 L13.0463608,4.03134911 Z M9.85195549,4.03134911 L9.42715478,4.44941203 C9.48795488,4.60579271 9.56315501,4.75903006 9.67035518,4.89733659 C9.75435532,5.00735315 9.83675546,5.12837136 9.9175556,5.2548904 L9.9175556,5.2548904 L10.5071566,4.67573181 L9.85195549,4.03134911 Z M14.6439635,4.03134911 L13.9879624,4.67573181 L14.5767634,5.25410457 C14.6575635,5.12758553 14.7399636,5.00735315 14.8239638,4.89733659 C14.931164,4.75824423 15.0071641,4.60500688 15.0679642,4.44784036 L15.0679642,4.44784036 L14.6439635,4.03134911 Z M10.6503568,3.24708821 L9.99515573,3.89147091 L10.6503568,4.53506778 L11.3055579,3.89147091 L10.6503568,3.24708821 Z M12.2479595,3.24708821 L11.5919584,3.89147091 L12.2479595,4.53506778 L12.9031606,3.89147091 L12.2479595,3.24708821 Z M13.8447621,3.24708821 L13.1895611,3.89147091 L13.8447621,4.53506778 L14.5007632,3.89068508 L13.8447621,3.24708821 Z M9.34635464,3.53548876 C9.29835456,3.7657377 9.29915457,4.00305913 9.35675466,4.2364514 L9.35675466,4.2364514 L9.70875525,3.89147091 Z M15.1479643,3.53706042 L14.7871637,3.89068508 L15.1375643,4.23566557 C15.1951644,4.00305913 15.1967644,3.7657377 15.1479643,3.53706042 L15.1479643,3.53706042 Z M11.4495582,2.46282731 L10.7935571,3.10642418 L11.4487581,3.75080688 L12.1047592,3.10642418 L11.4495582,2.46282731 Z M13.0463608,2.46282731 L12.3911597,3.10642418 L13.0463608,3.75080688 L13.7015619,3.10642418 L13.0463608,2.46282731 Z M14.5327633,2.57127221 L13.9879624,3.10642418 L14.6439635,3.75080688 L15.0831642,3.31938481 C14.977564,3.03805675 14.7927637,2.78894783 14.5327633,2.57127221 L14.5327633,2.57127221 Z M9.96235567,2.57127221 C9.70235524,2.78816199 9.51675493,3.03727092 9.41195475,3.31859897 L9.41195475,3.31859897 L9.85195549,3.75080688 L10.5071566,3.10642418 Z M10.9999574,2.02118941 C10.9023572,2.05419438 10.8015571,2.07226853 10.7063569,2.11391766 C10.4815565,2.21136089 10.2927562,2.32530662 10.1207559,2.445539 L10.1207559,2.445539 L10.6503568,2.96576015 L11.3063579,2.32216328 Z M13.4951616,2.02118941 L13.1895611,2.32216328 L13.8447621,2.96576015 L14.374363,2.44632483 C14.2023627,2.32530662 14.0135624,2.21136089 13.787962,2.11391766 C13.6935619,2.07305436 13.5927617,2.05419438 13.4951616,2.02118941 L13.4951616,2.02118941 Z M12.2471595,1.79486964 C12.2031594,1.79486964 12.1599593,1.80665712 12.1151593,1.80822879 L12.1151593,1.80822879 L11.5927584,2.32216328 L12.2479595,2.96576015 L12.9031606,2.32216328 L12.3807597,1.80901462 C12.3359596,1.80744296 12.2919596,1.79486964 12.2471595,1.79486964 Z" id="path-1"></path>
    </defs>
    <g id="Icons/16px/Travel-&amp;-Airport/Sports-equipment" stroke="none" stroke-width="1" fill="none" fill-rule="evenodd">
        <mask id="mask-2" fill="white">
            <use xlink:href="#path-1"></use>
        </mask>
        <use id="Mask" fill="#0C2340" fill-rule="nonzero" xlink:href="#path-1"></use>
        <g id="Group" mask="url(#mask-2)" fill="#333333">
            <g id="Color/Grayscale/80%">
                <rect id="Rectangle" x="0" y="0" width="16" height="16"></rect>
            </g>
        </g>
    </g>
</svg>