<?xml version="1.0" encoding="UTF-8"?>
<svg width="16px" height="16px" viewBox="0 0 16 16" version="1.1" xmlns="http://www.w3.org/2000/svg" xmlns:xlink="http://www.w3.org/1999/xlink">
    <title>Icons/16px/Travel &amp; Airport/Standby</title>
    <defs>
        <path d="M4.16357844,3.27480117 L8.40469258,3.27630119 C8.86133248,3.29480148 9.28332359,3.57380584 9.44932745,4.01431272 L9.44932745,4.01431272 L10.9917316,8.10961303 C11.4228026,8.13444479 11.8948591,8.30315908 11.8948591,8.36654739 L11.8948591,8.36654739 L11.8948591,11.069423 L12.6193806,11.069423 C12.8288247,11.069423 13,11.2344255 13,11.4384287 L13,11.4384287 L13,11.7674339 L8.77698597,11.7674339 L8.77698597,11.4384287 C8.77698597,11.2344255 8.94816129,11.069423 9.15708826,11.069423 L9.15708826,11.069423 L9.89522795,11.069423 L9.895,8.852 L8.48743594,5.1133299 L8.0752706,5.1133299 L8.0752706,15.3749902 C8.0752706,15.7199956 7.786186,16 7.42883813,16 C7.07200741,16 6.78240566,15.7199956 6.78240566,15.3749902 L6.78240566,15.3749902 L6.78240566,9.77490273 L6.0066867,9.77490273 L6.0066867,15.3749902 C6.0066867,15.7199956 5.7176021,16 5.36025423,16 C5.00342351,16 4.71382176,15.7199956 4.71382176,15.3749902 L4.71382176,15.3749902 L4.71382176,5.1133299 L4.29286494,5.1133299 L4.29286494,9.37339646 C4.29286494,9.71890186 4.00326319,9.99840623 3.64643247,9.99840623 C3.28960175,9.99840623 3,9.71890186 3,9.37339646 L3,9.37339646 L3,4.39931874 C3,3.77780903 3.52128314,3.27480117 4.16357844,3.27480117 L4.16357844,3.27480117 Z M13,14.7905311 L13,15.1235363 C13,15.3270395 12.8288247,15.4925421 12.6193806,15.4925421 L12.6193806,15.4925421 L12.3980421,15.4925421 L12.3980421,15.8890483 C12.3980421,15.9255488 12.3670133,15.9555493 12.3287445,15.9555493 L12.3287445,15.9555493 L11.6667977,15.9555493 C11.6285289,15.9555493 11.5980173,15.9255488 11.5980173,15.8890483 L11.5980173,15.8890483 L11.5980173,15.6640448 L10.1929316,15.6640448 C10.1908631,15.6665448 10.1893116,15.6680448 10.1882773,15.6695448 L10.1882773,15.6695448 L10.1882773,15.8890483 C10.1882773,15.9255488 10.1572486,15.9555493 10.1194969,15.9555493 L10.1194969,15.9555493 L9.45703293,15.9555493 C9.41928127,15.9555493 9.38876966,15.9255488 9.38876966,15.8890483 L9.38876966,15.8890483 L9.38876966,15.4925421 L9.15708826,15.4925421 C8.94816129,15.4925421 8.77698597,15.3270395 8.77698597,15.1235363 L8.77698597,15.1235363 L8.77698597,14.7905311 L13,14.7905311 Z M13,12.0509383 L13,14.5074767 L8.77698597,14.5074767 L8.77698597,12.0509383 L13,12.0509383 Z M11.4371849,8.72038626 L11.2207199,8.72026001 C11.3202737,9.03560308 11.1480585,9.37526983 10.8239015,9.48989828 C10.6594435,9.54763036 10.4868156,9.53702326 10.3390241,9.47312555 L10.339284,11.068923 L11.4371849,11.068923 L11.4371849,8.72038626 Z M6.39961421,2.04058992e-13 C7.19653616,2.04058992e-13 7.85227725,0.630009844 7.85227725,1.40752199 C7.85227725,2.18553415 7.19653616,2.81454398 6.39961421,2.81454398 C5.59131505,2.81454398 4.93712539,2.18553415 4.93712539,1.40752199 C4.93712539,0.630009844 5.59131505,2.04058992e-13 6.39961421,2.04058992e-13 Z" id="path-1"></path>
    </defs>
    <g id="Icons/16px/Travel-&amp;-Airport/Standby" stroke="none" stroke-width="1" fill="none" fill-rule="evenodd">
        <mask id="mask-2" fill="white">
            <use xlink:href="#path-1"></use>
        </mask>
        <use id="Mask" fill="#0C2340" fill-rule="nonzero" xlink:href="#path-1"></use>
        <g id="Group" mask="url(#mask-2)" fill="#333333">
            <g id="Color/Grayscale/80%">
                <rect id="Rectangle" x="0" y="0" width="16" height="16"></rect>
            </g>
        </g>
    </g>
</svg>