<?xml version="1.0" encoding="UTF-8"?>
<svg width="16px" height="16px" viewBox="0 0 16 16" version="1.1" xmlns="http://www.w3.org/2000/svg" xmlns:xlink="http://www.w3.org/1999/xlink">
    <title>Icons/16px/Weather/Storms night</title>
    <defs>
        <path d="M8.10610796,10.2148332 C8.30787966,10.3084692 8.39615478,10.5445948 8.30157429,10.745098 L5.97489435,15.7709092 C5.88241565,15.9693768 5.63965907,16.0548706 5.43578558,15.9632701 C5.23611566,15.8706519 5.14784054,15.6335085 5.24031924,15.4350409 L7.56910098,10.4071941 C7.66263057,10.2097443 7.90433625,10.122215 8.10610796,10.2148332 Z M11.0350768,10.2156457 C11.2368485,10.3072462 11.3240727,10.5433718 11.2294922,10.7428572 L9.12875454,15.400231 C9.03522495,15.5997164 8.79141747,15.6841924 8.59069666,15.5915742 C8.38787407,15.4989559 8.30064984,15.2648659 8.39312854,15.0663983 L10.4980698,10.4059711 C10.5894976,10.2085212 10.8322542,10.1220097 11.0350768,10.2156457 Z M5.28235947,10.2151094 C5.48308028,10.3087454 5.5724063,10.544871 5.4799276,10.7453742 L3.87100845,14.119324 C3.77958065,14.3177916 3.53682407,14.4032854 3.33610326,14.3116849 C3.13433156,14.2190667 3.04500554,13.9819233 3.13958603,13.7824379 L4.7443016,10.4074703 C4.83993298,10.2110382 5.08058777,10.1214734 5.28235947,10.2151094 Z M5.6155277,5.08891371 C6.11365159,5.08891371 6.59811386,5.16728299 7.05735466,5.3138437 C7.3074675,5.39221297 7.55127497,5.48992011 7.7856244,5.60798291 C8.18286244,5.81459281 8.55172633,6.07819854 8.88065624,6.39676454 C9.17595754,6.68174371 9.42817216,7.00234527 9.63309655,7.3483914 L9.63309655,7.3483914 L9.72032078,7.50004103 L9.8989728,7.46747198 C10.1091517,7.42981402 10.3224832,7.41251172 10.533713,7.41251172 C11.2262523,7.41251172 11.8715014,7.61301492 12.411661,7.95906105 C12.6386542,8.1035862 12.8425277,8.27152035 13.0264342,8.46286351 C13.5960189,9.05419528 13.9491194,9.84501247 13.9491194,10.7162345 C13.9491194,11.8530978 13.346957,12.8515427 12.4379334,13.44491 L12.4379334,13.44491 L11.9818453,12.8515427 C12.7027588,12.395576 13.1819665,11.6108655 13.1819665,10.7162345 C13.1819665,9.30253427 11.9934051,8.15243977 10.533713,8.15243977 C10.0965409,8.15243977 9.67408143,8.25523583 9.29050501,8.44963233 C8.79973738,6.91379817 7.30536571,5.83087733 5.6155277,5.83087733 C3.49272124,5.83087733 1.76715283,7.5020766 1.76715283,9.55290882 C1.76715283,10.6460075 2.25476778,11.6220611 3.02927686,12.3029578 L3.02927686,12.3029578 L2.53956013,12.8586672 C2.47965915,12.807778 2.41030013,12.7670667 2.35355184,12.7121065 C1.48025869,11.866329 1,10.7457502 1,9.55290882 C1,8.36006745 1.48025869,7.23948865 2.35355184,6.39676454 C3.2247432,5.55404043 4.38177781,5.08891371 5.6155277,5.08891371 Z M9.22640046,0.0365991651 C9.48176777,-0.0468590198 9.77391638,0.0142079448 9.97148451,0.201479969 C10.184816,0.404018735 10.244717,0.712406906 10.1186097,0.974994854 C9.72452435,1.79125661 9.678285,2.70929665 9.98724792,3.55710967 C10.6472095,5.36774517 12.7279802,6.33158543 14.6279971,5.70768461 C14.7467481,5.66799108 14.8644483,5.62320864 14.9747922,5.5723195 C14.9989628,5.56315946 15.0210315,5.5550172 15.0420494,5.5489105 C15.3026712,5.46341675 15.5895654,5.52448371 15.7871335,5.71175574 C16.000465,5.9142945 16.060366,6.22268268 15.9353096,6.48527062 C15.5244099,7.34122591 14.7246794,8.13611423 13.9207452,8.62973886 C13.8198594,8.41905783 13.7378896,8.19921676 13.5918153,8.020087 C14.2896091,7.5834582 14.9411636,6.8995082 15.2785006,6.19723811 C15.146088,6.25830507 15.0094717,6.31021199 14.8644483,6.35804778 C12.5850586,7.10713588 10.0965409,5.95398803 9.30626843,3.78203966 C8.92269201,2.72761674 9.01306892,1.62637581 9.46180078,0.685944555 C7.99580325,1.33427216 7.0678636,2.68792321 6.96172328,4.16370819 C6.9585706,4.16370819 6.95541791,4.16167262 6.95016344,4.16065484 C6.72211938,4.08737448 6.48776996,4.03648534 6.25447142,3.99373847 C6.41420736,2.33068147 7.46720343,0.81011405 9.15809233,0.0640792992 C9.18016111,0.0539014717 9.201179,0.0447414271 9.22640046,0.0365991651 Z" id="path-1"></path>
    </defs>
    <g id="Icons/16px/Weather/Storms-night" stroke="none" stroke-width="1" fill="none" fill-rule="evenodd">
        <mask id="mask-2" fill="white">
            <use xlink:href="#path-1"></use>
        </mask>
        <use id="Mask" fill="#0C2340" fill-rule="nonzero" xlink:href="#path-1"></use>
        <g id="Group" mask="url(#mask-2)" fill="#333333">
            <g id="Color/Grayscale/80%">
                <rect id="Rectangle" x="0" y="0" width="16" height="16"></rect>
            </g>
        </g>
    </g>
</svg>