<?xml version="1.0" encoding="UTF-8"?>
<svg width="16px" height="16px" viewBox="0 0 16 16" version="1.1" xmlns="http://www.w3.org/2000/svg" xmlns:xlink="http://www.w3.org/1999/xlink">
    <title>Icons/16px/Weather/Storms</title>
    <defs>
        <path d="M9.9225,7.26713071 C10.1515,7.37413558 10.2505,7.65114818 10.1445,7.88215869 L6.6975,15.7315159 C6.5935,15.9645265 6.3185,16.064531 6.0915,15.9565261 C5.8615,15.8485212 5.7635,15.5735087 5.8675,15.3404981 L9.3165,7.49214095 C9.4205,7.26013039 9.6935,7.15812575 9.9225,7.26713071 Z M11.7799,8.71889677 C12.0089,8.82590164 12.1079,9.10291425 12.0039,9.3349248 L9.2969,15.3081966 C9.1879,15.5412072 8.9179,15.6422118 8.6879,15.5342069 C8.4629,15.427202 8.3599,15.1501894 8.4669,14.9171788 L11.1739,8.94290697 C11.2799,8.71089641 11.5509,8.60989181 11.7799,8.71889677 Z M7.3307,7.25743026 C7.5597,7.36443513 7.6587,7.64244779 7.5527,7.87445834 L4.4217,14.853776 C4.3147,15.0857865 4.0427,15.1867911 3.8127,15.0787862 C3.5857,14.9707813 3.4847,14.6947687 3.5917,14.4617581 L6.7247,7.4824405 C6.8287,7.25042995 7.1017,7.14942535 7.3307,7.25743026 Z M4.7575,7.45273915 C4.9865,7.55974402 5.0845,7.83675663 4.9805,8.07076728 L2.7855,12.8349841 C2.6815,13.0659946 2.4065,13.1669992 2.1795,13.0589943 C1.9495,12.9519894 1.8515,12.6749768 1.9555,12.4419662 L4.1505,7.67774939 C4.2575,7.44573883 4.5285,7.34373419 4.7575,7.45273915 Z M5.703,-3.8191672e-14 C7.225,-3.8191672e-14 8.66,0.602027396 9.735,1.69607718 C10.1,2.06609402 10.414,2.48111291 10.666,2.93013334 L10.666,2.93013334 L10.774,3.12614226 L10.994,3.0831403 C11.252,3.03413807 11.516,3.01113703 11.779,3.01113703 C14.104,3.01113703 16,4.93222445 16,7.29433194 C16,9.20441887 14.752,10.811492 13.047,11.361517 L13.047,11.361517 L13.633,10.0224561 C14.49,9.42342883 15.051,8.42638346 15.051,7.29433194 C15.051,5.46224857 13.584,3.97218076 11.779,3.97218076 C11.235,3.97218076 10.716,4.10518681 10.244,4.35719828 C9.633,2.36610767 7.791,0.961043734 5.703,0.961043734 C3.08,0.961043734 0.945,3.12714231 0.945,5.78826341 C0.945,6.73730659 1.221,7.6163466 1.688,8.36238055 L1.688,8.36238055 L1.238,9.38942729 C0.436,8.36738077 0,7.11432375 0,5.78826341 C0,4.2431931 0.592,2.78812688 1.668,1.69607718 C2.746,0.602027396 4.178,-3.8191672e-14 5.703,-3.8191672e-14 Z" id="path-1"></path>
    </defs>
    <g id="Icons/16px/Weather/Storms" stroke="none" stroke-width="1" fill="none" fill-rule="evenodd">
        <mask id="mask-2" fill="white">
            <use xlink:href="#path-1"></use>
        </mask>
        <use id="Mask" fill="#0C2340" fill-rule="nonzero" xlink:href="#path-1"></use>
        <g id="Group" mask="url(#mask-2)" fill="#333333">
            <g id="Color/Grayscale/80%">
                <rect id="Rectangle" x="0" y="0" width="16" height="16"></rect>
            </g>
        </g>
    </g>
</svg>