<?xml version="1.0" encoding="UTF-8"?>
<svg width="16px" height="16px" viewBox="0 0 16 16" version="1.1" xmlns="http://www.w3.org/2000/svg" xmlns:xlink="http://www.w3.org/1999/xlink">
    <title>Icons/16px/Travel &amp; Airport/Stroller</title>
    <defs>
        <path d="M1.32777555,2.08133632 C1.49102599,2.04134016 2.97660501,1.76936627 3.84183235,2.43330252 C4.20098332,2.72127488 4.40504637,3.13723494 4.42137141,3.64918579 L4.42137141,3.64918579 L4.42137141,6.1769431 L15,6.1769431 L15,7.88077952 C15,8.78469273 14.4204609,9.55261901 13.6042087,9.84059136 C13.4518416,9.89925239 13.0409947,9.94191496 12.3716679,9.96857907 C12.3553429,9.98991036 11.5445323,10.6671787 9.93923632,12.000384 L9.93923632,12.000384 L10.9840391,12.8563018 C11.2534024,12.6963172 11.5635782,12.5923272 11.8982416,12.5923272 C12.8532567,12.5923272 13.6368588,13.3602534 13.6368588,14.2961636 C13.6368588,15.2320737 12.8532567,16 11.8982416,16 C10.9432265,16 10.1596244,15.2320737 10.1596244,14.2961636 C10.1596244,13.9761943 10.2575747,13.688222 10.4126626,13.4322465 L10.4126626,13.4322465 L9.3025596,12.5203341 L8.25775678,13.3762519 C8.42916974,13.6482258 8.53528253,13.9601958 8.53528253,14.2961636 C8.53528253,15.2320737 7.75984293,16 6.79666533,16 C5.84165025,16 5.06621065,15.2320737 5.06621065,14.2961636 C5.06621065,13.3602534 5.84165025,12.5923272 6.79666533,12.5923272 C7.11500369,12.5923272 7.40885449,12.6803187 7.66189267,12.8243049 L7.66189267,12.8243049 L8.6740454,12.000384 C7.0687494,10.6671787 6.25793888,9.98991036 6.24161383,9.96857907 C5.56684534,9.94191496 5.15327756,9.89925239 5.00091048,9.84059136 C4.18465827,9.55261901 3.60511921,8.78469273 3.60511921,7.88077952 L3.60511921,7.88077952 L3.60511921,3.65718502 C3.59695668,3.39321036 3.50716894,3.2012288 3.32759346,3.06524185 C2.85416718,2.68927795 1.81752688,2.79326796 1.49102599,2.85726182 C1.2706379,2.90525721 1.05841232,2.76927027 1.00943719,2.553291 C0.960462059,2.33731174 1.10738746,2.12133248 1.32777555,2.08133632 Z M11.8982416,13.3922504 C11.3921653,13.3922504 10.9758766,13.8002112 10.9758766,14.2961636 C10.9758766,14.792116 11.3921653,15.2000768 11.8982416,15.2000768 C12.404318,15.2000768 12.8206066,14.792116 12.8206066,14.2961636 C12.8206066,13.8002112 12.404318,13.3922504 11.8982416,13.3922504 Z M6.79666533,13.3922504 C6.29058896,13.3922504 5.88246286,13.8002112 5.88246286,14.2961636 C5.88246286,14.792116 6.29058896,15.2000768 6.79666533,15.2000768 C7.31090422,15.2000768 7.71903032,14.792116 7.71903032,14.2961636 C7.71903032,13.8002112 7.31090422,13.3922504 6.79666533,13.3922504 Z M11.1391271,9.96857907 L7.47415466,9.96857907 L9.3025596,11.4724347 L11.1391271,9.96857907 Z M9.49029761,0.0014560023 C13.6858339,0.633395331 14.6898242,3.36113344 14.9346998,4.83299213 C14.9673499,5.04097216 14.983675,5.2249545 14.983675,5.37693991 L14.983675,5.37693991 L9.02503385,5.37693991 L9.02503385,0.401417602 C9.02503385,0.281429122 9.07400899,0.169439874 9.16379673,0.0974467863 C9.25358447,0.0174544663 9.3760223,-0.0065432297 9.49029761,0.0014560023 Z" id="path-1"></path>
    </defs>
    <g id="Icons/16px/Travel-&amp;-Airport/Stroller" stroke="none" stroke-width="1" fill="none" fill-rule="evenodd">
        <mask id="mask-2" fill="white">
            <use xlink:href="#path-1"></use>
        </mask>
        <use id="Mask" fill="#0C2340" fill-rule="nonzero" xlink:href="#path-1"></use>
        <g id="Group" mask="url(#mask-2)" fill="#333333">
            <g id="Color/Grayscale/80%">
                <rect id="Rectangle" x="0" y="0" width="16" height="16"></rect>
            </g>
        </g>
    </g>
</svg>