<?xml version="1.0" encoding="UTF-8"?>
<svg width="16px" height="16px" viewBox="0 0 16 16" version="1.1" xmlns="http://www.w3.org/2000/svg" xmlns:xlink="http://www.w3.org/1999/xlink">
    <title>Icons/16px/Weather/Sunny</title>
    <defs>
        <path d="M8.00024999,13.4820787 C8.18524421,13.4820787 8.33623949,13.633074 8.33623949,13.8160682 L8.33623949,15.6650105 C8.33623949,15.8500047 8.18524421,16 8.00024999,16 C7.81525577,16 7.66626043,15.8500047 7.66626043,15.6650105 L7.66626043,13.8160682 C7.66626043,13.633074 7.81525577,13.4820787 8.00024999,13.4820787 Z M4.12337114,11.8770288 C4.25536702,12.0080247 4.25536702,12.2200181 4.12337114,12.3500141 L2.81741196,13.6569732 C2.68541608,13.7869692 2.47442267,13.7869692 2.34442674,13.6569732 C2.21343083,13.5259773 2.21343083,13.3149839 2.34442674,13.183988 L3.65038593,11.8770288 C3.78138183,11.7460329 3.99237524,11.7460329 4.12337114,11.8770288 Z M12.3500141,11.8770288 L13.6559733,13.183988 C13.7869692,13.3149839 13.7869692,13.5259773 13.6559733,13.6559733 C13.5259773,13.7869692 13.3149839,13.7869692 13.182988,13.6569732 L11.8770288,12.3500141 C11.745033,12.2200181 11.745033,12.0070248 11.8770288,11.8770288 C12.0080247,11.7460329 12.2190182,11.7460329 12.3500141,11.8770288 Z M8.00024999,3.75618262 C10.3441767,3.75618262 12.2441174,5.65612325 12.2441174,8.00005 C12.2441174,10.3439768 10.3441767,12.2439174 8.00024999,12.2439174 C5.65632324,12.2439174 3.75538264,10.3439768 3.75538264,8.00005 C3.75538264,5.65612325 5.65632324,3.75618262 8.00024999,3.75618262 Z M8.00024999,4.58815662 C6.11430893,4.58815662 4.58835661,6.1151089 4.58835661,8.00005 C4.58835661,9.88499109 6.11430893,11.4119434 8.00024999,11.4119434 C9.88519109,11.4119434 11.4111434,9.88499109 11.4111434,8.00005 C11.4111434,6.1151089 9.88519109,4.58815662 8.00024999,4.58815662 Z M2.18293178,7.66526046 C2.367926,7.66526046 2.51892128,7.81525577 2.51892128,8.00024999 C2.51892128,8.18624418 2.367926,8.33523952 2.18293178,8.33523952 L0.3359895,8.33523952 C0.150995281,8.33523952 6.80122625e-13,8.18624418 6.80122625e-13,8.00024999 C6.80122625e-13,7.81525577 0.150995281,7.66526046 0.3359895,7.66526046 L2.18293178,7.66526046 Z M15.6660104,7.66526046 C15.8490047,7.66526046 16,7.81525577 16,8.00024999 C16,8.18624418 15.8490047,8.33523952 15.6660104,8.33523952 L13.8170682,8.33523952 C13.633074,8.33523952 13.4810787,8.18624418 13.4810787,8.00024999 C13.4810787,7.81525577 13.633074,7.66526046 13.8170682,7.66526046 L15.6660104,7.66526046 Z M13.6562732,2.34412675 C13.7872691,2.47512265 13.7862692,2.68611606 13.6562732,2.81711197 L12.3493141,4.12307115 C12.2183182,4.25406706 12.0083247,4.25406706 11.8773288,4.12307115 C11.745333,3.99307522 11.745333,3.78208181 11.8773288,3.6510859 L13.1822881,2.34412675 C13.3142839,2.21313084 13.5262773,2.21313084 13.6562732,2.34412675 Z M2.81811193,2.34412675 L4.12307115,3.6510859 C4.25506703,3.78208181 4.25506703,3.99307522 4.12307115,4.12307115 C3.99207525,4.25406706 3.78208181,4.25406706 3.6510859,4.12307115 L2.34412675,2.81711197 C2.21313084,2.68611606 2.21313084,2.47412268 2.34412675,2.34412675 C2.47412268,2.21313084 2.68611606,2.21313084 2.81811193,2.34412675 Z M8.00024999,-1.00364161e-13 C8.18524421,-1.00364161e-13 8.33623949,0.150995281 8.33623949,0.334989532 L8.33623949,2.18393175 C8.33623949,2.367926 8.18524421,2.51792131 8.00024999,2.51792131 C7.81525577,2.51792131 7.66626043,2.367926 7.66626043,2.18393175 L7.66626043,0.334989532 C7.66626043,0.150995281 7.81525577,-1.00364161e-13 8.00024999,-1.00364161e-13 Z" id="path-1"></path>
    </defs>
    <g id="Icons/16px/Weather/Sunny" stroke="none" stroke-width="1" fill="none" fill-rule="evenodd">
        <mask id="mask-2" fill="white">
            <use xlink:href="#path-1"></use>
        </mask>
        <use id="Mask" fill="#0C2340" fill-rule="nonzero" xlink:href="#path-1"></use>
        <g id="Group" mask="url(#mask-2)" fill="#333333">
            <g id="Color/Grayscale/80%">
                <rect id="Rectangle" x="0" y="0" width="16" height="16"></rect>
            </g>
        </g>
    </g>
</svg>