<?xml version="1.0" encoding="UTF-8"?>
<svg width="16px" height="16px" viewBox="0 0 16 16" version="1.1" xmlns="http://www.w3.org/2000/svg" xmlns:xlink="http://www.w3.org/1999/xlink">
    <title>Icons/16px/Travel &amp; Airport/UNMR/Teen</title>
    <defs>
        <path d="M3.06681057,10.4046745 C3.8017534,10.9478353 4.34602554,11.3512451 4.69962694,11.6149043 C4.7286472,11.6365611 4.75901894,11.6788041 4.7589478,11.7113759 L4.76147934,11.9413144 C4.76236487,12.1326627 4.75058514,12.3225155 4.654105,12.5046673 C4.1269036,13.5001933 3.60734848,14.4995534 3.08064498,15.4953213 C2.8906263,15.8546115 2.52303634,16.0437551 2.14666206,15.9913918 C1.75574208,15.9370596 1.45639952,15.6620137 1.3749223,15.2803067 C1.32826228,15.0616999 1.3793678,14.860467 1.48847829,14.6673857 C1.98619709,13.7863959 2.4842004,12.9055443 2.97526872,12.0211004 C3.02843696,11.9253542 3.06016009,11.8070875 3.06275627,11.6983886 C3.0694186,11.4202686 3.07077003,10.9890305 3.06681057,10.4046745 Z M5.1947318,3.82654147 C5.57626287,3.8758653 5.95914534,3.91520692 6.3411032,3.96124939 C6.76221707,4.01195483 7.059568,4.23052707 7.25691287,4.59123342 C7.54547954,5.11856311 7.83550434,5.64527107 8.13616274,6.16614168 C8.18154247,6.24475584 8.278739,6.31950146 8.36786254,6.34620126 L8.85530854,6.48717508 L8.85530854,6.48717508 L9.83395467,6.75744033 L9.83395467,6.75744033 C10.2908104,6.88506747 10.5400432,7.27986527 10.4257403,7.6909662 C10.3040402,8.1286288 9.88474014,8.35891027 9.4152236,8.23318287 C8.77087427,8.06065313 8.12954787,7.87755393 7.48633654,7.7009484 C7.24467887,7.63459613 7.0676766,7.49574333 6.95102654,7.28017613 C6.82808167,7.0529688 6.7009046,6.82793747 6.5755414,6.60193906 L6.5357452,6.6059803 C6.50338194,6.79508947 6.4688848,6.98385327 6.43897547,7.17330787 C6.32161414,7.91648107 6.208556,8.6603106 6.086927,9.402793 C6.06253007,9.55152433 6.07970747,9.65241713 6.22036327,9.75182467 C6.70858647,10.0969878 7.1802724,10.4641532 7.66540154,10.8135649 C7.90769934,10.9881325 8.0494932,11.2089153 8.10077654,11.496154 C8.3066568,12.6493574 8.51744487,13.8018009 8.7266326,14.9544862 C8.81532934,15.4429579 8.5139596,15.8750594 8.01076394,15.9801661 C7.54811127,16.0767759 7.0697038,15.7867394 6.97126247,15.3113241 C6.81634554,14.5632461 6.6902354,13.8095035 6.55224694,13.0581096 C6.50139034,12.7813021 6.446764,12.5050127 6.40309134,12.2271345 C6.3838156,12.1045848 6.32413914,12.0235183 6.2233862,11.9490144 C5.342287,11.2975117 4.46623794,10.6396189 3.58577888,9.98725267 C3.19791742,9.69987573 3.05288724,9.32911813 3.14354,8.86620647 C3.41724088,7.4683182 3.68756318,6.06980825 3.96325565,4.67229995 C4.0900059,4.02981227 4.5219312,3.73953397 5.1947318,3.82654147 Z M2.80497741,3.86483307 C2.89911543,3.87388267 2.9948894,3.87533337 3.0871781,3.89339805 C3.3295115,3.94082215 3.47365256,4.14336759 3.42866405,4.37713763 C3.1332691,5.91118449 2.83698505,7.44505867 2.53778474,8.97838013 C2.47682797,9.2907298 2.27763376,9.4133486 1.95958452,9.3464782 C1.6936366,9.29055713 1.42740416,9.23529233 1.16330557,9.17184147 C0.401701564,8.9888114 -0.0128329357,8.18343073 0.341562764,7.50509 C0.924741964,6.38905219 1.53800834,5.28772862 2.14430416,4.18312369 C2.28200814,3.93225611 2.51904249,3.84524861 2.80497741,3.86483307 Z M5.88874854,0 C6.80237607,0 7.54301754,0.743808087 7.54301754,1.66134185 C7.54301754,2.57887562 6.80237607,3.32268371 5.88874854,3.32268371 C4.975121,3.32268371 4.23447954,2.57887562 4.23447954,1.66134185 C4.23447954,0.743808087 4.975121,0 5.88874854,0 Z" id="path-1"></path>
    </defs>
    <g id="Icons/16px/Travel-&amp;-Airport/UNMR/Teen" stroke="none" stroke-width="1" fill="none" fill-rule="evenodd">
        <g id="Icon" transform="translate(2.666667, 0.000000)">
            <mask id="mask-2" fill="white">
                <use xlink:href="#path-1"></use>
            </mask>
            <use id="Mask" fill="#000000" fill-rule="nonzero" xlink:href="#path-1"></use>
            <g id="Group" mask="url(#mask-2)">
                <g transform="translate(-2.666667, 0.000000)" id="Color/Grayscale/80%">
                    <rect id="Rectangle" fill="#333333" x="0" y="0" width="16" height="16"></rect>
                </g>
            </g>
        </g>
    </g>
</svg>