<?xml version="1.0" encoding="UTF-8"?>
<svg width="16px" height="16px" viewBox="0 0 16 16" version="1.1" xmlns="http://www.w3.org/2000/svg" xmlns:xlink="http://www.w3.org/1999/xlink">
    <title>Icons/16px/Travel &amp; Airport/Traveler group</title>
    <defs>
        <path d="M8.74667137,6.21756551 C10.7201931,6.21756551 12.3284192,7.77405143 12.4056952,9.71549054 L12.4086022,9.86180195 L12.4086022,12.6883969 C12.4086022,12.8437762 12.2992945,12.9691306 12.1514242,12.9950688 L12.0943034,13 L3.38893002,13 C3.23309112,13 3.10646808,12.89191 3.08025356,12.7451212 L3.07526882,12.6883969 L3.07526882,9.86180195 C3.07526882,7.90184739 4.63536023,6.2975577 6.58988862,6.22046561 L6.7371996,6.21756551 L8.74667137,6.21756551 Z M3.24080146,5.0733274 C3.7769734,5.0733274 4.26596003,5.27702445 4.63617463,5.61152414 C3.30591514,6.25259159 2.32726077,7.50440298 2.06803564,9.00046 L0.179234973,9 C0.0933645589,9 0.0230177317,8.94181166 0.0046710956,8.86145634 L-2.09610107e-13,8.8195982 L-2.09610107e-13,7.1831485 C-2.09610107e-13,6.06017635 0.873131778,5.13887724 1.97376568,5.07667466 L2.09253188,5.0733274 L3.24080146,5.0733274 Z M13.9074681,5.0733274 C15.0235287,5.0733274 15.9351453,5.95590333 15.9966883,7.06363171 L16,7.1831485 L16,8.8195982 C16,8.90634192 15.9419204,8.97692222 15.8620083,8.99531774 L15.8204007,9 L13.328354,9 C13.0771773,7.668581 12.2549309,6.53697111 11.1251754,5.86746347 C11.4802008,5.41820714 12.0141997,5.11854422 12.6185369,5.07802736 L12.7591985,5.0733274 L13.9074681,5.0733274 Z M7.74199924,0.333333333 C9.19873876,0.333333333 10.3864437,1.51324513 10.3864437,2.96042627 C10.3864437,4.41457415 9.19873876,5.59385261 7.74199924,5.59385261 C6.28462219,5.59385261 5.09755479,4.41457415 5.09755479,2.96042627 C5.09755479,1.51324513 6.28462219,0.333333333 7.74199924,0.333333333 Z M13.3333698,1.66666667 C14.1657923,1.66666667 14.8444809,2.3497735 14.8444809,3.18761521 C14.8444809,4.02949029 14.1657923,4.71223046 13.3333698,4.71223046 C12.5005829,4.71223046 11.8222587,4.02949029 11.8222587,3.18761521 C11.8222587,2.3497735 12.5005829,1.66666667 13.3333698,1.66666667 Z M2.6667031,1.66666667 C3.49912568,1.66666667 4.17781421,2.3497735 4.17781421,3.18761521 C4.17781421,4.02949029 3.49912568,4.71223046 2.6667031,4.71223046 C1.83391621,4.71223046 1.15559199,4.02949029 1.15559199,3.18761521 C1.15559199,2.3497735 1.83391621,1.66666667 2.6667031,1.66666667 Z" id="path-1"></path>
    </defs>
    <g id="Icons/16px/Travel-&amp;-Airport/Traveler-group" stroke="none" stroke-width="1" fill="none" fill-rule="evenodd">
        <g id="Group" transform="translate(0.000000, 1.333333)">
            <mask id="mask-2" fill="white">
                <use xlink:href="#path-1"></use>
            </mask>
            <use id="Mask" fill="#333333" fill-rule="nonzero" xlink:href="#path-1"></use>
            <g mask="url(#mask-2)" id="Color/Grayscale/80%">
                <g transform="translate(0.000000, -1.333333)">
                    <rect id="Rectangle" fill="#333333" x="0" y="0" width="16" height="16"></rect>
                </g>
            </g>
        </g>
    </g>
</svg>