<?xml version="1.0" encoding="UTF-8"?>
<svg width="16px" height="16px" viewBox="0 0 16 16" version="1.1" xmlns="http://www.w3.org/2000/svg" xmlns:xlink="http://www.w3.org/1999/xlink">
    <title>Icons/16px/Travel &amp; Airport/Traveler connecting</title>
    <defs>
        <path d="M14.6700945,13.34 C15.4046333,13.34 16.0000945,13.9354613 16.0000945,14.67 C16.0000945,15.4045387 15.4046333,16 14.6700945,16 C14.1775215,16 13.74749,15.7322279 13.5176253,15.3343088 L2.48246923,15.3343088 C2.25260451,15.7322279 1.82257302,16 1.33,16 C0.595461283,16 0,15.4045387 0,14.67 C0,13.9354613 0.595461283,13.34 1.33,13.34 C1.82010398,13.34 2.24829185,13.6050944 2.47899755,13.9997173 L13.521097,13.9997173 C13.7518027,13.6050944 14.1799906,13.34 14.6700945,13.34 Z M5.13991277,11.5668685 C5.3853729,11.5656241 5.58388062,11.7749968 5.58269726,12.031244 C5.58209761,12.2887412 5.3818069,12.4993639 5.13694112,12.4999945 C4.88969795,12.5012389 4.69000157,12.2924911 4.69118496,12.0349939 C4.69178457,11.7781217 4.89266962,11.567499 5.13991277,11.5668685 Z M9.07054379,2.31072484 C9.55897867,2.31072484 10.0842525,2.51630111 10.3775527,2.86171433 L10.4583148,2.96946766 L11.4746267,4.64382443 L12.6448713,4.92632135 C12.8609449,4.97409861 13.0061093,5.18138031 12.9998023,5.40638471 L12.9901796,5.4913152 C12.9390669,5.72006271 12.7536345,5.8675611 12.5491835,5.8675611 C12.5170894,5.8675611 12.4849953,5.8675611 12.4529013,5.86131117 L11.129656,5.52219487 L11.129656,5.52219487 L10.9569614,5.47131542 L10.9569614,5.47131542 C10.9185278,5.44423238 10.8829998,5.41409382 10.8503774,5.37719607 L10.8036231,5.31631711 L10.247326,4.38820221 L9.85031062,6.56692849 L11.8009164,11.3212517 L11.8009164,11.3212517 C11.8975948,11.5779156 11.8022078,11.8721099 11.5823774,12.0194746 L11.4942398,12.0674936 C11.4169763,12.0943683 11.3533825,12.1081181 11.2826567,12.1081181 C11.0967149,12.1081181 10.9195062,12.0089356 10.8161544,11.8408762 L10.7709347,11.751247 L9.46696489,8.6781555 L9.26905151,9.78126849 L8.99387465,11.6774978 C8.95953532,11.9286062 8.76881999,12.1160116 8.54278049,12.1545571 L8.45659628,12.1618676 L8.37338946,12.1618676 L8.3603141,12.1549926 C8.09553809,12.1128056 7.90345514,11.8741957 7.89584884,11.5963518 L7.90029922,11.5024997 L8.57130284,6.89004997 C8.32417856,6.70836445 7.98895609,6.40669898 7.95687808,6.07845568 L7.95794966,5.96818501 L8.22005117,3.87070785 L6.83881785,4.75819819 L6.41089703,6.4369299 L5.55981007,11.5024997 C5.44450918,11.388126 5.29117089,11.3212517 5.11821956,11.3212517 C4.75389253,11.3212517 4.45969696,11.6368733 4.45969696,12.0137442 C4.45969696,12.1482427 4.49659325,12.2739413 4.56034394,12.3809202 L4.61303526,12.4574893 L3.48142242,12.3162409 C3.32748979,12.2893662 3.19970788,12.2087421 3.11055771,12.0874934 C3.03876211,11.9854945 2.99967867,11.8658958 3,11.7430971 L3.00773785,11.6506231 L3.68587348,7.83816465 C3.72010715,7.56591761 3.94642377,7.36403856 4.21967796,7.3464325 L4.31230201,7.34754499 L5.57229109,7.56941757 L5.81418522,6.22068226 L5.81418522,6.22068226 C5.63885655,6.11380842 5.54435737,5.89881076 5.60497949,5.68631308 L5.89696415,4.73287772 L5.89696415,4.73287772 L6.03097801,4.31892563 L6.03097801,4.31892563 L6.1003445,4.12242142 C6.11936669,4.07257089 6.13371429,4.0403935 6.14166352,4.03195609 L7.05223063,3.39374594 L7.05223063,3.39374594 L7.80729967,2.87764626 L7.80729967,2.87764626 L8.20914676,2.61310679 L8.20914676,2.61310679 L8.42165697,2.48058398 C8.51342882,2.42559362 8.58143236,2.38901203 8.61647226,2.37759911 C8.75673519,2.33759954 8.91066782,2.31072484 9.07054379,2.31072484 Z M9.8570266,0 C10.3752863,0 10.7966694,0.443745168 10.7966694,0.995614158 C10.7966694,1.53998323 10.3752863,1.99060332 9.8570266,1.99060332 C9.33222926,1.99060332 8.91084612,1.53998323 8.91084612,0.995614158 C8.91084612,0.443745168 9.33222926,0 9.8570266,0 Z" id="path-1"></path>
    </defs>
    <g id="Icons" stroke="none" stroke-width="1" fill="none" fill-rule="evenodd">
        <g transform="translate(-751.000000, -1290.000000)" id="Icons/16px/Travel-&amp;-Airport/Traveler-connecting">
            <g transform="translate(751.000000, 1290.000000)">
                <mask id="mask-2" fill="white">
                    <use xlink:href="#path-1"></use>
                </mask>
                <use id="Shape" fill="#231F20" xlink:href="#path-1"></use>
                <g id="Color/Grayscale/80%" mask="url(#mask-2)" fill="#333333">
                    <rect id="Rectangle" x="0" y="0" width="16" height="16"></rect>
                </g>
            </g>
        </g>
    </g>
</svg>