<?xml version="1.0" encoding="UTF-8"?>
<svg width="16px" height="16px" viewBox="0 0 16 16" version="1.1" xmlns="http://www.w3.org/2000/svg" xmlns:xlink="http://www.w3.org/1999/xlink">
    <title>Icons/16px/Travel &amp; Airport/United club</title>
    <defs>
        <path d="M8.85860674,12.595995 L8.85860674,13.4119962 C10.1744039,13.4999963 11.41985,13.943197 11.41985,14.6967981 C11.41985,15.5439993 9.85125277,16 8.37697241,16 C6.90191897,16 5.33486796,15.5439993 5.33486796,14.6967981 C5.33486796,13.943197 6.58031403,13.4999963 7.89611118,13.4119962 L7.89611118,13.4119962 L7.89611118,12.595995 L8.85860674,12.595995 Z M10.0945438,0.0150165267 C11.2247996,-0.138583699 11.2843275,0.922217859 10.9712265,1.55101878 C10.7253843,2.05021952 9.36165562,3.82222212 9.36165562,5.76062496 C9.36165562,6.3270258 10.1904068,6.78702647 11.2124302,6.78702647 C11.5781012,6.78702647 12.1277674,6.61902622 12.4447338,6.61902622 C13.1482446,6.61902622 13.5,7.00169345 13.5,7.76702791 C13.4590263,8.80382943 13.0577932,10.1838315 10.7346613,11.4326333 C7.98633064,12.9070355 4.99602314,11.8542339 3.95080708,9.64223066 C2.5538356,6.68702632 2.34896707,1.98941943 2.58243989,0.399817092 C2.65124479,-0.0729836025 3.2032302,0.522217272 3.26430422,0.590217371 C3.25657333,0.695817526 2.90805918,2.40657552 3.58900152,5.96302526 C3.72338362,6.66488088 4.33271295,7.150227 5.04395465,7.150227 C5.25346171,7.150227 5.4335914,7.10222693 5.60908256,7.05582687 C5.75210399,7.01742681 5.88584836,6.98142676 6.01804654,6.98142676 C6.46179952,6.98142676 6.54838546,7.12062696 6.68908762,7.41342739 C7.33152442,8.74622935 8.16568724,9.51503048 8.3690096,9.65503068 C8.7973008,10.0502313 9.54101223,10.2870316 10.357394,10.2870316 C11.6917453,10.2870316 12.7369613,9.64783067 12.7369613,8.83182947 C12.7369613,8.01662828 11.6917453,7.37822734 10.357394,7.37822734 C9.78066976,7.37822734 8.39529462,7.51582754 7.71111103,7.83422801 C7.55649326,7.59502766 7.41501801,7.33982728 7.28745836,7.0774269 C7.08104365,6.65022627 6.78417755,6.25502569 6.01804654,6.25502569 C5.80467403,6.25502569 5.17228739,6.42382594 5.04395465,6.42382594 C4.65431789,6.42382594 4.32034352,6.16942556 4.24999244,5.81982505 C3.73898074,3.28142132 3.82788596,2.10141959 3.91524499,0.957417911 C3.91524499,0.944617892 3.91756426,0.931017872 3.91756426,0.918217853 C4.46336495,1.08141809 5.16687577,1.06541807 6.29326616,0.906217835 C8.25459246,0.628617428 8.96738033,0.167816751 10.0945438,0.0150165267 Z" id="path-1"></path>
    </defs>
    <g id="Icons/16px/Travel-&amp;-Airport/United-club" stroke="none" stroke-width="1" fill="none" fill-rule="evenodd">
        <mask id="mask-2" fill="white">
            <use xlink:href="#path-1"></use>
        </mask>
        <use id="Mask" fill="#0C2340" fill-rule="nonzero" xlink:href="#path-1"></use>
        <g id="Group" mask="url(#mask-2)" fill="#333333">
            <g id="Color/Grayscale/80%">
                <rect id="Rectangle" x="0" y="0" width="16" height="16"></rect>
            </g>
        </g>
    </g>
</svg>