<?xml version="1.0" encoding="UTF-8"?>
<svg width="16px" height="16px" viewBox="0 0 16 16" version="1.1" xmlns="http://www.w3.org/2000/svg" xmlns:xlink="http://www.w3.org/1999/xlink">
    <title>Icons/16px/Digital/Pin/Unpin</title>
    <defs>
        <path d="M1.5219379,0.35007567 L1.58961685,0.4108377 L14.2591623,13.0803832 C14.5846732,13.405894 14.5846732,13.9336514 14.2591623,14.2591623 C13.9553522,14.5629724 13.4753628,14.5832265 13.1480621,14.3199243 L13.0803832,14.2591623 L0.4108377,1.58961685 C0.0853268273,1.26410597 0.0853268273,0.736348573 0.4108377,0.4108377 C0.714647848,0.107027552 1.19463719,0.0867735423 1.5219379,0.35007567 Z M3.57117968,6.1641993 L8.51096878,11.1039884 L8.21965985,12.9894908 C8.1755512,13.1721444 8.01497123,13.2525009 7.83007943,13.1998871 C7.77080575,13.1830198 7.74872484,13.1185325 7.70465052,13.0744582 L5.36030751,10.7301152 L0.84813114,14.2804077 C0.708186157,14.4014923 0.533446152,14.3877189 0.410807455,14.2650802 C0.288168759,14.1424415 0.254539093,13.9512426 0.374271329,13.8065479 L3.94577253,9.31558018 L1.60138899,6.97119664 C1.46390843,6.83371607 1.40142979,6.67329468 1.53269153,6.54203294 C1.57477217,6.4999523 1.62780021,6.47032791 1.68635635,6.45618731 L3.57117968,6.1641993 Z M9.01960084,0.316311347 C9.08277211,0.332265946 9.14100559,0.365463487 9.18766009,0.412117986 L14.2637292,5.48818708 C14.4012097,5.62566764 14.4062511,5.84352632 14.2749894,5.97478806 C14.2304452,6.01933218 14.1736866,6.04986875 14.1111864,6.06291525 L11.2542032,6.2507544 L10.0486515,7.45582611 L7.21934196,4.62718339 L8.42513328,3.42168445 L8.61293191,0.564660745 C8.65137709,0.380486459 8.83344897,0.269296646 9.01960084,0.316311347 Z" id="path-1"></path>
    </defs>
    <g id="Icons/16px/Digital/Pin/Unpin" stroke="none" stroke-width="1" fill="none" fill-rule="evenodd">
        <g id="Pin" transform="translate(0.665000, 0.665000)">
            <mask id="mask-2" fill="white">
                <use xlink:href="#path-1"></use>
            </mask>
            <use id="Mask" fill="#D8D8D8" xlink:href="#path-1"></use>
            <g id="Group" mask="url(#mask-2)">
                <g transform="translate(-0.666818, -0.666818)" id="Color/Grayscale/80%">
                    <rect id="Rectangle" fill="#333333" x="0" y="0" width="16.0036364" height="16.0036364"></rect>
                </g>
            </g>
        </g>
    </g>
</svg>