<?xml version="1.0" encoding="UTF-8"?>
<svg width="16px" height="16px" viewBox="0 0 16 16" version="1.1" xmlns="http://www.w3.org/2000/svg" xmlns:xlink="http://www.w3.org/1999/xlink">
    <title>Icons/16px/Background shape/Upgrade</title>
    <defs>
        <path d="M8,-1.13686838e-13 C12.418278,-1.13686838e-13 16,3.581722 16,8 C16,12.418278 12.418278,16 8,16 C3.581722,16 0,12.418278 0,8 C0,3.581722 3.581722,-1.13686838e-13 8,-1.13686838e-13 Z M8,4 C7.7982026,4 7.6026198,4.0698159 7.44643723,4.19760164 L7.44643723,4.19760164 L4.24450814,6.8173618 L4.16634022,6.8925913 C3.95389616,7.13316602 3.94085859,7.49902497 4.15069513,7.75549186 L4.15069513,7.75549186 L4.22592464,7.83365978 C4.46649936,8.04610384 4.83235831,8.05914141 5.08882519,7.84930487 L5.08882519,7.84930487 L7.33253661,6.013 L7.33333333,11.3333333 L7.34056171,11.4318484 C7.38817799,11.7533249 7.66528197,12 8,12 L8,12 L8.09851511,11.9927716 C8.4199916,11.9451553 8.66666667,11.6680514 8.66666667,11.3333333 L8.66666667,11.3333333 L8.66653661,6.013 L10.9111748,7.84930487 L11.0003934,7.91102798 C11.2782724,8.07162666 11.6394683,8.01195875 11.8493049,7.75549186 C12.0824566,7.47052865 12.0404551,7.05051352 11.7554919,6.8173618 L11.7554919,6.8173618 L8.55356277,4.19760164 L8.45539069,4.12798134 C8.3188985,4.04468218 8.16143792,4 8,4 Z" id="path-1"></path>
    </defs>
    <g id="Icons/16px/Background-shape/Upgrade" stroke="none" stroke-width="1" fill="none" fill-rule="evenodd">
        <mask id="mask-2" fill="white">
            <use xlink:href="#path-1"></use>
        </mask>
        <use id="Combined-Shape" fill="#002244" xlink:href="#path-1"></use>
        <g id="Group" mask="url(#mask-2)" fill="#333333">
            <g id="Color/Grayscale/80%">
                <rect id="Rectangle" x="0" y="0" width="16" height="16"></rect>
            </g>
        </g>
    </g>
</svg>