<?xml version="1.0" encoding="UTF-8"?>
<svg width="16px" height="16px" viewBox="0 0 16 16" version="1.1" xmlns="http://www.w3.org/2000/svg" xmlns:xlink="http://www.w3.org/1999/xlink">
    <title>Icons/16px/Travel &amp; Airport/Vaccine</title>
    <defs>
        <path d="M9.6352735,2.94713534 L13.0504566,6.36294861 L7.68121022,11.7331857 C7.16981828,12.2475948 6.47038022,12.3661309 5.77192579,12.4144241 L5.07291947,12.4488827 L3.77938997,13.7426779 C3.66411668,13.8579725 3.47722175,13.8579725 3.36194846,13.7426779 L3.14297205,13.5236682 L0.735725487,15.931359 C0.649446494,16 0.531365314,16 0.413284133,16 L8.8817842e-16,16 L8.8817842e-16,15.5867159 C8.8817842e-16,15.4686347 8.8817842e-16,15.3505535 0.0629119147,15.2700596 L2.47587492,12.856448 L2.25646747,12.636993 C2.14119418,12.5216984 2.14119418,12.334769 2.25646747,12.2194744 L3.55344341,10.9222179 L3.59007472,10.2452256 C3.63216677,9.53499031 3.75345713,8.83922281 4.25373901,8.32979999 L4.75306706,7.83024264 L6.10497187,9.1853492 C6.19452944,9.2749233 6.34063674,9.27682913 6.43260068,9.1910667 L6.772069,8.85173909 C6.86162657,8.762165 6.86353205,8.61603073 6.77778544,8.52404982 L5.42016419,7.16597472 L6.22192049,6.36407049 L7.55786083,7.70024112 C7.65957256,7.80197162 7.82324072,7.80396633 7.92738211,7.70622527 L7.93355819,7.70024112 L8.22576724,7.40797815 C8.32747897,7.30624766 8.32947332,7.14254929 8.23175029,7.03838869 L8.22576724,7.03221147 L6.88984411,5.69602362 L7.70187252,4.88384537 L9.05082557,6.23599963 C9.14038314,6.32557373 9.28649045,6.32747956 9.37845439,6.24171713 L9.7179227,5.90238952 C9.80748027,5.81281542 9.80938575,5.66668116 9.72363914,5.57470025 L8.36896965,4.21662515 L9.6352735,2.94713534 Z M13.2600314,0.0686410185 C13.3495889,-0.0209330766 13.4956962,-0.0228389084 13.5876602,0.0629235231 L15.9313716,2.4068641 C16.0209292,2.49932768 16.0228347,2.64269542 15.9370881,2.73732514 L15.5978231,3.07703663 C15.5082655,3.16661072 15.3621582,3.16851655 15.2701943,3.08275412 L14.4289272,2.2415352 L13.3869569,3.28369776 L15.379393,5.27650152 C15.4689506,5.36607562 15.4708561,5.51220988 15.3851095,5.60419079 L14.6739231,6.31866408 C14.5843655,6.40823818 14.4382582,6.41014401 14.3462943,6.32438158 L9.68545337,1.65697943 C9.5958958,1.56740533 9.59399032,1.42127107 9.67973693,1.32929016 L10.3909233,0.617769167 C10.4804809,0.528195072 10.6265882,0.52628924 10.7185522,0.612051671 L12.7198598,2.61352523 L13.7618301,1.57136267 L12.9264828,0.735861242 C12.8369252,0.646287147 12.8350197,0.500152882 12.9207664,0.408171971 L13.2600314,0.0686410185 Z" id="path-1"></path>
    </defs>
    <g id="Icons/16px/Travel-&amp;-Airport/Vaccine" stroke="none" stroke-width="1" fill="none" fill-rule="evenodd">
        <g id="Icon">
            <mask id="mask-2" fill="white">
                <use xlink:href="#path-1"></use>
            </mask>
            <use id="Mask" fill="#000000" fill-rule="nonzero" xlink:href="#path-1"></use>
            <g id="Group" mask="url(#mask-2)" fill="#333333">
                <g id="Color/Grayscale/80%">
                    <rect id="Rectangle" x="0" y="0" width="16" height="16"></rect>
                </g>
            </g>
        </g>
    </g>
</svg>