<?xml version="1.0" encoding="UTF-8"?>
<svg width="16px" height="16px" viewBox="0 0 16 16" version="1.1" xmlns="http://www.w3.org/2000/svg" xmlns:xlink="http://www.w3.org/1999/xlink">
    <title>Icons/16px/Digital/View/On</title>
    <defs>
        <path d="M8,8.33333333 C9.65685425,8.33333333 11,6.99018758 11,5.33333333 C11,3.67647908 9.65685425,2.33333333 8,2.33333333 C6.34314575,2.33333333 5,3.67647908 5,5.33333333 C5,6.99018758 6.34314575,8.33333333 8,8.33333333 Z M15.9033483,4.92778713 C14.3969566,1.98861489 11.4147287,0 8,0 C4.58527129,0 1.60221007,1.99000378 0.0966516601,4.92806491 C-0.03221722,5.18298201 -0.03221722,5.48398269 0.0966516601,5.73889979 C1.60304341,8.67807203 4.58527129,10.6666869 8,10.6666869 C11.4147287,10.6666869 14.3977899,8.67668314 15.9033483,5.73862201 C16.0322172,5.48370491 16.0322172,5.18270423 15.9033483,4.92778713 Z M8,9.33335106 C5.25971702,9.33335106 2.74749003,7.80557038 1.39082078,5.33333587 C2.74749003,2.86111654 5.25943924,1.33333587 8,1.33333587 C10.7405608,1.33333587 13.25251,2.86111654 14.6091792,5.33333587 C13.2527878,7.80557038 10.7405608,9.33335106 8,9.33335106 Z" id="path-1"></path>
    </defs>
    <g id="Icons/16px/Digital/View/On" stroke="none" stroke-width="1" fill="none" fill-rule="evenodd">
        <g id="Icon" transform="translate(0.000000, 2.666667)">
            <mask id="mask-2" fill="white">
                <use xlink:href="#path-1"></use>
            </mask>
            <use id="Mask" fill="#000000" fill-rule="nonzero" xlink:href="#path-1"></use>
            <g id="Group" mask="url(#mask-2)">
                <g transform="translate(0.000000, -2.666667)" id="Color/Grayscale/80%">
                    <rect id="Rectangle" fill="#333333" x="0" y="0" width="16" height="16"></rect>
                </g>
            </g>
        </g>
    </g>
</svg>