<?xml version="1.0" encoding="UTF-8"?>
<svg width="16px" height="16px" viewBox="0 0 16 16" version="1.1" xmlns="http://www.w3.org/2000/svg" xmlns:xlink="http://www.w3.org/1999/xlink">
    <title>Icons/16px/Digital/View/Off</title>
    <defs>
        <path d="M1.52159208,0.349996126 L1.58925565,0.410744349 L15.5892557,14.4107443 C15.9146926,14.7361813 15.9146926,15.2638187 15.5892557,15.5892557 C15.2855145,15.8929968 14.8056343,15.9132462 14.4784079,15.6500039 L14.4107443,15.5892557 L0.410744349,1.58925565 C0.0853074392,1.26381874 0.0853074392,0.736181259 0.410744349,0.410744349 C0.714485465,0.107003233 1.19436575,0.0867538255 1.52159208,0.349996126 Z M2.24745973,4.8395871 L3.19139974,5.78370324 C2.47699928,6.3912458 1.86372361,7.13825027 1.39082078,8.00001013 C2.74749003,10.472237 5.25971702,12.0000177 8,12.0000177 C8.43803666,12.0000177 8.87024005,11.9609873 9.29282288,11.8853084 L10.4015676,12.9947126 C9.63667014,13.2154655 8.8311211,13.3333536 8,13.3333536 C4.58527129,13.3333536 1.60304341,11.3447387 0.0966516601,8.40556645 C-0.03221722,8.15064935 -0.03221722,7.84964868 0.0966516601,7.59473158 C0.638476665,6.53737308 1.37166168,5.60280302 2.24745973,4.8395871 Z M8,2.66666667 C11.4147287,2.66666667 14.3969566,4.65528155 15.9033483,7.5944538 C16.0322172,7.8493709 16.0322172,8.15037158 15.9033483,8.40528867 C15.3615233,9.46264718 14.6283383,10.3972172 13.7525403,11.1604332 L12.8087235,10.216317 C13.5231269,9.60877445 14.1363732,8.86176998 14.6091792,8.00001013 C13.25251,5.52778321 10.7405608,4 8,4 C7.56196334,4 7.12976705,4.03903294 6.70719501,4.11471181 L5.59776261,3.00550096 C6.3628596,2.78462363 7.16863631,2.66666667 8,2.66666667 Z M5.02416378,7.61743088 L8.38256912,10.9758362 C8.2572942,10.9917812 8.12960691,11 8,11 C6.34314575,11 5,9.65685425 5,8 C5,7.87039309 5.00821885,7.7427058 5.02416378,7.61743088 Z M8,5 C9.65685425,5 11,6.34314575 11,8 C11,8.12960691 10.9917812,8.2572942 10.9758362,8.38256912 L7.61676455,5.02424867 C7.74225302,5.00824802 7.87016329,5 8,5 Z" id="path-1"></path>
    </defs>
    <g id="Icons/16px/Digital/View/Off" stroke="none" stroke-width="1" fill="none" fill-rule="evenodd">
        <g id="Icon">
            <mask id="mask-2" fill="white">
                <use xlink:href="#path-1"></use>
            </mask>
            <use id="Mask" fill="#000000" fill-rule="nonzero" xlink:href="#path-1"></use>
            <g id="Group" mask="url(#mask-2)" fill="#333333">
                <g id="Color/Grayscale/80%">
                    <rect id="Rectangle" x="0" y="0" width="16" height="16"></rect>
                </g>
            </g>
        </g>
    </g>
</svg>