<?xml version="1.0" encoding="UTF-8"?>
<svg width="16px" height="16px" viewBox="0 0 16 16" version="1.1" xmlns="http://www.w3.org/2000/svg" xmlns:xlink="http://www.w3.org/1999/xlink">
    <title>Icons/16px/Digital/Weight</title>
    <defs>
        <path d="M15.9462239,13.9328125 L13.6640364,4.80375 C13.5452864,4.3290625 13.1502864,4 12.6993489,4 L10.8165364,4 C10.9280989,3.6859375 11.0002864,3.3525 11.0002864,3 C11.0002864,1.343125 9.65716136,0 8.00028636,0 C6.34341136,0 5.00028636,1.343125 5.00028636,3 C5.00028636,3.3525 5.07216136,3.6859375 5.18403636,4 L3.30122386,4 C2.85028636,4 2.45497386,4.329375 2.33653636,4.80375 L0.0537238621,13.9328125 C-0.206588638,14.97375 0.511848862,15.9996875 1.50091136,15.9996875 L14.4993489,15.9996875 C15.4880989,15.9996875 16.2065364,14.97375 15.9462239,13.9328125 Z M7.99997386,3.9996875 C7.44872386,3.9996875 6.99997386,3.5509375 6.99997386,2.9996875 C6.99997386,2.4484375 7.44872386,1.9996875 7.99997386,1.9996875 C8.55122386,1.9996875 8.99997386,2.4484375 8.99997386,2.9996875 C8.99997386,3.5509375 8.55122386,3.9996875 7.99997386,3.9996875 Z" id="path-1"></path>
    </defs>
    <g id="Icons" stroke="none" stroke-width="1" fill="none" fill-rule="evenodd">
        <g transform="translate(-631.000000, -589.000000)" id="Icons/16px/Digital/Weight">
            <g transform="translate(631.000026, 589.000313)">
                <mask id="mask-2" fill="white">
                    <use xlink:href="#path-1"></use>
                </mask>
                <use id="Mask" fill="#000000" fill-rule="nonzero" xlink:href="#path-1"></use>
                <g id="Color/Grayscale/80%" mask="url(#mask-2)" fill="#333333">
                    <g transform="translate(-0.000026, -0.000313)" id="Rectangle">
                        <rect x="0" y="0" width="16" height="16"></rect>
                    </g>
                </g>
            </g>
        </g>
    </g>
</svg>