<?xml version="1.0" encoding="UTF-8"?>
<svg width="16px" height="16px" viewBox="0 0 16 16" version="1.1" xmlns="http://www.w3.org/2000/svg" xmlns:xlink="http://www.w3.org/1999/xlink">
    <title>Icons/16px/Travel &amp; Airport/Wifi</title>
    <defs>
        <path d="M7.99601284,14.5 C7.19603156,14.5 6.52884718,13.8230908 6.52884718,12.9832219 C6.52884718,12.1441887 7.19603156,11.4672795 7.99601284,11.4672795 C8.79599411,11.4672795 9.4631785,12.1709308 9.4631785,12.9832219 C9.4631785,13.8230908 8.79599411,14.5 7.99601284,14.5 Z M15.891828,4.85863975 C13.7846773,2.69253021 10.9839429,1.5 7.99601284,1.5 C5.00808278,1.5 2.20734833,2.69253021 0.100197655,4.85863975 C-0.0333992182,4.9940216 -0.0333992182,5.2380432 0.100197655,5.40016714 L0.79378142,6.10465415 C0.927378293,6.26677809 1.16737268,6.240036 1.32736893,6.10465415 C3.03452897,4.34385446 5.40887339,3.26079969 8.02241222,3.26079969 C10.636751,3.26079969 12.9838961,4.34385446 14.7182555,6.10465415 C14.8518524,6.26677809 15.0918467,6.26677809 15.251843,6.10465415 L15.9454268,5.40016714 C16.0254249,5.26478529 16.0254249,5.02159938 15.891828,4.85863975 M2.47454208,7.32309077 C2.34094521,7.45847262 2.34094521,7.70249421 2.47454208,7.86461815 L3.16812584,8.56910517 C3.30092274,8.73122911 3.54091712,8.70448701 3.70171335,8.56910517 C4.79528776,7.43173052 6.31525218,6.72724351 7.99601284,6.72724351 C9.6767735,6.72724351 11.1967379,7.43173052 12.2903123,8.56910517 C12.4239092,8.73122911 12.6639036,8.73122911 12.8238998,8.56910517 L13.5174836,7.86461815 C13.6510805,7.70249421 13.6510805,7.45847262 13.5174836,7.32309077 C12.0503179,5.80631268 10.0767641,4.96727951 7.99601284,4.96727951 C5.91526154,4.96727951 3.96810712,5.80631268 2.47454208,7.32309077 Z M4.87528588,9.76079969 C4.74168901,9.92292363 4.74168901,10.1402031 4.87528588,10.3023271 L5.54167029,11.0059784 C5.67526716,11.168938 5.91526154,11.1413602 6.0752578,11.0059784 C6.55524656,10.4920288 7.24883033,10.1936873 7.99601284,10.1936873 C8.74319535,10.1936873 9.40957975,10.5187709 9.91676788,11.0059784 C10.0503648,11.168938 10.2903591,11.168938 10.4503554,11.0059784 L11.1167398,10.3023271 C11.2503367,10.1402031 11.2503367,9.92292363 11.1167398,9.76079969 C10.3167585,8.94767292 9.22318411,8.43372332 7.99601284,8.43372332 C6.76884156,8.43372332 5.67526716,8.94767292 4.87528588,9.76079969 Z" id="path-1"></path>
    </defs>
    <g id="Icons/16px/Travel-&amp;-Airport/Wifi" stroke="none" stroke-width="1" fill="none" fill-rule="evenodd">
        <mask id="mask-2" fill="white">
            <use xlink:href="#path-1"></use>
        </mask>
        <use id="Mask" fill="#0C2340" fill-rule="nonzero" xlink:href="#path-1"></use>
        <g id="Group" mask="url(#mask-2)" fill="#333333">
            <g id="Color/Grayscale/80%">
                <rect id="Rectangle" x="0" y="0" width="16" height="16"></rect>
            </g>
        </g>
    </g>
</svg>