<?xml version="1.0" encoding="UTF-8"?>
<svg width="16px" height="16px" viewBox="0 0 16 16" version="1.1" xmlns="http://www.w3.org/2000/svg" xmlns:xlink="http://www.w3.org/1999/xlink">
    <title>Icons/16px/Weather/Windy</title>
    <defs>
        <path d="M12.4186448,8.86963093 C14.0646242,8.86963093 15.4026075,10.2531817 15.4026075,11.9531499 C15.4026075,13.3573815 14.2986213,14.5 12.9376383,14.5 C11.8046524,14.5 10.882664,13.5486796 10.882664,12.381244 C10.882664,11.3999364 11.6546543,10.6026885 12.6056424,10.6026885 C12.8216397,10.6026885 13.0026375,10.7867483 13.0026375,11.0121699 C13.0026375,11.2386255 12.8216397,11.4216513 12.6056424,11.4216513 C12.0936488,11.4216513 11.676654,11.8528476 11.676654,12.381244 C11.676654,13.0968024 12.240647,13.6800032 12.9376383,13.6800032 C13.8596268,13.6800032 14.6106174,12.9044703 14.6106174,11.9531499 C14.6106174,10.7050589 13.6276297,9.68962774 12.4186448,9.68962774 L12.4186448,9.68962774 L7.22970963,9.68962774 C7.01071237,9.68962774 6.82971463,9.50660197 6.82971463,9.28014636 C6.82971463,9.05369074 7.01071237,8.86963093 7.22970963,8.86963093 L7.22970963,8.86963093 Z M4.90693866,1.5 C6.21892226,1.5 7.45090686,2.04080496 8.37989525,3.02107859 C8.69189135,3.35197264 8.96288796,3.72526249 9.17788528,4.12750557 L9.17788528,4.12750557 L9.2718841,4.30329303 L9.46288171,4.2671015 C9.68387895,4.22263761 9.91087611,4.1988546 10.1368733,4.1988546 C11.0138623,4.1988546 11.8128523,4.538021 12.4408445,5.0891664 L12.4408445,5.0891664 L11.8358521,5.67443525 C11.360858,5.29287305 10.7748653,5.06021317 10.1368733,5.06021317 C9.6718791,5.06021317 9.22188473,5.18223035 8.81688979,5.40558384 C8.29189635,3.62082405 6.70591618,2.36239262 4.90693866,2.36239262 C2.64896689,2.36239262 0.812989838,4.30432708 0.812989838,6.69090041 C0.812989838,9.059895 2.62496719,10.9883869 4.85993925,11.0163061 L4.85993925,11.0163061 L10.002875,11.0163061 L9.5518806,11.8786987 L4.89893876,11.8786987 C3.5919551,11.8766306 2.36097049,11.3378937 1.43398208,10.3596882 C0.509993625,9.38044862 2.06679118e-12,8.07755329 2.06679118e-12,6.69090041 C2.06679118e-12,5.30528158 0.509993625,4.00135221 1.43398208,3.02107859 C2.36297046,2.04080496 3.59495506,1.5 4.90693866,1.5 Z M14.40202,4.27092746 C15.283009,4.27092746 16,5.0113029 16,5.91919345 C16,6.99770124 15.1470107,7.87560452 14.1020237,7.87560452 L14.1020237,7.87560452 L8.14909814,7.87560452 C7.93010087,7.87560452 7.75310309,7.69257875 7.75310309,7.46612313 C7.75310309,7.23966752 7.93010087,7.05767579 8.14909814,7.05767579 L8.14909814,7.05767579 L14.1020237,7.05767579 C14.7110161,7.05767579 15.2050099,6.54582405 15.2050099,5.91919345 C15.2050099,5.46214604 14.8440144,5.09092428 14.40202,5.09092428 C14.1810227,5.09092428 14.0050249,4.90686446 14.0050249,4.68040885 C14.0050249,4.45498727 14.1810227,4.27092746 14.40202,4.27092746 Z" id="path-1"></path>
    </defs>
    <g id="Icons/16px/Weather/Windy" stroke="none" stroke-width="1" fill="none" fill-rule="evenodd">
        <mask id="mask-2" fill="white">
            <use xlink:href="#path-1"></use>
        </mask>
        <use id="Mask" fill="#0C2340" fill-rule="nonzero" xlink:href="#path-1"></use>
        <g id="Group" mask="url(#mask-2)">
            <g transform="translate(0.000000, 0.000000)" id="Color/Grayscale/80%">
                <rect id="Rectangle" fill="#333333" x="0" y="0" width="16" height="16"></rect>
            </g>
        </g>
    </g>
</svg>