<?xml version="1.0" encoding="UTF-8"?>
<svg width="16px" height="16px" viewBox="0 0 16 16" version="1.1" xmlns="http://www.w3.org/2000/svg" xmlns:xlink="http://www.w3.org/1999/xlink">
    <title>Icons/16px/Weather/Wintery mix</title>
    <defs>
        <path d="M11.7928,10.1762548 L13.4318,13.0651284 C13.6148,13.3591155 13.7168,13.7071003 13.7168,14.0740843 C13.7168,15.1380377 12.8568,16 11.7928,16 C10.7298,16 9.8688,15.1380377 9.8688,14.0740843 C9.8688,13.7071003 9.9728,13.3591155 10.1518,13.0651284 L10.1518,13.0651284 L11.7928,10.1762548 Z M6.3185,6.71300631 C6.5325,6.71300631 6.7025,6.88799865 6.7025,7.1039892 L6.7025,9.11790109 L8.0975,7.69296343 C8.1775,7.61996663 8.2735,7.57896842 8.3765,7.57896842 C8.4765,7.57896842 8.5755,7.61996663 8.6465,7.69296343 C8.7185,7.76796015 8.7575,7.86195604 8.7575,7.96895136 C8.7575,8.07294681 8.7165,8.17094252 8.6445,8.24193942 L7.2435,9.67387677 L9.2245,9.67387677 C9.4375,9.67387677 9.6095,9.84886911 9.6095,10.0638597 C9.6095,10.2778503 9.4375,10.4518427 9.2245,10.4518427 L7.2435,10.4518427 L8.6465,11.8837801 C8.7185,11.9587768 8.7575,12.0537726 8.7575,12.1557682 C8.7575,12.2567638 8.7185,12.3577593 8.6485,12.4297562 C8.5755,12.5057529 8.4765,12.547751 8.3765,12.547751 C8.2735,12.547751 8.1755,12.5067528 8.0975,12.4307562 L6.7025,11.0068185 L6.7025,13.0237302 C6.7025,13.2377208 6.5325,13.4127132 6.3185,13.4127132 C6.1055,13.4127132 5.9335,13.2377208 5.9335,13.0237302 L5.9335,11.0068185 L4.5365,12.4307562 C4.4625,12.5057529 4.3645,12.547751 4.2575,12.547751 C4.1595,12.547751 4.0605,12.5047529 3.9865,12.4297562 C3.9195,12.3577593 3.8805,12.2607636 3.8805,12.1577681 C3.8805,12.0497728 3.9195,11.9567769 3.9845,11.8837801 L5.3945,10.4518427 L3.4135,10.4518427 C3.2005,10.4518427 3.0255,10.2778503 3.0255,10.0638597 C3.0255,9.84886911 3.2005,9.67387677 3.4135,9.67387677 L5.3945,9.67387677 L3.9895,8.24193942 C3.9195,8.16994257 3.8805,8.07494672 3.8805,7.96895136 C3.8805,7.86495591 3.9195,7.76996006 3.9865,7.69696326 C4.0605,7.62196654 4.1575,7.58096833 4.2575,7.58096833 C4.3645,7.58096833 4.4625,7.62096658 4.5365,7.69396339 L5.9335,9.11790109 L5.9335,7.1039892 C5.9335,6.88799865 6.1055,6.71300631 6.3185,6.71300631 Z M5.703,-1.33226763e-13 C7.228,-1.33226763e-13 8.658,0.592974057 9.738,1.66792703 C10.103,2.0319111 10.414,2.44089321 10.666,2.88287387 L10.666,2.88287387 L10.777,3.07586543 L10.994,3.03386727 C11.252,2.98786928 11.519,2.96287037 11.779,2.96287037 C14.107,2.96287037 16,4.85178773 16,7.17668602 C16,8.41863168 15.453,9.52958308 14.592,10.3005494 L14.592,10.3005494 L14.035,9.53758273 C14.66,8.94260876 15.051,8.10464542 15.051,7.17668602 C15.051,5.3737649 13.582,3.90682908 11.779,3.90682908 C11.238,3.90682908 10.715,4.03782335 10.244,4.2858125 C9.635,2.3268982 7.791,0.946958571 5.703,0.946958571 C3.08,0.946958571 0.947,3.07686539 0.947,5.69575081 C0.947,6.93869643 1.433,8.06464717 2.217,8.91161012 L2.217,8.91161012 L1.672,9.72457455 L1.672,9.72457455 C0.594,8.64562175 0,7.21768423 0,5.69575081 C0,4.17581731 0.594,2.74387996 1.668,1.66792703 C2.746,0.592974057 4.181,-1.33226763e-13 5.703,-1.33226763e-13 Z" id="path-1"></path>
    </defs>
    <g id="Icons/16px/Weather/Wintery-mix" stroke="none" stroke-width="1" fill="none" fill-rule="evenodd">
        <mask id="mask-2" fill="white">
            <use xlink:href="#path-1"></use>
        </mask>
        <use id="Mask" fill="#0C2340" fill-rule="nonzero" xlink:href="#path-1"></use>
        <g id="Group" mask="url(#mask-2)" fill="#333333">
            <g id="Color/Grayscale/80%">
                <rect id="Rectangle" x="0" y="0" width="16" height="16"></rect>
            </g>
        </g>
    </g>
</svg>