<?xml version="1.0" encoding="UTF-8"?>
<svg width="16px" height="16px" viewBox="0 0 16 16" version="1.1" xmlns="http://www.w3.org/2000/svg" xmlns:xlink="http://www.w3.org/1999/xlink">
    <title>Icons/16px/Digital/Wrench</title>
    <defs>
        <path d="M13.3148901,5.51377654 C12.0555568,5.78644321 10.2082235,3.96044321 10.4868901,2.68577654 L13.0002235,0.171776543 C12.6108901,0.0571098764 12.2082235,-0.000223456936 11.8055568,-0.000223456936 C10.7375568,-0.000223456936 9.67089012,0.40444321 8.85489012,1.21977654 C8.0142679,2.06039877 7.60571679,3.16932321 7.62923679,4.27120133 L7.64089012,4.50710988 C7.68889012,5.12910988 7.46155679,5.74177654 7.02022346,6.18310988 L0.578890124,12.6244432 C0.19355679,13.0097765 0.000223456937,13.5157765 0.000223456937,14.0224432 C0.000223456937,15.1297765 0.90955679,16.0231099 2.02022346,15.9997765 C2.51155679,15.9891099 3.00022346,15.7957765 3.37555679,15.4211099 L9.81755679,8.97977654 C10.2582235,8.53844321 10.8715568,8.31177654 11.4935568,8.35910988 C12.6715568,8.45044321 13.8802235,8.04510988 14.7802235,7.14577654 C15.5962235,6.32910988 16.0002235,5.26244321 16.0002235,4.19377654 C16.0002235,3.79177654 15.9428901,3.38910988 15.8288901,2.99977654 L13.3148901,5.51377654 Z M2.00022346,15.3331099 C1.26289012,15.3331099 0.666890124,14.7371099 0.666890124,13.9997765 C0.666890124,13.2624432 1.26422346,12.6664432 2.00022346,12.6664432 C2.73622346,12.6664432 3.33355679,13.2624432 3.33355679,13.9997765 C3.33355679,14.7371099 2.73755679,15.3331099 2.00022346,15.3331099 Z" id="path-1"></path>
    </defs>
    <g id="Icons/16px/Digital/Wrench" stroke="none" stroke-width="1" fill="none" fill-rule="evenodd">
        <g id="Icon">
            <mask id="mask-2" fill="white">
                <use xlink:href="#path-1"></use>
            </mask>
            <use id="Shape" fill="#333333" fill-rule="nonzero" xlink:href="#path-1"></use>
            <g id="Group" mask="url(#mask-2)" fill="#333333">
                <g id="Color/Grayscale/80%">
                    <rect id="Rectangle" x="0" y="0" width="16" height="16"></rect>
                </g>
            </g>
        </g>
    </g>
</svg>