<svg xmlns="http://www.w3.org/2000/svg" xmlns:xlink="http://www.w3.org/1999/xlink" width="16" height="16"><defs><path id="a" d="M12.888 10.75c.174 0 .315.142.315.317v.987h.982a.316.316 0 0 1 0 .633h-.982v.987a.317.317 0 0 1-.315.317.316.316 0 0 1-.315-.317v-.987h-.982a.316.316 0 0 1-.314-.317c0-.174.14-.316.314-.316h.982v-.987c0-.175.141-.317.315-.317ZM6.63 5.416c.839 0 1.494.77 1.8 1.663.306.892.99 2.067 1.976 2.067a4.038 4.038 0 0 0-1.569 3.064H4.145c-1.074 0-1.964-.785-1.964-1.747 0-.817.479-1.35 1.226-1.621.537-.236 1.099-.784 1.342-1.763.244-.98 1.016-1.663 1.88-1.663Zm3.17-.162c.647-1.145 1.822-1.691 2.624-1.219.801.473.926 1.785.278 2.93-.648 1.146-1.823 1.692-2.624 1.22-.802-.473-.926-1.785-.279-2.93ZM.692 4.035c.802-.472 1.977.074 2.624 1.22.648 1.145.524 2.457-.278 2.93-.801.472-1.976-.074-2.624-1.22-.648-1.145-.523-2.457.278-2.93ZM3.971.683c.894-.245 1.891.593 2.226 1.871.336 1.278-.117 2.512-1.011 2.757-.894.245-1.89-.593-2.226-1.871C2.625 2.162 3.077.928 3.97.683Zm2.916 1.73C7.223 1.137 8.22.299 9.113.544c.894.244 1.347 1.478 1.012 2.756C9.79 4.577 8.793 5.415 7.899 5.17c-.894-.244-1.347-1.478-1.012-2.756Zm6 12.454a2.492 2.492 0 0 1-2.481-2.497 2.492 2.492 0 0 1 2.482-2.495 2.492 2.492 0 0 1 2.482 2.495 2.492 2.492 0 0 1-2.482 2.497m0-5.625a3.12 3.12 0 0 0-3.111 3.128 3.12 3.12 0 0 0 3.11 3.13A3.121 3.121 0 0 0 16 12.37a3.121 3.121 0 0 0-3.112-3.128"/></defs><g fill="none" fill-rule="evenodd"><mask id="b" fill="#fff"><use xlink:href="#a"/></mask><use xlink:href="#a" fill="#0C2340" fill-rule="nonzero"/></g></svg>