<svg xmlns="http://www.w3.org/2000/svg" xmlns:xlink="http://www.w3.org/1999/xlink" width="16" height="16"><defs><path id="a" d="M15.797 12.891 9.282 1.623A1.439 1.439 0 0 0 8 .88a1.505 1.505 0 0 0-.389.046c-.378.104-.699.355-.891.697L.194 12.89a1.533 1.533 0 0 0-.194.743c0 .82.665 1.486 1.486 1.486h13.028c.262 0 .52-.07.743-.206a1.474 1.474 0 0 0 .54-2.023ZM8 12.491a.829.829 0 1 1 .012-1.657A.829.829 0 0 1 8 12.491Zm-.571-6.994H8.57v4H7.43v-4Z"/></defs><g fill="none" fill-rule="evenodd"><mask id="b" fill="#fff"><use xlink:href="#a"/></mask><use xlink:href="#a" fill="#024" fill-rule="nonzero"/></g></svg>