<svg xmlns="http://www.w3.org/2000/svg" xmlns:xlink="http://www.w3.org/1999/xlink" width="16" height="14"><defs><path id="a" d="M6.457 12.814a.697.697 0 0 0 .029-.967L2.21 7.184h13.123A.675.675 0 0 0 16 6.5a.675.675 0 0 0-.667-.684H2.21l4.276-4.663a.697.697 0 0 0-.029-.967.654.654 0 0 0-.942.03L.181 6.03c-.028.031-.042.07-.063.104-.023.036-.051.068-.067.108a.691.691 0 0 0-.05.253L0 6.5l.001.004c0 .086.018.172.05.253.016.04.044.072.067.108.021.035.035.073.063.104l5.334 5.816a.654.654 0 0 0 .942.03"/></defs><g fill="none" fill-rule="evenodd" transform="translate(0 .5)"><mask id="b" fill="#fff"><use xlink:href="#a"/></mask><use xlink:href="#a" fill="#0C2340"/></g></svg>