<svg xmlns="http://www.w3.org/2000/svg" xmlns:xlink="http://www.w3.org/1999/xlink" width="14" height="16"><defs><path id="a" d="M12.814 9.543a.697.697 0 0 0-.967-.029L7.184 13.79V.667A.675.675 0 0 0 6.5 0a.675.675 0 0 0-.684.667V13.79L1.153 9.514a.697.697 0 0 0-.967.029.654.654 0 0 0 .03.942l5.815 5.334c.031.028.07.042.104.063.036.023.068.051.108.067.081.032.167.05.253.05L6.5 16l.004-.001a.691.691 0 0 0 .253-.05c.04-.016.072-.044.108-.067.035-.021.073-.035.104-.063l5.816-5.334a.654.654 0 0 0 .03-.942"/></defs><g fill="none" fill-rule="evenodd" transform="translate(.5)"><mask id="b" fill="#fff"><use xlink:href="#a"/></mask><use xlink:href="#a" fill="#0C2340"/></g></svg>