<svg xmlns="http://www.w3.org/2000/svg" xmlns:xlink="http://www.w3.org/1999/xlink" width="16" height="14"><defs><path id="a" d="M9.543.186a.697.697 0 0 0-.029.967l4.276 4.663H.667A.675.675 0 0 0 0 6.5c0 .378.298.684.667.684H13.79l-4.276 4.663a.697.697 0 0 0 .029.967c.268.26.69.246.942-.029l5.334-5.816c.028-.03.042-.069.063-.104.023-.036.051-.068.067-.108a.691.691 0 0 0 .05-.253L16 6.5l-.001-.004a.691.691 0 0 0-.05-.253c-.016-.04-.044-.072-.067-.108-.021-.035-.035-.073-.063-.104L10.485.215a.654.654 0 0 0-.942-.029"/></defs><g fill="none" fill-rule="evenodd" transform="translate(0 .5)"><mask id="b" fill="#fff"><use xlink:href="#a"/></mask><use xlink:href="#a" fill="#0C2340"/></g></svg>