<svg xmlns="http://www.w3.org/2000/svg" xmlns:xlink="http://www.w3.org/1999/xlink" width="14" height="16"><defs><path id="a" d="M.186 6.457a.697.697 0 0 0 .967.029L5.816 2.21v13.123c0 .369.306.667.684.667a.675.675 0 0 0 .684-.667V2.21l4.663 4.276a.697.697 0 0 0 .967-.029.654.654 0 0 0-.029-.942L6.97.181C6.94.153 6.9.139 6.865.118 6.83.095 6.797.067 6.757.051a.691.691 0 0 0-.253-.05L6.5 0l-.004.001a.691.691 0 0 0-.253.05c-.04.016-.072.044-.108.067-.035.021-.073.035-.104.063L.215 5.515a.654.654 0 0 0-.029.942"/></defs><g fill="none" fill-rule="evenodd" transform="translate(.5)"><mask id="b" fill="#fff"><use xlink:href="#a"/></mask><use xlink:href="#a" fill="#0C2340"/></g></svg>