<svg xmlns="http://www.w3.org/2000/svg" xmlns:xlink="http://www.w3.org/1999/xlink" width="16" height="16"><defs><path id="a" d="M7.767 16c1.632 0 3.14-.28 4.528-.839v-1.6c-1.585.585-3.108.878-4.567.878-1.916 0-3.385-.507-4.41-1.522-1.023-1.015-1.535-2.465-1.535-4.351 0-1.405.274-2.64.823-3.703A5.74 5.74 0 0 1 4.988 2.41c1.04-.573 2.264-.859 3.67-.859 1.104 0 2.081.228 2.933.683a4.762 4.762 0 0 1 1.972 1.946c.462.843.693 1.82.693 2.932 0 1.028-.153 1.873-.46 2.537-.307.663-.722.995-1.244.995-.687 0-1.03-.52-1.03-1.561v-.234l.218-4.537a9.65 9.65 0 0 0-1.63-.366 11.82 11.82 0 0 0-1.67-.131c-1.38 0-2.48.418-3.298 1.253-.82.836-1.229 1.924-1.229 3.264 0 1.164.31 2.088.927 2.77.617.683 1.464 1.025 2.54 1.025.595 0 1.13-.127 1.606-.38.475-.254.875-.635 1.199-1.142h.118c.133.468.39.839.773 1.112.383.273.836.41 1.357.41a2.91 2.91 0 0 0 1.868-.644c.538-.43.956-1.03 1.253-1.8.297-.77.446-1.621.446-2.551 0-1.418-.309-2.669-.926-3.752A6.29 6.29 0 0 0 12.468.878C11.348.293 10.072 0 8.64 0 6.981 0 5.497.351 4.186 1.054A7.548 7.548 0 0 0 1.11 4.093C.37 5.416 0 6.927 0 8.624c0 2.322.684 4.132 2.05 5.43C3.419 15.35 5.324 16 7.768 16Zm-.139-5.356c-1.208 0-1.813-.758-1.813-2.273 0-.95.237-1.701.709-2.254.472-.553 1.13-.83 1.976-.83.476 0 .922.056 1.338.167l-.12 2.331c-.118 1.906-.815 2.859-2.09 2.859Z"/></defs><g fill="none" fill-rule="evenodd"><mask id="b" fill="#fff"><use xlink:href="#a"/></mask><use xlink:href="#a" fill="#333" fill-rule="nonzero"/></g></svg>