<svg xmlns="http://www.w3.org/2000/svg" xmlns:xlink="http://www.w3.org/1999/xlink" width="16" height="16"><defs><path id="a" d="M12.28 15.2c.208 0 .385.176.385.4 0 .224-.177.4-.385.4H1.53a.389.389 0 0 1-.383-.4c0-.224.169-.4.384-.4ZM7.52.1a.339.339 0 0 1-.006.472c-.295.295-.404.763-.307 1.437.128.888-.084 1.555-.656 1.937a.32.32 0 0 1-.45-.097.338.338 0 0 1 .094-.461c.333-.223.462-.629.368-1.282-.125-.868.034-1.549.496-2.011a.32.32 0 0 1 .46.005ZM9.499.8a.339.339 0 0 1-.064.467c-.272.211-.367.528-.278 1.008.136.736-.096 1.302-.684 1.607a.322.322 0 0 1-.438-.146.337.337 0 0 1 .144-.448c.314-.164.423-.43.338-.888-.132-.714.04-1.289.526-1.665A.32.32 0 0 1 9.499.8Zm-3.907 0a.339.339 0 0 1-.063.467c-.272.211-.368.528-.278 1.008.136.736-.096 1.302-.685 1.607a.322.322 0 0 1-.437-.146.337.337 0 0 1 .143-.448c.315-.164.424-.43.339-.888-.133-.714.04-1.289.525-1.665A.32.32 0 0 1 5.592.8Zm8.924 8.92c-.453 1.129-1.46 2.057-2.574 2.473 1.076-1.776 1.33-3.76 1.36-5.072.454.088.823.296 1.076.616.016.016.03.024.046.04.2.28.308.608.308.96 0 .296-.07.616-.216.984m.415-2.552c-.435-.403-.968-.752-1.636-.856-.039-.656-.553-1.168-1.191-1.168H1.708c-.646 0-1.168.52-1.2 1.184-.06 1.6.116 5.568 3.197 7.936.062.056 6.332.056 6.401 0 .43-.328.8-.696 1.122-1.08 1.675-.208 3.335-1.512 3.995-3.16.185-.464.277-.888.277-1.288 0-.56-.125-1.056-.569-1.568Z"/></defs><g fill="none" fill-rule="evenodd"><mask id="b" fill="#fff"><use xlink:href="#a"/></mask><use xlink:href="#a" fill="#0C2340" fill-rule="nonzero"/></g></svg>