<svg xmlns="http://www.w3.org/2000/svg" xmlns:xlink="http://www.w3.org/1999/xlink" width="16" height="16"><defs><path id="a" d="M15.6 2.5c.224 0 .4.181.4.412v10.176c0 .23-.176.412-.4.412H.4a.407.407 0 0 1-.4-.412V2.912c0-.23.184-.412.4-.412Zm-.976 8.942h-2.752v.642h2.752v-.642Zm0-.37h-2.752v.205h2.752v-.206ZM5.36 5.027h-.464l.6 2.371H3.528l-.808-.626h-.472l.784 1.21-.784 1.21h.472l.76-.592h2.016l-.6 2.38h.464L6.84 8.6h3.056A.59.59 0 0 0 10.48 8a.596.596 0 0 0-.584-.601H6.84L5.36 5.028Zm9.264 5.014h-2.752v.568h2.752v-.568Zm0-.873h-2.752v.642h2.752V9.17Zm0-.757h-2.752v.206h2.752v-.206Zm0-.37h-2.752v.197h2.752V8.04Zm0-.363h-2.752v.206h2.752v-.206Zm0-1.005h-2.752v.643h2.752v-.643Zm0-.955h-2.752v.412h2.752v-.412Zm0-.691h-2.752v.403h2.752v-.403Zm0-1.112h-2.752v.856h2.752v-.856Z"/></defs><g fill="none" fill-rule="evenodd"><mask id="b" fill="#fff"><use xlink:href="#a"/></mask><use xlink:href="#a" fill="#0C2340" fill-rule="nonzero"/></g></svg>