<svg xmlns="http://www.w3.org/2000/svg" width="16" height="16"><g fill="none" fill-rule="evenodd"><path stroke="#333" d="m12 13.5.5 1.5-8.5.5-.5-1.5 8.5-.5ZM7.987.5l6.712 6.65-2.199.44V11c0 .125-.075.243-.166.334-.091.091-.209.166-.334.166H4c-.125 0-.243-.075-.334-.166-.091-.091-.166-.209-.166-.334V7.5H1.12c-.05-.05-.079-.094-.056-.117L7.854.56a.206.206 0 0 1 .133-.06Z"/><path fill="#333" fill-rule="nonzero" d="m6.418 10 .45-1.422h2.264L9.582 10H11L8.8 4H7.191L5 10h1.418Zm2.4-2.485H7.2c.441-1.376.709-2.238.802-2.587.023.098.06.231.113.4.052.17.286.898.702 2.187Z"/></g></svg>