<svg xmlns="http://www.w3.org/2000/svg" xmlns:xlink="http://www.w3.org/1999/xlink" width="16" height="16"><defs><path id="a" d="M12.333 13c.5 0 1 .5 1 1v1c0 .5-.5 1-1 1h-8c-.5 0-1-.5-1-1v-1c0-.5.5-1 1-1h8ZM8.768.15l.066.059 6.792 6.825a.629.629 0 0 1 .207.466c0 .25-.25.5-.5.5h-2v3c0 .5-.5 1-1 1h-8c-.5 0-1-.5-1-1V8h-2c-.25 0-.5-.25-.5-.5 0-.19.07-.33.21-.47L7.833.209a.706.706 0 0 1 .935-.06ZM9.134 4h-1.61l-2.19 6h1.418l.45-1.422h2.263L9.915 10h1.418l-2.2-6Zm-.799.928c.023.098.06.231.113.4.052.17.287.898.703 2.187H7.533c.442-1.376.709-2.238.802-2.587Z"/></defs><g fill="none" fill-rule="evenodd" transform="translate(-.333)"><mask id="b" fill="#fff"><use xlink:href="#a"/></mask><use xlink:href="#a" fill="#333"/></g></svg>