<svg xmlns="http://www.w3.org/2000/svg" xmlns:xlink="http://www.w3.org/1999/xlink" width="16" height="16"><defs><path id="a" d="M6.073 12.128a.55.55 0 0 1 .56.535c0 .29-.256.535-.56.535a.55.55 0 0 1-.56-.535c0-.299.248-.535.56-.535m6.961 0a.55.55 0 0 1 .56.535c0 .29-.256.535-.56.535a.55.55 0 0 1-.56-.535c0-.299.248-.535.56-.535m2.544-8.354H4.025l-.72-2.476A.425.425 0 0 0 2.896 1H.416A.41.41 0 0 0 0 1.405c0 .222.184.397.416.397h2.16l2.817 9.691c-.432.23-.72.665-.72 1.17 0 .733.624 1.337 1.4 1.337.768 0 1.4-.604 1.4-1.337 0-.192-.04-.375-.12-.535h4.393c-.072.16-.12.343-.12.535 0 .733.632 1.337 1.408 1.337.768 0 1.4-.604 1.4-1.337 0-.742-.632-1.346-1.4-1.346H6.217l-.368-1.26h8.33c.191 0 .36-.13.407-.306l1.4-5.48a.363.363 0 0 0-.08-.344.405.405 0 0 0-.328-.153Z"/></defs><g fill="none" fill-rule="evenodd"><mask id="b" fill="#fff"><use xlink:href="#a"/></mask><use xlink:href="#a" fill="#0C2340" fill-rule="nonzero"/></g></svg>