<svg xmlns="http://www.w3.org/2000/svg" xmlns:xlink="http://www.w3.org/1999/xlink" width="16" height="16"><defs><path id="a" d="m13.42 8.778 2.425 2.409a.564.564 0 0 1 0 .776l-2.424 2.41a.418.418 0 0 1-.642-.05.566.566 0 0 1 .043-.728l2.033-2.02-2.033-2.02a.566.566 0 0 1-.043-.729.418.418 0 0 1 .642-.048Zm0-7.15 2.425 2.409a.564.564 0 0 1 0 .776l-2.424 2.41a.418.418 0 0 1-.642-.05.566.566 0 0 1 .043-.728l2.033-2.02-2.033-2.02a.566.566 0 0 1-.043-.729.418.418 0 0 1 .642-.048ZM.798 3.136c2.081.38 4.092 1.676 6.042 3.861 2.065-2.143 4.731-3.222 7.955-3.222.372 0 .673.29.673.65 0 .359-.301.65-.673.65-2.911 0-5.257.97-7.083 2.925 1.826 1.956 4.172 2.925 7.083 2.925.372 0 .673.291.673.65 0 .359-.301.65-.673.65-3.224 0-5.89-1.08-7.956-3.222-1.95 2.185-3.96 3.48-6.04 3.86a.671.671 0 0 1-.786-.517.652.652 0 0 1 .536-.76c1.79-.327 3.596-1.512 5.406-3.584C4.145 5.927 2.34 4.74.548 4.414a.652.652 0 0 1-.536-.76.671.671 0 0 1 .785-.518Z"/></defs><g fill="none" fill-rule="evenodd"><mask id="b" fill="#fff"><use xlink:href="#a"/></mask><use xlink:href="#a" fill="#0C2340" fill-rule="nonzero"/></g></svg>