<svg xmlns="http://www.w3.org/2000/svg" xmlns:xlink="http://www.w3.org/1999/xlink" width="16" height="16"><defs><path id="a" d="M8.244.941c-3.596.367-6.309 3.395-6.309 7.04 0 3.902 3.153 7.146 7.026 7.078 2.004-.035 3.76-.833 5.27-2.393-.497.043-.823.065-.976.065-3.76 0-6.817-3.081-6.817-6.868 0-1.776.671-3.46 1.892-4.745l.194-.205-.28.028ZM1 7.981C1 3.852 4.074.422 8.149.005c.471-.041.864.225 1.039.581.19.392.115.87-.183 1.183a5.92 5.92 0 0 0-1.632 4.095c0 3.267 2.637 5.926 5.882 5.926.2 0 .672-.037.708-.037.393 0 .76.23.932.588.19.39.117.866-.182 1.183A7.87 7.87 0 0 1 8.961 16C4.572 16 1 12.402 1 7.982Z"/></defs><g fill="none" fill-rule="evenodd"><mask id="b" fill="#fff"><use xlink:href="#a"/></mask><use xlink:href="#a" fill="#0C2340" fill-rule="nonzero"/></g></svg>