<svg xmlns="http://www.w3.org/2000/svg" xmlns:xlink="http://www.w3.org/1999/xlink" width="16" height="16"><defs><path id="a" d="M11.611 14.997c1.779 0 3.227-1.557 3.227-3.47 0-1.914-1.448-3.472-3.227-3.472-.535 0-1.049.139-1.511.402-.602-2.08-2.418-3.546-4.479-3.546-2.585 0-4.685 2.263-4.685 5.042 0 2.781 2.1 5.044 4.685 5.044 1.266 0 2.455-.541 3.336-1.498.596.935 1.578 1.498 2.654 1.498ZM5.621 3.905c1.502 0 2.915.631 3.978 1.772.239.258.58.756 1.022 1.495.488-.08.818-.121.99-.121 2.291 0 4.158 2.008 4.158 4.476 0 2.466-1.867 4.473-4.158 4.473-.94 0-1.83-.329-2.569-.957l-.172-.147-.185.13A5.313 5.313 0 0 1 5.621 16c-1.499 0-2.911-.628-3.974-1.77C.585 13.086 0 11.568 0 9.953c0-1.614.585-3.135 1.647-4.276 1.061-1.141 2.475-1.772 3.974-1.772ZM3.428 2.801C3.812 1.051 5.354-.169 7.06.02a3.234 3.234 0 0 1 2 1.004l.131.134.16-.09a4.277 4.277 0 0 1 2.55-.51c1.214.134 2.305.767 3.074 1.786a5.127 5.127 0 0 1 1 3.603 5.108 5.108 0 0 1-.512 1.796 1.152 1.152 0 0 1-.044-.076 5.249 5.249 0 0 0-.39-.53c-.03-.035-.063-.072-.094-.11.146-.36.248-.75.286-1.163.214-2.246-1.307-4.265-3.396-4.496a3.627 3.627 0 0 0-2.814.911C8.602 1.47 7.852.928 6.982.831c-1.158-.128-2.219.585-2.665 1.674-.066.018-.137.033-.203.053-.238.067-.465.15-.686.243Z"/></defs><g fill="none" fill-rule="evenodd"><mask id="b" fill="#fff"><use xlink:href="#a"/></mask><use xlink:href="#a" fill="#0C2340" fill-rule="nonzero"/></g></svg>