<svg xmlns="http://www.w3.org/2000/svg" xmlns:xlink="http://www.w3.org/1999/xlink" width="16" height="16"><defs><path id="a" d="M13.5 13a1.5 1.5 0 1 1 0 3 1.5 1.5 0 0 1 0-3Zm-11 0a1.5 1.5 0 1 1 0 3 1.5 1.5 0 0 1 0-3ZM14.667 0C15.403 0 16 .597 16 1.333v9.334c0 .736-.597 1.333-1.333 1.333H1.333A1.333 1.333 0 0 1 0 10.667V1.333C0 .597.597 0 1.333 0h13.334Zm-2.89 5.35H4.223a.653.653 0 0 0-.653.653l.004.072a.653.653 0 0 0 .65.582h7.553c.36 0 .653-.293.653-.654l-.004-.07a.653.653 0 0 0-.65-.583Z"/></defs><g fill="none" fill-rule="evenodd"><mask id="b" fill="#fff"><use xlink:href="#a"/></mask><use xlink:href="#a" fill="#D8D8D8"/></g></svg>