<svg xmlns="http://www.w3.org/2000/svg" xmlns:xlink="http://www.w3.org/1999/xlink" width="16" height="16"><defs><path id="a" d="M12.47 10.798a.666.666 0 0 1 1.332 0v4.536a.666.666 0 0 1-.666.666H.666A.666.666 0 0 1 0 15.334V2.93c0-.368.298-.666.666-.666h4.577a.666.666 0 1 1 0 1.332h-3.91v11.072h11.136v-3.87ZM9.66 1.332a.666.666 0 1 1 0-1.332h5.673c.368 0 .666.298.666.666v5.679a.666.666 0 0 1-1.333 0V2.268L7.23 9.728a.667.667 0 0 1-.944-.94l7.434-7.456H9.661Z"/></defs><g fill="none" fill-rule="evenodd"><mask id="b" fill="#fff"><use xlink:href="#a"/></mask><use xlink:href="#a" fill="#0C2340" fill-rule="nonzero"/></g></svg>