<svg xmlns="http://www.w3.org/2000/svg" xmlns:xlink="http://www.w3.org/1999/xlink" width="16" height="16"><defs><path id="a" d="M0 12.023v2.953h1.078c.31 0 .592-.087.788-.283.336-.33.303-.763.303-1.206 0-.443.033-.85-.303-1.182-.196-.195-.478-.282-.788-.282H0ZM9.904 12c.574 0 .997.331 1.098.932h-.592c-.062-.253-.221-.419-.502-.419-.16 0-.285.05-.373.154-.122.128-.146.26-.146.832 0 .573.024.705.146.834a.465.465 0 0 0 .373.153c.28 0 .44-.165.502-.419h.592c-.1.602-.528.933-1.098.933a1.1 1.1 0 0 1-.805-.323.85.85 0 0 1-.243-.443 3.98 3.98 0 0 1-.05-.735c0-.323.016-.567.05-.733a.833.833 0 0 1 .243-.443c.218-.216.486-.323.805-.323Zm-6.613.024v2.952h-.583v-2.952h.583Zm5.188 0v.514H7.096v.693h1.178v.514H7.096v.716h1.383v.515H6.513v-2.952H8.48Zm4.824 0v.514h-.78v2.438h-.582v-2.438h-.78v-.514h2.142Zm.89 0 .6 1.923.6-1.923H16l-.989 2.952h-.436l-.985-2.952h.604Zm-13.169.512c.2 0 .334.063.436.183.109.133.126.32.126.768 0 .447-.017.66-.126.792-.102.12-.235.183-.436.183h-.44v-1.926h.44Zm2.854-.512v2.952h.583v-1.177h.419l.582 1.177h.675l-.666-1.273a.795.795 0 0 0 .545-.775c0-.493-.36-.904-.968-.904h-1.17Zm.583.514h.548c.256 0 .424.162.424.39 0 .227-.168.39-.424.39h-.548v-.78ZM7.757 1c-.889 0-1.733.246-2.44.675-.213.13-.333.233-.333.366 0 .392.928.815 2.573.815 1.629 0 2.891-.463 2.891-.908.001-.106-.093-.18-.283-.292A4.7 4.7 0 0 0 7.757 1Zm3.109 1.172c.02.031.03.064.03.108 0 .516-1.6 1.432-4.148 1.432-1.87 0-2.221-.687-2.221-1.124 0-.155.06-.315.193-.477.008-.01.002-.014-.007-.007a4.695 4.695 0 0 0-.662.68c-.094.118-.152.221-.152.284 0 .904 2.294 1.56 4.44 1.56 2.285 0 3.305-.738 3.305-1.386 0-.232-.09-.367-.324-.63a5.378 5.378 0 0 0-.447-.445c-.007-.007-.013-.002-.007.005M3.167 4.62a.305.305 0 0 0 .025.227c.29.605 1.75 1.574 5.156 1.574 2.079 0 3.693-.505 3.955-1.426.048-.17.051-.348-.011-.59a4.461 4.461 0 0 0-.308-.805c-.004-.007-.01-.005-.01.002.042 1.21-3.366 1.988-5.086 1.988-1.863 0-3.417-.734-3.417-1.66 0-.09.019-.179.042-.271.002-.01-.006-.01-.009-.003a4.572 4.572 0 0 0-.337.964Zm3.645 2.897c-2.41 0-3.546-1.109-3.752-1.867-.002-.01-.01-.008-.01.002 0 .255.026.584.07.802a.942.942 0 0 0 .237.407c.583.6 2.039 1.442 4.557 1.442 3.432 0 4.216-1.13 4.376-1.5.115-.267.174-.748.174-1.151 0-.097-.002-.176-.006-.252 0-.012-.007-.014-.01-.002-.17.91-3.103 2.12-5.636 2.12m1.265 2.046c1.159 0 2.431-.311 3.192-.93.209-.168.407-.392.585-.694a4.43 4.43 0 0 0 .284-.581c.003-.01-.003-.015-.01-.003-.708 1.029-2.758 1.672-4.875 1.672-1.496 0-3.106-.473-3.737-1.376-.006-.01-.012-.005-.009.004.588 1.234 2.37 1.908 4.57 1.908m-3.206-.238c.798.612 1.8.979 2.886.979 1.19 0 2.274-.438 3.101-1.154.01-.01.006-.015-.005-.01-.371.246-1.43.782-3.096.782-1.448 0-2.363-.32-2.88-.605-.01-.004-.013.003-.006.008"/></defs><g fill="none" fill-rule="evenodd"><mask id="b" fill="#fff"><use xlink:href="#a"/></mask><use xlink:href="#a" fill="#0C2340" fill-rule="nonzero"/></g></svg>