<svg xmlns="http://www.w3.org/2000/svg" xmlns:xlink="http://www.w3.org/1999/xlink" width="16" height="16"><defs><path id="a" d="M8 0v4c0 .5.5 1 1 1h3v10c0 .5-.5 1-1 1H1c-.5 0-1-.5-1-1V1c0-.5.5-1 1-1h7ZM3.068 8H2v4h.783v-1.45h.196c.426 0 .752-.114.977-.34.226-.228.338-.554.338-.979 0-.77-.359-1.178-1.077-1.226L3.068 8ZM5.95 8H4.824v4h1.03c.532 0 .94-.175 1.223-.524.283-.35.424-.854.424-1.514 0-.62-.136-1.102-.409-1.446-.242-.306-.57-.476-.983-.51L5.949 8ZM10 8H8.114v4h.778v-1.603h1.033v-.643H8.892V8.643H10V8Zm-4.08.643c.519 0 .778.447.778 1.34 0 .457-.068.798-.204 1.025-.137.227-.348.34-.634.34h-.253V8.644h.314Zm-2.947 0c.18 0 .314.05.4.152.087.101.13.257.13.466 0 .228-.047.392-.141.493-.094.1-.237.15-.43.15h-.149V8.643h.19ZM9 1l3 3H9V1Z"/></defs><g fill="none" fill-rule="evenodd" transform="translate(2)"><mask id="b" fill="#fff"><use xlink:href="#a"/></mask><use xlink:href="#a" fill="#000"/></g></svg>