<svg xmlns="http://www.w3.org/2000/svg" xmlns:xlink="http://www.w3.org/1999/xlink" width="16" height="16"><defs><path id="a" d="M5.652 1.5c.074.003.091.017.18.086l1.616 1.26H15.6c.224 0 .4.172.4.39V14.11a.39.39 0 0 1-.4.389H.4a.396.396 0 0 1-.4-.39V1.89c0-.219.184-.39.4-.39ZM8 5.4a.319.319 0 0 0-.316.321v5.102L5.532 8.738a.31.31 0 0 0-.39-.034l-.056.048a.332.332 0 0 0 .013.46l2.685 2.6a.31.31 0 0 0 .432 0l2.685-2.6a.332.332 0 0 0 .013-.46.31.31 0 0 0-.446-.014l-2.153 2.084v-5.1a.32.32 0 0 0-.243-.314Z"/></defs><g fill="none" fill-rule="evenodd"><mask id="b" fill="#fff"><use xlink:href="#a"/></mask><use xlink:href="#a" fill="#0C2340" fill-rule="nonzero"/></g></svg>