<svg xmlns="http://www.w3.org/2000/svg" xmlns:xlink="http://www.w3.org/1999/xlink" width="16" height="16"><defs><path id="a" d="M3.765 4.294a1.39 1.39 0 0 1 1.816.773l1.607 4.025L10.945 7.3a1.089 1.089 0 0 1 1.35.345l3.493 3.684a.784.784 0 0 1-.025 1.098.764.764 0 0 1-1.087-.025l-1.435-1.513L15.3 14.17a.87.87 0 0 1-.268 1.194.853.853 0 0 1-1.183-.268L11.43 11.24c-.008.001-.014.005-.022.007-2.814.527-4.364.816-4.65.866-.427.076-1.348.046-1.694-.81L3 6.126a1.41 1.41 0 0 1 .766-1.832ZM.407 3.054a.642.642 0 0 1 .835.362l3.256 8.343a1.874 1.874 0 0 0 1.845 1.028l4.33-.78a.644.644 0 0 1 .75.522.65.65 0 0 1-.513.758c-3.045.543-4.587.813-4.626.811-1.877.194-2.713-1.271-2.878-1.606l-.017-.032a.247.247 0 0 0-.015-.036L.047 3.898a.648.648 0 0 1 .36-.845ZM3.607.5C4.47.48 5.18 1.171 5.2 2.035a1.561 1.561 0 0 1-1.52 1.607 1.56 1.56 0 0 1-1.591-1.534A1.564 1.564 0 0 1 3.608.5Z"/></defs><g fill="none" fill-rule="evenodd"><mask id="b" fill="#fff"><use xlink:href="#a"/></mask><use xlink:href="#a" fill="#0C2340" fill-rule="nonzero"/></g></svg>