<svg xmlns="http://www.w3.org/2000/svg" xmlns:xlink="http://www.w3.org/1999/xlink" width="16" height="16"><defs><path id="a" d="M6.667.002c2-.002 4 1.771 4 3.998v1.333H12c.667 0 1.333.667 1.333 1.334v8c0 .666-.666 1.333-1.333 1.333H1.333C.515 16 0 15.333 0 14.667v-8C0 6 .667 5.333 1.333 5.333h1.334V4c0-2.227 2-3.996 4-3.998Zm-.302 6.783-.112.127-.085.105-.058.08a.222.222 0 0 0-.037.076l-.26 2.507-3.021 2.276a.298.298 0 0 0-.125.24v.491l3.302-1.027.135 1.952-.75.731c-.01.01-.02.04-.028.095l-.013.097-.011.132 1.375-.417 1.354.417-.01-.124-.013-.094a.245.245 0 0 0-.029-.097l-.75-.73.136-1.953 3.302 1.027v-.49a.287.287 0 0 0-.125-.24L7.5 9.68l-.26-2.507c-.005-.033-.05-.101-.135-.206l-.098-.116a7.413 7.413 0 0 0-.06-.066.42.42 0 0 0-.582 0ZM6.667 2c-.955 0-1.91.81-1.994 1.85L4.667 4v1.333h4V4c0-1.111-1-2-2-2Z"/></defs><g fill="none" fill-rule="evenodd" transform="translate(1.333)"><mask id="b" fill="#fff"><use xlink:href="#a"/></mask><use xlink:href="#a" fill="#0C2340" fill-rule="nonzero"/></g></svg>