<svg xmlns="http://www.w3.org/2000/svg" xmlns:xlink="http://www.w3.org/1999/xlink" width="16" height="16"><defs><path id="a" d="M11.666.5A4.34 4.34 0 0 1 16 4.833c0 .961-.324 1.894-.913 2.657l-.153.187-6.474 7.518c-.303.375-.544.404-.85.087l-.077-.087L1.06 7.677A4.343 4.343 0 0 1 0 4.833C0 2.443 1.94.5 4.326.5c1.28 0 2.46.55 3.29 1.517l.15.186.234.3.226-.3A4.318 4.318 0 0 1 11.666.5Zm0 1.33c-.871 0-1.68.37-2.25 1.018l-.127.155-1.272 1.688-1.304-1.677A2.977 2.977 0 0 0 4.326 1.83a3.004 3.004 0 0 0-2.395 4.81l.137.17 5.928 6.885 5.931-6.887c.432-.5.688-1.118.735-1.76l.008-.215a3.01 3.01 0 0 0-3.004-3.003Z"/></defs><g fill="none" fill-rule="evenodd"><mask id="b" fill="#fff"><use xlink:href="#a"/></mask><use xlink:href="#a" fill="#979797" fill-rule="nonzero"/></g></svg>