<svg xmlns="http://www.w3.org/2000/svg" xmlns:xlink="http://www.w3.org/1999/xlink" width="16" height="16"><defs><path id="a" d="M14.471 13.147a.433.433 0 0 1 .432.429.43.43 0 0 1-.434.424l-13.364-.001a.433.433 0 0 1-.436-.428.433.433 0 0 1 .438-.424ZM6.78 11.026h8.786a.432.432 0 0 1 .433.43.432.432 0 0 1-.436.425l-8.784-.001a.428.428 0 0 1-.435-.428.43.43 0 0 1 .436-.426Zm-6.344 0h4.499c.24.003.433.195.433.43a.432.432 0 0 1-.436.425L.433 11.88A.428.428 0 0 1 0 11.452c0-.235.196-.426.436-.426Zm8.782-2.153c.241 0 .438.191.438.425a.432.432 0 0 1-.436.428l-8.786.002A.432.432 0 0 1 0 9.302a.43.43 0 0 1 .433-.428h8.785Zm6.344 0c.241 0 .438.191.438.425a.43.43 0 0 1-.436.428l-4.498.002a.43.43 0 0 1-.435-.426.43.43 0 0 1 .432-.428h4.499ZM5.542 2a5.072 5.072 0 0 1 4.394 2.504l.098.168.194-.037a3.93 3.93 0 0 1 .694-.061c1.877 0 3.417 1.36 3.683 3.125h-.839c-.257-1.311-1.432-2.305-2.844-2.305-.48 0-.942.114-1.359.33C9.024 4.022 7.39 2.82 5.541 2.82c-2.325 0-4.215 1.852-4.215 4.127 0 .258.03.507.078.75H.55a4.562 4.562 0 0 1-.064-.75c0-1.321.526-2.564 1.48-3.5A5.082 5.082 0 0 1 5.541 2Z"/></defs><g fill="none" fill-rule="evenodd"><mask id="b" fill="#fff"><use xlink:href="#a"/></mask><use xlink:href="#a" fill="#0C2340" fill-rule="nonzero"/></g></svg>