<svg xmlns="http://www.w3.org/2000/svg" xmlns:xlink="http://www.w3.org/1999/xlink" width="16" height="16"><defs><path id="a" d="M14.688 8.611v5.992a.4.4 0 0 1-.4.397h-5.88V8.611h6.28Zm-7.08 0V15h-5.88a.4.4 0 0 1-.4-.397V8.611h6.28Zm0-4.516v3.723H0V4.095h7.608Zm8.392 0v3.723H8.408V4.095H16ZM4.776 2.103c-.512-.214-.6-.571-.608-.754-.016-.23.08-.436.224-.516.24-.127.712.016 1.216.365 1.12.778 1.624 1.429 1.848 1.881-.299-.016-1.192-.34-2.68-.976Zm6.312-.913c.056 0 .28.199.272.373-.008.143-.08.421-.488.596-1.232.524-1.968.815-2.208.873.256-.381.72-.89 1.56-1.476.376-.262.68-.366.864-.366Zm-.88 2.112.976-.413c.84-.365.968-1.016.976-1.286.024-.46-.192-.88-.552-1.08-.464-.253-1.12-.118-1.84.382-.856.603-1.392 1.143-1.712 1.603-.328-.548-.928-1.222-1.992-1.96C5.544.183 5.04 0 4.608 0a1.24 1.24 0 0 0-.6.143c-.416.222-.664.714-.64 1.238.016.302.152 1.048 1.096 1.452.581.254.944.41 1.088.469h4.656Z"/></defs><g fill="none" fill-rule="evenodd"><mask id="b" fill="#fff"><use xlink:href="#a"/></mask><use xlink:href="#a" fill="#0C2340" fill-rule="nonzero"/></g></svg>