<svg xmlns="http://www.w3.org/2000/svg" xmlns:xlink="http://www.w3.org/1999/xlink" width="16" height="16"><defs><path id="a" d="M16 11.394v3.716c0 .21-.184.39-.4.39h-2.485v-3.288h1.789a.536.536 0 0 0 .432-.218.523.523 0 0 0 .064-.46l-.056-.14H16Zm-9.264 0-.056.14a.456.456 0 0 0 .056.46c.096.14.256.218.432.218h1.79V15.5H.4c-.224 0-.4-.18-.4-.39v-3.717h6.736Zm4.296-6.18c.68 0 1.288.374 1.576.974l.272.717v.008l1.496 3.997a.39.39 0 0 1-.048.351c-.08.11-.2.171-.328.171h-1.688v3.678c0 .21-.176.39-.4.39-.224 0-.4-.18-.4-.39v-3.678h-.952v3.678c0 .21-.184.39-.4.39-.224 0-.4-.18-.4-.39v-3.678H8.072a.385.385 0 0 1-.328-.171.348.348 0 0 1-.048-.35l1.752-4.692a1.748 1.748 0 0 1 1.584-1.005ZM7.826 8.277l-.872 2.337H0V8.666c0-.21.176-.39.4-.39h7.426Zm7.774 0c.216 0 .4.179.4.39v1.947h-.884l-.873-2.337H15.6Zm-11.432-4.2c1.424 0 2.576 1.067 2.576 2.376v.748c0 .21-.176.39-.4.39H2c-.216 0-.4-.18-.4-.39v-.748c0-1.309 1.152-2.376 2.568-2.376Zm6.864-2.463c.904 0 1.632.717 1.632 1.59 0 .88-.728 1.597-1.632 1.597-.904 0-1.632-.717-1.632-1.597 0-.873.728-1.59 1.632-1.59ZM4.176.5c.896 0 1.632.717 1.632 1.597 0 .873-.736 1.59-1.632 1.59-.904 0-1.64-.717-1.64-1.59 0-.88.736-1.597 1.64-1.597Z"/></defs><g fill="none" fill-rule="evenodd"><mask id="b" fill="#fff"><use xlink:href="#a"/></mask><use xlink:href="#a" fill="#0C2340" fill-rule="nonzero"/></g></svg>