<svg xmlns="http://www.w3.org/2000/svg" xmlns:xlink="http://www.w3.org/1999/xlink" width="16" height="16"><defs><path id="a" d="M7.885 3.125c.467 0 .879.272.983.715l.017.098v4.937a.678.678 0 0 1-.187.437.71.71 0 0 1-.5.188c-.346 0-.533-.266-.56-.553l-.003-.072V5.562H7.26v9.188c0 .375-.25.625-.625.625a.628.628 0 0 1-.62-.54l-.005-.085V9.437h-.5l-.125.126v5.313c0 .312-.125.625-.313.811-.25.188-.5.313-.812.313-.187 0-.438-.062-.625-.187A1.055 1.055 0 0 1 3.01 16c-.312 0-.625-.125-.812-.313-.164-.218-.28-.437-.307-.697l-.006-.114V9.563L.76 8.438a1.156 1.156 0 0 1-.312-.75c0-.312.125-.563.312-.75.278-.223.506-.297.685-.31l.065-.003h.063v-.063c0-.5.187-1 .562-1.374.1-.1.24-.2.356-.268l.081-.044v-.814c-.058-.47.326-.885.84-.933l.098-.004h4.375ZM5.823 7.187a.476.476 0 0 0-.313.125L4.073 8.313h-.876l-1.374-1a.479.479 0 0 0-.313-.126.477.477 0 0 0-.312.125.479.479 0 0 0-.125.313c0 .125.062.25.125.312l1.25 1.314v5.638c.002.146.018.245.124.3.126.061.25.124.376.124.187 0 .25 0 .375-.125.062-.126.125-.25.125-.376v-2.375h.312v2.452c.003.146.018.245.125.3.125.061.25.124.375.124.187 0 .25 0 .375-.125.063-.126.125-.25.125-.376V9.251l1.313-1.314s.36-.306.062-.625a.464.464 0 0 0-.312-.125ZM3.672 5.25c-.374 0-.687.125-.938.375-.249.25-.374.562-.374.937s.125.688.374.938c.251.25.564.375.938.375.376 0 .688-.125.937-.375.251-.25.376-.563.376-.938a1.27 1.27 0 0 0-.376-.937 1.27 1.27 0 0 0-.937-.375ZM5.698 0c.75 0 1.375.625 1.375 1.375S6.448 2.75 5.698 2.75s-1.375-.625-1.375-1.375S4.948 0 5.698 0Z"/></defs><g fill="none" fill-rule="evenodd" transform="translate(3.333)"><mask id="b" fill="#fff"><use xlink:href="#a"/></mask><use xlink:href="#a" fill="#333" fill-rule="nonzero"/></g></svg>