<svg xmlns="http://www.w3.org/2000/svg" xmlns:xlink="http://www.w3.org/1999/xlink" width="16" height="16"><defs><path id="a" d="M11.333 0c.334 0 .667.333.667.667 0 .333-.333.666-.667.666 0 2.78-1.738 5.773-3.855 6.613L7.333 8l.145.054c2.117.84 3.855 3.833 3.855 6.613.334 0 .667.333.667.666 0 .31-.287.62-.595.662l-.072.005H.667C.333 16 0 15.667 0 15.333c0-.333.333-.666.667-.666 0-2.78 1.738-5.773 3.855-6.613L4.667 8c-2.182-.758-4-3.824-4-6.667C.333 1.333 0 1 0 .667 0 .333.333 0 .667 0h10.666ZM6 9c-1.667 0-3.333 1.667-3.667 3.667h7.334l-.04-.206C9.218 10.554 7.61 9 6 9Zm4-7.667H2l.005.268C2.118 4.791 4.243 7 6 7c1.737 0 4.003-2.333 4-5.667Z"/></defs><g fill="none" fill-rule="evenodd" transform="translate(2)"><mask id="b" fill="#fff"><use xlink:href="#a"/></mask><use xlink:href="#a" fill="#333" fill-rule="nonzero"/></g></svg>