<svg xmlns="http://www.w3.org/2000/svg" xmlns:xlink="http://www.w3.org/1999/xlink" width="16" height="16"><defs><path id="a" d="M11.893 0c.628.008 1.867.068 2.588.406a.893.893 0 0 1 .506.958.884.884 0 0 1-.788.731c-.082.009-1.073.148-1.952.92A6.524 6.524 0 0 1 14.567 8c-.001 2.829-1.33 5.063-3.845 6.465C8.233 15.85 5.368 16 4.249 16c-.56 0-1.95-.04-2.73-.406a.887.887 0 0 1 .281-1.689 3.94 3.94 0 0 0 1.951-.92A6.52 6.52 0 0 1 1.434 8c0-2.829 1.329-5.064 3.845-6.465C7.765.149 10.632 0 11.75 0ZM14.1 1.21C12.41.418 2.326.557 2.326 8a5.637 5.637 0 0 0 2.748 4.839C3.844 14.584 1.9 14.79 1.9 14.79c1.69.792 11.773.652 11.773-6.79a5.634 5.634 0 0 0-2.746-4.839l.13-.175C12.287 1.402 14.1 1.21 14.1 1.21ZM8 5.396A2.61 2.61 0 0 1 10.615 8 2.61 2.61 0 0 1 8 10.605 2.61 2.61 0 0 1 5.384 8 2.61 2.61 0 0 1 8 5.396Zm0 .888c-.951 0-1.727.77-1.727 1.716S7.05 9.716 8 9.716 9.725 8.946 9.725 8 8.95 6.284 8 6.284Z"/></defs><g fill="none" fill-rule="evenodd"><mask id="b" fill="#fff"><use xlink:href="#a"/></mask><use xlink:href="#a" fill="#0C2340" fill-rule="nonzero"/></g></svg>