<svg xmlns="http://www.w3.org/2000/svg" xmlns:xlink="http://www.w3.org/1999/xlink" width="16" height="16"><defs><path id="a" d="M11.063 12.222C10.357 14.534 9.133 16 8 16c-1.134 0-2.357-1.466-3.062-3.778Zm-7.527 0c.34 1.245.813 2.33 1.41 3.174a8.011 8.011 0 0 1-3.767-3.174Zm11.285 0a8.011 8.011 0 0 1-3.768 3.174c.598-.845 1.072-1.929 1.412-3.174ZM3.01 8.667c.027.773.108 1.52.232 2.222H.51A7.338 7.338 0 0 1 0 8.667Zm8.642 0a13.151 13.151 0 0 1-.258 2.222H4.607a13.151 13.151 0 0 1-.258-2.222Zm4.349 0a7.313 7.313 0 0 1-.51 2.222H12.76a15.76 15.76 0 0 0 .232-2.222ZM3.24 5.11a16.001 16.001 0 0 0-.232 2.223H0A7.36 7.36 0 0 1 .51 5.11Zm8.152 0c.143.694.232 1.431.258 2.223H4.35c.026-.792.116-1.53.259-2.223Zm4.098 0A7.36 7.36 0 0 1 16 7.334h-3.01a15.76 15.76 0 0 0-.231-2.223ZM4.947.605c-.598.844-1.071 1.928-1.411 3.172H1.179A8.014 8.014 0 0 1 4.947.605ZM8 0c1.134 0 2.357 1.466 3.062 3.778H4.937C5.643 1.466 6.867 0 8 0Zm3.053.605a8.01 8.01 0 0 1 3.768 3.173h-2.356c-.34-1.244-.814-2.33-1.412-3.173Z"/></defs><g fill="none" fill-rule="evenodd"><mask id="b" fill="#fff"><use xlink:href="#a"/></mask><use xlink:href="#a" fill="#0C2340" fill-rule="nonzero"/></g></svg>