<svg xmlns="http://www.w3.org/2000/svg" xmlns:xlink="http://www.w3.org/1999/xlink" width="16" height="16"><defs><path id="a" d="m8.681 10.18.092.092.663.667.52.523.08.08.115.116.044.043c.481.487.357 1.344-.1 1.811l-2.104 2.206c-.813.815-1.9-.316-1.11-1.106l1.335-1.344-1.307-1.306L8.68 10.18Zm-5.318 0 1.774 1.782-1.298 1.306 1.333 1.344c.785.79-.301 1.92-1.11 1.106l-2.114-2.206c-.45-.467-.575-1.324-.09-1.811l.64-.648.225-.227.549-.554.08-.082.011-.01Zm2.85-4.887c1.353 0 2.187.28 2.757.776.033.028.087.08.157.149l.16.161c.685.697 2.128 2.236 2.128 2.236a.77.77 0 0 1 .038 1.101.798.798 0 0 1-.58.248.797.797 0 0 1-.543-.21L8.466 8.048 8.433 9.55H3.567l-.033-1.502L1.67 9.755a.798.798 0 0 1-.542.209.798.798 0 0 1-.58-.248.77.77 0 0 1 .037-1.101s1.443-1.539 2.128-2.236l.16-.16c.07-.07.124-.122.157-.15.57-.496 1.404-.776 2.757-.776h.426ZM6.099 0a2.433 2.433 0 0 1 2.427 2.44A2.434 2.434 0 0 1 6.1 4.886 2.436 2.436 0 0 1 3.67 2.44 2.435 2.435 0 0 1 6.1 0Z"/></defs><g fill="none" fill-rule="evenodd" transform="translate(2)"><mask id="b" fill="#fff"><use xlink:href="#a"/></mask><use xlink:href="#a" fill="#000" fill-rule="nonzero"/></g></svg>