<svg xmlns="http://www.w3.org/2000/svg" xmlns:xlink="http://www.w3.org/1999/xlink" width="16" height="16"><defs><path id="a" d="M8.815 6.612c.286 0 .518.24.518.534l-.002.02v1.335h-.006c.002 2.45-1.779 4.514-4.144 4.804v1.622h2.332v.008l.036.003a.529.529 0 0 1 .448.529.53.53 0 0 1-.417.523l-.067.01H1.82v-.002l-.039-.003a.529.529 0 0 1-.448-.528c0-.284.215-.516.486-.533l.001-.007h2.334v-1.622C1.784 13.022-.003 10.955 0 8.501l.004-.067-.002-1.182a.526.526 0 0 1 .516-.585c.249 0 .456.179.507.418l.01.074.002.041-.003.041v1.426l-.002.004.003.058-.002.138c.003 1.8 1.675 3.438 3.524 3.504h.21c1.85-.065 3.526-1.704 3.526-3.442V7.152l.003-.003c0-.298.232-.537.519-.537ZM4.663 0C5.839 0 6.87.834 7.187 2.039c.074.276.12.56.138.846.017.29.003 1.416 0 1.844V7.48c0 .317 0 .65-.016.968-.012.286-.053.57-.122.846a2.764 2.764 0 0 1-.938 1.453 2.442 2.442 0 0 1-3.173 0 2.743 2.743 0 0 1-.938-1.453c-.07-.277-.11-.56-.122-.846C1.998 8.132 2 7.798 2 7.48V2.885c.008-.287.054-.572.138-.846C2.454.834 3.486 0 4.663 0Z"/></defs><g fill="none" fill-rule="evenodd" transform="translate(3.333)"><mask id="b" fill="#fff"><use xlink:href="#a"/></mask><use xlink:href="#a" fill="#333"/></g></svg>