<svg xmlns="http://www.w3.org/2000/svg" xmlns:xlink="http://www.w3.org/1999/xlink" width="16" height="16"><defs><path id="a" d="M3.852 6.667c.248 0 .455.179.506.418l.01.074.002.041-.003.041v1.426l-.002.004.003.058-.001.138c.002 1.8 1.674 3.438 3.523 3.504h.21a3.522 3.522 0 0 0 1.349-.329l.727.726a4.597 4.597 0 0 1-1.662.537v1.622h2.333l-.001.008.036.003a.529.529 0 0 1 .448.529.53.53 0 0 1-.417.523l-.066.01H5.153v-.002l-.038-.003a.529.529 0 0 1-.448-.528c0-.284.214-.516.486-.533v-.007h2.335v-1.622c-2.37-.283-4.158-2.35-4.155-4.804l.004-.067-.001-1.182-.003-.052c0-.295.232-.533.519-.533ZM1.522.35l.067.06 14 14a.833.833 0 0 1-1.11 1.24l-.068-.06-14-14A.833.833 0 0 1 1.52.35Zm3.812 7.577 3.316 3.316a2.443 2.443 0 0 1-2.241-.495 2.743 2.743 0 0 1-.938-1.453c-.07-.277-.11-.56-.122-.846-.01-.171-.013-.347-.015-.522Zm6.814-1.315c.287 0 .519.24.519.534l-.002.02v1.335h-.006c0 .475-.067.937-.192 1.373l-.842-.842.002-.103-.001-1.777.003-.003c0-.298.233-.537.52-.537ZM7.996 0c1.176 0 2.209.834 2.525 2.039.074.276.12.56.138.846l.006.22v.94l-.006.706v2.73c0 .19 0 .386-.004.581L5.341 2.748l.002-.035c.014-.172.041-.342.083-.509l.046-.165C5.788.834 6.82 0 7.996 0Z"/></defs><g fill="none" fill-rule="evenodd"><mask id="b" fill="#fff"><use xlink:href="#a"/></mask><use xlink:href="#a" fill="#333"/></g></svg>