<svg xmlns="http://www.w3.org/2000/svg" width="16" height="16"><g fill="none" fill-rule="evenodd" transform="translate(1)"><polygon fill="#25282A" points="0 0 0 16 7.00038733 13.6168876 14 16 14 0"/><g fill="#FFF"><path d="M5.362 9.802c-.333.13-.669.196-1.008.196a2.6 2.6 0 0 1-2.015-.872 2.775 2.775 0 0 1-.54-.92 3.191 3.191 0 0 1-.184-1.08c0-.416.057-.812.173-1.188.115-.376.287-.705.516-.988.228-.283.513-.508.854-.676.34-.168.74-.252 1.196-.252.312 0 .606.036.883.108.277.072.524.185.741.34.218.155.4.35.548.588a2.3 2.3 0 0 1 .302.86h-.765a1.488 1.488 0 0 0-.21-.564 1.346 1.346 0 0 0-.378-.388 1.688 1.688 0 0 0-.512-.228 2.369 2.369 0 0 0-.609-.076c-.349 0-.648.07-.898.208-.25.138-.454.321-.612.548a2.383 2.383 0 0 0-.351.776c-.075.29-.113.588-.113.892 0 .299.043.585.13.86.085.275.211.517.378.728.166.21.372.379.616.504.245.125.528.188.85.188.301 0 .567-.048.798-.144.231-.096.426-.228.585-.396.158-.168.278-.365.358-.592.08-.227.116-.47.105-.732H4.363v-.64h2.522V9.87H6.4L6.2 9.158a1.909 1.909 0 0 1-.838.644M10.894 4.938c-.255-.184-.582-.276-.98-.276-.16 0-.319.016-.475.048a1.272 1.272 0 0 0-.415.16.844.844 0 0 0-.29.3.923.923 0 0 0-.109.468c0 .176.053.319.158.428.104.11.244.199.419.268.174.07.372.127.592.172.22.045.444.095.673.148.228.053.452.116.673.188.22.072.417.17.592.292.175.123.314.277.42.464.104.187.156.421.156.704 0 .304-.068.564-.205.78a1.687 1.687 0 0 1-.528.528 2.306 2.306 0 0 1-.721.296 3.522 3.522 0 0 1-1.709-.028 2.263 2.263 0 0 1-.757-.364 1.727 1.727 0 0 1-.516-.624 1.996 1.996 0 0 1-.19-.9h.726c0 .24.047.447.14.62.095.173.218.316.372.428.153.112.331.195.535.248.205.053.414.08.629.08.172 0 .345-.016.52-.048.174-.032.332-.087.471-.164a.935.935 0 0 0 .339-.316.928.928 0 0 0 .129-.512.714.714 0 0 0-.158-.48 1.157 1.157 0 0 0-.419-.3 3.108 3.108 0 0 0-.592-.188l-.673-.148a9.124 9.124 0 0 1-.673-.176 2.444 2.444 0 0 1-.592-.264 1.27 1.27 0 0 1-.419-.424c-.105-.173-.157-.39-.157-.652 0-.288.059-.537.177-.748.118-.21.275-.384.472-.52a2.12 2.12 0 0 1 .668-.304c.25-.067.507-.1.77-.1.296 0 .57.035.822.104.253.07.474.179.665.328.19.15.341.337.451.564.11.227.17.497.181.812h-.725c-.043-.41-.192-.708-.447-.892"/></g></g></svg>