<svg xmlns="http://www.w3.org/2000/svg" xmlns:xlink="http://www.w3.org/1999/xlink" width="16" height="16"><defs><path id="a" d="M4.756 5.648a4.614 4.614 0 0 1 2.22.566 4.884 4.884 0 0 1 1.917 1.927l.092.167.185-.036c.215-.04.434-.061.652-.061a3.392 3.392 0 0 1 2.102.727 3.683 3.683 0 0 1 1.417 2.917c0 2.01-1.58 3.645-3.52 3.645a3.396 3.396 0 0 1-2.171-.778l-.147-.12-.155.104a4.604 4.604 0 0 1-2.592.794 4.655 4.655 0 0 1-3.363-1.441A4.992 4.992 0 0 1 0 10.574C0 9.26.496 8.021 1.393 7.091a4.653 4.653 0 0 1 3.363-1.443Zm0 .818C2.569 6.466.79 8.31.79 10.574c0 2.265 1.778 4.11 3.965 4.11a3.887 3.887 0 0 0 2.82-1.22 2.692 2.692 0 0 0 2.246 1.22c1.505 0 2.729-1.269 2.729-2.829 0-.818-.339-1.553-.877-2.071a2.82 2.82 0 0 0-.64-.458 2.636 2.636 0 0 0-2.49.03 4.08 4.08 0 0 0-2.133-2.508 3.71 3.71 0 0 0-.731-.265 3.717 3.717 0 0 0-.924-.117ZM9.022.541a.736.736 0 0 1 .767.181.77.77 0 0 1 .154.853 3.87 3.87 0 0 0-.135 2.846c.678 1.997 2.821 3.061 4.78 2.37.12-.042.243-.091.356-.147.026-.008.049-.02.072-.028a.731.731 0 0 1 .765.18.768.768 0 0 1 .152.853c-.424.943-1.245 1.82-2.076 2.366-.102-.235-.188-.474-.336-.675.72-.48 1.39-1.235 1.737-2.007a4.564 4.564 0 0 1-.427.175c-2.349.827-4.911-.445-5.727-2.84a4.65 4.65 0 0 1 .161-3.41c-1.51.714-2.466 2.206-2.574 3.833a4.918 4.918 0 0 0-.73-.185C6.127 3.07 7.209 1.393 8.954.57l.068-.03Z"/></defs><g fill="none" fill-rule="evenodd"><mask id="b" fill="#fff"><use xlink:href="#a"/></mask><use xlink:href="#a" fill="#0C2340" fill-rule="nonzero"/></g></svg>