<svg xmlns="http://www.w3.org/2000/svg" xmlns:xlink="http://www.w3.org/1999/xlink" width="16" height="16"><defs><path id="a" d="m15.536.506-9.4 1.419a.397.397 0 0 0-.336.39v7.901a3.319 3.319 0 0 0-2.504-1.145C1.48 9.07 0 10.513 0 12.289 0 14.06 1.48 15.5 3.296 15.5c1.824 0 3.304-1.442 3.304-3.21V2.641l8.6-1.302v7.2a3.34 3.34 0 0 0-2.504-1.137c-1.816 0-3.296 1.442-3.296 3.219 0 1.769 1.48 3.21 3.296 3.21 1.824 0 3.304-1.441 3.304-3.21V.888c0-.293-.14-.419-.464-.382Z"/></defs><g fill="none" fill-rule="evenodd"><mask id="b" fill="#fff"><use xlink:href="#a"/></mask><use xlink:href="#a" fill="#0C2340" fill-rule="nonzero"/></g></svg>