<svg xmlns="http://www.w3.org/2000/svg" xmlns:xlink="http://www.w3.org/1999/xlink" width="16" height="16"><defs><path id="a" d="M11.267 3.722V16H4.734V3.722h6.533Zm-7.36 0V16H1.8C.807 16 0 15.22 0 14.258V5.465c0-.29.074-.555.193-.794.3-.561.907-.949 1.607-.949h2.107Zm10.293 0c.7 0 1.306.388 1.607.95.12.238.193.502.193.793v8.793c0 .961-.807 1.742-1.8 1.742h-2.107V3.722ZM8 0c1.834 0 3.353 1.194 3.613 2.755H10.6C10.34 1.735 9.274.967 8 .967c-1.273 0-2.34.768-2.6 1.788H4.387C4.647 1.194 6.167 0 8 0Z"/></defs><g fill="none" fill-rule="evenodd"><mask id="b" fill="#fff"><use xlink:href="#a"/></mask><use xlink:href="#a" fill="#0C2340" fill-rule="nonzero"/></g></svg>