<svg xmlns="http://www.w3.org/2000/svg" xmlns:xlink="http://www.w3.org/1999/xlink" width="16" height="16"><defs><path id="a" d="M8 5.333A2.333 2.333 0 1 1 8 10a2.333 2.333 0 0 1 0-4.667Zm-.267 1.068a.333.333 0 0 0-.533.266v2c0 .275.314.432.533.267l1.334-1a.333.333 0 0 0 0-.533ZM5.72 13.292H3.504c-.23 0-.41-.19-.41-.415 0-.232.18-.415.41-.415H5.72a.414.414 0 0 1 0 .83Zm6.818 0h-2.216a.42.42 0 0 1-.41-.415c0-.232.19-.415.41-.415h2.216c.23 0 .41.183.41.415 0 .224-.18.415-.41.415ZM2.463 5.172c0-.771.615-1.393 1.378-1.393h8.36c.764 0 1.379.622 1.379 1.392V10c0 .771-.615 1.393-1.379 1.393h-8.36A1.384 1.384 0 0 1 2.463 10V5.17Zm13.152.456c0-2.555-2.051-4.628-4.57-4.628H4.956c-1.222 0-2.37.481-3.233 1.36A4.557 4.557 0 0 0 .38 5.595L0 14.57a.393.393 0 0 0 .114.307.39.39 0 0 0 .296.124h15.18a.415.415 0 0 0 .295-.124.46.46 0 0 0 .114-.307l-.385-8.94Z"/></defs><g fill="none" fill-rule="evenodd"><mask id="b" fill="#fff"><use xlink:href="#a"/></mask><use xlink:href="#a" fill="#0C2340" fill-rule="nonzero"/></g></svg>