<svg xmlns="http://www.w3.org/2000/svg" xmlns:xlink="http://www.w3.org/1999/xlink" width="16" height="16"><defs><path id="a" d="M3.82 8.082a3.766 3.766 0 0 1 2.701 1.16c.241.251.452.536.62.843l.038.07.077-.015c.173-.035.35-.053.528-.053 1.125 0 2.1.684 2.564 1.67a3.066 3.066 0 0 1 .286 1.287 2.994 2.994 0 0 1-1.265 2.458c-.249.17-.526.301-.822.386a2.72 2.72 0 0 1-.763.112c-.647 0-1.254-.22-1.761-.632l-.058-.048-.065.042A3.695 3.695 0 0 1 3.82 16a3.728 3.728 0 0 1-2.701-1.16A4.007 4.007 0 0 1 0 12.04a4 4 0 0 1 1.121-2.798 3.718 3.718 0 0 1 2.67-1.16h.028Zm0 .844c-1.658 0-3.005 1.398-3.005 3.115 0 1.718 1.347 3.115 3.004 3.115.809 0 1.567-.33 2.138-.924l.083-.087.067.1c.377.57 1.007.911 1.677.911a1.986 1.986 0 0 0 1.31-.499 2.14 2.14 0 0 0 .727-1.613c0-.021-.003-.04-.003-.06a2.138 2.138 0 0 0-.29-1.02c-.355-.618-1.003-1.033-1.744-1.033-.334 0-.662.085-.955.246l-.106.058-.033-.116A3.098 3.098 0 0 0 5.06 9.21a2.892 2.892 0 0 0-1.143-.28c-.033-.002-.065-.005-.098-.005ZM8.47.01a.932.932 0 0 1 .894.397.942.942 0 0 1-.013 1.06 5.224 5.224 0 0 0-.933 3.793c.405 2.864 3.057 4.864 5.911 4.458.177-.024.353-.058.526-.102a.93.93 0 0 1 .972 1.44 6.983 6.983 0 0 1-3.98 2.716c.026-.184.04-.372.04-.562 0-.103-.007-.206-.014-.307a6.158 6.158 0 0 0 3.28-2.334l.146-.204-.244.062c-.2.049-.406.088-.608.117-3.31.47-6.383-1.847-6.853-5.167A6.073 6.073 0 0 1 8.674.981l.145-.204-.244.06c-2.87.71-4.789 3.3-4.725 6.198h-.025c-.27.002-.537.032-.8.077C2.928 3.803 5.105.837 8.378.028A.866.866 0 0 1 8.469.01Z"/></defs><g fill="none" fill-rule="evenodd"><mask id="b" fill="#fff"><use xlink:href="#a"/></mask><use xlink:href="#a" fill="#0C2340" fill-rule="nonzero"/></g></svg>