<svg xmlns="http://www.w3.org/2000/svg" xmlns:xlink="http://www.w3.org/1999/xlink" width="16" height="16"><defs><path id="a" d="M8.007 6.723c1.014 0 1.914.757 2.25 1.884a1.423 1.423 0 0 0 .074.23c.327.996.981 1.81 1.669 2.082.867.345 1.423 1.11 1.423 1.95 0 1.177-1.08 2.131-2.405 2.131H4.979c-1.317 0-2.398-.954-2.398-2.131 0-.872.59-1.646 1.498-1.975.654-.288 1.285-1.078 1.604-2.049l.032-.098c.295-1.193 1.236-2.024 2.292-2.024Zm3.857-.618c.71-1.394 1.998-2.058 2.876-1.483.879.575 1.015 2.171.305 3.566-.71 1.394-1.998 2.058-2.876 1.483-.879-.575-1.015-2.171-.305-3.566ZM1.26 4.622c.878-.575 2.166.089 2.876 1.483.71 1.395.574 2.991-.305 3.566-.878.575-2.166-.09-2.876-1.483-.71-1.395-.574-2.991.305-3.566Zm3.635-3.573c1.058-.283 2.237.688 2.633 2.17.397 1.48-.139 2.912-1.196 3.195-1.058.284-2.236-.687-2.633-2.169-.397-1.481.139-2.912 1.196-3.196Zm3.577 2.17c.396-1.482 1.575-2.453 2.633-2.17 1.057.284 1.593 1.715 1.196 3.196-.397 1.482-1.575 2.453-2.633 2.17C8.611 6.13 8.075 4.7 8.472 3.217Z"/></defs><g fill="none" fill-rule="evenodd"><mask id="b" fill="#fff"><use xlink:href="#a"/></mask><use xlink:href="#a" fill="#0C2340" fill-rule="nonzero"/></g></svg>