<svg xmlns="http://www.w3.org/2000/svg" xmlns:xlink="http://www.w3.org/1999/xlink" width="10" height="16"><defs><path id="a" d="M5.481 1.568H4.2a.246.246 0 0 1-.242-.248c0-.128.11-.24.242-.24h1.282c.133 0 .235.112.235.24 0 .136-.102.248-.235.248Zm-1.962 0c-.133 0-.235-.112-.235-.248 0-.128.102-.24.235-.24s.242.112.242.24c0 .136-.11.248-.242.248ZM1.627 0C.727 0 0 .752 0 1.672v.976h9v-.976C9 .752 8.273 0 7.374 0H1.627Zm2.869 14.016c.36 0 .649.296.649.664 0 .368-.29.664-.649.664a.654.654 0 0 1-.641-.664c0-.335.239-.61.547-.657l.094-.007ZM0 13.36v.976C0 15.256.727 16 1.626 16h5.747C8.273 16 9 15.256 9 14.336v-.976H0Zm0-9.912v9.112h9V3.448H0Z"/></defs><g fill="none" fill-rule="evenodd" transform="translate(.5)"><mask id="b" fill="#fff"><use xlink:href="#a"/></mask><use xlink:href="#a" fill="#0C2340" fill-rule="nonzero"/></g></svg>