<svg xmlns="http://www.w3.org/2000/svg" xmlns:xlink="http://www.w3.org/1999/xlink" width="16" height="16"><defs><path id="a" d="M8.255 0c.195 0 .352.15.352.336a.325.325 0 0 1-.053.178L6.667 2.667V6l2.618 3.576c.098.16.042.33-.126.424-.054.03-.115 0-.178 0H5.667l-.68 5.7a.307.307 0 0 1-.32.298c-.174 0-.333-.111-.35-.298l-.65-5.7H.352C.158 10 0 9.93 0 9.745c0-.06.017-.118.048-.17L2.667 6V2.667L.78.514A.327.327 0 0 1 .892.051.364.364 0 0 1 1.078 0h7.177Z"/></defs><g fill="none" fill-rule="evenodd" transform="translate(3.333)"><mask id="b" fill="#fff"><use xlink:href="#a"/></mask><use xlink:href="#a" fill="#D8D8D8"/></g></svg>