<svg xmlns="http://www.w3.org/2000/svg" xmlns:xlink="http://www.w3.org/1999/xlink" width="16" height="14"><defs><path id="a" d="M6.5 7.983a.75.75 0 1 0 1.5 0 .75.75 0 0 0-1.5 0m2 .3a.75.75 0 1 0 1.5 0 .75.75 0 0 0-1.5 0m-4.167-1.92C11.23 7.55 14.845 8.128 15.243 8.08c.798-.094.964-.537.502-1.146-.245-.283-1.082-1.258-2.153-1.404-.756-.064-1.913-.266-3.397-.437L7.297.502A1.007 1.007 0 0 0 6.65.08C6.423.055 6.194.029 5.965 0c-.299-.01-.626.022-.596.164l1.068 4.196a92.516 92.516 0 0 1-3.385-.551c-.968-1.245-1.488-1.953-1.79-2.15-.286-.125-.971-.203-.997.025.063.655.17 1.338.304 1.979-.482.176-.68.292-.507.59.217.325 2.056 1.647 4.27 2.11m11.001 6.303H.667a.666.666 0 1 1 0-1.334h14.666a.667.667 0 0 1 0 1.334Z"/></defs><g fill="none" fill-rule="evenodd" transform="translate(0 .667)"><mask id="b" fill="#fff"><use xlink:href="#a"/></mask><use xlink:href="#a" fill="#333"/></g></svg>