<svg xmlns="http://www.w3.org/2000/svg" xmlns:xlink="http://www.w3.org/1999/xlink" width="16" height="16"><defs><path id="a" d="M8 0a8 8 0 1 1 0 16A8 8 0 0 1 8 0Zm.367 3.573h-.713v.797c-1.058.104-1.058.104-1.649.59-.59.488-.59.488-.59 1.243 0 .703 0 .703.429 1.18.382.423.382.423 1.239.791l.222.092.349.135v1.615c-.5-.032-.5-.032-1.138-.204-.51-.137-.51-.137-.903-.308l-.189-.087v1.375c.839.369.839.369 1.917.435l.313.013v1.046h.713V11.22c1.078-.1 1.078-.1 1.677-.602.6-.502.6-.502.6-1.33 0-.459 0-.459-.201-.803-.2-.343-.2-.343-.63-.63C9.43 7.6 9.43 7.6 8.585 7.263l-.219-.086V5.641c.684.058.684.058 1.34.283l.327.123.49-1.219c-.826-.366-.826-.366-1.82-.457l-.337-.022v-.776Zm0 5.11c.354.16.354.16.531.312.178.15.178.15.178.37 0 .494 0 .494-.709.614V8.682ZM7.654 5.66v1.224c-.355-.156-.355-.156-.513-.304-.16-.149-.16-.149-.16-.378 0-.398 0-.398.545-.518l.128-.024Z"/></defs><g fill="none" fill-rule="evenodd"><mask id="b" fill="#fff"><use xlink:href="#a"/></mask><use xlink:href="#a" fill="#0C2340"/></g></svg>