<svg xmlns="http://www.w3.org/2000/svg" xmlns:xlink="http://www.w3.org/1999/xlink" width="16" height="16"><defs><path id="a" d="M14.352 6.292C14.264 2.992 11.616.5 8 .5S1.744 2.992 1.648 6.292c0 .01-.416.01-1.248 0-.216 0-.4.18-.4.391v3.159c0 .211.184.392.4.392h1.248c0 .211.176.47.4.47h1.648c.216 0 .4-.18.4-.392V6.213a.402.402 0 0 0-.4-.392H2.472C2.736 3.165 4.976 1.284 8 1.284c3.024 0 5.264 1.88 5.528 4.537h-1.224c-.216 0-.4.18-.4.392v4.099c0 .212.184.392.4.392h1.208c-.112.768-.448 1.473-1.016 2.108-.576.658-1.416 1.034-2.328 1.105-.28-.439-.984-.745-1.864-.745-1.128 0-1.984.502-1.984 1.168 0 .658.856 1.16 1.984 1.16.912 0 1.624-.321 1.88-.784 1.144-.078 2.192-.572 2.92-1.387.792-.901 1.216-1.96 1.248-3.095H15.6c.224 0 .4-.18.4-.392V6.683a.397.397 0 0 0-.4-.391c-.832.01-1.248.01-1.248 0Z"/></defs><g fill="none" fill-rule="evenodd"><mask id="b" fill="#fff"><use xlink:href="#a"/></mask><use xlink:href="#a" fill="#0C2340" fill-rule="nonzero"/></g></svg>