<svg xmlns="http://www.w3.org/2000/svg" xmlns:xlink="http://www.w3.org/1999/xlink" width="16" height="16"><defs><path id="a" d="M8 0a8 8 0 1 1 0 16A8 8 0 0 1 8 0Zm-.357 10.036c-.448 0-.448 0-.682.224-.234.224-.234.224-.234.662 0 .422 0 .422.24.654.239.231.239.231.676.231.427 0 .427 0 .667-.237.24-.237.24-.237.24-.648 0-.427 0-.427-.238-.656-.236-.23-.236-.23-.669-.23Zm.308-6.093c-1.158 0-1.158 0-2.204.514l-.26.137.568 1.14c1-.51 1-.51 1.78-.51.449 0 .449 0 .699.177.25.177.25.177.25.516 0 .302 0 .302-.175.547-.174.244-.174.244-.721.635-.568.417-.568.417-.781.786-.171.296-.171.296-.205.675l-.009.195v.386h1.38v-.313c0-.312 0-.312.133-.505s.133-.193.633-.563c.73-.52.73-.52.99-.937.26-.417.26-.417.26-.99 0-.859 0-.859-.633-1.375-.633-.515-.633-.515-1.705-.515Z"/></defs><g fill="none" fill-rule="evenodd"><mask id="b" fill="#fff"><use xlink:href="#a"/></mask><use xlink:href="#a" fill="#024"/></g></svg>