<svg xmlns="http://www.w3.org/2000/svg" xmlns:xlink="http://www.w3.org/1999/xlink" width="16" height="16"><defs><path id="a" d="m8 7.41 2.416 4.262a2.838 2.838 0 1 1-4.834 0L8 7.411ZM5.703 0c1.525 0 2.955.594 4.033 1.67.367.364.678.774.93 1.216l.109.192.219-.04A4.226 4.226 0 0 1 16 7.185a4.212 4.212 0 0 1-2.202 3.696l-.492-.776.014-.036a3.274 3.274 0 0 0 1.734-2.885 3.279 3.279 0 0 0-4.81-2.894A4.774 4.774 0 0 0 5.703.948 4.76 4.76 0 0 0 .947 5.703 4.75 4.75 0 0 0 2.972 9.59l-.392.885a5.798 5.798 0 0 1-.909-.74A5.667 5.667 0 0 1 0 5.704C0 4.18.595 2.746 1.671 1.67A5.67 5.67 0 0 1 5.703 0Z"/></defs><g fill="none" fill-rule="evenodd"><mask id="b" fill="#fff"><use xlink:href="#a"/></mask><use xlink:href="#a" fill="#0C2340" fill-rule="nonzero"/></g></svg>