<svg xmlns="http://www.w3.org/2000/svg" xmlns:xlink="http://www.w3.org/1999/xlink" width="16" height="16"><defs><path id="a" d="m15.268 5.673-4.936-.094L8.708.987A.735.735 0 0 0 7.996.5a.74.74 0 0 0-.704.487L5.668 5.58l-4.936.094a.747.747 0 0 0-.696.504.72.72 0 0 0 .264.817l3.936 2.933-1.432 4.646c-.072.228-.115.514.23.773.346.26.786.132.914.045l4.048-2.775 4.056 2.775c.128.087.626.201.92-.045.296-.246.296-.545.224-.773l-1.432-4.646L15.7 6.994a.72.72 0 0 0 .264-.817.747.747 0 0 0-.696-.504Z"/></defs><g fill="none" fill-rule="evenodd"><mask id="b" fill="#fff"><use xlink:href="#a"/></mask><use xlink:href="#a" fill="#0C2340" fill-rule="nonzero"/></g></svg>