<svg xmlns="http://www.w3.org/2000/svg" xmlns:xlink="http://www.w3.org/1999/xlink" width="16" height="16"><defs><path id="a" d="M12.477 8.81a.667.667 0 1 1 1.333 0v4.542a.667.667 0 0 1-.667.667H.667A.667.667 0 0 1 0 13.352V.933C0 .565.298.267.667.267h4.58a.667.667 0 0 1 0 1.333H1.332v11.085h11.144V8.81ZM9.77 9.27a.667.667 0 1 1 0 1.333H4.094a.667.667 0 0 1-.666-.667V4.25a.667.667 0 0 1 1.334 0v4.08L12.204.864a.667.667 0 1 1 .944.94L5.709 9.27h4.062Z"/></defs><g fill="none" fill-rule="evenodd" transform="translate(0 2)"><mask id="b" fill="#fff"><use xlink:href="#a"/></mask><use xlink:href="#a" fill="#0C2340" fill-rule="nonzero"/></g></svg>