<svg xmlns="http://www.w3.org/2000/svg" xmlns:xlink="http://www.w3.org/1999/xlink" width="16" height="16"><defs><path id="a" d="M11.744 4.626V15.1a.89.89 0 0 1-.88.9H5.128a.896.896 0 0 1-.88-.9V4.626h7.496ZM8 7.068a.343.343 0 0 0-.152.033.399.399 0 0 0-.136.089c-.016.016-.032.032-.048.057l-2.48 2.506a.41.41 0 0 0 0 .568c.08.081.184.122.288.122a.4.4 0 0 0 .28-.122L7.6 8.447v4.706c0 .219.176.405.4.405a.41.41 0 0 0 .4-.405V8.455l1.84 1.866c.08.081.184.122.288.122.104 0 .2-.04.28-.122a.396.396 0 0 0 0-.568l-2.48-2.506-.048-.057a.335.335 0 0 0-.128-.09A.343.343 0 0 0 8 7.069ZM14.704 1C15.424 1 16 1.592 16 2.314v6.19c0 .722-.576 1.314-1.296 1.314h-2.16V7.003h.512c.6 0 1.08-.487 1.08-1.087V4.902c0-.6-.48-1.087-1.08-1.087H2.936c-.6 0-1.072.479-1.072 1.087v1.014a1.07 1.07 0 0 0 1.072 1.087h.512v2.815h-2.16C.576 9.818 0 9.226 0 8.504v-6.19C0 1.592.576 1 1.288 1ZM3.448 4.626v1.566h-.512a.272.272 0 0 1-.272-.276V4.902c0-.154.12-.276.272-.276h.512Zm9.608 0c.16 0 .28.122.28.276v1.014c0 .154-.12.276-.28.276h-.512V4.626Z"/></defs><g fill="none" fill-rule="evenodd"><mask id="b" fill="#fff"><use xlink:href="#a"/></mask><use xlink:href="#a" fill="#0C2340" fill-rule="nonzero"/></g></svg>