<svg xmlns="http://www.w3.org/2000/svg" xmlns:xlink="http://www.w3.org/1999/xlink" width="16" height="16"><defs><path id="a" d="m15.03 5.354.953-3.552a.437.437 0 0 0-.385-.562.62.62 0 0 0-.653.44l-.503 1.876a7.913 7.913 0 0 0-1.765-1.907 6.386 6.386 0 0 0-.209-.164 7.82 7.82 0 0 0-.72-.464c-.095-.055-.195-.1-.292-.15-.129-.066-.255-.135-.387-.194-.158-.071-.32-.13-.481-.189-.077-.028-.151-.061-.228-.087-.167-.056-.336-.1-.505-.144C9.777.237 9.7.212 9.621.193 9.467.158 9.313.134 9.158.11c-.1-.017-.199-.037-.3-.05C8.73.043 8.602.037 8.473.026c-.13-.01-.26-.022-.39-.025-.1-.003-.2.002-.3.004-.157.002-.315.003-.473.014-.08.006-.158.02-.236.027-.176.019-.35.037-.525.068-.078.014-.154.035-.231.05-.171.036-.341.07-.51.117-.14.038-.277.089-.414.135-.103.035-.206.063-.308.103-.493.189-.969.43-1.42.72-.045.028-.085.061-.129.091-.17.114-.34.231-.503.36-.101.08-.194.168-.291.253-.097.084-.197.165-.29.255-.15.145-.29.297-.426.452-.035.04-.073.075-.107.116-.35.409-.655.851-.913 1.318C.953 4.18.91 4.28.86 4.38c-.065.13-.135.259-.192.393-.07.161-.129.326-.188.49-.027.077-.06.151-.085.228-.055.17-.099.343-.142.516-.02.077-.044.155-.062.234-.035.156-.058.313-.084.471-.016.1-.036.202-.049.303-.015.13-.022.262-.032.393-.01.131-.022.261-.025.393-.003.103.002.205.004.308.002.16.003.318.014.477.006.082.02.163.027.244.019.176.037.352.067.528.013.08.034.159.05.238.034.172.068.343.114.514.038.142.088.28.133.42.035.104.063.209.101.312.187.5.425.983.711 1.44.028.046.06.087.09.132.112.173.227.345.355.509.078.103.165.197.248.296.084.098.164.2.253.294.142.152.293.293.445.432.039.035.074.074.114.11.404.353.839.663 1.299.924.097.055.197.1.295.15.127.066.253.135.384.194.16.072.324.13.486.19.075.028.148.06.223.086.169.056.338.1.509.144.077.021.152.046.23.063.154.035.309.06.464.085.1.017.199.038.299.05.13.017.259.023.388.032.13.01.258.022.387.027.102.002.202-.004.304-.005.157-.002.313-.004.47-.014.08-.006.16-.02.24-.028.174-.019.348-.037.521-.067.08-.014.157-.035.235-.051.17-.036.339-.07.507-.116.138-.039.273-.088.41-.134.103-.035.209-.064.312-.103a8.323 8.323 0 0 0 1.31-.653c.077-.049.15-.1.226-.15a7.651 7.651 0 0 0 1.003-.793c.03-.027.06-.052.089-.08.177-.17.343-.348.502-.532.028-.032.055-.066.082-.1.137-.163.267-.332.39-.506.017-.025.037-.046.055-.071.013-.02.024-.04.038-.06.069-.103.135-.209.2-.314.042-.068.085-.137.126-.207.012-.024.028-.045.04-.068l-.002-.002c0-.002.004-.003.005-.006s0-.006.002-.008a8.049 8.049 0 0 0 1.02-3.768h-.003l.002-.007c-.01-.345-.376-.613-.818-.6-.441.013-.791.303-.781.648 0 .027.017.05.022.075h-.01a6.443 6.443 0 0 1-.85 2.916c-.003.006-.01.01-.014.016l-.003.012c-.04.07-.079.14-.122.208a6.4 6.4 0 0 1-.356.521l-.076.098a6.28 6.28 0 0 1-1.202 1.146l-.134.094a6.324 6.324 0 0 1-.72.436 6.785 6.785 0 0 1-.582.258c-.082.032-.167.056-.25.083-.109.037-.218.077-.327.107-.135.038-.272.066-.409.093-.061.013-.122.03-.184.04-.139.025-.279.04-.419.054-.063.007-.127.018-.19.022-.125.01-.251.01-.377.012-.081.001-.162.006-.242.004-.104-.003-.207-.014-.31-.021-.104-.008-.208-.013-.311-.026-.08-.01-.158-.026-.237-.04-.125-.02-.25-.04-.373-.068-.061-.014-.122-.033-.183-.05-.136-.035-.274-.071-.408-.117-.06-.02-.117-.044-.176-.066-.132-.05-.263-.096-.391-.154-.106-.047-.21-.103-.313-.157-.077-.04-.155-.075-.23-.117a6.269 6.269 0 0 1-1.04-.74c-.032-.029-.06-.06-.092-.088a6.933 6.933 0 0 1-.356-.345c-.07-.076-.135-.158-.202-.237-.066-.078-.136-.155-.198-.236a6.07 6.07 0 0 1-.285-.408c-.023-.035-.05-.068-.071-.104a6.42 6.42 0 0 1-.568-1.152c-.031-.082-.054-.166-.081-.249-.037-.112-.077-.224-.107-.337-.036-.135-.063-.272-.09-.408-.014-.065-.03-.13-.042-.193-.024-.14-.038-.282-.052-.422-.007-.065-.017-.13-.022-.196-.009-.127-.01-.254-.012-.38 0-.083-.005-.166-.003-.248.003-.105.013-.209.02-.312.008-.106.013-.213.026-.318.01-.08.026-.16.039-.24.02-.126.04-.253.068-.379.013-.062.033-.124.048-.186.036-.138.07-.277.115-.413.02-.06.045-.119.067-.178.047-.134.094-.267.151-.397.045-.105.1-.206.151-.31.04-.08.076-.162.12-.242a6.528 6.528 0 0 1 .729-1.054c.027-.031.058-.06.085-.091.111-.126.224-.248.342-.362.074-.071.154-.136.231-.204.078-.069.154-.14.234-.203.128-.1.263-.194.4-.286.035-.024.07-.052.105-.075a6.381 6.381 0 0 1 1.135-.575c.084-.033.17-.057.254-.085.108-.037.216-.076.325-.107.133-.036.268-.064.404-.092.063-.013.126-.03.189-.04.139-.025.278-.04.418-.054.063-.008.127-.018.19-.022.126-.01.252-.01.378-.012.08-.001.161-.006.242-.004.103.003.207.013.31.02.104.009.207.014.31.027.08.01.16.027.24.04.124.02.248.04.37.068.063.014.125.034.187.05.136.036.272.07.404.115.062.02.122.047.182.07.13.048.26.095.386.152.106.047.21.104.315.158.076.04.154.074.228.116.183.105.362.219.537.343h.002a6.314 6.314 0 0 1 1.579 1.632l.213.244h-.306l-1.954-.156a.622.622 0 0 0-.628.475c-.066.285.109.534.391.556l3.618.291-.006-.015c.267.01.537-.166.608-.432"/></defs><g fill="none" fill-rule="evenodd"><mask id="b" fill="#fff"><use xlink:href="#a"/></mask><use xlink:href="#a" fill="#0C2340"/></g></svg>