<svg xmlns="http://www.w3.org/2000/svg" xmlns:xlink="http://www.w3.org/1999/xlink" width="16" height="16"><defs><path id="a" d="m12.555 9.414 1.41 1.44a.279.279 0 0 1 0 .389l-4.356 4.453-1.783.301a.272.272 0 0 1-.302-.308c.17-1.187.268-1.795.296-1.823l4.355-4.452a.264.264 0 0 1 .38 0ZM8.989 0v3.333c0 .246.173.45.401.492l.088.008h3.913v2.43c0 .369-7.6 8.404-7.961 8.404H1.652A.66.66 0 0 1 1 14V.667A.66.66 0 0 1 1.652 0H8.99ZM6.85 9.74H3.28c-.179 0-.323.224-.323.5 0 .246.114.45.264.492l.058.008H6.85c.178 0 .323-.223.323-.5 0-.276-.145-.5-.323-.5Zm7.848-2.336 1.233 1.26a.244.244 0 0 1 0 .34l-.905.926a.231.231 0 0 1-.332 0L13.46 8.67a.244.244 0 0 1 0-.34l.905-.926a.231.231 0 0 1 .333 0ZM8.97 7.383H3.28c-.179 0-.323.224-.323.5 0 .245.114.45.264.492l.058.008h5.69c.179 0 .323-.224.323-.5s-.144-.5-.322-.5Zm0-2.358H3.28c-.179 0-.323.224-.323.5 0 .245.114.45.264.492l.058.008h5.69c.179 0 .323-.224.323-.5s-.144-.5-.322-.5ZM6.01 2.667H3.28c-.179 0-.323.224-.323.5 0 .245.114.45.264.492l.058.008h2.732c.178 0 .322-.224.322-.5s-.144-.5-.322-.5ZM9.969.027a.65.65 0 0 1 .272.166l2.609 2.64H9.967V.028Z"/></defs><g fill="none" fill-rule="evenodd"><mask id="b" fill="#fff"><use xlink:href="#a"/></mask><use xlink:href="#a" fill="#0C2340" fill-rule="nonzero"/></g></svg>