<svg xmlns="http://www.w3.org/2000/svg" xmlns:xlink="http://www.w3.org/1999/xlink" width="16" height="16"><defs><path id="a" d="M.5 11.519a.5.5 0 0 1 .5.5v2.372c0 .297.212.544.494.598l.115.011H4.3a.5.5 0 1 1 0 1H1.28A1.28 1.28 0 0 1 0 14.72v-2.701a.5.5 0 0 1 .5-.5Zm15 0a.5.5 0 0 1 .5.5v2.701A1.28 1.28 0 0 1 14.72 16H11.7a.5.5 0 1 1 0-1h2.691a.609.609 0 0 0 .598-.494l.011-.115V12.02a.5.5 0 0 1 .5-.5Zm-3.604-.31a1.146 1.146 0 1 1 0 2.291 1.146 1.146 0 0 1 0-2.292Zm-7.792 0a1.146 1.146 0 1 1 0 2.291 1.146 1.146 0 0 1 0-2.292Zm8.48-8.709c.506 0 .916.41.916.917v6.416c0 .507-.41.917-.917.917H3.417a.917.917 0 0 1-.917-.917V3.417c0-.507.41-.917.917-.917h9.166ZM14.72 0C15.427 0 16 .573 16 1.28v3.339a.5.5 0 1 1-1 0v-3.01A.609.609 0 0 0 14.41 1H11.7a.5.5 0 0 1 0-1h3.02ZM4.3 0a.5.5 0 0 1 0 1H1.609A.609.609 0 0 0 1 1.59v3.029a.5.5 0 0 1-1 0V1.28C0 .573.573 0 1.28 0H4.3Z"/></defs><g fill="none" fill-rule="evenodd"><mask id="b" fill="#fff"><use xlink:href="#a"/></mask><use xlink:href="#a" fill="#949494" fill-rule="nonzero"/></g></svg>