<svg xmlns="http://www.w3.org/2000/svg" xmlns:xlink="http://www.w3.org/1999/xlink" width="16" height="16"><defs><path id="a" d="M7.174 9.734c.206 0 .37.162.37.365v1.883L8.89 10.65a.376.376 0 0 1 .527-.001.359.359 0 0 1-.001.514l-1.35 1.339h1.909c.203 0 .369.163.369.366 0 .2-.166.363-.369.363h-1.91l1.352 1.338c.068.071.107.16.107.255a.368.368 0 0 1-.37.367.386.386 0 0 1-.264-.108L7.544 13.75v1.887c0 .2-.164.364-.37.364a.367.367 0 0 1-.368-.364v-1.887l-1.349 1.334a.368.368 0 0 1-.525-.002.36.36 0 0 1-.001-.512l1.355-1.338h-1.91a.37.37 0 0 1-.371-.363.37.37 0 0 1 .372-.366h1.909l-1.353-1.34a.348.348 0 0 1-.108-.254c0-.099.037-.187.108-.255a.362.362 0 0 1 .261-.108c.1 0 .193.037.263.106l1.349 1.331v-1.883c0-.203.165-.365.368-.365Zm-1.77-4.867c.474 0 .936.077 1.374.22.238.077.472.172.694.288.38.201.732.46 1.046.77.282.28.523.59.718.93l.084.147.17-.03a3.262 3.262 0 0 1 2.982.972c.545.578.882 1.35.882 2.2a3.202 3.202 0 0 1-1.443 2.664l-.435-.576a2.493 2.493 0 0 0 1.145-2.089c0-1.38-1.134-2.503-2.527-2.503-.416 0-.82.1-1.185.29-.469-1.5-1.893-2.557-3.506-2.557-2.026 0-3.673 1.631-3.673 3.636 0 1.065.467 2.02 1.205 2.686l-.466.543c-.058-.052-.123-.09-.18-.144A4.322 4.322 0 0 1 1 9.229c0-1.165.459-2.26 1.29-3.083a4.397 4.397 0 0 1 3.113-1.28ZM9.311 2.92c1.797 0 3.257 1.446 3.257 3.226 0 .234-.027.462-.078.686-.147-.134-.29-.276-.455-.382-.068-.045-.142-.077-.213-.118.005-.063.015-.123.015-.186 0-1.38-1.134-2.504-2.526-2.504-.596 0-1.157.21-1.6.573-.047-.028-.091-.063-.139-.09a5.165 5.165 0 0 0-.563-.234 3.263 3.263 0 0 1 2.302-.97Zm6.342 3.064c.19 0 .346.153.346.344a.345.345 0 0 1-.346.342h-1.287a.343.343 0 1 1 0-.686ZM14.047 2.05a.356.356 0 0 1 .493-.008c.14.13.14.344 0 .48l-.926.918a.355.355 0 0 1-.492.007.334.334 0 0 1-.001-.479Zm-8.942-.007a.36.36 0 0 1 .495.004l.936.909a.332.332 0 0 1 .005.479.356.356 0 0 1-.495-.004l-.936-.908a.335.335 0 0 1-.005-.48ZM9.515 0c.191 0 .345.153.345.342v1.285a.343.343 0 0 1-.345.342.345.345 0 0 1-.347-.342V.342c0-.19.157-.342.347-.342Z"/></defs><g fill="none" fill-rule="evenodd"><mask id="b" fill="#fff"><use xlink:href="#a"/></mask><use xlink:href="#a" fill="#0C2340" fill-rule="nonzero"/></g></svg>