<svg xmlns="http://www.w3.org/2000/svg" xmlns:xlink="http://www.w3.org/1999/xlink" width="16" height="16"><defs><path id="a" d="M11.672 11.667c-.01-.01-2.307-1.07-6.888-3.18A2.4 2.4 0 0 0 4.84 8c0-.197-.032-.386-.08-.567l6.864-3.148c.44.59 1.152.976 1.952.976C14.912 5.261 16 4.2 16 2.885 16 1.57 14.912.5 13.576.5c-1.336 0-2.424 1.07-2.424 2.385 0 .11.024.212.032.314-.016.006-2.347 1.07-6.992 3.196a2.435 2.435 0 0 0-1.776-.772C1.08 5.623 0 6.693 0 8c0 1.314 1.08 2.385 2.416 2.385.736 0 1.384-.331 1.832-.843 4.613 2.104 6.93 3.159 6.952 3.164-.024.142-.048.276-.048.417 0 1.315 1.088 2.377 2.424 2.377 1.336 0 2.424-1.062 2.424-2.377 0-1.314-1.088-2.384-2.424-2.384-.776 0-1.456.37-1.904.928Z"/></defs><g fill="none" fill-rule="evenodd"><mask id="b" fill="#fff"><use xlink:href="#a"/></mask><use xlink:href="#a" fill="#0C2340" fill-rule="nonzero"/></g></svg>