<svg xmlns="http://www.w3.org/2000/svg" xmlns:xlink="http://www.w3.org/1999/xlink" width="16" height="16"><defs><path id="a" d="M1.328 2.081c.163-.04 1.649-.312 2.514.352.359.288.563.704.58 1.216v2.528H15V7.88a2.08 2.08 0 0 1-1.396 1.96c-.152.058-.563.1-1.232.128-.017.02-.827.698-2.433 2.031l1.045.856c.27-.16.58-.264.914-.264.955 0 1.739.768 1.739 1.704 0 .936-.784 1.704-1.739 1.704-.955 0-1.738-.768-1.738-1.704 0-.32.098-.608.253-.864l-1.11-.912-1.045.856c.171.272.277.584.277.92 0 .936-.775 1.704-1.738 1.704-.955 0-1.73-.768-1.73-1.704 0-.936.775-1.704 1.73-1.704.318 0 .612.088.865.232L8.674 12A216.084 216.084 0 0 1 6.242 9.97C5.567 9.942 5.153 9.899 5 9.84a2.08 2.08 0 0 1-1.396-1.96V3.657c-.008-.264-.098-.456-.277-.592-.474-.376-1.51-.272-1.837-.208a.396.396 0 1 1-.163-.776Zm10.57 11.311a.918.918 0 0 0-.922.904c0 .496.416.904.922.904a.918.918 0 0 0 .923-.904.918.918 0 0 0-.923-.904Zm-5.101 0a.91.91 0 0 0-.915.904.91.91 0 0 0 .915.904.912.912 0 0 0 .922-.904.912.912 0 0 0-.922-.904Zm4.342-3.423H7.474l1.829 1.503 1.836-1.503ZM9.49 0c4.196.632 5.2 3.36 5.445 4.832.032.208.049.392.049.544H9.025V.4c0-.12.049-.232.139-.304A.44.44 0 0 1 9.49.001Z"/></defs><g fill="none" fill-rule="evenodd"><mask id="b" fill="#fff"><use xlink:href="#a"/></mask><use xlink:href="#a" fill="#0C2340" fill-rule="nonzero"/></g></svg>