<svg xmlns="http://www.w3.org/2000/svg" xmlns:xlink="http://www.w3.org/1999/xlink" width="16" height="16"><defs><path id="a" d="M3.067 10.405c.735.543 1.279.946 1.633 1.21.029.022.059.064.059.096l.002.23c.001.192-.01.382-.107.564-.527.995-1.047 1.995-1.573 2.99a.911.911 0 0 1-.934.496.9.9 0 0 1-.772-.71.85.85 0 0 1 .113-.614c.498-.88.996-1.761 1.487-2.646a.724.724 0 0 0 .088-.323c.006-.278.008-.709.004-1.293Zm2.128-6.578c.381.049.764.088 1.146.134.421.051.719.27.916.63.288.528.579 1.054.88 1.575a.436.436 0 0 0 .23.18l.488.141.979.27c.457.128.706.523.592.934-.122.438-.541.668-1.01.542-.645-.172-1.286-.355-1.93-.532a.83.83 0 0 1-.535-.42c-.123-.228-.25-.453-.375-.68l-.04.005c-.033.19-.067.378-.097.567-.117.743-.23 1.487-.352 2.23-.024.149-.007.25.133.349.489.345.96.712 1.445 1.062.243.174.384.395.436.682.206 1.153.416 2.306.626 3.458.088.489-.213.921-.716 1.026a.878.878 0 0 1-1.04-.669c-.155-.748-.28-1.501-.419-2.253-.05-.277-.105-.553-.149-.83a.404.404 0 0 0-.18-.279c-.88-.651-1.757-1.31-2.637-1.962-.388-.287-.533-.658-.442-1.12.273-1.399.544-2.797.82-4.195.126-.642.558-.932 1.23-.845Zm-2.39.038c.094.009.19.01.282.028.243.048.387.25.342.484-.296 1.534-.592 3.068-.891 4.601-.061.313-.26.435-.578.368-.266-.055-.533-.11-.797-.174-.761-.183-1.176-.989-.821-1.667.583-1.116 1.196-2.217 1.802-3.322.138-.25.375-.338.661-.318ZM5.889 0c.913 0 1.654.744 1.654 1.661 0 .918-.74 1.662-1.654 1.662A1.658 1.658 0 0 1 4.234 1.66C4.234.744 4.975 0 5.89 0Z"/></defs><g fill="none" fill-rule="evenodd" transform="translate(2.667)"><mask id="b" fill="#fff"><use xlink:href="#a"/></mask><use xlink:href="#a" fill="#000" fill-rule="nonzero"/></g></svg>