<svg xmlns="http://www.w3.org/2000/svg" xmlns:xlink="http://www.w3.org/1999/xlink" width="16" height="16"><defs><path id="a" d="M14.67 13.34a1.33 1.33 0 1 1-1.152 1.994H2.482A1.33 1.33 0 1 1 2.48 14h11.042a1.33 1.33 0 0 1 1.15-.66Zm-9.53-1.773a.452.452 0 0 1 .443.464.46.46 0 0 1-.446.469.453.453 0 0 1-.446-.465c0-.257.202-.468.449-.468ZM9.07 2.31c.489 0 1.014.205 1.308.55l.08.108 1.017 1.675 1.17.282a.471.471 0 0 1 .355.48l-.01.085a.46.46 0 0 1-.44.377c-.033 0-.065 0-.097-.007l-1.323-.339-.173-.05a.604.604 0 0 1-.107-.095l-.046-.06-.557-.929-.397 2.179 1.95 4.754a.596.596 0 0 1-.218.698l-.088.048a.55.55 0 0 1-.678-.227l-.045-.089-1.304-3.073-.198 1.103-.275 1.896a.557.557 0 0 1-.451.478l-.086.007h-.084l-.013-.007a.57.57 0 0 1-.464-.559l.004-.094.671-4.612c-.247-.182-.582-.483-.614-.812v-.11l.263-2.097-1.381.887-.428 1.679-.851 5.065a.619.619 0 0 0-.442-.18c-.364 0-.658.315-.658.692 0 .134.037.26.1.367l.053.076-1.132-.14A.575.575 0 0 1 3 11.742l.008-.092.678-3.813a.568.568 0 0 1 .534-.492l.092.002 1.26.221.242-1.348a.473.473 0 0 1-.209-.535l.292-.953.134-.414.07-.197a.417.417 0 0 1 .04-.09l.911-.638.755-.516.402-.265.213-.132c.091-.055.16-.092.194-.103.14-.04.295-.067.455-.067ZM9.858 0c.518 0 .94.444.94.996 0 .544-.422.995-.94.995-.525 0-.946-.451-.946-.995 0-.552.421-.996.946-.996Z"/></defs><g fill="none" fill-rule="evenodd"><mask id="b" fill="#fff"><use xlink:href="#a"/></mask><use xlink:href="#a" fill="#231F20"/></g></svg>