<svg xmlns="http://www.w3.org/2000/svg" xmlns:xlink="http://www.w3.org/1999/xlink" width="16" height="16"><defs><path id="a" d="m1.522.35.068.06 12.67 12.67a.834.834 0 0 1-1.112 1.24l-.068-.06L.41 1.59A.834.834 0 0 1 1.523.35Zm2.05 5.814 4.939 4.94-.291 1.885c-.044.183-.205.264-.39.21-.06-.016-.081-.08-.125-.125L5.36 10.73.848 14.28a.307.307 0 0 1-.437-.015c-.123-.123-.156-.314-.037-.458l3.572-4.491L1.6 6.97c-.137-.137-.2-.298-.068-.429a.325.325 0 0 1 .153-.086l1.885-.292ZM9.02.316c.063.016.121.05.168.096l5.076 5.076a.344.344 0 0 1 .011.487.325.325 0 0 1-.164.088l-2.857.188-1.205 1.205-2.83-2.829 1.206-1.205.188-2.857A.327.327 0 0 1 9.02.316Z"/></defs><g fill="none" fill-rule="evenodd" transform="translate(.665 .665)"><mask id="b" fill="#fff"><use xlink:href="#a"/></mask><use xlink:href="#a" fill="#D8D8D8"/></g></svg>