<svg xmlns="http://www.w3.org/2000/svg" xmlns:xlink="http://www.w3.org/1999/xlink" width="16" height="16"><defs><path id="a" d="M8 0a8 8 0 1 1 0 16A8 8 0 0 1 8 0Zm0 4a.874.874 0 0 0-.554.198l-3.201 2.62-.079.075a.667.667 0 0 0-.015.862l.075.079c.24.212.606.225.863.015l2.244-1.836v5.32l.008.099A.667.667 0 0 0 8 12l.099-.007a.667.667 0 0 0 .568-.66v-5.32l2.244 1.836.09.062a.667.667 0 0 0 .754-1.094l-3.201-2.62-.099-.069A.874.874 0 0 0 8 4Z"/></defs><g fill="none" fill-rule="evenodd"><mask id="b" fill="#fff"><use xlink:href="#a"/></mask><use xlink:href="#a" fill="#024"/></g></svg>