<svg xmlns="http://www.w3.org/2000/svg" xmlns:xlink="http://www.w3.org/1999/xlink" width="16" height="16"><defs><path id="a" d="M12.419 8.87c1.646 0 2.984 1.383 2.984 3.083 0 1.404-1.104 2.547-2.465 2.547-1.133 0-2.055-.951-2.055-2.119 0-.981.772-1.778 1.723-1.778.216 0 .397.184.397.41 0 .226-.181.409-.397.409-.512 0-.93.43-.93.96 0 .715.565 1.298 1.262 1.298.922 0 1.673-.776 1.673-1.727 0-1.248-.983-2.263-2.192-2.263h-5.19a.406.406 0 0 1-.4-.41c0-.226.182-.41.4-.41ZM4.907 1.5c1.312 0 2.544.54 3.473 1.521.312.331.583.704.798 1.107l.094.175.19-.036c.222-.044.449-.068.675-.068.877 0 1.676.339 2.304.89l-.605.585a2.704 2.704 0 0 0-1.7-.614c-.464 0-.914.122-1.32.346-.524-1.785-2.11-3.044-3.91-3.044C2.65 2.362.814 4.304.814 6.691c0 2.369 1.812 4.297 4.047 4.325h5.143l-.451.863H4.899c-1.307-.002-2.538-.541-3.465-1.52A5.315 5.315 0 0 1 0 6.692C0 5.305.51 4 1.434 3.02 2.363 2.041 3.595 1.5 4.907 1.5Zm9.495 2.77c.881 0 1.598.741 1.598 1.65 0 1.078-.853 1.956-1.898 1.956H8.149a.403.403 0 0 1-.396-.41c0-.226.177-.408.396-.408h5.953c.609 0 1.103-.512 1.103-1.139a.817.817 0 0 0-.803-.828.403.403 0 0 1-.397-.41c0-.226.176-.41.397-.41Z"/></defs><g fill="none" fill-rule="evenodd"><mask id="b" fill="#fff"><use xlink:href="#a"/></mask><use xlink:href="#a" fill="#0C2340" fill-rule="nonzero"/></g></svg>