<svg xmlns="http://www.w3.org/2000/svg" xmlns:xlink="http://www.w3.org/1999/xlink" width="16" height="16"><defs><path id="a" d="m11.793 10.176 1.639 2.89a1.924 1.924 0 1 1-3.563 1.009c0-.368.104-.716.283-1.01l1.64-2.889ZM6.319 6.713c.213 0 .383.175.383.391v2.014l1.396-1.425a.411.411 0 0 1 .278-.114c.1 0 .2.041.27.114a.39.39 0 0 1-.002.549l-1.4 1.432h1.98c.213 0 .386.175.386.39a.386.386 0 0 1-.385.388H7.244l1.402 1.432a.397.397 0 0 1 .002.546.38.38 0 0 1-.55 0l-1.396-1.423v2.017c0 .214-.17.389-.383.389a.387.387 0 0 1-.385-.39v-2.016L4.537 12.43a.388.388 0 0 1-.28.117.386.386 0 0 1-.27-.118.405.405 0 0 1-.002-.546l1.41-1.432H3.413a.389.389 0 0 1 0-.778h1.98L3.99 8.242a.4.4 0 0 1-.003-.545.38.38 0 0 1 .272-.116c.106 0 .205.04.279.113l1.397 1.424V7.104c0-.216.171-.391.385-.391ZM5.703 0a5.68 5.68 0 0 1 4.035 1.668c.365.364.676.773.928 1.215l.111.193.217-.042c.258-.046.525-.071.785-.071A4.221 4.221 0 0 1 16 7.177a4.182 4.182 0 0 1-1.408 3.124l-.557-.763a3.252 3.252 0 0 0 1.016-2.361 3.275 3.275 0 0 0-4.807-2.891A4.775 4.775 0 0 0 5.703.947 4.757 4.757 0 0 0 .947 5.696c0 1.243.486 2.369 1.27 3.216l-.545.813A5.66 5.66 0 0 1 0 5.695a5.67 5.67 0 0 1 1.668-4.027A5.682 5.682 0 0 1 5.703 0Z"/></defs><g fill="none" fill-rule="evenodd"><mask id="b" fill="#fff"><use xlink:href="#a"/></mask><use xlink:href="#a" fill="#0C2340" fill-rule="nonzero"/></g></svg>