<?xml version="1.0" encoding="UTF-8"?>
<svg width="24px" height="24px" viewBox="0 0 24 24" version="1.1" xmlns="http://www.w3.org/2000/svg" xmlns:xlink="http://www.w3.org/1999/xlink">
    <title>Icons/24px/Travel &amp; Airport/Add pet</title>
    <defs>
        <path d="M19.3574929,16.0606097 C19.6166832,16.0606097 19.8278753,16.267417 19.8278753,16.5238581 L19.8278753,16.5238581 L19.8278753,17.9656006 L21.2918208,17.9656006 C21.5510112,17.9656006 21.7610034,18.1724079 21.7610034,18.4276673 C21.7610034,18.6829266 21.5510112,18.8909157 21.2918208,18.8909157 L21.2918208,18.8909157 L19.8278753,18.8909157 L19.8278753,20.3326582 C19.8278753,20.5879175 19.6166832,20.7959066 19.3574929,20.7959066 C19.0983025,20.7959066 18.8883103,20.5879175 18.8883103,20.3326582 L18.8883103,20.3326582 L18.8883103,18.8909157 L17.4231649,18.8909157 C17.1639745,18.8909157 16.9539823,18.6829266 16.9539823,18.4276673 C16.9539823,18.1724079 17.1639745,17.9656006 17.4231649,17.9656006 L17.4231649,17.9656006 L18.8883103,17.9656006 L18.8883103,16.5238581 C18.8883103,16.267417 19.0983025,16.0606097 19.3574929,16.0606097 Z M10.0216005,8.2668097 C11.2731539,8.2668097 12.2501831,9.3930007 12.7067261,10.6965003 C13.163269,12 14.1831665,13.7170691 15.6553907,13.7170691 C14.277842,14.7652868 13.3766755,16.3689299 13.3142779,18.1935614 L6.31493848,18.1935614 C4.71179817,18.1935614 3.38464759,17.0460762 3.38464759,15.6409681 C3.38464759,14.4475098 4.098621,13.6674353 5.2133795,13.2727288 C6.01494965,12.927656 6.85251847,12.127607 7.21610493,10.6965003 C7.57969139,9.26539365 8.7316485,8.2668097 10.0216005,8.2668097 Z M14.75,8.03108891 C15.7164983,6.35706473 17.469332,5.55964406 18.6650635,6.25 C19.8607951,6.94035594 20.0466253,8.85706473 19.080127,10.5310889 C18.1136287,12.2051131 16.3607951,13.0025338 15.1650635,12.3121778 C13.969332,11.6218219 13.7835017,9.7051131 14.75,8.03108891 Z M1.16506351,6.25 C2.36079507,5.55964406 4.11362871,6.35706473 5.08012702,8.03108891 C6.04662533,9.7051131 5.86079507,11.6218219 4.66506351,12.3121778 C3.46933195,13.0025338 1.71649831,12.2051131 0.75,10.5310889 C-0.216498312,8.85706473 -0.0306680492,6.94035594 1.16506351,6.25 Z M6.05568119,1.3524139 C7.38934645,0.995059376 8.87606608,2.21897532 9.37636242,4.08610668 C9.87665876,5.95323805 9.20107977,7.75654016 7.86741451,8.11389469 C6.53374925,8.47124922 5.04702963,7.24733327 4.54673329,5.38020191 C4.04643695,3.51307055 4.72201594,1.70976843 6.05568119,1.3524139 Z M10.4058667,3.88074039 C10.906163,2.01360903 12.3928826,0.789693084 13.7265479,1.14704761 C15.0602131,1.50440214 15.7357921,3.30770426 15.2354958,5.17483562 C14.7351994,7.04196698 13.2484798,8.26588293 11.9148146,7.9085284 C10.5811493,7.55117387 9.90557032,5.74787175 10.4058667,3.88074039 Z M19.3573729,22.0746849 C17.3162489,22.0746849 15.6543107,20.4391344 15.6543107,18.4277854 C15.6543107,16.4176182 17.3162489,14.7820677 19.3573729,14.7820677 C21.3996968,14.7820677 23.060435,16.4176182 23.060435,18.4277854 C23.060435,20.4391344 21.3996968,22.0746849 19.3573729,22.0746849 M19.3573729,13.8567527 C16.7942683,13.8567527 14.7159457,15.9035543 14.7159457,18.4277854 C14.7159457,20.9531983 16.7942683,23 19.3573729,23 C21.9204774,23 24,20.9531983 24,18.4277854 C24,15.9035543 21.9204774,13.8567527 19.3573729,13.8567527" id="path-1"></path>
    </defs>
    <g id="Icons/24px/Travel-&amp;-Airport/Add-pet" stroke="none" stroke-width="1" fill="none" fill-rule="evenodd">
        <mask id="mask-2" fill="white">
            <use xlink:href="#path-1"></use>
        </mask>
        <use id="Mask" fill="#0C2340" fill-rule="nonzero" xlink:href="#path-1"></use>
        <g id="Group" mask="url(#mask-2)" fill="#333333">
            <g id="Color/Grayscale/80%">
                <rect id="Rectangle" x="0" y="0" width="24" height="24"></rect>
            </g>
        </g>
    </g>
</svg>