<?xml version="1.0" encoding="UTF-8"?>
<svg width="24px" height="24px" viewBox="0 0 24 24" version="1.1" xmlns="http://www.w3.org/2000/svg" xmlns:xlink="http://www.w3.org/1999/xlink">
    <title>Icons/24px/Background shape/Alert</title>
    <defs>
        <path d="M13.9231774,2.60060667 C13.7323747,2.26676778 13.1418733,1.5 12.0031498,1.5 C10.8644263,1.5 10.3723263,2.08982137 10.072322,2.60060667 L0.290981076,19.2264914 C-0.588778575,20.8674316 0.662991444,22.5 2.22060887,22.5 L21.7736905,22.5 C22.712491,22.5 24.7509431,21.3843384 23.7045183,19.2264914 L13.9231774,2.60060667 Z M12.9859375,15.1328125 L11.0796875,15.1328125 L10.68125,7.5 L13.384375,7.5 L12.9859375,15.1328125 Z M10.65,17.8046875 C10.65,17.3671853 10.7671863,17.0364595 11.0015625,16.8125 C11.2359387,16.5885405 11.5770811,16.4765625 12.025,16.4765625 C12.4572938,16.4765625 12.7919259,16.5911447 13.0289062,16.8203125 C13.2658866,17.0494803 13.384375,17.377602 13.384375,17.8046875 C13.384375,18.2161479 13.2645845,18.5403634 13.025,18.7773438 C12.7854155,19.0143241 12.4520855,19.1328125 12.025,19.1328125 C11.5874978,19.1328125 11.2489595,19.0169282 11.009375,18.7851563 C10.7697905,18.5533843 10.65,18.2265646 10.65,17.8046875 Z" id="path-1"></path>
    </defs>
    <g id="Icons/24px/Background-shape/Alert" stroke="none" stroke-width="1" fill="none" fill-rule="evenodd">
        <mask id="mask-2" fill="white">
            <use xlink:href="#path-1"></use>
        </mask>
        <use id="Combined-Shape" fill="#0033A0" xlink:href="#path-1"></use>
        <g id="Group" mask="url(#mask-2)" fill="#333333">
            <g id="Color/Grayscale/80%">
                <rect id="Rectangle" x="0" y="0" width="24" height="24"></rect>
            </g>
        </g>
    </g>
</svg>