<?xml version="1.0" encoding="UTF-8"?>
<svg width="24px" height="20px" viewBox="0 0 24 20" version="1.1" xmlns="http://www.w3.org/2000/svg" xmlns:xlink="http://www.w3.org/1999/xlink">
    <title>Icons/24px/Interface/Arrow left</title>
    <defs>
        <path d="M9.68275,18.7283216 C10.08475,18.3493216 10.10375,17.7173216 9.72575,17.3143216 L3.31175,10.5003216 L22.99775,10.5003216 C23.54975,10.5003216 23.99775,10.0523216 23.99775,9.50032155 C23.99775,8.94732155 23.54975,8.50032155 22.99775,8.50032155 L3.31175,8.50032155 L9.72575,1.68532155 C10.10375,1.28332155 10.08475,0.650321551 9.68275,0.272321551 C9.28075,-0.106678449 8.64775,-0.0876784487 8.26875,0.314321551 L0.26875,8.81432155 C0.22575,8.86032155 0.20575,8.91632155 0.17275,8.96732155 C0.13875,9.02032155 0.09675,9.06632155 0.07275,9.12532155 C-0.02425,9.36532155 -0.02425,9.63432155 0.07275,9.87532155 C0.09675,9.93432155 0.13875,9.98032155 0.17275,10.0323216 C0.20575,10.0833216 0.22575,10.1393216 0.26875,10.1853216 L8.26875,18.6853216 C8.64775,19.0873216 9.28075,19.1063216 9.68275,18.7283216" id="path-1"></path>
    </defs>
    <g id="Icons" stroke="none" stroke-width="1" fill="none" fill-rule="evenodd">
        <g transform="translate(-507.000000, -708.000000)" id="Icons/24px/Interface/Arrow-left">
            <g transform="translate(507.001125, 708.498083)">
                <mask id="mask-2" fill="white">
                    <use xlink:href="#path-1"></use>
                </mask>
                <use id="Fill-1" fill="#D8D8D8" xlink:href="#path-1"></use>
                <g id="Color/Grayscale/80%" mask="url(#mask-2)" fill="#333333">
                    <g transform="translate(-0.001125, -2.498083)" id="Rectangle">
                        <rect x="0" y="0" width="24" height="24"></rect>
                    </g>
                </g>
            </g>
        </g>
    </g>
</svg>