<?xml version="1.0" encoding="UTF-8"?>
<svg width="20px" height="24px" viewBox="0 0 20 24" version="1.1" xmlns="http://www.w3.org/2000/svg" xmlns:xlink="http://www.w3.org/1999/xlink">
    <title>Icons/24px/Interface/Arrow up</title>
    <defs>
        <path d="M0.271461909,9.68275 C0.650461909,10.08475 1.28246191,10.10375 1.68546191,9.72575 L8.49946191,3.31175 L8.49946191,22.99775 C8.49946191,23.54975 8.94746191,23.99775 9.49946191,23.99775 C10.0524619,23.99775 10.4994619,23.54975 10.4994619,22.99775 L10.4994619,3.31175 L17.3144619,9.72575 C17.7164619,10.10375 18.3494619,10.08475 18.7274619,9.68275 C19.1064619,9.28075 19.0874619,8.64775 18.6854619,8.26875 L10.1854619,0.26875 C10.1394619,0.22575 10.0834619,0.20575 10.0324619,0.17275 C9.97946191,0.13875 9.93346191,0.09675 9.87446191,0.07275 C9.63446191,-0.02425 9.36546191,-0.02425 9.12446191,0.07275 C9.06546191,0.09675 9.01946191,0.13875 8.96746191,0.17275 C8.91646191,0.20575 8.86046191,0.22575 8.81446191,0.26875 L0.314461909,8.26875 C-0.0875380906,8.64775 -0.106538091,9.28075 0.271461909,9.68275" id="path-1"></path>
    </defs>
    <g id="Icons" stroke="none" stroke-width="1" fill="none" fill-rule="evenodd">
        <g transform="translate(-589.000000, -706.000000)" id="Icons/24px/Interface/Arrow-up">
            <g transform="translate(589.500108, 705.999100)">
                <mask id="mask-2" fill="white">
                    <use xlink:href="#path-1"></use>
                </mask>
                <use id="Fill-1" fill="#D8D8D8" xlink:href="#path-1"></use>
                <g id="Color/Grayscale/80%" mask="url(#mask-2)" fill="#333333">
                    <g transform="translate(-2.500108, 0.000900)" id="Rectangle">
                        <rect x="0" y="0" width="24" height="24"></rect>
                    </g>
                </g>
            </g>
        </g>
    </g>
</svg>