<?xml version="1.0" encoding="UTF-8"?>
<svg width="24px" height="24px" viewBox="0 0 24 24" version="1.1" xmlns="http://www.w3.org/2000/svg" xmlns:xlink="http://www.w3.org/1999/xlink">
    <title>Icons/24px/Digital/At</title>
    <defs>
        <path d="M11.650774,24 C14.0978328,24 16.3616099,23.5804878 18.4421053,22.7414634 L18.4421053,22.7414634 L18.4421053,20.3414634 C16.0643963,21.2195122 13.780805,21.6585366 11.5913313,21.6585366 C8.71826625,21.6585366 6.51393189,20.897561 4.97832817,19.3756098 C3.44272446,17.8536585 2.6749226,15.6780488 2.6749226,12.8487805 C2.6749226,10.7414634 3.08606811,8.8902439 3.90835913,7.29512195 C4.73065015,5.7 5.92198142,4.47317073 7.48235294,3.61463415 C9.04272446,2.75609756 10.8780186,2.32682927 12.9882353,2.32682927 C14.6427245,2.32682927 16.1089783,2.66829268 17.3869969,3.35121951 C18.6650155,4.03414634 19.650774,5.00731707 20.3442724,6.27073171 C21.0377709,7.53414634 21.3845201,9 21.3845201,10.6682927 C21.3845201,12.2097561 21.1541796,13.4780488 20.6934985,14.4731707 C20.2328173,15.4682927 19.6111455,15.9658537 18.828483,15.9658537 C17.7981424,15.9658537 17.2829721,15.1853659 17.2829721,13.6243902 L17.2829721,13.6243902 L17.2829721,13.2731707 L17.6099071,6.46829268 C16.8965944,6.23414634 16.0817337,6.05121951 15.1653251,5.9195122 C14.2489164,5.78780488 13.4142415,5.72195122 12.6613003,5.72195122 C10.5907121,5.72195122 8.94117647,6.34878049 7.7126935,7.60243902 C6.48421053,8.85609756 5.86996904,10.4878049 5.86996904,12.497561 C5.86996904,14.2439024 6.33312693,15.6292683 7.25944272,16.6536585 C8.18575851,17.6780488 9.45634675,18.1902439 11.0712074,18.1902439 C11.9628483,18.1902439 12.7653251,18 13.4786378,17.6195122 C14.1919505,17.2390244 14.7913313,16.6682927 15.2767802,15.9073171 L15.2767802,15.9073171 L15.4551084,15.9073171 C15.6532508,16.6097561 16.0396285,17.1658537 16.6142415,17.5756098 C17.1888545,17.9853659 17.8674923,18.1902439 18.6501548,18.1902439 C19.7102167,18.1902439 20.6439628,17.8682927 21.4513932,17.2243902 C22.2588235,16.5804878 22.8854489,15.6804878 23.3312693,14.5243902 C23.7770898,13.3682927 24,12.0926829 24,10.697561 C24,8.57073171 23.5368421,6.69512195 22.6105263,5.07073171 C21.6842105,3.44634146 20.3814241,2.19512195 18.7021672,1.31707317 C17.0229102,0.43902439 15.1083591,0 12.9585139,0 C10.4718266,0 8.24520124,0.526829268 6.27863777,1.5804878 C4.3120743,2.63414634 2.77399381,4.15365854 1.66439628,6.13902439 C0.554798762,8.12439024 0,10.3902439 0,12.9365854 C0,16.4195122 1.025387,19.1341463 3.07616099,21.0804878 C5.12693498,23.0268293 7.98513932,24 11.650774,24 Z M11.4427245,15.9658537 C9.62972136,15.9658537 8.72321981,14.8292683 8.72321981,12.5560976 C8.72321981,11.1317073 9.07739938,10.004878 9.78575851,9.17560976 C10.4941176,8.34634146 11.4823529,7.93170732 12.7504644,7.93170732 C13.4637771,7.93170732 14.1325077,8.01463415 14.7566563,8.1804878 L14.7566563,8.1804878 L14.5783282,11.6780488 C14.4,14.5365854 13.3547988,15.9658537 11.4427245,15.9658537 Z" id="path-1"></path>
    </defs>
    <g id="Icons/24px/Digital/At" stroke="none" stroke-width="1" fill="none" fill-rule="evenodd">
        <g id="icon">
            <mask id="mask-2" fill="white">
                <use xlink:href="#path-1"></use>
            </mask>
            <use id="Mask" fill="#333333" fill-rule="nonzero" xlink:href="#path-1"></use>
            <g id="Group" mask="url(#mask-2)" fill="#333333">
                <g id="Color/Grayscale/80%">
                    <rect id="Rectangle" x="0" y="0" width="24" height="24"></rect>
                </g>
            </g>
        </g>
    </g>
</svg>