<?xml version="1.0" encoding="UTF-8"?>
<svg width="24px" height="24px" viewBox="0 0 24 24" version="1.1" xmlns="http://www.w3.org/2000/svg" xmlns:xlink="http://www.w3.org/1999/xlink">
    <title>Icons/24px/Travel &amp; Airport/Baggage</title>
    <defs>
        <path d="M14.3012719,0 C14.6232114,0 14.8974563,0.264 14.8974563,0.6 L14.8974563,0.6 L14.8974563,3.048 L18.0691574,3.048 C18.8561208,3.048 19.5,3.696 19.5,4.5 L19.5,4.5 L19.5,20.592 C19.5,21.396 18.8561208,22.044 18.0691574,22.044 L18.0691574,22.044 L17.0794913,22.044 C17.1033386,22.14 17.1152623,22.224 17.1152623,22.32 C17.1152623,23.244 16.3759936,24 15.4578696,24 C14.5397456,24 13.8004769,23.244 13.8004769,22.32 C13.8004769,22.224 13.8124006,22.14 13.836248,22.044 L13.836248,22.044 L9.90143084,22.044 C9.92527822,22.14 9.93720191,22.224 9.93720191,22.32 C9.93720191,23.244 9.19793323,24 8.27980922,24 C7.36168521,24 6.62241653,23.244 6.62241653,22.32 C6.62241653,22.224 6.63434022,22.14 6.6581876,22.044 L6.6581876,22.044 L5.93084261,22.044 C5.14387917,22.044 4.5,21.396 4.5,20.592 L4.5,20.592 L4.5,4.5 C4.5,3.696 5.14387917,3.048 5.93084261,3.048 L5.93084261,3.048 L9.10254372,3.048 L9.10254372,0.6 C9.10254372,0.264 9.37678855,0 9.69872814,0 L9.69872814,0 Z M15.8155803,22.044 L15.100159,22.044 C15.0405405,22.128 14.9928458,22.212 14.9928458,22.32 C14.9928458,22.584 15.2074722,22.8 15.4578696,22.8 C15.7082671,22.8 15.9228935,22.584 15.9228935,22.32 C15.9228935,22.212 15.8751987,22.128 15.8155803,22.044 L15.8155803,22.044 Z M8.63751987,22.044 L7.92209857,22.044 C7.86248013,22.128 7.81478537,22.212 7.81478537,22.32 C7.81478537,22.584 8.02941176,22.8 8.27980922,22.8 C8.54213037,22.8 8.74483307,22.584 8.74483307,22.32 C8.74483307,22.212 8.69713831,22.128 8.63751987,22.044 L8.63751987,22.044 Z M15.3267091,5.304 C15.0047695,5.304 14.7305246,5.568 14.7305246,5.904 L14.7305246,5.904 L14.7305246,19.188 C14.7305246,19.524 15.0047695,19.788 15.3267091,19.788 C15.6605723,19.788 15.9228935,19.524 15.9228935,19.188 L15.9228935,19.188 L15.9228935,5.904 C15.9228935,5.568 15.6605723,5.304 15.3267091,5.304 Z M12,5.304 C11.6661367,5.304 11.4038156,5.568 11.4038156,5.904 L11.4038156,5.904 L11.4038156,19.188 C11.4038156,19.524 11.6661367,19.788 12,19.788 C12.3219396,19.788 12.5961844,19.524 12.5961844,19.188 L12.5961844,19.188 L12.5961844,5.904 C12.5961844,5.568 12.3219396,5.304 12,5.304 Z M8.67329094,5.304 C8.33942766,5.304 8.07710652,5.568 8.07710652,5.904 L8.07710652,5.904 L8.07710652,19.188 C8.07710652,19.524 8.33942766,19.788 8.67329094,19.788 C8.99523052,19.788 9.26947536,19.524 9.26947536,19.188 L9.26947536,19.188 L9.26947536,5.904 C9.26947536,5.568 8.99523052,5.304 8.67329094,5.304 Z M13.7050874,1.2 L10.2949126,1.2 L10.2949126,3.048 L13.7050874,3.048 L13.7050874,1.2 Z" id="path-1"></path>
    </defs>
    <g id="Icons/24px/Travel-&amp;-Airport/Baggage" stroke="none" stroke-width="1" fill="none" fill-rule="evenodd">
        <mask id="mask-2" fill="white">
            <use xlink:href="#path-1"></use>
        </mask>
        <use id="Mask" fill="#0C2340" fill-rule="nonzero" xlink:href="#path-1"></use>
        <g id="Group" mask="url(#mask-2)" fill="#333333">
            <g id="Color/Grayscale/80%">
                <rect id="Rectangle" x="0" y="0" width="24" height="24"></rect>
            </g>
        </g>
    </g>
</svg>