<?xml version="1.0" encoding="UTF-8"?>
<svg width="24px" height="24px" viewBox="0 0 24 24" version="1.1" xmlns="http://www.w3.org/2000/svg" xmlns:xlink="http://www.w3.org/1999/xlink">
    <title>Icons/24px/Digital/Bar chart</title>
    <defs>
        <path d="M19,1 C19.5,1 20,1.5 20,2 L20,2 L20,12.5 C20,13 19.5,13.5 19,13.5 C18.5,13.5 18,13 18,12.5 L18,12.5 L18,2 C18,1.5 18.5,1 19,1 Z M14.5,6 C15,6 15.5,6.5 15.5,7 L15.5,7 L15.5,12.5 C15.5,13 15,13.5 14.5,13.5 C14,13.5 13.5,13 13.5,12.5 L13.5,12.5 L13.5,7 C13.5,6.5 14,6 14.5,6 Z M10,3 C10.5,3 11,3.5 11,4 L11,4 L11,12.5 C11,13 10.5,13.5 10,13.5 C9.5,13.5 9,13 9,12.5 L9,12.5 L9,4 C9,3.5 9.5,3 10,3 Z M5.5,9 C6,9 6.5,9.5 6.5,10 L6.5,10 L6.5,12.5 C6.5,13 6,13.5 5.5,13.5 C5,13.5 4.5,13 4.5,12.5 L4.5,12.5 L4.5,10 C4.5,9.5 5,9 5.5,9 Z M23,16 L2,16 L2,1 C2,0.5 1.5,0 1,0 C0.5,0 0,0.5 0,1 L0,16 C0,17 1,18 2,18 L23,18 C23.5,18 24,17.5 24,17 C24,16.5 23.5,16 23,16 Z" id="path-1"></path>
    </defs>
    <g id="Icons/24px/Digital/Bar-chart" stroke="none" stroke-width="1" fill="none" fill-rule="evenodd">
        <g id="icon" transform="translate(0.000000, 3.000000)">
            <mask id="mask-2" fill="white">
                <use xlink:href="#path-1"></use>
            </mask>
            <use id="Mask" fill="#0C2340" fill-rule="nonzero" xlink:href="#path-1"></use>
            <g id="Group" mask="url(#mask-2)">
                <g transform="translate(0.381747, -3.000000)" id="Color/Grayscale/80%">
                    <rect id="Rectangle" fill="#333333" x="0" y="0" width="24" height="24"></rect>
                </g>
            </g>
        </g>
    </g>
</svg>