<?xml version="1.0" encoding="UTF-8"?>
<svg width="24px" height="24px" viewBox="0 0 24 24" version="1.1" xmlns="http://www.w3.org/2000/svg" xmlns:xlink="http://www.w3.org/1999/xlink">
    <title>Icons/24px/Travel &amp; Airport/Beverage</title>
    <defs>
        <path d="M18.5747024,22.7999678 C18.8933655,22.7999678 19.1648193,23.0639749 19.1648193,23.3999839 C19.1648193,23.7359929 18.8933655,24 18.5747024,24 L18.5747024,24 L2.06323156,24 C1.7327661,24 1.47311466,23.7359929 1.47311466,23.3999839 C1.47311466,23.0639749 1.7327661,22.7999678 2.06323156,22.7999678 L2.06323156,22.7999678 Z M11.2607982,0.150668858 C11.4537286,0.348235247 11.4499704,0.664795428 11.252404,0.857725812 C10.799198,1.30029702 10.6314738,2.00282758 10.7803044,3.01332068 C10.9765237,4.3455612 10.6511546,5.34530631 9.77349726,5.91860587 C9.54230774,6.06962249 9.23246845,6.00462951 9.08145183,5.77344 C8.93043521,5.54225048 8.99542819,5.23241119 9.2266177,5.08139457 C9.7368998,4.7480703 9.93525309,4.13860009 9.79097754,3.15903383 C9.59931336,1.85772013 9.84321021,0.836132671 10.5537413,0.14227463 C10.7513076,-0.0506557546 11.0678678,-0.0468975307 11.2607982,0.150668858 Z M14.3017805,1.19824651 C14.4684497,1.41841917 14.4250765,1.73201643 14.2049039,1.8986856 C13.7862585,2.21559721 13.6399498,2.69065221 13.7769032,3.41145793 C13.9866602,4.51543961 13.6303737,5.36406642 12.7259817,5.82201597 C12.4796225,5.94676282 12.1787817,5.84817658 12.0540348,5.60181742 C11.929288,5.35545827 12.0278742,5.05461741 12.2742334,4.92987055 C12.7577808,4.68502062 12.9252166,4.2862109 12.7944788,3.59811901 C12.5909375,2.52685117 12.8562498,1.665399 13.6013415,1.10136986 C13.8215141,0.934700696 14.1351114,0.97807385 14.3017805,1.19824651 Z M8.30178054,1.19824651 C8.4684497,1.41841917 8.42507655,1.73201643 8.20490389,1.8986856 C7.78625852,2.21559721 7.6399498,2.69065221 7.77690321,3.41145793 C7.98666023,4.51543961 7.63037372,5.36406642 6.7259817,5.82201597 C6.47962254,5.94676282 6.17878168,5.84817658 6.05403482,5.60181742 C5.92928797,5.35545827 6.02787421,5.05461741 6.27423337,4.92987055 C6.7577808,4.68502062 6.92521661,4.2862109 6.79447884,3.59811901 C6.59093747,2.52685117 6.85624984,1.665399 7.60134145,1.10136986 C7.82151411,0.934700696 8.13511137,0.97807385 8.30178054,1.19824651 Z M22.0093007,14.579627 C21.3129628,16.2716725 19.7668565,17.6637099 18.0555175,18.2877266 C19.7078448,15.6236551 20.097322,12.6475752 20.1445313,10.6795223 C20.8408693,10.8115259 21.4073815,11.1235342 21.7968587,11.6035471 C21.8204633,11.6275478 21.844068,11.6395481 21.8676727,11.6635487 C22.1745335,12.08356 22.3397662,12.5755732 22.3397662,13.1035874 C22.3397662,13.5475993 22.2335452,14.0276122 22.0093007,14.579627 M22.646627,10.7515242 C21.9772266,10.1473828 21.1595324,9.62349396 20.132729,9.46748977 C20.0737173,8.48346335 19.2829607,7.71544272 18.3033666,7.71544272 L2.33480336,7.71544272 C1.34340697,7.71544272 0.540847987,8.49546367 0.493638635,9.49149042 C0.399219931,11.8915549 0.670673705,17.8437147 5.40341123,21.3958101 C5.49782993,21.4798123 15.1285377,21.4798123 15.2347588,21.3958101 C15.8956897,20.9037969 16.4622019,20.351782 16.9579001,19.7757666 C19.5308098,19.4637582 22.0801148,17.5077057 23.0951158,15.0356393 C23.3783719,14.3396206 23.52,13.7036035 23.52,13.1035874 C23.52,12.2635649 23.3274609,11.52 22.646627,10.7515242 Z" id="path-1"></path>
    </defs>
    <g id="Icons/24px/Travel-&amp;-Airport/Beverage" stroke="none" stroke-width="1" fill="none" fill-rule="evenodd">
        <mask id="mask-2" fill="white">
            <use xlink:href="#path-1"></use>
        </mask>
        <use id="Mask" fill="#0C2340" fill-rule="nonzero" xlink:href="#path-1"></use>
        <g id="Group" mask="url(#mask-2)" fill="#333333">
            <g id="Color/Grayscale/80%">
                <rect id="Rectangle" x="0" y="0" width="24" height="24"></rect>
            </g>
        </g>
    </g>
</svg>