<?xml version="1.0" encoding="UTF-8"?>
<svg width="24px" height="24px" viewBox="0 0 24 24" version="1.1" xmlns="http://www.w3.org/2000/svg" xmlns:xlink="http://www.w3.org/1999/xlink">
    <title>Icons/24px/Digital/Calendar</title>
    <defs>
        <path d="M23,8.4097559 L23,23.2704073 C23,23.6796032 22.673858,24 22.2789296,24 L22.2789296,24 L1.73198133,24 C1.32637923,24 1.00023719,23.6796032 1.00023719,23.2704073 L1.00023719,23.2704073 L1.00023719,8.4097559 L23,8.4097559 Z M7.92868001,16.5108749 L5.80341991,16.5108749 C5.53657643,16.5108749 5.31954372,16.7304727 5.31954372,17.00047 L5.31954372,17.00047 L5.31954372,19.1508485 C5.31954372,19.4100459 5.53657643,19.6308437 5.80341991,19.6308437 L5.80341991,19.6308437 L7.92868001,19.6308437 C8.18603573,19.6308437 8.40306843,19.4100459 8.40306843,19.1508485 L8.40306843,19.1508485 L8.40306843,17.00047 C8.40306843,16.7304727 8.18603573,16.5108749 7.92868001,16.5108749 L7.92868001,16.5108749 Z M13.0580048,16.5108749 L10.9434184,16.5108749 C10.6765749,16.5108749 10.4583562,16.7304727 10.4583562,17.00047 L10.4583562,17.00047 L10.4583562,19.1508485 C10.4583562,19.4100459 10.6765749,19.6308437 10.9434184,19.6308437 L10.9434184,19.6308437 L13.0580048,19.6308437 C13.3248482,19.6308437 13.541881,19.4100459 13.541881,19.1508485 L13.541881,19.1508485 L13.541881,17.00047 C13.541881,16.7304727 13.3248482,16.5108749 13.0580048,16.5108749 L13.0580048,16.5108749 Z M18.1968173,16.5108749 L16.0822309,16.5108749 C15.8153874,16.5108749 15.5983547,16.7304727 15.5983547,17.00047 L15.5983547,17.00047 L15.5983547,19.1508485 C15.5983547,19.4100459 15.8153874,19.6308437 16.0822309,19.6308437 L16.0822309,19.6308437 L18.1968173,19.6308437 C18.4636608,19.6308437 18.6818794,19.4100459 18.6818794,19.1508485 L18.6818794,19.1508485 L18.6818794,17.00047 C18.6818794,16.7304727 18.4636608,16.5108749 18.1968173,16.5108749 L18.1968173,16.5108749 Z M7.92868001,11.3209268 L5.80341991,11.3209268 C5.53657643,11.3209268 5.31954372,11.5297247 5.31954372,11.800922 L5.31954372,11.800922 L5.31954372,13.9501005 C5.31954372,14.2200978 5.53657643,14.4300957 5.80341991,14.4300957 L5.80341991,14.4300957 L7.92868001,14.4300957 C8.18603573,14.4300957 8.40306843,14.2200978 8.40306843,13.9501005 L8.40306843,13.9501005 L8.40306843,11.800922 C8.40306843,11.5297247 8.18603573,11.3209268 7.92868001,11.3209268 L7.92868001,11.3209268 Z M13.0580048,11.3209268 L10.9434184,11.3209268 C10.6765749,11.3209268 10.4583562,11.5297247 10.4583562,11.800922 L10.4583562,11.800922 L10.4583562,13.9501005 C10.4583562,14.2200978 10.6765749,14.4300957 10.9434184,14.4300957 L10.9434184,14.4300957 L13.0580048,14.4300957 C13.3248482,14.4300957 13.541881,14.2200978 13.541881,13.9501005 L13.541881,13.9501005 L13.541881,11.800922 C13.541881,11.5297247 13.3248482,11.3209268 13.0580048,11.3209268 L13.0580048,11.3209268 Z M18.1968173,11.3209268 L16.0822309,11.3209268 C15.8153874,11.3209268 15.5983547,11.5297247 15.5983547,11.800922 L15.5983547,11.800922 L15.5983547,13.9501005 C15.5983547,14.2200978 15.8153874,14.4300957 16.0822309,14.4300957 L16.0822309,14.4300957 L18.1968173,14.4300957 C18.4636608,14.4300957 18.6818794,14.2200978 18.6818794,13.9501005 L18.6818794,13.9501005 L18.6818794,11.800922 C18.6818794,11.5297247 18.4636608,11.3209268 18.1968173,11.3209268 L18.1968173,11.3209268 Z M5.13192311,1.7404626 L5.13192311,4.70083299 C5.13192311,5.66082339 5.90280428,6.4504155 6.86106888,6.4504155 C7.81933348,6.4504155 8.59021466,5.66082339 8.59021466,4.70083299 L8.59021466,4.70083299 L8.59021466,1.7404626 L15.4095481,1.7404626 L15.4095481,4.70083299 C15.4095481,5.66082339 16.1804293,6.4504155 17.1398799,6.4504155 C18.0981445,6.4504155 18.8690257,5.66082339 18.8690257,4.70083299 L18.8690257,4.70083299 L18.8690257,1.7404626 L22.2786924,1.7404626 C22.6736208,1.7404626 22.9997628,2.0704593 22.9997628,2.48085519 L22.9997628,2.48085519 L22.9997628,6.9400106 L1,6.9400106 L1,2.48085519 C1,2.0704593 1.32614204,1.7404626 1.73174413,1.7404626 L1.73174413,1.7404626 L5.13192311,1.7404626 Z M16.3982922,0.7499925 C16.3982922,-0.260986328 17.880756,-0.260986328 17.880756,0.7499925 L17.880756,0.7499925 L17.880756,4.4603554 C17.880756,4.87075129 17.5451262,5.2103479 17.1395241,5.2103479 C16.733922,5.2103479 16.3982922,4.87075129 16.3982922,4.4603554 L16.3982922,4.4603554 Z M6.12007418,0.7499925 C6.12007418,-0.238830566 7.60253798,-0.238830566 7.60253798,0.7499925 L7.60253798,0.7499925 L7.60253798,4.4603554 C7.60253798,4.87075129 7.2657222,5.2103479 6.86130608,5.2103479 C6.45570398,5.2103479 6.12007418,4.87075129 6.12007418,4.4603554 L6.12007418,4.4603554 Z" id="path-1"></path>
    </defs>
    <g id="Icons/24px/Digital/Calendar" stroke="none" stroke-width="1" fill="none" fill-rule="evenodd">
        <mask id="mask-2" fill="white">
            <use xlink:href="#path-1"></use>
        </mask>
        <use id="Mask" fill="#0C2340" fill-rule="nonzero" xlink:href="#path-1"></use>
        <g id="Group" mask="url(#mask-2)" fill="#333333">
            <g id="Color/Grayscale/80%">
                <rect id="Rectangle" x="0" y="0" width="24" height="24"></rect>
            </g>
        </g>
    </g>
</svg>