<?xml version="1.0" encoding="UTF-8"?>
<svg width="24px" height="24px" viewBox="0 0 24 24" version="1.1" xmlns="http://www.w3.org/2000/svg" xmlns:xlink="http://www.w3.org/1999/xlink">
    <title>Icons/24px/Background shape/Cancel</title>
    <defs>
        <path d="M18.0894545,18.1134545 C17.7839909,18.4189182 17.2887364,18.4189182 16.9832727,18.1134545 L12,13.1301818 L12,13.1301818 L7.01672727,18.1134545 C6.7112636,18.4189182 6.21600913,18.4189182 5.91054545,18.1134545 C5.60508178,17.8079909 5.60508178,17.3127364 5.91054545,17.0072727 L10.9178182,12 L10.9178182,12 L5.91054545,6.99272727 C5.60508178,6.6872636 5.60508178,6.19200913 5.91054545,5.88654545 C6.21600913,5.58108178 6.7112636,5.58108178 7.01672727,5.88654545 L12,10.8698182 L12,10.8698182 L16.9832727,5.88654545 C17.2887364,5.58108178 17.7839909,5.58108178 18.0894545,5.88654545 C18.3949182,6.19200913 18.3949182,6.6872636 18.0894545,6.99272727 L13.0821818,12 L13.0821818,12 L18.0894545,17.0072727 C18.3949182,17.3127364 18.3949182,17.8079909 18.0894545,18.1134545 Z M12,0 C5.37272727,0 0,5.37272727 0,12 C0,18.6272727 5.37272727,24 12,24 C18.6272727,24 24,18.6272727 24,12 C24,5.37272727 18.6272727,0 12,0 L12,0 Z" id="path-1"></path>
    </defs>
    <g id="Icons/24px/Background-shape/Cancel" stroke="none" stroke-width="1" fill="none" fill-rule="evenodd">
        <mask id="mask-2" fill="white">
            <use xlink:href="#path-1"></use>
        </mask>
        <use id="Fill-1" fill="#000000" xlink:href="#path-1"></use>
        <g id="Group" mask="url(#mask-2)" fill="#333333">
            <g id="Color/Grayscale/80%">
                <rect id="Rectangle" x="0" y="0" width="24" height="24"></rect>
            </g>
        </g>
    </g>
</svg>