<?xml version="1.0" encoding="UTF-8"?>
<svg width="24px" height="24px" viewBox="0 0 24 24" version="1.1" xmlns="http://www.w3.org/2000/svg" xmlns:xlink="http://www.w3.org/1999/xlink">
    <title>Icons/24px/Interface/Caps lock on</title>
    <defs>
        <path d="M16.8333333,20 C17.4776655,20 18,20.4477153 18,21 L18,23 C18,23.5522847 17.4776655,24 16.8333333,24 L5.16666667,24 C4.52233446,24 4,23.5522847 4,23 L4,21 C4,20.4477153 4.52233446,20 5.16666667,20 L16.8333333,20 Z M11.6368817,0.219011961 L11.7347753,0.305892739 L21.6956461,10.3171265 C21.8905206,10.5129863 22,10.7786292 22,11.0556169 C22,11.591214 21.5,12 21,12 L20.8788156,12.0070263 L18,12 L18,18 C18,18.6075132 17.6075132,19 17,19 L5,19 C4.39248678,19 4,18.6075132 4,18 L4,12 L1,12 L1,12 C0.770338163,12 0.587644172,12.0235883 0.407307984,11.8847729 L0.304353902,11.7941073 C-0.0702355158,11.4176239 -0.0990500864,10.8252173 0.21791019,10.415515 L0.304353902,10.3171265 L10.2652247,0.305892739 C10.6398141,-0.0705906321 11.2292405,-0.0995508914 11.6368817,0.219011961 Z M12.0672328,8 L9.92144374,8 L7,16 L8.89101203,16 L9.49115357,14.1035422 L12.5088464,14.1035422 L13.108988,16 L15,16 L12.0672328,8 Z M11.0028309,9.23705722 C11.0330267,9.36784741 11.0830385,9.54586739 11.1528662,9.77111717 C11.222694,9.99636694 11.5350318,10.9682107 12.0898797,12.6866485 L9.93276716,12.6866485 C10.5215853,10.8519528 10.8782732,9.70208901 11.0028309,9.23705722 Z" id="path-1"></path>
    </defs>
    <g id="Icons/24px/Interface/Caps-lock-on" stroke="none" stroke-width="1" fill="none" fill-rule="evenodd">
        <g id="Icon" transform="translate(1.000000, 0.000000)">
            <mask id="mask-2" fill="white">
                <use xlink:href="#path-1"></use>
            </mask>
            <use id="Mask" fill="#333333" xlink:href="#path-1"></use>
            <g id="Group" mask="url(#mask-2)">
                <g transform="translate(-1.000000, 0.000000)" id="Color/Grayscale/80%">
                    <rect id="Rectangle" fill="#333333" x="0" y="0" width="24" height="24"></rect>
                </g>
            </g>
        </g>
    </g>
</svg>