<?xml version="1.0" encoding="UTF-8"?>
<svg width="24px" height="24px" viewBox="0 0 24 24" version="1.1" xmlns="http://www.w3.org/2000/svg" xmlns:xlink="http://www.w3.org/1999/xlink">
    <title>Icons/24px/Interface/Caps lock off</title>
    <defs>
        <path d="M16.8333333,20 C17.4776655,20 18,20.4477153 18,21 L18,23 C18,23.5522847 17.4776655,24 16.8333333,24 L5.16666667,24 C4.52233446,24 4,23.5522847 4,23 L4,21 C4,20.4477153 4.52233446,20 5.16666667,20 L16.8333333,20 Z M16.5,21.5 L5.5,21.5 L5.5,22.5 L16.5,22.5 L16.5,21.5 Z M11.0613412,0.00181001621 C11.2656208,0.0138767909 11.4670312,0.0862774392 11.6368817,0.219011961 L11.7347753,0.305892739 L21.6956461,10.3171265 C21.8905206,10.5129863 22,10.7786292 22,11.0556169 C22,11.552957 21.5688776,11.940955 21.1069606,11.9938458 L20.8788156,12.0070263 L18,12 L18,18 C18,18.6075132 17.6075132,19 17,19 L5,19 C4.39248678,19 4,18.6075132 4,18 L4,12 L0.784341888,12.0009742 C0.648804147,11.9976807 0.527532109,11.9773165 0.407307984,11.8847729 L0.304353902,11.7941073 C-0.0702355158,11.4176239 -0.0990500864,10.8252173 0.21791019,10.415515 L0.304353902,10.3171265 L10.2652247,0.305892739 C10.4525194,0.117651053 10.6935233,0.0162901459 10.9386588,0.00181001621 L11.0613412,0.00181001621 Z M11.002,1.691 L2.234,10.5 L5.5,10.5 L5.5,17.5 L16.5,17.5 L16.5,10.4963345 L19.768,10.506 L11.002,1.691 Z M12.0672328,8 L15,16 L13.108988,16 L12.5088464,14.1035422 L9.49115357,14.1035422 L8.89101203,16 L7,16 L9.92144374,8 L12.0672328,8 Z M11.0629866,9.46866485 L11.0028309,9.23705722 L11.0028309,9.23705722 L10.8452989,9.78310963 L10.8452989,9.78310963 L10.4442085,11.0802301 L10.4442085,11.0802301 L9.93276716,12.6866485 L12.0898797,12.6866485 L11.1528662,9.77111717 L11.1528662,9.77111717 L11.0629866,9.46866485 L11.0629866,9.46866485 Z" id="path-1"></path>
    </defs>
    <g id="Icons/24px/Interface/Caps-lock-off" stroke="none" stroke-width="1" fill="none" fill-rule="evenodd">
        <g id="Icon" transform="translate(1.000000, 0.000000)">
            <mask id="mask-2" fill="white">
                <use xlink:href="#path-1"></use>
            </mask>
            <use id="Mask" fill="#333333" fill-rule="nonzero" xlink:href="#path-1"></use>
            <g id="Group" mask="url(#mask-2)">
                <g transform="translate(-1.000000, 0.000000)" id="Color/Grayscale/80%">
                    <rect id="Rectangle" fill="#333333" x="0" y="0" width="24" height="24"></rect>
                </g>
            </g>
        </g>
    </g>
</svg>