<?xml version="1.0" encoding="UTF-8"?>
<svg width="24px" height="24px" viewBox="0 0 24 24" version="1.1" xmlns="http://www.w3.org/2000/svg" xmlns:xlink="http://www.w3.org/1999/xlink">
    <title>Icons/24px/Travel &amp; Airport/UNMR/Child</title>
    <defs>
        <path d="M2.67928525,4.99531178 L6.365,8.68040555 L10.923,8.68040555 L14.6098185,4.99531178 C15.0751241,4.53000625 15.8102598,4.49898588 16.3115427,4.90225068 L16.4151976,4.99531178 C16.8805031,5.46061732 16.9115235,6.19575307 16.5082587,6.69703597 L16.4151976,6.8006908 L12.219,10.9964055 L12.21902,22.7234043 C12.21902,23.4284486 11.6474686,24 10.9424242,24 C10.2814452,24 9.73779387,23.4976599 9.67241941,22.8539288 L9.66582849,22.7234043 L9.665,17.3614055 L7.623,17.3614055 L7.6232753,22.7234043 C7.6232753,23.3843833 7.12093522,23.9280346 6.47720406,23.9934091 L6.34667956,24 C5.68570047,24 5.14204919,23.4976599 5.07667473,22.8539288 L5.07008381,22.7234043 L5.07,10.9974055 L0.873906237,6.8006908 C0.375364588,6.30214915 0.375364588,5.49385343 0.873906237,4.99531178 C1.37244789,4.49677014 2.1807436,4.49677014 2.67928525,4.99531178 Z M8.6445519,0 C10.6186761,0 12.21902,1.60034387 12.21902,3.57446809 C12.21902,5.5485923 10.6186761,7.14893617 8.6445519,7.14893617 C6.67042769,7.14893617 5.07008381,5.5485923 5.07008381,3.57446809 C5.07008381,1.60034387 6.67042769,0 8.6445519,0 Z" id="path-1"></path>
    </defs>
    <g id="Icons/24px/Travel-&amp;-Airport/UNMR/Child" stroke="none" stroke-width="1" fill="none" fill-rule="evenodd">
        <g id="UMNR" transform="translate(3.000000, 0.000000)">
            <mask id="mask-2" fill="white">
                <use xlink:href="#path-1"></use>
            </mask>
            <use id="Mask" fill="#0C2340" fill-rule="nonzero" xlink:href="#path-1"></use>
            <g id="Group" mask="url(#mask-2)">
                <g transform="translate(-3.000000, 0.000000)" id="Color/Grayscale/80%">
                    <rect id="Rectangle" fill="#333333" x="0" y="0" width="24" height="24"></rect>
                </g>
            </g>
        </g>
    </g>
</svg>