<?xml version="1.0" encoding="UTF-8"?>
<svg width="24px" height="24px" viewBox="0 0 24 24" version="1.1" xmlns="http://www.w3.org/2000/svg" xmlns:xlink="http://www.w3.org/1999/xlink">
    <title>Icons/24px/Interface/Close</title>
    <defs>
        <path d="M12,10.3837559 L22.0490208,0.334735107 C22.4953343,-0.111578369 23.2189514,-0.111578369 23.6652649,0.334735107 C24.1115784,0.781048584 24.1115784,1.5046657 23.6652649,1.95097918 L13.6162441,12 L23.6652649,22.0490208 C24.1115784,22.4953343 24.1115784,23.2189514 23.6652649,23.6652649 C23.2189514,24.1115784 22.4953343,24.1115784 22.0490208,23.6652649 L12,13.6162441 L1.95097918,23.6652649 C1.5046657,24.1115784 0.781048584,24.1115784 0.334735107,23.6652649 C-0.111578369,23.2189514 -0.111578369,22.4953343 0.334735107,22.0490208 L10.3837559,12 L0.334735107,1.95097918 C-0.111578369,1.5046657 -0.111578369,0.781048584 0.334735107,0.334735107 C0.781048584,-0.111578369 1.5046657,-0.111578369 1.95097918,0.334735107 L12,10.3837559 Z" id="path-1"></path>
    </defs>
    <g id="Icons/24px/Interface/Close" stroke="none" stroke-width="1" fill="none" fill-rule="evenodd">
        <mask id="mask-2" fill="white">
            <use xlink:href="#path-1"></use>
        </mask>
        <use id="Mask" fill="#0C2340" fill-rule="nonzero" xlink:href="#path-1"></use>
        <g id="Group" mask="url(#mask-2)" fill="#333333">
            <g id="Color/Grayscale/80%">
                <rect id="Rectangle" x="0" y="0" width="24" height="24"></rect>
            </g>
        </g>
    </g>
</svg>