<?xml version="1.0" encoding="UTF-8"?>
<svg width="24px" height="24px" viewBox="0 0 24 24" version="1.1" xmlns="http://www.w3.org/2000/svg" xmlns:xlink="http://www.w3.org/1999/xlink">
    <title>Icons/24px/Travel &amp; Airport/Closet</title>
    <defs>
        <path d="M12,12 L3,18.3 L21,18.3 L12,12 Z M12.5881717,10.1912639 L23.5881717,18.1912639 C24.3714165,18.7608965 23.9684801,20 23,20 L1,20 C0.0315199235,20 -0.371416482,18.7608965 0.411828302,18.1912639 L11.4118283,10.1912639 C11.7624788,9.93624536 12.2375212,9.93624536 12.5881717,10.1912639 Z M10.9999327,8.5 C10.9999327,7.94771525 11.4476479,7.5 11.9999327,7.5 C12.5522174,7.5 12.9999327,7.94771525 12.9999327,8.5 L12.9999327,10.3840332 C12.9999327,10.936318 12.5522174,11.3840332 11.9999327,11.3840332 C11.4476479,11.3840332 10.9999327,10.936318 10.9999327,10.3840332 L10.9999327,8.5 Z M12,9.5 C11.4477153,9.5 11,9.05228475 11,8.5 C11,7.94771525 11.4477153,7.5 12,7.5 C12.8284271,7.5 13.5,6.82842712 13.5,6 C13.5,5.17157288 12.8284271,4.5 12,4.5 C11.1715729,4.5 10.5,5.17157288 10.5,6 C10.5,6.55228475 10.0522847,7 9.5,7 C8.94771525,7 8.5,6.55228475 8.5,6 C8.5,4.06700338 10.0670034,2.5 12,2.5 C13.9329966,2.5 15.5,4.06700338 15.5,6 C15.5,7.93299662 13.9329966,9.5 12,9.5 Z" id="path-1"></path>
    </defs>
    <g id="Icons/24px/Travel-&amp;-Airport/Closet" stroke="none" stroke-width="1" fill="none" fill-rule="evenodd">
        <mask id="mask-2" fill="white">
            <use xlink:href="#path-1"></use>
        </mask>
        <use id="Mask" fill="#0C2340" fill-rule="nonzero" xlink:href="#path-1"></use>
        <g id="Group" mask="url(#mask-2)" fill="#333333">
            <g id="Color/Grayscale/80%">
                <rect id="Rectangle" x="0" y="0" width="24" height="24"></rect>
            </g>
        </g>
    </g>
</svg>