<?xml version="1.0" encoding="UTF-8"?>
<svg width="24px" height="24px" viewBox="0 0 24 24" version="1.1" xmlns="http://www.w3.org/2000/svg" xmlns:xlink="http://www.w3.org/1999/xlink">
    <title>Icons/24px/Weather/Cloudy</title>
    <defs>
        <path d="M17.4165547,22.4954988 C20.0850631,22.4954988 22.2570699,20.159997 22.2570699,17.2904948 C22.2570699,14.4194926 20.0850631,12.0824907 17.4165547,12.0824907 C16.6140522,12.0824907 15.8430498,12.2909909 15.1500476,12.6854912 C14.2470448,9.56548879 11.5230362,7.36648708 8.43152649,7.36648708 C4.55401431,7.36648708 1.40400441,10.7609897 1.40400441,14.929493 C1.40400441,19.1009962 4.55401431,22.4954988 8.43152649,22.4954988 C10.3305325,22.4954988 12.1140381,21.6839982 13.4355422,20.2484971 C14.329545,21.6509982 15.8025497,22.4954988 17.4165547,22.4954988 Z M8.43152649,5.8574859 C10.6845336,5.8574859 12.8040402,6.80398664 14.3985452,8.51548797 C14.7565464,8.90248827 15.267548,9.64998885 15.9315501,10.7579897 C16.6635524,10.6369896 17.1585539,10.5764896 17.4165547,10.5764896 C20.8530655,10.5764896 23.6535743,13.5884919 23.6535743,17.2904948 C23.6535743,20.9894977 20.8530655,24 17.4165547,24 C16.0065503,24 14.6715461,23.5064996 13.5630426,22.5644989 L13.3050418,22.3439987 L13.0275409,22.5389989 C11.6640367,23.4944996 10.0770317,24 8.43152649,24 C6.18301943,24 4.06501277,23.0579993 2.47050776,21.3449979 C0.877502757,19.6289966 1.11910481e-13,17.3519948 1.11910481e-13,14.929493 C1.11910481e-13,12.5084911 0.877502757,10.2269893 2.47050776,8.51548797 C4.06201276,6.80398664 6.18301943,5.8574859 8.43152649,5.8574859 Z M5.14246616,4.20193462 C5.71846797,1.57543258 8.03147524,-0.254568844 10.5904833,0.0289313766 C11.7334869,0.154931475 12.7669901,0.675431879 13.5904927,1.53493255 L13.5904927,1.53493255 L13.7869933,1.7359327 L14.0254941,1.6009326 C15.1999978,0.954432096 16.5200019,0.685931887 17.8520061,0.834432002 C19.6730118,1.03693216 21.309517,1.9864329 22.4630206,3.51493408 C23.6210242,5.04193527 24.1505259,6.96043676 23.9630253,8.91943828 C23.874525,9.87943903 23.6030242,10.7884397 23.1950229,11.6134404 C23.1710228,11.5759403 23.1500227,11.5384403 23.1290227,11.4994403 C22.9655222,11.2444401 22.7750216,10.9834399 22.5425208,10.7044397 C22.4990207,10.6519396 22.4495205,10.5964396 22.4030204,10.5394395 C22.6220211,9.99943912 22.7750216,9.41443867 22.8320217,8.79493819 C23.1530228,5.42593557 20.8715156,2.39743322 17.7380057,2.05093295 C16.2020009,1.88143282 14.6944962,2.3779332 13.5169925,3.41743401 C12.9034905,2.20543307 11.778487,1.39093243 10.4734829,1.24693232 C8.73647745,1.05493217 7.14497245,2.124433 6.47597035,3.75793427 C6.37697004,3.78493429 6.2704697,3.80743431 6.17146939,3.83743434 C5.81446827,3.93793441 5.4739672,4.06243451 5.14246616,4.20193462 Z" id="path-1"></path>
    </defs>
    <g id="Icons/24px/Weather/Cloudy" stroke="none" stroke-width="1" fill="none" fill-rule="evenodd">
        <mask id="mask-2" fill="white">
            <use xlink:href="#path-1"></use>
        </mask>
        <use id="Mask" fill="#0C2340" fill-rule="nonzero" xlink:href="#path-1"></use>
        <g id="Group" mask="url(#mask-2)">
            <g transform="translate(0.000000, 0.000000)" id="Color/Grayscale/80%">
                <rect id="Rectangle" fill="#333333" x="0" y="0" width="24" height="24"></rect>
            </g>
        </g>
    </g>
</svg>