<?xml version="1.0" encoding="UTF-8"?>
<svg width="24px" height="24px" viewBox="0 0 24 24" version="1.1" xmlns="http://www.w3.org/2000/svg" xmlns:xlink="http://www.w3.org/1999/xlink">
    <title>Icons/24px/Travel &amp; Airport/Comp upgrade</title>
    <defs>
        <path d="M5.93481892,3.56112515 L6.04071747,3.59197745 L10.5574481,5.2658024 C11.0592608,5.4492871 11.0592608,5.4492871 10.9217006,6.0221233 C10.7517161,6.62965976 9.36755673,11.7503242 8.3476498,13.1513777 C7.49585941,14.3187633 6.29231751,15.1586471 5.07126761,15.9343307 L4.76583382,16.1270665 L3.11455594,20.7765802 C3.11455594,20.7889789 3.10241419,20.7889789 3.10241419,20.8013776 C4.03732887,21.247731 4.64441633,21.83047 4.51085709,22.1900324 C4.43800659,22.3884117 4.13446287,22.5 3.70950165,22.5 C3.24811518,22.5 2.62888598,22.376013 1.98537327,22.1404376 C0.734773117,21.6692869 -0.139432818,20.9501621 0.01840992,20.5162075 C0.0912604146,20.3054295 0.382662393,20.2062399 0.819765361,20.2062399 C1.08283659,20.2062399 1.40493021,20.2406807 1.75794033,20.3239128 L1.97323153,20.3798217 L1.97323153,20.3550243 L3.6245094,15.6931119 C3.13883944,14.1804701 2.66531122,12.6430309 2.76244522,11.0683955 C2.87172096,9.33257709 5.02081055,4.4970828 5.27578728,3.92674244 C5.49318726,3.47134251 5.50871583,3.43881394 5.93481892,3.56112515 Z M18.0651811,3.56112515 C18.4912842,3.43881394 18.5068127,3.47134251 18.7242127,3.92674244 C18.9791894,4.4970828 21.128279,9.33257709 21.2375548,11.0683955 C21.3346888,12.6430309 20.8611606,14.1804701 20.3754906,15.6931119 L20.3754906,15.6931119 L22.0267685,20.3550243 L22.0267685,20.3798217 L22.2420597,20.3239128 C22.5950698,20.2406807 22.9171634,20.2062399 23.1802346,20.2062399 C23.6173376,20.2062399 23.9087396,20.3054295 23.9815901,20.5162075 C24.1394328,20.9501621 23.2652269,21.6692869 22.0146267,22.1404376 C21.371114,22.376013 20.7518848,22.5 20.2904984,22.5 C19.8655371,22.5 19.5619934,22.3884117 19.4891429,22.1900324 C19.3555837,21.83047 19.9626711,21.247731 20.8975858,20.8013776 C20.8975858,20.7889789 20.8854441,20.7889789 20.8854441,20.7765802 L20.8854441,20.7765802 L19.2341662,16.1270665 L18.9287324,15.9343307 C17.7076825,15.1586471 16.5041406,14.3187633 15.6523502,13.1513777 C14.6324433,11.7503242 13.2482839,6.62965976 13.0782994,6.0221233 C12.9407392,5.4492871 12.9407392,5.4492871 13.4425519,5.2658024 L13.4425519,5.2658024 L17.9592825,3.59197745 Z M6.14999322,4.95583482 C5.93144173,5.45178295 5.06937755,7.58435992 4.91153481,7.98111843 C5.89501649,8.73743933 6.55067094,8.77463544 7.37630988,8.72504062 C7.74056235,8.70024322 8.73618578,8.79943284 8.82117802,8.81183155 C8.94583331,8.42995149 9.41952342,6.86000012 9.5709733,6.32979116 L9.59824996,6.23290126 L6.14999322,4.95583482 Z M17.8500068,4.95583482 L14.40175,6.23290126 L14.4290267,6.32979116 C14.5804766,6.86000012 15.0541667,8.42995149 15.178822,8.81183155 C15.2638142,8.79943284 16.2594377,8.70024322 16.6236901,8.72504062 C17.4493291,8.77463544 18.1049835,8.73743933 19.0884652,7.98111843 C18.9306225,7.58435992 18.0685583,5.45178295 17.8500068,4.95583482 L17.8500068,4.95583482 Z M10.1160254,1.4330127 L11.1160254,3.16506351 C11.2540966,3.40420982 11.172159,3.71000502 10.9330127,3.84807621 C10.6938664,3.9861474 10.3880712,3.90420982 10.25,3.66506351 L9.25,1.9330127 C9.11192881,1.69386639 9.19386639,1.38807119 9.4330127,1.25 C9.67215901,1.11192881 9.97795422,1.19386639 10.1160254,1.4330127 Z M14.5669873,1.25 C14.8061336,1.38807119 14.8880712,1.69386639 14.75,1.9330127 L13.75,3.66506351 C13.6119288,3.90420982 13.3061336,3.9861474 13.0669873,3.84807621 C12.827841,3.71000502 12.7459034,3.40420982 12.8839746,3.16506351 L13.8839746,1.4330127 C14.0220458,1.19386639 14.327841,1.11192881 14.5669873,1.25 Z M12,0.5 C12.2761424,0.5 12.5,0.723857625 12.5,1 L12.5,3 C12.5,3.27614237 12.2761424,3.5 12,3.5 C11.7238576,3.5 11.5,3.27614237 11.5,3 L11.5,1 C11.5,0.723857625 11.7238576,0.5 12,0.5 Z" id="path-1"></path>
    </defs>
    <g id="Icons/24px/Travel-&amp;-Airport/Comp-upgrade" stroke="none" stroke-width="1" fill="none" fill-rule="evenodd">
        <mask id="mask-2" fill="white">
            <use xlink:href="#path-1"></use>
        </mask>
        <use id="Combined-Shape" fill="#0C2340" fill-rule="nonzero" xlink:href="#path-1"></use>
        <g id="Group" mask="url(#mask-2)" fill="#333333">
            <g id="Color/Grayscale/80%">
                <rect id="Rectangle" x="0" y="0" width="24" height="24"></rect>
            </g>
        </g>
    </g>
</svg>