<?xml version="1.0" encoding="UTF-8"?>
<svg width="24px" height="24px" viewBox="0 0 24 24" version="1.1" xmlns="http://www.w3.org/2000/svg" xmlns:xlink="http://www.w3.org/1999/xlink">
    <title>Icons/24px/Travel &amp; Airport/Container/Ready</title>
    <defs>
        <path d="M20.5,19 C21.8807119,19 23,20.1192881 23,21.5 C23,22.8807119 21.8807119,24 20.5,24 C19.1192881,24 18,22.8807119 18,21.5 C18,20.1192881 19.1192881,19 20.5,19 Z M3.5,19 C4.88071187,19 6,20.1192881 6,21.5 C6,22.8807119 4.88071187,24 3.5,24 C2.11928813,24 1,22.8807119 1,21.5 C1,20.1192881 2.11928813,19 3.5,19 Z M22,0 C23.1045695,0 24,0.8954305 24,2 L24,16 C24,17.1045695 23.1045695,18 22,18 L2,18 C0.8954305,18 0,17.1045695 0,16 L0,2 C0,0.8954305 0.8954305,0 2,0 L22,0 Z M18.0178333,3.64750002 L9.762,11.9033333 L6.61089022,8.75277648 C6.25294688,8.39489594 5.67265696,8.39494686 5.31477642,8.7528902 L5.31466667,8.753 C4.9567592,9.11109158 4.95683382,9.69150049 5.31483335,10.0495 L9.05022655,13.7848932 C9.44087763,14.1751283 10.0738822,14.1752214 10.464648,13.7851012 L19.3129762,4.94197623 C19.6406959,4.61444931 19.668149,4.10023832 19.3952352,3.74143546 L19.313,3.64733333 L19.313,3.64733333 C18.9552766,3.28979406 18.3754647,3.28986868 18.0178333,3.64750002 Z" id="path-1"></path>
    </defs>
    <g id="Icons/24px/Travel-&amp;-Airport/Container/Ready" stroke="none" stroke-width="1" fill="none" fill-rule="evenodd">
        <g id="Icon">
            <mask id="mask-2" fill="white">
                <use xlink:href="#path-1"></use>
            </mask>
            <use id="Combined-Shape" fill="#D8D8D8" xlink:href="#path-1"></use>
            <g id="Group" mask="url(#mask-2)" fill="#333333">
                <g id="Color/Grayscale/80%">
                    <rect id="Rectangle" x="0" y="0" width="24" height="24"></rect>
                </g>
            </g>
        </g>
    </g>
</svg>