<?xml version="1.0" encoding="UTF-8"?>
<svg width="24px" height="24px" viewBox="0 0 24 24" version="1.1" xmlns="http://www.w3.org/2000/svg" xmlns:xlink="http://www.w3.org/1999/xlink">
    <title>Icons/24px/Travel &amp; Airport/Container/Add</title>
    <defs>
        <path d="M20.5,19 C21.8807119,19 23,20.1192881 23,21.5 C23,22.8807119 21.8807119,24 20.5,24 C19.1192881,24 18,22.8807119 18,21.5 C18,20.1192881 19.1192881,19 20.5,19 Z M3.5,19 C4.88071187,19 6,20.1192881 6,21.5 C6,22.8807119 4.88071187,24 3.5,24 C2.11928813,24 1,22.8807119 1,21.5 C1,20.1192881 2.11928813,19 3.5,19 Z M22,0 C23.1045695,0 24,0.8954305 24,2 L24,16 C24,17.1045695 23.1045695,18 22,18 L2,18 C0.8954305,18 0,17.1045695 0,16 L0,2 C0,0.8954305 0.8954305,0 2,0 L22,0 Z M12,2.36 L11.8932172,2.36575056 C11.4022037,2.4189575 11.0199904,2.83484821 11.0199904,3.34000962 L11.0197579,8.02475787 L6.33500962,8.02499038 C5.79376525,8.02499038 5.355,8.46375563 5.355,9.005 L5.36075056,9.11178285 C5.4139575,9.60279633 5.82984821,9.98500962 6.33500962,9.98500962 L11.0197579,9.98431211 L11.0199904,14.6699904 C11.0199904,15.2112347 11.4587556,15.65 12,15.65 L12.1067828,15.6442494 C12.5977963,15.5910425 12.9800096,15.1751518 12.9800096,14.6699904 L12.9793121,9.98431211 L17.6649904,9.98500962 C18.2062347,9.98500962 18.645,9.54624437 18.645,9.005 L18.6392494,8.89821715 C18.5860425,8.40720367 18.1701518,8.02499038 17.6649904,8.02499038 L12.9793121,8.02475787 L12.9800096,3.34000962 C12.9800096,2.79876525 12.5412444,2.36 12,2.36 Z" id="path-1"></path>
    </defs>
    <g id="Icons/24px/Travel-&amp;-Airport/Container/Add" stroke="none" stroke-width="1" fill="none" fill-rule="evenodd">
        <g id="Icon">
            <mask id="mask-2" fill="white">
                <use xlink:href="#path-1"></use>
            </mask>
            <use id="Mask" fill="#D8D8D8" xlink:href="#path-1"></use>
            <g id="Group" mask="url(#mask-2)" fill="#333333">
                <g id="Color/Grayscale/80%">
                    <rect id="Rectangle" x="0" y="0" width="24" height="24"></rect>
                </g>
            </g>
        </g>
    </g>
</svg>