<?xml version="1.0" encoding="UTF-8"?>
<svg width="24px" height="24px" viewBox="0 0 24 24" version="1.1" xmlns="http://www.w3.org/2000/svg" xmlns:xlink="http://www.w3.org/1999/xlink">
    <title>Icons/24px/Travel &amp; Airport/Directv</title>
    <defs>
        <path d="M0,18.0346464 L0,22.4639298 L1.61762426,22.4639298 C2.08203123,22.4639298 2.50443757,22.3334124 2.79964199,22.0391552 C3.30244954,21.5431894 3.2532488,20.8953488 3.2532488,20.230897 C3.2532488,19.5652587 3.30244954,18.9542003 2.79964199,18.4570479 C2.50443757,18.1651637 2.08203123,18.0346464 1.61762426,18.0346464 L0,18.0346464 Z M14.8556228,17.9995254 C15.7172358,17.9995254 16.3520453,18.4966777 16.5032475,19.3984338 L16.5032475,19.3984338 L15.6152342,19.3984338 C15.5216328,19.018747 15.2828292,18.7695776 14.8616229,18.7695776 C14.6228193,18.7695776 14.4344165,18.8443284 14.3024145,18.9997627 C14.1200118,19.1931656 14.0828112,19.3913147 14.0828112,20.2491694 C14.0828112,21.1082107 14.1200118,21.3063598 14.3024145,21.4997627 C14.4344165,21.6540104 14.6228193,21.7287613 14.8616229,21.7287613 C15.2828292,21.7287613 15.5216328,21.4807784 15.6152342,21.1010916 L15.6152342,21.1010916 L16.5032475,21.1010916 C16.3520453,22.0028477 15.7112357,22.5 14.8556228,22.5 C14.3768157,22.5 13.9748096,22.3386331 13.6484047,22.0158994 C13.4528018,21.8224964 13.334,21.5994305 13.2835993,21.350261 C13.2331985,21.1010916 13.2079981,20.7344566 13.2079981,20.2491694 C13.2079981,19.7638823 13.2331985,19.3984338 13.2835993,19.1492644 C13.334,18.8953488 13.4528018,18.677029 13.6484047,18.4848125 C13.9748096,18.1608923 14.3768157,17.9995254 14.8556228,17.9995254 Z M4.93579404,18.0366635 L4.93579404,22.4635738 L4.06218093,22.4635738 L4.06218093,18.0366635 L4.93579404,18.0366635 Z M12.7181508,18.0364262 L12.7181508,18.8064784 L10.6433196,18.8064784 L10.6433196,19.8458709 L12.4109462,19.8458709 L12.4109462,20.6171096 L10.6433196,20.6171096 L10.6433196,21.6920978 L12.7181508,21.6920978 L12.7181508,22.4633365 L9.76970655,22.4633365 L9.76970655,18.0364262 L12.7181508,18.0364262 Z M19.9537793,18.0364262 L19.9537793,18.8064784 L18.7849618,18.8064784 L18.7849618,22.4633365 L17.9113487,22.4633365 L17.9113487,18.8064784 L16.7413311,18.8064784 L16.7413311,18.0364262 L19.9537793,18.0364262 Z M21.2903594,18.0364262 L22.1891728,20.920859 L23.0891863,18.0364262 L24,18.0364262 L22.5167778,22.4633365 L21.8627679,22.4633365 L20.3855458,18.0364262 L21.2903594,18.0364262 Z M1.53602304,18.8046986 C1.83722756,18.8046986 2.03763056,18.8984338 2.19003285,19.078785 C2.3532353,19.2781206 2.37843568,19.5581395 2.37843568,20.230897 C2.37843568,20.9012814 2.3532353,21.2192691 2.19003285,21.4186047 C2.03763056,21.5977693 1.83722756,21.692691 1.53602304,21.692691 L0.874813122,21.692691 L0.874813122,18.8046986 L1.53602304,18.8046986 Z M5.81720726,18.0364262 L5.81720726,22.4633365 L6.69082036,22.4633365 L6.69082036,20.6977931 L7.31962979,20.6977931 L8.1932429,22.4633365 L9.20605809,22.4633365 L8.2064431,20.554224 C8.63964959,20.3987897 9.02365535,20.0143569 9.02365535,19.3914333 C9.02365535,18.6522307 8.48364725,18.0364262 7.57163357,18.0364262 L5.81720726,18.0364262 Z M6.69082036,18.8064784 L7.51403271,18.8064784 C7.89803847,18.8064784 8.15004225,19.0497152 8.15004225,19.3914333 C8.15004225,19.7331514 7.89803847,19.9763882 7.51403271,19.9763882 L6.69082036,19.9763882 L6.69082036,18.8064784 Z M11.6357345,1.5 C10.3025145,1.5 9.03649555,1.86900807 7.97447962,2.51210252 C7.65647485,2.70669198 7.47647215,2.86212625 7.47647215,3.06146179 C7.47647215,3.64997627 8.86849303,4.28357855 11.33573,4.28357855 C13.7789667,4.28357855 15.6726027,3.58946369 15.6726027,2.92263882 C15.6737951,2.76364499 15.532193,2.65211201 15.2477887,2.48362601 C14.1893728,1.85714286 12.9605544,1.5 11.6357345,1.5 Z M16.2990045,3.2584243 C16.3290049,3.30469862 16.3434052,3.35334599 16.3434052,3.41979117 C16.3434052,4.19458946 13.9433692,5.5673944 10.1225118,5.5673944 C7.31566974,5.5673944 6.79006185,4.53749407 6.79006185,3.88253441 C6.79006185,3.64878975 6.88126322,3.40911248 7.08046621,3.16587565 C7.09126637,3.15045088 7.08286624,3.14570479 7.06966604,3.15638348 C6.70486057,3.46250593 6.37005555,3.80541054 6.07605114,4.17679165 C5.93564903,4.35239677 5.84804772,4.50783104 5.84804772,4.60156621 C5.84804772,5.95775985 9.28969935,6.94138586 12.5081476,6.94138586 C15.936599,6.94138586 17.466622,5.83554817 17.466622,4.86260085 C17.466622,4.51495017 17.3298199,4.31324158 16.9794147,3.91813004 C16.7526113,3.663028 16.5378081,3.45420028 16.3098046,3.25011865 C16.2990045,3.24062648 16.2906044,3.24774561 16.2990045,3.2584243 M4.75123127,6.93070717 C4.72123082,7.08258187 4.73443102,7.15614618 4.78843183,7.27005221 C5.22163832,8.17774086 7.41167118,9.63122924 12.5225478,9.63122924 C15.6401946,9.63122924 18.0618309,8.87422876 18.4542368,7.49311818 C18.5262379,7.23801614 18.531038,6.96986236 18.4374366,6.60797342 C18.334235,6.20336972 18.1398321,5.73113431 17.9754296,5.40009492 C17.9706296,5.38941623 17.9598294,5.39178927 17.9622294,5.40365449 C18.0234304,7.21665876 12.9113537,8.38538206 10.331315,8.38538206 C7.53767307,8.38538206 5.20603809,7.28429046 5.20603809,5.89487423 C5.20603809,5.76079734 5.23483852,5.62672046 5.26963904,5.48789748 C5.27203908,5.47484575 5.26123892,5.47365923 5.25643885,5.48433792 C5.04883573,5.89131467 4.81963229,6.57593735 4.75123127,6.93070717 Z M10.2173133,11.2757475 C6.60285904,11.2757475 4.89883348,9.6122449 4.59042886,8.47555766 C4.5868288,8.46013289 4.57482862,8.46369245 4.57482862,8.47793071 C4.57482862,8.86117703 4.61442922,9.35358329 4.68043021,9.68106312 C4.71283069,9.84124347 4.84363265,10.0904129 5.03563553,10.290935 C5.91044866,11.1915045 8.0932814,12.4551495 11.8709381,12.4551495 C17.0190153,12.4551495 18.1950329,10.7607973 18.4350365,10.2031324 C18.6078391,9.8032748 18.6966404,9.08305648 18.6966404,8.47793071 C18.6966404,8.33198861 18.6930404,8.21452302 18.6870403,8.09943047 C18.6870403,8.08163265 18.6762401,8.07925961 18.6726401,8.09705743 C18.4158362,9.46155672 14.0177703,11.2757475 10.2173133,11.2757475 M12.1157417,14.3464642 C13.8533678,14.3464642 15.7625964,13.8789748 16.9038136,12.9511153 C17.2170183,12.6983863 17.5146227,12.3626009 17.7810267,11.9105363 C17.934629,11.6506882 18.0846313,11.3421927 18.2070331,11.0384433 C18.2118332,11.0230185 18.202233,11.0158994 18.1914329,11.0336972 C17.1294169,12.5773612 14.0549708,13.5420028 10.8797232,13.5420028 C8.63568954,13.5420028 6.2200533,12.8324632 5.27443912,11.4774561 C5.26483897,11.4644044 5.25643885,11.470337 5.26123892,11.4845752 C6.14205213,13.3355482 8.81449222,14.3464642 12.1157417,14.3464642 M7.30606959,13.9893213 C8.50368756,14.9065021 10.0061101,15.4570479 11.6357345,15.4570479 C13.4201613,15.4570479 15.0461857,14.8009018 16.2870043,13.7271001 C16.3026045,13.7128619 16.2954044,13.7045562 16.2798042,13.7128619 C15.7229958,14.0806834 14.135372,14.8839582 11.6357345,14.8839582 C9.46370196,14.8839582 8.09088136,14.4046037 7.31566974,13.9774561 C7.30126952,13.970337 7.29526943,13.9810157 7.30606959,13.9893213" id="path-1"></path>
    </defs>
    <g id="Icons/24px/Travel-&amp;-Airport/Directv" stroke="none" stroke-width="1" fill="none" fill-rule="evenodd">
        <mask id="mask-2" fill="white">
            <use xlink:href="#path-1"></use>
        </mask>
        <use id="Mask" fill="#0C2340" fill-rule="nonzero" xlink:href="#path-1"></use>
        <g id="Group" mask="url(#mask-2)" fill="#333333">
            <g id="Color/Grayscale/80%">
                <rect id="Rectangle" x="0" y="0" width="24" height="24"></rect>
            </g>
        </g>
    </g>
</svg>