<?xml version="1.0" encoding="UTF-8"?>
<svg width="24px" height="24px" viewBox="0 0 24 24" version="1.1" xmlns="http://www.w3.org/2000/svg" xmlns:xlink="http://www.w3.org/1999/xlink">
    <title>Icons/24px/Digital/Documents/Download PDF</title>
    <defs>
        <path d="M14,0 L14,6 C14,6.5 14.5,7 15,7 L15,7 L20,7 L20,23 C20,23.5 19.5,24 19,24 L19,24 L1,24 C0.5,24 0,23.5 0,23 L0,23 L0,1 C0,0.5 0.5,0 1,0 L1,0 L14,0 Z M4.86901763,10 L3,10 L3,17 L4.37027708,17 L4.37027708,14.4623803 L4.71284635,14.4623803 C5.45843829,14.4623803 6.02854744,14.2636799 6.4231738,13.8662791 C6.81780017,13.4688782 7.01511335,12.8983128 7.01511335,12.1545828 C7.01511335,10.7806459 6.36060149,10.0638093 5.05157776,10.0040729 L4.86901763,10 Z M9.91183879,10 L7.94206549,10 L7.94206549,17 L9.74559194,17 C10.6759026,17 11.388749,16.6943684 11.884131,16.0831053 C12.379513,15.4718422 12.627204,14.5884633 12.627204,13.4329685 C12.627204,12.3476972 12.388749,11.504218 11.9118388,10.9025308 C11.4746711,10.3509842 10.8780553,10.0522298 10.1219913,10.0062676 L9.91183879,10 Z M17,10 L13.7002519,10 L13.7002519,17 L15.0604534,17 L15.0604534,14.1942544 L16.8690176,14.1942544 L16.8690176,13.0690834 L15.0604534,13.0690834 L15.0604534,11.125171 L17,11.125171 L17,10 Z M9.86146096,11.125171 C10.768262,11.125171 11.2216625,11.9072047 11.2216625,13.4712722 C11.2216625,14.2692658 11.1024349,14.8669631 10.8639798,15.2643639 C10.6255248,15.6617647 10.2560873,15.8604651 9.75566751,15.8604651 L9.31234257,15.8604651 L9.31234257,11.125171 L9.86146096,11.125171 Z M4.70277078,11.125171 C5.01847187,11.125171 5.25188917,11.2137483 5.40302267,11.3909029 C5.55415617,11.5680575 5.62972292,11.8401733 5.62972292,12.2072503 C5.62972292,12.6062472 5.54743913,12.8935249 5.38287154,13.0690834 C5.21830395,13.244642 4.96809404,13.3324213 4.63224181,13.3324213 L4.37027708,13.3324213 L4.37027708,11.125171 L4.70277078,11.125171 Z M15,1 L20,6 L15,6 L15,1 Z" id="path-1"></path>
    </defs>
    <g id="Icons/24px/Digital/Documents/Download-PDF" stroke="none" stroke-width="1" fill="none" fill-rule="evenodd">
        <g id="Icon" transform="translate(2.000000, 0.000000)">
            <mask id="mask-2" fill="white">
                <use xlink:href="#path-1"></use>
            </mask>
            <use id="Mask" fill="#000000" xlink:href="#path-1"></use>
            <g id="Group" mask="url(#mask-2)">
                <g transform="translate(-2.000000, 0.000000)" id="Color/Grayscale/80%">
                    <rect id="Rectangle" fill="#333333" x="0" y="0" width="24" height="24"></rect>
                </g>
            </g>
        </g>
    </g>
</svg>