<?xml version="1.0" encoding="UTF-8"?>
<svg width="24px" height="24px" viewBox="0 0 24 24" version="1.1" xmlns="http://www.w3.org/2000/svg" xmlns:xlink="http://www.w3.org/1999/xlink">
    <title>Icons/24px/Interface/Drag Corner/Top left</title>
    <defs>
        <path d="M21.5,0 C22.8807119,0 24,1.11928813 24,2.5 C24,3.88071187 22.8807119,5 21.5,5 C20.1192881,5 19,3.88071187 19,2.5 C19,1.11928813 20.1192881,0 21.5,0 Z M12,0 C13.3807119,0 14.5,1.11928813 14.5,2.5 C14.5,3.88071187 13.3807119,5 12,5 C10.6192881,5 9.5,3.88071187 9.5,2.5 C9.5,1.11928813 10.6192881,0 12,0 Z M12,9.5 C13.3807119,9.5 14.5,10.6192881 14.5,12 C14.5,13.3807119 13.3807119,14.5 12,14.5 C10.6192881,14.5 9.5,13.3807119 9.5,12 C9.5,10.6192881 10.6192881,9.5 12,9.5 Z M2.5,4.51194637e-13 C3.88071187,4.51194637e-13 5,1.11928813 5,2.5 C5,3.88071187 3.88071187,5 2.5,5 C1.11928813,5 0,3.88071187 0,2.5 C0,1.11928813 1.11928813,4.51194637e-13 2.5,4.51194637e-13 Z M2.5,9.5 C3.88071187,9.5 5,10.6192881 5,12 C5,13.3807119 3.88071187,14.5 2.5,14.5 C1.11928813,14.5 3.55271368e-15,13.3807119 3.55271368e-15,12 C3.55271368e-15,10.6192881 1.11928813,9.5 2.5,9.5 Z M2.5,19 C3.88071187,19 5,20.1192881 5,21.5 C5,22.8807119 3.88071187,24 2.5,24 C1.11928813,24 4.22772928e-13,22.8807119 4.22772928e-13,21.5 C4.22772928e-13,20.1192881 1.11928813,19 2.5,19 Z" id="path-1"></path>
    </defs>
    <g id="Icons" stroke="none" stroke-width="1" fill="none" fill-rule="evenodd">
        <g transform="translate(-507.000000, -790.000000)" id="Group">
            <g transform="translate(507.000000, 790.000000)">
                <g id="Drag-corner" transform="translate(0.000000, -0.000000)">
                    <mask id="mask-2" fill="white">
                        <use xlink:href="#path-1"></use>
                    </mask>
                    <use id="Shape" fill="#7C878E" xlink:href="#path-1"></use>
                    <g id="Group" mask="url(#mask-2)">
                        <g transform="translate(-0.000000, 0.000000)" id="Color/Grayscale/80%">
                            <rect id="Rectangle" fill="#333333" x="0" y="0" width="24" height="24"></rect>
                        </g>
                    </g>
                </g>
            </g>
        </g>
    </g>
</svg>