<?xml version="1.0" encoding="UTF-8"?>
<svg width="24px" height="24px" viewBox="0 0 24 24" version="1.1" xmlns="http://www.w3.org/2000/svg" xmlns:xlink="http://www.w3.org/1999/xlink">
    <title>Icons/24px/Interface/Drag Corner/Btm right</title>
    <defs>
        <path d="M2.5,24 C1.11928813,24 9.09494702e-13,22.8807119 9.09494702e-13,21.5 C9.09494702e-13,20.1192881 1.11928813,19 2.5,19 C3.88071187,19 5,20.1192881 5,21.5 C5,22.8807119 3.88071187,24 2.5,24 Z M12,24 C10.6192881,24 9.5,22.8807119 9.5,21.5 C9.5,20.1192881 10.6192881,19 12,19 C13.3807119,19 14.5,20.1192881 14.5,21.5 C14.5,22.8807119 13.3807119,24 12,24 Z M12,14.5 C10.6192881,14.5 9.5,13.3807119 9.5,12 C9.5,10.6192881 10.6192881,9.5 12,9.5 C13.3807119,9.5 14.5,10.6192881 14.5,12 C14.5,13.3807119 13.3807119,14.5 12,14.5 Z M21.5,24 C20.1192881,24 19,22.8807119 19,21.5 C19,20.1192881 20.1192881,19 21.5,19 C22.8807119,19 24,20.1192881 24,21.5 C24,22.8807119 22.8807119,24 21.5,24 Z M21.5,14.5 C20.1192881,14.5 19,13.3807119 19,12 C19,10.6192881 20.1192881,9.5 21.5,9.5 C22.8807119,9.5 24,10.6192881 24,12 C24,13.3807119 22.8807119,14.5 21.5,14.5 Z M21.5,5 C20.1192881,5 19,3.88071187 19,2.5 C19,1.11928813 20.1192881,0 21.5,0 C22.8807119,0 24,1.11928813 24,2.5 C24,3.88071187 22.8807119,5 21.5,5 Z" id="path-1"></path>
    </defs>
    <g id="Icons" stroke="none" stroke-width="1" fill="none" fill-rule="evenodd">
        <g transform="translate(-467.000000, -788.000000)" id="Group">
            <g transform="translate(467.000000, 788.000000)" id="Drag-corner">
                <mask id="mask-2" fill="white">
                    <use xlink:href="#path-1"></use>
                </mask>
                <use id="Shape" fill="#7C878E" xlink:href="#path-1"></use>
                <g id="Group" mask="url(#mask-2)" fill="#333333">
                    <g id="Color/Grayscale/80%">
                        <rect id="Rectangle" x="0" y="0" width="24" height="24"></rect>
                    </g>
                </g>
            </g>
        </g>
    </g>
</svg>