<?xml version="1.0" encoding="UTF-8"?>
<svg width="24px" height="24px" viewBox="0 0 24 24" version="1.1" xmlns="http://www.w3.org/2000/svg" xmlns:xlink="http://www.w3.org/1999/xlink">
    <title>Icons/24px/Interface/Drag</title>
    <defs>
        <path d="M13.5,19 C14.8807119,19 16,20.1192881 16,21.5 C16,22.8807119 14.8807119,24 13.5,24 C12.1192881,24 11,22.8807119 11,21.5 C11,20.1192881 12.1192881,19 13.5,19 Z M2.5,19 C3.88071187,19 5,20.1192881 5,21.5 C5,22.8807119 3.88071187,24 2.5,24 C1.11928813,24 -7.27862215e-13,22.8807119 -7.27862215e-13,21.5 C-7.27862215e-13,20.1192881 1.11928813,19 2.5,19 Z M13.5,9.5 C14.8807119,9.5 16,10.6192881 16,12 C16,13.3807119 14.8807119,14.5 13.5,14.5 C12.1192881,14.5 11,13.3807119 11,12 C11,10.6192881 12.1192881,9.5 13.5,9.5 Z M2.5,9.5 C3.88071187,9.5 5,10.6192881 5,12 C5,13.3807119 3.88071187,14.5 2.5,14.5 C1.11928813,14.5 -7.27862215e-13,13.3807119 -7.27862215e-13,12 C-7.27862215e-13,10.6192881 1.11928813,9.5 2.5,9.5 Z M2.5,0 C3.88071187,0 5,1.11928813 5,2.5 C5,3.88071187 3.88071187,5 2.5,5 C1.11928813,5 -3.64153152e-13,3.88071187 -3.64153152e-13,2.5 C-3.64153152e-13,1.11928813 1.11928813,0 2.5,0 Z M13.5,-8.8817842e-16 C14.8807119,-8.8817842e-16 16,1.11928813 16,2.5 C16,3.88071187 14.8807119,5 13.5,5 C12.1192881,5 11,3.88071187 11,2.5 C11,1.11928813 12.1192881,-8.8817842e-16 13.5,-8.8817842e-16 Z" id="path-1"></path>
    </defs>
    <g id="Icons/24px/Interface/Drag" stroke="none" stroke-width="1" fill="none" fill-rule="evenodd">
        <g id="Drag" transform="translate(4.000000, 0.000000)">
            <mask id="mask-2" fill="white">
                <use xlink:href="#path-1"></use>
            </mask>
            <use id="Mask" fill="#7C878E" xlink:href="#path-1"></use>
            <g id="Group" mask="url(#mask-2)">
                <g transform="translate(-4.000000, 0.000000)" id="Color/Grayscale/80%">
                    <rect id="Rectangle" fill="#333333" x="0" y="0" width="24" height="24"></rect>
                </g>
            </g>
        </g>
    </g>
</svg>