<?xml version="1.0" encoding="UTF-8"?>
<svg width="24px" height="24px" viewBox="0 0 24 24" version="1.1" xmlns="http://www.w3.org/2000/svg" xmlns:xlink="http://www.w3.org/1999/xlink">
    <title>Icons/24px/Interface/Drag Corner/Top right</title>
    <defs>
        <path d="M2.5,0 C1.11928813,0 0,1.11928813 0,2.5 C0,3.88071187 1.11928813,5 2.5,5 C3.88071187,5 5,3.88071187 5,2.5 C5,1.11928813 3.88071187,0 2.5,0 Z M12,0 C10.6192881,0 9.5,1.11928813 9.5,2.5 C9.5,3.88071187 10.6192881,5 12,5 C13.3807119,5 14.5,3.88071187 14.5,2.5 C14.5,1.11928813 13.3807119,0 12,0 Z M12,9.5 C10.6192881,9.5 9.5,10.6192881 9.5,12 C9.5,13.3807119 10.6192881,14.5 12,14.5 C13.3807119,14.5 14.5,13.3807119 14.5,12 C14.5,10.6192881 13.3807119,9.5 12,9.5 Z M21.5,4.51194637e-13 C20.1192881,4.51194637e-13 19,1.11928813 19,2.5 C19,3.88071187 20.1192881,5 21.5,5 C22.8807119,5 24,3.88071187 24,2.5 C24,1.11928813 22.8807119,4.51194637e-13 21.5,4.51194637e-13 Z M21.5,9.5 C20.1192881,9.5 19,10.6192881 19,12 C19,13.3807119 20.1192881,14.5 21.5,14.5 C22.8807119,14.5 24,13.3807119 24,12 C24,10.6192881 22.8807119,9.5 21.5,9.5 Z M21.5,19 C20.1192881,19 19,20.1192881 19,21.5 C19,22.8807119 20.1192881,24 21.5,24 C22.8807119,24 24,22.8807119 24,21.5 C24,20.1192881 22.8807119,19 21.5,19 Z" id="path-1"></path>
    </defs>
    <g id="Icons" stroke="none" stroke-width="1" fill="none" fill-rule="evenodd">
        <g transform="translate(-547.000000, -790.000000)" id="Group">
            <g transform="translate(547.000000, 790.000000)">
                <g id="Drag-corner" transform="translate(0.000000, 0.000000)">
                    <mask id="mask-2" fill="white">
                        <use xlink:href="#path-1"></use>
                    </mask>
                    <use id="Shape" fill="#7C878E" xlink:href="#path-1"></use>
                    <g id="Group" mask="url(#mask-2)">
                        <g transform="translate(-0.000000, 0.000000)" id="Color/Grayscale/80%">
                            <rect id="Rectangle" fill="#333333" x="0" y="0" width="24" height="24"></rect>
                        </g>
                    </g>
                </g>
            </g>
        </g>
    </g>
</svg>