<?xml version="1.0" encoding="UTF-8"?>
<svg width="24px" height="24px" viewBox="0 0 24 24" version="1.1" xmlns="http://www.w3.org/2000/svg" xmlns:xlink="http://www.w3.org/1999/xlink">
    <title>Icons/24px/Digital/Farelock</title>
    <defs>
        <path d="M10,0.00310539675 C13,-7.05065346e-14 16,2.66 16,6 L16,8 L18,8 C19,8 20,9 20,10 L20,22 C20,23 19,24 18,24 L2,24 C0.772002163,24 0,23 0,22 L0,10 C0,9 1,8 2,8 L4,8 L4,6 C4,2.66 7,0.00621623553 10,0.00310539675 Z M9.54710677,10.1768522 L9.37955604,10.3686472 L9.25220548,10.5248269 L9.1650551,10.6453914 C9.13152995,10.6967698 9.11307987,10.7347925 9.10970485,10.7594595 L8.71908065,14.5203065 L4.18771832,17.9343492 C4.06257277,18.0315504 4,18.156352 4,18.2949537 L4,19.0305629 L8.95296917,17.4903436 L9.15648256,20.4177802 L8.03138764,21.5145939 C8.01579507,21.5283941 8.00146813,21.5757447 7.98840682,21.6566457 L7.96976409,21.80316 L7.95301979,22 L10.0154913,21.3753922 L12.0469802,22 L12.0302359,21.8143727 L12.0115932,21.6738959 C11.9985319,21.5952949 11.9842049,21.5467943 11.9686124,21.5283941 L10.8441249,20.4321804 L11.0470308,17.5041438 L16,19.0443631 L16,18.3087539 C16,18.1701521 15.9374272,18.0315504 15.8128892,17.9481494 L11.2505442,14.5203065 L10.85992,10.7594595 C10.8529,10.7101255 10.7856697,10.6073687 10.6582291,10.451189 L10.5107185,10.2772016 C10.4827884,10.2452358 10.4531857,10.211786 10.4219106,10.1768522 C10.1880221,9.94104926 9.78160279,9.94104926 9.54710677,10.1768522 Z M10,3 C8.55357143,3 7.10714286,4.23979592 7.00567147,5.82274964 L7,6 L7,8 L13,8 L13,6 C13,4.33333333 11.5,3 10,3 Z" id="path-1"></path>
    </defs>
    <g id="Icons/24px/Digital/Farelock" stroke="none" stroke-width="1" fill="none" fill-rule="evenodd">
        <g id="Icon" transform="translate(2.000000, 0.000000)">
            <mask id="mask-2" fill="white">
                <use xlink:href="#path-1"></use>
            </mask>
            <use id="Mask" fill="#0C2340" fill-rule="nonzero" xlink:href="#path-1"></use>
            <g id="Group" mask="url(#mask-2)">
                <g transform="translate(-2.000000, 0.000000)" id="Color/Grayscale/80%">
                    <rect id="Rectangle" fill="#333333" x="0" y="0" width="24" height="24"></rect>
                </g>
            </g>
        </g>
    </g>
</svg>