<?xml version="1.0" encoding="UTF-8"?>
<svg width="24px" height="24px" viewBox="0 0 24 24" version="1.1" xmlns="http://www.w3.org/2000/svg" xmlns:xlink="http://www.w3.org/1999/xlink">
    <title>Icons/24px/Digital/Favorite/Off</title>
    <defs>
        <path d="M17.4996,0 C21.0792,0 24,2.86704643 24,6.39380911 C24,7.83472163 23.4990234,9.23199111 22.5880371,10.3674025 L22.4004,10.5909286 L12.69,21.6843293 C12.2281187,22.2469751 11.8621511,22.2821405 11.3942071,21.7898254 L11.2992,21.6843293 L1.59,10.5909286 C0.5592,9.41809974 0,7.93078246 0,6.39380911 C0,2.86704643 2.91,0 6.4896,0 C8.43687273,0 10.2299777,0.83486819 11.4754441,2.29894789 L11.6496,2.51236028 L12,2.95571797 L12.3396,2.51236028 C13.59,0.916272571 15.4704,0 17.4996,0 Z M17.4996,2 C16.1688809,2 14.938999,2.56082444 14.0833303,3.54005532 L13.9273444,3.72852954 L12.0247072,6.21247781 L10.0746321,3.74503058 C9.20183426,2.62986736 7.91021989,2 6.4896,2 C4.00796693,2 2,3.97832798 2,6.39380911 C2,7.36716604 2.32767494,8.30870979 2.93685424,9.08356597 L3.09498702,9.2737293 L11.994,19.442 L20.8973919,9.27147173 C21.5558676,8.52139467 21.9381962,7.59469053 21.9931197,6.63447762 L22,6.39380911 C22,3.98139501 19.9842987,2 17.4996,2 Z" id="path-1"></path>
    </defs>
    <g id="Icons/24px/Digital/Favorite/Off" stroke="none" stroke-width="1" fill="none" fill-rule="evenodd">
        <g id="Icon" transform="translate(0.000000, 1.000000)">
            <mask id="mask-2" fill="white">
                <use xlink:href="#path-1"></use>
            </mask>
            <use id="Mask" fill="#979797" fill-rule="nonzero" xlink:href="#path-1"></use>
            <g id="Group" mask="url(#mask-2)">
                <g transform="translate(0.000000, -1.000000)" id="Color/Grayscale/80%">
                    <rect id="Rectangle" fill="#333333" x="0" y="0" width="24" height="24"></rect>
                </g>
            </g>
        </g>
    </g>
</svg>