<?xml version="1.0" encoding="UTF-8"?>
<svg width="24px" height="24px" viewBox="0 0 24 24" version="1.1" xmlns="http://www.w3.org/2000/svg" xmlns:xlink="http://www.w3.org/1999/xlink">
    <title>Icons/24px/Weather/Fog</title>
    <defs>
        <path d="M21.7064842,19.7200745 C22.0649831,19.7230134 22.3544822,20.0110321 22.3544822,20.3637081 C22.3544822,20.7149146 22.0604831,21.0014639 21.7034842,20.9999944 L21.7034842,20.9999944 L1.65754612,20.9985249 C1.29604723,20.9970554 1.00354814,20.7090367 1.00354814,20.3563607 C1.00804812,20.0051542 1.29904722,19.718605 1.66054611,19.7200745 L1.66054611,19.7200745 Z M10.1697198,16.5384962 L23.3486791,16.5399657 C23.710178,16.5429047 23.9981771,16.8309234 23.9981771,17.1835994 C23.9981771,17.5362754 23.7011781,17.8228246 23.3441792,17.8213551 L23.3441792,17.8213551 L10.1682198,17.8198856 C9.80222097,17.8184162 9.51122187,17.5318669 9.51567036,17.1777215 C9.51567036,16.8250455 9.80672095,16.5384962 10.1697198,16.5384962 L10.1697198,16.5384962 Z M0.654049216,16.5384962 L7.40252838,16.5399657 C7.76252727,16.5429047 8.05202637,16.8309234 8.05202637,17.1835994 C8.04902638,17.5362754 7.75802728,17.8228246 7.39802839,17.8213551 L7.39802839,17.8213551 L0.64954923,17.8198856 C0.288050346,17.8184162 -0.00444875033,17.5318669 1.96109795e-12,17.1777215 C1.96109795e-12,16.8250455 0.294050328,16.5384962 0.654049216,16.5384962 L0.654049216,16.5384962 Z M13.8274585,13.3097476 C14.1889574,13.3097476 14.4844565,13.5962969 14.4844565,13.9475034 C14.4844565,14.3001793 14.1949574,14.5881981 13.8304585,14.5896675 L0.651499224,14.5926065 C0.296000322,14.5926065 0.0004782455,14.3060573 0.0004782455,13.9533813 C-0.00249875635,13.6021748 0.288500345,13.3126866 0.649999229,13.3112171 L13.8274585,13.3097476 Z M23.3429792,13.3097476 C23.704478,13.3097476 24,13.5962969 24,13.9475034 C24.0029771,14.3001793 23.710478,14.5881981 23.3459791,14.5896675 L16.599,14.5926065 C16.2375011,14.5926065 15.9464962,14.3060573 15.9464962,13.9533813 C15.945002,13.6021748 16.2330011,13.3126866 16.5945,13.3112171 L23.3429792,13.3097476 Z M8.31197557,3 C10.3339693,3 12.2374634,3.7729482 13.666959,5.17336574 C14.1544575,5.64947832 14.5699562,6.17996178 14.9044552,6.75599922 L14.9044552,6.75599922 L15.0514548,7.00728086 L15.3424539,6.95290997 C15.6874528,6.89119168 16.0339517,6.86033253 16.3834506,6.86033253 C19.198942,6.86033253 21.5089348,8.90144478 21.9079336,11.5479841 L21.9079336,11.5479841 L20.6494375,11.5479841 C20.2639387,9.58181553 18.5014441,8.09029002 16.3834506,8.09029002 C15.6634529,8.09029002 14.970455,8.26221956 14.3449569,8.58550588 C13.5364594,6.03301345 11.083967,4.23142697 8.31197557,4.23142697 C4.82448634,4.23142697 1.98949509,7.01021982 1.98949509,10.42236 C1.98949509,10.8088341 2.03299496,11.1820828 2.10649473,11.5479841 L2.10649473,11.5479841 L0.825498687,11.5479841 C0.763998877,11.1776744 0.729498983,10.8044256 0.729498983,10.42236 C0.729498983,8.44002704 1.51849655,6.57525278 2.94949213,5.17336574 C4.3834877,3.7729482 6.28398183,3 8.31197557,3 Z" id="path-1"></path>
    </defs>
    <g id="Icons/24px/Weather/Fog" stroke="none" stroke-width="1" fill="none" fill-rule="evenodd">
        <mask id="mask-2" fill="white">
            <use xlink:href="#path-1"></use>
        </mask>
        <use id="Mask" fill="#0C2340" fill-rule="nonzero" xlink:href="#path-1"></use>
        <g id="Group" mask="url(#mask-2)" fill="#333333">
            <g id="Color/Grayscale/80%">
                <rect id="Rectangle" x="0" y="0" width="24" height="24"></rect>
            </g>
        </g>
    </g>
</svg>