<?xml version="1.0" encoding="UTF-8"?>
<svg width="24px" height="24px" viewBox="0 0 24 24" version="1.1" xmlns="http://www.w3.org/2000/svg" xmlns:xlink="http://www.w3.org/1999/xlink">
    <title>Icons/24px/Travel &amp; Airport/Global reception</title>
    <defs>
        <path d="M10.104,17.2031704 L10.02,17.4182342 C9.924,17.645246 9.948,17.9200498 10.104,18.1231656 C10.248,18.3382294 10.488,18.4577093 10.752,18.4577093 L13.4364,18.4577093 L13.4364,23.499761 L0.6,23.499761 C0.264,23.499761 0,23.2249573 0,22.9023615 L0,17.2031704 L10.104,17.2031704 Z M24,17.2034093 L24,22.9026005 C24,23.2251962 23.724,23.5 23.4,23.5 L19.6728,23.5 L19.6728,18.4579483 L22.356,18.4579483 C22.608,18.4579483 22.848,18.3384684 23.004,18.1234046 C23.148,17.9202887 23.172,17.645485 23.1,17.4184732 L23.016,17.2034093 L24,17.2034093 Z M16.54836,7.72853388 C17.56836,7.72853388 18.48036,8.30203739 18.91236,9.22203261 L18.91236,9.22203261 L19.32036,10.3212477 L19.32036,10.3331957 L21.56436,16.4625145 C21.62436,16.6417343 21.60036,16.8448502 21.49236,17.000174 C21.37236,17.1674459 21.19236,17.2630298 21.00036,17.2630298 L21.00036,17.2630298 L18.46836,17.2630298 L18.46836,22.902481 C18.46836,23.2250768 18.20436,23.4998805 17.86836,23.4998805 C17.53236,23.4998805 17.26836,23.2250768 17.26836,22.902481 L17.26836,22.902481 L17.26836,17.2630298 L15.84036,17.2630298 L15.84036,22.902481 C15.84036,23.2250768 15.56436,23.4998805 15.24036,23.4998805 C14.90436,23.4998805 14.64036,23.2250768 14.64036,22.902481 L14.64036,22.902481 L14.64036,17.2630298 L12.10836,17.2630298 C11.90436,17.2630298 11.72436,17.1674459 11.61636,17.000174 C11.49636,16.8448502 11.47236,16.6417343 11.54436,16.4625145 L11.54436,16.4625145 L14.17236,9.26982457 C14.61636,8.31398538 15.54036,7.72853388 16.54836,7.72853388 Z M11.7384,12.4242134 L10.4304,16.0086103 L0,16.0086103 L0,13.0216129 C0,12.6990171 0.264,12.4242134 0.6,12.4242134 L11.7384,12.4242134 Z M23.4,12.4242134 C23.724,12.4242134 24,12.6990171 24,13.0216129 L24,16.0086103 L22.674,16.0086103 L21.3648,12.4242134 L23.4,12.4242134 Z M6.252,5.98412736 C8.388,5.98412736 10.116,7.62100197 10.116,9.62826427 L10.116,9.62826427 L10.116,10.7752713 C10.116,11.097867 9.852,11.3726708 9.516,11.3726708 L9.516,11.3726708 L3,11.3726708 C2.676,11.3726708 2.4,11.097867 2.4,10.7752713 L2.4,10.7752713 L2.4,9.62826427 C2.4,7.62100197 4.128,5.98412736 6.252,5.98412736 Z M16.54812,2.20868203 C17.90412,2.20868203 18.99612,3.3078971 18.99612,4.64607197 C18.99612,5.99619482 17.90412,7.09540989 16.54812,7.09540989 C15.19212,7.09540989 14.10012,5.99619482 14.10012,4.64607197 C14.10012,3.3078971 15.19212,2.20868203 16.54812,2.20868203 Z M6.26436,0.5 C7.60836,0.5 8.71236,1.59921507 8.71236,2.94933793 C8.71236,4.28751279 7.60836,5.38672786 6.26436,5.38672786 C4.90836,5.38672786 3.80436,4.28751279 3.80436,2.94933793 C3.80436,1.59921507 4.90836,0.5 6.26436,0.5 Z" id="path-1"></path>
    </defs>
    <g id="Icons/24px/Travel-&amp;-Airport/Global-reception" stroke="none" stroke-width="1" fill="none" fill-rule="evenodd">
        <mask id="mask-2" fill="white">
            <use xlink:href="#path-1"></use>
        </mask>
        <use id="Mask" fill="#0C2340" fill-rule="nonzero" xlink:href="#path-1"></use>
        <g id="Group" mask="url(#mask-2)" fill="#333333">
            <g id="Color/Grayscale/80%">
                <rect id="Rectangle" x="0" y="0" width="24" height="24"></rect>
            </g>
        </g>
    </g>
</svg>