<?xml version="1.0" encoding="UTF-8"?>
<svg width="24px" height="24px" viewBox="0 0 24 24" version="1.1" xmlns="http://www.w3.org/2000/svg" xmlns:xlink="http://www.w3.org/1999/xlink">
    <title>Icons/24px/Travel &amp; Airport/GSMC</title>
    <defs>
        <path d="M7.5513449,0 C9.20579312,0 10.4925863,1.38996139 10.4925863,2.96525096 C10.4925863,3.61389961 10.3087586,4.16988417 9.94110344,4.63320463 L9.94110344,4.63320463 L10.7683276,4.63320463 C11.8712931,4.63320463 13.1038571,5.32911197 13.1479757,6.47444015 C13.1715198,6.71268191 13.2422191,13.4322311 13.2494083,14.1207891 L13.25,14.1776062 C13.25,14.7335907 13.0661724,15.1969112 12.6985173,15.5675675 C12.3308621,15.8455599 11.8712931,16.0308881 11.4117242,16.0308881 L11.4117242,16.0308881 L11.2278966,16.0308881 C11.044069,16.0308881 10.8602414,15.938224 10.7683276,15.938224 L10.7683276,15.938224 L10.7683276,22.1467181 C10.7683276,23.1669498 9.94110344,24 8.93005177,24 C7.919,24 7.09177594,23.5366796 7.09177594,22.3320463 L7.09177594,22.3320463 L7.09177594,15.1042471 L7.27560354,14.9189189 L8.01091385,14.9189189 L8.01091385,22.1467181 C8.01091385,22.7036294 8.37856906,23.0733591 8.93005177,23.0733591 C9.38962073,23.0733591 9.84918969,22.7036294 9.84918969,22.1467181 L9.84918969,22.1467181 L9.84918969,9.17374517 L10.4006724,9.17374517 L10.4006724,14.0849421 C10.4006724,14.5482625 10.6764139,15.011583 11.2278966,15.011583 L11.2278966,15.011583 L11.3198103,15.011583 C11.5955518,15.011583 11.7793794,14.9189189 11.9632069,14.7335907 C12.1470345,14.5482625 12.2389483,14.363861 12.2389483,14.0849421 L12.2389483,14.0849421 L12.2389483,7.04247104 L12.2389483,7.04247104 L12.2288378,6.75243243 C12.136924,6.10378378 11.5036379,5.55984556 10.7683276,5.55984556 L10.7683276,5.55984556 L4.33436216,5.55984556 C3.50713802,5.55984556 2.86374148,6.20849421 2.86374148,6.94980695 L2.86374148,6.94980695 L2.86374148,8.15444015 C2.5880001,8.24710424 2.40417252,8.43243243 2.22034494,8.61776062 C2.12843115,8.71042471 2.03651735,8.8957529 1.94460356,8.98841698 L1.94460356,8.98841698 L1.94460356,6.94980695 C1.94460356,5.74517375 3.04756906,4.63320463 4.33436216,4.63320463 L4.33436216,4.63320463 L5.16158625,4.63320463 C4.79393111,4.16988417 4.61010353,3.61389961 4.61010353,2.96525096 C4.61010353,1.29729729 5.89689667,0 7.5513449,0 Z M7.64353437,11.6760463 C7.73544823,11.6760463 7.91927583,11.6760463 8.10310333,11.8613745 C8.19501719,11.9540386 8.28693094,12.1393667 8.28693094,12.324695 C8.28693094,12.5100232 8.19501719,12.6944247 8.10310333,12.7880155 L8.10310333,12.7880155 L6.17291375,14.7339614 L6.17291375,22.9810656 C6.17291375,23.1663938 6.09754448,23.7223783 5.43760344,23.7223783 C4.7565222,23.7223783 4.70229306,23.1663938 4.70229306,22.9810656 L4.70229306,22.9810656 L4.70229306,19.4598302 L4.3346379,19.4598302 L4.3346379,22.9810656 C4.3346379,23.1663938 4.26018773,23.7223783 3.59932756,23.7223783 C2.90997411,23.7223783 2.86401722,23.1663938 2.86401722,22.9810656 L2.86401722,22.9810656 L2.86401722,14.7339614 L0.933827583,12.7880155 C0.841913792,12.6944247 0.75,12.5100232 0.75,12.324695 C0.75,12.1393667 0.841913792,11.9540386 0.933827583,11.8613745 C1.36030758,11.4490193 1.9448793,11.9540386 1.9448793,11.9540386 L1.9448793,11.9540386 L2.86401722,12.6026873 L3.78315515,13.344 L5.06994823,13.344 L7.18396542,11.8613745 C7.27587927,11.7677838 7.55162062,11.6760463 7.64353437,11.6760463 Z M4.51018964,8.80290347 C5.06167239,8.80290347 5.52124133,8.98823166 5.88889654,9.35888803 C6.25655165,9.72954438 6.44037925,10.1928649 6.44037925,10.7488494 C6.44037925,11.3048339 6.25655165,11.7681545 5.88889654,12.1388108 C5.52124133,12.5103938 5.06167239,12.6947954 4.51018964,12.6947954 C3.95870689,12.6947954 3.49913792,12.5103938 3.13148275,12.1388108 C2.76382758,11.7681545 2.58,11.3048339 2.58,10.7488494 C2.58,10.1928649 2.76382758,9.72954438 3.13148275,9.35888803 C3.49913792,8.98823166 3.95870689,8.80290347 4.51018964,8.80290347 Z M7.5513449,0.926640929 C6.44837937,0.926640929 5.52924146,1.85328186 5.52924146,2.96525096 C5.52924146,4.07722008 6.44837937,5.00386101 7.5513449,5.00386101 C8.65431042,5.00386101 9.57344833,4.07722008 9.57344833,2.96525096 C9.57344833,1.85328186 8.65431042,0.926640929 7.5513449,0.926640929 Z" id="path-1"></path>
    </defs>
    <g id="Icons/24px/Travel-&amp;-Airport/GSMC" stroke="none" stroke-width="1" fill="none" fill-rule="evenodd">
        <g id="Icon" transform="translate(5.000000, 0.000000)">
            <mask id="mask-2" fill="white">
                <use xlink:href="#path-1"></use>
            </mask>
            <use id="Mask" fill="#333333" fill-rule="nonzero" xlink:href="#path-1"></use>
            <g id="Group" mask="url(#mask-2)">
                <g transform="translate(-5.000000, 0.000000)" id="Color/Grayscale/80%">
                    <rect id="Rectangle" fill="#333333" x="0" y="0" width="24" height="24"></rect>
                </g>
            </g>
        </g>
    </g>
</svg>