<?xml version="1.0" encoding="UTF-8"?>
<svg width="24px" height="24px" viewBox="0 0 24 24" version="1.1" xmlns="http://www.w3.org/2000/svg" xmlns:xlink="http://www.w3.org/1999/xlink">
    <title>Icons/24px/Travel &amp; Airport/GSME</title>
    <defs>
        <path d="M11.8272252,4.68734912 C12.5281057,4.68734912 13.1456855,5.09568564 13.3018995,5.76067528 L13.3281745,5.90704614 L13.3281745,13.3124165 C13.3281745,13.4999179 13.2334862,13.7811702 13.0469222,13.9686716 C12.8594207,14.1561731 12.5781686,14.2499238 12.2959789,14.2499238 C11.7776094,14.2499238 11.498088,13.8505124 11.458152,13.4203771 L11.4531598,13.3124165 L11.4531598,8.34362768 L10.8897179,8.34362768 L10.8897179,22.1249853 C10.8897179,22.6874897 10.5156525,23.0624927 9.95221057,23.0624927 C9.51951489,23.0624927 9.08681922,22.7429635 9.022811,22.2513803 L9.01470324,22.1249853 L9.01470324,14.1561731 L8.26563491,14.1561731 L8.0771959,14.344612 L8.0771959,22.3134243 C8.0771959,22.782178 7.89063193,23.2509317 7.60844229,23.5312463 C7.23437683,23.8124985 6.85937385,24 6.39062024,24 C6.109368,24 5.7334276,23.9071868 5.45311291,23.7196853 C5.17186071,23.9071868 4.89060852,24 4.51560559,24 C4.04685193,24 3.57809826,23.8124985 3.29684607,23.5312463 C3.05075039,23.2031187 2.87643263,22.875709 2.83669843,22.4849552 L2.8280924,22.3134243 L2.8280924,14.344612 L1.14057922,12.6570989 C0.859327031,12.3749092 0.671825564,11.9061555 0.671825564,11.5320901 C0.671825564,11.0633364 0.859327031,10.687396 1.14057922,10.4061438 C1.55724914,10.0728078 1.89910367,9.96169585 2.16811812,9.94111958 L2.26558801,9.93739018 L2.35933875,9.93739018 L2.35933875,9.84363943 C2.35933875,9.09363354 2.64059094,8.34362768 3.20309534,7.78206079 C3.3523465,7.63130962 3.56279815,7.48115844 3.7365295,7.37960765 L3.85841295,7.31330714 L3.85841295,6.0936101 C3.77105933,5.38772224 4.34724031,4.76488 5.11799231,4.69404697 L5.26467394,4.68734912 L11.8272252,4.68734912 Z M8.73438852,10.7811468 C8.54594962,10.7811468 8.35938565,10.8748974 8.26563491,10.9686482 L8.26563491,10.9686482 L6.109368,12.4695974 L4.79592028,12.4695974 L2.73434167,10.9686482 C2.64059094,10.8748974 2.45215197,10.7811468 2.26558801,10.7811468 C2.07808655,10.7811468 1.89058508,10.8748974 1.79683435,10.9686482 C1.70308362,11.0633364 1.60933289,11.2499004 1.60933289,11.4374019 C1.60933289,11.6249034 1.70308362,11.8124047 1.79683435,11.9061555 L1.79683435,11.9061555 L3.671849,13.8758584 L3.67239291,22.3338308 C3.67565643,22.5523548 3.69850099,22.7010166 3.85841295,22.782178 C4.04685193,22.8749912 4.2343534,22.9696794 4.42185485,22.9696794 C4.70310705,22.9696794 4.79592028,22.9696794 4.98435925,22.782178 C5.07810999,22.593739 5.17186071,22.4062376 5.17186071,22.2187361 L5.17186071,22.2187361 L5.17186071,18.6562082 L5.64061438,18.6562082 L5.64116103,22.3338308 C5.64444094,22.5523548 5.6674003,22.7010166 5.82811585,22.782178 C6.01561726,22.8749912 6.20218123,22.9696794 6.39062024,22.9696794 C6.67093495,22.9696794 6.76562321,22.9696794 6.9531246,22.782178 C7.04687534,22.593739 7.13968857,22.4062376 7.13968857,22.2187361 L7.13968857,22.2187361 L7.13968857,13.8758584 L9.1093915,11.9061555 C9.1093915,11.9061555 9.6484582,11.4458394 9.20314224,10.9686482 C9.11220395,10.872085 8.92189001,10.7811468 8.73438852,10.7811468 Z M5.50782786,7.87487402 C4.94626098,7.87487402 4.47750732,8.06237549 4.10156688,8.43737841 C3.72750146,8.81238134 3.54,9.281135 3.54,9.84363943 C3.54,10.4061438 3.72750146,10.8748974 4.10156688,11.2499004 C4.47750732,11.6249034 4.94626098,11.8124047 5.50782786,11.8124047 C6.07126977,11.8124047 6.54002342,11.6249034 6.91408888,11.2499004 C7.29002927,10.8748974 7.47753076,10.4061438 7.47753076,9.84363943 C7.47753076,9.281135 7.29002927,8.81238134 6.91408888,8.43737841 C6.54002342,8.06237549 6.07126977,7.87487402 5.50782786,7.87487402 Z M8.54632457,0 C9.67133339,0 10.6088407,0.937507324 10.6088407,2.06251612 C10.6088407,3.1875249 9.67133339,4.12503222 8.54632457,4.12503222 C7.42225326,4.12503222 6.48474593,3.1875249 6.48474593,2.06251612 C6.48474593,0.937507324 7.42225326,0 8.54632457,0 Z" id="path-1"></path>
    </defs>
    <g id="Icons/24px/Travel-&amp;-Airport/GSME" stroke="none" stroke-width="1" fill="none" fill-rule="evenodd">
        <g id="Icon" transform="translate(5.000000, 0.000000)">
            <mask id="mask-2" fill="white">
                <use xlink:href="#path-1"></use>
            </mask>
            <use id="Mask" fill="#333333" fill-rule="nonzero" xlink:href="#path-1"></use>
            <g id="Group" mask="url(#mask-2)">
                <g transform="translate(-5.000000, 0.000000)" id="Color/Grayscale/80%">
                    <rect id="Rectangle" fill="#333333" x="0" y="0" width="24" height="24"></rect>
                </g>
            </g>
        </g>
    </g>
</svg>