<?xml version="1.0" encoding="UTF-8"?>
<svg width="24px" height="24px" viewBox="0 0 24 24" version="1.1" xmlns="http://www.w3.org/2000/svg" xmlns:xlink="http://www.w3.org/1999/xlink">
    <title>Icons/24px/Travel &amp; Airport/Headphones</title>
    <defs>
        <path d="M6.13212264,14.216024 C6.46812936,14.216024 6.73213464,14.4816908 6.73213464,14.8198123 L6.73213464,14.8198123 L6.73213464,21.8962117 C6.73213464,22.2222574 6.46812936,22.5 6.13212264,22.5 L6.13212264,22.5 L3.3600672,22.5 C2.9600592,22.5 2.7600552,22.2303079 2.7600552,21.6909236 L2.7600552,21.6909236 L0.600012,21.6909236 C0.26400528,21.6909236 0,21.413181 0,21.0871353 L0,21.0871353 L0,15.6288887 C0,15.2907672 0.26400528,15.0251003 0.600012,15.0251003 L0.600012,15.0251003 L2.7600552,15.0251003 C2.7600552,14.4857161 2.9600592,14.216024 3.3600672,14.216024 L3.3600672,14.216024 Z M20.6279326,14.216024 C21.0279406,14.216024 21.2279446,14.4857161 21.2279446,15.0251003 L21.2279446,15.0251003 L23.399988,15.0251003 C23.7239945,15.0251003 24,15.2907672 24,15.6288887 L24,15.6288887 L24,21.0871353 C24,21.413181 23.7239945,21.6909236 23.399988,21.6909236 L23.399988,21.6909236 L21.2279446,21.6909236 C21.2279446,22.2303079 21.0279406,22.5 20.6279326,22.5 L20.6279326,22.5 L17.8558771,22.5 C17.5198704,22.5 17.2558651,22.2222574 17.2558651,21.8962117 L17.2558651,21.8962117 L17.2558651,14.8198123 C17.2558651,14.4816908 17.5198704,14.216024 17.8558771,14.216024 L17.8558771,14.216024 Z M12.00024,1.5 C15.7083142,1.5 18.8163763,3.04569815 20.6764135,5.54538188 C21.9124382,7.18768617 22.6084522,9.22849076 22.6084522,11.5349622 C22.6084522,11.7402503 22.5964519,11.9455383 22.5844517,12.1629021 C22.5604512,12.4889478 22.2604452,12.7425389 21.9364387,12.7183874 C21.6124322,12.6821601 21.3604272,12.3923417 21.3844277,12.066296 C21.3924278,11.9455383 21.400428,11.768427 21.4084282,11.5349622 C21.4084282,9.15603616 20.5564111,7.07900427 19.0803816,5.54538188 C17.4123482,3.77024416 14.9162983,2.70757668 12.00024,2.70757668 C9.07218144,2.70757668 6.58813176,3.77024416 4.90809816,5.54538188 C3.44406888,7.07900427 2.5800516,9.15603616 2.5800516,11.5349622 C2.5800516,11.704023 2.59205184,11.8851595 2.60405208,12.066296 C2.62805256,12.3923417 2.37604752,12.6821601 2.05204104,12.7183874 L2.05204104,12.7183874 L2.00404008,12.7183874 C1.69203384,12.7183874 1.42802856,12.476872 1.40402808,12.1629021 C1.39202784,11.9455383 1.3800276,11.7402503 1.3800276,11.5349622 C1.3800276,9.22849076 2.07604152,7.18768617 3.31206624,5.54538188 C5.18410368,3.04569815 8.2801656,1.5 12.00024,1.5 Z" id="path-1"></path>
    </defs>
    <g id="Icons/24px/Travel-&amp;-Airport/Headphones" stroke="none" stroke-width="1" fill="none" fill-rule="evenodd">
        <mask id="mask-2" fill="white">
            <use xlink:href="#path-1"></use>
        </mask>
        <use id="Mask" fill="#0C2340" fill-rule="nonzero" xlink:href="#path-1"></use>
        <g id="Group" mask="url(#mask-2)" fill="#333333">
            <g id="Color/Grayscale/80%">
                <rect id="Rectangle" x="0" y="0" width="24" height="24"></rect>
            </g>
        </g>
    </g>
</svg>