<?xml version="1.0" encoding="UTF-8"?>
<svg width="24px" height="24px" viewBox="0 0 24 24" version="1.1" xmlns="http://www.w3.org/2000/svg" xmlns:xlink="http://www.w3.org/1999/xlink">
    <title>Icons/24px/Travel &amp; Airport/Infant</title>
    <defs>
        <path d="M4.31237449,5.04120089 L7.42922788,18.8413843 C8.10824462,20.978162 9.18132516,21.9226492 10.7624807,21.9226492 L16.8269268,21.9226492 C17.4017135,21.9226492 17.8676702,22.3886059 17.8676702,22.9633926 C17.8676702,23.5381793 17.4017135,24.004136 16.8269268,24.004136 L10.7624807,24.004136 C8.18976267,24.004136 6.37942974,22.4107455 5.42224883,19.3861302 L2.28215124,5.50030944 C2.15537191,4.93967877 2.50707792,4.38242287 3.06770859,4.25564354 C3.62833926,4.12886421 4.18559517,4.48057022 4.31237449,5.04120089 Z M8.1943823,5.40721525 C9.31292125,5.16602297 10.4174102,5.88023312 10.6578219,6.99799151 L10.6578219,6.99799151 L11.8138531,12.1460137 L17.5582338,12.1460137 C18.1256991,12.1460137 18.6229143,12.4356006 18.9156234,12.875835 C19.1109532,13.1086768 19.6508528,15.1697924 20.535322,19.0591818 C20.6617723,19.7499752 20.2059267,20.4173519 19.5112305,20.5461439 C18.8196565,20.6741553 18.1522798,20.2167486 18.0242684,19.5236135 L18.0242684,19.5236135 L16.9088099,15.405622 L9.99593455,15.405622 L9.98422619,15.4040609 C9.01321262,15.4227943 8.13352428,14.754637 7.91652928,13.7680123 L7.91652928,13.7680123 L6.60282549,7.86987428 C6.36163321,6.75211589 7.07350168,5.64840753 8.1943823,5.40721525 Z M10.6285793,16.5176973 L14.1975867,16.6184834 C14.9824755,16.640648 15.6817808,17.1200418 15.985478,17.8441341 L16.3027178,18.6005152 C16.6024106,19.3150598 16.2661068,20.1372617 15.5515622,20.4369545 C15.3797273,20.5090252 15.1952571,20.5461439 15.0089203,20.5461439 L11.169747,20.5461439 C10.2733471,20.5461439 9.48643291,19.9497059 9.24417212,19.0866633 L9.08004095,18.5019538 C8.84681015,17.6710801 9.33129545,16.8084529 10.1621692,16.5752221 C10.3138503,16.5326444 10.4710983,16.5132502 10.6285793,16.5176973 Z M5.45579326,1.96939031 C5.6462493,0.703325992 6.83035508,-0.165434544 8.09329717,0.0265826096 C9.36170317,0.219380321 10.2273415,1.40426666 10.0353243,2.66642819 C9.84330717,3.93171196 8.65998194,4.80125305 7.39469818,4.60611367 C6.12941441,4.41331596 5.26221499,3.23233241 5.45579326,1.96939031 Z" id="path-1"></path>
    </defs>
    <g id="Icons/24px/Travel-&amp;-Airport/Infant" stroke="none" stroke-width="1" fill="none" fill-rule="evenodd">
        <mask id="mask-2" fill="white">
            <use xlink:href="#path-1"></use>
        </mask>
        <use id="Mask" fill="#0C2340" fill-rule="nonzero" xlink:href="#path-1"></use>
        <g id="Group" mask="url(#mask-2)" fill="#333333">
            <g id="Color/Grayscale/80%">
                <rect id="Rectangle" x="0" y="0" width="24" height="24"></rect>
            </g>
        </g>
    </g>
</svg>