<?xml version="1.0" encoding="UTF-8"?>
<svg width="24px" height="24px" viewBox="0 0 24 24" version="1.1" xmlns="http://www.w3.org/2000/svg" xmlns:xlink="http://www.w3.org/1999/xlink">
    <title>Icons/24px/Travel &amp; Airport/Lap infant</title>
    <defs>
        <path d="M13.0221873,15.2690095 L13.15968,15.4074798 C13.3616975,15.6109205 13.7578922,16.0098572 14.1545511,16.4089835 L14.9346491,17.1933688 C14.9772903,17.2361903 15.0171172,17.2761687 15.053565,17.3127346 L15.2271843,17.4866236 C15.268529,17.5278996 15.291839,17.55097 15.2925968,17.5512796 C16.0139666,18.2817107 15.8274095,19.5672888 15.1429722,20.2679501 L11.9861798,23.5769203 C10.7671665,24.79891 9.13786947,23.1025091 10.3216075,21.9179102 L12.3237818,19.9021391 L10.363275,17.9435261 L13.0221873,15.2690095 Z M5.04510892,15.2690095 L7.7056784,17.9435261 L5.75890293,19.9021391 L7.75799967,21.9179102 C8.93581885,23.1025091 7.30628526,24.79891 6.09177004,23.5769203 L6.09177004,23.5769203 L2.92266674,20.2679501 C2.24604212,19.5672888 2.05948501,18.2817107 2.78701037,17.5512796 C2.78701037,17.5498863 3.24427533,17.0875874 3.74726678,16.5794799 L4.08485251,16.2385104 C4.42018015,15.8998649 4.7351849,15.5818574 4.90792944,15.4074798 L5.02873772,15.2855339 L5.02873772,15.2855339 L5.04510892,15.2690095 Z M9.31925845,7.93988495 C11.3492996,7.93988495 12.600665,8.35999601 13.4552915,9.10281145 C13.5045328,9.1455013 13.5853151,9.22288511 13.6903144,9.32703836 L13.9304321,9.56868949 C14.958021,10.6138393 17.1220322,12.9219164 17.1220322,12.9219164 C17.602244,13.3620328 17.6289359,14.101752 17.1788132,14.5747343 C16.944895,14.821228 16.626048,14.9453084 16.3084142,14.9453084 C16.0157738,14.9453084 15.7236187,14.8431386 15.4945536,14.6323686 L15.4945536,14.6323686 L12.6984544,12.070739 L12.6494384,14.3237156 L5.35065646,14.3237156 L5.3016404,12.070739 L2.50529868,14.6323686 C2.27623354,14.8429004 1.98383578,14.9453084 1.69168067,14.9453084 C1.37428957,14.9453084 1.05495725,14.821228 0.821281695,14.5747343 C0.370916354,14.101752 0.397850911,13.3622709 0.878062667,12.9219164 C0.878062667,12.9219164 3.04207381,10.614 4.06979726,9.56877559 L4.30995313,9.32709939 C4.4149731,9.22293068 4.49577866,9.14552683 4.54504604,9.10281145 C5.39967251,8.35999601 6.65103787,7.93988495 8.68107909,7.93988495 L8.68107909,7.93988495 L9.31925845,7.93988495 Z M9.14917933,0 C11.1591491,0 12.7895427,1.63803239 12.7895427,3.65980517 C12.7895427,5.69188503 11.1591491,7.32912457 9.14917933,7.32912457 C7.1360594,7.32912457 5.50382842,5.69214932 5.50382842,3.66006945 C5.50382842,1.63803239 7.1360594,0 9.14917933,0 Z" id="path-1"></path>
    </defs>
    <g id="Icons/24px/Travel-&amp;-Airport/Lap-infant" stroke="none" stroke-width="1" fill="none" fill-rule="evenodd">
        <g id="Icon" transform="translate(3.000000, 0.000000)">
            <mask id="mask-2" fill="white">
                <use xlink:href="#path-1"></use>
            </mask>
            <use id="Mask" fill="#000000" fill-rule="nonzero" xlink:href="#path-1"></use>
            <g id="Group" mask="url(#mask-2)">
                <g transform="translate(-3.000000, 0.000000)" id="Color/Grayscale/80%">
                    <rect id="Rectangle" fill="#333333" x="0" y="0" width="24" height="24"></rect>
                </g>
            </g>
        </g>
    </g>
</svg>