<?xml version="1.0" encoding="UTF-8"?>
<svg width="24px" height="24px" viewBox="0 0 24 24" version="1.1" xmlns="http://www.w3.org/2000/svg" xmlns:xlink="http://www.w3.org/1999/xlink">
    <title>Icons/24px/Travel &amp; Airport/Live tv</title>
    <defs>
        <path d="M23.376,2.5 C23.724,2.5 24,2.76455696 24,3.11329114 L24,3.11329114 L24,17.0867089 C24,17.4234177 23.724,17.7 23.376,17.7 L23.376,17.7 L12.612,17.7 L12.612,20.2734177 L14.844,20.2734177 C15.18,20.2734177 15.456,20.55 15.456,20.8867089 C15.456,21.2234177 15.18,21.5 14.844,21.5 L14.844,21.5 L9.144,21.5 C8.808,21.5 8.532,21.2234177 8.532,20.8867089 C8.532,20.55 8.808,20.2734177 9.144,20.2734177 L9.144,20.2734177 L11.376,20.2734177 L11.376,17.7 L0.612,17.7 C0.276,17.7 0,17.4234177 0,17.0867089 L0,17.0867089 L0,3.11329114 C0,2.76455696 0.276,2.5 0.612,2.5 L0.612,2.5 Z M17.5095318,6.18838233 C17.2966078,5.9589502 16.9379989,5.93709952 16.6914553,6.13375563 C16.4561183,6.34133708 16.4337052,6.70187328 16.6466292,6.93130541 C17.4198796,7.77255654 17.8457277,8.86509048 17.8457277,10.0013258 C17.8457277,11.1375611 17.4198796,12.2191697 16.6466292,13.0713462 C16.4337052,13.3007783 16.4561183,13.6503891 16.6914553,13.8579706 C16.8035206,13.9562986 16.9379989,14 17.0724773,14 C17.2405752,14 17.3974666,13.934448 17.5095318,13.8142692 C18.4732932,12.7654366 19,11.4106946 19,10.0013258 C19,8.591957 18.4732932,7.23721491 17.5095318,6.18838233 Z M8.5,6.5 C6.56700338,6.5 5,8.06700338 5,10 C5,11.9329966 6.56700338,13.5 8.5,13.5 C10.4329966,13.5 12,11.9329966 12,10 C12,8.06700338 10.4329966,6.5 8.5,6.5 Z M14.4813595,7.1958796 C14.2863007,6.9650339 13.9395295,6.93205595 13.7011243,7.12992369 C13.4627191,7.32779143 13.4302093,7.69054895 13.6361047,7.92139465 C14.1129151,8.50400522 14.3838301,9.24051292 14.3838301,9.99900593 C14.3838301,10.7574989 14.1129151,11.4940066 13.6361047,12.0656246 C13.4410459,12.3074629 13.4627191,12.6592278 13.7011243,12.8570955 C13.7986537,12.9560294 13.9286929,13 14.0587321,13 C14.2104445,13 14.3729935,12.9340441 14.4813595,12.8021323 C15.1315556,12.0216539 15.5,11.0213226 15.5,9.99900593 C15.5,8.97668927 15.1315556,7.98735057 14.4813595,7.1958796 Z M8.1,8.10090779 L10.1,9.60090779 C10.3666667,9.80090779 10.3666667,10.2009078 10.1,10.4009078 L8.1,11.9009078 C7.77038187,12.1481214 7.3,11.9129305 7.3,11.5009078 L7.3,8.50090779 C7.3,8.08888513 7.77038187,7.8536942 8.1,8.10090779 Z" id="path-1"></path>
    </defs>
    <g id="Icons/24px/Travel-&amp;-Airport/Live-tv" stroke="none" stroke-width="1" fill="none" fill-rule="evenodd">
        <mask id="mask-2" fill="white">
            <use xlink:href="#path-1"></use>
        </mask>
        <use id="Mask" fill="#0C2340" fill-rule="nonzero" xlink:href="#path-1"></use>
        <g id="Group" mask="url(#mask-2)" fill="#333333">
            <g id="Color/Grayscale/80%">
                <rect id="Rectangle" x="0" y="0" width="24" height="24"></rect>
            </g>
        </g>
    </g>
</svg>