<?xml version="1.0" encoding="UTF-8"?>
<svg width="24px" height="24px" viewBox="0 0 24 24" version="1.1" xmlns="http://www.w3.org/2000/svg" xmlns:xlink="http://www.w3.org/1999/xlink">
    <title>Icons/24px/Digital/Map</title>
    <defs>
        <path d="M12,0 C18.624,0 24,5.376 24,12 C24,18.624 18.624,24 12,24 C5.364,24 -2.73558953e-12,18.624 -2.73558953e-12,12 C-2.73558953e-12,5.376 5.364,0 12,0 Z M15.18,21.96 C14.7,22.02 14.256,22.068 13.896,22.26 C13.764,22.32 13.668,22.464 13.536,22.5 C13.452,22.512 13.332,22.452 13.248,22.464 C13.068,22.488 12.804,22.668 12.552,22.788 C13.668,22.728 14.748,22.5 15.744,22.128 C15.66,22.092 15.588,22.08 15.48,22.14 C15.48,21.972 15.192,22.104 15.18,21.96 Z M8.064,21.06 C7.944,20.784 7.32,20.904 7.344,21.3 C7.356,21.432 7.44,21.42 7.464,21.6 C7.332,21.54 7.308,21.36 7.128,21.336 C7.212,21.276 7.2,21.132 7.068,21.12 C7.01142857,21.1097143 6.99453061,21.139102 6.98896793,21.1798251 L6.98455977,21.2679883 C6.98253061,21.2968163 6.97714286,21.3222857 6.96,21.336 C6.804,21.336 6.816,21.3 6.684,21.336 C6.684,21.36 6.696,21.384 6.708,21.408 C6.78,21.456 6.852,21.492 6.924,21.528 C6.972,21.528 7.032,21.516 7.068,21.48 C7.104,21.54 7.128,21.588 7.128,21.636 C7.284,21.72 7.452,21.792 7.62,21.864 L7.62,21.864 L7.644,21.864 C7.704,21.876 7.632,21.78 7.608,21.78 C7.668,21.696 7.74,21.864 7.764,21.924 C8.136,22.092 8.532,22.236 8.928,22.356 C8.472,22.08 8.136,21.672 7.704,21.36 C7.692,21.132 7.884,21.108 8.064,21.06 Z M6.744,2.568 C6.048,2.952 5.4,3.42 4.812,3.936 L4.812,3.936 L4.812,3.948 C4.884,4.104 4.896,4.428 4.656,4.44 C4.596,4.344 4.596,4.236 4.62,4.128 C3.264,5.388 2.244,6.984 1.692,8.796 C1.752,8.904 1.836,9.024 1.86,9.144 C1.884,9.264 1.824,9.336 1.836,9.444 C1.872,9.792 2.148,9.84 2.46,10.068 C2.604,10.104 2.58,9.984 2.688,9.984 C2.784,10.38 3.36,10.284 3.384,10.752 C3.444,10.848 3.576,10.872 3.588,11.028 C3.744,10.992 3.732,11.136 3.912,11.148 C3.972,11.1 3.924,10.956 4.032,10.968 C4.188,11.088 4.2,11.364 4.188,11.652 C4.068,11.916 3.708,12.312 3.972,12.6 C3.744,12.84 3.984,13.224 4.188,13.32 C4.296,13.752 4.464,14.124 4.716,14.412 C4.968,14.472 5.064,14.664 5.196,14.832 C5.196,15.468 5.28,16.02 5.34,16.56 C5.388,16.86 5.28,17.16 5.292,17.46 C5.304,17.868 5.604,18.12 5.556,18.564 C5.508,18.564 5.436,18.552 5.436,18.588 C5.388,18.768 5.556,18.732 5.58,18.828 C5.712,19.26 5.808,19.728 6.216,19.872 C6.3,19.884 6.228,19.728 6.3,19.728 C6.336,19.644 6.312,19.98 6.216,19.968 C6.348,20.148 6.744,20.256 6.984,20.172 C6.72,19.98 6.48,19.764 6.336,19.452 C6.42,19.32 6.492,19.176 6.564,19.044 C6.552,18.9 6.396,18.888 6.336,18.804 C6.312,18.672 6.468,18.732 6.516,18.684 C6.468,18.636 6.48,18.528 6.48,18.444 C6.516,18.396 6.624,18.432 6.624,18.348 C6.648,18.204 6.396,18.312 6.42,18.144 C6.492,18.168 6.576,18.18 6.684,18.18 C6.732,18.072 6.684,17.976 6.684,17.88 C7.128,18.024 7.38,17.7 7.164,17.376 C7.248,17.376 7.356,17.352 7.404,17.4 C7.752,17.196 7.872,16.752 8.124,16.44 C8.136,16.308 8.064,16.236 8.088,16.092 C8.208,15.912 8.448,15.852 8.592,15.696 C8.736,15.684 8.844,15.744 8.952,15.696 C9.228,15.588 9.336,14.748 9.288,14.268 C9.396,14.184 9.972,13.596 9.852,13.26 C9.72,12.888 8.904,12.516 8.364,12.576 C8.284,12.396 8.13733333,12.3308148 7.97544033,12.2837366 L7.77715226,12.2297449 C7.71081481,12.2105185 7.64533333,12.188 7.584,12.156 C7.488,11.628 7.26,11.208 6.564,11.268 C6.432,10.968 6.012,10.848 5.976,10.548 C5.784,10.524 5.652,10.56 5.592,10.668 C5.472,10.596 5.424,10.632 5.256,10.632 C5.208,10.524 5.088,10.488 5.052,10.368 C4.908,10.368 4.932,10.464 4.872,10.332 C4.62,10.452 4.38,10.56 4.308,10.848 C4.2,10.788 3.96,10.716 3.768,10.848 C3.456,10.584 3.972,9.684 3.204,9.924 C3.264,9.672 3.36,9.468 3.408,9.204 C3.372,9.18 3.336,9.168 3.312,9.156 C3.396,9.048 3.54,9 3.756,9.012 C3.756,8.604 3.312,8.604 2.988,8.688 C2.928,8.592 2.808,8.484 2.652,8.388 C2.736,8.268 2.832,8.172 2.964,8.136 C3.108,8.124 3.108,8.244 3.24,8.256 C3.312,8.22 3.336,8.136 3.324,8.016 C3.552,7.968 3.576,8.064 3.768,8.016 C3.792,8.268 3.852,8.496 3.948,8.664 C4.10072727,8.53309091 4.10469421,8.35507438 4.08499474,8.1671405 L4.0580015,7.93923967 C4.04310744,7.78730579 4.04509091,7.63854545 4.128,7.512 C4.296,7.26 4.596,7.26 4.692,6.948 C4.704,6.84 4.668,6.804 4.668,6.732 C4.836,6.624 4.896,6.384 4.992,6.192 C5.184,6.132 5.232,5.928 5.436,5.868 C5.472,5.748 5.34,5.808 5.376,5.688 C5.46,5.496 5.724,5.472 5.856,5.34 C5.8632,5.3496 5.86656,5.36208 5.868,5.376384 L5.86896,5.475648 C5.87184,5.5104 5.8824,5.544 5.916,5.568 C6.108,5.436 6.36,5.364 6.54,5.22 C6.564,5.088 6.492,5.052 6.396,5.04 C6.396,4.956 6.516,4.98 6.516,4.884 C6.492,4.788 6.288,4.86 6.216,4.8 C6.24,4.536 6.492,4.68 6.66,4.56 C6.684,4.416 6.468,4.512 6.42,4.44 C6.612,4.344 6.936,4.38 6.96,4.116 C7.224,4.068 7.368,3.9 7.428,3.672 C7.416,3.516 7.2,3.564 7.224,3.372 C7.116,3.384 7.032,3.36 6.96,3.336 C6.888,3.072 6.828,2.808 6.744,2.568 Z M14.556,2.184 C14.508,2.124 14.388,2.148 14.292,2.148 C14.148,2.232 14.172,2.484 14.052,2.592 C14.04,2.688 14.196,2.604 14.172,2.712 C14.184,2.832 14.028,2.748 14.016,2.712 C13.824,2.796 13.776,2.952 13.548,2.928 C13.572,3.036 13.584,3.168 13.572,3.312 C13.644,3.384 13.788,3.396 13.836,3.492 C14.016,3.456 14.148,3.384 14.232,3.252 L14.232,3.252 L14.232,2.976 C14.304,2.952 14.364,2.916 14.472,2.928 C14.436,3.036 14.556,3.012 14.532,3.132 C14.46,3.132 14.376,3.12 14.352,3.156 C14.328,3.276 14.4,3.288 14.376,3.396 C14.304,3.396 14.232,3.396 14.196,3.432 C14.208,3.504 14.268,3.54 14.376,3.516 C14.364,3.636 14.232,3.66 14.196,3.756 C14.412,3.828 14.76,3.78 14.94,3.72 C14.88,3.876 15.036,3.804 15.036,3.9 C14.736,3.756 14.736,4.02 14.376,3.96 C14.34,4.008 14.352,4.092 14.352,4.176 C14.616,4.308 15,4.464 14.82,4.944 C14.4,5.016 13.932,4.716 13.692,4.98 C13.872,5.34 13.656,5.7 13.728,6.048 C13.896,6.096 14.16,6.072 14.256,6.192 C14.172,6.276 14.076,6.36 14.076,6.528 C13.644,6.624 13.704,7.224 13.428,7.476 C13.0843636,7.60581818 12.9010909,7.896 12.7359309,8.19810969 L12.5954831,8.45651991 C12.5479339,8.54132231 12.4985455,8.62363636 12.444,8.7 C12.696,8.964 12.576,9.54 12.408,9.804 C12.456,9.912 12.528,9.972 12.492,10.164 C12.588,10.308 12.744,10.38 12.888,10.464 C13.092,10.932 13.332,11.532 13.836,11.592 C14.064,11.616 14.172,11.424 14.376,11.412 C14.568,11.4 14.616,11.544 14.82,11.556 C14.898,11.535 14.97375,11.50275 15.048375,11.467125 L15.27,11.358 C15.417,11.289 15.564,11.238 15.72,11.268 C15.972,11.304 16.152,11.76 16.464,11.532 C16.572,11.736 16.524,12.156 16.428,12.336 C16.548,12.72 16.836,12.924 16.908,13.344 C17.472,13.74 16.824,14.34 16.872,14.868 C16.908,15.132 17.136,15.324 17.172,15.612 C17.244,16.164 17.412,16.572 17.688,16.98 C17.688,17.064 17.58,17.04 17.628,17.16 C17.6856,17.4096 17.8524267,17.3861333 18.0392782,17.3262578 L18.1817778,17.2782222 C18.3013333,17.2386667 18.42,17.208 18.516,17.244 C18.548,17.224 18.5805926,17.2045926 18.6133827,17.1853827 L18.8093333,17.0693333 C19.0013333,16.9493333 19.172,16.808 19.236,16.56 C19.62,16.416 19.632,15.912 19.824,15.576 L19.824,15.576 L19.98,15.576 C20.088,15.42 20.1,15.084 19.98,14.928 C20.112,14.64 20.364,14.484 20.604,14.304 C20.616,13.932 20.76,13.692 20.664,13.404 C20.616,13.272 20.436,13.2 20.424,13.08 C20.352,12.612 20.976,12.48 21.024,11.976 C21.096,11.952 21.132,11.892 21.204,11.856 C21.3,11.34 21.66,10.932 21.612,10.368 C21.396,10.476 21.12,10.5 20.904,10.548 C20.82,10.452 20.952,10.38 20.988,10.308 C20.748,9.936 20.256,9.528 20.34,9.024 C20.136,8.772 19.92,8.376 19.884,8.04 C20.076,8.004 20.136,8.328 20.184,8.52 C20.22,8.64 20.34,8.664 20.4,8.76 C20.424,9.312 20.844,9.468 20.868,10.008 C20.988,10.104 20.976,10.332 21.144,10.368 C21.264,10.392 21.228,10.26 21.228,10.164 C21.552,9.948 21.936,9.792 22.212,9.54 C22.212,9.312 22.344,9.288 22.332,9.12 C22.308,8.928 22.056,8.856 22.056,8.64 C22.14,8.652 22.212,8.664 22.272,8.688 C22.044,7.944 21.72,7.236 21.324,6.576 C20.952,6.552 20.808,6.264 20.916,5.904 C20.124,4.764 19.128,3.78 17.976,3.012 C17.976,3.012 17.988,3.024 17.988,3.036 C17.892,3.048 17.88,2.964 17.844,2.928 C17.82,2.904 17.796,2.892 17.772,2.892 L17.772,2.892 L17.748,2.892 C17.556,2.952 17.604,3.264 17.508,3.432 C17.148,3.3 16.824,3.588 16.524,3.312 C16.62,3.108 16.392,3.12 16.32,3.012 C16.392,2.796 16.404,2.7 16.32,2.472 C15.912,2.496 15.972,2.928 16.104,3.192 C15.972,3.204 15.756,3.192 15.6,3.252 C15.504,3.372 15.48,3.576 15.24,3.552 C15.144,3.468 15.348,3.396 15.24,3.312 C15.204,3.252 15.096,3.264 15.036,3.216 C15.024,3.012 14.916,2.928 14.76,2.856 C14.784,2.748 14.808,2.652 14.64,2.652 C14.628,2.532 14.736,2.532 14.736,2.412 C14.712,2.34 14.64,2.316 14.532,2.328 C14.496,2.244 14.568,2.244 14.556,2.184 Z M9.456,1.5 C9.144,1.572 8.844,1.668 8.544,1.776 C8.508,1.872 8.52,1.92 8.592,1.992 C8.712,2.016 8.772,1.968 8.868,1.968 C8.928,2.004 8.94,2.088 9.012,2.112 C9.24,1.98 9.54,1.776 9.456,1.5 Z" id="path-1"></path>
    </defs>
    <g id="Icons/24px/Digital/Map" stroke="none" stroke-width="1" fill="none" fill-rule="evenodd">
        <mask id="mask-2" fill="white">
            <use xlink:href="#path-1"></use>
        </mask>
        <use id="Mask" fill="#0C2340" fill-rule="nonzero" xlink:href="#path-1"></use>
        <g id="Group" mask="url(#mask-2)" fill="#333333">
            <g id="Color/Grayscale/80%">
                <rect id="Rectangle" x="0" y="0" width="24" height="24"></rect>
            </g>
        </g>
    </g>
</svg>