<?xml version="1.0" encoding="UTF-8"?>
<svg width="24px" height="24px" viewBox="0 0 24 24" version="1.1" xmlns="http://www.w3.org/2000/svg" xmlns:xlink="http://www.w3.org/1999/xlink">
    <title>Icons/24px/Digital/Microphone/Off</title>
    <defs>
        <path d="M5.77778765,10 C6.14987116,10 6.46093013,10.2687704 6.53750415,10.6278761 L6.5532461,10.7378413 L6.55556485,10.8000834 L6.55100522,10.861533 L6.55183152,13.000454 L6.54778708,13.0068547 L6.55183152,13.0932637 L6.55,13.3 C6.55354627,16 9.0613294,18.4573358 11.8354276,18.5562329 L12.1496496,18.5562329 C12.8531155,18.5315755 13.5398973,18.355147 14.1732466,18.0630279 L15.2640479,19.1518656 C14.5085472,19.5680897 13.6680623,19.8479914 12.7715602,19.9579789 L12.7715602,22.3902323 L16.27,22.3902323 L16.2690052,22.402533 L16.323317,22.4071371 C16.7029506,22.4601159 16.9955544,22.7948656 16.9955544,23.1999166 C16.9955544,23.588409 16.7263852,23.9122304 16.3694254,23.9848005 L16.27,24 L7.73,24 L7.72900522,23.996533 L7.67223744,23.9926962 C7.29260381,23.9397174 6.99998959,23.6049677 6.99998959,23.1999166 C6.99998959,22.7748761 7.32219682,22.4272469 7.72905411,22.4013777 L7.73,22.3902323 L11.2315614,22.3902323 L11.2315614,19.9579789 C7.67612375,19.5329329 4.99568201,16.4328462 4.99998959,12.750828 L5.00592156,12.6516177 L5.0036688,10.8781834 L4.99998959,10.8000834 L4.99998959,10.8000834 C4.99998959,10.3582095 5.34823317,10 5.77778765,10 Z M2.28238813,0.524994189 L2.38388348,0.616116524 L23.3838835,21.6161165 C23.8720388,22.1042719 23.8720388,22.8957281 23.3838835,23.3838835 C22.9282718,23.8394952 22.2084514,23.8698693 21.7176119,23.4750058 L21.6161165,23.3838835 L0.616116524,2.38388348 C0.127961159,1.89572811 0.127961159,1.10427189 0.616116524,0.616116524 C1.0717282,0.16050485 1.79154862,0.130130738 2.28238813,0.524994189 Z M8.00150528,11.8903389 L12.9750197,16.8648246 C11.8345744,17.1846882 10.5851762,16.9368854 9.61354574,16.1214164 C8.93127627,15.580143 8.43660642,14.8138847 8.20670211,13.9421736 C8.10239215,13.5274837 8.04094272,13.1019221 8.02344533,12.6730481 C8.00956759,12.4168318 8.0038382,12.1533016 8.00150528,11.8903389 Z M18.2222228,9.91853295 C18.6517773,9.91853295 19,10.2767425 19,10.7186163 L18.9970052,10.749533 L18.9972,12.750828 L18.9878667,12.750828 C18.9882804,13.464498 18.8879283,14.1563346 18.6999538,14.8110963 L17.4371136,13.5472562 L17.44,13.394095 L17.4385345,10.7282173 L17.443713,10.7232671 C17.4444456,10.2767425 17.7926683,9.91853295 18.2222228,9.91853295 Z M11.9941075,0 C13.7586158,0 15.306964,1.25057935 15.7809208,3.0585566 C15.8922223,3.47255764 15.9616942,3.89800586 15.9881579,4.32768208 L15.9971821,4.65811918 L15.9963912,6.06848982 L15.9884895,7.12719211 L15.9875658,11.2212694 C15.9875658,11.5063911 15.9875658,11.8005701 15.9824605,12.0929452 L8.01099479,4.122 L8.01400195,4.06942592 C8.03493447,3.81186006 8.07660892,3.55667821 8.1385775,3.30669824 L8.20729422,3.0585566 C8.68125103,1.25057935 10.2295992,0 11.9941075,0 Z" id="path-1"></path>
    </defs>
    <g id="Icons/24px/Digital/Microphone/Off" stroke="none" stroke-width="1" fill="none" fill-rule="evenodd">
        <g id="Icon">
            <mask id="mask-2" fill="white">
                <use xlink:href="#path-1"></use>
            </mask>
            <use id="Mask" fill="#333333" xlink:href="#path-1"></use>
            <g id="Group" mask="url(#mask-2)" fill="#333333">
                <g id="Color/Grayscale/80%">
                    <rect id="Rectangle" x="0" y="0" width="24" height="24"></rect>
                </g>
            </g>
        </g>
    </g>
</svg>