<?xml version="1.0" encoding="UTF-8"?>
<svg width="24px" height="24px" viewBox="0 0 24 24" version="1.1" xmlns="http://www.w3.org/2000/svg" xmlns:xlink="http://www.w3.org/1999/xlink">
    <title>Icons/24px/Digital/Microphone/On</title>
    <defs>
        <path d="M13.2222228,9.91853295 C13.6517773,9.91853295 14.0000052,10.2767425 14.0000052,10.7186163 L13.9970052,10.749533 L13.9972,12.750828 L13.9878667,12.750828 C13.9899972,16.426319 11.3194366,19.5227071 7.77156021,19.9579789 L7.77156021,22.3902323 L11.27,22.3902323 L11.2690052,22.402533 L11.323317,22.4071371 C11.7029506,22.4601159 11.9955544,22.7948656 11.9955544,23.1999166 C11.9955544,23.588409 11.7263852,23.9122304 11.3694254,23.9848005 L11.27,24 L2.73,24 L2.72900522,23.996533 L2.67223744,23.9926962 C2.29260381,23.9397174 2.00000522,23.6049677 2.00000522,23.1999166 C2.00000522,22.7748761 2.32219682,22.4272469 2.72905411,22.4013777 L2.73,22.3902323 L6.23156136,22.3902323 L6.23156136,19.9579789 C2.67612375,19.5329329 -0.00431798523,16.4328462 5.22211212e-06,12.750828 L0.00592156356,12.6516177 L0.00366880198,10.8781834 C0.00124877095,10.8524864 5.22211212e-06,10.8264336 5.22211212e-06,10.8000834 C5.22211212e-06,10.3582095 0.348233169,10 0.777787654,10 C1.14987116,10 1.46093013,10.2687704 1.53750415,10.6278761 L1.5532461,10.7378413 L1.55556485,10.8000834 L1.55100522,10.861533 L1.55183152,13.000454 L1.54778708,13.0068547 L1.55183152,13.0932637 L1.55,13.3 C1.55354627,16 4.0613294,18.4573358 6.83542757,18.5562329 L7.14964956,18.5562329 C9.92463574,18.458966 12.44,16 12.44,13.394095 L12.4385345,10.7282173 L12.443713,10.7232671 C12.4444456,10.2767425 12.7926683,9.91853295 13.2222228,9.91853295 Z M6.99410752,0 C8.75861584,0 10.306964,1.25057935 10.7809208,3.0585566 C10.8922223,3.47255764 10.9616942,3.89800586 10.9881579,4.32768208 C10.9952632,4.45448966 10.9985789,4.68722215 10.9996211,4.96932654 L10.9996684,5.42244295 C10.9979632,6.05711906 10.9901947,6.77617679 10.9884895,7.12719211 L10.9881579,11.2212694 L10.9875658,11.2212694 C10.9875658,11.6967978 10.9875658,12.1975197 10.9638815,12.6730481 C10.9457008,13.1018721 10.8841617,13.5273667 10.7803287,13.9421736 C10.5486351,14.8128279 10.0545765,15.5784618 9.37407719,16.1214164 C7.97830194,17.2928612 6.00932099,17.2928612 4.61354574,16.1214164 C3.93127627,15.580143 3.43660642,14.8138847 3.20670211,13.9421736 C3.10239215,13.5274837 3.04094272,13.1019221 3.02344533,12.6730481 C2.99768873,12.1975197 3,11.6967978 3,11.2212694 L3,7.24068722 L3.00002665,7.13400209 L3.00002665,7.13400209 L3.00090959,5.73930862 C3.00094749,5.66116923 3.00098065,5.58326356 3.0010073,5.50640968 L3.00102329,4.86521026 C3.00099486,4.80202954 3.0009546,4.74235476 3.00090071,4.68700397 L3.00039972,4.41333157 C3.00028425,4.37854896 3.0001516,4.34972644 3,4.32768208 C3.01175801,3.89627859 3.08154712,3.46888817 3.20729422,3.0585566 C3.68125103,1.25057935 5.2295992,0 6.99410752,0 Z" id="path-1"></path>
    </defs>
    <g id="Icons/24px/Digital/Microphone/On" stroke="none" stroke-width="1" fill="none" fill-rule="evenodd">
        <g id="Color/Grayscale/80%" transform="translate(5.000000, 0.000000)">
            <mask id="mask-2" fill="white">
                <use xlink:href="#path-1"></use>
            </mask>
            <use id="Mask" fill="#333333" xlink:href="#path-1"></use>
            <g id="Group" mask="url(#mask-2)">
                <g transform="translate(-5.000000, 0.000000)" id="Color/Grayscale/80%">
                    <rect id="Rectangle" fill="#333333" x="0" y="0" width="24" height="24"></rect>
                </g>
            </g>
        </g>
    </g>
</svg>