<?xml version="1.0" encoding="UTF-8"?>
<svg width="24px" height="24px" viewBox="0 0 24 24" version="1.1" xmlns="http://www.w3.org/2000/svg" xmlns:xlink="http://www.w3.org/1999/xlink">
    <title>Icons/24px/MileagePlus badges/Global Services</title>
    <g id="Icons/24px/MileagePlus-badges/Global-Services" stroke="none" stroke-width="1" fill="none" fill-rule="evenodd">
        <g id="Badge" transform="translate(2.000000, 0.000022)">
            <polygon id="Fill-1" fill="#25282A" points="0 0 0 24 10.0005533 20.4253313 20 24 20 0"></polygon>
            <g id="Group-6" transform="translate(2.857143, 7.085869)" fill="#FFFFFF">
                <path d="M4.94953846,7.59510545 C4.51349451,7.76616 4.07393407,7.85168727 3.63085714,7.85168727 C3.06821978,7.85168727 2.56536264,7.74870545 2.12228571,7.54274182 C1.67920879,7.33677818 1.30294505,7.05946909 0.993494505,6.71016 C0.684043956,6.36128727 0.44843956,5.95983273 0.286681319,5.50579636 C0.124923077,5.05219636 0.044043956,4.58092364 0.044043956,4.09197818 C0.044043956,3.54739636 0.119648352,3.02899636 0.270857143,2.53677818 C0.422065934,2.04477818 0.647120879,1.61365091 0.946021978,1.24361455 C1.24492308,0.87336 1.61767033,0.578378182 2.06426374,0.358450909 C2.51085714,0.138523636 3.03305495,0.02856 3.63085714,0.02856 C4.03854945,0.02856 4.42382418,0.0756872727 4.78602198,0.169941818 C5.14821978,0.264196364 5.47173626,0.41256 5.75657143,0.615032727 C6.04140659,0.817723636 6.28052747,1.07408727 6.47393407,1.38477818 C6.66734066,1.69568727 6.79920879,2.07096 6.86953846,2.51059636 L5.86734066,2.51059636 C5.81810989,2.22456 5.72668132,1.97845091 5.59305495,1.77248727 C5.45942857,1.56652364 5.29415385,1.39721455 5.09723077,1.26434182 C4.90030769,1.13190545 4.67701099,1.03241455 4.42734066,0.965869091 C4.17767033,0.89976 3.91217582,0.866378182 3.63085714,0.866378182 C3.17371429,0.866378182 2.78162637,0.957141818 2.45459341,1.13866909 C2.12756044,1.32019636 1.86030769,1.55954182 1.65283516,1.85605091 C1.44536264,2.15299636 1.2923956,2.49139636 1.19393407,2.87212364 C1.09547253,3.25263273 1.04624176,3.64165091 1.04624176,4.03961455 C1.04624176,4.43081455 1.10250549,4.80608727 1.21503297,5.16543273 C1.32756044,5.52521455 1.49283516,5.84288727 1.71085714,6.11845091 C1.92887912,6.39445091 2.19767033,6.61437818 2.51789011,6.77823273 C2.83789011,6.94252364 3.20887912,7.02434182 3.63085714,7.02434182 C4.0247033,7.02434182 4.37283516,6.96172364 4.67525275,6.83605091 C4.97767033,6.71016 5.23261538,6.53736 5.44008791,6.31765091 C5.64756044,6.09750545 5.80404396,5.83939636 5.90953846,5.54245091 C6.01503297,5.24572364 6.06074725,4.92652364 6.04668132,4.58419636 L3.64140659,4.58419636 L3.64140659,3.74637818 L6.94338462,3.74637818 L6.94338462,7.68412364 L6.31041758,7.68412364 L6.04668132,6.75205091 C5.7512967,7.14325091 5.38558242,7.42426909 4.94953846,7.59510545" id="Fill-2"></path>
                <path d="M12.1915385,1.22777455 C11.8574725,0.986901818 11.4302198,0.866465455 10.9097802,0.866465455 C10.6987912,0.866465455 10.4913187,0.887192727 10.2873626,0.929301818 C10.0834066,0.971192727 9.90230769,1.04122909 9.74406593,1.13875636 C9.58582418,1.23650182 9.45923077,1.36762909 9.36428571,1.53148364 C9.26934066,1.69577455 9.22186813,1.89977455 9.22186813,2.14413818 C9.22186813,2.37453818 9.29043956,2.56130182 9.42758242,2.70442909 C9.56472527,2.84755636 9.74758242,2.96450182 9.97615385,3.05526545 C10.2045055,3.14602909 10.4631868,3.22130182 10.7515385,3.28042909 C11.0398901,3.33977455 11.3335165,3.40457455 11.6324176,3.47417455 C11.9313187,3.54399273 12.2249451,3.62602909 12.5132967,3.72028364 C12.8016484,3.81432 13.0601099,3.94195636 13.2886813,4.10253818 C13.5172527,4.26312 13.7001099,4.46559273 13.8372527,4.70995636 C13.9743956,4.95432 14.042967,5.26152 14.042967,5.63155636 C14.042967,6.02952 13.9532967,6.36966545 13.773956,6.65264727 C13.5946154,6.93541091 13.3640659,7.16581091 13.082967,7.34384727 C12.8016484,7.52188364 12.4869231,7.65104727 12.1387912,7.73133818 C11.7906593,7.81162909 11.4442857,7.85155636 11.0996703,7.85155636 C10.6776923,7.85155636 10.2785714,7.79941091 9.90230769,7.69468364 C9.52604396,7.58995636 9.19549451,7.43133818 8.91065934,7.21817455 C8.62582418,7.00522909 8.40054945,6.73293818 8.23549451,6.40130182 C8.07021978,6.06966545 7.98758242,5.67715636 7.98758242,5.22312 L8.93703297,5.22312 C8.93703297,5.53730182 8.99857143,5.80784727 9.12164835,6.03475636 C9.24472527,6.26166545 9.40648352,6.44842909 9.60692308,6.59504727 C9.80736264,6.74144727 10.0412088,6.85010182 10.3084615,6.91970182 C10.5757143,6.98952 10.85,7.02421091 11.1313187,7.02421091 C11.3563736,7.02421091 11.5831868,7.00348364 11.8117582,6.96159273 C12.0403297,6.91970182 12.246044,6.84813818 12.4289011,6.74690182 C12.6117582,6.64566545 12.7594505,6.50777455 12.871978,6.33301091 C12.9845055,6.15890182 13.0407692,5.93526545 13.0407692,5.66297455 C13.0407692,5.40486545 12.9721978,5.19541091 12.8350549,5.03461091 C12.6979121,4.87402909 12.5150549,4.74312 12.2864835,4.64166545 C12.0579121,4.54086545 11.7994505,4.45861091 11.5110989,4.39577455 C11.2227473,4.33272 10.9291209,4.26857455 10.6302198,4.20202909 C10.3313187,4.13570182 10.0376923,4.05912 9.74934066,3.97162909 C9.46098901,3.88435636 9.20252747,3.76915636 8.97395604,3.62602909 C8.74538462,3.48290182 8.56252747,3.29788364 8.42538462,3.07097455 C8.28824176,2.84406545 8.21967033,2.55955636 8.21967033,2.21744727 C8.21967033,1.84042909 8.29703297,1.51402909 8.45175824,1.23824727 C8.60648352,0.962465455 8.8121978,0.735556364 9.0689011,0.55752 C9.3256044,0.379265455 9.61747253,0.246829091 9.94450549,0.159556364 C10.2715385,0.0722836364 10.6073626,0.0286472727 10.951978,0.0286472727 C11.3387912,0.0286472727 11.6972527,0.0740290909 12.028022,0.164792727 C12.3585714,0.255556364 12.6486813,0.398683636 12.8983516,0.594174545 C13.148022,0.789665455 13.3449451,1.03577455 13.4891209,1.33228364 C13.6332967,1.62922909 13.7124176,1.98355636 13.7264835,2.39548364 L12.777033,2.39548364 C12.7207692,1.85788364 12.5256044,1.46864727 12.1915385,1.22777455" id="Fill-4"></path>
            </g>
        </g>
    </g>
</svg>