<?xml version="1.0" encoding="UTF-8"?>
<svg width="24px" height="24px" viewBox="0 0 24 24" version="1.1" xmlns="http://www.w3.org/2000/svg" xmlns:xlink="http://www.w3.org/1999/xlink">
    <title>Icons/24px/MileagePlus badges/Premier Silver</title>
    <g id="Icons/24px/MileagePlus-badges/Premier-Silver" stroke="none" stroke-width="1" fill="none" fill-rule="evenodd">
        <g id="Badge" transform="translate(2.000000, 0.000000)">
            <polygon id="Fill-1" fill="#C1C6C8" points="0 0 0 24 10.0004427 20.425364 20 24 20 0"></polygon>
            <path d="M11.0452747,8.31059459 C10.7112088,8.07189189 10.283956,7.95254054 9.76351648,7.95254054 C9.55252747,7.95254054 9.34505495,7.97308108 9.1410989,8.01481081 C8.93714286,8.05632432 8.75604396,8.12572973 8.5978022,8.22237838 C8.43956044,8.31924324 8.31296703,8.44918919 8.21802198,8.61156757 C8.12307692,8.77437838 8.0756044,8.97654054 8.0756044,9.2187027 C8.0756044,9.44702703 8.14417582,9.63210811 8.28131868,9.77394595 C8.41846154,9.91578378 8.60131868,10.0316757 8.82989011,10.1216216 C9.05824176,10.2115676 9.31692308,10.2861622 9.60527473,10.3447568 C9.89362637,10.4035676 10.1872527,10.4677838 10.4861538,10.5367568 C10.7850549,10.6059459 11.0786813,10.6872432 11.367033,10.7806486 C11.6553846,10.8738378 11.9138462,11.0003243 12.1424176,11.1594595 C12.370989,11.3185946 12.5538462,11.5192432 12.690989,11.7614054 C12.8281319,12.0035676 12.8967033,12.308 12.8967033,12.6747027 C12.8967033,13.0690811 12.807033,13.4061622 12.6276923,13.6865946 C12.4483516,13.9668108 12.2178022,14.1951351 11.9367033,14.3715676 C11.6553846,14.548 11.3406593,14.676 10.9925275,14.7555676 C10.6443956,14.8351351 10.298022,14.8747027 9.95340659,14.8747027 C9.53142857,14.8747027 9.13230769,14.823027 8.75604396,14.7192432 C8.37978022,14.6154595 8.04923077,14.4582703 7.7643956,14.247027 C7.47956044,14.036 7.25428571,13.7661622 7.08923077,13.4375135 C6.92395604,13.1088649 6.84131868,12.7198919 6.84131868,12.2699459 L7.79076923,12.2699459 C7.79076923,12.5812973 7.85230769,12.8494054 7.97538462,13.0742703 C8.09846154,13.2991351 8.26021978,13.4842162 8.46065934,13.6295135 C8.6610989,13.7745946 8.89494505,13.8822703 9.1621978,13.9512432 C9.42945055,14.0204324 9.70373626,14.0548108 9.98505495,14.0548108 C10.2101099,14.0548108 10.4369231,14.0342703 10.6654945,13.9927568 C10.8940659,13.9512432 11.0997802,13.8803243 11.2826374,13.78 C11.4654945,13.6796757 11.6131868,13.543027 11.7257143,13.3698378 C11.8382418,13.1972973 11.8945055,12.9756757 11.8945055,12.7058378 C11.8945055,12.4500541 11.8259341,12.2424865 11.6887912,12.0831351 C11.5516484,11.924 11.3687912,11.7942703 11.1402198,11.6937297 C10.9116484,11.5938378 10.6531868,11.5123243 10.3648352,11.4500541 C10.0764835,11.3875676 9.78285714,11.324 9.48395604,11.2580541 C9.18505495,11.1923243 8.89142857,11.1164324 8.60307692,11.0297297 C8.31472527,10.9432432 8.05626374,10.8290811 7.82769231,10.6872432 C7.59912088,10.5454054 7.41626374,10.3620541 7.27912088,10.1371892 C7.14197802,9.91232432 7.07340659,9.63037838 7.07340659,9.29135135 C7.07340659,8.91772973 7.15076923,8.59427027 7.30549451,8.32097297 C7.46021978,8.04767568 7.66593407,7.82281081 7.92263736,7.64637838 C8.17934066,7.46972973 8.47120879,7.33848649 8.79824176,7.252 C9.12527473,7.16551351 9.4610989,7.12227027 9.80571429,7.12227027 C10.1925275,7.12227027 10.550989,7.16724324 10.8817582,7.25718919 C11.2123077,7.34713514 11.5024176,7.48897297 11.7520879,7.6827027 C12.0017582,7.87643243 12.1986813,8.12032432 12.3428571,8.41416216 C12.487033,8.70843243 12.5661538,9.05956757 12.5802198,9.46778378 L11.6307692,9.46778378 C11.5745055,8.93502703 11.3793407,8.5492973 11.0452747,8.31059459" id="Fill-2" fill="#333333"></path>
        </g>
    </g>
</svg>