<?xml version="1.0" encoding="UTF-8"?>
<svg width="24px" height="24px" viewBox="0 0 24 24" version="1.1" xmlns="http://www.w3.org/2000/svg" xmlns:xlink="http://www.w3.org/1999/xlink">
    <title>Icons/24px/MileagePlus badges/1K</title>
    <g id="Icons/24px/MileagePlus-badges/1K" stroke="none" stroke-width="1" fill="none" fill-rule="evenodd">
        <g id="Badge" transform="translate(2.000000, 0.000000)">
            <polygon id="Fill-1" fill="#D4D4D0" points="0 0 0 24 10.0004427 20.425364 20 24 20 0"></polygon>
            <g id="Group-6" transform="translate(4.335824, 6.823395)" fill="#333333">
                <path d="M1.9410989,7.41027027 L1.9410989,2.13805405 L0,2.13805405 L0,1.43232432 C0.253186813,1.43232432 0.499120879,1.41351351 0.738461538,1.37524324 C0.977362637,1.33718919 1.19384615,1.26627027 1.38703297,1.16248649 C1.58043956,1.0587027 1.74417582,0.917081081 1.8778022,0.736972973 C2.01120879,0.557297297 2.10263736,0.328756757 2.15208791,0.052 L2.8378022,0.052 L2.8378022,7.41027027 L1.9410989,7.41027027 Z" id="Fill-2"></path>
                <polygon id="Fill-4" points="6.77283516 0 6.77283516 3.69491892 10.5917363 0 11.8890989 0 8.71393407 2.98897297 12.0156923 7.41016216 10.749978 7.41016216 8.02821978 3.66356757 6.77283516 4.81556757 6.77283516 7.41016216 5.77041758 7.41016216 5.77041758 0"></polygon>
            </g>
        </g>
    </g>
</svg>