<?xml version="1.0" encoding="UTF-8"?>
<svg width="24px" height="24px" viewBox="0 0 24 24" version="1.1" xmlns="http://www.w3.org/2000/svg" xmlns:xlink="http://www.w3.org/1999/xlink">
    <title>Icons/24px/MileagePlus badges/Platinum</title>
    <g id="Icons/24px/MileagePlus-badges/Platinum" stroke="none" stroke-width="1" fill="none" fill-rule="evenodd">
        <g id="Badge" transform="translate(2.000000, 0.000000)">
            <polygon id="Fill-1" fill="#7C848A" points="0 0 0 24 10.0004427 20.425364 20 24 20 0"></polygon>
            <path d="M10.2383297,10.3728 C10.808,10.3797189 11.2247033,10.265773 11.4882198,10.0303135 C11.7521758,9.79528649 11.884044,9.45625946 11.884044,9.01344865 C11.884044,8.57063784 11.7521758,8.23312432 11.4882198,8.00134054 C11.2247033,7.76977297 10.808,7.65388108 10.2383297,7.65388108 L8.27613187,7.65388108 L8.27613187,10.3728 L10.2383297,10.3728 Z M10.5759121,6.82339459 C11.3354725,6.82339459 11.9101978,7.01561081 12.3007473,7.39939459 C12.6910769,7.78339459 12.8862418,8.32155676 12.8862418,9.01344865 C12.8862418,9.70534054 12.6910769,10.2450162 12.3007473,10.6322595 C11.9101978,11.0199351 11.3354725,11.2102054 10.5759121,11.2032865 L8.27613187,11.2032865 L8.27613187,14.2335568 L7.27393407,14.2335568 L7.27393407,6.82339459 L10.5759121,6.82339459 Z" id="Fill-2" fill="#FFFFFF"></path>
        </g>
    </g>
</svg>