<?xml version="1.0" encoding="UTF-8"?>
<svg width="24px" height="24px" viewBox="0 0 24 24" version="1.1" xmlns="http://www.w3.org/2000/svg" xmlns:xlink="http://www.w3.org/1999/xlink">
    <title>Icons/24px/MileagePlus badges/Premier Gold</title>
    <g id="Icons/24px/MileagePlus-badges/Premier-Gold" stroke="none" stroke-width="1" fill="none" fill-rule="evenodd">
        <g id="Badge" transform="translate(2.000000, 0.000000)">
            <polygon id="Fill-1" fill="#9F7D23" points="0 0 0 24 10.0004427 20.4251448 20 24 20 0"></polygon>
            <path d="M11.2245495,14.0347243 C10.7885055,14.2042378 10.3491648,14.2889946 9.90586813,14.2889946 C9.34323077,14.2889946 8.84037363,14.1869405 8.39751648,13.9828324 C7.95421978,13.7787243 7.57795604,13.5039135 7.26850549,13.1577514 C6.95905495,12.8120216 6.72367033,12.4141838 6.56169231,11.9642378 C6.39993407,11.5147243 6.31927473,11.0476973 6.31927473,10.5631568 C6.31927473,10.0234811 6.39465934,9.50975135 6.54608791,9.02196757 C6.69707692,8.5344 6.92213187,8.10715676 7.22103297,7.74045405 C7.52015385,7.37353514 7.89268132,7.08121081 8.33927473,6.86326486 C8.78586813,6.64531892 9.30806593,6.53634595 9.90586813,6.53634595 C10.3135604,6.53634595 10.6988352,6.58304865 11.0612527,6.67645405 C11.4232308,6.76985946 11.7467473,6.91688649 12.0318022,7.11753514 C12.3166374,7.3184 12.5555385,7.57245405 12.7491648,7.88034595 C12.9423516,8.18845405 13.0742198,8.56034595 13.1445495,8.99602162 L12.1425714,8.99602162 C12.0931209,8.71256216 12.0016923,8.46867027 11.8682857,8.26456216 C11.7344396,8.06045405 11.5691648,7.89267027 11.3724615,7.76099459 C11.1753187,7.62975135 10.952022,7.53115676 10.7023516,7.46521081 C10.4526813,7.3996973 10.1871868,7.36661622 9.90586813,7.36661622 C9.44872527,7.36661622 9.05685714,7.45656216 8.7296044,7.63645405 C8.40257143,7.81634595 8.13531868,8.05353514 7.92784615,8.34737297 C7.72059341,8.64164324 7.56740659,8.97699459 7.46894505,9.35429189 C7.37048352,9.73137297 7.32125275,10.1168865 7.32125275,10.5112649 C7.32125275,10.8989405 7.37751648,11.2708324 7.49026374,11.6269405 C7.60257143,11.9834811 7.76784615,12.2982919 7.98608791,12.571373 C8.20389011,12.8448865 8.47268132,13.0628324 8.79312088,13.2252108 C9.11312088,13.3880216 9.48389011,13.4691027 9.90586813,13.4691027 C10.2997143,13.4691027 10.6478462,13.4070486 10.9504835,13.2825081 C11.2526813,13.1577514 11.5076264,12.9865081 11.7150989,12.7687784 C11.9225714,12.5506162 12.0792747,12.2948324 12.1845495,12.0005622 C12.2902637,11.7065081 12.335978,11.3901838 12.3216923,11.0509405 L9.91663736,11.0509405 L9.91663736,10.2206703 L13.2183956,10.2206703 L13.2183956,14.1229405 L12.5854286,14.1229405 L12.3216923,13.1992649 C12.0263077,13.5869405 11.6605934,13.865427 11.2245495,14.0347243" id="Fill-2" fill="#FFFFFF"></path>
        </g>
    </g>
</svg>