<?xml version="1.0" encoding="UTF-8"?>
<svg width="24px" height="24px" viewBox="0 0 24 24" version="1.1" xmlns="http://www.w3.org/2000/svg" xmlns:xlink="http://www.w3.org/1999/xlink">
    <title>Icons/24px/Interface/More menu horizontal</title>
    <defs>
        <path d="M21.5,9.01501096e-14 C22.8807119,9.00655654e-14 24,1.11928813 24,2.5 C24,3.88071187 22.8807119,5 21.5,5 C20.1192881,5 19,3.88071187 19,2.5 C19,1.11928813 20.1192881,9.02346538e-14 21.5,9.01501096e-14 Z M12,-2.46519033e-32 C13.3807119,-8.45442189e-17 14.5,1.11928813 14.5,2.5 C14.5,3.88071187 13.3807119,5 12,5 C10.6192881,5 9.5,3.88071187 9.5,2.5 C9.5,1.11928813 10.6192881,8.45442189e-17 12,-2.46519033e-32 Z M2.5,4.4408921e-16 C3.88071187,3.59544991e-16 5,1.11928813 5,2.5 C5,3.88071187 3.88071187,5 2.5,5 C1.11928813,5 0,3.88071187 0,2.5 C0,1.11928813 1.11928813,5.28633429e-16 2.5,4.4408921e-16 Z" id="path-1"></path>
    </defs>
    <g id="Icons/24px/Interface/More-menu-horizontal" stroke="none" stroke-width="1" fill="none" fill-rule="evenodd">
        <g id="Dots" transform="translate(0.000000, 9.000000)">
            <mask id="mask-2" fill="white">
                <use xlink:href="#path-1"></use>
            </mask>
            <use id="Mask" fill="#7C878E" xlink:href="#path-1"></use>
            <g id="Group" mask="url(#mask-2)">
                <g transform="translate(0.000000, -9.000000)" id="Color/Grayscale/80%">
                    <rect id="Rectangle" fill="#333333" x="0" y="0" width="24" height="24"></rect>
                </g>
            </g>
        </g>
    </g>
</svg>