<?xml version="1.0" encoding="UTF-8"?>
<svg width="24px" height="24px" viewBox="0 0 24 24" version="1.1" xmlns="http://www.w3.org/2000/svg" xmlns:xlink="http://www.w3.org/1999/xlink">
    <title>Icons/24px/Interface/More menu vertical</title>
    <defs>
        <path d="M5.5,21.5 C5.5,22.8807119 4.38071187,24 3,24 C1.61928813,24 0.5,22.8807119 0.5,21.5 C0.5,20.1192881 1.61928813,19 3,19 C4.38071187,19 5.5,20.1192881 5.5,21.5 Z M5.5,12 C5.5,13.3807119 4.38071187,14.5 3,14.5 C1.61928813,14.5 0.5,13.3807119 0.5,12 C0.5,10.6192881 1.61928813,9.5 3,9.5 C4.38071187,9.5 5.5,10.6192881 5.5,12 Z M5.5,2.5 C5.5,3.88071187 4.38071187,5 3,5 C1.61928813,5 0.5,3.88071187 0.5,2.5 C0.5,1.11928813 1.61928813,0 3,0 C4.38071187,0 5.5,1.11928813 5.5,2.5 Z" id="path-1"></path>
    </defs>
    <g id="Icons/24px/Interface/More-menu-vertical" stroke="none" stroke-width="1" fill="none" fill-rule="evenodd">
        <g id="Dots" transform="translate(9.000000, -1.000000)">
            <g id="Color/Grayscale/80%" transform="translate(0.000000, 0.500000)">
                <mask id="mask-2" fill="white">
                    <use xlink:href="#path-1"></use>
                </mask>
                <use id="Mask" fill="#7C878E" xlink:href="#path-1"></use>
                <g id="Group" mask="url(#mask-2)">
                    <g transform="translate(-9.000000, 0.500000)" id="Color/Grayscale/80%">
                        <rect id="Rectangle" fill="#333333" x="0" y="0" width="24" height="24"></rect>
                    </g>
                </g>
            </g>
        </g>
    </g>
</svg>