<?xml version="1.0" encoding="UTF-8"?>
<svg width="24px" height="24px" viewBox="0 0 24 24" version="1.1" xmlns="http://www.w3.org/2000/svg" xmlns:xlink="http://www.w3.org/1999/xlink">
    <title>Icons/24px/Weather/Mostly cloudy night</title>
    <defs>
        <path d="M7.13375916,8.55027799 C7.88185757,8.55027799 8.61207315,8.66806232 9.30503283,8.89155055 C9.70292581,9.01990528 10.0903871,9.18450134 10.4629461,9.38080857 C11.0873549,9.71755096 11.6655665,10.1479168 12.1782076,10.6673759 C12.6372003,11.130963 13.0246616,11.647402 13.3391014,12.2076326 L13.3391014,12.2076326 L13.4776933,12.4522617 L13.7548772,12.3994097 C14.0767681,12.3390075 14.4061102,12.3088064 14.7324719,12.3088064 C15.4701387,12.3088064 16.1720398,12.462832 16.8098607,12.7406823 C17.1928513,12.9082984 17.5534884,13.1272565 17.885811,13.3764157 C19.1718846,14.3504015 20.0108874,15.9042487 20.0108874,17.6544032 C20.0108874,20.6020317 17.6429026,23 14.7324719,23 C13.5373027,23 12.4136649,22.6073855 11.4748163,21.858398 L11.4748163,21.858398 L11.2542614,21.6817215 L11.0217846,21.8357471 C9.868342,22.5998353 8.522659,23 7.13375916,23 C5.23072794,23 3.43946441,22.2479923 2.0893107,20.8859222 C0.743627704,19.5193218 -5.68434189e-14,17.7072551 -5.68434189e-14,15.775894 C-5.68434189e-14,13.846043 0.743627704,12.0309561 2.0893107,10.6673759 C3.43946441,9.30379573 5.23072794,8.55027799 7.13375916,8.55027799 Z M7.13375916,9.75077219 C3.85374998,9.75077219 1.18622776,12.4537717 1.18622776,15.775894 C1.18622776,19.0965063 3.85374998,21.8025259 7.13375916,21.8025259 C8.73725296,21.8025259 10.2483521,21.1547121 11.3630486,20.01311 C12.1230689,21.1290411 13.3689061,21.8025259 14.7324719,21.8025259 C16.9901793,21.8025259 18.8261499,19.9421374 18.8261499,17.6544032 C18.8261499,16.453909 18.3179794,15.3757293 17.5102716,14.6161713 C17.2241463,14.3488915 16.9022553,14.1238932 16.5520499,13.9441966 C16.0051333,13.6678564 15.3866855,13.5093006 14.7324719,13.5093006 C14.0573951,13.5093006 13.4031815,13.6738966 12.8160286,13.9894982 C12.3093484,12.3390075 11.1216304,11.0161988 9.61649213,10.3110028 C9.26777694,10.1464068 8.89968867,10.0120118 8.51967852,9.92140847 C8.07260776,9.80966436 7.61063464,9.75077219 7.13375916,9.75077219 Z M13.532832,1.06001504 C13.9292348,0.922599978 14.379286,1.02528376 14.6832941,1.32578482 C15.0141265,1.65195683 15.1080113,2.15329529 14.9142807,2.57611086 C14.3047742,3.89740951 14.2347331,5.3802841 14.7116086,6.75141458 C15.7294397,9.67941239 18.9438785,11.2408099 21.8811334,10.2275626 C22.0629422,10.1656503 22.2462412,10.0931676 22.4161281,10.0116246 C22.4548742,9.99954417 22.4891497,9.98293356 22.5234251,9.97085312 C22.9242985,9.83343806 23.3668986,9.93461178 23.6709067,10.2351128 C24.0032293,10.564305 24.0926435,11.0626233 23.8989128,11.4854389 C23.2640723,12.8686498 22.0316472,14.1537071 20.7858101,14.9555466 C20.6323158,14.611254 20.5041555,14.259411 20.2821103,13.9649502 C21.3610411,13.2612643 22.3669503,12.1543935 22.8870426,11.0218518 C22.6798999,11.1154753 22.4697766,11.2030585 22.2462412,11.2785613 C18.7233236,12.4911359 14.8800053,10.6262172 13.6565216,7.11382793 C13.0604272,5.40897516 13.2034899,3.63012966 13.8979398,2.11252379 C11.6327813,3.15899232 10.1991744,5.34706288 10.0367386,7.73295072 C10.0292875,7.72993061 10.0248168,7.72842056 10.0173656,7.7269105 C9.66417968,7.60610605 9.30205236,7.52758316 8.94141528,7.46114072 C9.19028467,4.76871159 10.8131515,2.31185113 13.431496,1.10380665 C13.4627909,1.08870609 13.4955761,1.07511559 13.532832,1.06001504 Z" id="path-1"></path>
    </defs>
    <g id="Icons/24px/Weather/Mostly-cloudy-night" stroke="none" stroke-width="1" fill="none" fill-rule="evenodd">
        <mask id="mask-2" fill="white">
            <use xlink:href="#path-1"></use>
        </mask>
        <use id="Mask" fill="#0C2340" fill-rule="nonzero" xlink:href="#path-1"></use>
        <g id="Group" mask="url(#mask-2)" fill="#333333">
            <g id="Color/Grayscale/80%">
                <rect id="Rectangle" x="0" y="0" width="24" height="24"></rect>
            </g>
        </g>
    </g>
</svg>