<?xml version="1.0" encoding="UTF-8"?>
<svg width="24px" height="24px" viewBox="0 0 24 24" version="1.1" xmlns="http://www.w3.org/2000/svg" xmlns:xlink="http://www.w3.org/1999/xlink">
    <title>Icons/24px/Weather/Mostly cloudy</title>
    <defs>
        <path d="M7.57643846,7.42885375 C8.37043014,7.42885375 9.14505617,7.55187747 9.88393023,7.78458498 C10.3069952,7.91798419 10.7151636,8.08843874 11.1099249,8.2944664 C11.7743157,8.64426877 12.3895475,9.09337945 12.9347651,9.63586957 C13.4218857,10.1190711 13.8330333,10.6585968 14.1682081,11.2425889 L14.1682081,11.2425889 L14.3141953,11.4975296 L14.609149,11.4426877 C14.9502824,11.3804348 15.3018435,11.3478261 15.6459562,11.3478261 C16.4295202,11.3478261 17.1743529,11.5093874 17.8521507,11.7999012 C18.2632984,11.9733202 18.6416734,12.201581 18.9962138,12.4609684 C20.362237,13.479249 21.2545466,15.0978261 21.2545466,16.923913 C21.2545466,19.9980237 18.7399913,22.5 15.6459562,22.5 C14.3797405,22.5 13.1835392,22.0879447 12.1884427,21.3068182 L12.1884427,21.3068182 L11.9530755,21.1245059 L11.7043014,21.284585 C10.4812861,22.0805336 9.05120725,22.5 7.57643846,22.5 C5.55496245,22.5 3.65117001,21.7144269 2.21811185,20.2929842 C0.788033021,18.8685771 -1.80477855e-12,16.9772727 -1.80477855e-12,14.9644269 C-1.80477855e-12,12.951581 0.788033021,11.0587945 2.21811185,9.63586957 C3.65117001,8.21442688 5.55496245,7.42885375 7.57643846,7.42885375 Z M7.57643846,8.68132411 C4.09360065,8.68132411 1.26025697,11.4990119 1.26025697,14.9644269 C1.26025697,18.4283597 4.09360065,21.2490119 7.57643846,21.2490119 C9.27912606,21.2490119 10.8849854,20.5731225 12.0692694,19.3843874 C12.8751784,20.5479249 14.1980014,21.2490119 15.6459562,21.2490119 C18.0428279,21.2490119 19.9972689,19.3087945 19.9972689,16.923913 C19.9972689,15.6714427 19.4565204,14.5464427 18.5969834,13.7549407 C18.2945813,13.4762846 17.953448,13.2406126 17.5780523,13.0538538 C16.9955931,12.7663043 16.3431196,12.5988142 15.6459562,12.5988142 C14.9294271,12.5988142 14.2367327,12.7722332 13.6125628,13.0998024 C13.073304,11.3804348 11.813047,10.0004941 10.214636,9.26383399 C9.8422196,9.09189723 9.45341692,8.95405138 9.04971758,8.85770751 C8.57451431,8.74209486 8.08143504,8.68132411 7.57643846,8.68132411 Z M23.4488238,10.576334 C23.7527155,10.576334 24,10.8268281 24,11.1351285 C24,11.4419466 23.7527155,11.6924407 23.4488238,11.6924407 L23.4488238,11.6924407 L21.4050028,11.6924407 C21.0996214,11.6924407 20.8553162,11.4419466 20.8553162,11.1351285 C20.8553162,10.8268281 21.0996214,10.576334 21.4050028,10.576334 L21.4050028,10.576334 Z M14.627025,5.94664032 C17.4216374,5.94664032 19.7023152,8.08843874 19.957048,10.805336 C19.7261498,10.6719368 19.4922724,10.5548419 19.2569052,10.4540514 C19.0543107,10.3666008 18.8487369,10.2924901 18.6401837,10.2257905 C18.1605115,8.46047431 16.5516728,7.14871542 14.627025,7.14871542 C14.1428837,7.14871542 13.6736391,7.23320158 13.2356775,7.38735178 C13.0226553,7.25247036 12.8200608,7.10721344 12.5995903,6.99011858 C12.3820992,6.87747036 12.1452424,6.80335968 11.9173236,6.70701581 C12.7306809,6.2312253 13.6572528,5.94664032 14.627025,5.94664032 Z M7.60475956,4.62434389 C7.82076105,4.40794073 8.17232209,4.41238737 8.39130292,4.63027274 L8.39130292,4.63027274 L9.88096836,6.10952175 C10.0969699,6.3244427 10.1044182,6.67276286 9.88692702,6.88768381 C9.6724152,7.10112255 9.31936449,7.10112255 9.103363,6.88323717 L9.103363,6.88323717 L7.61369755,5.40398816 C7.39471673,5.187585 7.39471673,4.8348182 7.60475956,4.62434389 Z M21.0897541,4.61419941 C21.3176729,4.40520731 21.6707236,4.41706502 21.8733181,4.63643261 C22.0833609,4.86172905 22.0669746,5.208567 21.8375661,5.41904131 L21.8375661,5.41904131 L20.292783,6.84196621 C20.0678436,7.04947609 19.7192618,7.03910059 19.509219,6.81528636 C19.3051348,6.59740099 19.3200315,6.24315198 19.544971,6.0356421 L19.544971,6.0356421 Z M14.0272041,1.50188989 C14.3296062,1.47669226 14.593277,1.70643534 14.6186013,2.01325353 L14.6186013,2.01325353 L14.7839542,4.10021005 C14.8092785,4.40554602 14.5858287,4.67382665 14.2804473,4.69754206 C13.9810245,4.72273969 13.7099054,4.4915144 13.6875604,4.18617843 L13.6875604,4.18617843 L13.5192282,2.10070412 C13.4968832,1.79388594 13.7277814,1.52412309 14.0272041,1.50188989 Z" id="path-1"></path>
    </defs>
    <g id="Icons/24px/Weather/Mostly-cloudy" stroke="none" stroke-width="1" fill="none" fill-rule="evenodd">
        <mask id="mask-2" fill="white">
            <use xlink:href="#path-1"></use>
        </mask>
        <use id="Mask" fill="#0C2340" fill-rule="nonzero" xlink:href="#path-1"></use>
        <g id="Group" mask="url(#mask-2)" fill="#333333">
            <g id="Color/Grayscale/80%">
                <rect id="Rectangle" x="0" y="0" width="24" height="24"></rect>
            </g>
        </g>
    </g>
</svg>