<?xml version="1.0" encoding="UTF-8"?>
<svg width="24px" height="24px" viewBox="0 0 24 24" version="1.1" xmlns="http://www.w3.org/2000/svg" xmlns:xlink="http://www.w3.org/1999/xlink">
    <title>Icons/24px/Digital/Mouse</title>
    <defs>
        <path d="M12.6,9.024 C12.6,9.36 12.324,9.624 12,9.624 C11.664,9.624 11.4,9.36 11.4,9.024 L11.4,6.06 C11.4,5.736 11.664,5.46 12,5.46 C12.324,5.46 12.6,5.736 12.6,6.06 L12.6,9.024 Z M4.5,7.5 L4.5,16.5 C4.5,20.64 7.86,24 12,24 C16.14,24 19.5,20.64 19.5,16.5 L19.5,7.5 C19.5,3.36 16.14,0 12,0 C7.86,0 4.5,3.36 4.5,7.5 Z" id="path-1"></path>
    </defs>
    <g id="Icons/24px/Digital/Mouse" stroke="none" stroke-width="1" fill="none" fill-rule="evenodd">
        <mask id="mask-2" fill="white">
            <use xlink:href="#path-1"></use>
        </mask>
        <use id="Mask" fill="#0C2340" fill-rule="nonzero" xlink:href="#path-1"></use>
        <g id="Group" mask="url(#mask-2)" fill="#333333">
            <g id="Color/Grayscale/80%">
                <rect id="Rectangle" x="0" y="0" width="24" height="24"></rect>
            </g>
        </g>
    </g>
</svg>