<?xml version="1.0" encoding="UTF-8"?>
<svg width="24px" height="24px" viewBox="0 0 24 24" version="1.1" xmlns="http://www.w3.org/2000/svg" xmlns:xlink="http://www.w3.org/1999/xlink">
    <title>Icons/24px/Travel &amp; Airport/My trips</title>
    <defs>
        <path d="M16.9002051,5.58350792 L16.9002051,24 L7.10041489,24 L7.10041489,5.58350792 L16.9002051,5.58350792 Z M5.860282,5.58350792 L5.860282,24 L2.69949935,24 C1.21024867,24 0,22.8287941 0,21.3863869 L0,21.3863869 L0,8.19712099 C0,7.76151881 0.110360791,7.36431682 0.290162079,7.00671503 C0.740285305,6.16431082 1.65045183,5.58350792 2.69949935,5.58350792 L2.69949935,5.58350792 L5.860282,5.58350792 Z M21.2992606,5.58350792 C22.3507882,5.58350792 23.2597147,6.16431082 23.7098379,7.00671503 C23.8896392,7.36431682 24,7.76151881 24,8.19712099 L24,8.19712099 L24,21.3863869 C24,22.8287941 22.7897513,24 21.2992606,24 L21.2992606,24 L18.139718,24 L18.139718,5.58350792 Z M12.000062,0 C14.7504017,0 17.029538,1.79040895 17.4201408,4.13282066 L17.4201408,4.13282066 L15.8998899,4.13282066 C15.5105272,2.60281301 13.9109157,1.45080725 12.000062,1.45080725 C10.0904483,1.45080725 8.48959684,2.60281301 8.10023405,4.13282066 L8.10023405,4.13282066 L6.57998316,4.13282066 C6.96934595,1.79040895 9.24972229,0 12.000062,0 Z" id="path-1"></path>
    </defs>
    <g id="Icons/24px/Travel-&amp;-Airport/My-trips" stroke="none" stroke-width="1" fill="none" fill-rule="evenodd">
        <mask id="mask-2" fill="white">
            <use xlink:href="#path-1"></use>
        </mask>
        <use id="Mask" fill="#0C2340" fill-rule="nonzero" xlink:href="#path-1"></use>
        <g id="Group" mask="url(#mask-2)" fill="#333333">
            <g id="Color/Grayscale/80%">
                <rect id="Rectangle" x="0" y="0" width="24" height="24"></rect>
            </g>
        </g>
    </g>
</svg>