<?xml version="1.0" encoding="UTF-8"?>
<svg width="24px" height="24px" viewBox="0 0 24 24" version="1.1" xmlns="http://www.w3.org/2000/svg" xmlns:xlink="http://www.w3.org/1999/xlink">
    <title>Icons/24px/Digital/Documents/Notes</title>
    <defs>
        <path d="M14,0 L14,6 C14,6.5 14.5,7 15,7 L15,7 L20,7 L20,23 C20,23.5 19.5,24 19,24 L19,24 L1,24 C0.5,24 0,23.5 0,23 L0,23 L0,1 C0,0.5 0.5,0 1,0 L1,0 L14,0 Z M9,17 L3,17 C2.5,17 2,17.5 2,18 C2,18.5 2.5,19 3,19 L3,19 L9,19 C9.5,19 10,18.5 10,18 C10,17.5 9.5,17 9,17 L9,17 Z M17,13 L3,13 C2.5,13 2,13.5 2,14 C2,14.5 2.5,15 3,15 L3,15 L17,15 C17.5,15 18,14.5 18,14 C18,13.5 17.5,13 17,13 L17,13 Z M17,9 L3,9 C2.5,9 2,9.5 2,10 C2,10.5 2.5,11 3,11 L3,11 L17,11 C17.5,11 18,10.5 18,10 C18,9.5 17.5,9 17,9 L17,9 Z M15,1 L20,6 L15,6 L15,1 Z" id="path-1"></path>
    </defs>
    <g id="Icons/24px/Digital/Documents/Notes" stroke="none" stroke-width="1" fill="none" fill-rule="evenodd">
        <g id="Group" transform="translate(2.000000, 0.000000)">
            <mask id="mask-2" fill="white">
                <use xlink:href="#path-1"></use>
            </mask>
            <use id="Mask" fill="#0C2340" fill-rule="nonzero" xlink:href="#path-1"></use>
            <g mask="url(#mask-2)" id="Color/Grayscale/80%">
                <g transform="translate(-2.000000, 0.000000)">
                    <rect id="Rectangle" fill="#333333" x="0" y="0" width="24" height="24"></rect>
                </g>
            </g>
        </g>
    </g>
</svg>