<?xml version="1.0" encoding="UTF-8"?>
<svg width="24px" height="24px" viewBox="0 0 24 24" version="1.1" xmlns="http://www.w3.org/2000/svg" xmlns:xlink="http://www.w3.org/1999/xlink">
    <title>Icons/24px/Travel &amp; Airport/On-demand</title>
    <defs>
        <path d="M12,8 C13.9329966,8 15.5,9.56700338 15.5,11.5 C15.5,13.4329966 13.9329966,15 12,15 C10.0670034,15 8.5,13.4329966 8.5,11.5 C8.5,9.56700338 10.0670034,8 12,8 Z M11.6,9.60090779 C11.2703819,9.3536942 10.8,9.58888513 10.8,10.0009078 L10.8,10.0009078 L10.8,13.0009078 C10.8,13.4129305 11.2703819,13.6481214 11.6,13.4009078 L11.6,13.4009078 L13.6,11.9009078 C13.8666667,11.7009078 13.8666667,11.3009078 13.6,11.1009078 L13.6,11.1009078 Z M8.57941022,19.9379296 L5.25648313,19.9379296 C4.91206995,19.9379296 4.64085958,19.6516377 4.64085958,19.3156086 C4.64085958,18.9674484 4.91206995,18.6932875 5.25648313,18.6932875 L8.57941022,18.6932875 C8.91182293,18.6932875 9.19503376,18.9674484 9.19503376,19.3156086 C9.19503376,19.6516377 8.91182293,19.9379296 8.57941022,19.9379296 Z M18.8074014,19.9379296 L15.4832743,19.9379296 C15.1520616,19.9379296 14.8688508,19.6516377 14.8688508,19.3156086 C14.8688508,18.9674484 15.1520616,18.6932875 15.4832743,18.6932875 L18.8074014,18.6932875 C19.1518146,18.6932875 19.4230249,18.9674484 19.4230249,19.3156086 C19.4230249,19.6516377 19.1518146,19.9379296 18.8074014,19.9379296 Z M3.69402337,7.75717752 C3.69402337,6.60109179 4.61685866,5.66821674 5.76170245,5.66821674 L18.3021821,5.66821674 C19.4470259,5.66821674 20.3698612,6.60109179 20.3698612,7.75717752 L20.3698612,14.9981803 C20.3698612,16.1554792 19.4470259,17.0883542 18.3021821,17.0883542 L5.76170245,17.0883542 C4.61685866,17.0883542 3.69402337,16.1554792 3.69402337,14.9981803 L3.69402337,7.75717752 Z M23.4227779,8.44257986 C23.4227779,4.60917913 20.3458602,1.5 16.5669157,1.5 L7.43456643,1.5 C5.6008963,1.5 3.87883044,2.22179539 2.58518096,3.54043672 C1.28073107,4.84694703 0.567903806,6.57561666 0.567903806,8.3928427 L0.00148214251,21.8534169 C-0.0105183165,22.0281035 0.0506840243,22.189446 0.173088706,22.3143955 C0.284692974,22.4381318 0.444299079,22.5 0.617105688,22.5 L23.3855765,22.5 C23.5451826,22.5 23.7059888,22.4381318 23.8283934,22.3143955 C23.9387977,22.189446 24,22.0281035 24,21.8534169 L23.4227779,8.44257986 Z" id="path-1"></path>
    </defs>
    <g id="Icons/24px/Travel-&amp;-Airport/On-demand" stroke="none" stroke-width="1" fill="none" fill-rule="evenodd">
        <mask id="mask-2" fill="white">
            <use xlink:href="#path-1"></use>
        </mask>
        <use id="Mask" fill="#0C2340" fill-rule="nonzero" xlink:href="#path-1"></use>
        <g id="Group" mask="url(#mask-2)" fill="#333333">
            <g id="Color/Grayscale/80%">
                <rect id="Rectangle" x="0" y="0" width="24" height="24"></rect>
            </g>
        </g>
    </g>
</svg>