<?xml version="1.0" encoding="UTF-8"?>
<svg width="24px" height="24px" viewBox="0 0 24 24" version="1.1" xmlns="http://www.w3.org/2000/svg" xmlns:xlink="http://www.w3.org/1999/xlink">
    <title>Icons/24px/Weather/Partly cloudy</title>
    <defs>
        <path d="M5.8712048,12.1189169 C6.40030942,12.1189169 6.91703732,12.1931452 7.41365307,12.3309979 C8.39141365,12.599129 9.2871785,13.1156978 10.0235931,13.8594963 C10.3964417,14.2366976 10.7197834,14.6623746 10.9781474,15.1244083 L10.9781474,15.1244083 L11.0369368,15.2289339 L11.1514214,15.2062109 C11.4175208,15.1531907 11.6913556,15.1259231 11.9651905,15.1259231 C13.6963837,15.1259231 15.1924193,16.1545162 15.9056275,17.633024 C16.1299555,18.1041469 16.2800232,18.6161712 16.327983,19.1600076 C16.3403597,19.2918008 16.3480951,19.4296535 16.3480951,19.5644764 C16.3480951,21.1005491 15.5714562,22.4518084 14.3987623,23.2531717 C14.0197254,23.5091839 13.5927287,23.7046014 13.1409785,23.8333649 C12.7665829,23.9394054 12.372075,24 11.9651905,24 C10.9704119,24 10.0359698,23.6712744 9.25778379,23.0516948 L9.25778379,23.0516948 L9.1680526,22.9804961 L9.06903887,23.0426056 C8.12222007,23.6697595 7.01450396,24 5.8712048,24 C4.30555018,24 2.83117385,23.3834501 1.72036357,22.2609354 C0.611100367,21.1369059 -2.27018404e-12,19.6447642 -2.27018404e-12,18.058701 C-2.27018404e-12,16.4741526 0.611100367,14.9804961 1.72036357,13.8594963 C2.81879714,12.7475857 4.27460839,12.1295209 5.82788629,12.1204317 C5.84181009,12.1204317 5.85418681,12.1189169 5.8712048,12.1189169 Z M5.8712048,13.3853437 C3.32314833,13.3853437 1.25159544,15.4819163 1.25159544,18.058701 C1.25159544,20.6370006 3.32314833,22.7335732 5.8712048,22.7335732 C7.11351769,22.7335732 8.2815703,22.2397273 9.15722297,21.3474721 L9.15722297,21.3474721 L9.28563141,21.2171937 L9.38619223,21.3671653 C9.96789789,22.2230638 10.9332818,22.7335732 11.9651905,22.7335732 C12.3844518,22.7335732 12.7820538,22.6487408 13.1502611,22.4972543 C13.4550377,22.3700057 13.7350609,22.1973111 13.9795011,21.9867449 C14.6633146,21.4035221 15.0949526,20.5355046 15.0949526,19.5644764 C15.0949526,19.5326643 15.0918584,19.5038818 15.0918584,19.4735845 C15.0763875,18.9130846 14.9170373,18.3919712 14.6478437,17.9420564 C14.1017211,17.0164742 13.1053955,16.3923499 11.9651905,16.3923499 C11.4531038,16.3923499 10.9456585,16.5211134 10.4985496,16.7634918 L10.4985496,16.7634918 L10.3361052,16.849839 L10.2850512,16.6741148 C9.88590215,15.384965 8.95146007,14.3578868 7.7787662,13.8140504 C7.23419068,13.5595531 6.63856121,13.4126112 6.02127248,13.3914031 C5.97021853,13.3883734 5.92225875,13.3853437 5.8712048,13.3853437 Z M18.7182363,18.3317553 C18.9162638,18.1272486 19.2473409,18.1272486 19.4484626,18.3317553 L19.4484626,18.3317553 L21.4674144,20.3753077 C21.6700832,20.5798144 21.6700832,20.9115698 21.4674144,21.1145616 C21.2662928,21.3175535 20.9352156,21.3190684 20.734094,21.1160765 L20.734094,21.1160765 L18.7182363,19.0725241 C18.5140205,18.8680174 18.5140205,18.5347472 18.7182363,18.3317553 Z M12.5144073,4.54459383 C16.1361439,4.54459383 19.0694256,7.51524333 19.0694256,11.1797008 C19.0694256,12.9248248 18.384065,14.4927097 17.296461,15.6727892 C17.0829627,15.2774096 16.8338813,14.9062678 16.5430284,14.5745124 C17.3088377,13.650445 17.7837942,12.4794546 17.7837942,11.1797008 C17.7837942,8.23328915 15.4244827,5.84586253 12.5144073,5.84586253 C10.1210598,5.84586253 8.12686134,7.47131225 7.48327209,9.68452945 C7.06401083,9.59818216 6.63237285,9.54061731 6.18835815,9.53001326 C6.91549023,6.66843401 9.46045252,4.54459383 12.5144073,4.54459383 Z M2.48926707,10.8380988 C1.96325662,11.1228934 1.46818797,11.4652528 1.02107909,11.8848703 L1.02107909,11.8848703 L0.516727906,11.8848703 C0.230516341,11.8848703 -1.6298074e-12,11.6500663 -1.6298074e-12,11.362242 C-1.6298074e-12,11.071388 0.230516341,10.8380988 0.516727906,10.8380988 L0.516727906,10.8380988 Z M23.4848192,10.8380988 C23.7710307,10.8380988 24,11.071388 24,11.362242 C24,11.6500663 23.7710307,11.8848703 23.4848192,11.8848703 L23.4848192,11.8848703 L20.6273448,11.8848703 C20.3426803,11.8848703 20.112164,11.6500663 20.112164,11.362242 C20.112164,11.071388 20.3426803,10.8380988 20.6273448,10.8380988 L20.6273448,10.8380988 Z M3.24502031,3.18310926 C3.44768904,2.97860254 3.77721911,2.97860254 3.97834075,3.18310926 L3.97834075,3.18310926 L5.99729259,5.22817648 C6.19841423,5.43116834 6.19841423,5.76292369 5.99729259,5.96743041 C5.79617095,6.17193713 5.46664088,6.173452 5.26397215,5.96743041 L5.26397215,5.96743041 L3.24502031,3.92387805 C3.04389867,3.7208862 3.04389867,3.38761598 3.24502031,3.18310926 Z M20.734094,3.18310926 C20.9352156,2.97860254 21.2662928,2.97860254 21.4674144,3.18310926 C21.6700832,3.38761598 21.6700832,3.7208862 21.4674144,3.92387805 L21.4674144,3.92387805 L19.4484626,5.96743041 C19.2473409,6.17193713 18.9162638,6.17193713 18.7182363,5.96743041 C18.5140205,5.76292369 18.5140205,5.43116834 18.7182363,5.22817648 L18.7182363,5.22817648 Z M11.602398,8.52651283e-14 C11.8886096,8.52651283e-14 12.1191259,0.234804014 12.1191259,0.524143155 L12.1191259,0.524143155 L12.1191259,3.4114751 C12.1191259,3.7023291 11.8886096,3.93713312 11.602398,3.93713312 C11.3161864,3.93713312 11.0872172,3.7023291 11.0872172,3.4114751 L11.0872172,3.4114751 L11.0872172,0.524143155 C11.0872172,0.234804014 11.3161864,8.52651283e-14 11.602398,8.52651283e-14 Z" id="path-1"></path>
    </defs>
    <g id="Icons/24px/Weather/Partly-cloudy" stroke="none" stroke-width="1" fill="none" fill-rule="evenodd">
        <mask id="mask-2" fill="white">
            <use xlink:href="#path-1"></use>
        </mask>
        <use id="Mask" fill="#0C2340" fill-rule="nonzero" xlink:href="#path-1"></use>
        <g id="Group" mask="url(#mask-2)" fill="#333333">
            <g id="Color/Grayscale/80%">
                <rect id="Rectangle" x="0" y="0" width="24" height="24"></rect>
            </g>
        </g>
    </g>
</svg>