<?xml version="1.0" encoding="UTF-8"?>
<svg width="24px" height="24px" viewBox="0 0 24 24" version="1.1" xmlns="http://www.w3.org/2000/svg" xmlns:xlink="http://www.w3.org/1999/xlink">
    <title>Icons/24px/Weather/Partly cloudy night</title>
    <defs>
        <path d="M5.72885098,12.1227428 C6.24553532,12.1227428 6.74862271,12.1985099 7.23660237,12.3364061 C8.18838932,12.6031065 9.06312685,13.1198384 9.78074399,13.8623564 C10.1433295,14.2396767 10.459081,14.6670034 10.7128909,15.1276676 L10.7128909,15.1276676 L10.7687895,15.2322263 L10.8836082,15.2094961 C11.1434612,15.1579745 11.4093572,15.1306983 11.6752533,15.1306983 C13.3627866,15.1306983 14.8252148,16.1565854 15.5216812,17.63556 C15.7377217,18.1068317 15.8842667,18.6175022 15.9311006,19.1615103 C15.9431868,19.2933451 15.9507407,19.4312413 15.9507407,19.5661068 C15.9507407,21.1011491 15.1953542,22.452835 14.0532099,23.252936 C13.6800489,23.5090289 13.2645864,23.7045081 12.8204191,23.8317969 C12.4578336,23.9378709 12.0725865,24 11.6752533,24 C10.705337,24 9.79434095,23.6711706 9.03442216,23.0513954 L9.03442216,23.0513954 L8.94679733,22.9801743 L8.85010786,23.0423033 C7.92551483,23.6696553 6.8438014,24 5.72885098,24 C4.19994876,24 2.7632037,23.3832555 1.67846873,22.2603864 C0.595244537,21.1375174 2.27373675e-12,19.64642 2.27373675e-12,18.0613714 C2.27373675e-12,16.4763228 0.595244537,14.9852254 1.68149028,13.8623564 C2.75111752,12.7516101 4.17124408,12.1348655 5.68654933,12.1242581 L5.68654933,12.1242581 Z M5.72885098,13.3895694 C3.2436295,13.3895694 1.22221531,15.4852885 1.22221531,18.0613714 C1.22221531,20.6389696 3.2436295,22.7346887 5.72885098,22.7346887 C6.94200165,22.7346887 8.07961367,22.2391716 8.93622192,21.34815 L8.93622192,21.34815 L9.0601053,21.2178305 L9.15981632,21.3678495 C9.72635617,22.2225028 10.6705893,22.7346887 11.6752533,22.7346887 C12.0846727,22.7346887 12.4729414,22.6483142 12.8309946,22.4982952 C13.127106,22.3694911 13.4020667,22.196742 13.6422796,21.9861094 C14.3070197,21.4042177 14.7315469,20.5359263 14.7315469,19.5661068 C14.7315469,19.5342846 14.7270146,19.5054931 14.7270146,19.4751863 C14.7119069,18.9160248 14.5547865,18.3932315 14.2934228,17.94469 C13.7601199,17.0188155 12.7871821,16.3960096 11.6752533,16.3960096 C11.1751874,16.3960096 10.6826754,16.5232984 10.2430405,16.7657533 L10.2430405,16.7657533 L10.0844094,16.8521278 L10.0345538,16.6778634 C9.64779598,15.3883066 8.73528912,14.3609042 7.59012324,13.8168961 C7.05833116,13.5638338 6.47819435,13.4168456 5.87539595,13.3956308 C5.82554045,13.3941154 5.77870648,13.3895694 5.72885098,13.3895694 Z M12.7041991,0.0135715149 C13.2223942,-0.0606802845 13.7481432,0.174197857 14.0457655,0.609101254 C14.3690709,1.08946494 14.3569847,1.73045496 14.0261254,2.20021124 C12.8386579,3.85496563 12.3431244,5.87491764 12.6271497,7.88880829 C13.2344804,12.1848053 17.2123455,15.1851841 21.493876,14.5760163 C21.7582613,14.539648 22.0226466,14.4881264 22.2824995,14.4229666 C22.3293335,14.4093286 22.3746567,14.4002365 22.4214906,14.3941751 C22.9411965,14.3214387 23.4684563,14.5548015 23.763057,14.9927356 C24.0863624,15.4715839 24.0788085,16.1110586 23.7403954,16.5838455 C22.2689026,18.6386504 20.1749713,20.0418579 17.7713315,20.6570871 C17.8091009,20.3797794 17.8302517,20.0979256 17.8302517,19.8130411 C17.8302517,19.6584762 17.8196763,19.5039112 17.8091009,19.3523769 C19.7821703,18.7659392 21.5014299,17.567303 22.7281775,15.8519349 L22.7281775,15.8519349 L22.9487504,15.5458357 L22.5831433,15.6382716 C22.2824995,15.7125234 21.9727911,15.7716218 21.6706365,15.8140514 C16.7047258,16.5202011 12.0953576,13.0440047 11.3913374,8.06458806 C11.0634997,5.73096007 11.6391042,3.38975538 13.010886,1.47133133 L13.010886,1.47133133 L13.2284373,1.16523208 L12.8628303,1.25463731 C8.55863816,2.31992333 5.67910494,6.20526238 5.77428363,10.552781 L5.77428363,10.552781 L5.73802508,10.552781 C5.33162716,10.5558117 4.93127234,10.5997566 4.5369606,10.6679471 C4.3919264,5.70519925 7.65821749,1.25615265 12.5667188,0.042363029 C12.6105312,0.0302402862 12.6573651,0.0211482292 12.7041991,0.0135715149 Z" id="path-1"></path>
    </defs>
    <g id="Icons/24px/Weather/Partly-cloudy-night" stroke="none" stroke-width="1" fill="none" fill-rule="evenodd">
        <mask id="mask-2" fill="white">
            <use xlink:href="#path-1"></use>
        </mask>
        <use id="Mask" fill="#0C2340" fill-rule="nonzero" xlink:href="#path-1"></use>
        <g id="Group" mask="url(#mask-2)" fill="#333333">
            <g id="Color/Grayscale/80%">
                <rect id="Rectangle" x="0" y="0" width="24" height="24"></rect>
            </g>
        </g>
    </g>
</svg>