<?xml version="1.0" encoding="UTF-8"?>
<svg width="24px" height="24px" viewBox="0 0 24 24" version="1.1" xmlns="http://www.w3.org/2000/svg" xmlns:xlink="http://www.w3.org/1999/xlink">
    <title>Icons/24px/Travel &amp; Airport/Personal device</title>
    <defs>
        <path d="M13.6,12.4009078 L11.6,13.9009078 C11.2703819,14.1481214 10.8,13.9129305 10.8,13.5009078 L10.8,10.5009078 C10.8,10.0888851 11.2703819,9.8536942 11.6,10.1009078 L13.6,11.6009078 C13.8666667,11.8009078 13.8666667,12.2009078 13.6,12.4009078 Z M2.352,10.4734062 L2.352,12.4681587 C2.352,12.6749318 2.184,12.8452155 1.98,12.8452155 C1.788,12.8452155 1.62,12.6749318 1.62,12.4681587 L1.62,10.4734062 C1.62,10.2666331 1.788,10.1085124 1.98,10.1085124 C2.184,10.1085124 2.352,10.2666331 2.352,10.4734062 M2.352,13.5263505 C2.352,13.7331237 2.184,13.8912443 1.98,13.8912443 C1.788,13.8912443 1.62,13.7331237 1.62,13.5263505 C1.62,13.3195774 1.788,13.1492937 1.98,13.1492937 C2.184,13.1492937 2.352,13.3195774 2.352,13.5263505 M0,16.4698268 C0,17.8685861 1.128,18.9997567 2.508,18.9997567 L3.972,18.9997567 L3.972,5 L2.508,5 C1.128,5 0,6.13117061 0,7.52992998 L0,16.4698268 Z M21.024,12.0062032 C21.024,11.4466994 21.468,10.9966638 22.02,10.9966638 C22.572,10.9966638 23.016,11.4466994 23.016,12.0062032 C23.016,12.5535438 22.572,13.0035794 22.02,13.0035794 C21.468,13.0035794 21.024,12.5535438 21.024,12.0062032 L21.024,12.0062032 Z M20.04,19 L21.504,19 C22.884,19 24,17.8688294 24,16.47007 L24,7.53017324 C24,6.13141388 22.884,5.00024326 21.504,5.00024326 L20.04,5.00024326 L20.04,19 Z M13.89612,8.66134385 C15.03612,9.33031572 15.80412,10.5831176 15.80412,12.0062032 C15.80412,13.8185088 14.56812,15.3388994 12.90012,15.7402825 C12.61212,15.8132613 12.30012,15.8497507 12.00012,15.8497507 C11.68812,15.8497507 11.38812,15.8132613 11.10012,15.7402825 C9.85212,15.4362044 8.84412,14.4874807 8.42412,13.2833313 C8.28012,12.8819482 8.20812,12.4562388 8.20812,12.0062032 C8.20812,11.5561676 8.28012,11.1304582 8.42412,10.7290751 C8.72412,9.85333009 9.32412,9.11137947 10.10412,8.66134385 C10.66812,8.33293948 11.31612,8.15049261 12.00012,8.15049261 C12.69612,8.15049261 13.34412,8.33293948 13.89612,8.66134385 L13.89612,8.66134385 Z M5.17212,19 L18.84012,19 L18.84012,5.00024326 L5.17212,5.00024326 L5.17212,19 Z" id="path-1"></path>
    </defs>
    <g id="Icons/24px/Travel-&amp;-Airport/Personal-device" stroke="none" stroke-width="1" fill="none" fill-rule="evenodd">
        <mask id="mask-2" fill="white">
            <use xlink:href="#path-1"></use>
        </mask>
        <use id="Mask" fill="#0C2340" fill-rule="nonzero" xlink:href="#path-1"></use>
        <g id="Group" mask="url(#mask-2)">
            <g transform="translate(0.000000, 0.000000)" id="Color/Grayscale/80%">
                <rect id="Rectangle" fill="#333333" x="0" y="0" width="24" height="24"></rect>
            </g>
        </g>
    </g>
</svg>