<?xml version="1.0" encoding="UTF-8"?>
<svg width="14px" height="24px" viewBox="0 0 14 24" version="1.1" xmlns="http://www.w3.org/2000/svg" xmlns:xlink="http://www.w3.org/1999/xlink">
    <title>Icons/24px/Digital/Phone</title>
    <defs>
        <path d="M8.5265938,2.352 L6.53184132,2.352 C6.3250682,2.352 6.15478445,2.184 6.15478445,1.98 C6.15478445,1.788 6.3250682,1.62 6.53184132,1.62 L8.5265938,1.62 C8.73336693,1.62 8.89148755,1.788 8.89148755,1.98 C8.89148755,2.184 8.73336693,2.352 8.5265938,2.352 Z M5.47364946,2.352 C5.26687634,2.352 5.10875571,2.184 5.10875571,1.98 C5.10875571,1.788 5.26687634,1.62 5.47364946,1.62 C5.68042258,1.62 5.85070633,1.788 5.85070633,1.98 C5.85070633,2.184 5.68042258,2.352 5.47364946,2.352 Z M2.53017324,0 C1.13141388,0 0.000243262498,1.128 0.000243262498,2.508 L0.000243262498,3.972 L14,3.972 L14,2.508 C14,1.128 12.8688294,0 11.47007,0 L2.53017324,0 Z M6.99379681,21.024 C7.55330055,21.024 8.00333617,21.468 8.00333617,22.02 C8.00333617,22.572 7.55330055,23.016 6.99379681,23.016 C6.44645619,23.016 5.99642057,22.572 5.99642057,22.02 C5.99642057,21.5074286 6.38446148,21.0879796 6.87812744,21.0306735 L6.99379681,21.024 Z M0,20.04 L0,21.504 C0,22.884 1.13117061,24 2.52992998,24 L11.4698268,24 C12.8685861,24 13.9997567,22.884 13.9997567,21.504 L13.9997567,20.04 L0,20.04 Z M0,5.17212 L0,18.84012 L13.9997567,18.84012 L13.9997567,5.17212 L0,5.17212 Z" id="path-1"></path>
    </defs>
    <g id="Icons" stroke="none" stroke-width="1" fill="none" fill-rule="evenodd">
        <g transform="translate(-912.000000, -473.000000)" id="Icons/24px/Digital/Phone">
            <g transform="translate(912.000000, 473.000000)">
                <mask id="mask-2" fill="white">
                    <use xlink:href="#path-1"></use>
                </mask>
                <use id="Shape" fill="#0C2340" fill-rule="nonzero" xlink:href="#path-1"></use>
                <g id="Color/Grayscale/80%" mask="url(#mask-2)" fill="#333333">
                    <g transform="translate(-5.000000, 0.000000)" id="Rectangle">
                        <rect x="0" y="0" width="24" height="24"></rect>
                    </g>
                </g>
            </g>
        </g>
    </g>
</svg>