<?xml version="1.0" encoding="UTF-8"?>
<svg width="24px" height="24px" viewBox="0 0 24 24" version="1.1" xmlns="http://www.w3.org/2000/svg" xmlns:xlink="http://www.w3.org/1999/xlink">
    <title>Icons/24px/Digital/Pin/Pin</title>
    <defs>
        <path d="M12.382718,0 C12.674292,0 12.9106595,0.225675576 12.9106595,0.504060507 C12.9106595,0.598531384 12.8828531,0.691100898 12.8304115,0.771212041 L10,4 L10,9 L13.9279973,14.3637732 C14.074913,14.6042362 13.9898425,14.8597299 13.737987,15 C13.6572457,15.0449686 13.565447,15 13.4719725,15 L8.5,15 L7.48,23.5495966 C7.46,23.8263973 7.26009685,23.9970894 7,23.9970894 C6.73990315,23.9970894 6.50149062,23.83 6.47501995,23.5495966 L5.5,15 L0.527941516,15 C0.236367468,15 0,14.8961396 0,14.6177547 C0,14.5285085 0.0248176848,14.4408622 0.0719167736,14.3637732 L4,9 L4,4 L1.16950256,0.771212041 C1.01496862,0.535142092 1.09013333,0.22416177 1.33738763,0.0766180519 C1.42129422,0.0265485871 1.51824942,0 1.61719607,0 L12.382718,0 Z" id="path-1"></path>
    </defs>
    <g id="Icons/24px/Digital/Pin/Pin" stroke="none" stroke-width="1" fill="none" fill-rule="evenodd">
        <g id="Pin" transform="translate(5.000000, 0.000000)">
            <mask id="mask-2" fill="white">
                <use xlink:href="#path-1"></use>
            </mask>
            <use id="Mask" fill="#D8D8D8" xlink:href="#path-1"></use>
            <g id="Group" mask="url(#mask-2)">
                <g transform="translate(-5.000000, 0.000000)" id="Color/Grayscale/80%">
                    <rect id="Rectangle" fill="#333333" x="0" y="0" width="24" height="24"></rect>
                </g>
            </g>
        </g>
    </g>
</svg>