<?xml version="1.0" encoding="UTF-8"?>
<svg width="24px" height="24px" viewBox="0 0 24 24" version="1.1" xmlns="http://www.w3.org/2000/svg" xmlns:xlink="http://www.w3.org/1999/xlink">
    <title>Icons/24px/Digital/Pin/Pinned</title>
    <defs>
        <path d="M21.3907322,8.23041007 C21.5969062,8.43658405 21.6044665,8.76329782 21.4076187,8.9601457 C21.3408177,9.02694669 21.255699,9.07274114 21.1619701,9.09230645 L16.8774691,9.37400114 L13.3419352,12.909535 L12.3266883,19.479809 C12.2605403,19.7537271 12.0197251,19.8742345 11.7424504,19.7953317 C11.6535601,19.7700366 11.6204462,19.6733275 11.5543498,19.6072311 L8.0386343,16.0915156 L1.27190764,21.4157444 C1.06203786,21.5973299 0.799987412,21.5766746 0.616071166,21.3927584 C0.432154921,21.2088421 0.381721885,20.9221089 0.56127943,20.7051162 L5.91731395,13.9701952 L2.40153768,10.454419 C2.1953637,10.248245 2.10166703,10.0076676 2.2985149,9.81081968 C2.36162153,9.74771305 2.44114551,9.70328658 2.52895977,9.68208049 L9.09929447,8.66689436 L12.6348284,5.13136046 L12.9164623,0.846798663 C12.974117,0.570600006 13.2471627,0.403853184 13.5263271,0.474359211 C13.6210625,0.498285673 13.7083928,0.548070669 13.7783587,0.618036516 L21.3907322,8.23041007 Z" id="path-1"></path>
    </defs>
    <g id="Icons/24px/Digital/Pin/Pinned" stroke="none" stroke-width="1" fill="none" fill-rule="evenodd">
        <g id="Pin" transform="translate(1.000000, 1.000000)">
            <mask id="mask-2" fill="white">
                <use xlink:href="#path-1"></use>
            </mask>
            <use id="Mask" fill="#D8D8D8" xlink:href="#path-1"></use>
            <g id="Group" mask="url(#mask-2)">
                <g transform="translate(-1.000000, -1.000000)" id="Color/Grayscale/80%">
                    <rect id="Rectangle" fill="#333333" x="0" y="0" width="24" height="24"></rect>
                </g>
            </g>
        </g>
    </g>
</svg>