<?xml version="1.0" encoding="UTF-8"?>
<svg width="24px" height="19px" viewBox="0 0 24 19" version="1.1" xmlns="http://www.w3.org/2000/svg" xmlns:xlink="http://www.w3.org/1999/xlink">
    <title>Icons/24px/Travel &amp; Airport/Plane arriving</title>
    <defs>
        <path d="M9.75009711,11.9750804 C9.75009711,12.5962661 10.2536086,13.1000727 10.8744304,13.1000727 C11.4965703,13.1000727 12.0000818,12.5962661 12.0000818,11.9750804 C12.0000818,11.3538947 11.4965703,10.8500881 10.8744304,10.8500881 C10.2536086,10.8500881 9.75009711,11.3538947 9.75009711,11.9750804 M12.7500767,12.4244183 C12.7500767,13.0452401 13.2535882,13.5487516 13.87441,13.5487516 C14.4965498,13.5487516 15.0000613,13.0452401 15.0000613,12.4244183 C15.0000613,11.8035965 14.4965498,11.300085 13.87441,11.300085 C13.2535882,11.300085 12.7500767,11.8035965 12.7500767,12.4244183 M6.49911927,9.54579743 C16.8470487,11.3237853 22.2670118,12.1897794 22.8650077,12.1197799 C24.0609996,11.9787809 24.3109979,11.3137854 23.6180026,10.4007916 C23.2500051,9.97679449 21.9950137,8.51380446 20.3880246,8.29480596 C19.2540323,8.19880661 17.5180442,7.89580868 15.2920593,7.63981042 L10.945089,0.752857355 C10.7060906,0.413859665 10.3830928,0.202861103 9.97609557,0.120861662 C9.6340979,0.0818619273 9.29110024,0.0428621931 8.94810258,0.00286246569 C8.49910564,-0.0131374253 8.00810898,0.0338622544 8.05310868,0.247860796 L9.65509776,6.54081791 C7.64211148,6.23981996 5.97112286,5.97882174 4.57813236,5.71482354 C3.12614225,3.84683627 2.34614757,2.7858435 1.89415065,2.49084551 C1.46415358,2.30284679 0.436160585,2.1848476 0.397160851,2.52684527 C0.492160203,3.50983857 0.652159113,4.53483158 0.854157736,5.49582503 C0.13016267,5.75982323 -0.167835299,5.93382205 0.0931629224,6.37981901 C0.419160701,6.86881567 3.17714191,8.85180216 6.49911927,9.54579743 M23.0000068,18.999733 L1.00016356,18.999733 C0.448160503,18.999733 0.000163556156,18.5527361 0.000163556156,17.9997466 C0.000163556156,17.4477436 0.448160503,16.9997466 1.00016356,16.9997466 L23.0000068,16.9997466 C23.5520031,16.9997466 24,17.4477436 24,17.9997466 C24,18.5527361 23.5520031,18.999733 23.0000068,18.999733 Z" id="path-1"></path>
    </defs>
    <g id="Icons" stroke="none" stroke-width="1" fill="none" fill-rule="evenodd">
        <g transform="translate(-907.000000, -1173.000000)" id="Icons/24px/Travel-&amp;-Airport/Plane-arriving">
            <g transform="translate(907.000000, 1173.000000)">
                <mask id="mask-2" fill="white">
                    <use xlink:href="#path-1"></use>
                </mask>
                <use id="Fill-1" fill="#333333" xlink:href="#path-1"></use>
                <g id="Color/Grayscale/80%" mask="url(#mask-2)" fill="#333333">
                    <g transform="translate(0.000000, -4.000000)" id="Rectangle">
                        <rect x="0" y="0" width="24" height="24"></rect>
                    </g>
                </g>
            </g>
        </g>
    </g>
</svg>