<?xml version="1.0" encoding="UTF-8"?>
<svg width="24px" height="24px" viewBox="0 0 24 24" version="1.1" xmlns="http://www.w3.org/2000/svg" xmlns:xlink="http://www.w3.org/1999/xlink">
    <title>Icons/24px/Background shape/Add</title>
    <defs>
        <path d="M12,4.47641924e-13 C18.627417,4.47641924e-13 24,5.372583 24,12 C24,18.627417 18.627417,24 12,24 C5.372583,24 0,18.627417 0,12 C0,5.372583 5.372583,4.47641924e-13 12,4.47641924e-13 Z M12,4 L11.9029162,4.00461466 L11.8084433,4.018177 C11.3433105,4.10765385 10.9919305,4.51682709 10.9919305,5.00806952 L10.9919305,5.00806952 L10.9915167,10.9915167 L5.00806952,10.9919305 L4.9109857,10.9965451 C4.39979236,11.0453927 4,11.4760081 4,12 L4,12 L4.00461466,12.0970838 L4.018177,12.1915567 C4.10765385,12.6566895 4.51682709,13.0080695 5.00806952,13.0080695 L5.00806952,13.0080695 L10.9915167,13.007904 L10.9919305,18.9919305 L10.9965451,19.0890143 C11.0453927,19.6002076 11.4760081,20 12,20 L12,20 L12.0970838,19.9953853 L12.1915567,19.981823 C12.6566895,19.8923461 13.0080695,19.4831729 13.0080695,18.9919305 L13.0080695,18.9919305 L13.007904,13.007904 L18.9919305,13.0080695 L19.0890143,13.0034549 C19.6002076,12.9546073 20,12.5239919 20,12 L20,12 L19.9953853,11.9029162 L19.981823,11.8084433 C19.8923461,11.3433105 19.4831729,10.9919305 18.9919305,10.9919305 L18.9919305,10.9919305 L13.007904,10.9915167 L13.0080695,5.00806952 L13.0034549,4.9109857 C12.9546073,4.39979236 12.5239919,4 12,4 L12,4 Z" id="path-1"></path>
    </defs>
    <g id="Icons/24px/Background-shape/Add" stroke="none" stroke-width="1" fill="none" fill-rule="evenodd">
        <g id="Icon">
            <mask id="mask-2" fill="white">
                <use xlink:href="#path-1"></use>
            </mask>
            <use id="Mask" fill="#333333" xlink:href="#path-1"></use>
            <g id="Group" mask="url(#mask-2)" fill="#333333">
                <g id="Color/Grayscale/80%">
                    <rect id="Rectangle" x="0" y="0" width="24" height="24"></rect>
                </g>
            </g>
        </g>
    </g>
</svg>