<?xml version="1.0" encoding="UTF-8"?>
<svg width="24px" height="24px" viewBox="0 0 24 24" version="1.1" xmlns="http://www.w3.org/2000/svg" xmlns:xlink="http://www.w3.org/1999/xlink">
    <title>Icons/24px/Travel &amp; Airport/Premier access</title>
    <defs>
        <path d="M5.82024,22.2082693 C6.31584,22.20588 6.71664,22.60788 6.71425072,23.09988 C6.71304,23.59428 6.30864,23.99868 5.81424,23.9998907 C5.31504,24.00228 4.91184,23.60148 4.91422934,23.10708 C4.91544,22.61388 5.32104,22.20948 5.82024,22.2082693 Z M13.75644,4.43628 C14.84124,4.43628 16.01604,4.91388 16.55844,5.70108 L16.55844,5.70108 L18.61044,8.91588 L20.97324,9.45828 C21.46404,9.56148 21.77364,10.05228 21.67044,10.54308 L21.67044,10.54308 L21.67044,10.55628 C21.56724,10.98228 21.19284,11.26548 20.78004,11.26548 C20.71524,11.26548 20.65044,11.26548 20.58564,11.25348 C20.58564,11.25348 17.65524,10.55628 17.56524,10.50468 C17.44884,10.42668 17.34564,10.33548 17.25564,10.20708 L17.25564,10.20708 L16.13244,8.42508 L15.33084,12.60828 C15.7351665,13.5468269 16.2021659,14.6298932 16.6701238,15.7147331 L16.8859477,16.2150347 C18.0349742,18.8784369 19.1322789,21.4195221 19.2573978,21.7092574 L19.26924,21.73668 C19.48884,22.29108 19.21764,22.93668 18.65004,23.16948 L18.65004,23.16948 L18.63684,23.16948 C18.49404,23.22108 18.36564,23.24748 18.22284,23.24748 C17.78484,23.24748 17.37084,22.98828 17.18964,22.56228 L17.18964,22.56228 L14.55684,16.66188 L14.15724,18.77988 L13.60164,22.42068 C13.52364,22.96308 13.04604,23.35068 12.51684,23.35068 L12.51684,23.35068 L12.34884,23.35068 L12.32244,23.33748 C11.72844,23.24748 11.31564,22.69188 11.39364,22.08468 L11.39364,22.08468 L12.74844,13.22868 C12.19404,12.84108 11.42004,12.16908 11.51004,11.45868 L11.51004,11.45868 L12.03924,7.43148 L9.25044,9.13548 L8.38644,12.35868 L6.66804,22.08468 C6.43524,21.86508 6.12564,21.73668 5.77644,21.73668 C5.04084,21.73668 4.44684,22.34268 4.44684,23.06628 C4.44684,23.38908 4.56324,23.68548 4.75644,23.91828 L4.75644,23.91828 L2.47164,23.64708 C2.16084,23.59548 1.90284,23.44068 1.72284,23.20788 C1.54164,22.96308 1.46364,22.66548 1.51524,22.36908 L1.51524,22.36908 L2.88444,15.04908 C2.96124,14.46828 3.51684,14.05428 4.14924,14.10708 L4.14924,14.10708 L6.69324,14.53308 C6.69324,14.53308 6.96700327,13.0535045 7.10479711,12.3308995 L7.14929598,12.0997739 C7.16755837,12.0063208 7.17924,11.9493086 7.18164,11.94348 C6.82764,11.73828 6.63684,11.32548 6.75924,10.91748 C6.75924,10.91748 7.71444,7.87068 7.84284,7.74108 C7.84284,7.74108 12.29724,4.73268 12.83964,4.56468 C13.12284,4.48788 13.43364,4.43628 13.75644,4.43628 Z M15.3444,-0.00036 C16.3908,-0.00036 17.2416,0.85164 17.2416,1.91124 C17.2416,2.95644 16.3908,3.82164 15.3444,3.82164 C14.2848,3.82164 13.434,2.95644 13.434,1.91124 C13.434,0.85164 14.2848,-0.00036 15.3444,-0.00036 Z" id="path-1"></path>
    </defs>
    <g id="Icons/24px/Travel-&amp;-Airport/Premier-access" stroke="none" stroke-width="1" fill="none" fill-rule="evenodd">
        <mask id="mask-2" fill="white">
            <use xlink:href="#path-1"></use>
        </mask>
        <use id="Mask" fill="#0C2340" fill-rule="nonzero" xlink:href="#path-1"></use>
        <g id="Group" mask="url(#mask-2)" fill="#333333">
            <g id="Color/Grayscale/80%">
                <rect id="Rectangle" x="0" y="0" width="24" height="24"></rect>
            </g>
        </g>
    </g>
</svg>