<?xml version="1.0" encoding="UTF-8"?>
<svg width="24px" height="24px" viewBox="0 0 24 24" version="1.1" xmlns="http://www.w3.org/2000/svg" xmlns:xlink="http://www.w3.org/1999/xlink">
    <title>Icons/24px/Background shape/Price</title>
    <defs>
        <path d="M12,24 C18.627417,24 24,18.627417 24,12 C24,5.372583 18.627417,0 12,0 C5.372583,0 0,5.372583 0,12 C0,18.627417 5.372583,24 12,24 Z M12.5507812,18.9296875 L12.5507812,17.328125 C13.6289062,17.2291667 14.4674479,16.9283854 15.0664062,16.4257812 C15.6653646,15.9231771 15.9648438,15.2578125 15.9648438,14.4296875 C15.9648438,13.9713542 15.8645833,13.5703125 15.6640625,13.2265625 C15.4635417,12.8828125 15.1484375,12.5677083 14.71875,12.28125 C14.2890625,11.9947917 13.5664062,11.65625 12.5507812,11.265625 L12.5507812,11.265625 L12.5507812,8.9609375 C13.4049479,9.03385417 14.2382812,9.23697917 15.0507812,9.5703125 L15.0507812,9.5703125 L15.7851562,7.7421875 C14.8216146,7.31510417 13.7434896,7.07552083 12.5507812,7.0234375 L12.5507812,7.0234375 L12.5507812,5.859375 L11.4804688,5.859375 L11.4804688,7.0546875 C10.4231771,7.15885417 9.59895833,7.45442708 9.0078125,7.94140625 C8.41666667,8.42838542 8.12109375,9.04947917 8.12109375,9.8046875 C8.12109375,10.5078125 8.3359375,11.0976562 8.765625,11.5742188 C9.1953125,12.0507812 9.92578125,12.4921875 10.9570312,12.8984375 L10.9570312,12.8984375 L11.4804688,13.1015625 L11.4804688,15.5234375 C10.9804688,15.4921875 10.4114583,15.390625 9.7734375,15.21875 C9.13541667,15.046875 8.58984375,14.8489583 8.13671875,14.625 L8.13671875,14.625 L8.13671875,16.6875 C9.09505208,17.109375 10.2096354,17.3333333 11.4804688,17.359375 L11.4804688,17.359375 L11.4804688,18.9296875 L12.5507812,18.9296875 Z M11.4804688,10.828125 C11.1263021,10.671875 10.8697917,10.5195312 10.7109375,10.3710938 C10.5520833,10.2226562 10.4726562,10.0338542 10.4726562,9.8046875 C10.4726562,9.36197917 10.8085938,9.09114583 11.4804688,8.9921875 L11.4804688,8.9921875 L11.4804688,10.828125 Z M12.5507812,15.46875 L12.5507812,13.5234375 C12.9049479,13.6848958 13.1705729,13.8411458 13.3476562,13.9921875 C13.5247396,14.1432292 13.6132812,14.328125 13.6132812,14.546875 C13.6132812,15.0416667 13.2591146,15.3489583 12.5507812,15.46875 L12.5507812,15.46875 Z" id="path-1"></path>
    </defs>
    <g id="Icons/24px/Background-shape/Price" stroke="none" stroke-width="1" fill="none" fill-rule="evenodd">
        <mask id="mask-2" fill="white">
            <use xlink:href="#path-1"></use>
        </mask>
        <g id="Combined-Shape"></g>
        <g id="Group" mask="url(#mask-2)" fill="#333333">
            <g id="Color/Grayscale/80%">
                <rect id="Rectangle" x="0" y="0" width="24" height="24"></rect>
            </g>
        </g>
    </g>
</svg>