<?xml version="1.0" encoding="UTF-8"?>
<svg width="24px" height="24px" viewBox="0 0 24 24" version="1.1" xmlns="http://www.w3.org/2000/svg" xmlns:xlink="http://www.w3.org/1999/xlink">
    <title>Icons/24px/Background shape/Priority</title>
    <defs>
        <path d="M12,24 C18.627417,24 24,18.627417 24,12 C24,5.372583 18.627417,0 12,0 C5.372583,0 0,5.372583 0,12 C0,18.627417 5.372583,24 12,24 Z M11.4554455,18 L11.4554455,13.4613861 L12.5089109,13.4613861 C13.9452145,13.4613861 15.0528053,13.1313531 15.8316832,12.4712871 C16.6105611,11.8112211 17,10.8580858 17,9.61188119 C17,8.41320132 16.6343234,7.51155116 15.9029703,6.90693069 C15.1716172,6.30231023 14.1036304,6 12.6990099,6 L9,6 L9,18 L11.4554455,18 Z M11.4554455,11.449505 L11.4554455,8.01188119 L12.5722772,8.01188119 C13.2429043,8.01188119 13.7353135,8.14917492 14.049505,8.42376238 C14.3636964,8.69834983 14.5207921,9.12343234 14.5207921,9.6990099 C14.5207921,10.2693069 14.3333333,10.7036304 13.9584158,11.0019802 C13.5834983,11.30033 13.0184818,11.449505 12.2633663,11.449505 L11.4554455,11.449505 Z" id="path-1"></path>
    </defs>
    <g id="Icons/24px/Background-shape/Priority" stroke="none" stroke-width="1" fill="none" fill-rule="evenodd">
        <g id="Icon">
            <mask id="mask-2" fill="white">
                <use xlink:href="#path-1"></use>
            </mask>
            <use id="Mask" fill="#0C2340" xlink:href="#path-1"></use>
            <g id="Group" mask="url(#mask-2)" fill="#333333">
                <g id="Color/Grayscale/80%">
                    <rect id="Rectangle" x="0" y="0" width="24" height="24"></rect>
                </g>
            </g>
        </g>
    </g>
</svg>