<?xml version="1.0" encoding="UTF-8"?>
<svg width="24px" height="24px" viewBox="0 0 24 24" version="1.1" xmlns="http://www.w3.org/2000/svg" xmlns:xlink="http://www.w3.org/1999/xlink">
    <title>Icons/24px/Background shape/Question</title>
    <defs>
        <path d="M12,24 C18.627417,24 24,18.627417 24,12 C24,5.372583 18.627417,0 12,0 C5.372583,0 0,5.372583 0,12 C0,18.627417 5.372583,24 12,24 Z M12.4101562,14.2109375 L12.4101562,13.7421875 C12.4101562,13.4296875 12.4765625,13.1770833 12.609375,12.984375 C12.7421875,12.7916667 13.0585938,12.5104167 13.5585938,12.140625 C14.2877604,11.6197917 14.7825521,11.1510417 15.0429688,10.734375 C15.3033854,10.3177083 15.4335938,9.82291667 15.4335938,9.25 C15.4335938,8.390625 15.1171875,7.703125 14.484375,7.1875 C13.8515625,6.671875 12.9986979,6.4140625 11.9257812,6.4140625 C10.6236979,6.4140625 9.39192708,6.73958333 8.23046875,7.390625 L8.23046875,7.390625 L9.08203125,9.1015625 C10.0820312,8.59114583 10.9726562,8.3359375 11.7539062,8.3359375 C12.2018229,8.3359375 12.5507812,8.42447917 12.8007812,8.6015625 C13.0507812,8.77864583 13.1757812,9.03645833 13.1757812,9.375 C13.1757812,9.67708333 13.0885417,9.95052083 12.9140625,10.1953125 C12.7395833,10.4401042 12.3789062,10.7578125 11.8320312,11.1484375 C11.2643229,11.5651042 10.8736979,11.9583333 10.6601562,12.328125 C10.4466146,12.6979167 10.3398438,13.1328125 10.3398438,13.6328125 L10.3398438,13.6328125 L10.3398438,14.2109375 L12.4101562,14.2109375 Z M11.4648438,18.2109375 C11.8919271,18.2109375 12.2252604,18.0924479 12.4648438,17.8554688 C12.7044271,17.6184896 12.8242188,17.2942708 12.8242188,16.8828125 C12.8242188,16.4557292 12.7057292,16.1276042 12.46875,15.8984375 C12.2317708,15.6692708 11.8971354,15.5546875 11.4648438,15.5546875 C11.0169271,15.5546875 10.6757812,15.6666667 10.4414062,15.890625 C10.2070312,16.1145833 10.0898438,16.4453125 10.0898438,16.8828125 C10.0898438,17.3046875 10.2096354,17.6315104 10.4492188,17.8632812 C10.6888021,18.0950521 11.0273438,18.2109375 11.4648438,18.2109375 Z" id="path-1"></path>
    </defs>
    <g id="Icons/24px/Background-shape/Question" stroke="none" stroke-width="1" fill="none" fill-rule="evenodd">
        <mask id="mask-2" fill="white">
            <use xlink:href="#path-1"></use>
        </mask>
        <g id="Combined-Shape"></g>
        <g id="Group" mask="url(#mask-2)" fill="#333333">
            <g id="Color/Grayscale/80%">
                <rect id="Rectangle" x="0" y="0" width="24" height="24"></rect>
            </g>
        </g>
    </g>
</svg>