<?xml version="1.0" encoding="UTF-8"?>
<svg width="24px" height="24px" viewBox="0 0 24 24" version="1.1" xmlns="http://www.w3.org/2000/svg" xmlns:xlink="http://www.w3.org/1999/xlink">
    <title>Icons/24px/Interface/External/Re-attach</title>
    <defs>
        <path d="M18.7148539,13.215247 C18.7148539,12.6629623 19.1625692,12.215247 19.7148539,12.215247 C20.2671387,12.215247 20.7148539,12.6629623 20.7148539,13.215247 L20.7148539,20.0278691 C20.7148539,20.5801538 20.2671387,21.0278691 19.7148539,21.0278691 L1,21.0278691 C0.44771525,21.0278691 1.36424205e-12,20.5801538 1.36424205e-12,20.0278691 L1.36424205e-12,1.4 C1.36424205e-12,0.84771525 0.44771525,0.4 1,0.4 L7.86950684,0.4 C8.42179159,0.4 8.86950684,0.84771525 8.86950684,1.4 C8.86950684,1.95228475 8.42179159,2.4 7.86950684,2.4 L2,2.4 L2,19.0278691 L18.7148539,19.0278691 L18.7148539,13.215247 Z M14.655944,13.9029541 C15.2082287,13.9029541 15.655944,14.3506694 15.655944,14.9029541 C15.655944,15.4552389 15.2082287,15.9029541 14.655944,15.9029541 L6.1560727,15.9029541 L6.14233397,15.9029541 C5.59004922,15.9029541 5.14233397,15.4552389 5.14233397,14.9029541 L5.14233397,6.37497893 C5.14233397,5.82269418 5.59004922,5.37497893 6.14233397,5.37497893 C6.69461872,5.37497893 7.14233397,5.82269418 7.14233397,6.37497893 L7.14233397,12.4963834 L18.3052612,1.29413744 C18.6950983,0.902927195 19.3282623,0.901814071 19.7194726,1.2916512 C20.1106828,1.68148834 20.1117959,2.31465234 19.7219588,2.70586258 L8.56416795,13.9029541 L14.655944,13.9029541 Z" id="path-1"></path>
    </defs>
    <g id="Icons/24px/Interface/External/Re-attach" stroke="none" stroke-width="1" fill="none" fill-rule="evenodd">
        <g id="Icon" transform="translate(0.000000, 3.000000)">
            <mask id="mask-2" fill="white">
                <use xlink:href="#path-1"></use>
            </mask>
            <use id="Mask" fill="#0C2340" fill-rule="nonzero" xlink:href="#path-1"></use>
            <g id="Group" mask="url(#mask-2)">
                <g transform="translate(0.000000, -3.000000)" id="Color/Grayscale/80%">
                    <rect id="Rectangle" fill="#333333" x="0" y="0" width="24" height="24"></rect>
                </g>
            </g>
        </g>
    </g>
</svg>