<?xml version="1.0" encoding="UTF-8"?>
<svg width="24px" height="24px" viewBox="0 0 24 24" version="1.1" xmlns="http://www.w3.org/2000/svg" xmlns:xlink="http://www.w3.org/1999/xlink">
    <title>Icons/24px/Digital/Redeposit</title>
    <defs>
        <path d="M17.61552,6.31855057 L17.61552,21.6792861 C17.61552,22.4050838 17.02752,23 16.29552,23 L16.29552,23 L7.69152,23 C6.97152,23 6.37152,22.4050838 6.37152,21.6792861 L6.37152,21.6792861 L6.37152,6.31855057 L17.61552,6.31855057 Z M11.99952,9.89994592 C11.92752,9.89994592 11.84352,9.91184424 11.77152,9.94753921 L11.77152,9.94753921 L11.75952,9.94753921 C11.68752,9.98323418 11.62752,10.0189292 11.56752,10.0784208 C11.54352,10.1022174 11.51952,10.1260141 11.49552,10.161709 L11.49552,10.161709 L7.77552,13.838291 C7.54752,14.0643591 7.54752,14.4451055 7.77552,14.6711736 C7.89552,14.7901568 8.05152,14.8496485 8.20752,14.8496485 C8.35152,14.8496485 8.50752,14.7901568 8.62752,14.6711736 L8.62752,14.6711736 L11.39952,11.9226609 L11.39952,18.8236885 C11.39952,19.1449432 11.66352,19.4186047 11.99952,19.4186047 C12.32352,19.4186047 12.59952,19.1449432 12.59952,18.8236885 L12.59952,18.8236885 L12.59952,11.9345592 L15.35952,14.6711736 C15.47952,14.7901568 15.63552,14.8496485 15.79152,14.8496485 C15.94752,14.8496485 16.09152,14.7901568 16.21152,14.6711736 C16.45152,14.4451055 16.45152,14.0643591 16.21152,13.838291 L16.21152,13.838291 L12.49152,10.161709 L12.41952,10.0784208 C12.35952,10.0189292 12.29952,9.97133586 12.22752,9.94753921 C12.15552,9.91184424 12.07152,9.89994592 11.99952,9.89994592 Z M22.056,1 C23.136,1 24,1.86857761 24,2.92752839 L24,2.92752839 L24,12.0059492 C24,13.0648999 23.136,13.9334776 22.056,13.9334776 L22.056,13.9334776 L18.816,13.9334776 L18.816,9.80475933 L19.584,9.80475933 C20.484,9.80475933 21.204,9.09085992 21.204,8.21038399 L21.204,8.21038399 L21.204,6.72309356 C21.204,5.84261763 20.484,5.12871823 19.584,5.12871823 L19.584,5.12871823 L4.404,5.12871823 C3.504,5.12871823 2.796,5.83071931 2.796,6.72309356 L2.796,6.72309356 L2.796,8.21038399 C2.796,9.10275825 3.504,9.80475933 4.404,9.80475933 L4.404,9.80475933 L5.172,9.80475933 L5.172,13.9334776 L1.932,13.9334776 C0.864,13.9334776 0,13.0648999 0,12.0059492 L0,12.0059492 L0,2.92752839 C0,1.86857761 0.864,1 1.932,1 L1.932,1 Z M5.17164,6.31855057 L5.17164,8.61492699 L4.40364,8.61492699 C4.17564,8.61492699 3.99564,8.43645214 3.99564,8.21038399 L3.99564,8.21038399 L3.99564,6.72309356 C3.99564,6.49702542 4.17564,6.31855057 4.40364,6.31855057 L4.40364,6.31855057 L5.17164,6.31855057 Z M19.58412,6.31855057 C19.82412,6.31855057 20.00412,6.49702542 20.00412,6.72309356 L20.00412,6.72309356 L20.00412,8.21038399 C20.00412,8.43645214 19.82412,8.61492699 19.58412,8.61492699 L19.58412,8.61492699 L18.81612,8.61492699 L18.81612,6.31855057 Z" id="path-1"></path>
    </defs>
    <g id="Icons/24px/Digital/Redeposit" stroke="none" stroke-width="1" fill="none" fill-rule="evenodd">
        <mask id="mask-2" fill="white">
            <use xlink:href="#path-1"></use>
        </mask>
        <use id="Mask" fill="#0C2340" fill-rule="nonzero" xlink:href="#path-1"></use>
        <g id="Group" mask="url(#mask-2)" fill="#333333">
            <g id="Color/Grayscale/80%">
                <rect id="Rectangle" x="0" y="0" width="24" height="24"></rect>
            </g>
        </g>
    </g>
</svg>