<?xml version="1.0" encoding="UTF-8"?>
<svg width="24px" height="24px" viewBox="0 0 24 24" version="1.1" xmlns="http://www.w3.org/2000/svg" xmlns:xlink="http://www.w3.org/1999/xlink">
    <title>Icons/24px/Interface/Refresh</title>
    <defs>
        <path d="M22.545,7.9183 L23.974,2.6653 C24.086,2.2563 23.827,1.8843 23.397,1.8343 C22.967,1.7843 22.528,2.0763 22.417,2.4853 L21.663,5.2583 C20.927,4.1553 20.028,3.2133 19.016,2.4393 C18.905,2.3503 18.8,2.2683 18.702,2.1963 C18.353,1.9483 17.994,1.7173 17.623,1.5103 C17.479,1.4293 17.33,1.3633 17.184,1.2893 C16.991,1.1913 16.801,1.0883 16.604,1.0013 C16.366,0.8963 16.124,0.8103 15.882,0.7223 C15.767,0.6803 15.655,0.6313 15.54,0.5933 C15.29,0.5103 15.036,0.4453 14.783,0.3803 C14.666,0.3503 14.55,0.3133 14.432,0.2863 C14.201,0.2343 13.969,0.1983 13.737,0.1613 C13.587,0.1363 13.439,0.1063 13.288,0.0873 C13.095,0.0643 12.901,0.0543 12.708,0.0393 C12.513,0.0243 12.319,0.0063 12.124,0.0013 C11.974,-0.0027 11.824,0.0053 11.673,0.0073 C11.437,0.0103 11.2,0.0113 10.963,0.0283 C10.844,0.0373 10.727,0.0573 10.609,0.0683 C10.346,0.0963 10.084,0.1233 9.822,0.1683 C9.705,0.1893 9.591,0.2203 9.475,0.2433 C9.219,0.2953 8.964,0.3463 8.71,0.4153 C8.501,0.4723 8.295,0.5473 8.089,0.6153 C7.935,0.6673 7.78,0.7093 7.628,0.7673 C6.888,1.0473 6.174,1.4033 5.497,1.8323 C5.43,1.8743 5.37,1.9233 5.304,1.9673 C5.048,2.1363 4.794,2.3093 4.55,2.4993 C4.398,2.6183 4.258,2.7483 4.113,2.8733 C3.967,2.9983 3.817,3.1183 3.677,3.2513 C3.453,3.4653 3.244,3.6903 3.039,3.9193 C2.986,3.9783 2.929,4.0303 2.878,4.0903 C2.354,4.6953 1.896,5.3493 1.509,6.0393 C1.429,6.1833 1.364,6.3313 1.29,6.4773 C1.192,6.6693 1.088,6.8603 1.002,7.0583 C0.896,7.2973 0.809,7.5413 0.72,7.7843 C0.679,7.8973 0.631,8.0073 0.593,8.1213 C0.51,8.3733 0.444,8.6283 0.379,8.8833 C0.349,8.9983 0.313,9.1123 0.287,9.2303 C0.234,9.4603 0.199,9.6923 0.161,9.9263 C0.136,10.0753 0.106,10.2243 0.087,10.3743 C0.064,10.5673 0.054,10.7623 0.039,10.9553 C0.025,11.1493 0.006,11.3423 0.001,11.5373 C-0.003,11.6893 0.005,11.8403 0.008,11.9923 C0.011,12.2283 0.012,12.4623 0.029,12.6983 C0.038,12.8183 0.057,12.9383 0.069,13.0583 C0.097,13.3183 0.124,13.5793 0.169,13.8393 C0.189,13.9583 0.22,14.0743 0.244,14.1913 C0.296,14.4453 0.346,14.6993 0.415,14.9513 C0.472,15.1613 0.547,15.3653 0.615,15.5713 C0.667,15.7263 0.709,15.8813 0.767,16.0343 C1.047,16.7743 1.404,17.4873 1.833,18.1643 C1.875,18.2313 1.924,18.2923 1.967,18.3583 C2.136,18.6143 2.309,18.8683 2.5,19.1113 C2.618,19.2643 2.748,19.4033 2.873,19.5493 C2.999,19.6943 3.118,19.8443 3.252,19.9843 C3.465,20.2093 3.691,20.4173 3.919,20.6233 C3.978,20.6753 4.03,20.7323 4.09,20.7843 C4.696,21.3083 5.349,21.7663 6.039,22.1523 C6.184,22.2333 6.334,22.2993 6.481,22.3743 C6.672,22.4713 6.861,22.5733 7.058,22.6603 C7.298,22.7673 7.543,22.8543 7.787,22.9423 C7.899,22.9833 8.008,23.0313 8.121,23.0683 C8.374,23.1513 8.628,23.2173 8.884,23.2823 C9,23.3133 9.113,23.3493 9.23,23.3753 C9.461,23.4273 9.693,23.4633 9.926,23.5013 C10.076,23.5253 10.224,23.5563 10.374,23.5743 C10.568,23.5993 10.762,23.6083 10.956,23.6223 C11.15,23.6373 11.343,23.6553 11.537,23.6613 C11.689,23.6643 11.84,23.6563 11.992,23.6543 C12.228,23.6513 12.462,23.6493 12.698,23.6333 C12.818,23.6243 12.938,23.6053 13.058,23.5923 C13.318,23.5643 13.579,23.5383 13.839,23.4933 C13.958,23.4733 14.074,23.4413 14.192,23.4173 C14.446,23.3653 14.7,23.3153 14.952,23.2463 C15.159,23.1893 15.361,23.1163 15.566,23.0483 C15.722,22.9963 15.88,22.9533 16.035,22.8953 C16.457,22.7343 16.868,22.5453 17.271,22.3373 C17.52,22.2083 17.764,22.0723 18,21.9293 C18.115,21.8583 18.226,21.7823 18.339,21.7083 C18.527,21.5843 18.712,21.4573 18.89,21.3243 C18.991,21.2493 19.092,21.1743 19.191,21.0953 C19.417,20.9163 19.634,20.7303 19.844,20.5363 C19.888,20.4963 19.934,20.4593 19.977,20.4183 C20.242,20.1673 20.491,19.9033 20.73,19.6313 C20.772,19.5833 20.812,19.5323 20.853,19.4833 C21.059,19.2413 21.253,18.9913 21.438,18.7343 C21.464,18.6973 21.494,18.6663 21.52,18.6293 C21.54,18.6003 21.557,18.5693 21.577,18.5403 C21.681,18.3883 21.78,18.2323 21.877,18.0763 C21.941,17.9753 22.005,17.8733 22.066,17.7703 C22.085,17.7353 22.108,17.7033 22.127,17.6693 L22.123,17.6673 C22.125,17.6633 22.129,17.6623 22.131,17.6583 C22.133,17.6533 22.131,17.6483 22.134,17.6453 C23.123,15.8953 23.628,13.9813 23.665,12.0733 L23.66,12.0743 C23.66,12.0703 23.663,12.0663 23.663,12.0633 C23.648,11.5533 23.098,11.1563 22.436,11.1763 C21.774,11.1953 21.249,11.6243 21.264,12.1343 C21.265,12.1743 21.289,12.2073 21.297,12.2453 L21.283,12.2463 C21.219,13.7293 20.79,15.2023 20.008,16.5573 C20.003,16.5663 19.991,16.5713 19.986,16.5813 C19.983,16.5873 19.984,16.5933 19.982,16.5993 C19.922,16.7023 19.863,16.8053 19.799,16.9063 C19.631,17.1703 19.458,17.4303 19.264,17.6773 C19.227,17.7253 19.19,17.7743 19.151,17.8213 C18.636,18.4553 18.031,19.0253 17.347,19.5173 C17.281,19.5643 17.214,19.6103 17.147,19.6563 C16.804,19.8903 16.447,20.1083 16.066,20.3003 C15.778,20.4433 15.487,20.5693 15.194,20.6823 C15.07,20.7293 14.943,20.7643 14.818,20.8053 C14.655,20.8593 14.492,20.9183 14.328,20.9633 C14.126,21.0193 13.92,21.0603 13.715,21.1013 C13.623,21.1203 13.531,21.1453 13.438,21.1603 C13.23,21.1963 13.02,21.2183 12.81,21.2403 C12.715,21.2503 12.62,21.2663 12.525,21.2723 C12.337,21.2863 12.148,21.2863 11.959,21.2893 C11.838,21.2913 11.717,21.2983 11.596,21.2953 C11.441,21.2913 11.286,21.2753 11.131,21.2643 C10.976,21.2523 10.819,21.2453 10.665,21.2263 C10.546,21.2113 10.428,21.1873 10.31,21.1673 C10.122,21.1373 9.934,21.1073 9.75,21.0663 C9.658,21.0463 9.567,21.0173 9.476,20.9933 C9.271,20.9403 9.065,20.8873 8.863,20.8203 C8.774,20.7913 8.688,20.7543 8.6,20.7223 C8.402,20.6493 8.205,20.5793 8.013,20.4943 C7.854,20.4243 7.699,20.3413 7.544,20.2623 C7.428,20.2033 7.311,20.1513 7.198,20.0883 C6.924,19.9343 6.655,19.7663 6.392,19.5813 C6.128,19.3973 5.877,19.1993 5.638,18.9933 C5.591,18.9523 5.548,18.9063 5.501,18.8643 C5.317,18.6983 5.136,18.5303 4.967,18.3543 C4.861,18.2423 4.764,18.1203 4.663,18.0033 C4.564,17.8883 4.46,17.7753 4.366,17.6553 C4.215,17.4623 4.075,17.2583 3.939,17.0513 C3.904,16.9993 3.865,16.9503 3.832,16.8973 C3.664,16.6313 3.506,16.3543 3.362,16.0653 C3.218,15.7783 3.092,15.4873 2.98,15.1933 C2.934,15.0733 2.9,14.9483 2.859,14.8263 C2.804,14.6603 2.744,14.4943 2.698,14.3273 C2.644,14.1283 2.604,13.9253 2.563,13.7233 C2.543,13.6283 2.518,13.5323 2.501,13.4383 C2.465,13.2303 2.444,13.0223 2.422,12.8143 C2.412,12.7183 2.397,12.6213 2.389,12.5243 C2.376,12.3373 2.375,12.1493 2.372,11.9623 C2.371,11.8403 2.364,11.7173 2.367,11.5953 C2.371,11.4413 2.386,11.2873 2.398,11.1343 C2.409,10.9773 2.417,10.8193 2.436,10.6643 C2.451,10.5463 2.475,10.4283 2.494,10.3103 C2.525,10.1223 2.554,9.9353 2.596,9.7493 C2.616,9.6573 2.646,9.5653 2.669,9.4743 C2.722,9.2693 2.774,9.0643 2.841,8.8623 C2.87,8.7733 2.908,8.6873 2.941,8.5993 C3.012,8.4013 3.083,8.2043 3.168,8.0133 C3.236,7.8573 3.317,7.7073 3.395,7.5553 C3.455,7.4363 3.509,7.3143 3.574,7.1963 C3.728,6.9233 3.896,6.6543 4.08,6.3923 C4.266,6.1283 4.462,5.8773 4.668,5.6383 C4.709,5.5913 4.755,5.5483 4.796,5.5023 C4.962,5.3173 5.131,5.1363 5.308,4.9673 C5.419,4.8623 5.539,4.7663 5.655,4.6653 C5.772,4.5643 5.886,4.4603 6.006,4.3653 C6.198,4.2173 6.4,4.0783 6.605,3.9423 C6.659,3.9073 6.71,3.8663 6.764,3.8313 C7.031,3.6633 7.309,3.5063 7.597,3.3613 C7.883,3.2183 8.174,3.0923 8.467,2.9803 C8.592,2.9333 8.72,2.8973 8.847,2.8563 C9.009,2.8013 9.171,2.7433 9.334,2.6983 C9.534,2.6443 9.737,2.6033 9.941,2.5623 C10.035,2.5423 10.129,2.5173 10.224,2.5013 C10.432,2.4653 10.641,2.4433 10.851,2.4223 C10.946,2.4113 11.042,2.3963 11.137,2.3893 C11.325,2.3753 11.514,2.3753 11.703,2.3723 C11.824,2.3703 11.945,2.3633 12.066,2.3663 C12.221,2.3703 12.376,2.3863 12.532,2.3973 C12.687,2.4093 12.842,2.4163 12.997,2.4363 C13.117,2.4503 13.236,2.4763 13.356,2.4953 C13.542,2.5253 13.728,2.5543 13.912,2.5953 C14.006,2.6163 14.099,2.6463 14.192,2.6703 C14.396,2.7233 14.599,2.7743 14.798,2.8403 C14.89,2.8703 14.98,2.9093 15.07,2.9423 C15.265,3.0143 15.46,3.0833 15.649,3.1673 C15.809,3.2373 15.965,3.3213 16.122,3.4013 C16.236,3.4603 16.353,3.5113 16.464,3.5733 C16.738,3.7283 17.007,3.8963 17.27,4.0803 L17.272,4.0803 C18.185,4.7203 18.987,5.5343 19.641,6.4943 L19.961,6.8553 L19.502,6.8553 L16.571,6.6233 C16.149,6.5903 15.726,6.9043 15.628,7.3263 C15.529,7.7473 15.792,8.1163 16.215,8.1493 L21.642,8.5793 L21.633,8.5573 C22.034,8.5703 22.438,8.3113 22.545,7.9183" id="path-1"></path>
    </defs>
    <g id="Icons/24px/Interface/Refresh" stroke="none" stroke-width="1" fill="none" fill-rule="evenodd">
        <mask id="mask-2" fill="white">
            <use xlink:href="#path-1"></use>
        </mask>
        <use id="Mask" fill="#0C2340" xlink:href="#path-1"></use>
        <g id="Group" mask="url(#mask-2)" fill="#333333">
            <g id="Color/Grayscale/80%">
                <rect id="Rectangle" x="0" y="0" width="24" height="24"></rect>
            </g>
        </g>
    </g>
</svg>