<?xml version="1.0" encoding="UTF-8"?>
<svg width="24px" height="24px" viewBox="0 0 24 24" version="1.1" xmlns="http://www.w3.org/2000/svg" xmlns:xlink="http://www.w3.org/1999/xlink">
    <title>Icons/24px/Digital/Documents/Register</title>
    <defs>
        <path d="M18.717158,14.1205439 L20.8793349,16.2819462 C21.0401957,16.4427493 21.0402255,16.7035315 20.8794015,16.8643714 L14.2011605,23.5432724 L11.4667292,23.9962288 C11.197464,24.0324468 10.9675564,23.8025165 11.0037708,23.5332246 C11.2631756,21.7526245 11.4141533,20.8410502 11.456704,20.7985016 L18.134945,14.1205889 C18.2957205,13.9598213 18.5563577,13.9598011 18.717158,14.1205439 Z M13.25,0 L13.25,5 C13.25,5.37969577 13.5321539,5.69349096 13.8982294,5.74315338 L14,5.75 L20,5.75 L20,9.39534814 C20,9.64625872 17.5943434,12.2707981 14.9170879,15.0604335 L14.5033474,15.4906128 L14.5033474,15.4906128 L13.7024957,16.3181184 C10.8527493,19.2506964 8.0562378,22 7.79246001,22 L2,22 C1.44771525,22 1,21.5522847 1,21 L1,1 C1,0.44771525 1.44771525,0 2,0 L13.25,0 Z M9.9703406,14.6106207 L4.49488898,14.6106207 C4.22156934,14.6106207 4,14.9464071 4,15.3606207 C4,15.7371785 4.18311516,16.0489204 4.42175791,16.1024887 L4.49488898,16.1106207 L9.9703406,16.1106207 C10.2436602,16.1106207 10.4652296,15.7748342 10.4652296,15.3606207 C10.4652296,14.9464071 10.2436602,14.6106207 9.9703406,14.6106207 Z M22.003136,11.1055167 L23.8945061,12.9972956 C24.0351956,13.1380155 24.0351601,13.3661785 23.8944268,13.5068546 L22.5061542,14.8945626 C22.3655056,15.035154 22.1375592,15.0351446 21.9969222,14.8945415 L20.1055521,13.0036272 C19.9648387,12.8629477 19.9648126,12.634801 20.1054939,12.4940894 L21.4937665,11.1055167 C21.634425,10.9648278 21.8624775,10.9648278 22.003136,11.1055167 Z M13.2199796,11.0739891 L4.49488898,11.0739891 C4.22156934,11.0739891 4,11.4097756 4,11.8239891 C4,12.2005469 4.18311516,12.5122889 4.42175791,12.5658572 L4.49488898,12.5739891 L13.2199796,12.5739891 C13.4932992,12.5739891 13.7148685,12.2382027 13.7148685,11.8239891 C13.7148685,11.4097756 13.4932992,11.0739891 13.2199796,11.0739891 Z M13.2199796,7.53723656 L4.49488898,7.53723656 C4.22156934,7.53723656 4,7.873023 4,8.28723656 C4,8.66379434 4.18311516,8.97553632 4.42175791,9.02910463 L4.49488898,9.03723656 L13.2199796,9.03723656 C13.4932992,9.03723656 13.7148685,8.70145012 13.7148685,8.28723656 C13.7148685,7.873023 13.4932992,7.53723656 13.2199796,7.53723656 Z M8.68283744,4 L4.49488898,4 C4.22156934,4 4,4.33578644 4,4.75 C4,5.12655778 4.18311516,5.43829976 4.42175791,5.49186807 L4.49488898,5.5 L8.68283744,5.5 C8.95615707,5.5 9.17772641,5.16421356 9.17772641,4.75 C9.17772641,4.33578644 8.95615707,4 8.68283744,4 Z M14.7506652,0.0416094213 C14.9068905,0.0881472781 15.0508253,0.172608995 15.1687451,0.289350034 L19.17,4.25 L14.75,4.25 L14.7506652,0.0416094213 Z" id="path-1"></path>
    </defs>
    <g id="Icons/24px/Digital/Documents/Register" stroke="none" stroke-width="1" fill="none" fill-rule="evenodd">
        <mask id="mask-2" fill="white">
            <use xlink:href="#path-1"></use>
        </mask>
        <use id="Mask" fill="#0C2340" fill-rule="nonzero" xlink:href="#path-1"></use>
        <g id="Group" mask="url(#mask-2)" fill="#333333">
            <g id="Color/Grayscale/80%">
                <rect id="Rectangle" x="0" y="0" width="24" height="24"></rect>
            </g>
        </g>
    </g>
</svg>