<?xml version="1.0" encoding="UTF-8"?>
<svg width="24px" height="24px" viewBox="0 0 24 24" version="1.1" xmlns="http://www.w3.org/2000/svg" xmlns:xlink="http://www.w3.org/1999/xlink">
    <title>Icons/24px/Travel &amp; Airport/Restrooms</title>
    <defs>
        <path d="M6.62895,5.554775 C7.37200056,5.554775 7.7202,6.17654855 7.7202,6.412025 L7.7202,6.412025 L9.2127,11.789525 C9.31095,12.156275 9.0927,12.535775 8.73345,12.634775 C8.37045,12.737525 7.99845,12.520025 7.8987,12.156275 L7.8987,12.156275 L6.6357,7.618025 L6.1617,7.618025 L8.2002,15.431525 L6.7512,15.431525 L6.7512,21.194525 C6.7512,21.649775 6.3867,22.016525 5.93595,22.016525 C5.48295,22.016525 5.11545,21.649775 5.11545,21.194525 L5.11545,21.194525 L5.11545,15.431525 L4.25445,15.431525 L4.25445,21.194525 C4.25445,21.649775 3.8877,22.016525 3.43245,22.016525 C2.98095,22.016525 2.62095,21.649775 2.62095,21.194525 L2.62095,21.194525 L2.62095,15.431525 L1.0107,15.431525 L3.0402,7.612775 L2.5962,7.618025 L1.3422,12.156275 C1.24095,12.520025 0.86145,12.737525 0.5007,12.634775 C0.1392,12.535775 -0.07605,12.156275 0.0252,11.789525 L0.0252,11.789525 L1.5147,6.412025 C1.57163783,6.13344029 1.90039063,5.554775 2.6397,5.554775 L2.6397,5.554775 Z M12.873,1.6163 L12.873,21.8498 L11.51775,21.8498 L11.51775,1.6163 L12.873,1.6163 Z M22.69395,5.397875 C23.3382,5.397875 24.00045,5.83904157 24.00045,6.731375 L24.00045,6.731375 L24.00045,13.120625 C24.00045,13.741625 23.62395,13.961375 23.16495,13.961375 C22.7037,13.961375 22.4652,13.575875 22.4652,13.120625 L22.4652,13.120625 L22.4652,8.201375 L21.93495,8.201375 L21.93495,20.989625 C21.93495,21.446375 21.56295,21.824375 21.0972,21.824375 C20.6367,21.824375 20.2677,21.446375 20.2677,20.989625 L20.2677,20.989625 L20.2677,13.827125 L19.44345,13.827125 L19.44345,20.989625 C19.44345,21.446375 19.0632,21.824375 18.5997,21.824375 C18.1407,21.824375 17.7687,21.446375 17.7687,20.989625 L17.7687,20.989625 L17.7687,8.201375 L17.24445,8.201375 L17.2602,13.101125 C17.2602,13.561625 16.99545,13.940375 16.54545,13.940375 C16.0797,13.940375 15.7617,13.741625 15.7032,13.101125 L15.7032,13.101125 L15.7032,6.678875 C15.7032,5.971625 16.2777,5.397875 16.98195,5.397875 L16.98195,5.397875 Z M4.7052,1.407575 C5.7072,1.407575 6.5247,2.217575 6.5247,3.215075 C6.5247,4.214075 5.7072,5.027075 4.7052,5.027075 C3.7092,5.027075 2.8932,4.214075 2.8932,3.215075 C2.8932,2.217575 3.7092,1.407575 4.7052,1.407575 Z M19.828575,1.25 C20.818575,1.25 21.633075,2.06075 21.633075,3.0605 C21.633075,4.06025 20.818575,4.87025 19.828575,4.87025 C18.822075,4.87025 18.009075,4.06025 18.009075,3.0605 C18.009075,2.06075 18.822075,1.25 19.828575,1.25 Z" id="path-1"></path>
    </defs>
    <g id="Icons/24px/Travel-&amp;-Airport/Restrooms" stroke="none" stroke-width="1" fill="none" fill-rule="evenodd">
        <mask id="mask-2" fill="white">
            <use xlink:href="#path-1"></use>
        </mask>
        <use id="Mask" fill="#0C2340" fill-rule="nonzero" xlink:href="#path-1"></use>
        <g id="Group" mask="url(#mask-2)" fill="#333333">
            <g id="Color/Grayscale/80%">
                <rect id="Rectangle" x="0" y="0" width="24" height="24"></rect>
            </g>
        </g>
    </g>
</svg>