<?xml version="1.0" encoding="UTF-8"?>
<svg width="24px" height="24px" viewBox="0 0 24 24" version="1.1" xmlns="http://www.w3.org/2000/svg" xmlns:xlink="http://www.w3.org/1999/xlink">
    <title>Icons/24px/Travel &amp; Airport/Scan container</title>
    <defs>
        <path d="M0.75,17.279 C1.16421356,17.279 1.5,17.6147864 1.5,18.029 L1.5,21.5869565 C1.5,22.0436448 1.83529269,22.4220213 2.27314066,22.4893486 L2.41304348,22.5 L6.45,22.5 C6.86421356,22.5 7.2,22.8357864 7.2,23.25 C7.2,23.6642136 6.86421356,24 6.45,24 L1.92,24 C0.85961328,24 0,23.1403867 0,22.08 L0,18.029 C-2.72771136e-16,17.6147864 0.335786438,17.279 0.75,17.279 Z M23.25,17.279 C23.6642136,17.279 24,17.6147864 24,18.029 L24,22.08 C24,23.1403867 23.1403867,24 22.08,24 L17.55,24 C17.1357864,24 16.8,23.6642136 16.8,23.25 C16.8,22.8357864 17.1357864,22.5 17.55,22.5 L21.5869565,22.5 C22.0436448,22.5 22.4220213,22.1647073 22.4893486,21.7268593 L22.5,21.5869565 L22.5,18.029 C22.5,17.6147864 22.8357864,17.279 23.25,17.279 Z M17.6666667,16.6666667 C18.5871412,16.6666667 19.3333333,17.4128588 19.3333333,18.3333333 C19.3333333,19.2538079 18.5871412,20 17.6666667,20 C16.7461921,20 16,19.2538079 16,18.3333333 C16,17.4128588 16.7461921,16.6666667 17.6666667,16.6666667 Z M6.33333333,16.6666667 C7.25380792,16.6666667 8,17.4128588 8,18.3333333 C8,19.2538079 7.25380792,20 6.33333333,20 C5.41285875,20 4.66666667,19.2538079 4.66666667,18.3333333 C4.66666667,17.4128588 5.41285875,16.6666667 6.33333333,16.6666667 Z M18.6666667,4 C19.4030463,4 20,4.59695367 20,5.33333333 L20,14.6666667 C20,15.4030463 19.4030463,16 18.6666667,16 L5.33333333,16 C4.59695367,16 4,15.4030463 4,14.6666667 L4,5.33333333 C4,4.59695367 4.59695367,4 5.33333333,4 L18.6666667,4 Z M22.08,0 C23.1403867,0 24,0.85961328 24,1.92 L24,6.929 C24,7.34321356 23.6642136,7.679 23.25,7.679 C22.8357864,7.679 22.5,7.34321356 22.5,6.929 L22.5,2.41304348 C22.5,1.91829783 22.1064968,1.51545978 21.6153955,1.50043447 L17.55,1.50006767 C17.1357755,1.5000303 16.8,1.16422451 16.8,0.75 C16.8,0.335786438 17.1357864,1.87112099e-16 17.55,0 L22.08,0 Z M6.45,0 C6.86421356,5.55215378e-16 7.2,0.335786438 7.2,0.75 C7.2,1.16421356 6.86421356,1.5 6.45,1.5 L2.41304348,1.5 C1.91829783,1.5 1.51545978,1.89350322 1.50043447,2.38460453 L1.50006155,6.929 C1.50002755,7.34322352 1.16422352,7.679 0.75,7.679 C0.335786438,7.679 -2.85608567e-16,7.34321356 0,6.929 L0,1.92 C0,0.85961328 0.85961328,0 1.92,0 L6.45,0 Z" id="path-1"></path>
    </defs>
    <g id="Icons/24px/Travel-&amp;-Airport/Scan-container" stroke="none" stroke-width="1" fill="none" fill-rule="evenodd">
        <g id="Icon">
            <mask id="mask-2" fill="white">
                <use xlink:href="#path-1"></use>
            </mask>
            <use id="Mask" fill="#949494" fill-rule="nonzero" xlink:href="#path-1"></use>
            <g id="Group" mask="url(#mask-2)" fill="#333333">
                <g id="Color/Grayscale/80%">
                    <rect id="Rectangle" x="0" y="0" width="24" height="24"></rect>
                </g>
            </g>
        </g>
    </g>
</svg>