<?xml version="1.0" encoding="UTF-8"?>
<svg width="24px" height="24px" viewBox="0 0 24 24" version="1.1" xmlns="http://www.w3.org/2000/svg" xmlns:xlink="http://www.w3.org/1999/xlink">
    <title>Icons/24px/Travel &amp; Airport/Scan</title>
    <defs>
        <path d="M0.75,17.279 C1.16421356,17.279 1.5,17.6147864 1.5,18.029 L1.5,21.5869565 C1.5,22.0436448 1.83529269,22.4220213 2.27314066,22.4893486 L2.41304348,22.5 L6.45,22.5 C6.86421356,22.5 7.2,22.8357864 7.2,23.25 C7.2,23.6642136 6.86421356,24 6.45,24 L1.92,24 C0.85961328,24 0,23.1403867 0,22.08 L0,18.029 C-2.72771136e-16,17.6147864 0.335786438,17.279 0.75,17.279 Z M23.25,17.279 C23.6642136,17.279 24,17.6147864 24,18.029 L24,22.08 C24,23.1403867 23.1403867,24 22.08,24 L17.55,24 C17.1357864,24 16.8,23.6642136 16.8,23.25 C16.8,22.8357864 17.1357864,22.5 17.55,22.5 L21.5869565,22.5 C22.0436448,22.5 22.4220213,22.1647073 22.4893486,21.7268593 L22.5,21.5869565 L22.5,18.029 C22.5,17.6147864 22.8357864,17.279 23.25,17.279 Z M4.5625,6 L4.5625,18 L4,18 L4,6 L4.5625,6 Z M20,6 L20,18 L19.4375,18 L19.4375,6 L20,6 Z M5.125,6 L5.125,17.9914687 L4.83928125,17.9914687 L4.83928125,6 L5.125,6 Z M5.96428125,6 L5.96428125,17.9914687 L5.6875,17.9914687 L5.6875,6 L5.96428125,6 Z M7.3660625,6 L7.3660625,17.9914687 L7.08928125,17.9914687 L7.08928125,6 L7.3660625,6 Z M8.76784375,6 L8.76784375,17.9914687 L8.21428125,17.9914687 L8.21428125,6 L8.76784375,6 Z M9.89284375,6 L9.89284375,17.9914687 L9.6160625,17.9914687 L9.6160625,6 L9.89284375,6 Z M10.4553437,6 L10.4553437,17.9914687 L10.1785625,17.9914687 L10.1785625,6 L10.4553437,6 Z M11.0178437,6 L11.0178437,17.9914687 L10.7410625,17.9914687 L10.7410625,6 L11.0178437,6 Z M12.4196563,6 L12.4196563,17.9914687 L11.8571563,17.9914687 L11.8571563,6 L12.4196563,6 Z M13.8214375,6 L13.8214375,17.9914687 L13.2589375,17.9914687 L13.2589375,6 L13.8214375,6 Z M14.9464375,6 L14.9464375,17.9914687 L14.3839063,17.9914687 L14.3839063,6 L14.9464375,6 Z M16.0714687,6 L16.0714687,17.9914687 L15.5089375,17.9914687 L15.5089375,6 L16.0714687,6 Z M16.9107188,6 L16.9107188,17.9914687 L16.3482188,17.9914687 L16.3482188,6 L16.9107188,6 Z M18.5982188,6 L18.5982188,17.9914687 L17.7589375,17.9914687 L17.7589375,6 L18.5982188,6 Z M19.1607188,6 L19.1607188,17.9914687 L18.875,17.9914687 L18.875,6 L19.1607188,6 Z M22.08,0 C23.1403867,0 24,0.85961328 24,1.92 L24,6.929 C24,7.34321356 23.6642136,7.679 23.25,7.679 C22.8357864,7.679 22.5,7.34321356 22.5,6.929 L22.5,2.41304348 C22.5,1.91829783 22.1064968,1.51545978 21.6153955,1.50043447 L17.55,1.50006767 C17.1357755,1.5000303 16.8,1.16422451 16.8,0.75 C16.8,0.335786438 17.1357864,1.87112099e-16 17.55,0 L22.08,0 Z M6.45,0 C6.86421356,5.55215378e-16 7.2,0.335786438 7.2,0.75 C7.2,1.16421356 6.86421356,1.5 6.45,1.5 L2.41304348,1.5 C1.91829783,1.5 1.51545978,1.89350322 1.50043447,2.38460453 L1.50006155,6.929 C1.50002755,7.34322352 1.16422352,7.679 0.75,7.679 C0.335786438,7.679 -2.85608567e-16,7.34321356 0,6.929 L0,1.92 C0,0.85961328 0.85961328,0 1.92,0 L6.45,0 Z" id="path-1"></path>
    </defs>
    <g id="Icons/24px/Travel-&amp;-Airport/Scan" stroke="none" stroke-width="1" fill="none" fill-rule="evenodd">
        <g id="Icon">
            <mask id="mask-2" fill="white">
                <use xlink:href="#path-1"></use>
            </mask>
            <use id="Mask" fill="#949494" fill-rule="nonzero" xlink:href="#path-1"></use>
            <g id="Group" mask="url(#mask-2)" fill="#333333">
                <g id="Color/Grayscale/80%">
                    <rect id="Rectangle" x="0" y="0" width="24" height="24"></rect>
                </g>
            </g>
        </g>
    </g>
</svg>