<?xml version="1.0" encoding="UTF-8"?>
<svg width="24px" height="24px" viewBox="0 0 24 24" version="1.1" xmlns="http://www.w3.org/2000/svg" xmlns:xlink="http://www.w3.org/1999/xlink">
    <title>Icons/24px/Travel &amp; Airport/Scan bag</title>
    <defs>
        <path d="M0.75,17.279 C1.16421356,17.279 1.5,17.6147864 1.5,18.029 L1.5,21.5869565 C1.5,22.0436448 1.83529269,22.4220213 2.27314066,22.4893486 L2.41304348,22.5 L6.45,22.5 C6.86421356,22.5 7.2,22.8357864 7.2,23.25 C7.2,23.6642136 6.86421356,24 6.45,24 L1.92,24 C0.85961328,24 0,23.1403867 0,22.08 L0,18.029 C-2.72771136e-16,17.6147864 0.335786438,17.279 0.75,17.279 Z M23.25,17.279 C23.6642136,17.279 24,17.6147864 24,18.029 L24,22.08 C24,23.1403867 23.1403867,24 22.08,24 L17.55,24 C17.1357864,24 16.8,23.6642136 16.8,23.25 C16.8,22.8357864 17.1357864,22.5 17.55,22.5 L21.5869565,22.5 C22.0436448,22.5 22.4220213,22.1647073 22.4893486,21.7268593 L22.5,21.5869565 L22.5,18.029 C22.5,17.6147864 22.8357864,17.279 23.25,17.279 Z M15.2668034,7.72233861 L15.2668034,20 L8.73360992,20 L8.73360992,7.72233861 L15.2668034,7.72233861 Z M7.90685467,7.72233861 L7.90685467,20 L5.79966623,20 C4.85647414,20 4.08114825,19.2953245 4.00597364,18.400401 L4,18.2575913 L4,9.46474732 C4,9.17434587 4.07357386,8.90954455 4.19344139,8.67114336 C4.47044029,8.15274076 5.00876557,7.7829401 5.64001532,7.72911516 L5.79966623,7.72233861 L7.90685467,7.72233861 Z M18.1995071,7.72233861 C18.9005255,7.72233861 19.5064765,8.10954055 19.8065586,8.67114336 C19.9024526,8.86186431 19.9687187,9.06948135 19.9913894,9.29358487 L20,9.46474732 L20,18.2575913 C20,19.1711159 19.2718337,19.9214676 18.3470775,19.994219 L18.1995071,20 L16.0931453,20 L16.0931453,7.72233861 L18.1995071,7.72233861 Z M22.08,0 C23.1403867,0 24,0.85961328 24,1.92 L24,6.929 C24,7.34321356 23.6642136,7.679 23.25,7.679 C22.8357864,7.679 22.5,7.34321356 22.5,6.929 L22.5,2.41304348 C22.5,1.91829783 22.1064968,1.51545978 21.6153955,1.50043447 L17.55,1.50006767 C17.1357755,1.5000303 16.8,1.16422451 16.8,0.75 C16.8,0.335786438 17.1357864,1.87112099e-16 17.55,0 L22.08,0 Z M6.45,0 C6.86421356,5.55215378e-16 7.2,0.335786438 7.2,0.75 C7.2,1.16421356 6.86421356,1.5 6.45,1.5 L2.41304348,1.5 C1.91829783,1.5 1.51545978,1.89350322 1.50043447,2.38460453 L1.50006155,6.929 C1.50002755,7.34322352 1.16422352,7.679 0.75,7.679 C0.335786438,7.679 -2.85608567e-16,7.34321356 0,6.929 L0,1.92 C0,0.85961328 0.85961328,0 1.92,0 L6.45,0 Z M12.0000413,4 C13.7656915,4 15.2400445,5.10682803 15.5793605,6.58325815 L15.6134272,6.75521378 L14.5999266,6.75521378 C14.3403514,5.73520868 13.2739438,4.96720484 12.0000413,4.96720484 C10.7906193,4.96720484 9.76696926,5.6603283 9.44507453,6.60416752 L9.40015603,6.75521378 L8.38665544,6.75521378 C8.64623063,5.19360597 10.1664815,4 12.0000413,4 Z" id="path-1"></path>
    </defs>
    <g id="Icons/24px/Travel-&amp;-Airport/Scan-bag" stroke="none" stroke-width="1" fill="none" fill-rule="evenodd">
        <g id="Icon">
            <mask id="mask-2" fill="white">
                <use xlink:href="#path-1"></use>
            </mask>
            <use id="Mask" fill="#949494" fill-rule="nonzero" xlink:href="#path-1"></use>
            <g id="Group" mask="url(#mask-2)" fill="#333333">
                <g id="Color/Grayscale/80%">
                    <rect id="Rectangle" x="0" y="0" width="24" height="24"></rect>
                </g>
            </g>
        </g>
    </g>
</svg>