<?xml version="1.0" encoding="UTF-8"?>
<svg width="24px" height="24px" viewBox="0 0 24 24" version="1.1" xmlns="http://www.w3.org/2000/svg" xmlns:xlink="http://www.w3.org/1999/xlink">
    <title>Icons/24px/Weather/Scattered storms</title>
    <defs>
        <path d="M10.9110692,15.3295912 C11.1981023,15.4670493 11.3258395,15.8244403 11.1905883,16.1253208 L7.86340929,23.6549693 C7.73116369,23.9527951 7.3825162,24.0826166 7.09247756,23.9451586 C6.80694729,23.8046458 6.67921006,23.4503094 6.81295845,23.1509563 L10.1416403,15.6167258 C10.2768915,15.3204273 10.6225334,15.1890785 10.9110692,15.3295912 Z M14.3480992,15.3291787 C14.636635,15.4666367 14.7598639,15.8225005 14.6261155,16.118799 L11.6220365,23.0986152 C11.4882881,23.396441 11.1396406,23.5247352 10.8511047,23.3872771 C10.5625689,23.2482917 10.4378372,22.8954826 10.5685801,22.5976568 L13.580173,15.6163133 C13.7109158,15.3184875 14.0565577,15.1901933 14.3480992,15.3291787 Z M7.62293313,15.3293128 C7.91146898,15.4667709 8.03920621,15.8226346 7.90545782,16.1235151 L5.60618774,21.178918 C5.47394214,21.4767439 5.12830024,21.6050381 4.83976439,21.4691073 C4.55273132,21.3301219 4.4249941,20.9727309 4.55874249,20.674905 L6.85500698,15.6179748 C6.99176095,15.3216762 7.33590007,15.1888001 7.62293313,15.3293128 Z M8.10025762,6.10924828 C8.81258051,6.10924828 9.50536711,6.22990593 10.1620867,6.45594812 C10.519751,6.57507846 10.8683985,6.72475504 11.202018,6.90650518 C11.7715758,7.22265877 12.2990554,7.62739647 12.7694289,8.11460902 C13.1917132,8.54989296 13.552383,9.04016014 13.8439244,9.57013742 L13.8439244,9.57013742 L13.9701589,9.80228886 L14.2256333,9.75494218 C14.5246887,9.69690433 14.8297553,9.6678854 15.133319,9.6678854 C16.1236582,9.6678854 17.0463718,9.97640243 17.8188064,10.5063797 C18.1434092,10.72784 18.4334478,10.9859557 18.697939,11.276145 C19.5124517,12.1833684 20.0173894,13.3945268 20.0173894,14.7278703 C20.0173894,16.4674787 19.1562903,17.9963181 17.8563761,18.9065961 L17.8563761,18.9065961 L17.2041649,18.0009 C18.2335766,17.2983365 18.9203521,16.0978692 18.9203521,14.7278703 C18.9203521,12.5621418 17.2206956,10.7996236 15.133319,10.7996236 C14.508158,10.7996236 13.9025333,10.9599914 13.3555174,11.2578173 C12.653714,8.90422936 10.5167454,7.24556846 8.10025762,7.24556846 C5.06462001,7.24556846 2.59553456,9.80534348 2.59553456,12.9485517 C2.59553456,14.6179038 3.29433233,16.116197 4.40188922,17.1593511 L4.40188922,17.1593511 L3.70158866,18.0085366 C3.61592958,17.9260618 3.51674538,17.8680239 3.43559468,17.7824944 C2.18527265,16.4903884 1.5,14.7721623 1.5,12.9485517 C1.5,11.1203592 2.18527265,9.40518772 3.43559468,8.11460902 C4.68140833,6.82250301 6.33598111,6.10924828 8.10025762,6.10924828 Z M13.9686561,4.58193621 C16.6616574,4.58193621 18.8527265,6.84999463 18.8527265,9.64039378 C18.8527265,10.0069487 18.8091456,10.3628124 18.7355088,10.7156215 C18.511593,10.5048524 18.3012022,10.2803375 18.0532417,10.1169151 C17.9495492,10.0466588 17.8398454,9.99473018 17.7346501,9.92905576 C17.7406612,9.83130779 17.7556891,9.73814175 17.7556891,9.64039378 C17.7556891,7.47619258 16.0575354,5.71520176 13.9686561,5.71520176 C13.0759983,5.71520176 12.2344354,6.04204654 11.5702018,6.61173395 C11.4995706,6.56896921 11.4334478,6.51398597 11.3613139,6.47122124 C11.1028338,6.33070853 10.806784,6.21616012 10.5167454,6.10466634 C11.4199227,5.15926017 12.6492057,4.58193621 13.9686561,4.58193621 Z M21.9800343,9.38915094 C22.2640618,9.38915094 22.5,9.63199356 22.5,9.92981942 C22.5,10.2245906 22.2640618,10.465906 21.9800343,10.465906 L21.9800343,10.465906 L20.0534564,10.465906 C19.7634178,10.465906 19.5334908,10.2245906 19.5334908,9.92981942 C19.5334908,9.63199356 19.7634178,9.38915094 20.0534564,9.38915094 L20.0534564,9.38915094 Z M19.5716288,1.68890169 C19.7760084,1.47813262 20.1081252,1.47355068 20.3110019,1.67515588 C20.5183871,1.87981569 20.5183871,2.21429704 20.3140075,2.42812073 L20.3140075,2.42812073 L18.9224231,3.86990332 C18.7210492,4.07914507 18.3904352,4.08525432 18.18305,3.87906719 C17.981676,3.67898931 17.9786704,3.33839872 18.1815472,3.12762965 L18.1815472,3.12762965 Z M6.15622284,1.68062913 C6.3606024,1.474442 6.68971361,1.47596931 6.89709875,1.68673838 L6.89709875,1.68673838 L8.30070545,3.11172054 C8.50508501,3.31943498 8.51259897,3.65544364 8.30821941,3.86010345 C8.10534263,4.06629058 7.77322585,4.06629058 7.56884628,3.85704883 L7.56884628,3.85704883 L6.1637368,2.43053936 C5.95785444,2.22435223 5.95785444,1.88528895 6.15622284,1.68062913 Z M12.7739373,-3.19744231e-14 C13.0594676,-3.19744231e-14 13.2908974,0.239787995 13.2908974,0.534559224 L13.2908974,0.534559224 L13.2908974,2.55061116 C13.2908974,2.8469097 13.0594676,3.088225 12.7739373,3.088225 C12.4899098,3.088225 12.2509661,2.8469097 12.2509661,2.55061116 L12.2509661,2.55061116 L12.2509661,0.534559224 C12.2509661,0.239787995 12.4899098,-3.19744231e-14 12.7739373,-3.19744231e-14 Z" id="path-1"></path>
    </defs>
    <g id="Icons/24px/Weather/Scattered-storms" stroke="none" stroke-width="1" fill="none" fill-rule="evenodd">
        <mask id="mask-2" fill="white">
            <use xlink:href="#path-1"></use>
        </mask>
        <use id="Mask" fill="#0C2340" fill-rule="nonzero" xlink:href="#path-1"></use>
        <g id="Group" mask="url(#mask-2)" fill="#333333">
            <g id="Color/Grayscale/80%">
                <rect id="Rectangle" x="0" y="0" width="24" height="24"></rect>
            </g>
        </g>
    </g>
</svg>