<?xml version="1.0" encoding="UTF-8"?>
<svg width="24px" height="24px" viewBox="0 0 24 24" version="1.1" xmlns="http://www.w3.org/2000/svg" xmlns:xlink="http://www.w3.org/1999/xlink">
    <title>Icons/24px/Weather/Scattered snow</title>
    <defs>
        <path d="M10.055626,14.6003163 C10.3567947,14.6003163 10.5977295,14.8441416 10.5977295,15.1478282 L10.5977295,17.9729894 L12.5722204,15.9756661 C12.682404,15.8720039 12.8175626,15.8150627 12.9600668,15.8150627 C13.1040401,15.8150627 13.2421369,15.8720039 13.344975,15.9742061 C13.447813,16.0793284 13.5021703,16.2136513 13.5021703,16.3625745 C13.5021703,16.5071177 13.4419366,16.6443606 13.3435058,16.7451028 L11.3631386,18.7526463 L14.1632721,18.7526463 C14.4615025,18.7526463 14.7039065,18.9979316 14.7039065,19.3016182 C14.7039065,19.6009247 14.4615025,19.84621 14.1632721,19.84621 L11.3631386,19.84621 L13.344975,21.8537535 C13.4448748,21.9603358 13.5021703,22.0931987 13.5021703,22.2362818 C13.5021703,22.3793649 13.4448748,22.5180679 13.344975,22.6217301 C13.2421369,22.7268524 13.1069783,22.7867137 12.9600668,22.7867137 C12.8175626,22.7867137 12.6794658,22.7283124 12.5722204,22.6246502 L10.5977295,20.6229468 L10.5977295,23.4539482 C10.5977295,23.7532547 10.3567947,24 10.055626,24 C9.75739566,24 9.51499165,23.7532547 9.51499165,23.4539482 L9.51499165,20.6229468 L7.5375626,22.6246502 C7.43472454,22.7268524 7.29662771,22.7867137 7.15118531,22.7867137 C7.00868114,22.7867137 6.86764608,22.7268524 6.76774624,22.6217301 C6.66784641,22.5180679 6.61055092,22.385205 6.61055092,22.2392018 C6.61055092,22.0873586 6.66490818,21.9574157 6.76480801,21.8537535 L8.75252087,19.84621 L5.95238731,19.84621 C5.65415693,19.84621 5.40734558,19.6009247 5.40734558,19.3016182 C5.40734558,18.9979316 5.65415693,18.7526463 5.95238731,18.7526463 L8.75252087,18.7526463 L6.76774624,16.7436428 C6.66490818,16.6429006 6.61055092,16.5071177 6.61055092,16.3625745 C6.61055092,16.2136513 6.66490818,16.0822484 6.76774624,15.9800462 C6.86764608,15.874924 7.0057429,15.8179827 7.15118531,15.8179827 C7.29662771,15.8179827 7.43472454,15.8734639 7.5375626,15.9771262 L9.51499165,17.9729894 L9.51499165,15.1478282 C9.51499165,14.8441416 9.75739566,14.6003163 10.055626,14.6003163 Z M7.45823038,7.30015817 C8.15459098,7.30015817 8.83185309,7.41550067 9.47385643,7.63158535 C9.82350584,7.74546782 10.1672788,7.88855092 10.4919533,8.06229468 C11.050217,8.36452123 11.5658765,8.75142961 12.0257095,9.21863974 C12.44,9.63620878 12.7940568,10.1034189 13.0790651,10.6115099 L13.0790651,10.6115099 L13.2024708,10.8334347 L13.4522204,10.7867137 C13.7445743,10.7341526 14.0428047,10.7049519 14.3380968,10.7049519 C15.309182,10.7049519 16.2112187,11.0013384 16.9663439,11.5065093 C17.2836728,11.7182139 17.5686811,11.9664193 17.8257763,12.2452853 C18.624975,13.1125441 19.1185977,14.2703492 19.1185977,15.5449568 C19.1185977,17.2123129 18.2753255,18.6738046 17.0030718,19.5425234 L17.0030718,19.5425234 L16.3654758,18.6781847 C17.3732888,18.0065701 18.0446745,16.8560652 18.0446745,15.5449568 C18.0446745,13.474632 16.3816361,11.7897554 14.3380968,11.7897554 C13.728414,11.7897554 13.1363606,11.9401387 12.6001336,12.2248449 C11.9125876,9.97493612 9.82350584,8.38934177 7.45823038,8.38934177 C4.48621035,8.38934177 2.07098497,10.8363548 2.07098497,13.84402 C2.07098497,15.4412946 2.75559265,16.8735856 3.83833055,17.8722472 L3.83833055,17.8722472 L3.15519199,18.6869449 C3.06998331,18.6095632 2.97449082,18.552622 2.89075125,18.4708602 C1.67285476,17.2327534 1,15.5902178 1,13.84402 C1,12.0963621 1.67285476,10.4538265 2.89075125,9.21863974 C4.11158598,7.98199294 5.73348915,7.30015817 7.45823038,7.30015817 Z M13.1907179,4.3800949 C15.8263105,4.3800949 17.9682805,6.54970191 17.9682805,9.21863974 C17.9682805,9.57050736 17.9286144,9.91215476 17.8536895,10.247962 C17.6377295,10.0464777 17.4276461,9.83331306 17.1867112,9.67562964 C17.0868114,9.60700815 16.9780968,9.55882711 16.8737896,9.49750578 C16.8811352,9.40406375 16.8958264,9.31354179 16.8958264,9.21863974 C16.8958264,7.14831488 15.232788,5.46343837 13.1907179,5.46343837 C12.3165943,5.46343837 11.4938898,5.77734518 10.8445409,6.32193698 L10.8445409,6.32193698 L10.6403339,6.18761406 C10.3847078,6.05329115 10.0967613,5.94378878 9.81469115,5.83720647 C10.6976294,4.93344689 11.9008347,4.3800949 13.1907179,4.3800949 Z M22.4931553,8.97554447 C22.7722871,8.97554447 23,9.20622947 23,9.49239567 C23,9.77418177 22.7722871,10.0048668 22.4931553,10.0048668 L22.4931553,10.0048668 L20.6053422,10.0048668 C20.3232721,10.0048668 20.0984975,9.77418177 20.0984975,9.49239567 C20.0984975,9.20622947 20.3232721,8.97554447 20.6053422,8.97554447 L20.6053422,8.97554447 Z M20.1357809,3.0756291 C20.3355806,2.8726847 20.6631933,2.86830461 20.8585856,3.06248882 C21.0627926,3.25813306 21.0627926,3.57934002 20.8600547,3.78374444 L20.8600547,3.78374444 L19.5011231,5.16055428 C19.3042617,5.36057861 18.9810564,5.3693388 18.7783185,5.1707745 C18.581457,4.97805032 18.5785188,4.6539233 18.7768493,4.45243893 L18.7768493,4.45243893 Z M7.02099778,3.06443662 C7.22079744,2.87025241 7.5454719,2.87171244 7.74674068,3.07027674 L7.74674068,3.07027674 L9.11889427,4.43394629 C9.31869394,4.63543066 9.32603951,4.95517758 9.12623985,5.15228185 C8.9279093,5.34938612 8.60323484,5.34938612 8.40049694,5.14644173 L8.40049694,5.14644173 L7.02834335,3.78423221 C6.82707457,3.58420788 6.82707457,3.26154089 7.02099778,3.06443662 Z M13.4882137,6.92779167e-14 C13.7688147,6.92779167e-14 13.9950584,0.229224967 13.9950584,0.512471104 L13.9950584,0.512471104 L13.9950584,2.44117289 C13.9950584,2.72441903 13.7688147,2.953644 13.4882137,2.953644 C13.2105509,2.953644 12.9798998,2.72441903 12.9798998,2.44117289 L12.9798998,2.44117289 L12.9798998,0.512471104 C12.9798998,0.229224967 13.2105509,6.92779167e-14 13.4882137,6.92779167e-14 Z" id="path-1"></path>
    </defs>
    <g id="Icons/24px/Weather/Scattered-snow" stroke="none" stroke-width="1" fill="none" fill-rule="evenodd">
        <mask id="mask-2" fill="white">
            <use xlink:href="#path-1"></use>
        </mask>
        <use id="Mask" fill="#0C2340" fill-rule="nonzero" xlink:href="#path-1"></use>
        <g id="Group" mask="url(#mask-2)" fill="#333333">
            <g id="Color/Grayscale/80%">
                <rect id="Rectangle" x="0" y="0" width="24" height="24"></rect>
            </g>
        </g>
    </g>
</svg>