<?xml version="1.0" encoding="UTF-8"?>
<svg width="24px" height="24px" viewBox="0 0 24 24" version="1.1" xmlns="http://www.w3.org/2000/svg" xmlns:xlink="http://www.w3.org/1999/xlink">
    <title>Icons/24px/Weather/Scattered showers</title>
    <defs>
        <path d="M10.5040951,15.0441923 L13.0297076,19.4897511 C13.3118399,19.9395725 13.4717652,20.4736413 13.4717652,21.0377985 C13.4717652,22.6731022 12.1425749,24 10.5040951,24 C8.86410662,24 7.5349163,22.6731022 7.5349163,21.0377985 C7.5349163,20.4736413 7.69635031,19.9395725 7.970939,19.4897511 L7.970939,19.4897511 L10.5040951,15.0441923 Z M7.94076442,6.01767693 C8.6347798,6.01767693 9.31069042,6.13201279 9.95190028,6.34864916 C10.3004167,6.46298502 10.6413895,6.60590485 10.9657662,6.78041748 C11.5194698,7.08431016 12.0369639,7.47245032 12.4956175,7.93581145 C12.9090093,8.35554441 13.2620519,8.82191437 13.5456929,9.33040807 L13.5456929,9.33040807 L13.6679,9.55306212 L13.918349,9.50642512 C14.2095337,9.45226603 14.5082621,9.42368207 14.803973,9.42368207 C15.7710683,9.42368207 16.6732883,9.72306149 17.4261441,10.2270419 C17.7399598,10.439165 18.0251096,10.6858898 18.2815935,10.9657118 C19.0782025,11.8337617 19.5715569,12.9936689 19.5715569,14.267912 C19.5715569,15.9363129 18.729686,17.4001128 17.4623536,18.2696671 L17.4623536,18.2696671 L16.8256699,17.4061305 C17.8304835,16.7336551 18.4988505,15.58127 18.4988505,14.267912 C18.4988505,12.1963267 16.8407572,10.5113772 14.803973,10.5113772 C14.1944464,10.5113772 13.6015159,10.6603147 13.0704433,10.9461543 C12.3824628,8.69253432 10.298908,7.10838087 7.94076442,7.10838087 C4.97460306,7.10838087 2.56818019,9.55607096 2.56818019,12.5664138 C2.56818019,14.1656115 3.248617,15.5978186 4.32886702,16.596753 L4.32886702,16.596753 L3.64993893,17.4136526 C3.56394138,17.3354228 3.46738271,17.2782549 3.38440262,17.1955118 C2.16836698,15.9573748 1.5,14.314549 1.5,12.5664138 C1.5,10.8152699 2.16836698,9.17394847 3.38440262,7.93581145 C4.60194698,6.70068326 6.22081328,6.01767693 7.94076442,6.01767693 Z M13.9228752,4.51325769 C16.5510813,4.51325769 18.6889504,6.68563906 18.6889504,9.35748762 C18.6889504,9.70651288 18.6482147,10.0510249 18.5712695,10.385006 C18.3555212,10.1834138 18.1503341,9.97129067 17.9074287,9.81332665 C17.8063438,9.74562778 17.6977154,9.69447753 17.5966305,9.63430076 C17.6056829,9.54102677 17.6192614,9.45226603 17.6192614,9.35748762 C17.6192614,7.28439792 15.9611682,5.59794396 13.9228752,5.59794396 C13.0493211,5.59794396 12.2300812,5.91236758 11.5813277,6.45546292 C11.5134349,6.41634802 11.4470508,6.36218893 11.3761405,6.32307403 C11.1256915,6.1876763 10.8345068,6.0778537 10.5523745,5.97103993 C11.434981,5.06537955 12.6359293,4.51325769 13.9228752,4.51325769 Z M21.993067,9.26421363 C22.2721819,9.26421363 22.5,9.49288535 22.5,9.778725 C22.5,10.0600514 22.2721819,10.2932364 21.993067,10.2932364 L21.993067,10.2932364 L20.1101731,10.2932364 C19.832567,10.2932364 19.6047489,10.0600514 19.6047489,9.778725 C19.6047489,9.49288535 19.832567,9.26421363 20.1101731,9.26421363 L20.1101731,9.26421363 Z M19.5981531,3.16216656 C19.7973053,2.9620788 20.1246995,2.95756554 20.3208343,3.1501312 C20.523004,3.34721012 20.523004,3.666147 20.322343,3.87074801 L20.322343,3.87074801 L18.9675043,5.24879603 C18.7698608,5.45189263 18.445484,5.4579103 18.2463318,5.25932697 C18.0471796,5.06826572 18.0456708,4.74180675 18.2433143,4.54021457 L18.2433143,4.54021457 Z M6.17122725,3.15591453 C6.37037949,2.95733119 6.69475624,2.96034003 6.89390848,3.16193221 L6.89390848,3.16193221 L8.26685194,4.52644045 C8.46449545,4.72502379 8.47203909,5.04546509 8.27137813,5.24404842 C8.07524335,5.44112734 7.74935787,5.44112734 7.55020563,5.23803075 L7.55020563,5.23803075 L6.1787709,3.87653134 C5.9766012,3.67644358 5.9766012,3.35148903 6.17122725,3.15591453 Z M12.8154681,7.10542736e-14 C13.0960917,7.10542736e-14 13.3239098,0.228671723 13.3239098,0.509998119 L13.3239098,0.509998119 L13.3239098,2.44167241 C13.3239098,2.72450323 13.0960917,2.95618379 12.8154681,2.95618379 C12.5393706,2.95618379 12.3070264,2.72450323 12.3070264,2.44167241 L12.3070264,2.44167241 L12.3070264,0.509998119 C12.3070264,0.228671723 12.5393706,7.10542736e-14 12.8154681,7.10542736e-14 Z" id="path-1"></path>
    </defs>
    <g id="Icons/24px/Weather/Scattered-showers" stroke="none" stroke-width="1" fill="none" fill-rule="evenodd">
        <mask id="mask-2" fill="white">
            <use xlink:href="#path-1"></use>
        </mask>
        <use id="Mask" fill="#0C2340" fill-rule="nonzero" xlink:href="#path-1"></use>
        <g id="Group" mask="url(#mask-2)" fill="#333333">
            <g id="Color/Grayscale/80%">
                <rect id="Rectangle" x="0" y="0" width="24" height="24"></rect>
            </g>
        </g>
    </g>
</svg>