<?xml version="1.0" encoding="UTF-8"?>
<svg width="24px" height="24px" viewBox="0 0 24 24" version="1.1" xmlns="http://www.w3.org/2000/svg" xmlns:xlink="http://www.w3.org/1999/xlink">
    <title>Icons/24px/Travel &amp; Airport/Seat</title>
    <defs>
        <path d="M7.17080785,20.6891669 L7.17080785,24 L5.33624075,24 L5.33624075,20.6891669 L7.17080785,20.6891669 Z M18.6539749,20.6891669 L18.6539749,24 L16.8194078,24 L16.8194078,20.6891669 L18.6539749,20.6891669 Z M17.9715159,15.9087991 C19.8452205,15.9087991 21.4853235,17.3416134 21.5,19.1812318 L21.5,19.1812318 L21.5,19.2196322 L2.5,19.2196322 L2.5,19.1812318 C2.51467654,17.3416134 4.15355649,15.9087991 6.02848407,15.9087991 L6.02848407,15.9087991 Z M15.299897,0 C17.1760476,0 18.7146379,1.49881499 18.7146379,3.3504335 L18.7146379,3.3504335 L18.7146379,10.2949029 L21.3906598,10.2949029 L21.3906598,12.099721 L18.7146379,12.099721 L18.7146379,14.3413434 L5.27582234,14.3413434 L5.27582234,12.0937209 L2.59980045,12.0937209 L2.59980045,10.2949029 L5.27582234,10.2949029 L5.27582234,3.3504335 C5.27582234,1.49881499 6.81318957,0 8.69056324,0 L8.69056324,0 Z" id="path-1"></path>
    </defs>
    <g id="Icons/24px/Travel-&amp;-Airport/Seat" stroke="none" stroke-width="1" fill="none" fill-rule="evenodd">
        <mask id="mask-2" fill="white">
            <use xlink:href="#path-1"></use>
        </mask>
        <use id="Mask" fill="#0C2340" fill-rule="nonzero" xlink:href="#path-1"></use>
        <g id="Group" mask="url(#mask-2)" fill="#333333">
            <g id="Color/Grayscale/80%">
                <rect id="Rectangle" x="0" y="0" width="24" height="24"></rect>
            </g>
        </g>
    </g>
</svg>