<?xml version="1.0" encoding="UTF-8"?>
<svg width="24px" height="24px" viewBox="0 0 24 24" version="1.1" xmlns="http://www.w3.org/2000/svg" xmlns:xlink="http://www.w3.org/1999/xlink">
    <title>Icons/24px/Weather/Showers night</title>
    <defs>
        <path d="M10.3828636,14.9179513 L12.9159715,19.4246643 C13.1966074,19.8796619 13.3561267,20.4226753 13.3561267,20.9955246 C13.3561267,22.6544008 12.0238449,24 10.3828636,24 C8.74040529,24 7.40812345,22.6544008 7.40812345,20.9955246 C7.40812345,20.4226753 7.57059684,19.8796619 7.84680161,19.4246643 L7.84680161,19.4246643 L10.3828636,14.9179513 Z M7.94723971,7.45897563 C8.64292125,7.45897563 9.31940138,7.57235206 9.95895575,7.78567877 C10.3090121,7.90203879 10.6516832,8.04226753 10.975153,8.21680756 C11.5319936,8.51516658 12.0489544,8.90154152 12.508311,9.36399801 C12.9189256,9.78020885 13.27489,10.2456489 13.55848,10.7483839 L13.55848,10.7483839 L13.6810735,10.9706614 L13.9292147,10.9229239 C14.2231438,10.8707111 14.520027,10.842367 14.8169103,10.842367 C15.7858425,10.842367 16.6853543,11.1362506 17.4401171,11.6404774 C17.7562017,11.8493287 18.0397916,12.0969667 18.296795,12.371457 C19.0943916,13.2337146 19.5862429,14.3853804 19.5862429,15.6548981 C19.5862429,17.3107907 18.7472894,18.7637991 17.4770428,19.6290403 L17.4770428,19.6290403 L16.8374885,18.7697663 C17.8463006,18.1029339 18.5153955,16.958727 18.5153955,15.6548981 C18.5153955,13.594729 16.8552128,11.9224267 14.8169103,11.9224267 C14.2054195,11.9224267 13.6160842,12.0716062 13.081399,12.3535554 C12.3945796,10.1158628 10.3090121,8.5405271 7.94723971,8.5405271 C4.97988471,8.5405271 2.57084737,10.9721532 2.57084737,13.9617106 C2.57084737,15.553456 3.25323563,16.9766285 4.33442222,17.9671805 L4.33442222,17.9671805 L3.653511,18.7772253 C3.56636618,18.6996519 3.47035917,18.6444555 3.38912247,18.560915 C2.17057201,17.330184 1.5,15.6966683 1.5,13.9617106 C1.5,12.2252611 2.17057201,10.594729 3.38912247,9.36399801 C4.60471887,8.13475883 6.22649876,7.45897563 7.94723971,7.45897563 Z M13.0400421,0.0541030199 C13.3974836,-0.0697159756 13.8021901,0.0227753222 14.0783948,0.29279024 C14.3782321,0.588165675 14.4609458,1.0386878 14.2866562,1.42058736 C13.7372007,2.61103987 13.6722113,3.94619651 14.1035043,5.18140287 C15.0251716,7.81889665 17.9319683,9.22565946 20.5832387,8.31417264 C20.7486662,8.25897622 20.9140937,8.19184544 21.0677049,8.11874748 C21.1016766,8.10681311 21.1326942,8.09487875 21.1637119,8.08294439 C21.5255844,7.9591254 21.9258598,8.0486331 22.2035416,8.32013982 C22.5019018,8.61700705 22.5831385,9.06603738 22.4103259,9.44644514 C21.8342839,10.6935859 20.7206026,11.8512189 19.5951051,12.5717559 C19.4562642,12.2629543 19.3410558,11.9466938 19.1372255,11.682646 C20.1135429,11.0471413 21.0219169,10.0506222 21.4945668,9.03172609 C21.3069839,9.11526662 21.1149698,9.19134817 20.9140937,9.26146254 C17.7325692,10.3534566 14.2526845,8.67220347 13.1508194,5.508106 C12.6131802,3.97304882 12.7402049,2.37086085 13.370897,1.00288472 C11.3207782,1.94569924 10.0254221,3.9178524 9.87476499,6.06603738 C9.8703339,6.06454559 9.8659028,6.061562 9.85999468,6.05857841 C9.54095601,5.95415275 9.21600922,5.87956299 8.88515431,5.82138298 C9.11261706,3.3957241 10.5822628,1.18190014 12.9440351,0.0913978981 C12.9750528,0.0809553322 13.0045934,0.0690209711 13.0400421,0.0541030199 Z" id="path-1"></path>
    </defs>
    <g id="Icons/24px/Weather/Showers-night" stroke="none" stroke-width="1" fill="none" fill-rule="evenodd">
        <mask id="mask-2" fill="white">
            <use xlink:href="#path-1"></use>
        </mask>
        <use id="Mask" fill="#0C2340" fill-rule="nonzero" xlink:href="#path-1"></use>
        <g id="Group" mask="url(#mask-2)" fill="#333333">
            <g id="Color/Grayscale/80%">
                <rect id="Rectangle" x="0" y="0" width="24" height="24"></rect>
            </g>
        </g>
    </g>
</svg>