<?xml version="1.0" encoding="UTF-8"?>
<svg width="24px" height="24px" viewBox="0 0 24 24" version="1.1" xmlns="http://www.w3.org/2000/svg" xmlns:xlink="http://www.w3.org/1999/xlink">
    <title>Icons/24px/Weather/Snow</title>
    <defs>
        <path d="M11.9541,10.9331733 C12.3546,10.9331733 12.6741,11.2571814 12.6741,11.6561914 L12.6741,15.7242931 L15.5556,12.8472212 C15.6936,12.7107178 15.8736,12.6357159 16.0686,12.6357159 C16.2606,12.6357159 16.4421,12.7107178 16.5771,12.8472212 C16.7151,12.9822246 16.7901,13.1637291 16.7931,13.3572339 C16.7931,13.5507388 16.7151,13.7322433 16.5771,13.8672467 L13.6941,16.7458186 L17.7741,16.7458186 C18.1716,16.7458186 18.4941,17.0713268 18.4941,17.4688367 C18.4941,17.8663467 18.1716,18.1873547 17.7741,18.1873547 L13.6941,18.1873547 L16.5771,21.0674267 C16.7151,21.2039301 16.7901,21.3839346 16.7931,21.5744394 C16.7931,21.7694442 16.7151,21.9494487 16.5771,22.0889522 C16.4421,22.2254556 16.2606,22.3004575 16.0686,22.3004575 C15.8736,22.3004575 15.6921,22.2254556 15.5526,22.0874522 L12.6741,19.2103803 L12.6741,23.281482 C12.6741,23.678992 12.3546,24 11.9541,24 C11.5551,24 11.2341,23.678992 11.2341,23.281482 L11.2341,19.2103803 L8.3511,22.0889522 C8.2176,22.2254556 8.0316,22.3004575 7.8396,22.3004575 C7.6431,22.3004575 7.4676,22.2254556 7.3296,22.0904523 C7.1901,21.9509488 7.1151,21.7694442 7.1151,21.5774394 C7.1151,21.3824346 7.1901,21.2024301 7.3266,21.0674267 L10.2111,18.1873547 L6.1341,18.1873547 C5.7366,18.1873547 5.4171,17.8663467 5.4171,17.4688367 C5.4171,17.0713268 5.7366,16.7458186 6.1341,16.7458186 L10.2111,16.7458186 L7.3296,13.8672467 C7.1901,13.7322433 7.1151,13.5522388 7.1151,13.358734 C7.1151,13.1667292 7.1901,12.9867247 7.3266,12.8502213 C7.4676,12.7122178 7.6476,12.6372159 7.8396,12.6372159 C8.0316,12.6372159 8.2176,12.7122178 8.3511,12.8502213 L11.2341,15.721293 L11.2341,11.6561914 C11.2341,11.2571814 11.5551,10.9331733 11.9541,10.9331733 Z M8.5545,1.33226763e-14 C10.8375,1.33226763e-14 12.9915,0.889522238 14.604,2.50056251 C15.153,3.0480762 15.621,3.6600915 16.0005,4.32310808 L16.0005,4.32310808 L16.1625,4.61261532 L16.4955,4.55111378 C16.8825,4.47911198 17.2755,4.44311108 17.6685,4.44311108 C21.1575,4.44311108 24,7.27818195 24,10.7657691 C24,12.8523213 22.9755,14.7018675 21.408,15.8508963 L21.408,15.8508963 L20.6685,14.6313658 C21.825,13.7343434 22.5765,12.3393085 22.5765,10.7657691 C22.5765,8.06270157 20.376,5.86064652 17.6685,5.86064652 C16.8585,5.86064652 16.074,6.05865147 15.3705,6.42916073 C14.454,3.4920873 11.688,1.41903548 8.5545,1.41903548 C4.6215,1.41903548 1.422,4.61711543 1.422,8.54271357 C1.422,10.7507688 2.442,12.7143179 4.0215,14.0193505 L4.0215,14.0193505 L3.0795,15.1023776 C2.886,14.9373734 2.691,14.7678692 2.505,14.5818645 C0.888,12.9693242 0,10.8257706 0,8.54271357 C0,6.26115653 0.888,4.11460287 2.505,2.50056251 C4.122,0.889522238 6.267,1.33226763e-14 8.5545,1.33226763e-14 Z" id="path-1"></path>
    </defs>
    <g id="Icons/24px/Weather/Snow" stroke="none" stroke-width="1" fill="none" fill-rule="evenodd">
        <mask id="mask-2" fill="white">
            <use xlink:href="#path-1"></use>
        </mask>
        <use id="Mask" fill="#0C2340" fill-rule="nonzero" xlink:href="#path-1"></use>
        <g id="Group" mask="url(#mask-2)" fill="#333333">
            <g id="Color/Grayscale/80%">
                <rect id="Rectangle" x="0" y="0" width="24" height="24"></rect>
            </g>
        </g>
    </g>
</svg>