<?xml version="1.0" encoding="UTF-8"?>
<svg width="24px" height="24px" viewBox="0 0 24 24" version="1.1" xmlns="http://www.w3.org/2000/svg" xmlns:xlink="http://www.w3.org/1999/xlink">
    <title>Icons/24px/Weather/Snow night</title>
    <defs>
        <path d="M9.91266562,14.4718528 C10.2167847,14.4718528 10.4646417,14.7193566 10.4646417,15.0283614 L10.4646417,17.8934057 L12.4794306,15.8683744 C12.5919547,15.7633728 12.7318494,15.7048719 12.876306,15.7048719 C13.0253243,15.7048719 13.1636985,15.7633728 13.2686196,15.8653743 C13.3735407,15.973376 13.4298027,16.1083781 13.4298027,16.2583804 C13.4298027,16.4053827 13.3659377,16.5448848 13.2655784,16.6483864 L11.2431866,18.6824179 L14.1034265,18.6824179 C14.4090661,18.6824179 14.6554026,18.9299217 14.6554026,19.2374264 C14.6554026,19.5419311 14.4090661,19.789435 14.1034265,19.789435 L11.2431866,19.789435 L13.2686196,21.8249664 C13.3704995,21.931468 13.4298027,22.0679702 13.4298027,22.2119724 C13.4298027,22.3544746 13.3704995,22.4984768 13.2701402,22.6004784 C13.1652191,22.7099801 13.0253243,22.769981 12.876306,22.769981 C12.7303288,22.769981 12.5889135,22.7114801 12.4794306,22.6034784 L10.4646417,20.5799472 L10.4646417,23.4464914 C10.4646417,23.7494961 10.2167847,24 9.91266562,24 C9.60702595,24 9.35764831,23.7494961 9.35764831,23.4464914 L9.35764831,20.5799472 L7.34133886,22.6034784 C7.23337659,22.7099801 7.09500241,22.769981 6.94598406,22.769981 C6.79696572,22.769981 6.65707094,22.7099801 6.55062927,22.6004784 C6.45179057,22.4984768 6.39552854,22.3634747 6.39552854,22.2149724 C6.39552854,22.0619701 6.44874938,21.929968 6.54910867,21.8249664 L8.58062408,19.789435 L5.7188636,19.789435 C5.41778572,19.789435 5.16688748,19.5419311 5.16688748,19.2374264 C5.16688748,18.9299217 5.41778572,18.6824179 5.7188636,18.6824179 L8.58062408,18.6824179 L6.55367046,16.6468864 C6.45179057,16.5433848 6.39552854,16.4068827 6.39552854,16.2583804 C6.39552854,16.1083781 6.44874938,15.9763761 6.55062927,15.8713744 C6.65707094,15.7663728 6.79544512,15.7078719 6.94598406,15.7078719 C7.09500241,15.7078719 7.23489718,15.7633728 7.34133886,15.8683744 L9.35764831,17.8919056 L9.35764831,15.0283614 C9.35764831,14.7193566 9.60702595,14.4718528 9.91266562,14.4718528 Z M7.58721913,6.78108402 C8.29733716,6.78108402 8.98920806,6.89808583 9.64458466,7.11108912 C10.0019246,7.22359086 10.3501409,7.36609306 10.6831513,7.53859572 C11.2503334,7.84010038 11.77798,8.22260629 12.2463233,8.68461342 C12.6690488,9.09861982 13.0294299,9.56512703 13.3183431,10.0676348 L13.3183431,10.0676348 L13.4460731,10.2866382 L13.7015331,10.2401375 C13.9995698,10.1876366 14.3036889,10.1606362 14.6062873,10.1606362 C15.5961949,10.1606362 16.5161551,10.4546408 17.287097,10.9556485 C17.6109838,11.1656517 17.9014175,11.4116555 18.1644805,11.6876598 C18.9764784,12.5486731 19.4813161,13.6976909 19.4813161,14.9652104 C19.4813161,16.6152359 18.6206591,18.0672584 17.3251119,18.9297717 L17.3251119,18.9297717 L16.674297,18.0717584 C17.7022195,17.4072482 18.3864874,16.2657305 18.3864874,14.9652104 C18.3864874,12.9086787 16.689503,11.2376529 14.6062873,11.2376529 C13.9828432,11.2376529 13.3791669,11.3861552 12.8317525,11.6696595 C12.1307581,9.43762506 9.99888338,7.8611007 7.58721913,7.8611007 C4.55667256,7.8611007 2.09482866,10.2926383 2.09482866,13.2761843 C2.09482866,14.8617088 2.78974075,16.2822308 3.89521358,17.2722461 L3.89521358,17.2722461 L3.1972603,18.0807586 C3.11210696,18.0042574 3.01174767,17.9472565 2.92963552,17.8647552 C1.68274732,16.6362363 1,15.0072111 1,13.2761843 C1,11.5406575 1.68274732,9.91013235 2.92963552,8.68461342 C4.17500313,7.46059452 5.82789029,6.78108402 7.58721913,6.78108402 Z M13.3312681,0.0537801041 C13.6977316,-0.0692217959 14.1128541,0.0222796175 14.3956849,0.292283788 C14.699804,0.58628833 14.7849573,1.03479526 14.6070476,1.41580114 C14.0444274,2.60381949 13.9790418,3.93884012 14.4200144,5.17185916 C15.3612629,7.8028998 18.3309857,9.20692149 21.0422072,8.29790745 C21.2094727,8.23940655 21.3797794,8.17490555 21.5364007,8.10140442 C21.5713744,8.08940423 21.6017863,8.07590402 21.6321982,8.06690388 C22.0047441,7.94090194 22.4122637,8.03090333 22.696615,8.30390754 C23.0007341,8.59641206 23.0858874,9.04641901 22.9079777,9.42592488 C22.3210279,10.6709441 21.1805814,11.828962 20.0310113,12.5459731 C19.8880753,12.2384683 19.7709895,11.9189634 19.5626679,11.6579594 C20.5601785,11.0234496 21.4892623,10.0289342 21.9697704,9.01041846 C21.779696,9.0974198 21.5865804,9.17392098 21.3797794,9.24292205 C18.1257053,10.3319389 14.5735945,8.65491297 13.4468334,5.49736419 C12.8978984,3.96434051 13.0271491,2.36381579 13.6688403,0.998794702 C11.5765011,1.94080925 10.2520625,3.90583961 10.100003,6.05387279 C10.0954412,6.05237276 10.0908794,6.04787269 10.0832764,6.04787269 C9.75786901,5.94137105 9.42333803,5.86636989 9.09032765,5.80786899 C9.31841695,3.38833161 10.8207652,1.17579744 13.2354706,0.0912806834 C13.2658825,0.079280498 13.2962944,0.0657802895 13.3312681,0.0537801041 Z" id="path-1"></path>
    </defs>
    <g id="Icons/24px/Weather/Snow-night" stroke="none" stroke-width="1" fill="none" fill-rule="evenodd">
        <mask id="mask-2" fill="white">
            <use xlink:href="#path-1"></use>
        </mask>
        <use id="Mask" fill="#0C2340" fill-rule="nonzero" xlink:href="#path-1"></use>
        <g id="Group" mask="url(#mask-2)" fill="#333333">
            <g id="Color/Grayscale/80%">
                <rect id="Rectangle" x="0" y="0" width="24" height="24"></rect>
            </g>
        </g>
    </g>
</svg>