<?xml version="1.0" encoding="UTF-8"?>
<svg width="24px" height="24px" viewBox="0 0 24 24" version="1.1" xmlns="http://www.w3.org/2000/svg" xmlns:xlink="http://www.w3.org/1999/xlink">
    <title>Icons/24px/Travel &amp; Airport/Sports equipment</title>
    <defs>
        <path d="M15.5687345,2.07817631 C17.3495375,1.30727456 19.3919409,1.30727456 21.1727439,2.07817631 C22.6079463,2.70173444 23.5127478,3.61880104 23.8619484,4.80462238 C24.1823489,5.89614381 23.9375485,7.11379136 23.2055473,8.06622043 C22.7771466,8.62258988 22.3511459,9.44417782 22.0691454,10.0359097 C21.8915451,10.4083944 21.8015449,10.8079902 21.8015449,11.2240886 L21.8015449,11.2240886 L21.8015449,13.3399427 C21.8015449,15.7988128 20.0819421,16.6934832 18.9791402,16.938663 L18.9791402,16.938663 L18.9791402,21.9035531 C18.9791402,22.232424 18.7067398,22.5 18.3707392,22.5 C18.0347387,22.5 17.7635382,22.232424 17.7635382,21.9035531 L17.7635382,21.9035531 L17.7635382,16.9469142 C17.2679374,16.8431843 16.5611362,16.6027195 15.9635352,16.0251326 C15.2843341,15.3673908 14.9399335,14.4644691 14.9399335,13.3399427 L14.9399335,13.3399427 L14.9399335,11.2240886 C14.9399335,10.8079902 14.8499334,10.4095731 14.6723331,10.0359097 C14.3903326,9.44417782 13.9631319,8.62258988 13.5359312,8.06622043 C12.8051299,7.11379136 12.5591295,5.89614381 12.8795301,4.80462238 C13.2287306,3.61880104 14.1335322,2.70173444 15.5687345,2.07817631 Z M1.96719188,1.50011787 C2.1603922,1.50011787 2.36679254,1.56377031 2.53359282,1.6769302 C7.49200109,5.10591058 9.5392045,8.21780753 10.3768059,10.1403469 C10.7764066,11.0385535 10.9696069,12.0122001 10.9696069,12.9870253 L10.9696069,12.9870253 L10.9696069,21.8665404 C10.9696069,22.2083775 10.6864064,22.4995285 10.3252058,22.4995285 L10.3252058,22.4995285 L9.9004051,22.4995285 C9.5392045,22.4995285 9.25600403,22.2083775 9.25600403,21.8665404 L9.25600403,21.8665404 L9.25600403,16.6046055 C9.24400401,15.4659342 9.01120362,14.4156689 8.67640306,13.4927086 C8.00680194,11.557203 6.74559984,9.88691589 5.17359722,8.54549971 L5.17359722,8.54549971 L0.344789171,4.44698998 C-0.0548114951,4.10633157 -0.119611603,3.5110634 0.216388957,3.09378631 L0.216388957,3.09378631 L1.16919055,1.879675 C1.36239087,1.63921024 1.67079138,1.50011787 1.96719188,1.50011787 Z M18.3719392,14.2852993 L17.1791372,15.4569757 C17.7359382,15.8058853 18.3215391,15.8318178 18.3671392,15.8329965 C18.4067393,15.8306391 18.9875402,15.7905616 19.5467412,15.4392944 L19.5467412,15.4392944 L18.3719392,14.2852993 Z M17.1791372,13.1148017 L16.2347357,14.0424771 C16.3595359,14.620064 16.6259363,15.0090511 16.9367368,15.2730908 L16.9367368,15.2730908 L18.1571389,14.0743033 L17.1791372,13.1148017 Z M19.5683412,13.1100867 L18.5867396,14.0743033 L19.7879416,15.2542309 C20.1047421,14.9890124 20.3795426,14.601204 20.5055428,14.0283321 L20.5055428,14.0283321 L19.5683412,13.1100867 Z M18.3755392,11.9395891 L17.3939376,12.9038057 L18.3719392,13.8633072 L19.3535409,12.8990907 L18.3755392,11.9395891 Z M16.1555355,12.1081502 L16.1555355,13.3399427 C16.1555355,13.4589964 16.1807356,13.5462238 16.1903356,13.6534899 L16.1903356,13.6534899 L16.9595369,12.8979119 L16.1555355,12.1081502 Z M20.5871429,12.109329 L19.7831416,12.8979119 L20.5499429,13.6511324 C20.5595429,13.545045 20.5871429,13.4578176 20.5871429,13.3399427 L20.5871429,13.3399427 L20.5871429,12.109329 Z M19.5755412,10.7608403 L18.5903396,11.7285931 L19.5683412,12.6880946 L20.5523429,11.7203418 L19.5755412,10.7608403 Z M17.1707372,10.7584828 L16.1903356,11.7203418 L17.1743372,12.6880946 L18.1571389,11.7250568 L17.1707372,10.7584828 Z M18.3719392,9.57855519 L17.3855376,10.546308 L18.3719392,11.5140608 L19.3583409,10.546308 L18.3719392,9.57855519 Z M15.9719352,9.58209144 L15.836335,9.71411131 C16.0379353,10.1950408 16.1555355,10.6995453 16.1555355,11.2252673 L16.1555355,11.2252673 L16.1555355,11.3337122 L16.9559369,10.5474867 L15.9719352,9.58209144 Z M20.7731432,9.58327019 L19.7903416,10.5498442 L20.5871429,11.3313547 L20.5871429,11.2240886 C20.5871429,10.6983666 20.7047431,10.1938621 20.9051434,9.71293256 L20.9051434,9.71293256 L20.7731432,9.58327019 Z M19.5695412,8.4009851 L18.5867396,9.3663804 L19.5731412,10.3364907 L20.5571429,9.37109539 L19.5695412,8.4009851 Z M17.1743372,8.4009851 L16.1867356,9.37109539 L17.1707372,10.3364907 L18.1571389,9.3663804 L17.1743372,8.4009851 Z M20.7671432,7.22459375 L19.7843416,8.18998905 L20.7719432,9.16009935 L21.5663445,8.38094637 L21.5663445,8.38094637 L21.7067448,8.14637535 L20.7671432,7.22459375 Z M15.9755352,7.22459375 L15.0359337,8.1475541 C15.0815337,8.22535152 15.1283338,8.2996127 15.1727339,8.37741012 L15.1727339,8.37741012 L15.9707352,9.16009935 L16.9595369,8.18998905 L15.9755352,7.22459375 Z M18.3719392,7.22459375 L17.3891376,8.18998905 L18.3719392,9.15656311 L19.3547409,8.18998905 L18.3719392,7.22459375 Z M17.1731372,6.04702366 L16.1903356,7.01359771 L17.1743372,7.97899301 L18.1571389,7.01359771 L17.1731372,6.04702366 Z M19.5695412,6.04702366 L18.5867396,7.01359771 L19.5695412,7.97899301 L20.5523429,7.01359771 L19.5695412,6.04702366 Z M14.7779332,6.04702366 L14.1407322,6.67411804 C14.2319323,6.90868906 14.3447325,7.13854509 14.5055328,7.34600488 C14.631533,7.51102972 14.7551332,7.69255704 14.8763334,7.88233561 L14.8763334,7.88233561 L15.7607349,7.01359771 L14.7779332,6.04702366 Z M21.9659452,6.04702366 L20.9819436,7.01359771 L21.865145,7.88115686 C21.9863452,7.69137829 22.1099455,7.51102972 22.2359457,7.34600488 C22.3967459,7.13736634 22.5107461,6.90751031 22.6019463,6.67176055 L22.6019463,6.67176055 L21.9659452,6.04702366 Z M15.9755352,4.87063231 L14.9927336,5.83720637 L15.9755352,6.80260167 L16.9583369,5.83720637 L15.9755352,4.87063231 Z M18.3719392,4.87063231 L17.3879376,5.83720637 L18.3719392,6.80260167 L19.3547409,5.83720637 L18.3719392,4.87063231 Z M20.7671432,4.87063231 L19.7843416,5.83720637 L20.7671432,6.80260167 L21.7511449,5.83602762 L20.7671432,4.87063231 Z M14.019532,5.30323314 C13.9475318,5.64860655 13.9487318,6.0045887 14.035132,6.35467711 L14.035132,6.35467711 L14.5631329,5.83720637 Z M22.7219465,5.30559064 L22.1807456,5.83602762 L22.7063464,6.35349836 C22.7927466,6.0045887 22.7951466,5.64860655 22.7219465,5.30559064 L22.7219465,5.30559064 Z M17.1743372,3.69424097 L16.1903356,4.65963627 L17.1731372,5.62621032 L18.1571389,4.65963627 L17.1743372,3.69424097 Z M19.5695412,3.69424097 L18.5867396,4.65963627 L19.5695412,5.62621032 L20.5523429,4.65963627 L19.5695412,3.69424097 Z M21.7991449,3.85690831 L20.9819436,4.65963627 L21.9659452,5.62621032 L22.6247463,4.97907721 C22.466346,4.55708512 22.1891456,4.18342174 21.7991449,3.85690831 L21.7991449,3.85690831 Z M14.9435335,3.85690831 C14.5535329,4.18224299 14.2751324,4.55590637 14.1179321,4.97789846 L14.1179321,4.97789846 L14.7779332,5.62621032 L15.7607349,4.65963627 Z M16.4999361,3.03178412 C16.3535359,3.08129157 16.2023356,3.1084028 16.0595354,3.17087648 C15.7223348,3.31704134 15.4391343,3.48795992 15.1811339,3.6683085 L15.1811339,3.6683085 L15.9755352,4.44864023 L16.9595369,3.48324493 Z M20.2427423,3.03178412 L19.7843416,3.48324493 L20.7671432,4.44864023 L21.5615445,3.66948724 C21.3035441,3.48795992 21.0203436,3.31704134 20.6819431,3.17087648 C20.5403428,3.10958154 20.3891426,3.08129157 20.2427423,3.03178412 L20.2427423,3.03178412 Z M18.3707392,2.69230445 C18.3047391,2.69230445 18.239939,2.70998569 18.1727389,2.71234318 L18.1727389,2.71234318 L17.3891376,3.48324493 L18.3719392,4.44864023 L19.3547409,3.48324493 L18.5711396,2.71352193 C18.5039394,2.71116444 18.4379393,2.69230445 18.3707392,2.69230445 Z M19.0499404,2.76185064 L19.5695412,3.27224888 L19.9187418,2.92923297 C19.6319413,2.8502568 19.3439408,2.79603435 19.0499404,2.76185064 L19.0499404,2.76185064 Z M17.6939381,2.76185064 C17.3999376,2.79603435 17.1107371,2.8502568 16.8251366,2.92923297 L16.8251366,2.92923297 L17.1743372,3.27224888 Z" id="path-1"></path>
    </defs>
    <g id="Icons/24px/Travel-&amp;-Airport/Sports-equipment" stroke="none" stroke-width="1" fill="none" fill-rule="evenodd">
        <mask id="mask-2" fill="white">
            <use xlink:href="#path-1"></use>
        </mask>
        <use id="Mask" fill="#0C2340" fill-rule="nonzero" xlink:href="#path-1"></use>
        <g id="Group" mask="url(#mask-2)" fill="#333333">
            <g id="Color/Grayscale/80%">
                <rect id="Rectangle" x="0" y="0" width="24" height="24"></rect>
            </g>
        </g>
    </g>
</svg>