<?xml version="1.0" encoding="UTF-8"?>
<svg width="24px" height="24px" viewBox="0 0 24 24" version="1.1" xmlns="http://www.w3.org/2000/svg" xmlns:xlink="http://www.w3.org/1999/xlink">
    <title>Icons/24px/Travel &amp; Airport/Standby</title>
    <defs>
        <path d="M6.4361625,4.9125 L12.5869125,4.91475 C13.2491625,4.9425 13.8611625,5.361 14.1019125,6.02175 L14.1019125,6.02175 L16.3386696,12.1645961 C16.9638761,12.2018134 17.6485875,12.4549119 17.6485875,12.55 L17.6485875,12.55 L17.6485875,16.60425 L18.6993375,16.60425 C19.0030875,16.60425 19.2513375,16.85175 19.2513375,17.15775 L19.2513375,17.15775 L19.2513375,17.65125 L13.1268375,17.65125 L13.1268375,17.15775 C13.1268375,16.85175 13.3750875,16.60425 13.6780875,16.60425 L13.6780875,16.60425 L14.7485875,16.60425 L14.7476625,13.275375 L12.7069125,7.67025 L12.1091625,7.67025 L12.1091625,23.0625 C12.1091625,23.58 11.6899125,24 11.1716625,24 C10.6541625,24 10.2341625,23.58 10.2341625,23.0625 L10.2341625,23.0625 L10.2341625,14.6625 L9.1091625,14.6625 L9.1091625,23.0625 C9.1091625,23.58 8.6899125,24 8.1716625,24 C7.6541625,24 7.2341625,23.58 7.2341625,23.0625 L7.2341625,23.0625 L7.2341625,7.67025 L6.6236625,7.67025 L6.6236625,14.06025 C6.6236625,14.5785 6.2036625,14.99775 5.6861625,14.99775 C5.1686625,14.99775 4.7486625,14.5785 4.7486625,14.06025 L4.7486625,14.06025 L4.7486625,6.59925 C4.7486625,5.667 5.5046625,4.9125 6.4361625,4.9125 L6.4361625,4.9125 Z M19.2513375,22.185825 L19.2513375,22.685325 C19.2513375,22.990575 19.0030875,23.238825 18.6993375,23.238825 L18.6993375,23.238825 L18.3783375,23.238825 L18.3783375,23.833575 C18.3783375,23.888325 18.3333375,23.933325 18.2778375,23.933325 L18.2778375,23.933325 L17.3178375,23.933325 C17.2623375,23.933325 17.2180875,23.888325 17.2180875,23.833575 L17.2180875,23.833575 L17.2180875,23.496075 L15.1803375,23.496075 C15.1773375,23.499825 15.1750875,23.502075 15.1735875,23.504325 L15.1735875,23.504325 L15.1735875,23.833575 C15.1735875,23.888325 15.1285875,23.933325 15.0738375,23.933325 L15.0738375,23.933325 L14.1130875,23.933325 C14.0583375,23.933325 14.0140875,23.888325 14.0140875,23.833575 L14.0140875,23.833575 L14.0140875,23.238825 L13.6780875,23.238825 C13.3750875,23.238825 13.1268375,22.990575 13.1268375,22.685325 L13.1268375,22.685325 L13.1268375,22.185825 L19.2513375,22.185825 Z M19.2513375,18.0765 L19.2513375,21.76125 L13.1268375,21.76125 L13.1268375,18.0765 L19.2513375,18.0765 Z M16.9848375,13.08075 L16.6709005,13.0805443 C16.8152907,13.5535561 16.5655323,14.063058 16.0954125,14.235 C15.8567941,14.3216368 15.6063162,14.3056716 15.3919132,14.2097082 L15.3925875,16.6035 L16.9848375,16.6035 L16.9848375,13.08075 Z M9.6790125,0.000375 C10.8347625,0.000375 11.7857625,0.945375 11.7857625,2.111625 C11.7857625,3.278625 10.8347625,4.222125 9.6790125,4.222125 C8.5067625,4.222125 7.5580125,3.278625 7.5580125,2.111625 C7.5580125,0.945375 8.5067625,0.000375 9.6790125,0.000375 Z" id="path-1"></path>
    </defs>
    <g id="Icons/24px/Travel-&amp;-Airport/Standby" stroke="none" stroke-width="1" fill="none" fill-rule="evenodd">
        <mask id="mask-2" fill="white">
            <use xlink:href="#path-1"></use>
        </mask>
        <use id="Mask" fill="#0C2340" fill-rule="nonzero" xlink:href="#path-1"></use>
        <g id="Group" mask="url(#mask-2)" fill="#333333">
            <g id="Color/Grayscale/80%">
                <rect id="Rectangle" x="0" y="0" width="24" height="24"></rect>
            </g>
        </g>
    </g>
</svg>