<?xml version="1.0" encoding="UTF-8"?>
<svg width="24px" height="24px" viewBox="0 0 24 24" version="1.1" xmlns="http://www.w3.org/2000/svg" xmlns:xlink="http://www.w3.org/1999/xlink">
    <title>Icons/24px/Weather/Storms</title>
    <defs>
        <path d="M14.88375,10.9006961 C15.22725,11.0612034 15.37575,11.4767223 15.21675,11.823238 L10.04625,23.5972738 C9.89025,23.9467897 9.47775,24.0967966 9.13725,23.9347892 C8.79225,23.7727818 8.64525,23.3602631 8.80125,23.0107472 L13.97475,11.2382114 C14.13075,10.8901956 14.54025,10.7371886 14.88375,10.9006961 Z M17.66985,13.0783452 C18.01335,13.2388525 18.16185,13.6543714 18.00585,14.0023872 L13.94535,22.9622949 C13.78185,23.3118109 13.37685,23.4633177 13.03185,23.3013104 C12.69435,23.1408031 12.53985,22.7252842 12.70035,22.3757683 L16.76085,13.4143604 C16.91985,13.0663446 17.32635,12.9148377 17.66985,13.0783452 Z M10.99605,10.8861454 C11.33955,11.0466527 11.48805,11.4636717 11.32905,11.8116875 L6.63255,22.2806639 C6.47205,22.6286798 6.06405,22.7801867 5.71905,22.6181793 C5.37855,22.4561719 5.22705,22.0421531 5.38755,21.6926372 L10.08705,11.2236608 C10.24305,10.8756449 10.65255,10.724138 10.99605,10.8861454 Z M7.13625,11.1791087 C7.47975,11.339616 7.62675,11.7551349 7.47075,12.1061509 L4.17825,19.2524761 C4.02225,19.5989919 3.60975,19.7504988 3.26925,19.5884914 C2.92425,19.4279841 2.77725,19.0124652 2.93325,18.6629493 L6.22575,11.5166241 C6.38625,11.1686083 6.79275,11.0156013 7.13625,11.1791087 Z M8.5545,-5.68434189e-14 C10.8375,-5.68434189e-14 12.99,0.903041095 14.6025,2.54411578 C15.15,3.09914103 15.621,3.72166936 15.999,4.39520001 L15.999,4.39520001 L16.161,4.68921339 L16.491,4.62471046 C16.878,4.55120711 17.274,4.51670554 17.6685,4.51670554 C21.156,4.51670554 24,7.39833668 24,10.9414979 C24,13.8066283 22.128,16.217238 19.5705,17.0422755 L19.5705,17.0422755 L20.4495,15.0336841 C21.735,14.1351432 22.5765,12.6395752 22.5765,10.9414979 C22.5765,8.19337286 20.376,5.95827114 17.6685,5.95827114 C16.8525,5.95827114 16.074,6.15778022 15.366,6.53579742 C14.4495,3.54916151 11.6865,1.4415656 8.5545,1.4415656 C4.62,1.4415656 1.4175,4.69071346 1.4175,8.68239511 C1.4175,10.1059599 1.8315,11.4245199 2.532,12.5435708 L2.532,12.5435708 L1.857,14.0841409 C0.654,12.5510712 0,10.6714856 0,8.68239511 C0,6.36478964 0.888,4.18219032 2.502,2.54411578 C4.119,0.903041095 6.267,-5.68434189e-14 8.5545,-5.68434189e-14 Z" id="path-1"></path>
    </defs>
    <g id="Icons/24px/Weather/Storms" stroke="none" stroke-width="1" fill="none" fill-rule="evenodd">
        <mask id="mask-2" fill="white">
            <use xlink:href="#path-1"></use>
        </mask>
        <use id="Mask" fill="#0C2340" fill-rule="nonzero" xlink:href="#path-1"></use>
        <g id="Group" mask="url(#mask-2)" fill="#333333">
            <g id="Color/Grayscale/80%">
                <rect id="Rectangle" x="0" y="0" width="24" height="24"></rect>
            </g>
        </g>
    </g>
</svg>