<?xml version="1.0" encoding="UTF-8"?>
<svg width="24px" height="24px" viewBox="0 0 24 24" version="1.1" xmlns="http://www.w3.org/2000/svg" xmlns:xlink="http://www.w3.org/1999/xlink">
    <title>Icons/24px/Weather/Storms night</title>
    <defs>
        <path d="M11.4222917,15.3222498 C11.7182235,15.4627038 11.8476937,15.8168922 11.7089756,16.117647 L8.29651171,23.6563638 C8.16087629,23.9540652 7.8048333,24.0823058 7.50581885,23.9449052 C7.21296964,23.8059778 7.08349947,23.4502628 7.21913489,23.1525613 L10.6346814,15.6107912 C10.7718582,15.3146164 11.1263598,15.1833224 11.4222917,15.3222498 Z M15.7181126,15.3234686 C16.0140444,15.4608692 16.1419733,15.8150576 16.0032552,16.1142858 L12.9221733,23.1003465 C12.7849966,23.3995746 12.4274123,23.5262886 12.1330218,23.3873612 C11.8355486,23.2484339 11.7076198,22.8972988 11.8432552,22.5995974 L14.9305024,15.6089566 C15.0645965,15.3127818 15.4206395,15.1830145 15.7181126,15.3234686 Z M7.28079389,15.3226641 C7.57518441,15.4631181 7.7061959,15.8173065 7.57056048,16.1180613 L5.21081239,21.178986 C5.07671828,21.4766874 4.7206753,21.6049281 4.42628478,21.4675274 C4.13035295,21.3286 3.99934146,20.972885 4.13805951,20.6736568 L6.49164235,15.6112055 C6.6319017,15.3165574 6.98486206,15.1822101 7.28079389,15.3226641 Z M7.76944063,7.63337057 C8.50002233,7.63337057 9.21056699,7.75092448 9.88412016,7.97076555 C10.2509523,8.08831946 10.6085366,8.23488017 10.9522491,8.41197437 C11.5348649,8.72188921 12.0758653,9.11729781 12.5582958,9.59514681 C12.9914044,10.0226156 13.3613192,10.5035179 13.6618749,11.0225871 L13.6618749,11.0225871 L13.7898038,11.2500615 L14.0518268,11.201208 C14.3600891,11.144721 14.6729754,11.1187676 14.982779,11.1187676 C15.9985034,11.1187676 16.9448687,11.4195224 17.7371029,11.9385916 C18.0700262,12.1553793 18.3690406,12.4072805 18.6387702,12.6942953 C19.4741611,13.5812929 19.9920418,14.7675187 19.9920418,16.0743517 C19.9920418,17.7796467 19.1088702,19.277314 17.7756356,20.167365 L17.7756356,20.167365 L17.1067064,19.277314 C18.1640462,18.593364 18.8668843,17.4162983 18.8668843,16.0743517 C18.8668843,13.9538014 17.1236608,12.2286597 14.982779,12.2286597 C14.3415934,12.2286597 13.7219861,12.3828537 13.1594074,12.6744485 C12.4396148,10.3706973 10.2478697,8.746316 7.76944063,8.746316 C4.65599116,8.746316 2.12515748,11.2531149 2.12515748,14.3293632 C2.12515748,15.9690112 2.84032607,17.4330917 3.97627273,18.4544367 L3.97627273,18.4544367 L3.25802152,19.2880008 C3.17016676,19.2116671 3.06844019,19.1506001 2.98520936,19.0681597 C1.70437941,17.7994935 1,16.1186253 1,14.3293632 C1,12.5401012 1.70437941,10.859233 2.98520936,9.59514681 C4.26295669,8.33106064 5.95994079,7.63337057 7.76944063,7.63337057 Z M13.0653873,0.0548987477 C13.4399261,-0.0702885297 13.8684107,0.0213119172 14.1581773,0.302219954 C14.4710635,0.606028103 14.5589183,1.06861036 14.3739609,1.46249228 C13.7959691,2.68688492 13.7281513,4.06394497 14.181297,5.33566451 C15.1492407,8.05161776 18.2010377,9.49737814 20.9877291,8.56152691 C21.1618973,8.50198662 21.3345242,8.43481296 21.4963619,8.35847925 C21.5318121,8.34473919 21.5641796,8.33252579 21.5950058,8.32336575 C21.9772511,8.19512512 22.3980292,8.28672557 22.6877958,8.56763361 C23.000682,8.87144176 23.0885368,9.33402401 22.9051207,9.72790594 C22.3024679,11.0118389 21.1295297,12.2041713 19.9504263,12.9446083 C19.8024604,12.6285868 19.6822381,12.2988251 19.4679958,12.0301305 C20.4914267,11.3751873 21.4470399,10.3492623 21.941801,9.29585716 C21.7475957,9.38745761 21.5472252,9.46531799 21.3345242,9.53707167 C17.9914193,10.6607038 14.3415934,8.93098205 13.182527,5.67305949 C12.6199483,4.09142511 12.7525011,2.43956371 13.4106411,1.02891683 C11.2605114,2.00140824 9.89953328,4.03188482 9.74386081,6.24556228 C9.73923687,6.24556228 9.73461294,6.24250893 9.72690638,6.24098226 C9.39244176,6.13106172 9.04872927,6.05472802 8.70655809,5.9906077 C8.94083745,3.4960222 10.4852317,1.21517107 12.9652021,0.0961189487 C12.9975696,0.0808522076 13.0283959,0.0671121406 13.0653873,0.0548987477 Z" id="path-1"></path>
    </defs>
    <g id="Icons/24px/Weather/Storms-night" stroke="none" stroke-width="1" fill="none" fill-rule="evenodd">
        <mask id="mask-2" fill="white">
            <use xlink:href="#path-1"></use>
        </mask>
        <use id="Mask" fill="#0C2340" fill-rule="nonzero" xlink:href="#path-1"></use>
        <g id="Group" mask="url(#mask-2)" fill="#333333">
            <g id="Color/Grayscale/80%">
                <rect id="Rectangle" x="0" y="0" width="24" height="24"></rect>
            </g>
        </g>
    </g>
</svg>