<?xml version="1.0" encoding="UTF-8"?>
<svg width="24px" height="24px" viewBox="0 0 24 24" version="1.1" xmlns="http://www.w3.org/2000/svg" xmlns:xlink="http://www.w3.org/1999/xlink">
    <title>Icons/24px/Travel &amp; Airport/Stroller</title>
    <defs>
        <path d="M1.99166333,3.12200447 C2.23653899,3.06201023 4.46490751,2.6540494 5.76274852,3.64995379 C6.30147497,4.08191231 6.60756955,4.70585241 6.63205712,5.47377868 L6.63205712,5.47377868 L6.63205712,9.26541465 L22.5,9.26541465 L22.5,11.8211693 C22.5,13.1770391 21.6306914,14.3289285 20.4063131,14.760887 C20.1777625,14.8488786 19.5614921,14.9128724 18.5575018,14.9528686 C18.555813,14.9550753 18.5484561,14.9619617 18.535431,14.9735277 L18.4793513,15.022265 C18.1748339,15.2838333 16.9846683,16.2766036 14.9088545,18.000576 L14.9088545,18.000576 L16.4760587,19.2844527 C16.8801036,19.0444758 17.3453673,18.8884908 17.8473624,18.8884908 C19.279885,18.8884908 20.4552882,20.0403802 20.4552882,21.4442454 C20.4552882,22.8481106 19.279885,24 17.8473624,24 C16.4148398,24 15.2394366,22.8481106 15.2394366,21.4442454 C15.2394366,20.9642915 15.386362,20.5323329 15.6189939,20.1483698 L15.6189939,20.1483698 L13.9538394,18.7805011 L12.3866352,20.0643779 C12.6437546,20.4723387 12.8029238,20.9402938 12.8029238,21.4442454 C12.8029238,22.8481106 11.6397644,24 10.194998,24 C8.76247538,24 7.59931598,22.8481106 7.59931598,21.4442454 C7.59931598,20.0403802 8.76247538,18.8884908 10.194998,18.8884908 C10.6725055,18.8884908 11.1132817,19.0204781 11.492839,19.2364573 L11.492839,19.2364573 L13.0110681,18.000576 C10.9352543,16.2766036 9.74508871,15.2838333 9.44057131,15.022265 L9.38449158,14.9735277 C9.37146649,14.9619617 9.36410954,14.9550753 9.36242075,14.9528686 C8.35026801,14.9128724 7.72991633,14.8488786 7.50136572,14.760887 C6.27698741,14.3289285 5.40767881,13.1770391 5.40767881,11.8211693 L5.40767881,11.8211693 L5.40767881,5.48577753 C5.39543503,5.08981555 5.26075341,4.80184319 4.99139018,4.59786278 C4.28125076,4.03391692 2.72629031,4.18990195 2.23653899,4.28589273 C1.90595685,4.35788582 1.58761849,4.1539054 1.51415579,3.82993651 C1.44069309,3.50596761 1.66108118,3.18199871 1.99166333,3.12200447 Z M17.8473624,20.0883756 C17.0882479,20.0883756 16.4638149,20.7003168 16.4638149,21.4442454 C16.4638149,22.188174 17.0882479,22.8001152 17.8473624,22.8001152 C18.606477,22.8001152 19.2309099,22.188174 19.2309099,21.4442454 C19.2309099,20.7003168 18.606477,20.0883756 17.8473624,20.0883756 Z M10.194998,20.0883756 C9.43588344,20.0883756 8.82369429,20.7003168 8.82369429,21.4442454 C8.82369429,22.188174 9.43588344,22.8001152 10.194998,22.8001152 C10.9663563,22.8001152 11.5785455,22.188174 11.5785455,21.4442454 C11.5785455,20.7003168 10.9663563,20.0883756 10.194998,20.0883756 Z M16.7086906,14.9528686 L11.211232,14.9528686 L13.9538394,17.208652 L16.7086906,14.9528686 Z M14.1316191,0.00103211405 L14.2354464,0.00218400346 C20.5287509,0.950092996 22.0347362,5.04170017 22.4020497,7.2494882 C22.4510249,7.56145825 22.4755124,7.83743175 22.4755124,8.06540986 L22.4755124,8.06540986 L13.5375508,8.06540986 L13.5375508,0.602126404 C13.5375508,0.422143684 13.6110135,0.254159812 13.7456951,0.14617018 C13.8803767,0.0261816995 14.0640335,-0.00981484455 14.2354464,0.00218400346 Z" id="path-1"></path>
    </defs>
    <g id="Icons/24px/Travel-&amp;-Airport/Stroller" stroke="none" stroke-width="1" fill="none" fill-rule="evenodd">
        <mask id="mask-2" fill="white">
            <use xlink:href="#path-1"></use>
        </mask>
        <use id="Mask" fill="#0C2340" fill-rule="nonzero" xlink:href="#path-1"></use>
        <g id="Group" mask="url(#mask-2)" fill="#333333">
            <g id="Color/Grayscale/80%">
                <rect id="Rectangle" x="0" y="0" width="24" height="24"></rect>
            </g>
        </g>
    </g>
</svg>