<?xml version="1.0" encoding="UTF-8"?>
<svg width="24px" height="24px" viewBox="0 0 24 24" version="1.1" xmlns="http://www.w3.org/2000/svg" xmlns:xlink="http://www.w3.org/1999/xlink">
    <title>Icons/24px/Weather/Sunny</title>
    <defs>
        <path d="M12.000375,20.223118 C12.2778663,20.223118 12.5043592,20.4496109 12.5043592,20.7241024 L12.5043592,23.4975157 C12.5043592,23.775007 12.2778663,24 12.000375,24 C11.7228837,24 11.4993906,23.775007 11.4993906,23.4975157 L11.4993906,20.7241024 C11.4993906,20.4496109 11.7228837,20.223118 12.000375,20.223118 Z M6.18505672,17.8155433 C6.38305053,18.0120371 6.38305053,18.3300272 6.18505672,18.5250211 L4.22611793,20.4854598 C4.02812412,20.6804537 3.71163401,20.6804537 3.51664011,20.4854598 C3.32014625,20.288966 3.32014625,19.9724759 3.51664011,19.775982 L5.47557889,17.8155433 C5.67207275,17.6190494 5.98856286,17.6190494 6.18505672,17.8155433 Z M18.5250211,17.8155433 L20.4839599,19.775982 C20.6804537,19.9724759 20.6804537,20.288966 20.4839599,20.4839599 C20.288966,20.6804537 19.9724759,20.6804537 19.774482,20.4854598 L17.8155433,18.5250211 C17.6175495,18.3300272 17.6175495,18.0105372 17.8155433,17.8155433 C18.0120371,17.6190494 18.3285272,17.6190494 18.5250211,17.8155433 Z M12.000375,5.63427393 C15.5162651,5.63427393 18.3661761,8.48418487 18.3661761,12.000075 C18.3661761,15.5159651 15.5162651,18.3658761 12.000375,18.3658761 C8.48448486,18.3658761 5.63307397,15.5159651 5.63307397,12.000075 C5.63307397,8.48418487 8.48448486,5.63427393 12.000375,5.63427393 Z M12.000375,6.88223493 C9.17146339,6.88223493 6.88253492,9.17266335 6.88253492,12.000075 C6.88253492,14.8274866 9.17146339,17.1179151 12.000375,17.1179151 C14.8277866,17.1179151 17.1167151,14.8274866 17.1167151,12.000075 C17.1167151,9.17266335 14.8277866,6.88223493 12.000375,6.88223493 Z M3.27439768,11.4978907 C3.551889,11.4978907 3.77838193,11.7228837 3.77838193,12.000375 C3.77838193,12.2793663 3.551889,12.5028593 3.27439768,12.5028593 L0.50398425,12.5028593 C0.226492922,12.5028593 1.02007292e-12,12.2793663 1.02007292e-12,12.000375 C1.02007292e-12,11.7228837 0.226492922,11.4978907 0.50398425,11.4978907 L3.27439768,11.4978907 Z M23.4990157,11.4978907 C23.7735071,11.4978907 24,11.7228837 24,12.000375 C24,12.2793663 23.7735071,12.5028593 23.4990157,12.5028593 L20.7256023,12.5028593 C20.4496109,12.5028593 20.2216181,12.2793663 20.2216181,12.000375 C20.2216181,11.7228837 20.4496109,11.4978907 20.7256023,11.4978907 L23.4990157,11.4978907 Z M20.4844099,3.51619012 C20.6809037,3.71268398 20.6794038,4.02917409 20.4844099,4.22566795 L18.5239711,6.18460673 C18.3274773,6.38110059 18.0124871,6.38110059 17.8159933,6.18460673 C17.6179994,5.98961282 17.6179994,5.67312271 17.8159933,5.47662886 L19.7734321,3.51619012 C19.9714259,3.31969626 20.289416,3.31969626 20.4844099,3.51619012 Z M4.2271679,3.51619012 L6.18460673,5.47662886 C6.38260054,5.67312271 6.38260054,5.98961282 6.18460673,6.18460673 C5.98811287,6.38110059 5.67312271,6.38110059 5.47662886,6.18460673 L3.51619012,4.22566795 C3.31969626,4.02917409 3.31969626,3.71118403 3.51619012,3.51619012 C3.71118403,3.31969626 4.02917409,3.31969626 4.2271679,3.51619012 Z M12.000375,1.99840144e-14 C12.2778663,1.99840144e-14 12.5043592,0.226492922 12.5043592,0.502484297 L12.5043592,3.27589763 C12.5043592,3.551889 12.2778663,3.77688197 12.000375,3.77688197 C11.7228837,3.77688197 11.4993906,3.551889 11.4993906,3.27589763 L11.4993906,0.502484297 C11.4993906,0.226492922 11.7228837,1.99840144e-14 12.000375,1.99840144e-14 Z" id="path-1"></path>
    </defs>
    <g id="Icons/24px/Weather/Sunny" stroke="none" stroke-width="1" fill="none" fill-rule="evenodd">
        <mask id="mask-2" fill="white">
            <use xlink:href="#path-1"></use>
        </mask>
        <use id="Mask" fill="#0C2340" fill-rule="nonzero" xlink:href="#path-1"></use>
        <g id="Group" mask="url(#mask-2)" fill="#333333">
            <g id="Color/Grayscale/80%">
                <rect id="Rectangle" x="0" y="0" width="24" height="24"></rect>
            </g>
        </g>
    </g>
</svg>