<?xml version="1.0" encoding="UTF-8"?>
<svg width="24px" height="24px" viewBox="0 0 24 24" version="1.1" xmlns="http://www.w3.org/2000/svg" xmlns:xlink="http://www.w3.org/1999/xlink">
    <title>Icons/24px/Travel &amp; Airport/UNMR/Teen</title>
    <defs>
        <path d="M4.60021586,15.6070117 C5.7026301,16.4217529 6.51903831,17.0268677 7.04944041,17.4223564 C7.09297081,17.4548417 7.13852841,17.5182062 7.13842171,17.5670638 L7.14221901,17.9119716 C7.14354731,18.198994 7.12587771,18.4837733 6.98115751,18.757001 C6.1903554,20.25029 5.41102272,21.7493301 4.62096748,23.2429819 C4.33593945,23.7819172 3.78455451,24.0656327 3.21999309,23.9870877 C2.63361313,23.9055894 2.18459929,23.4930205 2.06238345,22.92046 C1.99239342,22.5925499 2.06905171,22.2907005 2.23271744,22.0010785 C2.97929564,20.6795938 3.7263006,19.3583164 4.46290309,18.0316506 C4.54265545,17.8880313 4.59024014,17.7106313 4.59413441,17.5475829 C4.6041279,17.1304029 4.60615505,16.4835458 4.60021586,15.6070117 Z M7.79209771,5.73981221 C8.36439431,5.81379795 8.93871801,5.87281038 9.51165481,5.94187409 C10.1433256,6.01793225 10.589352,6.3457906 10.8853693,6.88685013 C11.3182193,7.67784466 11.7532565,8.4679066 12.2042441,9.24921252 C12.2723137,9.36713376 12.4181085,9.47925219 12.5517938,9.51930189 L13.2829628,9.73076262 L13.2829628,9.73076262 L14.750932,10.1361605 L14.750932,10.1361605 C15.4362156,10.3276012 15.8100648,10.9197979 15.6386105,11.5364493 C15.4560603,12.1929432 14.8271102,12.5383654 14.1228354,12.3497743 C13.1563114,12.0909797 12.1943218,11.8163309 11.2295048,11.5514226 C10.8670183,11.4518942 10.6015149,11.243615 10.4265398,10.9202642 C10.2421225,10.5794532 10.0513569,10.2419062 9.86331211,9.90290859 L9.80361781,9.90897045 C9.75507291,10.1926342 9.70332721,10.4757799 9.65846321,10.7599618 C9.48242121,11.8747216 9.31283401,12.9904659 9.13039051,14.1041895 C9.09379511,14.3272865 9.11956121,14.4786257 9.33054491,14.627737 C10.0628797,15.1454817 10.7704086,15.6962298 11.4981023,16.2203473 C11.861549,16.4821987 12.0742398,16.813373 12.1511648,17.244231 C12.4599852,18.9740361 12.7761673,20.7027014 13.0899489,22.4317293 C13.222994,23.1644368 12.7709394,23.8125891 12.0161459,23.9702492 C11.3221669,24.1151638 10.6045557,23.6801091 10.4568937,22.9669861 C10.2245183,21.8448691 10.0353531,20.7142552 9.82837041,19.5871644 C9.75208551,19.1719532 9.67014601,18.7575191 9.60463701,18.3407017 C9.57572341,18.1568772 9.48620871,18.0352774 9.33507931,17.9235216 C8.01343051,16.9462675 6.69935691,15.9594284 5.37866833,14.980879 C4.79687613,14.5498136 4.57933087,13.9936772 4.71531,13.2993097 C5.12586132,11.2024773 5.53134477,9.10471237 5.94488348,7.00844993 C6.13500886,6.0447184 6.78289681,5.60930096 7.79209771,5.73981221 Z M4.20746612,5.7972496 C4.34867315,5.81082401 4.49233411,5.81300006 4.63076715,5.84009708 C4.99426725,5.91123322 5.21047885,6.21505138 5.14299608,6.56570645 C4.69990365,8.86677674 4.25547758,11.167588 3.80667712,13.4675702 C3.71524196,13.9360947 3.41645065,14.1200229 2.93937678,14.0197173 C2.5404549,13.9358357 2.14110624,13.8529385 1.74495836,13.7577622 C0.602552346,13.4832171 -0.0192494036,12.2751461 0.512344146,11.257635 C1.38711295,9.58357829 2.30701251,7.93159293 3.21645625,6.27468554 C3.42301221,5.89838416 3.77856374,5.76787291 4.20746612,5.7972496 Z M8.83312281,0 C10.2035641,0 11.3145263,1.11571213 11.3145263,2.49201278 C11.3145263,3.86831343 10.2035641,4.98402556 8.83312281,4.98402556 C7.46268151,4.98402556 6.35171931,3.86831343 6.35171931,2.49201278 C6.35171931,1.11571213 7.46268151,0 8.83312281,0 Z" id="path-1"></path>
    </defs>
    <g id="Icons/24px/Travel-&amp;-Airport/UNMR/Teen" stroke="none" stroke-width="1" fill="none" fill-rule="evenodd">
        <g id="Icon" transform="translate(4.000000, 0.000000)">
            <mask id="mask-2" fill="white">
                <use xlink:href="#path-1"></use>
            </mask>
            <use id="Mask" fill="#000000" fill-rule="nonzero" xlink:href="#path-1"></use>
            <g id="Group" mask="url(#mask-2)">
                <g transform="translate(-4.000000, 0.000000)" id="Color/Grayscale/80%">
                    <rect id="Rectangle" fill="#333333" x="0" y="0" width="24" height="24"></rect>
                </g>
            </g>
        </g>
    </g>
</svg>