<?xml version="1.0" encoding="UTF-8"?>
<svg width="24px" height="24px" viewBox="0 0 24 24" version="1.1" xmlns="http://www.w3.org/2000/svg" xmlns:xlink="http://www.w3.org/1999/xlink">
    <title>Icons/24px/Digital/Trash</title>
    <defs>
        <path d="M18.5,6 L18.5,22 C18.5,23.1045695 17.6045695,24 16.5,24 L3.5,24 C2.3954305,24 1.5,23.1045695 1.5,22 L1.5,6 L18.5,6 Z M14,0 C14.5522847,-1.01453063e-16 15,0.44771525 15,1 L19,1 C19.5522847,1 20,1.44771525 20,2 L20,4 L0,4 L0,2 C-6.76353751e-17,1.44771525 0.44771525,1 1,1 L6,1 C6,0.44771525 6.44771525,1.01453063e-16 7,0 L14,0 Z" id="path-1"></path>
    </defs>
    <g id="Icons/24px/Digital/Trash" stroke="none" stroke-width="1" fill="none" fill-rule="evenodd">
        <g id="Trash" transform="translate(2.000000, 0.000000)">
            <mask id="mask-2" fill="white">
                <use xlink:href="#path-1"></use>
            </mask>
            <use id="Mask" fill="#6244BB" xlink:href="#path-1"></use>
            <g id="Group" mask="url(#mask-2)">
                <g transform="translate(-2.000000, 0.000000)" id="Color/Grayscale/80%">
                    <rect id="Rectangle" fill="#333333" x="0" y="0" width="24" height="24"></rect>
                </g>
            </g>
        </g>
    </g>
</svg>