<?xml version="1.0" encoding="UTF-8"?>
<svg width="24px" height="24px" viewBox="0 0 24 24" version="1.1" xmlns="http://www.w3.org/2000/svg" xmlns:xlink="http://www.w3.org/1999/xlink">
    <title>Icons/24px/Travel &amp; Airport/Traveler group</title>
    <defs>
        <path d="M13.1200071,9.32634826 C16.0802896,9.32634826 18.4926287,11.6610771 18.6085428,14.5732358 L18.6129032,14.7927029 L18.6129032,19.0325953 C18.6129032,19.2656643 18.4489418,19.4536958 18.2271364,19.4926032 L18.1414551,19.5 L5.08339503,19.5 C4.84963668,19.5 4.65970212,19.337865 4.62038034,19.1176818 L4.61290323,19.0325953 L4.61290323,14.7927029 C4.61290323,11.8527711 6.95304034,9.44633655 9.88483292,9.33069842 L10.1057994,9.32634826 L13.1200071,9.32634826 Z M4.86120219,7.6099911 C5.6654601,7.6099911 6.39894005,7.91553667 6.95426194,8.41728621 C4.95887271,9.37888739 3.49089115,11.2566045 3.10205346,13.50069 L0.268852459,13.5 C0.140046838,13.5 0.0345265975,13.4127175 0.00700664341,13.2921845 L-3.14415161e-13,13.2293973 L-3.14415161e-13,10.7747227 C-3.14415161e-13,9.09026452 1.30969767,7.70831586 2.96064852,7.61501198 L3.13879781,7.6099911 L4.86120219,7.6099911 Z M20.8612022,7.6099911 C22.535293,7.6099911 23.9027179,8.93385499 23.9950325,10.5954476 L24,10.7747227 L24,13.2293973 C24,13.3595129 23.9128806,13.4653833 23.7930125,13.4929766 L23.7306011,13.5 L19.9925311,13.5 C19.6157659,11.5028715 18.3823964,9.80545666 16.687763,8.80119521 C17.2203013,8.12731071 18.0212995,7.67781633 18.9278054,7.61704103 L19.1387978,7.6099911 L20.8612022,7.6099911 Z M11.6129989,0.5 C13.7981081,0.5 15.5796655,2.2698677 15.5796655,4.44063941 C15.5796655,6.62186122 13.7981081,8.39077891 11.6129989,8.39077891 C9.42693328,8.39077891 7.64633219,6.62186122 7.64633219,4.44063941 C7.64633219,2.2698677 9.42693328,0.5 11.6129989,0.5 Z M20.0000546,2.5 C21.2486885,2.5 22.2667213,3.52466025 22.2667213,4.78142281 C22.2667213,6.04423544 21.2486885,7.06834568 20.0000546,7.06834568 C18.7508743,7.06834568 17.733388,6.04423544 17.733388,4.78142281 C17.733388,3.52466025 18.7508743,2.5 20.0000546,2.5 Z M4.00005464,2.5 C5.24868852,2.5 6.26672131,3.52466025 6.26672131,4.78142281 C6.26672131,6.04423544 5.24868852,7.06834568 4.00005464,7.06834568 C2.75087432,7.06834568 1.73338798,6.04423544 1.73338798,4.78142281 C1.73338798,3.52466025 2.75087432,2.5 4.00005464,2.5 Z" id="path-1"></path>
    </defs>
    <g id="Icons/24px/Travel-&amp;-Airport/Traveler-group" stroke="none" stroke-width="1" fill="none" fill-rule="evenodd">
        <g id="Group" transform="translate(0.000000, 2.000000)">
            <mask id="mask-2" fill="white">
                <use xlink:href="#path-1"></use>
            </mask>
            <use id="Mask" fill="#333333" fill-rule="nonzero" xlink:href="#path-1"></use>
            <g mask="url(#mask-2)" id="Color/Grayscale/80%">
                <g transform="translate(0.000000, -2.000000)">
                    <rect id="Rectangle" fill="#333333" x="0" y="0" width="24" height="24"></rect>
                </g>
            </g>
        </g>
    </g>
</svg>