<?xml version="1.0" encoding="UTF-8"?>
<svg width="24px" height="24px" viewBox="0 0 24 24" version="1.1" xmlns="http://www.w3.org/2000/svg" xmlns:xlink="http://www.w3.org/1999/xlink">
    <title>Icons/24px/Travel &amp; Airport/Traveler connecting</title>
    <defs>
        <path d="M22.0050118,20.0098818 C23.1068134,20.0098818 24,20.9030684 24,22.00487 C24,23.1066715 23.1068134,23.9998582 22.0050118,23.9998582 C21.2654692,23.9998582 20.619913,23.5974546 20.2753566,22.9996609 L3.72464342,22.9996609 C3.38008696,23.5974546 2.73453078,23.9998582 1.99498821,23.9998582 C0.893186647,23.9998582 0,23.1066715 0,22.00487 C0,20.9030684 0.893186647,20.0098818 1.99498821,20.0098818 C2.72993994,20.0098818 3.37206853,20.4073048 3.71819198,20.998969 L20.281808,20.998969 C20.6279315,20.4073048 21.2700601,20.0098818 22.0050118,20.0098818 Z M7.42386042,18.5069807 C7.81659664,18.5049985 8.13420898,18.8399948 8.13232403,19.2499904 C8.13135618,19.6619859 7.81089103,19.9989822 7.41910575,20 C7.02351672,20.0019822 6.70400251,19.6679858 6.70588756,19.2559903 C6.70685532,18.8449948 7.0282714,18.5079985 7.42386042,18.5069807 Z M13.7128701,3.69715974 C14.5111122,3.69715974 15.3708498,4.04032947 15.8337369,4.61457832 L15.9333037,4.75114826 L17.5594028,7.43011909 L19.4317941,7.88211417 C19.7883155,7.96094664 20.0241805,8.31118588 19.9980237,8.68404236 L19.9842874,8.7971042 C19.902507,9.15210034 19.6058152,9.38809777 19.2786935,9.38809777 L19.2016678,9.38684778 L19.2016678,9.38684778 L19.1203594,9.377026 L19.1203594,9.377026 L17.0690394,8.85209125 L17.0690394,8.85209125 L16.7484164,8.76115277 C16.7396525,8.75808619 16.7338128,8.75571715 16.7311383,8.75410467 C16.6696444,8.71077181 16.6127997,8.66255011 16.5606039,8.60351372 L16.485797,8.50610737 L15.5957217,7.02112354 L14.960497,10.5070856 L18.0814662,18.1140027 L18.0814662,18.1140027 C18.2421011,18.5404596 18.0713379,19.0316732 17.6903423,19.2573057 L17.5907836,19.3079897 L17.5803233,19.3079897 C17.4671621,19.3509893 17.365412,19.372989 17.2522507,19.372989 C16.9437251,19.372989 16.6502266,19.2023242 16.487965,18.9150736 L16.4334955,18.8019953 L14.3471438,13.8850488 L14.0304824,15.6500296 L13.5901994,18.6839965 C13.5335395,19.0983254 13.2107961,19.4042595 12.8343832,19.4523713 L12.7305541,19.4589881 L12.5974231,19.4589881 L12.5765026,19.4479882 C12.1419983,19.3787582 11.829844,18.9789282 11.8330072,18.5198472 L11.8404788,18.4039996 L12.9140845,11.02408 C12.5061334,10.7241546 11.9481333,10.2198795 11.9276033,9.67538728 L11.9327195,9.54909601 L12.3520819,6.19313256 L10.1421086,7.6131171 L9.45743525,10.2990878 L8.09569611,18.4039996 C7.91121469,18.2210016 7.66587342,18.1140027 7.38915129,18.1140027 C6.80622804,18.1140027 6.33551514,18.6189972 6.33551514,19.2219907 C6.33551514,19.4461549 6.39957119,19.6550415 6.50952307,19.8307109 L6.58085641,19.9319829 L4.77027587,19.7059854 C4.52398367,19.6629859 4.31953261,19.5339873 4.17689234,19.3399894 C4.057233,19.1699912 3.99436562,18.9694379 4.00039701,18.7643707 L4.01238056,18.640997 L5.09739757,12.5410634 C5.15357589,12.0942991 5.53304966,11.7659713 5.98526023,11.7527097 L6.09968322,11.756072 L8.11566575,12.1110681 L8.48591737,10.0360509 L8.48591737,10.0360509 L8.50269636,9.95309162 L8.50269636,9.95309162 C8.22217049,9.78209348 8.0709718,9.43809722 8.16796718,9.09810093 L8.66951573,7.463923 L8.66951573,7.463923 L8.82585713,6.98112323 L8.82585713,6.98112323 L8.91467133,6.72125453 L8.91467133,6.72125453 L8.98372808,6.53712205 C9.00274679,6.49085659 9.01741162,6.46094782 9.02666163,6.45112975 L10.4756768,5.43546333 L10.4756768,5.43546333 L11.4068599,4.79637177 L11.4068599,4.79637177 L12.1068767,4.32868738 L12.1068767,4.32868738 L12.543801,4.0488411 C12.5864346,4.02238768 12.6268514,3.99766165 12.664806,3.97484353 L12.8610215,3.86227379 C12.9152679,3.83334492 12.9577008,3.81349181 12.9863556,3.80415857 C13.2107763,3.74015927 13.4570685,3.69715974 13.7128701,3.69715974 Z M14.9712426,0 C15.800458,0 16.474671,0.709992268 16.474671,1.59298265 C16.474671,2.46397317 15.800458,3.18496532 14.9712426,3.18496532 C14.1315668,3.18496532 13.4573538,2.46397317 13.4573538,1.59298265 C13.4573538,0.709992268 14.1315668,0 14.9712426,0 Z" id="path-1"></path>
    </defs>
    <g id="Icons" stroke="none" stroke-width="1" fill="none" fill-rule="evenodd">
        <g transform="translate(-747.000000, -1258.000000)" id="Icons/24px/Travel-&amp;-Airport/Traveler-connecting">
            <g transform="translate(747.000000, 1258.000000)">
                <mask id="mask-2" fill="white">
                    <use xlink:href="#path-1"></use>
                </mask>
                <use id="Shape" fill="#231F20" xlink:href="#path-1"></use>
                <g id="Color/Grayscale/80%" mask="url(#mask-2)" fill="#333333">
                    <rect id="Rectangle" x="0" y="0" width="24" height="24"></rect>
                </g>
            </g>
        </g>
    </g>
</svg>