<?xml version="1.0" encoding="UTF-8"?>
<svg width="24px" height="24px" viewBox="0 0 24 24" version="1.1" xmlns="http://www.w3.org/2000/svg" xmlns:xlink="http://www.w3.org/1999/xlink">
    <title>Icons/24px/Travel &amp; Airport/United club</title>
    <defs>
        <path d="M13.3227956,18.8939925 L13.3227956,20.1179943 C15.3554431,20.2499945 17.2794121,20.9147955 17.2794121,22.0451971 C17.2794121,23.315999 14.8562382,24 12.5787654,24 C10.3000982,24 7.87931289,23.315999 7.87931289,22.0451971 C7.87931289,20.9147955 9.80328187,20.2499945 11.8359294,20.1179943 L11.8359294,20.1179943 L11.8359294,18.8939925 L13.3227956,18.8939925 Z M15.232075,0.02252479 C16.9780978,-0.207875548 17.0700566,1.38332679 16.5863772,2.32652817 C16.2065993,3.07532927 14.0999071,5.73333318 14.0999071,8.64093745 C14.0999071,9.49053869 15.3801645,10.1805397 16.9589894,10.1805397 C17.5238792,10.1805397 18.3730051,9.92853934 18.8626558,9.92853934 C19.9494415,9.92853934 20.4928344,10.5025402 20.4928344,11.6505419 C20.4295381,13.2057441 19.8097119,15.2757472 16.2209306,17.1489499 C11.9753007,19.3605532 7.35586435,17.7813509 5.74121131,14.463346 C3.58316541,10.0305395 3.26668386,2.98412914 3.6273534,0.599725638 C3.73364343,-0.109475404 4.58635221,0.783325907 4.68069954,0.885326057 C4.66875684,1.04372629 4.13037109,3.60986328 5.18229294,8.94453789 C5.38988684,9.99732132 6.33118069,10.7253405 7.42990909,10.7253405 C7.75355626,10.7253405 8.03182117,10.6533404 8.30292046,10.5837403 C8.52386041,10.5261402 8.73046912,10.4721401 8.93468929,10.4721401 C9.62020027,10.4721401 9.75395851,10.6809404 9.97131566,11.1201411 C10.963754,13.119344 12.2523714,14.2725457 12.5664644,14.482546 C13.22809,15.0753469 14.3769777,15.4305474 15.6381268,15.4305474 C17.6994368,15.4305474 19.3140899,14.471746 19.3140899,13.2477442 C19.3140899,12.0249424 17.6994368,11.067341 15.6381268,11.067341 C14.7472014,11.067341 12.6070696,11.2737413 11.5501406,11.751342 C11.3112866,11.3925415 11.0927352,11.0097409 10.8956806,10.6161403 C10.5768105,9.97533941 10.1182109,9.38253853 8.93468929,9.38253853 C8.60507077,9.38253853 7.62815791,9.63573891 7.42990909,9.63573891 C6.82799701,9.63573891 6.31207237,9.25413835 6.2033938,8.72973758 C5.41398132,4.92213198 5.55132237,3.15212939 5.68627489,1.43612687 C5.68627489,1.41692684 5.6898577,1.39652681 5.6898577,1.37732678 C6.53301232,1.62212714 7.61979802,1.5981271 9.35984941,1.35932675 C12.3897124,0.942926142 13.4908294,0.251725127 15.232075,0.02252479 Z" id="path-1"></path>
    </defs>
    <g id="Icons/24px/Travel-&amp;-Airport/United-club" stroke="none" stroke-width="1" fill="none" fill-rule="evenodd">
        <mask id="mask-2" fill="white">
            <use xlink:href="#path-1"></use>
        </mask>
        <use id="Mask" fill="#0C2340" fill-rule="nonzero" xlink:href="#path-1"></use>
        <g id="Group" mask="url(#mask-2)" fill="#333333">
            <g id="Color/Grayscale/80%">
                <rect id="Rectangle" x="0" y="0" width="24" height="24"></rect>
            </g>
        </g>
    </g>
</svg>