<?xml version="1.0" encoding="UTF-8"?>
<svg width="24px" height="24px" viewBox="0 0 24 24" version="1.1" xmlns="http://www.w3.org/2000/svg" xmlns:xlink="http://www.w3.org/1999/xlink">
    <title>Icons/24px/Digital/Lock/Unlocked</title>
    <defs>
        <path d="M18,9 C19,9 20,10 20,11 L20,22 L20,22 C20,23 19,24 18,24 L2,24 L2,24 C0.772002163,24 0,23 0,22 L0,11 L0,11 C0,10 1,9 2,9 L4,9 L4,9 L4,6 C4,2.66 7,0.00621623553 10,0.00310539675 C13,1.49755642e-13 16,2.66 16,6 L13,6 L12.9943285,5.82274964 C12.8928571,4.23979592 11.4464286,3 10,3 C8.5,3 7,4.33333333 7,6 L7,6 L7,9 L18,9 L18,9 Z" id="path-1"></path>
    </defs>
    <g id="Icons/24px/Digital/Lock/Unlocked" stroke="none" stroke-width="1" fill="none" fill-rule="evenodd">
        <g id="Icon" transform="translate(2.000000, 0.000000)">
            <mask id="mask-2" fill="white">
                <use xlink:href="#path-1"></use>
            </mask>
            <use id="Mask" fill="#0C2340" fill-rule="nonzero" xlink:href="#path-1"></use>
            <g id="Group" mask="url(#mask-2)">
                <g transform="translate(-2.000000, 0.000000)" id="Color/Grayscale/80%">
                    <rect id="Rectangle" fill="#333333" x="0" y="0" width="24" height="24"></rect>
                </g>
            </g>
        </g>
    </g>
</svg>