<?xml version="1.0" encoding="UTF-8"?>
<svg width="24px" height="24px" viewBox="0 0 24 24" version="1.1" xmlns="http://www.w3.org/2000/svg" xmlns:xlink="http://www.w3.org/1999/xlink">
    <title>Icons/24px/Background shape/Upgrade</title>
    <defs>
        <path d="M12,0 C18.627417,0 24,5.372583 24,12 C24,18.627417 18.627417,24 12,24 C5.372583,24 0,18.627417 0,12 C0,5.372583 5.372583,0 12,0 Z M12,6 C11.6973039,6 11.4039297,6.10472385 11.1696558,6.29640246 L11.1696558,6.29640246 L6.36676221,10.2260427 L6.27461247,10.3115049 C5.93206693,10.6714982 5.90321725,11.2386733 6.2260427,11.6332378 L6.2260427,11.6332378 L6.31150493,11.7253875 C6.67149816,12.0679331 7.23867335,12.0967828 7.63323779,11.7739573 L7.63323779,11.7739573 L10.9998049,9.019 L11,17 L11.0067277,17.1166211 C11.0644928,17.6139598 11.4871642,18 12,18 L12,18 L12.1166211,17.9932723 C12.6139598,17.9355072 13,17.5128358 13,17 L13,17 L12.9998049,9.019 L16.3667622,11.7739573 L16.4687796,11.8473591 C16.889475,12.1118358 17.4511318,12.0278022 17.7739573,11.6332378 C18.1236849,11.205793 18.0606826,10.5757703 17.6332378,10.2260427 L17.6332378,10.2260427 L12.8303442,6.29640246 L12.7085127,6.20789165 C12.49802,6.0727249 12.2522467,6 12,6 Z" id="path-1"></path>
    </defs>
    <g id="Icons/24px/Background-shape/Upgrade" stroke="none" stroke-width="1" fill="none" fill-rule="evenodd">
        <mask id="mask-2" fill="white">
            <use xlink:href="#path-1"></use>
        </mask>
        <use id="Combined-Shape" fill="#002244" xlink:href="#path-1"></use>
        <g id="Group" mask="url(#mask-2)" fill="#333333">
            <g id="Color/Grayscale/80%">
                <rect id="Rectangle" x="0" y="0" width="24" height="24"></rect>
            </g>
        </g>
    </g>
</svg>