<?xml version="1.0" encoding="UTF-8"?>
<svg width="24px" height="24px" viewBox="0 0 24 24" version="1.1" xmlns="http://www.w3.org/2000/svg" xmlns:xlink="http://www.w3.org/1999/xlink">
    <title>ATOMS/Icons/User default</title>
    <defs>
        <path d="M12,0 C18.627417,0 24,5.372583 24,12 C24,18.627417 18.627417,24 12,24 C5.372583,24 0,18.627417 0,12 C0,5.372583 5.372583,0 12,0 Z M12,2 C6.4771525,2 2,6.4771525 2,12 C2,17.5228475 6.4771525,22 12,22 C17.5228475,22 22,17.5228475 22,12 C22,6.4771525 17.5228475,2 12,2 Z M13.3321721,12.9149866 C15.9417784,12.9149866 18.0696563,14.9315696 18.1827705,17.451 L18.1831781,17.4619057 C16.6715881,19.1718126 14.4617061,20.25 12,20.25 C9.64086496,20.25 7.51300592,19.2597897 6.00937533,17.6723215 L5.817,17.462 L5.81750265,17.4450023 C5.93049075,14.9983319 7.94360974,13.027319 10.4515087,12.9196222 L10.6678279,12.9149866 L13.3321721,12.9149866 Z M12.0000845,5.25 C13.9315651,5.25 15.5063345,6.78699037 15.5063345,8.67213422 C15.5063345,10.5663532 13.9315651,12.1025185 12.0000845,12.1025185 C10.0677587,12.1025185 8.49383453,10.5663532 8.49383453,8.67213422 C8.49383453,6.78699037 10.0677587,5.25 12.0000845,5.25 Z" id="path-1"></path>
    </defs>
    <g id="Icons" stroke="none" stroke-width="1" fill="none" fill-rule="evenodd">
        <g transform="translate(-547.000000, -557.000000)" id="ATOMS/Icons/User-default">
            <g transform="translate(547.000000, 557.000000)">
                <mask id="mask-2" fill="white">
                    <use xlink:href="#path-1"></use>
                </mask>
                <use id="Combined-Shape" fill="#FFFFFF" fill-rule="nonzero" xlink:href="#path-1"></use>
                <g id="Color/Grayscale/80%" mask="url(#mask-2)" fill="#333333">
                    <rect id="Rectangle" x="0" y="0" width="24" height="24"></rect>
                </g>
            </g>
        </g>
    </g>
</svg>