<?xml version="1.0" encoding="UTF-8"?>
<svg width="24px" height="24px" viewBox="0 0 24 24" version="1.1" xmlns="http://www.w3.org/2000/svg" xmlns:xlink="http://www.w3.org/1999/xlink">
    <title>Icons/24px/Travel &amp; Airport/Vaccine</title>
    <defs>
        <path d="M14.4529102,4.42070302 L19.5756849,9.54442292 L11.5218153,17.5997786 C10.7547274,18.3713922 9.70557033,18.5491963 8.65788868,18.6216361 L7.60937921,18.6733241 L5.66908496,20.6140169 C5.49617503,20.7869587 5.21583263,20.7869587 5.0429227,20.6140169 L4.71445808,20.2855024 L1.10358823,23.8970385 C0.974169742,24 0.79704797,24 0.619926199,24 L1.77635684e-15,24 L1.77635684e-15,23.3800738 C1.77635684e-15,23.202952 1.77635684e-15,23.0258303 0.094367872,22.9050894 L3.71381238,19.284672 L3.38470121,18.9554894 C3.21179127,18.7825476 3.21179127,18.5021535 3.38470121,18.3292116 L5.33016511,16.3833269 L5.38511207,15.3678384 C5.44825016,14.3024855 5.6301857,13.2588342 6.38060852,12.4947 L7.12960059,11.745364 L9.1574578,13.7780238 C9.29179415,13.9123849 9.51095511,13.9152437 9.64890103,13.7866 L10.1581035,13.2776086 C10.2924399,13.1432475 10.2952981,12.9240461 10.1666782,12.7860747 L8.13024629,10.7489621 L9.33288073,9.54610573 L11.3367912,11.5503617 C11.4893588,11.7029574 11.7348611,11.7059495 11.8910732,11.5593379 L11.9003373,11.5503617 L12.3386509,11.1119672 C12.4912185,10.9593715 12.49421,10.7138239 12.3476254,10.557583 L12.3386509,10.5483172 L10.3347662,8.54403543 L11.5528088,7.32576806 L13.5762384,9.35399945 C13.7105747,9.48836059 13.9297357,9.49121934 14.0676816,9.36257569 L14.5768841,8.85358428 C14.7112204,8.71922314 14.7140786,8.50002174 14.5854587,8.36205037 L12.5534545,6.32493772 L14.4529102,4.42070302 Z M19.890047,0.102961528 C20.0243834,-0.0313996149 20.2435444,-0.0342583626 20.3814903,0.0943852847 L23.8970575,3.61029615 C24.0313938,3.74899153 24.034252,3.96404313 23.9056321,4.1059877 L23.3967346,4.61555494 C23.2623983,4.74991608 23.0432373,4.75277483 22.9052914,4.62413118 L21.6433908,3.3623028 L20.0804354,4.92554664 L23.0690896,7.91475228 C23.2034259,8.04911343 23.2062841,8.26831482 23.0776642,8.40628619 L22.0108846,9.47799613 C21.8765482,9.61235727 21.6573873,9.61521602 21.5194414,9.48657237 L14.5281801,2.48546914 C14.3938437,2.351108 14.3909855,2.1319066 14.5196054,1.99393523 L15.586385,0.92665375 C15.7207214,0.792292608 15.9398823,0.78943386 16.0778282,0.918077507 L19.0797897,3.92028785 L20.6427451,2.35704401 L19.3897242,1.10379186 C19.2553878,0.96943072 19.2525296,0.750229323 19.3811495,0.612257956 L19.890047,0.102961528 Z" id="path-1"></path>
    </defs>
    <g id="Icons/24px/Travel-&amp;-Airport/Vaccine" stroke="none" stroke-width="1" fill="none" fill-rule="evenodd">
        <g id="Icon">
            <mask id="mask-2" fill="white">
                <use xlink:href="#path-1"></use>
            </mask>
            <use id="Mask" fill="#000000" fill-rule="nonzero" xlink:href="#path-1"></use>
            <g id="Group" mask="url(#mask-2)" fill="#333333">
                <g id="Color/Grayscale/80%">
                    <rect id="Rectangle" x="0" y="0" width="24" height="24"></rect>
                </g>
            </g>
        </g>
    </g>
</svg>