<?xml version="1.0" encoding="UTF-8"?>
<svg width="24px" height="24px" viewBox="0 0 24 24" version="1.1" xmlns="http://www.w3.org/2000/svg" xmlns:xlink="http://www.w3.org/1999/xlink">
    <title>Icons/24px/Digital/View/Off</title>
    <defs>
        <path d="M2.28238813,0.524994189 L2.38388348,0.616116524 L23.3838835,21.6161165 C23.8720388,22.1042719 23.8720388,22.8957281 23.3838835,23.3838835 C22.9282718,23.8394952 22.2084514,23.8698693 21.7176119,23.4750058 L21.6161165,23.3838835 L0.616116524,2.38388348 C0.127961159,1.89572811 0.127961159,1.10427189 0.616116524,0.616116524 C1.0717282,0.16050485 1.79154862,0.130130738 2.28238813,0.524994189 Z M3.3711896,7.25938065 L4.78709961,8.67555486 C3.71549892,9.58686871 2.79558541,10.7073754 2.08623118,12.0000152 C4.12123504,15.7083556 7.88957553,18.0000266 12,18.0000266 C12.657055,18.0000266 13.3053601,17.941481 13.9392343,17.8279627 L15.6023514,19.4920689 C14.4550052,19.8231982 13.2466816,20.0000304 12,20.0000304 C6.87790694,20.0000304 2.40456511,17.017108 0.14497749,12.6083497 C-0.0483258301,12.225974 -0.0483258301,11.774473 0.14497749,11.3920974 C0.957714997,9.80605962 2.05749252,8.40420452 3.3711896,7.25938065 Z M12,4 C17.1220931,4 21.5954349,6.98292233 23.8550225,11.3916807 C24.0483258,11.7740563 24.0483258,12.2255574 23.8550225,12.607933 C23.042285,14.1939708 21.9425075,15.5958259 20.6288104,16.7406497 L19.2130853,15.3244755 C20.2846903,14.4131617 21.2045598,13.292655 21.9137688,12.0000152 C19.878765,8.29167482 16.1108411,6 12,6 C11.342945,6 10.6946506,6.05854941 10.0607925,6.17206771 L8.39664391,4.50825143 C9.54428941,4.17693545 10.7529545,4 12,4 Z M7.53624567,11.4261463 L12.5738537,16.4637543 C12.3859413,16.4876717 12.1944104,16.5 12,16.5 C9.51471863,16.5 7.5,14.4852814 7.5,12 C7.5,11.8055896 7.51232827,11.6140587 7.53624567,11.4261463 Z M12,7.5 C14.4852814,7.5 16.5,9.51471863 16.5,12 C16.5,12.1944104 16.4876717,12.3859413 16.4637543,12.5738537 L11.4251468,7.536373 C11.6133795,7.51237202 11.8052449,7.5 12,7.5 Z" id="path-1"></path>
    </defs>
    <g id="Icons/24px/Digital/View/Off" stroke="none" stroke-width="1" fill="none" fill-rule="evenodd">
        <g id="Icon">
            <mask id="mask-2" fill="white">
                <use xlink:href="#path-1"></use>
            </mask>
            <use id="Mask" fill="#000000" fill-rule="nonzero" xlink:href="#path-1"></use>
            <g id="Group" mask="url(#mask-2)" fill="#333333">
                <g id="Color/Grayscale/80%">
                    <rect id="Rectangle" x="0" y="0" width="24" height="24"></rect>
                </g>
            </g>
        </g>
    </g>
</svg>