<?xml version="1.0" encoding="UTF-8"?>
<svg width="24px" height="24px" viewBox="0 0 24 24" version="1.1" xmlns="http://www.w3.org/2000/svg" xmlns:xlink="http://www.w3.org/1999/xlink">
    <title>Icons/24px/Digital/View/On</title>
    <defs>
        <path d="M12,12.5 C14.4852814,12.5 16.5,10.4852814 16.5,8 C16.5,5.51471863 14.4852814,3.5 12,3.5 C9.51471863,3.5 7.5,5.51471863 7.5,8 C7.5,10.4852814 9.51471863,12.5 12,12.5 Z M23.8550225,7.3916807 C21.5954349,2.98292233 17.1220931,0 12,0 C6.87790694,0 2.40331511,2.98500567 0.14497749,7.39209737 C-0.0483258301,7.77447302 -0.0483258301,8.22597403 0.14497749,8.60834968 C2.40456511,13.017108 6.87790694,16.0000304 12,16.0000304 C17.1220931,16.0000304 21.5966849,13.0150247 23.8550225,8.60793301 C24.0483258,8.22555736 24.0483258,7.77405635 23.8550225,7.3916807 Z M12,14.0000266 C7.88957553,14.0000266 4.12123504,11.7083556 2.08623118,8.00001519 C4.12123504,4.29167482 7.88915886,2.0000038 12,2.0000038 C16.1108411,2.0000038 19.878765,4.29167482 21.9137688,8.00001519 C19.8791816,11.7083556 16.1108411,14.0000266 12,14.0000266 Z" id="path-1"></path>
    </defs>
    <g id="Icons/24px/Digital/View/On" stroke="none" stroke-width="1" fill="none" fill-rule="evenodd">
        <g id="Icon" transform="translate(0.000000, 4.000000)">
            <mask id="mask-2" fill="white">
                <use xlink:href="#path-1"></use>
            </mask>
            <use id="Mask" fill="#000000" fill-rule="nonzero" xlink:href="#path-1"></use>
            <g id="Group" mask="url(#mask-2)">
                <g transform="translate(0.000000, -4.000000)" id="Color/Grayscale/80%">
                    <rect id="Rectangle" fill="#333333" x="0" y="0" width="24" height="24"></rect>
                </g>
            </g>
        </g>
    </g>
</svg>