<?xml version="1.0" encoding="UTF-8"?>
<svg width="24px" height="24px" viewBox="0 0 24 24" version="1.1" xmlns="http://www.w3.org/2000/svg" xmlns:xlink="http://www.w3.org/1999/xlink">
    <title>Icons/24px/Digital/Weight</title>
    <defs>
        <path d="M23.9193358,20.8992188 L20.4960545,7.205625 C20.3179295,6.49359375 19.7254295,6 19.0490233,6 L16.2248045,6 C16.3921483,5.52890625 16.5004295,5.02875 16.5004295,4.5 C16.5004295,2.0146875 14.485742,0 12.0004295,0 C9.51511704,0 7.50042954,2.0146875 7.50042954,4.5 C7.50042954,5.02875 7.60824204,5.52890625 7.77605454,6 L4.95183579,6 C4.27542954,6 3.68246079,6.4940625 3.50480454,7.205625 L0.0805857932,20.8992188 C-0.309882957,22.460625 0.767773293,23.9995313 2.25136704,23.9995313 L21.7490233,23.9995313 C23.2321483,23.9995313 24.3098045,22.460625 23.9193358,20.8992188 Z M11.9999608,5.99953125 C11.1730858,5.99953125 10.4999608,5.32640625 10.4999608,4.49953125 C10.4999608,3.67265625 11.1730858,2.99953125 11.9999608,2.99953125 C12.8268358,2.99953125 13.4999608,3.67265625 13.4999608,4.49953125 C13.4999608,5.32640625 12.8268358,5.99953125 11.9999608,5.99953125 Z" id="path-1"></path>
    </defs>
    <g id="Icons" stroke="none" stroke-width="1" fill="none" fill-rule="evenodd">
        <g transform="translate(-627.000000, -557.000000)" id="Icons/24px/Digital/Weight">
            <g transform="translate(627.000039, 557.000469)">
                <mask id="mask-2" fill="white">
                    <use xlink:href="#path-1"></use>
                </mask>
                <use id="Mask" fill="#000000" fill-rule="nonzero" xlink:href="#path-1"></use>
                <g id="Color/Grayscale/80%" mask="url(#mask-2)" fill="#333333">
                    <g transform="translate(-0.000039, -0.000469)" id="Rectangle">
                        <rect x="0" y="0" width="24" height="24"></rect>
                    </g>
                </g>
            </g>
        </g>
    </g>
</svg>