<?xml version="1.0" encoding="UTF-8"?>
<svg width="24px" height="24px" viewBox="0 0 24 24" version="1.1" xmlns="http://www.w3.org/2000/svg" xmlns:xlink="http://www.w3.org/1999/xlink">
    <title>Icons/24px/Travel &amp; Airport/Wifi</title>
    <defs>
        <path d="M11.9940193,21.5 C10.7940473,21.5 9.79327077,20.5106711 9.79327077,19.2831705 C9.79327077,18.0568912 10.7940473,17.0675624 11.9940193,17.0675624 C13.1939912,17.0675624 14.1947677,18.0959758 14.1947677,19.2831705 C14.1947677,20.5106711 13.1939912,21.5 11.9940193,21.5 Z M23.837742,7.40878118 C20.677016,4.24292877 16.4759143,2.5 11.9940193,2.5 C7.51212416,2.5 3.3110225,4.24292877 0.150296482,7.40878118 C-0.0500988273,7.60664695 -0.0500988273,7.96329391 0.150296482,8.20024428 L1.19067213,9.22987915 C1.39106744,9.46682952 1.75105901,9.42774492 1.9910534,9.22987915 C4.55179346,6.65640267 8.11331009,5.07347647 12.0336183,5.07347647 C15.9551265,5.07347647 19.4758441,6.65640267 22.0773832,9.22987915 C22.2777785,9.46682952 22.6377701,9.46682952 22.8777645,9.22987915 L23.9181401,8.20024428 C24.0381373,8.0023785 24.0381373,7.64695294 23.837742,7.40878118 M3.71181312,11.0106711 C3.51141781,11.2085369 3.51141781,11.5651839 3.71181312,11.8021342 L4.75218877,12.8317691 C4.9513841,13.0687195 5.31137568,13.0296349 5.55257003,12.8317691 C7.19293164,11.1694523 9.47287827,10.1398174 11.9940193,10.1398174 C14.5151602,10.1398174 16.7951069,11.1694523 18.4354685,12.8317691 C18.6358638,13.0687195 18.9958554,13.0687195 19.2358497,12.8317691 L20.2762254,11.8021342 C20.4766207,11.5651839 20.4766207,11.2085369 20.2762254,11.0106711 C18.0754769,8.7938416 15.1151462,7.56756236 11.9940193,7.56756236 C8.87289231,7.56756236 5.95216068,8.7938416 3.71181312,11.0106711 Z M7.31292883,14.5734765 C7.11253352,14.8104268 7.11253352,15.1279892 7.31292883,15.3649396 L8.31250543,16.393353 C8.51290074,16.6315248 8.87289231,16.5912188 9.1128867,16.393353 C9.83286984,15.6421959 10.8732455,15.2061584 11.9940193,15.2061584 C13.114793,15.2061584 14.1143696,15.6812805 14.8751518,16.393353 C15.0755471,16.6315248 15.4355387,16.6315248 15.6755331,16.393353 L16.6751097,15.3649396 C16.875505,15.1279892 16.875505,14.8104268 16.6751097,14.5734765 C15.4751378,13.3850604 13.8347762,12.6339033 11.9940193,12.6339033 C10.1532623,12.6339033 8.51290074,13.3850604 7.31292883,14.5734765 Z" id="path-1"></path>
    </defs>
    <g id="Icons/24px/Travel-&amp;-Airport/Wifi" stroke="none" stroke-width="1" fill="none" fill-rule="evenodd">
        <mask id="mask-2" fill="white">
            <use xlink:href="#path-1"></use>
        </mask>
        <use id="Mask" fill="#0C2340" fill-rule="nonzero" xlink:href="#path-1"></use>
        <g id="Group" mask="url(#mask-2)" fill="#333333">
            <g id="Color/Grayscale/80%">
                <rect id="Rectangle" x="0" y="0" width="24" height="24"></rect>
            </g>
        </g>
    </g>
</svg>