<?xml version="1.0" encoding="UTF-8"?>
<svg width="24px" height="24px" viewBox="0 0 24 24" version="1.1" xmlns="http://www.w3.org/2000/svg" xmlns:xlink="http://www.w3.org/1999/xlink">
    <title>Icons/24px/Weather/Windy</title>
    <defs>
        <path d="M18.6279672,13.270999 C21.0969363,13.270999 23.1039112,15.2931117 23.1039112,17.7776806 C23.1039112,19.8300191 21.4479319,21.5 19.4064574,21.5 C17.7069787,21.5 16.323996,20.1096087 16.323996,18.4033567 C16.323996,16.9691378 17.4819815,15.8039294 18.9084636,15.8039294 C19.2324596,15.8039294 19.5039562,16.0729399 19.5039562,16.4024022 C19.5039562,16.7333758 19.2324596,17.000875 18.9084636,17.000875 C18.1404732,17.000875 17.5149811,17.631085 17.5149811,18.4033567 C17.5149811,19.4491728 18.3609705,20.3015431 19.4064574,20.3015431 C20.7894401,20.3015431 21.9159261,19.1680719 21.9159261,17.7776806 C21.9159261,15.9535476 20.4414445,14.4694559 18.6279672,14.4694559 L18.6279672,14.4694559 L10.8445644,14.4694559 C10.5160685,14.4694559 10.2445719,14.2019567 10.2445719,13.8709831 C10.2445719,13.5400095 10.5160685,13.270999 10.8445644,13.270999 L10.8445644,13.270999 Z M7.36040799,2.5 C9.3283834,2.5 11.1763603,3.29040725 12.5698429,4.72311486 C13.037837,5.20672924 13.4443319,5.75230671 13.7668279,6.34020045 L13.7668279,6.34020045 L13.9078262,6.59712059 L14.1943226,6.54422526 C14.5258184,6.47923958 14.8663142,6.4444798 15.2053099,6.4444798 C16.5207935,6.4444798 17.7192785,6.94018454 18.6612667,7.74570474 L18.6612667,7.74570474 L17.7537781,8.60109768 C17.041287,8.04342984 16.162298,7.70338848 15.2053099,7.70338848 C14.5078187,7.70338848 13.8328271,7.88172129 13.2253347,8.20816099 C12.4378445,5.59966592 10.0588743,3.76041998 7.36040799,3.76041998 C3.97345033,3.76041998 1.21948476,6.59863188 1.21948476,10.0867006 C1.21948476,13.5490773 3.93745078,16.3676424 7.28990888,16.4084473 L7.28990888,16.4084473 L15.0043124,16.4084473 L14.3278209,17.6688673 L7.34840814,17.6688673 C5.38793265,17.6658447 3.54145573,16.8784601 2.15097311,15.4487751 C0.764990438,14.0175787 3.09974268e-12,12.1133471 3.09974268e-12,10.0867006 C3.09974268e-12,8.06156538 0.764990438,6.15582246 2.15097311,4.72311486 C3.54445569,3.29040725 5.39243259,2.5 7.36040799,2.5 Z M21.60303,6.54981705 C22.9245134,6.54981705 24,7.63190423 24,8.95882119 C24,10.5351018 22.720516,11.8181912 21.1530356,11.8181912 L21.1530356,11.8181912 L12.2236472,11.8181912 C11.8951513,11.8181912 11.6296546,11.550692 11.6296546,11.2197184 C11.6296546,10.8887448 11.8951513,10.6227569 12.2236472,10.6227569 L12.2236472,10.6227569 L21.1530356,10.6227569 C22.0665242,10.6227569 22.8075149,9.87466592 22.8075149,8.95882119 C22.8075149,8.29082883 22.2660217,7.74827394 21.60303,7.74827394 C21.2715341,7.74827394 21.0075374,7.47926344 21.0075374,7.14828985 C21.0075374,6.81882755 21.2715341,6.54981705 21.60303,6.54981705 Z" id="path-1"></path>
    </defs>
    <g id="Icons/24px/Weather/Windy" stroke="none" stroke-width="1" fill="none" fill-rule="evenodd">
        <mask id="mask-2" fill="white">
            <use xlink:href="#path-1"></use>
        </mask>
        <use id="Mask" fill="#0C2340" fill-rule="nonzero" xlink:href="#path-1"></use>
        <g id="Group" mask="url(#mask-2)">
            <g transform="translate(0.000000, 0.000000)" id="Color/Grayscale/80%">
                <rect id="Rectangle" fill="#333333" x="0" y="0" width="24" height="24"></rect>
            </g>
        </g>
    </g>
</svg>