<?xml version="1.0" encoding="UTF-8"?>
<svg width="24px" height="24px" viewBox="0 0 24 24" version="1.1" xmlns="http://www.w3.org/2000/svg" xmlns:xlink="http://www.w3.org/1999/xlink">
    <title>Icons/24px/Weather/Wintery mix</title>
    <defs>
        <path d="M17.6892,15.2643822 L20.1477,19.5976926 C20.4222,20.0386733 20.5752,20.5606505 20.5752,21.1111264 C20.5752,22.7070566 19.2852,24 17.6892,24 C16.0947,24 14.8032,22.7070566 14.8032,21.1111264 C14.8032,20.5606505 14.9592,20.0386733 15.2277,19.5976926 L15.2277,19.5976926 L17.6892,15.2643822 Z M9.47775,10.0695095 C9.79875,10.0695095 10.05375,10.331998 10.05375,10.6559838 L10.05375,13.6768516 L12.14625,11.5394451 C12.26625,11.4299499 12.41025,11.3684526 12.56475,11.3684526 C12.71475,11.3684526 12.86325,11.4299499 12.96975,11.5394451 C13.07775,11.6519402 13.13625,11.7929341 13.13625,11.953427 C13.13625,12.1094202 13.07475,12.2564138 12.96675,12.3629091 L10.86525,14.5108152 L13.83675,14.5108152 C14.15625,14.5108152 14.41425,14.7733037 14.41425,15.0957896 C14.41425,15.4167755 14.15625,15.6777641 13.83675,15.6777641 L10.86525,15.6777641 L12.96975,17.8256701 C13.07775,17.9381652 13.13625,18.080659 13.13625,18.2336523 C13.13625,18.3851456 13.07775,18.536639 12.97275,18.6446343 C12.86325,18.7586293 12.71475,18.8216266 12.56475,18.8216266 C12.41025,18.8216266 12.26325,18.7601292 12.14625,18.6461342 L10.05375,16.5102277 L10.05375,19.5355953 C10.05375,19.8565813 9.79875,20.1190698 9.47775,20.1190698 C9.15825,20.1190698 8.90025,19.8565813 8.90025,19.5355953 L8.90025,16.5102277 L6.80475,18.6461342 C6.69375,18.7586293 6.54675,18.8216266 6.38625,18.8216266 C6.23925,18.8216266 6.09075,18.7571294 5.97975,18.6446343 C5.87925,18.536639 5.82075,18.3911454 5.82075,18.2366521 C5.82075,18.0746592 5.87925,17.9351653 5.97675,17.8256701 L8.09175,15.6777641 L5.12025,15.6777641 C4.80075,15.6777641 4.53825,15.4167755 4.53825,15.0957896 C4.53825,14.7733037 4.80075,14.5108152 5.12025,14.5108152 L8.09175,14.5108152 L5.98425,12.3629091 C5.87925,12.2549138 5.82075,12.1124201 5.82075,11.953427 C5.82075,11.7974339 5.87925,11.6549401 5.97975,11.5454449 C6.09075,11.4329498 6.23625,11.3714525 6.38625,11.3714525 C6.54675,11.3714525 6.69375,11.4314499 6.80475,11.5409451 L8.90025,13.6768516 L8.90025,10.6559838 C8.90025,10.331998 9.15825,10.0695095 9.47775,10.0695095 Z M8.5545,-2.93098879e-14 C10.842,-2.93098879e-14 12.987,0.889461086 14.607,2.50189054 C15.1545,3.04786666 15.621,3.66133982 15.999,4.32431081 L15.999,4.32431081 L16.1655,4.61379815 L16.491,4.5508009 C16.878,4.48180392 17.2785,4.44430556 17.6685,4.44430556 C21.1605,4.44430556 24,7.2776816 24,10.765029 C24,12.6279475 23.1795,14.2943746 21.888,15.450824 L21.888,15.450824 L21.0525,14.3063741 C21.99,13.4139131 22.5765,12.1569681 22.5765,10.765029 C22.5765,8.06064735 20.373,5.86024361 17.6685,5.86024361 C16.857,5.86024361 16.0725,6.05673502 15.366,6.42871874 C14.4525,3.4903473 11.6865,1.42043786 8.5545,1.42043786 C4.62,1.42043786 1.4205,4.61529808 1.4205,8.54362622 C1.4205,10.4080446 2.1495,12.0969708 3.3255,13.3674152 L3.3255,13.3674152 L2.508,14.5868618 C2.505,14.5853619 2.505,14.583862 2.502,14.582362 C0.891,12.9684326 0,10.8265263 0,8.54362622 C0,6.26372596 0.891,4.11581993 2.502,2.50189054 C4.119,0.889461086 6.2715,-2.93098879e-14 8.5545,-2.93098879e-14 Z" id="path-1"></path>
    </defs>
    <g id="Icons/24px/Weather/Wintery-mix" stroke="none" stroke-width="1" fill="none" fill-rule="evenodd">
        <mask id="mask-2" fill="white">
            <use xlink:href="#path-1"></use>
        </mask>
        <use id="Mask" fill="#0C2340" fill-rule="nonzero" xlink:href="#path-1"></use>
        <g id="Group" mask="url(#mask-2)" fill="#333333">
            <g id="Color/Grayscale/80%">
                <rect id="Rectangle" x="0" y="0" width="24" height="24"></rect>
            </g>
        </g>
    </g>
</svg>