<?xml version="1.0" encoding="UTF-8"?>
<svg width="24px" height="24px" viewBox="0 0 24 24" version="1.1" xmlns="http://www.w3.org/2000/svg" xmlns:xlink="http://www.w3.org/1999/xlink">
    <title>Icons/24px/Digital/Wrench</title>
    <defs>
        <path d="M19.9723352,8.271 C18.0833352,8.68 15.3123352,5.941 15.7303352,4.029 L19.5003352,0.258 C18.9163352,0.086 18.3123352,1.97175609e-13 17.7083352,1.97175609e-13 C16.1063352,1.97175609e-13 14.5063352,0.607 13.2823352,1.83 C11.9313352,3.181 11.3243352,4.994 11.4613352,6.761 C11.5333352,7.694 11.1923352,8.613 10.5303352,9.275 L0.868335185,18.937 C0.290335185,19.515 0.000335185405,20.274 0.000335185405,21.034 C0.000335185405,22.695 1.36433519,24.035 3.03033519,24 C3.76733519,23.984 4.50033519,23.694 5.06333519,23.132 L14.7263352,13.47 C15.3873352,12.808 16.3073352,12.468 17.2403352,12.539 C19.0073352,12.676 20.8203352,12.068 22.1703352,10.719 C23.3943352,9.494 24.0003352,7.894 24.0003352,6.291 C24.0003352,5.688 23.9143352,5.084 23.7433352,4.5 L19.9723352,8.271 Z M3.00033519,23 C1.89433519,23 1.00033519,22.106 1.00033519,21 C1.00033519,19.894 1.89633519,19 3.00033519,19 C4.10433519,19 5.00033519,19.894 5.00033519,21 C5.00033519,22.106 4.10633519,23 3.00033519,23 Z" id="path-1"></path>
    </defs>
    <g id="Icons/24px/Digital/Wrench" stroke="none" stroke-width="1" fill="none" fill-rule="evenodd">
        <g id="Icon" transform="translate(0.000000, -0.000335)">
            <mask id="mask-2" fill="white">
                <use xlink:href="#path-1"></use>
            </mask>
            <use id="Mask" fill="#333333" fill-rule="nonzero" xlink:href="#path-1"></use>
            <g id="Group" mask="url(#mask-2)">
                <g transform="translate(0.000000, 0.000335)" id="Color/Grayscale/80%">
                    <rect id="Rectangle" fill="#333333" x="0" y="0" width="24" height="24"></rect>
                </g>
            </g>
        </g>
    </g>
</svg>