<svg xmlns="http://www.w3.org/2000/svg" xmlns:xlink="http://www.w3.org/1999/xlink" width="16" height="16"><defs><path id="a" d="M12.136 11.229v1.315h1.319v.6h-1.32v1.315h-.601v-1.315h-1.32v-.6h1.32v-1.315h.602Zm-5.062-4.91a3.917 3.917 0 0 1 3.692 2.616c-1.78.543-3.204 1.667-2.921 4.664H1.337A.333.333 0 0 1 1 13.263V10.23a3.919 3.919 0 0 1 3.924-3.912h2.15ZM5.995 0a2.83 2.83 0 0 1 2.83 2.82 2.83 2.83 0 0 1-5.658 0C3.167 1.267 4.437 0 5.995 0Zm5.84 15.4a2.562 2.562 0 0 1-2.564-2.556 2.563 2.563 0 0 1 5.128 0c0 1.41-1.15 2.556-2.565 2.556M8.67 12.844A3.16 3.16 0 0 0 11.834 16 3.16 3.16 0 0 0 15 12.844a3.161 3.161 0 0 0-3.166-3.157 3.161 3.161 0 0 0-3.165 3.157Z"/></defs><g fill="none" fill-rule="evenodd"><mask id="b" fill="#fff"><use xlink:href="#a"/></mask><use xlink:href="#a" fill="#0C2340" fill-rule="nonzero"/></g></svg>