<svg xmlns="http://www.w3.org/2000/svg" xmlns:xlink="http://www.w3.org/1999/xlink" width="16" height="16"><defs><path id="a" d="M5.12.8h5.772l.497 3.608c-.531.048-2.272.504-2.4.536-2.951.712-4.023-.128-4.358-.544l.49-3.6Zm7.341 5.128v-.032L11.698.352C11.672.152 11.492 0 11.27 0H4.743a.432.432 0 0 0-.429.352l-.78 5.696c-.086.72-.009 1.36.24 1.904.626 1.384 2.092 2.304 3.8 2.44v2.568c-1.716.064-3.414.544-3.414 1.512C4.16 15.52 6.15 16 8.002 16c1.844 0 3.833-.48 3.833-1.528 0-.968-1.69-1.44-3.404-1.512v-2.568c1.526-.12 2.838-.864 3.576-2.056.412-.672.575-1.512.454-2.408Z"/></defs><g fill="none" fill-rule="evenodd"><mask id="b" fill="#fff"><use xlink:href="#a"/></mask><use xlink:href="#a" fill="#0C2340" fill-rule="nonzero"/></g></svg>