<svg xmlns="http://www.w3.org/2000/svg" xmlns:xlink="http://www.w3.org/1999/xlink" width="16" height="16"><defs><path id="a" d="M9.534 0a.4.4 0 0 1 .398.4v1.632h2.114c.525 0 .954.432.954.968v10.728c0 .536-.43.968-.954.968h-.66a.73.73 0 0 1 .024.184c0 .616-.493 1.12-1.105 1.12A1.113 1.113 0 0 1 9.2 14.88a.73.73 0 0 1 .024-.184H6.601a.73.73 0 0 1 .024.184c0 .616-.493 1.12-1.105 1.12a1.113 1.113 0 0 1-1.105-1.12.73.73 0 0 1 .024-.184h-.485A.962.962 0 0 1 3 13.728V3c0-.536.43-.968.954-.968h2.114V.4a.4.4 0 0 1 .398-.4Zm1.01 14.696h-.477a.311.311 0 0 0-.072.184c0 .176.143.32.31.32s.31-.144.31-.32a.311.311 0 0 0-.071-.184Zm-4.786 0h-.477a.311.311 0 0 0-.071.184c0 .176.143.32.31.32.175 0 .31-.144.31-.32a.311.311 0 0 0-.072-.184Zm4.46-11.16a.4.4 0 0 0-.398.4v8.856a.4.4 0 0 0 .398.4.395.395 0 0 0 .397-.4V3.936c0-.224-.175-.4-.397-.4ZM8 3.536a.395.395 0 0 0-.397.4v8.856c0 .224.174.4.397.4a.4.4 0 0 0 .397-.4V3.936a.4.4 0 0 0-.397-.4Zm-2.218 0a.395.395 0 0 0-.397.4v8.856c0 .224.175.4.397.4a.4.4 0 0 0 .398-.4V3.936a.4.4 0 0 0-.398-.4ZM9.137.8H6.863v1.232h2.274V.8Z"/></defs><g fill="none" fill-rule="evenodd"><mask id="b" fill="#fff"><use xlink:href="#a"/></mask><use xlink:href="#a" fill="#0C2340" fill-rule="nonzero"/></g></svg>