<svg xmlns="http://www.w3.org/2000/svg" xmlns:xlink="http://www.w3.org/1999/xlink" width="16" height="16"><defs><path id="a" d="M12.667.667c.333 0 .666.333.666.666v7c0 .334-.333.667-.666.667-.334 0-.667-.333-.667-.667v-7c0-.333.333-.666.667-.666ZM9.667 4c.333 0 .666.333.666.667v3.666c0 .334-.333.667-.666.667C9.333 9 9 8.667 9 8.333V4.667C9 4.333 9.333 4 9.667 4Zm-3-2c.333 0 .666.333.666.667v5.666C7.333 8.667 7 9 6.667 9 6.333 9 6 8.667 6 8.333V2.667C6 2.333 6.333 2 6.667 2Zm-3 4c.333 0 .666.333.666.667v1.666C4.333 8.667 4 9 3.667 9 3.333 9 3 8.667 3 8.333V6.667C3 6.333 3.333 6 3.667 6Zm11.666 4.667h-14v-10C1.333.333 1 0 .667 0 .333 0 0 .333 0 .667v10C0 11.333.667 12 1.333 12h14c.334 0 .667-.333.667-.667 0-.333-.333-.666-.667-.666Z"/></defs><g fill="none" fill-rule="evenodd" transform="translate(0 2)"><mask id="b" fill="#fff"><use xlink:href="#a"/></mask><use xlink:href="#a" fill="#0C2340" fill-rule="nonzero"/></g></svg>