<svg xmlns="http://www.w3.org/2000/svg" xmlns:xlink="http://www.w3.org/1999/xlink" width="16" height="16"><defs><path id="a" d="M3.362 3.288h3.456c-.303.392-.51.856-.582 1.368H4.723L3.362 3.288ZM8.88 2.192c-.39.024-.757.128-1.083.296H4.875A2.088 2.088 0 0 1 6.92.8c.9 0 1.672.576 1.959 1.392Zm2.245 2.464H7.033a2.095 2.095 0 0 1 2.046-1.688c1.02 0 1.863.728 2.046 1.688Zm-1.489 5.536-.103 2.168-.319.184-.493-1.824-1.378.8-.295.696-.318.184.072-1.12-.996-.488.319-.184.788.088L8.26 9.92 6.937 8.576l.318-.184 1.92 1 2.086-1.216a.46.46 0 0 1 .629.176.467.467 0 0 1-.167.632l-2.087 1.208Zm3.002-5.536h-.716a2.782 2.782 0 0 0-.406-1.128l1.122 1.128Zm1.243.12-2.158-2.168a.39.39 0 0 0-.295-.12h-1.06a2.664 2.664 0 0 0-.652-.24A2.876 2.876 0 0 0 6.921 0C5.464 0 4.277 1.088 4.078 2.488h-1.68c-.263 0-.398.232-.398.4v10.544c0 .12.048.216.135.296l2.142 2.152c.067.079.166.12.28.12h9.045a.395.395 0 0 0 .398-.4V5.056a.372.372 0 0 0-.12-.28Z"/></defs><g fill="none" fill-rule="evenodd"><mask id="b" fill="#fff"><use xlink:href="#a"/></mask><use xlink:href="#a" fill="#0C2340" fill-rule="nonzero"/></g></svg>