<svg xmlns="http://www.w3.org/2000/svg" xmlns:xlink="http://www.w3.org/1999/xlink" width="16" height="16"><defs><path id="a" d="M15 5.61v9.904a.488.488 0 0 1-.492.486H1.5A.49.49 0 0 1 1 15.514V5.61h14ZM5.779 11.01h-1.45a.328.328 0 0 0-.329.326v1.433c0 .173.148.32.33.32h1.449a.326.326 0 0 0 .323-.32v-1.433a.327.327 0 0 0-.323-.326Zm2.993 0H7.331a.33.33 0 0 0-.331.326v1.433c0 .173.149.32.33.32h1.442c.182 0 .33-.147.33-.32v-1.433a.328.328 0 0 0-.33-.326Zm3.008 0h-1.442a.328.328 0 0 0-.33.326v1.433c0 .173.148.32.33.32h1.442c.182 0 .33-.147.33-.32v-1.433a.33.33 0 0 0-.33-.326ZM5.779 7.55h-1.45c-.181 0-.329.14-.329.32v1.432c0 .18.148.32.33.32h1.449c.175 0 .323-.14.323-.32V7.87c0-.18-.148-.32-.323-.32Zm2.993 0H7.331c-.182 0-.331.14-.331.32v1.432c0 .18.149.32.33.32h1.442c.182 0 .33-.14.33-.32V7.87c0-.18-.148-.32-.33-.32Zm3.008 0h-1.442c-.182 0-.33.14-.33.32v1.432c0 .18.148.32.33.32h1.442c.182 0 .33-.14.33-.32V7.87c0-.18-.148-.32-.33-.32ZM3.817 1.165v1.973c0 .64.526 1.166 1.18 1.166.653 0 1.178-.526 1.178-1.166V1.165h3.65v1.973c0 .64.525 1.166 1.18 1.166.653 0 1.178-.526 1.178-1.166V1.165h2.325c.27 0 .492.22.492.494V4.63H1V1.659c0-.274.222-.494.499-.494h2.318ZM10.5.505c0-.673 1.01-.673 1.01 0v2.473a.506.506 0 0 1-1.01 0Zm-6.009 0c0-.659 1.01-.659 1.01 0v2.473a.506.506 0 0 1-1.01 0Z"/></defs><g fill="none" fill-rule="evenodd"><mask id="b" fill="#fff"><use xlink:href="#a"/></mask><use xlink:href="#a" fill="#0C2340" fill-rule="nonzero"/></g></svg>