<svg xmlns="http://www.w3.org/2000/svg" xmlns:xlink="http://www.w3.org/1999/xlink" width="16" height="16"><defs><path id="a" d="M12.06 12.076a.521.521 0 0 1-.738 0L8 8.753l-3.322 3.323a.521.521 0 0 1-.738-.738L7.28 8 3.94 4.662a.521.521 0 1 1 .738-.738L8 7.247l3.322-3.323a.521.521 0 0 1 .738.738L8.72 8l3.339 3.338a.521.521 0 0 1 0 .738ZM8 0a8 8 0 1 0 0 16A8 8 0 0 0 8 0Z"/></defs><g fill="none" fill-rule="evenodd"><mask id="b" fill="#fff"><use xlink:href="#a"/></mask><use xlink:href="#a" fill="#000"/></g></svg>