<svg xmlns="http://www.w3.org/2000/svg" xmlns:xlink="http://www.w3.org/1999/xlink" width="16" height="16"><defs><path id="a" d="m1.786 3.33 2.456 2.457h3.04L9.74 3.33a.851.851 0 0 1 1.116-.076l.087.076c.305.305.33.783.077 1.117l-.077.087L8.145 7.33l.001 7.818a.851.851 0 0 1-1.695.107l-.007-.107v-3.575H5.08l.001 3.575a.851.851 0 0 1-.744.844L4.23 16a.851.851 0 0 1-.844-.744l-.007-.107v-7.82L.582 4.535A.851.851 0 1 1 1.786 3.33ZM5.763 0a2.383 2.383 0 1 1 0 4.766 2.383 2.383 0 0 1 0-4.766Z"/></defs><g fill="none" fill-rule="evenodd" transform="translate(2)"><mask id="b" fill="#fff"><use xlink:href="#a"/></mask><use xlink:href="#a" fill="#0C2340" fill-rule="nonzero"/></g></svg>