<svg xmlns="http://www.w3.org/2000/svg" xmlns:xlink="http://www.w3.org/1999/xlink" width="16" height="16"><defs><path id="a" d="m3.939 2.582.088.026L7.038 3.75c.335.126.335.126.243.516-.113.414-1.036 3.906-1.716 4.86-.554.777-1.33 1.34-2.123 1.859l-.265.17-1.1 3.17c0 .01-.009.01-.009.018.624.304 1.028.702.94.947-.05.135-.252.211-.535.211-.308 0-.72-.085-1.15-.245-.833-.321-1.416-.812-1.31-1.108.048-.143.242-.21.534-.21.168 0 .373.02.597.073l.171.044v-.016l1.101-3.18c-.323-1.03-.64-2.079-.574-3.152.072-1.184 1.505-4.48 1.675-4.87.142-.304.155-.331.422-.254Zm8.122 0c.267-.077.28-.05.422.254.17.39 1.603 3.686 1.675 4.87.065 1.073-.25 2.122-.574 3.153l1.1 3.179v.016l.172-.044c.224-.052.43-.074.597-.074.292 0 .486.068.535.211.105.296-.478.787-1.312 1.108-.429.16-.841.245-1.149.245-.283 0-.486-.076-.534-.211-.09-.245.315-.643.939-.947 0-.009-.008-.009-.008-.017l-1.101-3.17-.265-.171c-.793-.518-1.57-1.082-2.123-1.858-.68-.955-1.603-4.447-1.716-4.86-.092-.391-.092-.391.243-.517l3.01-1.14ZM4.1 3.538c-.146.338-.72 1.792-.826 2.063.656.515 1.093.54 1.644.507.242-.017.906.05.963.06.081-.257.387-1.294.494-1.673l.024-.086-2.299-.87Zm7.8 0-2.299.87.024.087c.107.38.413 1.416.494 1.672.057-.008.72-.076.963-.059.55.034.988.008 1.644-.507-.106-.27-.68-1.725-.826-2.063Zm-5.161-2.41a.329.329 0 0 1 .003.005l.675 1.195a.333.333 0 0 1-.121.45l-.007.005a.329.329 0 0 1-.454-.122l-.674-1.195a.333.333 0 0 1 .12-.45l.008-.005a.329.329 0 0 1 .45.116Zm2.967-.12a.329.329 0 0 1 .005.003l.008.005c.156.092.21.292.12.45l-.674 1.195a.329.329 0 0 1-.454.122l-.007-.004a.333.333 0 0 1-.12-.451l.674-1.195a.329.329 0 0 1 .448-.125ZM8 .5c.184 0 .333.15.333.333v1.38a.333.333 0 1 1-.666 0V.832C7.667.65 7.816.5 8 .5Z"/></defs><g fill="none" fill-rule="evenodd"><mask id="b" fill="#fff"><use xlink:href="#a"/></mask><use xlink:href="#a" fill="#0C2340" fill-rule="nonzero"/></g></svg>