<svg xmlns="http://www.w3.org/2000/svg" xmlns:xlink="http://www.w3.org/1999/xlink" width="16" height="16"><defs><path id="a" d="M13.5 13a1.5 1.5 0 1 1 0 3 1.5 1.5 0 0 1 0-3Zm-11 0a1.5 1.5 0 1 1 0 3 1.5 1.5 0 0 1 0-3ZM14.667 0C15.403 0 16 .597 16 1.333v9.334c0 .736-.597 1.333-1.333 1.333H1.333A1.333 1.333 0 0 1 0 10.667V1.333C0 .597.597 0 1.333 0h13.334ZM8 1.573l-.071.004a.653.653 0 0 0-.582.65V5.35H4.223a.653.653 0 0 0-.653.653l.004.072a.653.653 0 0 0 .65.582h3.123V9.78c0 .36.292.653.653.653l.071-.004a.653.653 0 0 0 .582-.649V6.656h3.124c.36 0 .653-.292.653-.653l-.004-.07a.653.653 0 0 0-.65-.583H8.654V2.227A.653.653 0 0 0 8 1.573Z"/></defs><g fill="none" fill-rule="evenodd"><mask id="b" fill="#fff"><use xlink:href="#a"/></mask><use xlink:href="#a" fill="#D8D8D8"/></g></svg>