<svg xmlns="http://www.w3.org/2000/svg" xmlns:xlink="http://www.w3.org/1999/xlink" width="16" height="16"><defs><path id="a" d="M16 6.812v4.714c0 1.09-.896 1.974-2 1.974H2c-1.104 0-2-.884-2-1.974V6.812h16ZM5.2 7.996H2c-.216 0-.4.174-.4.395 0 .221.184.395.4.395h3.2c.216 0 .4-.174.4-.395a.399.399 0 0 0-.4-.395ZM14 2.5c1.104 0 2 .892 2 1.982v.75H0v-.75C0 3.392.896 2.5 2 2.5Z"/></defs><g fill="none" fill-rule="evenodd"><mask id="b" fill="#fff"><use xlink:href="#a"/></mask><use xlink:href="#a" fill="#0C2340" fill-rule="nonzero"/></g></svg>