<svg xmlns="http://www.w3.org/2000/svg" xmlns:xlink="http://www.w3.org/1999/xlink" width="16" height="16"><defs><path id="a" d="M10.774 0v3.936c.04.176.192.32.391.32H15V15.6c0 .224-.175.4-.399.4H1.4A.395.395 0 0 1 1 15.6V.4c0-.224.175-.4.399-.4h9.375ZM8 5.333a.323.323 0 0 0-.316.33v5.232L5.532 8.757a.303.303 0 0 0-.39-.035l-.056.05a.347.347 0 0 0 .013.47l2.685 2.667c.121.121.31.121.432 0l2.685-2.666a.347.347 0 0 0 .013-.471.304.304 0 0 0-.446-.015l-2.153 2.137V5.663a.327.327 0 0 0-.251-.323ZM11.564.24l3.213 3.216h-3.213V.24Z"/></defs><g fill="none" fill-rule="evenodd"><mask id="b" fill="#fff"><use xlink:href="#a"/></mask><use xlink:href="#a" fill="#0C2340" fill-rule="nonzero"/></g></svg>