<svg xmlns="http://www.w3.org/2000/svg" xmlns:xlink="http://www.w3.org/1999/xlink" width="16" height="16"><defs><path id="a" d="M15.333 14.667a.667.667 0 1 1 0 1.333H.667a.667.667 0 1 1 0-1.333h14.666ZM8 0c.368 0 .667.295.667.66l-.001 10.464 4.544-4.276a.667.667 0 1 1 .914.97l-5.667 5.334a.667.667 0 0 1-.914 0L1.876 7.82a.667.667 0 0 1 .914-.971l4.543 4.275V.659C7.333.295 7.632 0 8 0Z"/></defs><g fill="none" fill-rule="evenodd"><mask id="b" fill="#fff"><use xlink:href="#a"/></mask><use xlink:href="#a" fill="#0C2340" fill-rule="nonzero"/></g></svg>