<svg xmlns="http://www.w3.org/2000/svg" xmlns:xlink="http://www.w3.org/1999/xlink" width="16" height="16"><defs><path id="a" d="M1.5 0a1.5 1.5 0 1 0 0 3 1.5 1.5 0 0 0 0-3ZM8 0a1.5 1.5 0 1 0 0 3 1.5 1.5 0 0 0 0-3Zm0 6.5a1.5 1.5 0 1 0 0 3 1.5 1.5 0 0 0 0-3ZM14.5 0a1.5 1.5 0 1 0 0 3 1.5 1.5 0 0 0 0-3Zm0 6.5a1.5 1.5 0 1 0 0 3 1.5 1.5 0 0 0 0-3Zm0 6.5a1.5 1.5 0 1 0 0 3 1.5 1.5 0 0 0 0-3Z"/></defs><g fill="none" fill-rule="evenodd"><mask id="b" fill="#fff"><use xlink:href="#a"/></mask><use xlink:href="#a" fill="#7C878E"/></g></svg>