<svg xmlns="http://www.w3.org/2000/svg" xmlns:xlink="http://www.w3.org/1999/xlink" width="16" height="16"><defs><path id="a" d="M5.682 10.728a.337.337 0 0 1-.378-.379c.211-1.458.335-2.204.37-2.239l5.451-5.467a.335.335 0 0 1 .476 0l1.765 1.77a.338.338 0 0 1 0 .476l-5.452 5.468a158.47 158.47 0 0 1-2.232.371Zm10.22-8.859a.338.338 0 0 1 0 .477l-1.296 1.299a.335.335 0 0 1-.475 0l-1.766-1.77a.338.338 0 0 1 0-.477l1.296-1.3a.335.335 0 0 1 .475 0l1.766 1.771Zm-3.425 8.907a.668.668 0 1 1 1.333 0v4.555c0 .37-.299.669-.667.669H.667A.668.668 0 0 1 0 15.331V2.875c0-.369.298-.668.667-.668h4.58a.668.668 0 0 1 0 1.337H1.332v11.119h11.144v-3.887Z"/></defs><g fill="none" fill-rule="evenodd"><mask id="b" fill="#fff"><use xlink:href="#a"/></mask><use xlink:href="#a" fill="#0C2340" fill-rule="nonzero"/></g></svg>