<svg xmlns="http://www.w3.org/2000/svg" xmlns:xlink="http://www.w3.org/1999/xlink" width="16" height="16"><defs><path id="a" d="M10.232 11.203a.4.4 0 0 1 .41.398c0 .216-.18.399-.41.399H.41a.406.406 0 0 1-.41-.399.4.4 0 0 1 .41-.398ZM15.598 4l.385 2.933c.05.39-.008.796-.205 1.139-.286.482-.79.843-1.427.953v1.844c.875.143 1.313.32 1.313.533 0 .327-.772.58-1.723.58-.952 0-1.724-.253-1.724-.58 0-.212.438-.39 1.313-.533V9.025c-.712-.122-1.277-.559-1.526-1.137-.124-.279-.14-.59-.107-.892L12.291 4h3.307ZM5.358 5.849a.4.4 0 0 1 .41.398v.35c1.978.16 3.692 1.419 4.349 3.251 0 .009.27.567-.378.567H.985c-.61 0-.377-.567-.377-.567.656-1.832 2.37-3.09 4.34-3.25v-.351c0-.223.188-.398.41-.398Z"/></defs><g fill="none" fill-rule="evenodd"><mask id="b" fill="#fff"><use xlink:href="#a"/></mask><use xlink:href="#a" fill="#0C2340" fill-rule="nonzero"/></g></svg>