<svg xmlns="http://www.w3.org/2000/svg" xmlns:xlink="http://www.w3.org/1999/xlink" width="16" height="16"><defs><path id="a" d="m10.729 9.545 1.816 3.202a2.136 2.136 0 1 1-3.638 0l1.822-3.202Zm-6.037 2.078a1.474 1.474 0 1 1 0 2.95 1.474 1.474 0 0 1 0-2.95ZM5.702 0c1.525 0 2.957.594 4.033 1.667.369.365.678.773.93 1.214l.109.193.221-.04A4.223 4.223 0 0 1 16 7.173a4.205 4.205 0 0 1-2.203 3.69l-.492-.774.014-.037a3.261 3.261 0 0 0 1.734-2.88 3.275 3.275 0 0 0-4.808-2.889A4.776 4.776 0 0 0 5.702.947 4.756 4.756 0 0 0 .946 5.694c0 1.602.804 3.02 2.027 3.878l-.394.884a5.747 5.747 0 0 1-.909-.74A5.65 5.65 0 0 1 0 5.695a5.66 5.66 0 0 1 1.67-4.027A5.679 5.679 0 0 1 5.702 0Zm1.146 6.093a2.04 2.04 0 1 1-.003 4.08 2.04 2.04 0 0 1 .003-4.08Z"/></defs><g fill="none" fill-rule="evenodd"><mask id="b" fill="#fff"><use xlink:href="#a"/></mask><use xlink:href="#a" fill="#0C2340" fill-rule="nonzero"/></g></svg>