<svg xmlns="http://www.w3.org/2000/svg" xmlns:xlink="http://www.w3.org/1999/xlink" width="16" height="16"><defs><path id="a" d="M5.034 0c1.103 0 1.961.927 1.961 1.977 0 .432-.122.803-.368 1.112h.552c.735 0 1.557.464 1.586 1.227.016.16.063 4.639.068 5.098v.038c0 .37-.122.68-.367.926a1.457 1.457 0 0 1-.858.31h-.123c-.122 0-.245-.063-.306-.063v4.14c0 .68-.552 1.235-1.226 1.235-.674 0-1.225-.309-1.225-1.112v-4.819l.122-.123h.49v4.818c0 .372.246.618.613.618a.616.616 0 0 0 .613-.618V6.116h.368V9.39c0 .309.184.618.551.618h.062a.554.554 0 0 0 .428-.186.562.562 0 0 0 .184-.432V4.695l-.006-.193c-.062-.433-.484-.795-.974-.795h-4.29c-.55 0-.98.432-.98.926v.803c-.184.062-.306.186-.429.31-.061.06-.122.185-.184.246V4.633c0-.803.736-1.544 1.594-1.544h.551a1.734 1.734 0 0 1-.368-1.112C3.073.865 3.931 0 5.034 0Zm.062 7.784c.061 0 .184 0 .306.124a.474.474 0 0 1 .123.308.475.475 0 0 1-.123.31L4.115 9.822v5.498c0 .123-.05.494-.49.494-.454 0-.49-.37-.49-.494v-2.348H2.89v2.348c0 .123-.05.494-.49.494-.46 0-.49-.37-.49-.494V9.823L.622 8.525A.475.475 0 0 1 .5 8.216c0-.123.061-.247.123-.308.284-.275.674.061.674.061l.612.433.613.494h.858l1.41-.988a.638.638 0 0 1 .306-.124ZM3.003 5.869A1.263 1.263 0 0 1 4.29 7.166a1.263 1.263 0 0 1-1.287 1.297 1.263 1.263 0 0 1-1.287-1.297 1.263 1.263 0 0 1 1.287-1.297ZM5.034.618c-.735 0-1.348.618-1.348 1.359S4.3 3.336 5.034 3.336c.736 0 1.348-.618 1.348-1.36 0-.74-.612-1.358-1.348-1.358Z"/></defs><g fill="none" fill-rule="evenodd" transform="translate(3.333)"><mask id="b" fill="#fff"><use xlink:href="#a"/></mask><use xlink:href="#a" fill="#333" fill-rule="nonzero"/></g></svg>