<svg xmlns="http://www.w3.org/2000/svg" xmlns:xlink="http://www.w3.org/1999/xlink" width="16" height="16"><defs><path id="a" d="M4.088 9.477c.224 0 .4.177.4.403v4.717a.402.402 0 0 1-.4.403H2.24c-.267 0-.4-.18-.4-.54H.4a.402.402 0 0 1-.4-.402V10.42c0-.225.176-.402.4-.402h1.44c0-.36.133-.54.4-.54Zm9.664 0c.267 0 .4.18.4.54H15.6c.216 0 .4.177.4.402v3.64a.408.408 0 0 1-.4.402h-1.448c0 .36-.133.539-.4.539h-1.848a.402.402 0 0 1-.4-.403V9.88c0-.226.176-.403.4-.403ZM8 1c2.472 0 4.544 1.03 5.784 2.697.824 1.095 1.288 2.455 1.288 3.993 0 .137-.008.274-.016.419a.409.409 0 0 1-.432.37.415.415 0 0 1-.368-.435c.006-.08.011-.198.016-.354 0-1.586-.568-2.97-1.552-3.993C11.608 2.513 9.944 1.805 8 1.805c-1.952 0-3.608.708-4.728 1.892C2.296 4.719 1.72 6.104 1.72 7.69c0 .113.008.233.016.354a.415.415 0 0 1-.368.435h-.032a.402.402 0 0 1-.4-.37C.928 7.964.92 7.827.92 7.69c0-1.538.464-2.898 1.288-3.993C3.456 2.03 5.52 1 8 1Z"/></defs><g fill="none" fill-rule="evenodd"><mask id="b" fill="#fff"><use xlink:href="#a"/></mask><use xlink:href="#a" fill="#0C2340" fill-rule="nonzero"/></g></svg>