<svg xmlns="http://www.w3.org/2000/svg" xmlns:xlink="http://www.w3.org/1999/xlink" width="16" height="16"><defs><path id="a" d="M7.716 3.623c.28-.186.28-.186.566.007l.086.057.1.066c.6.4 2.555 1.699 5.864 3.894.234.17.234.17.234.43v7.404a.512.512 0 0 1-.506.519h-3.845a.518.518 0 0 1-.513-.519v-5H6.29v5a.514.514 0 0 1-.513.519H1.939a.514.514 0 0 1-.513-.519V7.995c.004-.167.03-.187.233-.348Zm0-2.493c.28-.174.28-.174.566.007.19.12 2.683 1.774 7.476 4.959.24.157.32.486.154.724-.187.266-.454.266-.706.157l-7.21-4.781-7.21 4.781C.54 7.06.234 7.06.08 6.82a.537.537 0 0 1 .153-.724L2.5 4.593v-3.02c0-.293.226-.525.513-.525h2.552c.28 0 .506.232.506.526v.65Z"/></defs><g fill="none" fill-rule="evenodd"><mask id="b" fill="#fff"><use xlink:href="#a"/></mask><use xlink:href="#a" fill="#0C2340" fill-rule="nonzero"/></g></svg>