<svg xmlns="http://www.w3.org/2000/svg" xmlns:xlink="http://www.w3.org/1999/xlink" width="16" height="16"><defs><path id="a" d="m3.348 3.36 2.044 9.199c.445 1.424 1.149 2.054 2.186 2.054h3.976c.377 0 .683.31.683.693a.688.688 0 0 1-.683.694H7.578c-1.687 0-2.874-1.062-3.502-3.078L2.017 3.666a.694.694 0 0 1 .515-.83.682.682 0 0 1 .816.524Zm2.546.244a1.36 1.36 0 0 1 1.615 1.06l.758 3.432h3.767c.372 0 .698.193.89.486.128.156.482 1.53 1.062 4.122a.851.851 0 0 1-.671.991.838.838 0 0 1-.975-.682l-.732-2.744H7.075a1.373 1.373 0 0 1-1.363-1.092L4.85 5.246a1.382 1.382 0 0 1 1.044-1.642Zm1.617 7.407 2.3.066c.526.015.994.337 1.194.824l.206.497a.939.939 0 0 1-.868 1.297H7.866c-.6 0-1.126-.4-1.285-.978l-.106-.384A1.044 1.044 0 0 1 7.51 11.01ZM4.098 1.313A1.522 1.522 0 0 1 5.828.018c.831.128 1.399.918 1.273 1.76A1.521 1.521 0 0 1 5.369 3.07a1.538 1.538 0 0 1-1.271-1.757Z"/></defs><g fill="none" fill-rule="evenodd"><mask id="b" fill="#fff"><use xlink:href="#a"/></mask><use xlink:href="#a" fill="#0C2340" fill-rule="nonzero"/></g></svg>