<svg xmlns="http://www.w3.org/2000/svg" xmlns:xlink="http://www.w3.org/1999/xlink" width="16" height="16"><defs><path id="a" d="M4 15.618c0 .21.178.382.398.382h7.182a.391.391 0 0 0 .398-.382v-1.03a.387.387 0 0 0-.394-.38h-7.19a.387.387 0 0 0-.394.38v1.03ZM6.85 7.9a.39.39 0 0 1-.398-.38c0-.214.175-.381.398-.381h2.278a.39.39 0 0 1 .398.38c0 .206-.183.381-.398.381H6.85Zm-2.198 5.548h6.664v-7.07H4.652v7.07Zm5.527-9.13a.35.35 0 0 1-.357.34H6.267a.354.354 0 0 1-.355-.34v-2.56c0-.19.163-.34.355-.34h3.555c.2 0 .357.15.357.34v2.56Zm1.402 1.297c.214 0 .39-.166.4-.37.035-.774.021-3.203-.035-4.308-.008-.168-.135-.305-.303-.35C10.052.19 8.881 0 8.061 0c-.829 0-2.007.19-3.615.586a.394.394 0 0 0-.303.35c-.056 1.052-.07 3.526-.033 4.309.01.204.185.37.399.37h7.072Z"/></defs><g fill="none" fill-rule="evenodd"><mask id="b" fill="#fff"><use xlink:href="#a"/></mask><use xlink:href="#a" fill="#0C2340" fill-rule="nonzero"/></g></svg>