<svg xmlns="http://www.w3.org/2000/svg" xmlns:xlink="http://www.w3.org/1999/xlink" width="16" height="16"><defs><path id="a" d="M11.983 6.157 8.82 9.467h3.397L3.623 16l3.783-4.997-3.195.001 3.8-4.847h3.972ZM5.703 0a5.67 5.67 0 0 1 4.032 1.669c.367.365.679.774.931 1.214l.108.194.222-.041A4.223 4.223 0 0 1 16 7.179a4.2 4.2 0 0 1-1.728 3.39l-.493-.814a3.254 3.254 0 0 0 1.272-2.576 3.274 3.274 0 0 0-4.805-2.891A4.779 4.779 0 0 0 5.703.948 4.757 4.757 0 0 0 .947 5.696c0 1.473.68 2.782 1.733 3.653l-.627.72A5.651 5.651 0 0 1 0 5.696c0-1.52.592-2.951 1.67-4.027A5.673 5.673 0 0 1 5.703 0Z"/></defs><g fill="none" fill-rule="evenodd"><mask id="b" fill="#fff"><use xlink:href="#a"/></mask><use xlink:href="#a" fill="#0C2340" fill-rule="nonzero"/></g></svg>