<svg xmlns="http://www.w3.org/2000/svg" xmlns:xlink="http://www.w3.org/1999/xlink" width="16" height="16"><defs><path id="a" d="M15.584 2c.232 0 .416.181.416.42v9.56c0 .23-.184.42-.416.42H8.408v1.76h1.488c.224 0 .408.19.408.42 0 .23-.184.42-.408.42h-3.8a.416.416 0 0 1-.408-.42c0-.23.184-.42.408-.42h1.488V12.4H.408A.416.416 0 0 1 0 11.98V2.42A.41.41 0 0 1 .408 2Zm-3.911 2.524a.396.396 0 0 0-.545-.038.389.389 0 0 0-.03.546 3.16 3.16 0 0 1 0 4.201.38.38 0 0 0 .284.635.39.39 0 0 0 .291-.127 3.904 3.904 0 0 0 .994-2.609c0-.964-.351-1.89-.994-2.608Zm-6.006.213c-1.289 0-2.334 1.072-2.334 2.395 0 1.322 1.045 2.394 2.334 2.394C6.955 9.526 8 8.454 8 7.132c0-1.323-1.045-2.395-2.333-2.395Zm3.987.476a.364.364 0 0 0-.52-.045.387.387 0 0 0-.043.541c.318.399.498.903.498 1.422 0 .519-.18 1.023-.498 1.414a.393.393 0 0 0 .043.541.326.326 0 0 0 .238.098c.102 0 .21-.045.282-.135.434-.534.68-1.219.68-1.918 0-.7-.246-1.376-.68-1.918Zm-4.254.62 1.333 1.026a.348.348 0 0 1 0 .547L5.4 8.432c-.22.17-.533.008-.533-.273V6.106c0-.282.313-.443.533-.274Z"/></defs><g fill="none" fill-rule="evenodd"><mask id="b" fill="#fff"><use xlink:href="#a"/></mask><use xlink:href="#a" fill="#0C2340" fill-rule="nonzero"/></g></svg>