<svg xmlns="http://www.w3.org/2000/svg" xmlns:xlink="http://www.w3.org/1999/xlink" width="16" height="16"><defs><path id="a" d="M6.667.002c2-.002 4 1.771 4 3.998v1.333H12c.667 0 1.333.667 1.333 1.334V14c0 .667-.666 1.333-1.333 1.333H1.333C.515 15.333 0 14.667 0 14V6.667C0 6 .667 5.333 1.333 5.333h1.334V4c0-2.227 2-3.996 4-3.998Zm0 1.998c-1 0-2 .889-2 2v1.333h4V4c0-1.111-1-2-2-2Z"/></defs><g fill="none" fill-rule="evenodd" transform="translate(1.333 .667)"><mask id="b" fill="#fff"><use xlink:href="#a"/></mask><use xlink:href="#a" fill="#0C2340" fill-rule="nonzero"/></g></svg>