<svg xmlns="http://www.w3.org/2000/svg" xmlns:xlink="http://www.w3.org/1999/xlink" width="16" height="16"><defs><path id="a" d="M8 0c4.416 0 8 3.584 8 8s-3.584 8-8 8c-4.424 0-8-3.584-8-8s3.576-8 8-8Zm2.12 14.64c-.32.04-.616.072-.856.2-.088.04-.152.136-.24.16-.056.008-.136-.032-.192-.024-.12.016-.296.136-.464.216a7.198 7.198 0 0 0 2.128-.44.175.175 0 0 0-.176.008c0-.112-.192-.024-.2-.12Zm-4.744-.6c-.08-.184-.496-.104-.48.16.008.088.064.08.08.2-.088-.04-.104-.16-.224-.176.056-.04.048-.136-.04-.144-.088-.016-.032.112-.072.144-.104 0-.096-.024-.184 0 0 .016.008.032.016.048.048.032.096.056.144.08.032 0 .072-.008.096-.032.024.04.04.072.04.104.104.056.216.104.328.152h.016c.04.008-.008-.056-.024-.056.04-.056.088.056.104.096.248.112.512.208.776.288-.304-.184-.528-.456-.816-.664-.008-.152.12-.168.24-.2Zm-.88-12.328a7.34 7.34 0 0 0-1.288.912c.048.112.056.328-.104.336a.269.269 0 0 1-.024-.208 7.046 7.046 0 0 0-1.952 3.112c.04.072.096.152.112.232.016.08-.024.128-.016.2.024.232.208.264.416.416.096.024.08-.056.152-.056.064.264.448.2.464.512.04.064.128.08.136.184.104-.024.096.072.216.08.04-.032.008-.128.08-.12.104.08.112.264.104.456-.08.176-.32.44-.144.632-.152.16.008.416.144.48.072.288.184.536.352.728.168.04.232.168.32.28 0 .424.056.792.096 1.152.032.2-.04.4-.032.6.008.272.208.44.176.736-.032 0-.08-.008-.08.016-.032.12.08.096.096.16.088.288.152.6.424.696.056.008.008-.096.056-.096.024-.056.008.168-.056.16.088.12.352.192.512.136-.176-.128-.336-.272-.432-.48.056-.088.104-.184.152-.272-.008-.096-.112-.104-.152-.16-.016-.088.088-.048.12-.08-.032-.032-.024-.104-.024-.16.024-.032.096-.008.096-.064.016-.096-.152-.024-.136-.136a.55.55 0 0 0 .176.024c.032-.072 0-.136 0-.2.296.096.464-.12.32-.336.056 0 .128-.016.16.016.232-.136.312-.432.48-.64.008-.088-.04-.136-.024-.232.08-.12.24-.16.336-.264.096-.008.168.032.24 0 .184-.072.256-.632.224-.952.072-.056.456-.448.376-.672-.088-.248-.632-.496-.992-.456-.096-.216-.336-.184-.52-.28-.064-.352-.216-.632-.68-.592-.088-.2-.368-.28-.392-.48-.128-.016-.216.008-.256.08-.08-.048-.112-.024-.224-.024-.032-.072-.112-.096-.136-.176-.096 0-.08.064-.12-.024-.168.08-.328.152-.376.344-.072-.04-.232-.088-.36 0-.208-.176.136-.776-.376-.616.04-.168.104-.304.136-.48-.024-.016-.048-.024-.064-.032.056-.072.152-.104.296-.096 0-.272-.296-.272-.512-.216a.703.703 0 0 0-.224-.2c.056-.08.12-.144.208-.168.096-.008.096.072.184.08.048-.024.064-.08.056-.16.152-.032.168.032.296 0a1.1 1.1 0 0 0 .12.432c.224-.192-.032-.536.12-.768.112-.168.312-.168.376-.376.008-.072-.016-.096-.016-.144.112-.072.152-.232.216-.36.128-.04.16-.176.296-.216.024-.08-.064-.04-.04-.12.056-.128.232-.144.32-.232.024.032-.016.112.04.152.128-.088.296-.136.416-.232.016-.088-.032-.112-.096-.12 0-.056.08-.04.08-.104-.016-.064-.152-.016-.2-.056.016-.176.184-.08.296-.16.016-.096-.128-.032-.16-.08.128-.064.344-.04.36-.216a.375.375 0 0 0 .312-.296c-.008-.104-.152-.072-.136-.2a.391.391 0 0 1-.176-.024c-.048-.176-.088-.352-.144-.512Zm5.208-.256c-.032-.04-.112-.024-.176-.024-.096.056-.08.224-.16.296-.008.064.096.008.08.08.008.08-.096.024-.104 0-.128.056-.16.16-.312.144.016.072.024.16.016.256.048.048.144.056.176.12.12-.024.208-.072.264-.16v-.184c.048-.016.088-.04.16-.032-.024.072.056.056.04.136-.048 0-.104-.008-.12.016-.016.08.032.088.016.16-.048 0-.096 0-.12.024.008.048.048.072.12.056-.008.08-.096.096-.12.16.144.048.376.016.496-.024-.04.104.064.056.064.12-.2-.096-.2.08-.44.04-.024.032-.016.088-.016.144.176.088.432.192.312.512-.28.048-.592-.152-.752.024.12.24-.024.48.024.712.112.032.288.016.352.096-.056.056-.12.112-.12.224-.288.064-.248.464-.432.632-.36.136-.456.536-.656.816.168.176.088.56-.024.736.032.072.08.112.056.24.064.096.168.144.264.2.136.312.296.712.632.752.152.016.224-.112.36-.12.128-.008.16.088.296.096.208-.056.392-.232.6-.192.168.024.288.328.496.176.072.136.04.416-.024.536.08.256.272.392.32.672.202.142.17.324.103.516l-.062.167a.79.79 0 0 0-.065.333c.024.176.176.304.2.496.048.368.16.64.344.912 0 .056-.072.04-.04.12.072.312.4-.016.592.056.192-.12.416-.208.48-.456.256-.096.264-.432.392-.656h.104c.072-.104.08-.328 0-.432.088-.192.256-.296.416-.416.008-.248.104-.408.04-.6-.032-.088-.152-.136-.16-.216-.048-.312.368-.4.4-.736.048-.016.072-.056.12-.08.064-.344.304-.616.272-.992-.144.072-.328.088-.472.12-.056-.064.032-.112.056-.16-.16-.248-.488-.52-.432-.856-.136-.168-.28-.432-.304-.656.128-.024.168.192.2.32.024.08.104.096.144.16.016.368.296.472.312.832.08.064.072.216.184.24.08.016.056-.072.056-.136.216-.144.472-.248.656-.416 0-.152.088-.168.08-.28-.016-.128-.184-.176-.184-.32a.642.642 0 0 1 .144.032 6.37 6.37 0 0 0-.632-1.408c-.248-.016-.344-.208-.272-.448a7.366 7.366 0 0 0-1.96-1.928s.008.008.008.016c-.064.008-.072-.048-.096-.072-.016-.016-.032-.024-.048-.024h-.016c-.128.04-.096.248-.16.36-.24-.088-.456.104-.656-.08.064-.136-.088-.128-.136-.2.048-.144.056-.208 0-.36-.272.016-.232.304-.144.48-.088.008-.232 0-.336.04-.064.08-.08.216-.24.2-.064-.056.072-.104 0-.16-.024-.04-.096-.032-.136-.064-.008-.136-.08-.192-.184-.24.016-.072.032-.136-.08-.136-.008-.08.064-.08.064-.16-.016-.048-.064-.064-.136-.056-.024-.056.024-.056.016-.096ZM6.304 1a5.324 5.324 0 0 0-.608.184c-.024.064-.016.096.032.144.08.016.12-.016.184-.016.04.024.048.08.096.096.152-.088.352-.224.296-.408Z"/></defs><g fill="none" fill-rule="evenodd"><mask id="b" fill="#fff"><use xlink:href="#a"/></mask><use xlink:href="#a" fill="#0C2340" fill-rule="nonzero"/></g></svg>