<svg xmlns="http://www.w3.org/2000/svg" xmlns:xlink="http://www.w3.org/1999/xlink" width="16" height="16"><defs><path id="a" d="M15.333 13.2c.368 0 .667.291.667.65l-.007.096a.662.662 0 0 1-.66.554H.667A.659.659 0 0 1 0 13.85l.007-.096a.662.662 0 0 1 .66-.554Zm0-5.85c.368 0 .667.29.667.65 0 .359-.299.65-.667.65H.667A.659.659 0 0 1 0 8c0-.36.299-.65.667-.65Zm0-5.85c.368 0 .667.29.667.65 0 .359-.299.65-.667.65H.667A.659.659 0 0 1 0 2.15c0-.36.299-.65.667-.65Z"/></defs><g fill="none" fill-rule="evenodd"><mask id="b" fill="#fff"><use xlink:href="#a"/></mask></g></svg>