<svg xmlns="http://www.w3.org/2000/svg" width="16" height="16"><g fill="none" fill-rule="evenodd" transform="translate(1)"><polygon fill="#C1C6C8" points="0 0 0 16 7.00030986 13.6169093 14 16 14 0"/><path fill="#333" d="M7.91 4.92c-.258-.185-.589-.277-.992-.277-.163 0-.324.015-.481.048a1.295 1.295 0 0 0-.42.16.851.851 0 0 0-.295.302.92.92 0 0 0-.11.47c0 .176.053.32.16.43.105.109.247.199.424.268.177.07.377.128.6.173.223.046.45.095.682.149.231.053.458.116.681.188.224.073.424.17.6.294.177.123.319.278.425.465.106.188.16.423.16.707 0 .306-.07.566-.209.783a1.701 1.701 0 0 1-.535.53 2.349 2.349 0 0 1-.73.298 3.6 3.6 0 0 1-1.731-.028 2.301 2.301 0 0 1-.768-.366 1.737 1.737 0 0 1-.522-.626 1.989 1.989 0 0 1-.192-.904h.735c0 .241.047.449.142.623.096.174.22.317.376.43.155.112.336.195.543.248.207.054.42.08.637.08.174 0 .35-.015.526-.048.177-.032.337-.087.478-.164a.944.944 0 0 0 .343-.318.925.925 0 0 0 .13-.514.713.713 0 0 0-.159-.482 1.172 1.172 0 0 0-.424-.3 3.17 3.17 0 0 0-.6-.19l-.682-.148a9.312 9.312 0 0 1-.682-.177 2.487 2.487 0 0 1-.6-.265 1.28 1.28 0 0 1-.424-.426c-.107-.174-.16-.392-.16-.654 0-.29.06-.54.18-.751.12-.212.279-.386.478-.522.198-.137.424-.239.677-.306.253-.067.513-.1.78-.1.3 0 .577.035.833.104.256.07.48.18.673.33.194.15.346.338.458.566.111.228.172.5.183.815h-.734c-.044-.412-.195-.71-.454-.895"/></g></svg>