<svg xmlns="http://www.w3.org/2000/svg" width="16" height="16"><g fill="none" fill-rule="evenodd" transform="translate(1)"><polygon fill="#9F7D23" points="0 0 0 16 7.00030986 13.6167632 14 16 14 0"/><path fill="#FFF" d="M8.127 9.803a2.796 2.796 0 0 1-1.02.197c-.436 0-.826-.079-1.168-.237a2.632 2.632 0 0 1-.874-.639 2.784 2.784 0 0 1-.547-.923 3.178 3.178 0 0 1-.188-1.085 4 4 0 0 1 .176-1.192c.117-.378.29-.708.522-.992.232-.284.52-.51.866-.679.345-.169.75-.253 1.212-.253.316 0 .614.036.894.108.28.073.53.187.751.342.22.155.406.352.556.59.15.239.251.526.306.864h-.776a1.491 1.491 0 0 0-.212-.566 1.361 1.361 0 0 0-.384-.39 1.72 1.72 0 0 0-.519-.23 2.42 2.42 0 0 0-.616-.075c-.354 0-.657.07-.91.208-.253.14-.46.323-.62.55-.161.228-.28.488-.356.78-.076.292-.114.59-.114.895 0 .3.043.588.13.864.087.276.215.52.384.73.169.212.377.381.625.507s.534.188.861.188c.305 0 .574-.048.809-.144.233-.097.43-.229.591-.398.16-.168.282-.366.364-.594.081-.228.117-.472.106-.735H7.114v-.643H9.67v3.02h-.49l-.204-.714c-.229.3-.512.515-.85.646"/></g></svg>