<svg xmlns="http://www.w3.org/2000/svg" width="16" height="16"><g fill="none" fill-rule="evenodd" transform="translate(1)"><polygon fill="#D4D4D0" points="0 0 0 16 7.00030986 13.6169093 14 16 14 0"/><g fill="#333" transform="translate(2.074 4)"><path d="M1.666 5.89V1.71H.126v-.56c.202 0 .397-.015.586-.046.19-.03.361-.086.515-.168.153-.083.283-.195.389-.338.105-.142.178-.323.217-.543h.544V5.89h-.711Z"/><polygon points="5.49674788 0.01392 5.49674788 2.94346286 8.52459089 0.01392 9.55321413 0.01392 7.03576201 2.38374857 9.65358462 5.88912 8.650054 5.88912 6.49208854 2.91860571 5.49674788 3.83197714 5.49674788 5.88912 4.70197394 5.88912 4.70197394 0.01392"/></g></g></svg>