<svg xmlns="http://www.w3.org/2000/svg" xmlns:xlink="http://www.w3.org/1999/xlink" width="16" height="16"><defs><path id="a" d="M5.051 4.953a5.111 5.111 0 0 1 2.356.577 5.075 5.075 0 0 1 2.038 1.965l.098.17.196-.037a3.723 3.723 0 0 1 2.925.679 3.708 3.708 0 0 1 1.506 2.976c0 2.049-1.677 3.717-3.74 3.717a3.699 3.699 0 0 1-2.304-.795l-.157-.122-.166.107c-.815.53-1.769.81-2.752.81a5.043 5.043 0 0 1-3.572-1.471A4.98 4.98 0 0 1 0 9.976c0-1.342.525-2.603 1.479-3.552A5.043 5.043 0 0 1 5.05 4.953Zm0 .835c-2.322 0-4.21 1.878-4.21 4.188 0 2.31 1.888 4.19 4.21 4.19 1.135 0 2.206-.45 2.995-1.243a2.887 2.887 0 0 0 2.385 1.243c1.598 0 2.9-1.293 2.9-2.883 0-.835-.36-1.585-.933-2.113a2.918 2.918 0 0 0-1.967-.77c-.478 0-.94.115-1.356.333A4.22 4.22 0 0 0 6.81 6.176a4.151 4.151 0 0 0-1.759-.388ZM15.633 7.05a.37.37 0 0 1 .367.372.37.37 0 0 1-.367.372H14.27a.369.369 0 0 1-.366-.372c0-.205.162-.372.366-.372ZM9.75 3.964a3.573 3.573 0 0 1 3.554 3.24 4.38 4.38 0 0 0-.878-.387 2.777 2.777 0 0 0-3.603-1.892c-.142-.09-.277-.187-.424-.265-.145-.075-.303-.124-.455-.189a3.58 3.58 0 0 1 1.806-.507ZM5.07 3.083a.37.37 0 0 1 .524.004l.993.986a.365.365 0 0 1 .004.519.37.37 0 0 1-.522-.003l-.993-.986a.369.369 0 0 1-.006-.52Zm8.99-.007a.372.372 0 0 1 .522.015c.14.15.13.381-.024.522l-1.03.948a.37.37 0 0 1-.522-.017.37.37 0 0 1 .024-.52ZM9.35 1.001a.368.368 0 0 1 .395.341l.11 1.391a.367.367 0 1 1-.731.058L9.013 1.4A.373.373 0 0 1 9.35 1Z"/></defs><g fill="none" fill-rule="evenodd"><mask id="b" fill="#fff"><use xlink:href="#a"/></mask><use xlink:href="#a" fill="#0C2340" fill-rule="nonzero"/></g></svg>