<svg xmlns="http://www.w3.org/2000/svg" xmlns:xlink="http://www.w3.org/1999/xlink" width="16" height="15"><defs><path id="a" d="M15.507 0c.243 0 .443.178.485.413l.008.09v12.993a.5.5 0 0 1-.404.496l-.089.008H.487a.488.488 0 0 1-.48-.413L0 13.497V.503C0 .256.169.05.398.008L.488 0h15.02Zm-.487 10.799h-2.154v2.2h2.154v-2.2Zm-11.893 0H.974v2.2h2.153v-2.2ZM15.02 7.5h-2.154v2.295h2.154V7.501Zm-11.893 0H.974v2.295h2.153V7.501Zm4.867-3.06c-.294 0-.568.048-.828.144a2.563 2.563 0 0 0-1.672 2.411c0 .205.026.416.072.607.26 1.124 1.254 1.955 2.428 1.955.926 0 1.74-.518 2.172-1.28.214-.376.334-.812.334-1.282a2.563 2.563 0 0 0-1.674-2.411 2.403 2.403 0 0 0-.832-.143Zm-.26 1.293 1.333 1c.177.133.177.4 0 .533l-1.334 1a.333.333 0 0 1-.533-.266V6c0-.275.314-.432.533-.267Zm7.286-1.531h-2.154v2.296h2.154V4.203Zm-11.893 0H.974v2.296h2.153V4.203ZM15.02 1h-2.154v2.201h2.154v-2.2Zm-11.893 0H.974v2.201h2.153v-2.2Z"/></defs><g fill="none" fill-rule="evenodd" transform="translate(0 .833)"><mask id="b" fill="#fff"><use xlink:href="#a"/></mask><use xlink:href="#a" fill="#0C2340" fill-rule="nonzero"/></g></svg>