<svg xmlns="http://www.w3.org/2000/svg" xmlns:xlink="http://www.w3.org/1999/xlink" width="16" height="16"><defs><path id="a" d="M8.667 0v4c0 .5.5 1 1 1h3v10c0 .5-.5 1-1 1h-10c-.5 0-1-.5-1-1V1c0-.5.5-1 1-1h7Zm-2.5 11h-4c-.25 0-.5.25-.5.5s.25.5.5.5h4c.25 0 .5-.25.5-.5s-.25-.5-.5-.5Zm5-2h-9c-.25 0-.5.25-.5.5s.25.5.5.5h9c.25 0 .5-.25.5-.5s-.25-.5-.5-.5Zm0-2h-9c-.25 0-.5.25-.5.5s.25.5.5.5h9c.25 0 .5-.25.5-.5s-.25-.5-.5-.5Zm-1.5-6 3 3h-3V1Z"/></defs><g fill="none" fill-rule="evenodd" transform="translate(1.333)"><mask id="b" fill="#fff"><use xlink:href="#a"/></mask><use xlink:href="#a" fill="#0C2340" fill-rule="nonzero"/></g></svg>