<svg xmlns="http://www.w3.org/2000/svg" xmlns:xlink="http://www.w3.org/1999/xlink" width="16" height="16"><defs><path id="a" d="M3.914 8.08a3.885 3.885 0 0 1 2.768 1.16c.249.251.465.535.637.843l.039.07.076-.016c.178-.035.36-.053.543-.053 1.154 0 2.151.686 2.627 1.671a2.969 2.969 0 0 1 .295 1.288 2.974 2.974 0 0 1-1.3 2.46A2.938 2.938 0 0 1 7.977 16c-.663 0-1.286-.22-1.805-.632l-.06-.048-.066.042A3.85 3.85 0 0 1 3.914 16a3.868 3.868 0 0 1-2.767-1.16A3.963 3.963 0 0 1 0 12.04c0-1.057.407-2.053 1.147-2.8a3.856 3.856 0 0 1 2.738-1.16h.03Zm0 .844c-1.699 0-3.08 1.397-3.08 3.115 0 1.719 1.381 3.117 3.08 3.117a3.05 3.05 0 0 0 2.19-.924l.086-.087.067.1a2.078 2.078 0 0 0 2.51.753 2.115 2.115 0 0 0 1.296-1.955l-.002-.06a2.092 2.092 0 0 0-.296-1.022A2.058 2.058 0 0 0 7 11.175l-.108.058-.034-.117A3.129 3.129 0 0 0 5.186 9.21a3.008 3.008 0 0 0-1.172-.281c-.034-.002-.066-.004-.1-.004Zm8.565 3.297a.34.34 0 0 1 .487 0l1.346 1.363a.35.35 0 0 1 0 .492.345.345 0 0 1-.49.001l-1.343-1.362a.35.35 0 0 1 0-.494ZM8.343 3.03c2.414 0 4.37 1.98 4.37 4.423a4.404 4.404 0 0 1-1.182 2.996 3.963 3.963 0 0 0-.502-.733c.51-.616.827-1.396.827-2.263 0-1.964-1.573-3.556-3.513-3.556-1.596 0-2.925 1.084-3.354 2.56a4.846 4.846 0 0 0-.863-.104C4.61 4.446 6.307 3.03 8.343 3.03ZM1.66 7.225c-.351.19-.681.419-.98.698H.345A.346.346 0 0 1 0 7.575c0-.194.154-.35.344-.35Zm13.997 0c.19 0 .343.156.343.35a.346.346 0 0 1-.343.348h-1.905a.346.346 0 0 1-.344-.348c0-.194.154-.35.344-.35Zm-1.834-5.103a.343.343 0 0 1 .489 0 .352.352 0 0 1 0 .494l-1.346 1.362a.34.34 0 0 1-.487 0 .348.348 0 0 1 0-.493Zm-11.66 0a.343.343 0 0 1 .49 0l1.345 1.363a.352.352 0 0 1 0 .493.342.342 0 0 1-.489 0L2.163 2.616a.353.353 0 0 1 0-.494ZM7.735 0c.19 0 .344.157.344.35v1.924c0 .194-.153.35-.344.35a.346.346 0 0 1-.344-.35V.35c0-.192.153-.349.344-.349Z"/></defs><g fill="none" fill-rule="evenodd"><mask id="b" fill="#fff"><use xlink:href="#a"/></mask><use xlink:href="#a" fill="#0C2340" fill-rule="nonzero"/></g></svg>