<svg xmlns="http://www.w3.org/2000/svg" xmlns:xlink="http://www.w3.org/1999/xlink" width="16" height="16"><defs><path id="a" d="m9.067 8.258-1.334.964c-.22.159-.533.008-.533-.257V7.036c0-.265.314-.416.533-.257l1.334.964a.315.315 0 0 1 0 .515Zm-7.499-1.24v1.283a.246.246 0 0 1-.248.242.245.245 0 0 1-.24-.242V7.019c0-.133.112-.235.24-.235.136 0 .248.102.248.235m0 1.962c0 .133-.112.235-.248.235a.238.238 0 0 1-.24-.235c0-.133.112-.242.24-.242.136 0 .248.11.248.242M0 10.873c0 .9.752 1.627 1.672 1.627h.976v-9h-.976C.752 3.5 0 4.227 0 5.126v5.747Zm14.016-2.869c0-.36.296-.649.664-.649.368 0 .664.29.664.649a.654.654 0 0 1-.664.641.654.654 0 0 1-.664-.641ZM13.36 12.5h.976c.92 0 1.664-.727 1.664-1.626V5.127c0-.9-.744-1.627-1.664-1.627h-.976v9ZM9.264 5.854a2.478 2.478 0 0 1 1.272 2.15c0 1.165-.824 2.142-1.936 2.4a2.568 2.568 0 0 1-1.2 0 2.518 2.518 0 0 1-1.784-1.579 2.335 2.335 0 0 1-.144-.821c0-.29.048-.563.144-.821.2-.563.6-1.04 1.12-1.33A2.575 2.575 0 0 1 8 5.526c.464 0 .896.118 1.264.329ZM3.448 12.5h9.112v-9H3.448v9Z"/></defs><g fill="none" fill-rule="evenodd"><mask id="b" fill="#fff"><use xlink:href="#a"/></mask><use xlink:href="#a" fill="#0C2340" fill-rule="nonzero"/></g></svg>