<svg xmlns="http://www.w3.org/2000/svg" xmlns:xlink="http://www.w3.org/1999/xlink" width="16" height="16"><defs><path id="a" d="M14.594 6.154a.344.344 0 0 1 .011.486.325.325 0 0 1-.164.088l-2.856.188-2.357 2.357-.677 4.38c-.044.183-.205.263-.39.21l-.048-.03-.077-.095-2.344-2.344-4.51 3.55a.307.307 0 0 1-.438-.015c-.123-.123-.156-.314-.036-.459l3.57-4.49-2.344-2.344c-.137-.137-.2-.298-.068-.429a.324.324 0 0 1 .153-.086l4.38-.676 2.358-2.357.187-2.857a.327.327 0 0 1 .407-.248c.063.016.121.049.168.096l5.075 5.075Z"/></defs><g fill="none" fill-rule="evenodd" transform="translate(.333)"><mask id="b" fill="#fff"><use xlink:href="#a"/></mask><use xlink:href="#a" fill="#D8D8D8"/></g></svg>