<svg xmlns="http://www.w3.org/2000/svg" xmlns:xlink="http://www.w3.org/1999/xlink" width="16" height="16"><defs><path id="a" d="M3.94 16h.982c.184 0 .37-.083.48-.25l4.57-6.083 5.015-.52c.1-.014.358-.21.777-.584a.84.84 0 0 0 0-1.167c-.419-.375-.678-.57-.777-.583l-5.014-.52L5.42.25A.596.596 0 0 0 4.94 0h-.982l2.054 6.604-3.903.271-1.463-1.5C.61 5.334.395 5.3 0 5.271l.833 2.75L0 10.729c.37-.028.58-.063.629-.104l1.461-1.5 3.904.271L3.941 16Z"/></defs><g fill="none" fill-rule="evenodd"><mask id="b" fill="#fff"><use xlink:href="#a"/></mask><use xlink:href="#a" fill="#0C2340" fill-rule="nonzero"/></g></svg>