<svg xmlns="http://www.w3.org/2000/svg" xmlns:xlink="http://www.w3.org/1999/xlink" width="16" height="14"><defs><path id="a" d="M15.333 11.333a.667.667 0 0 1 0 1.333H.667a.667.667 0 0 1 0-1.333h14.666ZM12.907.825c.95-.45 2.149-.1 2.499 0 .7.25.8.7.2 1.2-.3.249-3.549 1.699-9.797 4.397-2.049.8-4.248.7-4.598.55-.3-.15-.2-.35.1-.749-.45-.45-.9-.95-1.3-1.45-.1-.2.5-.5.8-.55.35 0 1.15.3 2.599.8.85-.35 1.85-.8 3.05-1.35L3.36.825c-.1-.1.15-.3.4-.45l.6-.3c.25-.099.5-.099.75 0l4.798 2.2c1.3-.65 2.35-1.1 3-1.45"/></defs><g fill="none" fill-rule="evenodd" transform="translate(0 .667)"><mask id="b" fill="#fff"><use xlink:href="#a"/></mask><use xlink:href="#a" fill="#333"/></g></svg>