<svg xmlns="http://www.w3.org/2000/svg" xmlns:xlink="http://www.w3.org/1999/xlink" width="16" height="16"><defs><path id="a" d="M3.782 14.806a.583.583 0 0 1 .576.594c-.001.33-.262.6-.58.6a.584.584 0 0 1-.58-.595c.001-.329.262-.599.584-.6Zm5.11-11.848c.698 0 1.455.318 1.804.843l1.321 2.143 1.521.362c.316.068.516.396.45.723a.596.596 0 0 1-.574.481c-.042 0-.084 0-.125-.008 0 0-1.887-.464-1.945-.499a.742.742 0 0 1-.2-.198l-.722-1.188-.517 2.789 2.536 6.085c.142.37-.033.8-.398.955a.724.724 0 0 1-.94-.405l-1.696-3.933-.257 1.412-.358 2.427a.714.714 0 0 1-.698.62h-.109l-.017-.009c-.382-.06-.648-.43-.598-.835l.873-5.904c-.357-.258-.856-.706-.798-1.18l.341-2.684L5.99 6.09l-.556 2.15-1.106 6.483a.81.81 0 0 0-.574-.232c-.474 0-.856.404-.856.887 0 .215.075.412.199.568l-1.471-.181a.75.75 0 0 1-.482-.293.745.745 0 0 1-.134-.56l.882-4.88c.05-.386.407-.662.814-.627l1.638.284.124-.694.058-.319c.067-.37.128-.702.132-.714a.602.602 0 0 1-.272-.684s.615-2.03.698-2.117c0 0 2.868-2.006 3.217-2.118.183-.05.383-.085.59-.085ZM9.914 0c.674 0 1.222.568 1.222 1.274 0 .697-.548 1.274-1.222 1.274-.682 0-1.23-.577-1.23-1.274C8.684.568 9.232 0 9.914 0Z"/></defs><g fill="none" fill-rule="evenodd"><mask id="b" fill="#fff"><use xlink:href="#a"/></mask><use xlink:href="#a" fill="#0C2340" fill-rule="nonzero"/></g></svg>