<svg xmlns="http://www.w3.org/2000/svg" xmlns:xlink="http://www.w3.org/1999/xlink" width="16" height="16"><defs><path id="a" d="M8 16A8 8 0 1 0 8 0a8 8 0 0 0 0 16Zm-.363-4V8.974h.702c.958 0 1.696-.22 2.215-.66.52-.44.78-1.075.78-1.906 0-.8-.244-1.4-.732-1.803S9.402 4 8.466 4H6v8h1.637Zm0-4.367V5.341h.745c.447 0 .775.092.984.275.21.183.315.466.315.85 0 .38-.125.67-.375.869-.25.199-.627.298-1.13.298h-.539Z"/></defs><g fill="none" fill-rule="evenodd"><mask id="b" fill="#fff"><use xlink:href="#a"/></mask><use xlink:href="#a" fill="#0C2340"/></g></svg>