<svg xmlns="http://www.w3.org/2000/svg" xmlns:xlink="http://www.w3.org/1999/xlink" width="16" height="16"><defs><path id="a" d="M4.42 3.902c.495 0 .727.42.727.578l.995 3.625a.468.468 0 0 1-.32.57.45.45 0 0 1-.556-.322l-.842-3.06h-.316l1.359 5.268H4.5v3.885a.548.548 0 0 1-.544.554.55.55 0 0 1-.547-.554V10.56h-.574v3.885a.55.55 0 0 1-.548.554.546.546 0 0 1-.54-.554V10.56H.673L2.027 5.29l-.296.003-.836 3.06a.456.456 0 0 1-.561.322.464.464 0 0 1-.317-.57L1.01 4.48a.76.76 0 0 1 .75-.578Zm4.162-2.655v13.64h-.904V1.248h.904Zm6.547 2.55c.43 0 .871.297.871.898v4.308c0 .418-.251.567-.557.567-.307 0-.466-.26-.466-.567V5.686h-.354v8.622a.561.561 0 0 1-.558.562.559.559 0 0 1-.553-.562V9.479h-.55v4.829a.566.566 0 0 1-.562.562.56.56 0 0 1-.554-.562V5.686h-.35l.01 3.304c0 .31-.176.565-.476.565-.31 0-.522-.134-.561-.565V4.66c0-.477.383-.864.852-.864ZM3.137 1.106c.668 0 1.213.545 1.213 1.218a1.22 1.22 0 0 1-1.213 1.221 1.218 1.218 0 0 1-1.208-1.221c0-.673.544-1.219 1.208-1.219ZM13.219 1c.66 0 1.203.547 1.203 1.22 0 .675-.543 1.22-1.203 1.22a1.216 1.216 0 0 1-1.213-1.22c0-.673.542-1.22 1.213-1.22Z"/></defs><g fill="none" fill-rule="evenodd"><mask id="b" fill="#fff"><use xlink:href="#a"/></mask><use xlink:href="#a" fill="#0C2340" fill-rule="nonzero"/></g></svg>