<svg xmlns="http://www.w3.org/2000/svg" xmlns:xlink="http://www.w3.org/1999/xlink" width="16" height="16"><defs><path id="a" d="M.5 11.519a.5.5 0 0 1 .5.5v2.372c0 .297.212.544.494.598l.115.011H4.3a.5.5 0 1 1 0 1H1.28A1.28 1.28 0 0 1 0 14.72v-2.701a.5.5 0 0 1 .5-.5Zm15 0a.5.5 0 0 1 .5.5v2.701A1.28 1.28 0 0 1 14.72 16H11.7a.5.5 0 1 1 0-1h2.691a.609.609 0 0 0 .598-.494l.011-.115V12.02a.5.5 0 0 1 .5-.5Zm-5.322-6.37v8.184H5.822V5.148h4.356Zm-4.907 0v8.184H3.866c-.62 0-1.132-.457-1.193-1.043l-.006-.118V6.31c0-.194.049-.37.129-.53.18-.336.525-.579.933-.624l.137-.008h1.405Zm6.862 0c.467 0 .871.257 1.071.632.06.119.103.248.12.387l.01.142v5.862c0 .6-.473 1.096-1.078 1.155l-.123.006h-1.404V5.148h1.404ZM14.72 0C15.427 0 16 .573 16 1.28v3.339a.5.5 0 1 1-1 0v-3.01A.609.609 0 0 0 14.41 1H11.7a.5.5 0 0 1 0-1h3.02ZM4.3 0a.5.5 0 0 1 0 1H1.609A.609.609 0 0 0 1 1.59v3.029a.5.5 0 0 1-1 0V1.28C0 .573.573 0 1.28 0H4.3ZM8 2.667c1.164 0 2.138.721 2.379 1.69l.03.146h-.676C9.56 3.823 8.85 3.311 8 3.311c-.796 0-1.47.45-1.695 1.067l-.038.125H5.59C5.764 3.463 6.778 2.667 8 2.667Z"/></defs><g fill="none" fill-rule="evenodd"><mask id="b" fill="#fff"><use xlink:href="#a"/></mask><use xlink:href="#a" fill="#949494" fill-rule="nonzero"/></g></svg>