<svg xmlns="http://www.w3.org/2000/svg" xmlns:xlink="http://www.w3.org/1999/xlink" width="16" height="16"><defs><path id="a" d="M.5 11.519a.5.5 0 0 1 .5.5v2.372c0 .297.212.544.494.598l.115.011H4.3a.5.5 0 1 1 0 1H1.28A1.28 1.28 0 0 1 0 14.72v-2.701a.5.5 0 0 1 .5-.5Zm15 0a.5.5 0 0 1 .5.5v2.701A1.28 1.28 0 0 1 14.72 16H11.7a.5.5 0 1 1 0-1h2.691a.609.609 0 0 0 .598-.494l.011-.115V12.02a.5.5 0 0 1 .5-.5ZM3.042 4v8h-.375V4h.375Zm10.291 0v8h-.375V4h.375ZM3.417 4v7.994h-.19V4h.19Zm.56 0v7.994h-.185V4h.184Zm.934 0v7.994h-.185V4h.185Zm.934 0v7.994h-.369V4h.37Zm.75 0v7.994h-.184V4h.184Zm.375 0v7.994h-.184V4h.184Zm.375 0v7.994h-.184V4h.184Zm.935 0v7.994h-.375V4h.375Zm.934 0v7.994H8.84V4h.375Zm.75 0v7.994H9.59V4h.375Zm.75 0v7.994h-.375V4h.375Zm.56 0v7.994h-.375V4h.375Zm1.125 0v7.994h-.56V4h.56Zm.375 0v7.994h-.19V4h.19Zm1.946-4C15.427 0 16 .573 16 1.28v3.339a.5.5 0 1 1-1 0v-3.01A.609.609 0 0 0 14.41 1H11.7a.5.5 0 0 1 0-1h3.02ZM4.3 0a.5.5 0 0 1 0 1H1.609A.609.609 0 0 0 1 1.59v3.029a.5.5 0 0 1-1 0V1.28C0 .573.573 0 1.28 0H4.3Z"/></defs><g fill="none" fill-rule="evenodd"><mask id="b" fill="#fff"><use xlink:href="#a"/></mask><use xlink:href="#a" fill="#949494" fill-rule="nonzero"/></g></svg>