<svg xmlns="http://www.w3.org/2000/svg" xmlns:xlink="http://www.w3.org/1999/xlink" width="16" height="16"><defs><path id="a" d="M7.274 10.22c.191.091.277.33.186.53l-2.218 5.02a.384.384 0 0 1-.514.193.407.407 0 0 1-.186-.529l2.22-5.023a.382.382 0 0 1 .512-.191Zm2.291 0a.402.402 0 0 1 .186.526l-2.003 4.653a.384.384 0 0 1-.514.193.405.405 0 0 1-.188-.527l2.007-4.654a.38.38 0 0 1 .512-.192Zm-4.483 0a.405.405 0 0 1 .188.529l-1.533 3.37a.381.381 0 0 1-.51.194.407.407 0 0 1-.188-.53l1.531-3.371a.382.382 0 0 1 .512-.192ZM5.4 4.073c.475 0 .937.08 1.375.231.238.08.47.18.693.3.38.211.731.48 1.045.806.281.29.522.617.716.97l.084.155.17-.032a3.152 3.152 0 0 1 2.395.501c.218.148.411.32.587.513.543.605.88 1.413.88 2.302 0 1.16-.574 2.179-1.44 2.785l-.436-.603a2.636 2.636 0 0 0 1.145-2.182c0-1.444-1.134-2.62-2.525-2.62-.417 0-.82.108-1.185.306C8.436 5.936 7.01 4.83 5.4 4.83c-2.024 0-3.67 1.707-3.67 3.802 0 1.113.466 2.112 1.205 2.808l-.467.566c-.057-.055-.124-.094-.178-.151A4.606 4.606 0 0 1 1 8.632c0-1.218.457-2.362 1.29-3.222A4.29 4.29 0 0 1 5.4 4.073Zm3.912-1.018c1.796 0 3.256 1.512 3.256 3.372 0 .244-.029.482-.078.717-.149-.14-.29-.29-.455-.4-.069-.046-.142-.08-.212-.125.004-.065.014-.127.014-.192 0-1.443-1.132-2.617-2.525-2.617-.595 0-1.156.218-1.599.598-.047-.029-.09-.065-.139-.094a4.811 4.811 0 0 0-.563-.244c.602-.63 1.422-1.015 2.301-1.015Zm5.341 3.204c.19 0 .347.162.347.36a.354.354 0 0 1-.347.358H13.37a.351.351 0 0 1-.347-.357c0-.199.154-.36.347-.36Zm-1.605-5.133a.346.346 0 0 1 .493-.01c.138.137.138.36.002.503l-.928.96a.344.344 0 0 1-.493.007.36.36 0 0 1-.001-.5ZM4.104 1.12a.345.345 0 0 1 .494.004l.936.95a.356.356 0 0 1 .005.5.344.344 0 0 1-.493-.003l-.937-.95a.36.36 0 0 1-.005-.5ZM8.516 0c.19 0 .345.16.345.356V1.7a.352.352 0 0 1-.345.359.356.356 0 0 1-.349-.359V.356c0-.196.16-.356.349-.356Z"/></defs><g fill="none" fill-rule="evenodd"><mask id="b" fill="#fff"><use xlink:href="#a"/></mask><use xlink:href="#a" fill="#0C2340" fill-rule="nonzero"/></g></svg>