<svg xmlns="http://www.w3.org/2000/svg" xmlns:xlink="http://www.w3.org/1999/xlink" width="16" height="16"><defs><path id="a" d="m7.003 10.03 1.683 2.963c.189.3.295.656.295 1.032 0 1.09-.886 1.975-1.978 1.975a1.977 1.977 0 0 1-1.689-3.007l1.689-2.964Zm-1.71-6.018c.464 0 .914.076 1.342.22.232.077.46.172.676.288.369.203.714.462 1.02.77.275.28.51.591.7.93l.08.149.168-.031a3.136 3.136 0 0 1 2.909.973 3.25 3.25 0 0 1 .86 2.2 3.23 3.23 0 0 1-1.406 2.669l-.425-.576a2.513 2.513 0 0 0 1.116-2.092c0-1.381-1.106-2.504-2.464-2.504-.406 0-.801.099-1.155.29-.459-1.503-1.848-2.56-3.42-2.56-1.978 0-3.582 1.633-3.582 3.64 0 1.066.454 2.02 1.174 2.687l-.453.544c-.057-.052-.121-.09-.177-.145A4.375 4.375 0 0 1 1 8.378c0-1.168.446-2.262 1.256-3.087a4.24 4.24 0 0 1 3.038-1.28Zm3.989-1.003c1.752 0 3.177 1.448 3.177 3.23 0 .232-.027.462-.078.684-.144-.134-.28-.275-.443-.38-.067-.046-.14-.08-.207-.12.006-.062.015-.121.015-.185 0-1.382-1.105-2.506-2.464-2.506-.582 0-1.129.21-1.561.572-.045-.026-.09-.063-.137-.089-.167-.09-.361-.163-.55-.234a3.146 3.146 0 0 1 2.248-.972Zm5.38 3.167A.34.34 0 0 1 15 6.52a.342.342 0 0 1-.338.343h-1.255a.342.342 0 0 1-.337-.343.34.34 0 0 1 .337-.343Zm-1.597-4.068a.345.345 0 0 1 .482-.008.337.337 0 0 1 .001.48l-.903.92a.338.338 0 1 1-.483-.473Zm-8.95-.004a.34.34 0 0 1 .48.004l.916.91a.337.337 0 1 1-.478.474l-.914-.908a.34.34 0 0 1-.005-.48ZM8.543 0a.34.34 0 0 1 .339.34v1.288a.342.342 0 0 1-.34.343.344.344 0 0 1-.338-.343V.34c0-.188.155-.34.339-.34Z"/></defs><g fill="none" fill-rule="evenodd"><mask id="b" fill="#fff"><use xlink:href="#a"/></mask><use xlink:href="#a" fill="#0C2340" fill-rule="nonzero"/></g></svg>