<svg xmlns="http://www.w3.org/2000/svg" xmlns:xlink="http://www.w3.org/1999/xlink" width="16" height="16"><defs><path id="a" d="M7.318 0c3.766 0 6.818 2.985 6.818 6.667 0 1.94-.847 3.686-2.2 4.905l3.364 3.29a.656.656 0 0 1 0 .943.693.693 0 0 1-.964 0l-3.409-3.334a.674.674 0 0 1-.083-.098 6.894 6.894 0 0 1-3.526.96C3.553 13.333.5 10.35.5 6.667.5 2.985 3.553 0 7.318 0Zm0 1.333c-3.012 0-5.454 2.388-5.454 5.334C1.864 9.612 4.306 12 7.318 12c3.013 0 5.455-2.388 5.455-5.333 0-2.946-2.442-5.334-5.455-5.334Z"/></defs><g fill="none" fill-rule="evenodd"><mask id="b" fill="#fff"><use xlink:href="#a"/></mask><use xlink:href="#a" fill="#0C2340" fill-rule="nonzero"/></g></svg>