<svg xmlns="http://www.w3.org/2000/svg" xmlns:xlink="http://www.w3.org/1999/xlink" width="16" height="16"><defs><path id="a" d="m9.176 0 .552 2.256c.384.12.76.272 1.104.464l1.984-1.208 1.672 1.672-1.2 1.984c.184.344.336.72.456 1.104L16 6.824v2.36l-2.256.552c-.12.384-.272.76-.456 1.104l1.2 1.984-1.672 1.672-1.984-1.208c-.344.192-.72.344-1.104.464L9.176 16h-2.36l-.552-2.248a5.854 5.854 0 0 1-1.104-.464l-1.984 1.208-1.672-1.672 1.208-1.984a5.854 5.854 0 0 1-.464-1.104L0 9.184v-2.36l2.248-.552c.12-.384.272-.76.464-1.104L1.504 3.184l1.672-1.672L5.16 2.72c.344-.192.72-.344 1.104-.464L6.816 0h2.36ZM8 5a3.003 3.003 0 1 0 0 6.008c1.656 0 3-1.344 3-3.008 0-1.656-1.344-3-3-3Z"/></defs><g fill="none" fill-rule="evenodd"><mask id="b" fill="#fff"><use xlink:href="#a"/></mask><use xlink:href="#a" fill="#0C2340" fill-rule="nonzero"/></g></svg>