<svg xmlns="http://www.w3.org/2000/svg" xmlns:xlink="http://www.w3.org/1999/xlink" width="16" height="16"><defs><path id="a" d="M6.922 9.945 8.61 12.95c.187.303.293.665.293 1.047A1.993 1.993 0 0 1 6.922 16a1.994 1.994 0 0 1-1.983-2.003c0-.382.108-.744.292-1.047l1.69-3.005ZM5.298 4.973c.464 0 .915.075 1.341.217.234.078.462.172.678.288a4.39 4.39 0 0 1 1.722 1.688l.082.148.165-.032c.196-.035.394-.054.592-.054.646 0 1.246.196 1.749.532a3.213 3.213 0 0 1 1.43 2.676 3.2 3.2 0 0 1-1.406 2.65l-.426-.573a2.485 2.485 0 0 0 1.119-2.076c0-1.374-1.107-2.489-2.466-2.489-.408 0-.8.1-1.157.288a3.601 3.601 0 0 0-3.423-2.542c-1.978 0-3.584 1.62-3.584 3.614 0 1.061.455 2.01 1.176 2.67l-.454.54c-.058-.052-.122-.088-.177-.144A4.33 4.33 0 0 1 1 9.308c0-1.158.447-2.245 1.26-3.065a4.247 4.247 0 0 1 3.038-1.27ZM8.693.036a.678.678 0 0 1 .693.16c.2.196.255.496.138.751a3.332 3.332 0 0 0-.122 2.507 3.41 3.41 0 0 0 4.643 1.958l.064-.023a.669.669 0 0 1 .831.909c-.384.831-1.126 1.603-1.877 2.083-.092-.206-.169-.417-.305-.593.651-.423 1.257-1.088 1.572-1.767a4.986 4.986 0 0 1-.387.153c-2.121.728-4.441-.393-5.176-2.502A3.993 3.993 0 0 1 8.914.67a4.023 4.023 0 0 0-2.33 3.375l-.01-.005c-.213-.07-.43-.12-.65-.158A4.673 4.673 0 0 1 8.628.06a.917.917 0 0 0 .064-.025Z"/></defs><g fill="none" fill-rule="evenodd"><mask id="b" fill="#fff"><use xlink:href="#a"/></mask><use xlink:href="#a" fill="#0C2340" fill-rule="nonzero"/></g></svg>