<svg xmlns="http://www.w3.org/2000/svg" xmlns:xlink="http://www.w3.org/1999/xlink" width="16" height="16"><defs><path id="a" d="m14.955 13.478.091-.334c.256-.926-.13-1.9-.946-2.363l-.353-.205-1.162 2.18a.547.547 0 0 1-.667.198.526.526 0 0 1-.19-.695l1.157-2.173-.79-.45-1.28 2.399c-.184.332-.588.244-.666.196a.524.524 0 0 1-.19-.694l1.28-2.39-1.757-1.009h-.006l-3.56 3.848c-.228.245-.521.177-.691.008a.56.56 0 0 1-.014-.723l3.86-4.16-3.128-.273a.503.503 0 0 1-.45-.545.5.5 0 0 1 .529-.47l3.832.326.099-.926-3.814-.333a.506.506 0 0 1-.451-.552c.026-.28.262-.49.53-.463l3.84.327.09-.893a.522.522 0 0 0-.169-.45l-.803-.7a1.404 1.404 0 0 0-1.444-.266l-1.194.45-3.377-.804a1.423 1.423 0 0 0-1.143.218c-.34.232-.568.606-.633 1.014L.75 6.667a.518.518 0 0 0 .196.504l.418.307-.77 4.134a3.195 3.195 0 0 0 .215 1.866H.49a.5.5 0 0 0-.49.51c0 .28.222.512.49.512h15.02c.268 0 .49-.232.49-.511a.5.5 0 0 0-.49-.511h-.555Z"/></defs><g fill="none" fill-rule="evenodd"><mask id="b" fill="#fff"><use xlink:href="#a"/></mask><use xlink:href="#a" fill="#0C2340" fill-rule="nonzero"/></g></svg>