<svg xmlns="http://www.w3.org/2000/svg" xmlns:xlink="http://www.w3.org/1999/xlink" width="16" height="16"><defs><path id="a" d="M5.13 12.273c1.028 0 1.86.835 1.86 1.864a1.864 1.864 0 1 1-1.86-1.865Zm6.001-1.459c1.053 0 1.906.856 1.906 1.91a1.909 1.909 0 0 1-1.906 1.912 1.908 1.908 0 0 1-1.908-1.912c0-1.054.852-1.91 1.908-1.91ZM5.702 0c1.525 0 2.957.594 4.033 1.67.369.364.678.773.93 1.215l.109.194.221-.042A4.227 4.227 0 0 1 16 7.185a4.21 4.21 0 0 1-2.203 3.694l-.492-.776.014-.035a3.27 3.27 0 0 0 1.734-2.884 3.278 3.278 0 0 0-4.808-2.893A4.777 4.777 0 0 0 5.702.947 4.76 4.76 0 0 0 .946 5.7c0 1.605.804 3.024 2.027 3.885l-.394.884a5.735 5.735 0 0 1-.909-.739A5.665 5.665 0 0 1 0 5.701c0-1.522.594-2.955 1.67-4.032A5.67 5.67 0 0 1 5.702 0Zm.978 6.232c1.168 0 2.112.948 2.112 2.116a2.113 2.113 0 1 1-4.225 0c0-1.168.945-2.116 2.113-2.116Z"/></defs><g fill="none" fill-rule="evenodd"><mask id="b" fill="#fff"><use xlink:href="#a"/></mask><use xlink:href="#a" fill="#0C2340" fill-rule="nonzero"/></g></svg>