<svg xmlns="http://www.w3.org/2000/svg" xmlns:xlink="http://www.w3.org/1999/xlink" width="16" height="16"><defs><path id="a" d="M7.97 7.289a.48.48 0 0 1 .48.482v2.712l1.92-1.918a.481.481 0 0 1 .681 0 .474.474 0 0 1 0 .68L9.13 11.164h2.72c.265 0 .48.217.48.482a.48.48 0 0 1-.48.479H9.13l1.922 1.92a.482.482 0 0 1 .144.338.484.484 0 0 1-.827.342L8.45 12.807v2.714a.478.478 0 0 1-.48.479.479.479 0 0 1-.48-.479v-2.714l-1.922 1.919a.477.477 0 0 1-.34.141.48.48 0 0 1-.342-.822l1.922-1.92H4.09a.48.48 0 0 1 0-.961h2.718l-1.92-1.92a.476.476 0 0 1-.002-.678.485.485 0 0 1 .682 0l1.922 1.915V7.77a.48.48 0 0 1 .48-.482ZM5.702 0c1.522 0 2.958.593 4.033 1.667.366.365.678.773.931 1.215l.108.193.222-.04A4.223 4.223 0 0 1 16 7.177a4.2 4.2 0 0 1-1.728 3.39l-.493-.814a3.256 3.256 0 0 0 1.272-2.577 3.275 3.275 0 0 0-4.804-2.89A4.782 4.782 0 0 0 5.703.945a4.758 4.758 0 0 0-4.755 4.75c0 1.471.68 2.78 1.733 3.65l-.628.722A5.645 5.645 0 0 1 0 5.695c0-1.52.592-2.952 1.67-4.028A5.675 5.675 0 0 1 5.703 0Z"/></defs><g fill="none" fill-rule="evenodd"><mask id="b" fill="#fff"><use xlink:href="#a"/></mask><use xlink:href="#a" fill="#0C2340" fill-rule="nonzero"/></g></svg>