<svg xmlns="http://www.w3.org/2000/svg" xmlns:xlink="http://www.w3.org/1999/xlink" width="16" height="16"><defs><path id="a" d="M6.577 9.648c.207 0 .376.165.376.37v1.91l1.374-1.35a.386.386 0 0 1 .538-.002c.072.073.11.163.11.263a.373.373 0 0 1-.112.26l-1.379 1.356h1.95c.209 0 .377.165.377.37a.372.372 0 0 1-.377.368h-1.95l1.381 1.357a.37.37 0 0 1 .11.258c0 .095-.04.191-.109.259a.373.373 0 0 1-.269.113.39.39 0 0 1-.27-.111L6.953 13.72v1.911a.374.374 0 0 1-.376.369.375.375 0 0 1-.379-.369V13.72l-1.374 1.349a.377.377 0 0 1-.54-.002.361.361 0 0 1-.105-.257c0-.102.036-.19.104-.26l1.386-1.357H3.717a.374.374 0 0 1-.376-.368c0-.205.171-.37.376-.37H5.67l-1.382-1.357a.361.361 0 0 1-.108-.26c0-.1.036-.187.106-.257a.384.384 0 0 1 .27-.11c.1 0 .196.038.269.108l1.374 1.349v-1.91c0-.205.17-.37.379-.37ZM4.99 4.52c.484 0 .956.078 1.403.22.244.075.481.17.708.285.387.2.747.456 1.066.764.288.276.534.587.73.922l.088.146.174-.031c.203-.035.41-.053.617-.053.675 0 1.302.196 1.828.53.22.14.419.304.598.488a3.14 3.14 0 0 1 .898 2.185c0 1.1-.587 2.068-1.47 2.643l-.444-.572c.7-.443 1.167-1.204 1.167-2.071 0-1.371-1.157-2.485-2.577-2.485a2.67 2.67 0 0 0-1.21.288C8.09 6.292 6.636 5.24 4.991 5.24c-2.066 0-3.745 1.622-3.745 3.61a3.53 3.53 0 0 0 1.228 2.665l-.476.539c-.058-.051-.126-.09-.182-.144a4.218 4.218 0 0 1 0-6.12A4.557 4.557 0 0 1 4.99 4.52ZM8.908.036a.736.736 0 0 1 .725.159.644.644 0 0 1 .145.749 3.188 3.188 0 0 0-.128 2.504c.642 1.754 2.667 2.69 4.515 2.084.114-.04.23-.082.337-.131.024-.008.045-.017.065-.023a.725.725 0 0 1 .726.158.642.642 0 0 1 .144.748c-.4.83-1.178 1.602-1.961 2.08-.098-.205-.178-.418-.32-.592.68-.423 1.314-1.086 1.642-1.765-.13.058-.262.109-.403.155-2.218.726-4.64-.392-5.409-2.497a3.834 3.834 0 0 1 .152-3c-1.427.629-2.33 1.939-2.433 3.37-.004 0-.007-.003-.012-.003a4.995 4.995 0 0 0-.677-.16C6.172 2.259 7.196.784 8.842.06c.021-.008.042-.017.066-.025Z"/></defs><g fill="none" fill-rule="evenodd"><mask id="b" fill="#fff"><use xlink:href="#a"/></mask><use xlink:href="#a" fill="#0C2340" fill-rule="nonzero"/></g></svg>