<svg xmlns="http://www.w3.org/2000/svg" xmlns:xlink="http://www.w3.org/1999/xlink" width="16" height="16"><defs><path id="a" d="m4.048 6.39.077 1.288c-.91.756-1.495 1.868-1.495 3.115 0 2.277 1.908 4.116 4.262 4.116 2.049 0 3.746-1.406 4.152-3.267l.758 1.269C10.96 14.725 9.085 16 6.892 16 3.912 16 1.5 13.666 1.5 10.793c0-1.865 1.024-3.484 2.548-4.403Zm1.946-3.123c.763-.04 1.41.531 1.46 1.259l.095 1.19h2.683c.364.012.647.282.647.628 0 .352-.291.614-.647.636H7.624l.034 1.045h3.59a.848.848 0 0 1 .694.393l2.446 4.08c.223.4.106.878-.287 1.106a.88.88 0 0 1-1.153-.277l-1.9-3.18H6.397c-.756.004-1.397-.523-1.461-1.26l-.25-4.205c-.037-.737.542-1.374 1.308-1.415ZM5.97 0c.796 0 1.435.617 1.435 1.386 0 .76-.64 1.385-1.435 1.385-.791 0-1.434-.625-1.434-1.385C4.535.617 5.178 0 5.969 0Z"/></defs><g fill="none" fill-rule="evenodd"><mask id="b" fill="#fff"><use xlink:href="#a"/></mask><use xlink:href="#a" fill="#0C2340" fill-rule="nonzero"/></g></svg>