<svg xmlns="http://www.w3.org/2000/svg" xmlns:xlink="http://www.w3.org/1999/xlink" width="16" height="16"><defs><path id="a" d="M10.38 1.385a4.72 4.72 0 0 1 3.735 0c.957.416 1.56 1.028 1.793 1.818.214.728.05 1.54-.438 2.174-.285.371-.57.92-.757 1.314a1.826 1.826 0 0 0-.179.792v1.41c0 1.64-1.146 2.236-1.881 2.4v3.31c0 .219-.182.397-.406.397a.401.401 0 0 1-.405-.398v-3.304c-.33-.07-.801-.23-1.2-.615-.452-.438-.682-1.04-.682-1.79v-1.41c0-.278-.06-.543-.178-.792-.188-.395-.473-.943-.758-1.314-.487-.634-.651-1.446-.438-2.174.233-.79.836-1.402 1.793-1.818ZM1.31 1a.69.69 0 0 1 .378.118c3.306 2.286 4.67 4.36 5.229 5.642a4.67 4.67 0 0 1 .395 1.898v5.92a.427.427 0 0 1-.43.422H6.6a.427.427 0 0 1-.43-.422V11.07a6.276 6.276 0 0 0-.386-2.075c-.446-1.29-1.287-2.404-2.335-3.298L.23 2.965a.648.648 0 0 1-.085-.902l.635-.81A.696.696 0 0 1 1.311 1Zm10.937 8.524-.795.78c.371.233.761.25.792.251.026-.001.413-.028.786-.262l-.783-.77Zm-.795-.78-.63.618c.083.385.261.644.468.82l.814-.8-.652-.639Zm1.593-.004-.655.643.801.786a1.43 1.43 0 0 0 .478-.817l-.624-.612Zm-.796-.78-.654.643.652.64.654-.644-.652-.64Zm-1.48.112v.821c0 .08.017.138.024.21l.512-.504-.536-.527Zm2.955 0-.536.527.511.502c.006-.071.025-.13.025-.208v-.82Zm-.675-.898-.656.645.652.64.656-.645-.652-.64Zm-1.603-.002-.653.642.656.645.655-.642-.658-.645Zm.801-.786-.658.645.658.645.658-.645-.658-.645Zm-1.6.002-.09.088c.134.32.212.657.212 1.008v.072l.534-.524-.656-.644Zm3.2 0-.654.645.53.521v-.071c0-.35.08-.687.213-1.008l-.088-.086Zm-.802-.787-.655.643.658.647.656-.644-.659-.646Zm-1.596 0-.659.646.656.644.658-.647-.655-.643Zm2.395-.785-.655.644.658.647.53-.52.093-.156-.626-.615Zm-3.195 0-.626.616c.03.052.062.101.091.153l.532.522.66-.647-.657-.644Zm1.598 0-.655.644.655.644.655-.644-.655-.644Zm-.8-.785-.654.645.656.643.655-.643-.656-.645Zm1.598 0-.655.645.655.643.656-.643-.656-.645Zm-3.194 0-.425.418c.061.157.136.31.243.448.084.11.167.231.248.358l.59-.58-.656-.644Zm4.792 0-.656.645.589.578a5.22 5.22 0 0 1 .247-.357c.107-.139.183-.292.244-.45l-.424-.416Zm-3.994-.784-.655.644.655.644.656-.644-.656-.644Zm1.598 0-.656.644.656.644.655-.644-.655-.644Zm1.597 0-.655.644.655.644.656-.644-.656-.644Zm-4.499.288c-.048.23-.047.468.01.701l.353-.345Zm5.802.002-.36.354.35.345c.057-.233.059-.47.01-.699ZM11.45 2.463l-.656.643.655.645.656-.645-.655-.643Zm1.596 0-.655.643.655.645.656-.645-.656-.643Zm1.487.108-.545.535.656.645.44-.432a1.803 1.803 0 0 0-.551-.748Zm-4.57 0c-.26.217-.446.466-.551.748l.44.432.655-.645ZM11 2.021c-.098.033-.198.051-.294.093a3.296 3.296 0 0 0-.585.332l.53.52.655-.644Zm2.495 0-.305.301.655.644.53-.52a3.23 3.23 0 0 0-.587-.332c-.094-.04-.195-.06-.293-.093Zm-1.248-.226c-.044 0-.087.012-.132.013l-.522.514.655.644.655-.644-.522-.513c-.045-.002-.089-.014-.134-.014Z"/></defs><g fill="none" fill-rule="evenodd"><mask id="b" fill="#fff"><use xlink:href="#a"/></mask><use xlink:href="#a" fill="#0C2340" fill-rule="nonzero"/></g></svg>