<svg xmlns="http://www.w3.org/2000/svg" xmlns:xlink="http://www.w3.org/1999/xlink" width="16" height="16"><defs><path id="a" d="m4.164 3.275 4.24.001a1.16 1.16 0 0 1 1.045.738l1.543 4.096c.43.024.903.193.903.257v2.702h.724c.21 0 .381.165.381.37v.328H8.777v-.329c0-.204.171-.369.38-.369h.738V8.852L8.487 5.113h-.412v10.262c0 .345-.289.625-.646.625a.636.636 0 0 1-.647-.625v-5.6h-.775v5.6c0 .345-.29.625-.647.625a.636.636 0 0 1-.646-.625V5.113h-.421v4.26c0 .346-.29.625-.647.625A.636.636 0 0 1 3 9.373V4.4c0-.621.521-1.124 1.164-1.124ZM13 14.79v.333a.376.376 0 0 1-.38.369h-.222v.396a.068.068 0 0 1-.07.067h-.661a.068.068 0 0 1-.069-.067v-.225h-1.405l-.005.006v.219a.068.068 0 0 1-.069.067h-.662a.068.068 0 0 1-.068-.067v-.396h-.232a.376.376 0 0 1-.38-.37v-.332H13Zm0-2.74v2.456H8.777v-2.456H13Zm-1.563-3.33h-.216a.621.621 0 0 1-.397.769.665.665 0 0 1-.485-.017v1.596h1.098V8.72ZM6.4 0c.797 0 1.452.63 1.452 1.408 0 .778-.655 1.407-1.452 1.407-.809 0-1.463-.63-1.463-1.407C4.937.63 5.591 0 6.4 0Z"/></defs><g fill="none" fill-rule="evenodd"><mask id="b" fill="#fff"><use xlink:href="#a"/></mask><use xlink:href="#a" fill="#0C2340" fill-rule="nonzero"/></g></svg>