<svg xmlns="http://www.w3.org/2000/svg" xmlns:xlink="http://www.w3.org/1999/xlink" width="16" height="16"><defs><path id="a" d="M8.106 10.215c.202.093.29.33.196.53l-2.327 5.026a.41.41 0 0 1-.54.192.399.399 0 0 1-.195-.528l2.33-5.028a.408.408 0 0 1 .536-.192Zm2.93 0a.393.393 0 0 1 .193.528L9.13 15.4a.408.408 0 0 1-.538.192.393.393 0 0 1-.198-.526l2.105-4.66a.406.406 0 0 1 .537-.19Zm-5.754 0a.4.4 0 0 1 .198.53L3.87 14.12a.406.406 0 0 1-.535.193.396.396 0 0 1-.196-.53l1.604-3.375a.41.41 0 0 1 .538-.192Zm.334-5.126c.498 0 .982.078 1.441.225.25.078.494.176.729.294.397.207.766.47 1.095.789.295.285.547.605.752.951l.087.152.179-.033c.21-.037.423-.054.635-.054a3.47 3.47 0 0 1 2.492 1.05 3.24 3.24 0 0 1 .923 2.253c0 1.137-.602 2.136-1.511 2.729l-.456-.593c.72-.456 1.2-1.241 1.2-2.136 0-1.413-1.189-2.564-2.648-2.564-.437 0-.86.103-1.243.298C8.8 6.914 7.305 5.83 5.616 5.83c-2.123 0-3.849 1.672-3.849 3.723 0 1.093.488 2.07 1.262 2.75l-.49.556c-.06-.051-.129-.092-.185-.147A4.368 4.368 0 0 1 1 9.552c0-1.192.48-2.313 1.354-3.155a4.66 4.66 0 0 1 3.262-1.308ZM9.226.037A.753.753 0 0 1 9.971.2c.214.203.274.511.148.774a3.298 3.298 0 0 0-.132 2.582c.66 1.81 2.741 2.775 4.641 2.15.119-.039.236-.084.347-.135a.745.745 0 0 1 .812.14c.213.202.273.51.148.773-.41.856-1.21 1.651-2.014 2.145-.101-.21-.183-.43-.33-.61.699-.437 1.35-1.12 1.688-1.823a3.894 3.894 0 0 1-.415.161c-2.279.75-4.767-.404-5.558-2.576A3.983 3.983 0 0 1 9.462.686c-1.466.648-2.394 2.002-2.5 3.478L6.95 4.16a5.524 5.524 0 0 0-.696-.167C6.414 2.33 7.467.81 9.158.064a.59.59 0 0 1 .068-.027Z"/></defs><g fill="none" fill-rule="evenodd"><mask id="b" fill="#fff"><use xlink:href="#a"/></mask><use xlink:href="#a" fill="#0C2340" fill-rule="nonzero"/></g></svg>