<svg xmlns="http://www.w3.org/2000/svg" xmlns:xlink="http://www.w3.org/1999/xlink" width="16" height="16"><defs><path id="a" d="M9.922 7.267a.466.466 0 0 1 .223.615l-3.447 7.85a.452.452 0 0 1-.607.225.468.468 0 0 1-.224-.617l3.45-7.848a.452.452 0 0 1 .605-.225ZM11.78 8.72a.47.47 0 0 1 .224.616l-2.707 5.973a.457.457 0 0 1-.61.226.47.47 0 0 1-.22-.617l2.707-5.974a.452.452 0 0 1 .606-.224ZM7.33 7.257a.468.468 0 0 1 .223.617l-3.131 6.98a.456.456 0 0 1-.61.225.468.468 0 0 1-.22-.617l3.133-6.98a.452.452 0 0 1 .606-.225Zm-2.572.196a.47.47 0 0 1 .223.618l-2.196 4.764a.453.453 0 0 1-.606.224.47.47 0 0 1-.223-.617L4.15 7.678a.454.454 0 0 1 .607-.225ZM5.703 0C7.225 0 8.66.602 9.735 1.696c.365.37.679.785.931 1.234l.108.196.22-.043c.258-.049.522-.072.785-.072C14.104 3.011 16 4.932 16 7.294a4.273 4.273 0 0 1-2.953 4.068l.586-1.34a3.32 3.32 0 0 0 1.418-2.728c0-1.832-1.467-3.322-3.272-3.322-.544 0-1.063.133-1.535.385C9.633 2.367 7.791.961 5.703.961 3.08.961.945 3.127.945 5.788c0 .95.276 1.828.743 2.574l-.45 1.027A5.799 5.799 0 0 1 0 5.79c0-1.546.592-3 1.668-4.093A5.625 5.625 0 0 1 5.703 0Z"/></defs><g fill="none" fill-rule="evenodd"><mask id="b" fill="#fff"><use xlink:href="#a"/></mask><use xlink:href="#a" fill="#0C2340" fill-rule="nonzero"/></g></svg>