<svg xmlns="http://www.w3.org/2000/svg" xmlns:xlink="http://www.w3.org/1999/xlink" width="16" height="16"><defs><path id="a" d="M8 13.482c.185 0 .336.151.336.334v1.849a.334.334 0 1 1-.67 0v-1.849c0-.183.15-.334.334-.334Zm-3.877-1.605a.332.332 0 0 1 0 .473l-1.306 1.307a.334.334 0 1 1-.473-.473l1.306-1.307a.334.334 0 0 1 .473 0Zm8.227 0 1.306 1.307a.335.335 0 0 1-.473.473l-1.306-1.307a.332.332 0 0 1 0-.473.334.334 0 0 1 .473 0ZM8 3.757a4.244 4.244 0 1 1 0 8.487 4.244 4.244 0 0 1 0-8.488Zm0 .831A3.41 3.41 0 0 0 4.588 8a3.41 3.41 0 1 0 6.823 0 3.41 3.41 0 0 0-3.41-3.412ZM2.183 7.665a.335.335 0 1 1 0 .67H.336a.335.335 0 1 1 0-.67h1.847Zm13.483 0a.335.335 0 0 1 0 .67h-1.849A.336.336 0 0 1 13.481 8c0-.185.152-.335.336-.335h1.849Zm-2.01-5.32a.335.335 0 0 1 0 .472L12.35 4.123a.333.333 0 0 1-.472 0 .33.33 0 0 1 0-.472l1.305-1.307a.335.335 0 0 1 .474 0Zm-10.838 0L4.123 3.65a.33.33 0 0 1 0 .472.333.333 0 0 1-.472 0L2.344 2.817a.335.335 0 0 1 .474-.473ZM8 0c.185 0 .336.151.336.335v1.849a.336.336 0 0 1-.67 0V.335C7.666.151 7.816 0 8 0Z"/></defs><g fill="none" fill-rule="evenodd"><mask id="b" fill="#fff"><use xlink:href="#a"/></mask><use xlink:href="#a" fill="#0C2340" fill-rule="nonzero"/></g></svg>