<svg xmlns="http://www.w3.org/2000/svg" xmlns:xlink="http://www.w3.org/1999/xlink" width="16" height="16"><defs><path id="a" d="M8.747 6.218a3.656 3.656 0 0 1 3.659 3.497l.003.147v2.826c0 .156-.11.281-.258.307l-.057.005H3.39a.31.31 0 0 1-.309-.255l-.005-.057V9.862c0-1.96 1.56-3.564 3.515-3.642l.147-.002h2.01ZM3.24 5.073c.536 0 1.025.204 1.395.539A4.656 4.656 0 0 0 2.068 9H.179a.177.177 0 0 1-.174-.139L0 8.82V7.183C0 6.06.873 5.14 1.974 5.077l.119-.004H3.24Zm10.666 0c1.117 0 2.028.883 2.09 1.99l.003.12V8.82a.178.178 0 0 1-.138.175L15.82 9h-2.492a4.653 4.653 0 0 0-2.203-3.133 2.08 2.08 0 0 1 1.494-.789l.14-.005h1.148ZM7.742.333a2.64 2.64 0 0 1 2.644 2.627 2.642 2.642 0 0 1-2.644 2.634A2.641 2.641 0 0 1 5.098 2.96 2.64 2.64 0 0 1 7.742.333Zm5.591 1.334c.833 0 1.511.683 1.511 1.52a1.52 1.52 0 0 1-1.51 1.525 1.52 1.52 0 0 1-1.512-1.524c0-.838.679-1.521 1.511-1.521Zm-10.666 0c.832 0 1.51.683 1.51 1.52a1.52 1.52 0 0 1-1.51 1.525 1.52 1.52 0 0 1-1.511-1.524c0-.838.678-1.521 1.51-1.521Z"/></defs><g fill="none" fill-rule="evenodd" transform="translate(0 1.333)"><mask id="b" fill="#fff"><use xlink:href="#a"/></mask><use xlink:href="#a" fill="#333" fill-rule="nonzero"/></g></svg>