<svg xmlns="http://www.w3.org/2000/svg" xmlns:xlink="http://www.w3.org/1999/xlink" width="16" height="16"><defs><path id="a" d="M8.859 12.596v.816c1.315.088 2.56.531 2.56 1.285 0 .847-1.568 1.303-3.042 1.303-1.475 0-3.042-.456-3.042-1.303 0-.754 1.245-1.197 2.561-1.285v-.816h.963ZM10.095.015c1.13-.154 1.19.907.876 1.536-.246.5-1.61 2.271-1.61 4.21 0 .566.83 1.026 1.851 1.026.366 0 .916-.168 1.233-.168.703 0 1.055.383 1.055 1.148-.041 1.037-.442 2.417-2.765 3.666-2.749 1.474-5.739.421-6.784-1.79C2.554 6.686 2.349 1.988 2.582.4c.07-.473.621.122.682.19-.007.106-.356 1.817.325 5.373A1.464 1.464 0 0 0 5.044 7.15c.21 0 .39-.048.565-.094.143-.039.277-.075.409-.075.444 0 .53.14.671.432.643 1.333 1.477 2.102 1.68 2.242.428.395 1.172.632 1.988.632 1.335 0 2.38-.64 2.38-1.455 0-.815-1.045-1.454-2.38-1.454-.576 0-1.962.138-2.646.456a7.182 7.182 0 0 1-.424-.757c-.206-.427-.503-.822-1.269-.822-.213 0-.846.169-.974.169-.39 0-.724-.255-.794-.604C3.739 3.28 3.828 2.1 3.915.957l.003-.039c.545.163 1.249.147 2.375-.012C8.255.63 8.967.168 10.095.015Z"/></defs><g fill="none" fill-rule="evenodd"><mask id="b" fill="#fff"><use xlink:href="#a"/></mask><use xlink:href="#a" fill="#0C2340" fill-rule="nonzero"/></g></svg>