<svg xmlns="http://www.w3.org/2000/svg" xmlns:xlink="http://www.w3.org/1999/xlink" width="16" height="16"><defs><path id="a" d="M12 6c.667 0 1.333.667 1.333 1.333v7.334c0 .666-.666 1.333-1.333 1.333H1.333C.515 16 0 15.333 0 14.667V7.333C0 6.667.667 6 1.333 6h1.334V4c0-2.227 2-3.996 4-3.998 2-.002 4 1.771 4 3.998h-2l-.006-.15C8.576 2.81 7.62 2 6.667 2c-1 0-2 .889-2 2v2H12Z"/></defs><g fill="none" fill-rule="evenodd" transform="translate(1.333)"><mask id="b" fill="#fff"><use xlink:href="#a"/></mask><use xlink:href="#a" fill="#0C2340" fill-rule="nonzero"/></g></svg>