<svg xmlns="http://www.w3.org/2000/svg" xmlns:xlink="http://www.w3.org/1999/xlink" width="16" height="16"><defs><path id="a" d="m9.635 2.947 3.415 3.416-5.369 5.37c-.511.515-1.21.633-1.91.681l-.698.035-1.294 1.294a.295.295 0 0 1-.417 0l-.219-.22-2.407 2.408C.649 16 .53 16 .413 16H0v-.413c0-.118 0-.236.063-.317l2.413-2.414-.22-.219a.295.295 0 0 1 0-.418l1.297-1.297.037-.677c.042-.71.163-1.406.664-1.915l.5-.5 1.351 1.355c.09.09.236.092.328.006l.34-.34a.237.237 0 0 0 .005-.327L5.42 7.166l.802-.802L7.558 7.7a.266.266 0 0 0 .37.006l.006-.006.292-.292a.266.266 0 0 0 .006-.37l-.006-.006L6.89 5.696l.812-.812L9.05 6.236c.09.09.235.091.327.006l.34-.34a.237.237 0 0 0 .006-.327L8.369 4.217l1.266-1.27ZM13.26.07a.237.237 0 0 1 .328-.006l2.343 2.344a.24.24 0 0 1 .006.33l-.34.34a.237.237 0 0 1-.327.006l-.841-.841-1.042 1.042 1.992 1.993c.09.09.092.235.006.327l-.711.715a.237.237 0 0 1-.328.005l-4.66-4.667a.237.237 0 0 1-.006-.328l.71-.711a.237.237 0 0 1 .329-.006l2 2.002 1.043-1.043-.836-.835a.237.237 0 0 1-.005-.328l.339-.34Z"/></defs><g fill="none" fill-rule="evenodd"><mask id="b" fill="#fff"><use xlink:href="#a"/></mask><use xlink:href="#a" fill="#000" fill-rule="nonzero"/></g></svg>