<svg xmlns="http://www.w3.org/2000/svg" xmlns:xlink="http://www.w3.org/1999/xlink" width="16" height="16"><defs><path id="a" d="M8 8.333a3 3 0 1 0 0-6 3 3 0 0 0 0 6Zm7.903-3.405C14.397 1.988 11.415 0 8 0 4.585 0 1.602 1.99.097 4.928a.899.899 0 0 0 0 .81C1.603 8.679 4.585 10.668 8 10.668c3.415 0 6.398-1.99 7.903-4.928a.899.899 0 0 0 0-.811ZM8 9.333c-2.74 0-5.253-1.527-6.61-4 1.357-2.472 3.87-4 6.61-4s5.253 1.528 6.61 4c-1.357 2.473-3.87 4-6.61 4Z"/></defs><g fill="none" fill-rule="evenodd" transform="translate(0 2.667)"><mask id="b" fill="#fff"><use xlink:href="#a"/></mask><use xlink:href="#a" fill="#000" fill-rule="nonzero"/></g></svg>