<svg xmlns="http://www.w3.org/2000/svg" xmlns:xlink="http://www.w3.org/1999/xlink" width="16" height="16"><defs><path id="a" d="m1.522.35.067.06 14 14a.833.833 0 0 1-1.11 1.24l-.068-.06-14-14A.833.833 0 0 1 1.52.35Zm.725 4.49.944.944A7.88 7.88 0 0 0 1.391 8C2.747 10.472 5.26 12 8 12c.438 0 .87-.039 1.293-.115l1.109 1.11c-.765.22-1.57.338-2.402.338-3.415 0-6.397-1.988-7.903-4.927a.899.899 0 0 1 0-.811 9.25 9.25 0 0 1 2.15-2.755ZM8 2.667c3.415 0 6.397 1.988 7.903 4.927a.899.899 0 0 1 0 .811 9.25 9.25 0 0 1-2.15 2.755l-.944-.944A7.878 7.878 0 0 0 14.609 8C13.253 5.528 10.741 4 8 4c-.438 0-.87.039-1.293.115l-1.11-1.11A8.648 8.648 0 0 1 8 2.668Zm-2.976 4.95 3.359 3.359a3 3 0 0 1-3.358-3.358ZM8 5a3 3 0 0 1 2.976 3.383l-3.36-3.359C7.743 5.008 7.87 5 8 5Z"/></defs><g fill="none" fill-rule="evenodd"><mask id="b" fill="#fff"><use xlink:href="#a"/></mask><use xlink:href="#a" fill="#000" fill-rule="nonzero"/></g></svg>