<svg xmlns="http://www.w3.org/2000/svg" xmlns:xlink="http://www.w3.org/1999/xlink" width="16" height="16"><defs><path id="a" d="m15.946 13.933-2.282-9.13C13.545 4.33 13.15 4 12.699 4h-1.882c.111-.314.183-.647.183-1a3 3 0 1 0-6 0c0 .353.072.686.184 1H3.301c-.45 0-.846.33-.964.804L.054 13.933C-.206 14.973.512 16 1.5 16h12.998c.99 0 1.708-1.026 1.447-2.067ZM8 4c-.551 0-1-.45-1-1 0-.552.449-1 1-1 .551 0 1 .448 1 1 0 .55-.449 1-1 1Z"/></defs><g fill="none" fill-rule="evenodd"><mask id="b" fill="#fff"><use xlink:href="#a"/></mask><use xlink:href="#a" fill="#000" fill-rule="nonzero"/></g></svg>