<svg xmlns="http://www.w3.org/2000/svg" xmlns:xlink="http://www.w3.org/1999/xlink" width="16" height="16"><defs><path id="a" d="M7.996 14.5c-.8 0-1.467-.677-1.467-1.517 0-.839.667-1.516 1.467-1.516s1.467.704 1.467 1.516c0 .84-.667 1.517-1.467 1.517Zm7.896-9.641C13.785 2.693 10.984 1.5 7.996 1.5 5.008 1.5 2.207 2.693.1 4.859c-.133.135-.133.379 0 .541l.694.705c.133.162.373.135.533 0A9.299 9.299 0 0 1 8.022 3.26c2.615 0 4.962 1.083 6.696 2.844.134.162.374.162.534 0l.693-.705a.508.508 0 0 0-.053-.541M2.475 7.323c-.134.135-.134.38 0 .542l.693.704c.133.162.373.135.534 0a5.939 5.939 0 0 1 4.294-1.842c1.68 0 3.2.705 4.294 1.842.134.162.374.162.534 0l.693-.704c.134-.163.134-.407 0-.542a7.65 7.65 0 0 0-5.521-2.356c-2.08 0-4.028.84-5.521 2.356Zm2.4 2.438a.416.416 0 0 0 0 .541l.667.704c.133.163.373.135.533 0a2.618 2.618 0 0 1 1.921-.812c.747 0 1.414.325 1.92.812.134.163.374.163.534 0l.667-.704a.416.416 0 0 0 0-.541 4.358 4.358 0 0 0-3.121-1.327c-1.227 0-2.32.514-3.12 1.327Z"/></defs><g fill="none" fill-rule="evenodd"><mask id="b" fill="#fff"><use xlink:href="#a"/></mask><use xlink:href="#a" fill="#0C2340" fill-rule="nonzero"/></g></svg>