<svg xmlns="http://www.w3.org/2000/svg" xmlns:xlink="http://www.w3.org/1999/xlink" width="16" height="16"><defs><path id="a" d="M13.315 5.514c-1.26.272-3.107-1.554-2.828-2.828L13 .172A4.23 4.23 0 0 0 11.806 0 4.176 4.176 0 0 0 7.63 4.27l.01.236a2.139 2.139 0 0 1-.62 1.676L.58 12.624a1.978 1.978 0 0 0 2.797 2.797L9.818 8.98a2.14 2.14 0 0 1 1.676-.62 4.18 4.18 0 0 0 3.286-1.214A4.157 4.157 0 0 0 16 4.194c0-.402-.057-.805-.171-1.194l-2.514 2.514ZM2 15.334a1.332 1.332 0 1 1 0-2.668 1.333 1.333 0 1 1 0 2.667Z"/></defs><g fill="none" fill-rule="evenodd"><mask id="b" fill="#fff"><use xlink:href="#a"/></mask><use xlink:href="#a" fill="#333" fill-rule="nonzero"/></g></svg>