<svg xmlns="http://www.w3.org/2000/svg" xmlns:xlink="http://www.w3.org/1999/xlink" width="24" height="24"><defs><path id="a" d="M18.204 16.843v1.973h1.978v.9h-1.978v1.972H17.3v-1.972h-1.979v-.9h1.979v-1.973h.903Zm-7.592-7.364a5.876 5.876 0 0 1 5.536 3.924c-2.668.815-4.805 2.5-4.38 6.995H2.005a.5.5 0 0 1-.506-.504v-4.547c0-3.24 2.636-5.868 5.886-5.868h3.226ZM8.992 0c2.34 0 4.245 1.9 4.245 4.231a4.246 4.246 0 0 1-4.244 4.24 4.245 4.245 0 0 1-4.243-4.24C4.75 1.9 6.654 0 8.993 0Zm8.76 23.1a3.844 3.844 0 0 1-3.846-3.834 3.845 3.845 0 0 1 3.846-3.835c2.12 0 3.845 1.72 3.845 3.835a3.844 3.844 0 0 1-3.845 3.834m-4.749-3.834A4.74 4.74 0 0 0 17.752 24a4.74 4.74 0 0 0 4.748-4.734 4.742 4.742 0 0 0-4.748-4.735 4.742 4.742 0 0 0-4.749 4.735Z"/></defs><g fill="none" fill-rule="evenodd"><mask id="b" fill="#fff"><use xlink:href="#a"/></mask><use xlink:href="#a" fill="#0C2340" fill-rule="nonzero"/></g></svg>