<svg xmlns="http://www.w3.org/2000/svg" xmlns:xlink="http://www.w3.org/1999/xlink" width="24" height="24"><defs><path id="a" d="M7.84 1.2h8.337l.719 5.412c-.768.072-3.283.756-3.469.804-4.261 1.068-5.81-.192-6.293-.816l.706-5.4Zm10.604 7.692v-.048L17.342.528a.612.612 0 0 0-.62-.528H7.295a.63.63 0 0 0-.619.528L5.549 9.072c-.124 1.08-.013 2.04.347 2.856.904 2.076 3.022 3.456 5.487 3.66v3.852c-2.477.096-4.93.816-4.93 2.268 0 1.572 2.874 2.292 5.55 2.292 2.663 0 5.537-.72 5.537-2.292 0-1.452-2.44-2.16-4.918-2.268v-3.852c2.205-.18 4.1-1.296 5.166-3.084.594-1.008.83-2.268.656-3.612Z"/></defs><g fill="none" fill-rule="evenodd"><mask id="b" fill="#fff"><use xlink:href="#a"/></mask><use xlink:href="#a" fill="#0C2340" fill-rule="nonzero"/></g></svg>