<svg xmlns="http://www.w3.org/2000/svg" xmlns:xlink="http://www.w3.org/1999/xlink" width="24" height="24"><defs><path id="a" d="M13.923 2.6a2.196 2.196 0 0 0-1.92-1.1c-1.139 0-1.63.59-1.93 1.1L.29 19.227c-.88 1.641.372 3.274 1.93 3.274h19.553c.938 0 2.977-1.116 1.93-3.274l-9.78-16.625Zm-.937 12.533H11.08L10.68 7.5h2.703l-.398 7.633Zm-2.336 2.672c0-.438.117-.769.352-.992.234-.224.575-.336 1.023-.336.432 0 .767.114 1.004.343.237.23.355.558.355.985 0 .411-.12.735-.359.972-.24.237-.573.356-1 .356-.438 0-.776-.116-1.016-.348-.24-.232-.359-.558-.359-.98Z"/></defs><g fill="none" fill-rule="evenodd"><mask id="b" fill="#fff"><use xlink:href="#a"/></mask><use xlink:href="#a" fill="#0033A0"/></g></svg>