<svg xmlns="http://www.w3.org/2000/svg" xmlns:xlink="http://www.w3.org/1999/xlink" width="24" height="20"><defs><path id="a" d="M14.315.271a1.001 1.001 0 0 0-.043 1.414L20.686 8.5H1a1 1 0 0 0 0 2h19.686l-6.414 6.815a1 1 0 0 0 1.457 1.371l8-8.5c.043-.046.063-.102.096-.153.034-.053.076-.099.1-.158.097-.24.097-.509 0-.75-.024-.059-.066-.105-.1-.157-.033-.05-.053-.107-.096-.153l-8-8.5a1.001 1.001 0 0 0-1.414-.043"/></defs><g fill="none" fill-rule="evenodd" transform="translate(.001 .498)"><mask id="b" fill="#fff"><use xlink:href="#a"/></mask><use xlink:href="#a" fill="#D8D8D8"/></g></svg>