<svg xmlns="http://www.w3.org/2000/svg" xmlns:xlink="http://www.w3.org/1999/xlink" width="24" height="24"><defs><path id="a" d="M18.575 22.8c.318 0 .59.264.59.6 0 .336-.272.6-.59.6H2.063a.59.59 0 0 1-.59-.6c0-.336.26-.6.59-.6ZM11.26.15a.5.5 0 0 1-.009.708c-.453.442-.62 1.145-.472 2.155.197 1.333-.129 2.332-1.007 2.906a.5.5 0 0 1-.546-.838c.51-.333.708-.942.564-1.922-.192-1.301.052-2.323.763-3.017a.5.5 0 0 1 .707.009Zm3.04 1.048a.5.5 0 0 1-.096.7c-.419.318-.565.793-.428 1.513.21 1.104-.147 1.953-1.051 2.411a.5.5 0 1 1-.452-.892c.484-.245.651-.644.52-1.332-.203-1.071.062-1.933.807-2.497a.5.5 0 0 1 .7.097Zm-6 0a.5.5 0 0 1-.096.7c-.419.318-.565.793-.428 1.513.21 1.104-.147 1.953-1.051 2.411a.5.5 0 0 1-.452-.892c.484-.245.651-.644.52-1.332-.203-1.071.062-1.933.807-2.497a.5.5 0 0 1 .7.097ZM22.01 14.58c-.696 1.692-2.242 3.084-3.953 3.708 1.652-2.664 2.041-5.64 2.089-7.608.696.132 1.262.444 1.652.924.023.024.047.036.07.06.308.42.473.912.473 1.44 0 .444-.106.924-.33 1.476m.637-3.828c-.67-.605-1.487-1.129-2.514-1.285-.06-.984-.85-1.752-1.83-1.752H2.335c-.992 0-1.794.78-1.841 1.776-.095 2.4.177 8.353 4.91 11.905.094.084 9.725.084 9.83 0a10.721 10.721 0 0 0 1.724-1.62c2.573-.312 5.122-2.268 6.137-4.74.283-.696.425-1.332.425-1.932 0-.84-.193-1.584-.873-2.352Z"/></defs><g fill="none" fill-rule="evenodd"><mask id="b" fill="#fff"><use xlink:href="#a"/></mask><use xlink:href="#a" fill="#0C2340" fill-rule="nonzero"/></g></svg>