<svg xmlns="http://www.w3.org/2000/svg" xmlns:xlink="http://www.w3.org/1999/xlink" width="24" height="24"><defs><path id="a" d="M9.108 19.12c.456 0 .84.364.84.822a.842.842 0 0 1-.84.823.834.834 0 0 1-.84-.823c0-.458.372-.823.84-.823m10.44 0c.456 0 .84.365.84.823a.842.842 0 0 1-.84.823.834.834 0 0 1-.84-.823c0-.458.372-.823.84-.823m3.816-12.85H6.036l-1.08-3.81A.639.639 0 0 0 4.344 2H.624A.623.623 0 0 0 0 2.623c0 .341.276.612.624.612h3.24l4.224 14.908a2.042 2.042 0 0 0-1.08 1.8c0 1.128.936 2.057 2.1 2.057 1.152 0 2.1-.929 2.1-2.058 0-.294-.06-.576-.18-.823h6.588c-.108.247-.18.53-.18.823 0 1.13.948 2.058 2.112 2.058 1.152 0 2.1-.929 2.1-2.058 0-1.14-.948-2.069-2.1-2.069H9.324l-.552-1.94h12.492c.288 0 .54-.2.612-.47l2.1-8.43a.57.57 0 0 0-.12-.53.602.602 0 0 0-.492-.235Z"/></defs><g fill="none" fill-rule="evenodd"><mask id="b" fill="#fff"><use xlink:href="#a"/></mask><use xlink:href="#a" fill="#0C2340" fill-rule="nonzero"/></g></svg>