<svg xmlns="http://www.w3.org/2000/svg" xmlns:xlink="http://www.w3.org/1999/xlink" width="24" height="24"><defs><path id="a" d="m20.13 13.196 3.637 3.706c.31.317.31.88 0 1.196l-3.636 3.706c-.284.288-.714.255-.962-.075s-.22-.832.064-1.12l3.05-3.109-3.05-3.108c-.284-.289-.312-.79-.064-1.12.248-.33.678-.364.962-.076Zm0-11 3.637 3.706c.31.317.31.88 0 1.196l-3.636 3.706c-.284.288-.714.255-.962-.075s-.22-.832.064-1.12l3.05-3.109-3.05-3.108c-.284-.289-.312-.79-.064-1.12.248-.33.678-.364.962-.076ZM1.197 4.517c3.12.585 6.137 2.578 9.061 5.94C13.356 7.16 17.355 5.5 22.191 5.5c.557 0 1.009.448 1.009 1s-.452 1-1.009 1c-4.366 0-7.884 1.491-10.622 4.498 2.737 3.01 6.255 4.502 10.622 4.502.557 0 1.009.448 1.009 1s-.452 1-1.009 1c-4.836 0-8.835-1.66-11.933-4.957-2.925 3.361-5.941 5.355-9.062 5.94a1.008 1.008 0 0 1-1.178-.797 1 1 0 0 1 .804-1.169c2.687-.503 5.395-2.327 8.11-5.515C6.218 8.81 3.51 6.986.822 6.482a1 1 0 0 1-.804-1.168c.103-.542.63-.9 1.178-.797Z"/></defs><g fill="none" fill-rule="evenodd"><mask id="b" fill="#fff"><use xlink:href="#a"/></mask><use xlink:href="#a" fill="#0C2340" fill-rule="nonzero"/></g></svg>