<svg xmlns="http://www.w3.org/2000/svg" xmlns:xlink="http://www.w3.org/1999/xlink" width="24" height="24"><defs><path id="a" d="M2.68 4.995 6.364 8.68h4.558l3.687-3.685a1.277 1.277 0 0 1 1.702-.093l.103.093c.466.466.497 1.2.093 1.702l-.093.104-4.196 4.195v11.727a1.277 1.277 0 0 1-2.547.13l-.006-.13-.001-5.362H7.623v5.362c0 .661-.502 1.205-1.146 1.27l-.13.007a1.277 1.277 0 0 1-1.27-1.146l-.007-.13V10.996L.874 6.801a1.277 1.277 0 0 1 1.805-1.806ZM8.644 0a3.574 3.574 0 1 1 0 7.149 3.574 3.574 0 0 1 0-7.149Z"/></defs><g fill="none" fill-rule="evenodd" transform="translate(3)"><mask id="b" fill="#fff"><use xlink:href="#a"/></mask><use xlink:href="#a" fill="#0C2340" fill-rule="nonzero"/></g></svg>