<svg xmlns="http://www.w3.org/2000/svg" xmlns:xlink="http://www.w3.org/1999/xlink" width="24" height="24"><defs><path id="a" d="M12.366 1.412c-5.394.55-9.463 5.091-9.463 10.56 0 5.851 4.729 10.717 10.538 10.615 3.006-.052 5.642-1.249 7.907-3.589-.747.065-1.236.097-1.466.097-5.64 0-10.225-4.621-10.225-10.302 0-2.662 1.006-5.188 2.838-7.116l.29-.307-.42.042ZM1.5 11.972C1.5 5.775 6.11.63 12.223.006a1.578 1.578 0 0 1 1.559.872 1.59 1.59 0 0 1-.274 1.774 8.88 8.88 0 0 0-2.448 6.141c0 4.901 3.955 8.89 8.822 8.89.3 0 1.008-.056 1.062-.056.59 0 1.14.345 1.398.882a1.586 1.586 0 0 1-.272 1.774C19.79 22.68 16.73 24 13.44 24 6.858 23.999 1.5 18.602 1.5 11.972Z"/></defs><g fill="none" fill-rule="evenodd"><mask id="b" fill="#fff"><use xlink:href="#a"/></mask><use xlink:href="#a" fill="#0C2340" fill-rule="nonzero"/></g></svg>