<svg xmlns="http://www.w3.org/2000/svg" xmlns:xlink="http://www.w3.org/1999/xlink" width="24" height="24"><defs><path id="a" d="m12 12-9 6.3h18L12 12Zm.588-1.809 11 8c.783.57.38 1.809-.588 1.809H1c-.968 0-1.371-1.24-.588-1.809l11-8a1 1 0 0 1 1.176 0ZM11 8.5a1 1 0 1 1 2 0v1.884a1 1 0 1 1-2 0V8.5Zm1 1a1 1 0 0 1 0-2A1.5 1.5 0 1 0 10.5 6a1 1 0 0 1-2 0A3.5 3.5 0 1 1 12 9.5Z"/></defs><g fill="none" fill-rule="evenodd"><mask id="b" fill="#fff"><use xlink:href="#a"/></mask><use xlink:href="#a" fill="#0C2340" fill-rule="nonzero"/></g></svg>