<svg xmlns="http://www.w3.org/2000/svg" xmlns:xlink="http://www.w3.org/1999/xlink" width="24" height="24"><defs><path id="a" d="M20.5 19a2.5 2.5 0 1 1 0 5 2.5 2.5 0 0 1 0-5Zm-17 0a2.5 2.5 0 1 1 0 5 2.5 2.5 0 0 1 0-5ZM22 0a2 2 0 0 1 2 2v14a2 2 0 0 1-2 2H2a2 2 0 0 1-2-2V2a2 2 0 0 1 2-2h20Zm-3.982 3.648-8.256 8.255-3.151-3.15a.917.917 0 0 0-1.296 1.297l3.735 3.735a1 1 0 0 0 1.415 0l8.848-8.843a.915.915 0 0 0 .082-1.2l-.082-.095a.916.916 0 0 0-1.295 0Z"/></defs><g fill="none" fill-rule="evenodd"><mask id="b" fill="#fff"><use xlink:href="#a"/></mask><use xlink:href="#a" fill="#D8D8D8"/></g></svg>