<svg xmlns="http://www.w3.org/2000/svg" xmlns:xlink="http://www.w3.org/1999/xlink" width="24" height="24"><defs><path id="a" d="M20.5 19a2.5 2.5 0 1 1 0 5 2.5 2.5 0 0 1 0-5Zm-17 0a2.5 2.5 0 1 1 0 5 2.5 2.5 0 0 1 0-5ZM22 0a2 2 0 0 1 2 2v14a2 2 0 0 1-2 2H2a2 2 0 0 1-2-2V2a2 2 0 0 1 2-2h20Zm-4.335 8.025H6.335a.98.98 0 0 0-.98.98l.006.107a.98.98 0 0 0 .974.873h11.33a.98.98 0 0 0 .98-.98l-.006-.107a.98.98 0 0 0-.974-.873Z"/></defs><g fill="none" fill-rule="evenodd"><mask id="b" fill="#fff"><use xlink:href="#a"/></mask><use xlink:href="#a" fill="#D8D8D8"/></g></svg>