<svg xmlns="http://www.w3.org/2000/svg" xmlns:xlink="http://www.w3.org/1999/xlink" width="24" height="24"><defs><path id="a" d="M18.715 16.215a1 1 0 0 1 2 0v6.813a1 1 0 0 1-1 1H1a1 1 0 0 1-1-1V4.4a1 1 0 0 1 1-1h6.87a1 1 0 1 1 0 2H2v16.628h16.715v-5.813ZM14.5 2a1 1 0 0 1 0-2h8.514a1 1 0 0 1 1 1v8.528a1 1 0 1 1-2 0V3.407L10.85 14.609a1 1 0 0 1-1.417-1.412L20.592 2H14.5Z"/></defs><g fill="none" fill-rule="evenodd"><mask id="b" fill="#fff"><use xlink:href="#a"/></mask><use xlink:href="#a" fill="#0C2340" fill-rule="nonzero"/></g></svg>