<svg xmlns="http://www.w3.org/2000/svg" xmlns:xlink="http://www.w3.org/1999/xlink" width="24" height="24"><defs><path id="a" d="M0 18.035v4.429h1.618c.464 0 .886-.13 1.182-.425.502-.496.453-1.144.453-1.808 0-.666.05-1.277-.453-1.774-.296-.292-.718-.422-1.182-.422H0ZM14.856 18c.861 0 1.496.497 1.647 1.398h-.888c-.093-.38-.332-.628-.753-.628-.24 0-.428.074-.56.23-.182.193-.22.391-.22 1.25 0 .858.038 1.056.22 1.25.132.154.32.229.56.229.42 0 .66-.248.753-.628h.888c-.151.902-.792 1.399-1.647 1.399a1.65 1.65 0 0 1-1.208-.484 1.274 1.274 0 0 1-.364-.666c-.05-.249-.076-.616-.076-1.1 0-.486.025-.852.076-1.1.05-.255.169-.473.364-.665A1.646 1.646 0 0 1 14.856 18Zm-9.92.037v4.427h-.874v-4.427h.874Zm7.782 0v.77h-2.075v1.039h1.768v.771h-1.768v1.075h2.075v.771H9.77v-4.427h2.948Zm7.236 0v.77h-1.169v3.656h-.874v-3.657h-1.17v-.77h3.213Zm1.336 0 .9 2.884.9-2.885H24l-1.483 4.427h-.654l-1.477-4.427h.904Zm-19.754.768c.301 0 .502.093.654.274.163.2.188.48.188 1.152 0 .67-.025.988-.188 1.188-.152.179-.353.274-.654.274H.875v-2.888h.661Zm4.281-.769v4.427h.874v-1.765h.629l.873 1.765h1.013l-1-1.909c.434-.155.818-.54.818-1.163 0-.739-.54-1.355-1.452-1.355H5.817Zm.874.77h.823c.384 0 .636.244.636.585 0 .342-.252.585-.636.585h-.823v-1.17ZM11.636 1.5c-1.333 0-2.6.369-3.662 1.012-.318.195-.498.35-.498.55 0 .588 1.392 1.222 3.86 1.222 2.443 0 4.337-.695 4.337-1.361 0-.16-.14-.27-.425-.44a7.05 7.05 0 0 0-3.612-.983Zm4.663 1.758c.03.047.044.095.044.162 0 .775-2.4 2.147-6.22 2.147-2.807 0-3.333-1.03-3.333-1.684 0-.234.091-.474.29-.717.011-.016.003-.02-.01-.01-.365.307-.7.65-.994 1.02-.14.176-.228.332-.228.426 0 1.356 3.442 2.34 6.66 2.34 3.429 0 4.959-1.106 4.959-2.08 0-.347-.137-.549-.488-.944a8.067 8.067 0 0 0-.67-.668c-.01-.01-.018-.002-.01.008M4.751 6.931a.458.458 0 0 0 .037.34c.434.907 2.624 2.36 7.735 2.36 3.117 0 5.539-.757 5.931-2.138.072-.255.077-.523-.017-.885a6.692 6.692 0 0 0-.462-1.208c-.004-.01-.015-.008-.013.004.061 1.813-5.05 2.981-7.63 2.981-2.794 0-5.126-1.1-5.126-2.49 0-.134.029-.268.064-.407.002-.013-.009-.014-.014-.004a6.858 6.858 0 0 0-.505 1.447Zm5.466 4.345c-3.614 0-5.318-1.664-5.627-2.8-.003-.016-.015-.012-.015.002 0 .383.04.876.105 1.203.033.16.164.41.356.61.874.9 3.057 2.164 6.835 2.164 5.148 0 6.324-1.694 6.564-2.252.173-.4.262-1.12.262-1.725 0-.146-.004-.263-.01-.379 0-.017-.01-.02-.014-.002-.257 1.365-4.655 3.179-8.456 3.179m1.899 3.07c1.737 0 3.647-.467 4.788-1.395.313-.253.61-.588.877-1.04.154-.26.304-.569.426-.873.005-.015-.005-.022-.016-.004-1.062 1.543-4.136 2.508-7.311 2.508-2.244 0-4.66-.71-5.606-2.065-.01-.013-.018-.007-.013.008.881 1.85 3.553 2.861 6.855 2.861m-4.81-.357a7.103 7.103 0 0 0 4.33 1.468c1.784 0 3.41-.656 4.651-1.73.016-.014.008-.022-.007-.014-.557.368-2.145 1.171-4.644 1.171-2.172 0-3.545-.48-4.32-.907-.015-.007-.02.004-.01.012"/></defs><g fill="none" fill-rule="evenodd"><mask id="b" fill="#fff"><use xlink:href="#a"/></mask><use xlink:href="#a" fill="#0C2340" fill-rule="nonzero"/></g></svg>