<svg xmlns="http://www.w3.org/2000/svg" xmlns:xlink="http://www.w3.org/1999/xlink" width="24" height="24"><defs><path id="a" d="M14 0v6c0 .5.5 1 1 1h5v16c0 .5-.5 1-1 1H1c-.5 0-1-.5-1-1V1c0-.5.5-1 1-1h13ZM4.869 10H3v7h1.37v-2.538h.343c.745 0 1.316-.198 1.71-.596.395-.397.592-.968.592-1.711 0-1.374-.654-2.091-1.963-2.15L4.869 10Zm5.043 0h-1.97v7h1.804c.93 0 1.643-.306 2.138-.917.496-.611.743-1.495.743-2.65 0-1.085-.238-1.929-.715-2.53-.437-.552-1.034-.85-1.79-.897L9.912 10ZM17 10h-3.3v7h1.36v-2.806h1.809V13.07H15.06v-1.944H17V10Zm-7.139 1.125c.907 0 1.36.782 1.36 2.346 0 .798-.119 1.396-.357 1.793-.238.398-.608.596-1.108.596h-.444v-4.735h.55Zm-5.158 0c.315 0 .549.089.7.266.151.177.227.45.227.816 0 .4-.083.687-.247.862-.165.176-.415.263-.75.263H4.37v-2.207h.333ZM15 1l5 5h-5V1Z"/></defs><g fill="none" fill-rule="evenodd" transform="translate(2)"><mask id="b" fill="#fff"><use xlink:href="#a"/></mask><use xlink:href="#a" fill="#000"/></g></svg>