<svg xmlns="http://www.w3.org/2000/svg" xmlns:xlink="http://www.w3.org/1999/xlink" width="24" height="24"><defs><path id="a" d="M13.5 19a2.5 2.5 0 1 1 0 5 2.5 2.5 0 0 1 0-5Zm-11 0a2.5 2.5 0 1 1 0 5 2.5 2.5 0 0 1 0-5Zm11-9.5a2.5 2.5 0 1 1 0 5 2.5 2.5 0 0 1 0-5Zm-11 0a2.5 2.5 0 1 1 0 5 2.5 2.5 0 0 1 0-5Zm0-9.5a2.5 2.5 0 1 1 0 5 2.5 2.5 0 0 1 0-5Zm11 0a2.5 2.5 0 1 1 0 5 2.5 2.5 0 0 1 0-5Z"/></defs><g fill="none" fill-rule="evenodd" transform="translate(4)"><mask id="b" fill="#fff"><use xlink:href="#a"/></mask><use xlink:href="#a" fill="#7C878E"/></g></svg>