<svg xmlns="http://www.w3.org/2000/svg" xmlns:xlink="http://www.w3.org/1999/xlink" width="24" height="24"><defs><path id="a" d="M10 .003C13 0 16 2.66 16 6v2h2c1 0 2 1 2 2v12c0 1-1 2-2 2H2c-1.228 0-2-1-2-2V10c0-1 1-2 2-2h2V6C4 2.66 7 .006 10 .003Zm-.453 10.174-.167.192-.128.156-.087.12a.333.333 0 0 0-.055.114l-.39 3.761-4.532 3.414a.447.447 0 0 0-.188.361v.736l4.953-1.54.203 2.927-1.125 1.097c-.015.013-.03.06-.043.142l-.018.146-.017.197 2.062-.625 2.032.625-.017-.186-.018-.14a.367.367 0 0 0-.043-.146l-1.125-1.096.203-2.928L16 19.044v-.735a.43.43 0 0 0-.187-.36L11.25 14.52l-.391-3.76c-.007-.05-.074-.153-.202-.309l-.147-.174a11.12 11.12 0 0 0-.09-.1.63.63 0 0 0-.874 0ZM10 3C8.554 3 7.107 4.24 7.006 5.823L7 6v2h6V6c0-1.667-1.5-3-3-3Z"/></defs><g fill="none" fill-rule="evenodd" transform="translate(2)"><mask id="b" fill="#fff"><use xlink:href="#a"/></mask><use xlink:href="#a" fill="#0C2340" fill-rule="nonzero"/></g></svg>