<svg xmlns="http://www.w3.org/2000/svg" xmlns:xlink="http://www.w3.org/1999/xlink" width="24" height="24"><defs><path id="a" d="M17.5 0C21.08 0 24 2.867 24 6.394a6.35 6.35 0 0 1-1.412 3.973l-.188.224-9.71 11.093c-.462.563-.828.598-1.296.106l-.095-.106L1.59 10.591A6.348 6.348 0 0 1 0 6.394C0 2.867 2.91 0 6.49 0c1.947 0 3.74.835 4.985 2.299l.175.213.35.444.34-.444A6.515 6.515 0 0 1 17.5 0Zm0 2c-1.331 0-2.561.56-3.417 1.54l-.156.189-1.902 2.483-1.95-2.467A4.498 4.498 0 0 0 6.49 2C4.008 2 2 3.978 2 6.394c0 .973.328 1.915.937 2.69l.158.19 8.899 10.168 8.903-10.17a4.38 4.38 0 0 0 1.096-2.638l.007-.24C22 3.98 19.984 2 17.5 2Z"/></defs><g fill="none" fill-rule="evenodd" transform="translate(0 1)"><mask id="b" fill="#fff"><use xlink:href="#a"/></mask><use xlink:href="#a" fill="#979797" fill-rule="nonzero"/></g></svg>