<svg xmlns="http://www.w3.org/2000/svg" xmlns:xlink="http://www.w3.org/1999/xlink" width="24" height="24"><defs><path id="a" d="M15.348 16.804c.344 0 .615.264.615.598a.609.609 0 0 1-.615.598H.616A.609.609 0 0 1 0 17.402c0-.334.271-.598.616-.598ZM23.397 6l.578 4.399c.073.585-.012 1.194-.308 1.708-.429.724-1.186 1.266-2.14 1.43v2.767c1.312.214 1.968.48 1.968.8 0 .49-1.157.868-2.584.868-1.428 0-2.585-.379-2.585-.868 0-.32.656-.586 1.97-.8v-2.766c-1.07-.184-1.916-.839-2.29-1.706-.185-.418-.21-.884-.16-1.337L18.436 6h4.96ZM8.037 8.773a.6.6 0 0 1 .615.597v.527c2.967.239 5.538 2.126 6.523 4.875 0 .013.406.85-.566.85H1.478c-.916 0-.567-.85-.567-.85.984-2.749 3.557-4.636 6.511-4.875V9.37c0-.334.282-.597.615-.597Z"/></defs><g fill="none" fill-rule="evenodd"><mask id="b" fill="#fff"><use xlink:href="#a"/></mask><use xlink:href="#a" fill="#0C2340" fill-rule="nonzero"/></g></svg>