<svg xmlns="http://www.w3.org/2000/svg" xmlns:xlink="http://www.w3.org/1999/xlink" width="24" height="24"><defs><path id="a" d="M22.032 13.204v9.188c0 .34-.276.608-.6.608h-8.82v-9.796h9.42Zm-10.62 0V23h-8.82a.606.606 0 0 1-.6-.608v-9.188h9.42Zm0-6.924v5.707H0V6.28h11.412ZM24 6.28v5.707H12.612V6.28H24ZM7.164 3.225c-.768-.329-.9-.876-.912-1.156-.024-.353.12-.67.336-.791.36-.195 1.068.024 1.824.56 1.68 1.192 2.436 2.19 2.772 2.884-.448-.025-1.788-.524-4.02-1.497Zm9.468-1.4c.084 0 .42.305.408.572-.012.22-.12.645-.732.913-1.848.803-2.952 1.25-3.312 1.339.384-.584 1.08-1.363 2.34-2.264.564-.401 1.02-.56 1.296-.56Zm-1.32 3.237c.184-.08.672-.292 1.464-.632 1.26-.56 1.452-1.558 1.464-1.972.036-.706-.288-1.35-.828-1.655-.696-.39-1.68-.182-2.76.584-1.284.925-2.088 1.753-2.568 2.459-.492-.84-1.392-1.875-2.988-3.006C8.316.28 7.56 0 6.912 0c-.336 0-.636.073-.9.219-.624.34-.996 1.095-.96 1.898.024.463.228 1.607 1.644 2.227.872.39 1.416.63 1.632.718h6.984Z"/></defs><g fill="none" fill-rule="evenodd"><mask id="b" fill="#fff"><use xlink:href="#a"/></mask><use xlink:href="#a" fill="#0C2340" fill-rule="nonzero"/></g></svg>