<svg xmlns="http://www.w3.org/2000/svg" xmlns:xlink="http://www.w3.org/1999/xlink" width="24" height="24"><defs><path id="a" d="m10.104 17.203-.084.215a.711.711 0 0 0 .084.705.766.766 0 0 0 .648.335h2.684V23.5H.6a.6.6 0 0 1-.6-.598v-5.699h10.104Zm13.896 0v5.7a.608.608 0 0 1-.6.597h-3.727v-5.042h2.683c.252 0 .492-.12.648-.335a.817.817 0 0 0 .096-.705l-.084-.215H24ZM16.548 7.73c1.02 0 1.932.573 2.364 1.493l.408 1.1v.011l2.244 6.13a.605.605 0 0 1-.564.8h-2.532v5.64a.6.6 0 0 1-1.2 0v-5.64H15.84v5.64a.608.608 0 0 1-.6.597.6.6 0 0 1-.6-.598v-5.639h-2.532a.574.574 0 0 1-.492-.263.543.543 0 0 1-.072-.537l2.628-7.193c.444-.956 1.368-1.541 2.376-1.541Zm-4.81 4.695L10.43 16.01H0v-2.987a.6.6 0 0 1 .6-.598h11.138Zm11.662 0c.324 0 .6.275.6.598v2.987h-1.326l-1.31-3.585H23.4ZM6.252 5.984c2.136 0 3.864 1.637 3.864 3.644v1.147a.6.6 0 0 1-.6.598H3a.608.608 0 0 1-.6-.598V9.628c0-2.007 1.728-3.644 3.852-3.644ZM16.548 2.21c1.356 0 2.448 1.099 2.448 2.437a2.448 2.448 0 1 1-4.896 0 2.445 2.445 0 0 1 2.448-2.437ZM6.264.5c1.344 0 2.448 1.1 2.448 2.45a2.453 2.453 0 0 1-2.448 2.437c-1.356 0-2.46-1.1-2.46-2.438C3.804 1.6 4.908.5 6.264.5Z"/></defs><g fill="none" fill-rule="evenodd"><mask id="b" fill="#fff"><use xlink:href="#a"/></mask><use xlink:href="#a" fill="#0C2340" fill-rule="nonzero"/></g></svg>