<svg xmlns="http://www.w3.org/2000/svg" xmlns:xlink="http://www.w3.org/1999/xlink" width="24" height="24"><defs><path id="a" d="M7.551 0c1.655 0 2.942 1.39 2.942 2.965 0 .649-.184 1.205-.552 1.668h.827c1.103 0 2.336.696 2.38 1.841.024.239.094 6.958.101 7.647l.001.057c0 .556-.184 1.019-.551 1.39-.368.278-.828.463-1.287.463h-.184c-.184 0-.368-.093-.46-.093v6.209A1.85 1.85 0 0 1 8.93 24c-1.011 0-1.838-.463-1.838-1.668v-7.228l.184-.185h.735v7.228c0 .557.368.926.92.926.459 0 .918-.37.918-.926V9.174h.552v4.91c0 .464.275.928.827.928h.092c.276 0 .46-.093.643-.278a.843.843 0 0 0 .276-.65V7.043l-.01-.29c-.092-.648-.725-1.192-1.46-1.192H4.333c-.827 0-1.47.648-1.47 1.39v1.204c-.276.093-.46.278-.644.464-.092.092-.183.278-.275.37V6.95c0-1.205 1.103-2.317 2.39-2.317h.827c-.368-.463-.552-1.02-.552-1.668C4.61 1.297 5.897 0 7.551 0Zm.093 11.676c.091 0 .275 0 .46.185a.71.71 0 0 1 .183.464c0 .185-.092.37-.184.463l-1.93 1.946v8.247c0 .185-.075.741-.735.741-.681 0-.736-.556-.736-.74V19.46h-.367v3.521c0 .185-.075.741-.736.741-.689 0-.735-.556-.735-.74v-8.248l-1.93-1.946a.713.713 0 0 1-.184-.463.71.71 0 0 1 .184-.464c.426-.412 1.01.093 1.01.093l.92.649.92.741H5.07l2.114-1.483c.092-.093.368-.185.46-.185ZM4.51 8.803c.552 0 1.011.185 1.379.556.368.37.551.834.551 1.39 0 .556-.183 1.02-.551 1.39-.368.371-.827.556-1.379.556-.551 0-1.01-.185-1.379-.556-.367-.37-.551-.834-.551-1.39 0-.556.184-1.02.551-1.39.368-.37.828-.556 1.38-.556ZM7.551.927c-1.103 0-2.022.926-2.022 2.038 0 1.112.92 2.039 2.022 2.039 1.103 0 2.022-.927 2.022-2.039S8.654.927 7.551.927Z"/></defs><g fill="none" fill-rule="evenodd" transform="translate(5)"><mask id="b" fill="#fff"><use xlink:href="#a"/></mask><use xlink:href="#a" fill="#333" fill-rule="nonzero"/></g></svg>