<svg xmlns="http://www.w3.org/2000/svg" xmlns:xlink="http://www.w3.org/1999/xlink" width="24" height="24"><defs><path id="a" d="M11.827 4.687c.701 0 1.319.409 1.475 1.074l.026.146v7.405c0 .188-.095.47-.281.657-.188.187-.469.28-.751.28-.518 0-.798-.398-.838-.829l-.005-.108V8.344h-.563v13.781c0 .562-.374.937-.938.937a.942.942 0 0 1-.93-.81l-.007-.127v-7.969h-.75l-.188.189v7.968c0 .47-.186.938-.469 1.218-.374.281-.749.469-1.217.469-.282 0-.658-.093-.938-.28-.281.187-.562.28-.937.28-.47 0-.938-.188-1.22-.469-.245-.328-.42-.655-.46-1.046l-.008-.172v-7.968l-1.687-1.688a1.734 1.734 0 0 1-.47-1.125c0-.469.188-.845.47-1.126.416-.333.758-.444 1.027-.465l.098-.004h.093v-.093c0-.75.282-1.5.844-2.062.15-.15.36-.3.534-.402l.121-.067v-1.22c-.087-.705.49-1.328 1.26-1.399l.147-.007h6.562Zm-3.093 6.094a.714.714 0 0 0-.468.188l-2.157 1.5H4.796l-2.062-1.5a.718.718 0 0 0-.468-.188.716.716 0 0 0-.47.188.718.718 0 0 0-.187.468c0 .188.094.375.188.47l1.875 1.969v8.458c.004.218.027.367.186.448.189.093.376.188.564.188.281 0 .374 0 .562-.188.094-.188.188-.376.188-.563v-3.563h.469v3.678c.003.218.026.367.187.448.188.093.374.188.563.188.28 0 .375 0 .562-.188.094-.188.187-.376.187-.563v-8.343l1.97-1.97s.538-.46.093-.937a.696.696 0 0 0-.469-.188ZM5.508 7.875c-.562 0-1.03.187-1.406.562-.374.375-.562.844-.562 1.407 0 .562.188 1.03.562 1.406.376.375.844.562 1.406.562.563 0 1.032-.187 1.406-.562.376-.375.564-.844.564-1.406 0-.563-.188-1.032-.564-1.407-.374-.375-.843-.562-1.406-.562ZM8.546 0a2.08 2.08 0 0 1 2.063 2.063 2.08 2.08 0 0 1-2.063 2.062 2.08 2.08 0 0 1-2.061-2.062A2.08 2.08 0 0 1 8.546 0Z"/></defs><g fill="none" fill-rule="evenodd" transform="translate(5)"><mask id="b" fill="#fff"><use xlink:href="#a"/></mask><use xlink:href="#a" fill="#333" fill-rule="nonzero"/></g></svg>