<svg xmlns="http://www.w3.org/2000/svg" xmlns:xlink="http://www.w3.org/1999/xlink" width="24" height="24"><defs><path id="a" d="M6.132 14.216c.336 0 .6.266.6.604v7.076a.604.604 0 0 1-.6.604H3.36c-.4 0-.6-.27-.6-.81H.6a.604.604 0 0 1-.6-.603V15.63c0-.338.264-.604.6-.604h2.16c0-.54.2-.809.6-.809Zm14.496 0c.4 0 .6.27.6.81H23.4c.324 0 .6.265.6.603v5.458a.612.612 0 0 1-.6.604h-2.172c0 .54-.2.809-.6.809h-2.772a.604.604 0 0 1-.6-.604V14.82c0-.338.264-.604.6-.604ZM12 1.5c3.708 0 6.816 1.546 8.676 4.045 1.236 1.643 1.932 3.683 1.932 5.99 0 .205-.012.41-.024.628a.613.613 0 0 1-.648.555.622.622 0 0 1-.552-.652c.008-.12.016-.298.024-.531 0-2.379-.852-4.456-2.328-5.99C17.412 3.77 14.916 2.708 12 2.708c-2.928 0-5.412 1.062-7.092 2.837C3.444 7.08 2.58 9.156 2.58 11.535c0 .169.012.35.024.531a.622.622 0 0 1-.552.652h-.048a.603.603 0 0 1-.6-.555c-.012-.217-.024-.423-.024-.628 0-2.307.696-4.347 1.932-5.99C5.184 3.045 8.28 1.5 12 1.5Z"/></defs><g fill="none" fill-rule="evenodd"><mask id="b" fill="#fff"><use xlink:href="#a"/></mask><use xlink:href="#a" fill="#0C2340" fill-rule="nonzero"/></g></svg>