<svg xmlns="http://www.w3.org/2000/svg" xmlns:xlink="http://www.w3.org/1999/xlink" width="24" height="24"><defs><path id="a" d="M11.579 4.789c.421-.275.421-.275.85.01.285.189 3.311 2.16 9.077 5.91.35.25.35.25.35.634v10.893c0 .423-.339.764-.759.764h-5.77a.77.77 0 0 1-.769-.764V14.88H9.44v7.357c0 .423-.34.764-.77.764H2.91a.763.763 0 0 1-.77-.764l.001-10.992c.003-.267.035-.292.35-.535Zm0-3.668c.42-.257.421-.257.85.01.285.177 4.025 2.61 11.217 7.296.36.232.48.716.23 1.065-.28.392-.68.392-1.059.232L11.999 2.689 1.181 9.724c-.372.12-.83.12-1.06-.232a.78.78 0 0 1 .23-1.065l3.4-2.211V1.773c0-.432.339-.773.77-.773H8.35c.42 0 .76.341.76.773v.956Z"/></defs><g fill="none" fill-rule="evenodd"><mask id="b" fill="#fff"><use xlink:href="#a"/></mask><use xlink:href="#a" fill="#0C2340" fill-rule="nonzero"/></g></svg>