<svg xmlns="http://www.w3.org/2000/svg" xmlns:xlink="http://www.w3.org/1999/xlink" width="24" height="24"><defs><path id="a" d="M17 0c.5 0 1 .5 1 1s-.5 1-1 1c0 4.17-2.607 8.658-5.783 9.92L11 12l.217.08C14.393 13.343 17 17.83 17 22c.5 0 1 .5 1 1 0 .464-.431.929-.893.993L17 24H1c-.5 0-1-.5-1-1s.5-1 1-1c0-4.17 2.607-8.658 5.783-9.92L7 12C3.727 10.863 1 6.264 1 2c-.5 0-1-.5-1-1s.5-1 1-1h16ZM9 13.5c-2.5 0-5 2.5-5.5 5.5h11l-.045-.242C13.865 15.867 11.432 13.5 9 13.5ZM15 2H3l.004.298C3.13 7.138 6.345 10.5 9 10.5c2.605 0 6.005-3.5 6-8.5Z"/></defs><g fill="none" fill-rule="evenodd" transform="translate(3)"><mask id="b" fill="#fff"><use xlink:href="#a"/></mask><use xlink:href="#a" fill="#333" fill-rule="nonzero"/></g></svg>