<svg xmlns="http://www.w3.org/2000/svg" xmlns:xlink="http://www.w3.org/1999/xlink" width="24" height="24"><defs><path id="a" d="M17.785 0c.923.009 2.834.092 3.936.609.547.257.863.845.76 1.437a1.327 1.327 0 0 1-1.182 1.097c-.124.013-1.61.222-2.93 1.38a9.91 9.91 0 0 1 2.168 2.583A9.786 9.786 0 0 1 21.849 12c0 4.244-1.994 7.595-5.767 9.698C12.35 23.775 8.052 24 6.374 24c-.84 0-2.925-.06-4.095-.609a1.33 1.33 0 0 1 .422-2.533c.123-.015 1.606-.223 2.926-1.38A9.78 9.78 0 0 1 2.15 12c0-4.244 1.993-7.597 5.768-9.698C11.648.223 15.949 0 17.624 0Zm3.366 1.815C18.615.627 3.49.835 3.49 12c0 3.081 1.651 5.775 4.122 7.259-1.846 2.617-4.763 2.926-4.763 2.926 2.536 1.188 17.66.978 17.66-10.185a8.451 8.451 0 0 0-4.12-7.258l.152-.208c1.85-2.426 4.611-2.719 4.611-2.719Zm-9.15 6.279A3.915 3.915 0 0 1 15.923 12 3.915 3.915 0 0 1 12 15.907 3.915 3.915 0 0 1 8.077 12 3.914 3.914 0 0 1 12 8.094Zm0 1.332A2.586 2.586 0 0 0 9.41 12a2.586 2.586 0 0 0 2.59 2.574A2.585 2.585 0 0 0 14.587 12 2.585 2.585 0 0 0 12 9.426Z"/></defs><g fill="none" fill-rule="evenodd"><mask id="b" fill="#fff"><use xlink:href="#a"/></mask><use xlink:href="#a" fill="#0C2340" fill-rule="nonzero"/></g></svg>