<svg xmlns="http://www.w3.org/2000/svg" xmlns:xlink="http://www.w3.org/1999/xlink" width="24" height="24"><defs><path id="a" d="M12 24c6.627 0 12-5.373 12-12S18.627 0 12 0 0 5.373 0 12s5.373 12 12 12ZM10.7 7.164c0-.776.432-1.164 1.297-1.164.864 0 1.297.388 1.297 1.164 0 .37-.108.658-.324.863-.217.206-.54.309-.973.309-.865 0-1.297-.39-1.297-1.172Zm2.484 10.992h-2.382V9.422h2.382v8.734Z"/></defs><g fill="none" fill-rule="evenodd"><mask id="b" fill="#fff"><use xlink:href="#a"/></mask><use xlink:href="#a" fill="#024"/></g></svg>