<svg xmlns="http://www.w3.org/2000/svg" xmlns:xlink="http://www.w3.org/1999/xlink" width="24" height="24"><defs><path id="a" d="m13.022 15.269.138.138.995 1.002.78.784.119.12.173.174.066.064c.721.73.534 2.016-.15 2.717l-3.157 3.309c-1.219 1.222-2.848-.474-1.664-1.66l2.002-2.015-1.96-1.958 2.658-2.675Zm-7.977 0 2.66 2.675-1.946 1.958 1.999 2.016c1.178 1.185-.452 2.88-1.666 1.659l-3.17-3.309c-.676-.7-.863-1.986-.135-2.717l.96-.972.338-.34.823-.832.12-.121.017-.017Zm4.274-7.33c2.03 0 3.282.421 4.136 1.164.05.043.13.12.235.224l.24.242a283.589 283.589 0 0 1 3.192 3.353c.48.44.507 1.18.057 1.653-.234.246-.553.37-.87.37-.293 0-.585-.102-.814-.313l-2.797-2.561-.049 2.253H5.351L5.3 12.07l-2.796 2.561c-.229.21-.521.313-.813.313-.318 0-.637-.124-.87-.37a1.154 1.154 0 0 1 .056-1.653s2.164-2.308 3.192-3.353l.24-.242c.105-.104.186-.181.235-.224C5.4 8.36 6.651 7.94 8.681 7.94h.638ZM9.15 0c2.01 0 3.64 1.638 3.64 3.66 0 2.032-1.63 3.67-3.64 3.67-2.013 0-3.645-1.638-3.645-3.67A3.652 3.652 0 0 1 9.149 0Z"/></defs><g fill="none" fill-rule="evenodd" transform="translate(3)"><mask id="b" fill="#fff"><use xlink:href="#a"/></mask><use xlink:href="#a" fill="#000" fill-rule="nonzero"/></g></svg>