<svg xmlns="http://www.w3.org/2000/svg" xmlns:xlink="http://www.w3.org/1999/xlink" width="24" height="24"><defs><path id="a" d="M23.376 2.5a.61.61 0 0 1 .624.613v13.974a.618.618 0 0 1-.624.613H12.612v2.573h2.232c.336 0 .612.277.612.614a.615.615 0 0 1-.612.613h-5.7a.615.615 0 0 1-.612-.613c0-.337.276-.614.612-.614h2.232V17.7H.612A.615.615 0 0 1 0 17.087V3.113C0 2.765.276 2.5.612 2.5ZM17.51 6.188a.604.604 0 0 0-.819-.054.558.558 0 0 0-.044.797 4.53 4.53 0 0 1 1.199 3.07 4.55 4.55 0 0 1-1.2 3.07.545.545 0 0 0 .045.787.57.57 0 0 0 .381.142.592.592 0 0 0 .438-.186 5.623 5.623 0 0 0 0-7.626ZM8.5 6.5a3.5 3.5 0 1 0 0 7 3.5 3.5 0 0 0 0-7Zm5.981.696a.555.555 0 0 0-.78-.066.555.555 0 0 0-.065.791 3.24 3.24 0 0 1 0 4.144.564.564 0 0 0 .065.792.495.495 0 0 0 .358.143.552.552 0 0 0 .422-.198A4.404 4.404 0 0 0 15.5 10a4.427 4.427 0 0 0-1.019-2.803ZM8.1 8.1l2 1.5a.5.5 0 0 1 0 .8l-2 1.5a.5.5 0 0 1-.8-.4v-3a.5.5 0 0 1 .8-.4Z"/></defs><g fill="none" fill-rule="evenodd"><mask id="b" fill="#fff"><use xlink:href="#a"/></mask><use xlink:href="#a" fill="#0C2340" fill-rule="nonzero"/></g></svg>