<svg xmlns="http://www.w3.org/2000/svg" xmlns:xlink="http://www.w3.org/1999/xlink" width="24" height="24"><defs><path id="a" d="M5.778 10c.372 0 .683.269.76.628l.015.11.003.062-.005.062V13l-.003.007.004.086-.002.207c.004 2.7 2.511 5.157 5.285 5.256h.315a5.283 5.283 0 0 0 2.023-.493l1.091 1.089a6.895 6.895 0 0 1-2.492.806v2.432h3.498l-.001.013.054.004c.38.053.673.388.673.793 0 .388-.27.712-.627.785L16.27 24H7.73l-.001-.003-.057-.004A.793.793 0 0 1 7 23.2a.79.79 0 0 1 .73-.799v-.01h3.502v-2.433C7.676 19.533 4.996 16.433 5 12.751l.006-.1-.002-1.773L5 10.8c0-.442.348-.8.778-.8ZM2.282.525l.102.091 21 21a1.25 1.25 0 0 1-1.666 1.859l-.102-.091-21-21A1.25 1.25 0 0 1 2.282.525Zm5.72 11.365 4.973 4.975c-1.14.32-2.39.072-3.361-.744a4.115 4.115 0 0 1-1.407-2.179 6.248 6.248 0 0 1-.184-1.269c-.013-.256-.02-.52-.021-.783Zm10.22-1.971a.79.79 0 0 1 .778.8l-.003.03v2.002h-.01c.001.713-.1 1.405-.287 2.06l-1.263-1.264.003-.153-.001-2.666.005-.005c0-.446.349-.804.778-.804ZM11.994 0c1.765 0 3.313 1.25 3.787 3.059.111.414.18.839.207 1.269l.01.33-.002 1.41-.008 1.06v4.093c0 .285 0 .58-.006.872L8.011 4.122l.003-.053a4.78 4.78 0 0 1 .125-.762l.068-.248C8.681 1.25 10.23 0 11.994 0Z"/></defs><g fill="none" fill-rule="evenodd"><mask id="b" fill="#fff"><use xlink:href="#a"/></mask><use xlink:href="#a" fill="#333"/></g></svg>