<svg xmlns="http://www.w3.org/2000/svg" xmlns:xlink="http://www.w3.org/1999/xlink" width="24" height="24"><defs><path id="a" d="M13.222 9.919a.79.79 0 0 1 .778.8l-.003.03v2.002h-.01c.003 3.675-2.668 6.772-6.215 7.207v2.432h3.498l-.001.013.054.004c.38.053.673.388.673.793 0 .388-.27.712-.627.785L11.27 24H2.73l-.001-.003-.057-.004A.793.793 0 0 1 2 23.2a.79.79 0 0 1 .73-.799v-.01h3.502v-2.433C2.676 19.533-.004 16.433 0 12.751l.006-.1-.002-1.773A.79.79 0 0 1 .778 10c.372 0 .683.269.76.628l.015.11.003.062-.005.062V13l-.003.007.004.086-.002.207c.004 2.7 2.511 5.157 5.285 5.256h.315c2.775-.097 5.29-2.556 5.29-5.162l-.001-2.666.005-.005c0-.446.349-.804.778-.804ZM6.994 0c1.765 0 3.313 1.25 3.787 3.059.111.414.18.839.207 1.269.007.126.01.36.012.641v.453c-.002.635-.01 1.354-.012 1.705v4.094c0 .476 0 .977-.024 1.452-.018.429-.08.854-.184 1.27a4.145 4.145 0 0 1-1.406 2.178 3.664 3.664 0 0 1-4.76 0 4.115 4.115 0 0 1-1.407-2.179 6.248 6.248 0 0 1-.184-1.269C2.998 12.198 3 11.697 3 11.221V5.74l.001-.233V4.413L3 4.328c.012-.432.082-.86.207-1.27C3.681 1.252 5.23 0 6.994 0Z"/></defs><g fill="none" fill-rule="evenodd" transform="translate(5)"><mask id="b" fill="#fff"><use xlink:href="#a"/></mask><use xlink:href="#a" fill="#333"/></g></svg>