<svg xmlns="http://www.w3.org/2000/svg" width="24" height="24"><g fill="none" fill-rule="evenodd" transform="translate(2)"><polygon fill="#25282A" points="0 0 0 24 10.0005533 20.4253313 20 24 20 0"/><g fill="#FFF"><path d="M7.807 14.681a3.585 3.585 0 0 1-1.319.257c-.563 0-1.065-.103-1.509-.31a3.405 3.405 0 0 1-1.128-.832 3.633 3.633 0 0 1-.707-1.204 4.178 4.178 0 0 1-.243-1.414c0-.545.076-1.063.227-1.555a3.82 3.82 0 0 1 .675-1.294c.3-.37.672-.665 1.118-.885.447-.22.97-.33 1.567-.33.408 0 .793.048 1.155.142.362.094.686.242.97.445.286.203.525.459.718.77.193.31.325.686.396 1.125H8.724a1.948 1.948 0 0 0-.274-.738 1.762 1.762 0 0 0-.496-.508 2.21 2.21 0 0 0-.67-.298 3.1 3.1 0 0 0-.796-.1c-.457 0-.85.091-1.176.273-.327.181-.595.42-.802.717a3.12 3.12 0 0 0-.459 1.016 4.64 4.64 0 0 0-.148 1.167c0 .392.057.767.17 1.126.112.36.277.678.495.953.218.276.487.496.807.66.32.164.691.246 1.113.246.394 0 .742-.062 1.044-.188.303-.126.558-.299.765-.518a2.18 2.18 0 0 0 .47-.776c.105-.296.15-.616.137-.958H6.499v-.838H9.8v3.938h-.633l-.264-.932a2.499 2.499 0 0 1-1.097.843M15.049 8.314c-.334-.241-.762-.362-1.282-.362-.211 0-.419.021-.622.063a1.665 1.665 0 0 0-.544.21 1.105 1.105 0 0 0-.38.392 1.208 1.208 0 0 0-.142.613c0 .23.069.417.206.56.137.143.32.26.548.351.229.09.487.166.776.225.288.06.582.124.88.194.3.07.593.152.881.246.289.094.547.222.776.382.228.161.411.363.548.608.138.244.206.551.206.921 0 .398-.09.739-.269 1.022-.18.282-.41.513-.69.69a3.02 3.02 0 0 1-.945.388 4.61 4.61 0 0 1-2.237-.036 2.962 2.962 0 0 1-.991-.477 2.26 2.26 0 0 1-.675-.817c-.166-.331-.248-.724-.248-1.178h.95c0 .314.06.585.184.812.123.227.285.413.485.56.2.146.434.255.702.325.267.07.541.104.822.104.226 0 .452-.02.68-.063.23-.041.435-.113.618-.214.183-.101.33-.24.443-.414.113-.174.169-.398.169-.67 0-.258-.069-.468-.206-.629a1.514 1.514 0 0 0-.548-.392 4.068 4.068 0 0 0-.776-.246l-.88-.194a11.944 11.944 0 0 1-.882-.23 3.2 3.2 0 0 1-.775-.346 1.661 1.661 0 0 1-.548-.555c-.138-.227-.206-.512-.206-.854 0-.377.077-.703.232-.979a2.02 2.02 0 0 1 .617-.68c.257-.179.549-.311.876-.399a3.89 3.89 0 0 1 1.007-.13c.387 0 .745.045 1.076.136.33.09.62.234.87.429.25.196.447.442.591.738.144.297.224.651.238 1.063h-.95c-.056-.537-.251-.926-.585-1.167"/></g></g></svg>