<svg xmlns="http://www.w3.org/2000/svg" width="24" height="24"><g fill="none" fill-rule="evenodd" transform="translate(2)"><polygon fill="#C1C6C8" points="0 0 0 24 10.0004427 20.425364 20 24 20 0"/><path fill="#333" d="M11.045 8.31c-.334-.238-.761-.357-1.281-.357-.211 0-.419.02-.623.062-.204.041-.385.11-.543.207a1.1 1.1 0 0 0-.38.39 1.188 1.188 0 0 0-.142.607c0 .228.068.413.205.555.137.142.32.258.549.348.228.09.487.164.775.223.289.059.582.123.881.192.3.069.593.15.881.244.288.093.547.22.775.378.229.16.412.36.549.602.137.243.206.547.206.914 0 .394-.09.731-.27 1.012-.179.28-.41.508-.69.685a3.035 3.035 0 0 1-.944.384 4.65 4.65 0 0 1-2.237-.037 2.973 2.973 0 0 1-.992-.472 2.245 2.245 0 0 1-.675-.81c-.165-.328-.248-.717-.248-1.167h.95c0 .311.061.58.184.804.123.225.285.41.486.556.2.145.434.252.701.321.267.07.542.104.823.104a3.8 3.8 0 0 0 .68-.062c.23-.042.435-.113.618-.213.182-.1.33-.237.443-.41.112-.173.169-.394.169-.664 0-.256-.07-.464-.206-.623a1.514 1.514 0 0 0-.549-.39 4.095 4.095 0 0 0-.775-.243l-.881-.192a12.032 12.032 0 0 1-.88-.228 3.214 3.214 0 0 1-.776-.343 1.654 1.654 0 0 1-.549-.55c-.137-.225-.206-.507-.206-.846 0-.373.078-.697.232-.97.155-.273.36-.498.618-.675.256-.176.548-.308.875-.394.327-.086.663-.13 1.008-.13.387 0 .745.045 1.076.135.33.09.62.232.87.426.25.193.447.437.59.731.145.294.224.646.238 1.054h-.95c-.055-.533-.25-.919-.585-1.157"/></g></svg>