<svg xmlns="http://www.w3.org/2000/svg" width="24" height="24"><g fill="none" fill-rule="evenodd" transform="translate(2)"><polygon fill="#7C848A" points="0 0 0 24 10.0004427 20.425364 20 24 20 0"/><path fill="#FFF" d="M10.238 10.373c.57.007.987-.107 1.25-.343.264-.235.396-.574.396-1.017 0-.442-.132-.78-.396-1.012-.263-.231-.68-.347-1.25-.347H8.276v2.719h1.962Zm.338-3.55c.76 0 1.334.193 1.725.576.39.384.585.923.585 1.614 0 .692-.195 1.232-.585 1.62-.39.387-.966.577-1.725.57h-2.3v3.03H7.274v-7.41h3.302Z"/></g></svg>