<svg xmlns="http://www.w3.org/2000/svg" xmlns:xlink="http://www.w3.org/1999/xlink" width="24" height="24"><defs><path id="a" d="M23.26 1.5c.41 0 .74.337.74.755v19.49c0 .418-.33.755-.74.755H.73a.738.738 0 0 1-.73-.755V2.255C0 1.837.32 1.5.73 1.5Zm-.73 16.198H19.3v3.3h3.23v-3.3Zm-17.84 0H1.46v3.3h3.23v-3.3Zm17.84-4.947H19.3v3.443h3.23v-3.443Zm-17.84 0H1.46v3.443h3.23v-3.443Zm7.3-4.589c-.44 0-.85.071-1.24.215a3.845 3.845 0 0 0-2.4 2.709c-.07.295-.11.602-.11.908 0 .307.04.625.11.91.39 1.687 1.88 2.934 3.64 2.934 1.39 0 2.61-.778 3.26-1.922.32-.563.5-1.216.5-1.922 0-.695-.18-1.348-.5-1.91a3.781 3.781 0 0 0-2.01-1.707 3.604 3.604 0 0 0-1.25-.215Zm-.39 1.939 2 1.5a.5.5 0 0 1 0 .8l-2 1.5a.5.5 0 0 1-.8-.4v-3a.5.5 0 0 1 .8-.4Zm10.93-2.297H19.3v3.445h3.23V7.804Zm-17.84 0H1.46v3.445h3.23V7.804Zm17.84-4.802H19.3v3.301h3.23v-3.3Zm-17.84 0H1.46v3.301h3.23v-3.3Z"/></defs><g fill="none" fill-rule="evenodd"><mask id="b" fill="#fff"><use xlink:href="#a"/></mask><use xlink:href="#a" fill="#0C2340" fill-rule="nonzero"/></g></svg>