<svg xmlns="http://www.w3.org/2000/svg" xmlns:xlink="http://www.w3.org/1999/xlink" width="24" height="24"><defs><path id="a" d="M5.729 12.123a5.65 5.65 0 0 1 4.052 1.74c.362.377.678.804.932 1.265l.056.104.115-.023c.26-.051.525-.078.791-.078 1.688 0 3.15 1.026 3.847 2.505a4.598 4.598 0 0 1 .429 1.93 4.49 4.49 0 0 1-1.898 3.687 4.24 4.24 0 0 1-1.233.579 4.08 4.08 0 0 1-1.145.168c-.97 0-1.88-.329-2.64-.949l-.088-.07-.097.061A5.543 5.543 0 0 1 5.73 24c-1.53 0-2.966-.617-4.05-1.74A6.01 6.01 0 0 1 0 18.061a6 6 0 0 1 1.681-4.199 5.577 5.577 0 0 1 4.006-1.738Zm0 1.267c-2.485 0-4.507 2.095-4.507 4.671 0 2.578 2.022 4.674 4.507 4.674 1.213 0 2.35-.496 3.207-1.387l.124-.13.1.15a3.025 3.025 0 0 0 2.515 1.367 2.979 2.979 0 0 0 1.967-.749 3.21 3.21 0 0 0 1.09-2.42c0-.032-.005-.06-.005-.09a3.207 3.207 0 0 0-.434-1.531c-.533-.926-1.506-1.549-2.618-1.549-.5 0-.992.127-1.432.37l-.159.086-.05-.174a4.647 4.647 0 0 0-2.444-2.861 4.338 4.338 0 0 0-1.715-.421c-.05-.002-.096-.006-.146-.006ZM12.704.014a1.398 1.398 0 0 1 1.342.595c.323.48.311 1.121-.02 1.591a7.836 7.836 0 0 0-1.399 5.689c.607 4.296 4.585 7.296 8.867 6.687a7.39 7.39 0 0 0 .788-.153.907.907 0 0 1 .14-.029c.52-.073 1.046.16 1.341.599a1.4 1.4 0 0 1-.023 1.59 10.474 10.474 0 0 1-5.969 4.074c.038-.277.06-.56.06-.844 0-.155-.011-.31-.022-.46a9.237 9.237 0 0 0 4.92-3.501l.22-.306-.366.092c-.3.075-.61.134-.912.176-4.966.706-9.576-2.77-10.28-7.75a9.11 9.11 0 0 1 1.62-6.593l.217-.306-.365.09c-4.304 1.065-7.184 4.95-7.089 9.298h-.036a7.363 7.363 0 0 0-1.201.115C4.392 5.705 7.658 1.256 12.567.042c.044-.012.09-.02.137-.028Z"/></defs><g fill="none" fill-rule="evenodd"><mask id="b" fill="#fff"><use xlink:href="#a"/></mask><use xlink:href="#a" fill="#0C2340" fill-rule="nonzero"/></g></svg>