<svg xmlns="http://www.w3.org/2000/svg" xmlns:xlink="http://www.w3.org/1999/xlink" width="24" height="24"><defs><path id="a" d="m13.6 12.4-2 1.5a.5.5 0 0 1-.8-.4v-3a.5.5 0 0 1 .8-.4l2 1.5a.5.5 0 0 1 0 .8ZM2.352 10.474v1.995a.376.376 0 0 1-.372.377.374.374 0 0 1-.36-.377v-1.995a.366.366 0 0 1 .732 0m0 3.053a.366.366 0 0 1-.732 0c0-.206.168-.377.36-.377.204 0 .372.17.372.377M0 16.47C0 17.869 1.128 19 2.508 19h1.464V5H2.508C1.128 5 0 6.131 0 7.53v8.94Zm21.024-4.464a1 1 0 0 1 .996-1.01 1 1 0 0 1 .996 1.01.998.998 0 0 1-.996.998.998.998 0 0 1-.996-.998ZM20.04 19h1.464C22.884 19 24 17.869 24 16.47V7.53C24 6.131 22.884 5 21.504 5H20.04v14ZM13.896 8.661a3.879 3.879 0 0 1 1.908 3.345c0 1.813-1.236 3.333-2.904 3.734a3.722 3.722 0 0 1-1.8 0c-1.248-.304-2.256-1.253-2.676-2.457a3.753 3.753 0 0 1-.216-1.277c0-.45.072-.876.216-1.277.3-.876.9-1.618 1.68-2.068A3.755 3.755 0 0 1 12 8.151a3.69 3.69 0 0 1 1.896.51ZM5.172 19H18.84V5H5.172v14Z"/></defs><g fill="none" fill-rule="evenodd"><mask id="b" fill="#fff"><use xlink:href="#a"/></mask><use xlink:href="#a" fill="#0C2340" fill-rule="nonzero"/></g></svg>