<svg xmlns="http://www.w3.org/2000/svg" xmlns:xlink="http://www.w3.org/1999/xlink" width="24" height="24"><defs><path id="a" d="M12.01 10.38c1.488 0 2.808 1.108 3.3 2.759.012.024.024.06.024.084.024.084.048.169.084.253.48 1.458 1.44 2.65 2.448 3.048 1.272.506 2.088 1.627 2.088 2.856 0 1.722-1.584 3.12-3.528 3.12H7.569c-1.932 0-3.516-1.398-3.516-3.12 0-1.278.864-2.41 2.196-2.892.96-.422 1.884-1.578 2.352-3l.048-.145c.432-1.747 1.812-2.964 3.36-2.964Zm5.657-.905c1.041-2.041 2.93-3.014 4.219-2.172 1.288.842 1.489 3.18.447 5.222-1.041 2.041-2.93 3.014-4.219 2.172-1.288-.842-1.489-3.18-.447-5.222ZM2.114 7.303c1.289-.842 3.178.13 4.22 2.172 1.04 2.042.84 4.38-.448 5.222-1.289.842-3.178-.13-4.22-2.172-1.04-2.042-.84-4.38.448-5.222Zm5.333-5.231c1.55-.415 3.28 1.007 3.861 3.176.582 2.17-.204 4.265-1.755 4.68-1.55.415-3.28-1.007-3.861-3.176-.582-2.17.204-4.265 1.755-4.68Zm5.245 3.176c.582-2.17 2.31-3.591 3.861-3.176 1.551.415 2.337 2.51 1.755 4.68-.582 2.17-2.31 3.591-3.861 3.176-1.551-.415-2.337-2.51-1.755-4.68Z"/></defs><g fill="none" fill-rule="evenodd"><mask id="b" fill="#fff"><use xlink:href="#a"/></mask><use xlink:href="#a" fill="#0C2340" fill-rule="nonzero"/></g></svg>