<svg xmlns="http://www.w3.org/2000/svg" xmlns:xlink="http://www.w3.org/1999/xlink" width="24" height="24"><defs><path id="a" d="M21.39 8.23a.516.516 0 0 1 .018.73.487.487 0 0 1-.246.132l-4.285.282-3.535 3.536-1.015 6.57c-.066.274-.307.394-.585.315-.088-.025-.122-.122-.188-.188L8.04 16.092l-6.767 5.324a.46.46 0 0 1-.656-.023c-.184-.184-.234-.47-.055-.688l5.356-6.735-3.515-3.516c-.207-.206-.3-.446-.103-.643a.487.487 0 0 1 .23-.129l6.57-1.015 3.536-3.536.281-4.284a.49.49 0 0 1 .61-.373.547.547 0 0 1 .252.144l7.613 7.612Z"/></defs><g fill="none" fill-rule="evenodd" transform="translate(1 1)"><mask id="b" fill="#fff"><use xlink:href="#a"/></mask><use xlink:href="#a" fill="#D8D8D8"/></g></svg>