<svg xmlns="http://www.w3.org/2000/svg" xmlns:xlink="http://www.w3.org/1999/xlink" width="24" height="24"><defs><path id="a" d="M5.911 24h1.471a.86.86 0 0 0 .722-.374l6.855-9.125 7.522-.781c.148-.021.536-.313 1.165-.876a1.259 1.259 0 0 0 0-1.75c-.629-.563-1.017-.854-1.165-.875l-7.522-.78L8.131.374C7.937.125 7.687 0 7.411 0H5.938l3.08 9.906-5.855.407-2.193-2.25C.916 8 .592 7.948 0 7.906l1.25 4.125L0 16.094c.555-.042.87-.094.943-.157l2.193-2.249 5.856.406L5.912 24Z"/></defs><g fill="none" fill-rule="evenodd"><mask id="b" fill="#fff"><use xlink:href="#a"/></mask><use xlink:href="#a" fill="#0C2340" fill-rule="nonzero"/></g></svg>