<svg xmlns="http://www.w3.org/2000/svg" xmlns:xlink="http://www.w3.org/1999/xlink" width="24" height="24"><defs><path id="a" d="M12 0c6.627 0 12 5.373 12 12s-5.373 12-12 12S0 18.627 0 12 5.373 0 12 0Zm0 4-.097.005-.095.013c-.465.09-.816.499-.816.99v5.984H5.008l-.097.005C4.4 11.045 4 11.476 4 12l.005.097.013.095c.09.465.499.816.99.816h5.984v5.984l.005.097c.048.511.479.911 1.003.911l.097-.005.095-.013c.465-.09.816-.499.816-.99v-5.984h5.984l.097-.005C19.6 12.955 20 12.524 20 12l-.005-.097-.013-.095a1.008 1.008 0 0 0-.99-.816h-5.984V5.008l-.005-.097A1.008 1.008 0 0 0 12 4Z"/></defs><g fill="none" fill-rule="evenodd"><mask id="b" fill="#fff"><use xlink:href="#a"/></mask><use xlink:href="#a" fill="#333"/></g></svg>