<svg xmlns="http://www.w3.org/2000/svg" xmlns:xlink="http://www.w3.org/1999/xlink" width="24" height="24"><defs><path id="a" d="M5.82 22.208c.496-.002.897.4.894.892a.905.905 0 0 1-.9.9.891.891 0 0 1-.9-.893.907.907 0 0 1 .906-.899Zm7.936-17.772c1.085 0 2.26.478 2.802 1.265l2.052 3.215 2.363.542c.491.103.8.594.697 1.085v.013a.92.92 0 0 1-.89.71c-.065 0-.13 0-.194-.013 0 0-2.93-.697-3.02-.748a1.135 1.135 0 0 1-.31-.298l-1.124-1.782-.801 4.183 1.34 3.107.215.5 2.371 5.494.012.028c.22.554-.051 1.2-.619 1.432h-.013a1.124 1.124 0 0 1-1.447-.607l-2.633-5.9-.4 2.118-.555 3.64c-.078.543-.556.93-1.085.93h-.168l-.027-.013a1.115 1.115 0 0 1-.928-1.252l1.354-8.856c-.554-.388-1.328-1.06-1.238-1.77l.53-4.028-2.79 1.704-.864 3.224-1.718 9.726a1.282 1.282 0 0 0-.892-.348c-.735 0-1.33.606-1.33 1.33 0 .322.117.618.31.851l-2.284-.27a1.17 1.17 0 0 1-.75-.44 1.089 1.089 0 0 1-.207-.839l1.37-7.32c.076-.58.632-.995 1.264-.942l2.544.426s.274-1.48.412-2.202l.044-.231c.019-.094.03-.15.033-.157a.89.89 0 0 1-.423-1.026s.955-3.046 1.084-3.176c0 0 4.454-3.008 4.997-3.176.283-.077.594-.129.916-.129ZM15.344 0c1.047 0 1.898.852 1.898 1.911 0 1.045-.851 1.91-1.898 1.91-1.06 0-1.91-.865-1.91-1.91 0-1.06.85-1.911 1.91-1.911Z"/></defs><g fill="none" fill-rule="evenodd"><mask id="b" fill="#fff"><use xlink:href="#a"/></mask><use xlink:href="#a" fill="#0C2340" fill-rule="nonzero"/></g></svg>