<svg xmlns="http://www.w3.org/2000/svg" xmlns:xlink="http://www.w3.org/1999/xlink" width="24" height="24"><defs><path id="a" d="M12 24c6.627 0 12-5.373 12-12S18.627 0 12 0 0 5.373 0 12s5.373 12 12 12Zm.55-5.07v-1.602c1.079-.099 1.917-.4 2.516-.902.6-.503.899-1.168.899-1.996 0-.459-.1-.86-.3-1.203-.201-.344-.517-.66-.946-.946-.43-.286-1.153-.625-2.168-1.015V8.96a8.445 8.445 0 0 1 2.5.61l.734-1.829c-.963-.427-2.042-.666-3.234-.719V5.86h-1.07v1.196c-1.058.104-1.882.4-2.473.886-.591.487-.887 1.108-.887 1.864 0 .703.215 1.293.645 1.77.43.476 1.16.917 2.191 1.323l.523.204v2.421a8.757 8.757 0 0 1-1.707-.304 9.001 9.001 0 0 1-1.636-.594v2.063c.958.421 2.073.645 3.343.671v1.57h1.07Zm-1.07-8.102c-.354-.156-.61-.308-.77-.457a.741.741 0 0 1-.237-.566c0-.443.336-.714 1.007-.813v1.836Zm1.07 4.64v-1.945c.355.162.62.318.798.47a.702.702 0 0 1 .265.554c0 .495-.354.802-1.062.922Z"/></defs><g fill="none" fill-rule="evenodd"><mask id="b" fill="#fff"><use xlink:href="#a"/></mask></g></svg>