<svg xmlns="http://www.w3.org/2000/svg" xmlns:xlink="http://www.w3.org/1999/xlink" width="24" height="24"><defs><path id="a" d="M19.5 1.5c.42 0 .756.343.756.772v4.536h2.052c.936 0 1.692.785 1.692 1.741v8.606c0 .956-.756 1.74-1.692 1.74h-2.052v2.833c0 .429-.336.772-.756.772H4.512a.761.761 0 0 1-.756-.772v-2.832H1.704C.768 18.896 0 18.11 0 17.155V8.549c0-.956.768-1.74 1.704-1.74h2.052V2.271c0-.429.336-.772.756-.772Zm-.756 13.767H5.268v5.688h13.476v-5.688Zm-2.988 3.322c.42 0 .756.344.756.773 0 .429-.336.772-.756.772h-7.5a.761.761 0 0 1-.756-.772c0-.43.336-.773.756-.773Zm0-2.489c.42 0 .756.344.756.773 0 .429-.336.772-.756.772h-7.5a.761.761 0 0 1-.756-.772c0-.43.336-.773.756-.773Zm4.212-7.113c-1.052 0-1.913.868-1.913 1.953 0 1.075.86 1.952 1.913 1.952 1.051 0 1.912-.877 1.912-1.952 0-1.085-.86-1.953-1.912-1.953Zm-1.224-5.942H5.268v3.763h13.476V3.045Z"/></defs><g fill="none" fill-rule="evenodd"><mask id="b" fill="#fff"><use xlink:href="#a"/></mask><use xlink:href="#a" fill="#0C2340" fill-rule="nonzero"/></g></svg>