<svg xmlns="http://www.w3.org/2000/svg" xmlns:xlink="http://www.w3.org/1999/xlink" width="24" height="24"><defs><path id="a" d="M21.528 9.38C21.396 4.321 17.424.5 12 .5S2.616 4.321 2.472 9.38c0 .016-.624.016-1.872 0a.61.61 0 0 0-.6.601v4.843c0 .324.276.6.6.6h1.872c0 .325.264.722.6.722h2.472a.61.61 0 0 0 .6-.601V9.26a.61.61 0 0 0-.6-.6H3.708C4.104 4.585 7.464 1.701 12 1.701s7.896 2.884 8.292 6.957h-1.836a.61.61 0 0 0-.6.601v6.285c0 .324.276.6.6.6h1.812c-.168 1.178-.672 2.26-1.524 3.233-.864 1.01-2.124 1.586-3.492 1.695-.42-.673-1.476-1.142-2.796-1.142-1.692 0-2.976.77-2.976 1.79 0 1.01 1.284 1.779 2.976 1.779 1.368 0 2.436-.493 2.82-1.202 1.716-.12 3.288-.877 4.38-2.127 1.188-1.382 1.824-3.004 1.872-4.746H23.4c.336 0 .6-.277.6-.601V9.98c0-.324-.264-.6-.6-.6-1.248.015-1.872.015-1.872 0Z"/></defs><g fill="none" fill-rule="evenodd"><mask id="b" fill="#fff"><use xlink:href="#a"/></mask><use xlink:href="#a" fill="#0C2340" fill-rule="nonzero"/></g></svg>