<svg xmlns="http://www.w3.org/2000/svg" xmlns:xlink="http://www.w3.org/1999/xlink" width="24" height="24"><defs><path id="a" d="M12 24c6.627 0 12-5.373 12-12S18.627 0 12 0 0 5.373 0 12s5.373 12 12 12Zm.41-9.79v-.468c0-.312.067-.565.2-.758.132-.192.449-.474.949-.843.729-.521 1.224-.99 1.484-1.407.26-.416.39-.911.39-1.484 0-.86-.316-1.547-.949-2.063-.632-.515-1.485-.773-2.558-.773a7.443 7.443 0 0 0-3.696.977l.852 1.71c1-.51 1.89-.765 2.672-.765.448 0 .797.088 1.047.266.25.177.375.434.375.773 0 .302-.087.576-.262.82-.174.245-.535.563-1.082.953-.568.417-.958.81-1.172 1.18-.213.37-.32.805-.32 1.305v.578h2.07Zm-.945 4c.427 0 .76-.118 1-.355s.36-.56.36-.972c0-.427-.12-.755-.356-.985-.237-.229-.572-.343-1.004-.343-.448 0-.79.112-1.024.336-.234.224-.351.554-.351.992 0 .422.12.749.36.98.239.232.577.348 1.015.348Z"/></defs><g fill="none" fill-rule="evenodd"><mask id="b" fill="#fff"><use xlink:href="#a"/></mask></g></svg>