<svg xmlns="http://www.w3.org/2000/svg" xmlns:xlink="http://www.w3.org/1999/xlink" width="24" height="24"><defs><path id="a" d="m12 11.116 3.624 6.392A4.258 4.258 0 0 1 12 24a4.26 4.26 0 0 1-3.627-6.492L12 11.116ZM8.555 0c2.287 0 4.432.89 6.049 2.505a8.485 8.485 0 0 1 1.395 1.824l.164.289.328-.062c.389-.07.788-.108 1.178-.108 3.488 0 6.331 2.84 6.331 6.33a6.319 6.319 0 0 1-3.303 5.545l-.738-1.164.021-.054a4.912 4.912 0 0 0 2.601-4.328 4.918 4.918 0 0 0-7.215-4.34 7.162 7.162 0 0 0-6.811-5.015A7.14 7.14 0 0 0 1.42 8.555a7.124 7.124 0 0 0 3.037 5.828L3.87 15.71a8.698 8.698 0 0 1-1.364-1.11A8.5 8.5 0 0 1 0 8.556c0-2.286.892-4.434 2.506-6.05A8.505 8.505 0 0 1 8.556 0Z"/></defs><g fill="none" fill-rule="evenodd"><mask id="b" fill="#fff"><use xlink:href="#a"/></mask><use xlink:href="#a" fill="#0C2340" fill-rule="nonzero"/></g></svg>