<svg xmlns="http://www.w3.org/2000/svg" xmlns:xlink="http://www.w3.org/1999/xlink" width="24" height="24"><defs><path id="a" d="M18.715 13.215a1 1 0 0 1 2 0v6.813a1 1 0 0 1-1 1H1a1 1 0 0 1-1-1V1.4a1 1 0 0 1 1-1h6.87a1 1 0 1 1 0 2H2v16.628h16.715v-5.813Zm-4.06.688a1 1 0 0 1 0 2H6.143a1 1 0 0 1-1-1V6.375a1 1 0 1 1 2 0v6.121L18.305 1.294a1 1 0 0 1 1.417 1.412L8.564 13.903h6.092Z"/></defs><g fill="none" fill-rule="evenodd" transform="translate(0 3)"><mask id="b" fill="#fff"><use xlink:href="#a"/></mask><use xlink:href="#a" fill="#0C2340" fill-rule="nonzero"/></g></svg>