<svg xmlns="http://www.w3.org/2000/svg" xmlns:xlink="http://www.w3.org/1999/xlink" width="24" height="24"><defs><path id="a" d="M17.616 6.319v15.36A1.32 1.32 0 0 1 16.296 23H7.692c-.72 0-1.32-.595-1.32-1.32V6.318h11.244ZM12 9.899a.524.524 0 0 0-.228.049h-.012a.686.686 0 0 0-.264.214l-3.72 3.676a.593.593 0 0 0 .432 1.012c.144 0 .3-.06.42-.179l2.772-2.748v6.9a.6.6 0 0 0 1.2 0v-6.888l2.76 2.736c.12.12.276.179.432.179.156 0 .3-.06.42-.179a.572.572 0 0 0 0-.833l-3.72-3.676-.072-.084a.503.503 0 0 0-.192-.13A.524.524 0 0 0 12 9.9ZM22.056 1C23.136 1 24 1.869 24 2.928v9.078a1.935 1.935 0 0 1-1.944 1.927h-3.24V9.805h.768c.9 0 1.62-.714 1.62-1.595V6.723c0-.88-.72-1.594-1.62-1.594H4.404c-.9 0-1.608.702-1.608 1.594V8.21c0 .893.708 1.595 1.608 1.595h.768v4.128h-3.24A1.933 1.933 0 0 1 0 12.006V2.928C0 1.868.864 1 1.932 1ZM5.172 6.319v2.296h-.768a.403.403 0 0 1-.408-.405V6.723c0-.226.18-.404.408-.404h.768Zm14.412 0c.24 0 .42.178.42.404V8.21c0 .226-.18.405-.42.405h-.768V6.319Z"/></defs><g fill="none" fill-rule="evenodd"><mask id="b" fill="#fff"><use xlink:href="#a"/></mask><use xlink:href="#a" fill="#0C2340" fill-rule="nonzero"/></g></svg>