<svg xmlns="http://www.w3.org/2000/svg" xmlns:xlink="http://www.w3.org/1999/xlink" width="24" height="24"><defs><path id="a" d="M6.629 5.555c.743 0 1.091.622 1.091.857l1.493 5.378a.693.693 0 0 1-.48.845.677.677 0 0 1-.834-.479L6.636 7.618h-.474L8.2 15.432H6.751v5.763a.818.818 0 1 1-1.636 0v-5.763h-.86v5.763a.82.82 0 0 1-.823.822.814.814 0 0 1-.811-.822v-5.763h-1.61l2.03-7.82-.445.006-1.254 4.538a.685.685 0 0 1-.841.479.687.687 0 0 1-.476-.845l1.49-5.378a1.136 1.136 0 0 1 1.125-.857Zm6.244-3.939V21.85h-1.355V1.616h1.355Zm9.821 3.782c.644 0 1.306.441 1.306 1.333v6.39c0 .62-.376.84-.835.84-.461 0-.7-.385-.7-.84V8.2h-.53V20.99a.833.833 0 1 1-1.667 0v-7.163h-.825v7.163c0 .456-.38.834-.843.834a.836.836 0 0 1-.831-.834V8.2h-.525l.016 4.9c0 .46-.265.84-.715.84-.465 0-.783-.2-.842-.84V6.68c0-.707.575-1.281 1.279-1.281ZM4.705 1.408c1.002 0 1.82.81 1.82 1.807a1.816 1.816 0 0 1-3.631 0c0-.997.815-1.807 1.811-1.807ZM19.83 1.25c.99 0 1.804.81 1.804 1.81a1.811 1.811 0 0 1-3.624 0c0-1 .813-1.81 1.82-1.81Z"/></defs><g fill="none" fill-rule="evenodd"><mask id="b" fill="#fff"><use xlink:href="#a"/></mask><use xlink:href="#a" fill="#0C2340" fill-rule="nonzero"/></g></svg>