<svg xmlns="http://www.w3.org/2000/svg" xmlns:xlink="http://www.w3.org/1999/xlink" width="24" height="24"><defs><path id="a" d="M.75 17.279a.75.75 0 0 1 .75.75v3.558c0 .457.335.835.773.902l.14.011H6.45a.75.75 0 1 1 0 1.5H1.92A1.92 1.92 0 0 1 0 22.08v-4.051a.75.75 0 0 1 .75-.75Zm22.5 0a.75.75 0 0 1 .75.75v4.051c0 1.06-.86 1.92-1.92 1.92h-4.53a.75.75 0 1 1 0-1.5h4.037a.913.913 0 0 0 .902-.773l.011-.14v-3.558a.75.75 0 0 1 .75-.75Zm-5.583-.612a1.667 1.667 0 1 1 0 3.333 1.667 1.667 0 0 1 0-3.333Zm-11.334 0a1.667 1.667 0 1 1 0 3.333 1.667 1.667 0 0 1 0-3.333ZM18.667 4C19.403 4 20 4.597 20 5.333v9.334c0 .736-.597 1.333-1.333 1.333H5.333A1.333 1.333 0 0 1 4 14.667V5.333C4 4.597 4.597 4 5.333 4h13.334Zm3.413-4C23.14 0 24 .86 24 1.92v5.009a.75.75 0 1 1-1.5 0V2.413a.913.913 0 0 0-.885-.913H17.55a.75.75 0 0 1 0-1.5h4.53ZM6.45 0a.75.75 0 0 1 0 1.5H2.413a.913.913 0 0 0-.913.885v4.544a.75.75 0 0 1-1.5 0V1.92C0 .86.86 0 1.92 0h4.53Z"/></defs><g fill="none" fill-rule="evenodd"><mask id="b" fill="#fff"><use xlink:href="#a"/></mask><use xlink:href="#a" fill="#949494" fill-rule="nonzero"/></g></svg>