<svg xmlns="http://www.w3.org/2000/svg" xmlns:xlink="http://www.w3.org/1999/xlink" width="24" height="24"><defs><path id="a" d="M10.056 14.6c.3 0 .542.244.542.548v2.825l1.974-1.997a.546.546 0 0 1 .773-.001.551.551 0 0 1-.001.77l-1.98 2.008h2.8c.298 0 .54.245.54.549 0 .299-.242.544-.54.544h-2.8l1.981 2.008c.1.106.157.24.157.382a.558.558 0 0 1-.157.386.534.534 0 0 1-.773.003l-1.974-2.002v2.83c0 .3-.241.547-.542.547a.545.545 0 0 1-.541-.546v-2.831l-1.977 2.002a.533.533 0 0 1-.77-.003.546.546 0 0 1-.157-.383.54.54 0 0 1 .154-.385l1.988-2.008h-2.8a.548.548 0 0 1 0-1.093h2.8l-1.985-2.01a.528.528 0 0 1-.157-.38c0-.15.054-.28.157-.383a.54.54 0 0 1 .77-.003l1.977 1.996v-2.825c0-.304.242-.548.54-.548ZM7.458 7.3c.697 0 1.374.116 2.016.332.35.113.693.257 1.018.43.558.303 1.074.69 1.534 1.157.414.417.768.884 1.053 1.393l.123.221.25-.046a4.709 4.709 0 0 1 3.514.72c.318.211.603.46.86.738a4.855 4.855 0 0 1 1.293 3.3 4.831 4.831 0 0 1-2.116 3.998l-.638-.865a3.76 3.76 0 0 0 1.68-3.133c0-2.07-1.663-3.755-3.707-3.755-.61 0-1.202.15-1.738.435-.687-2.25-2.776-3.836-5.142-3.836-2.972 0-5.387 2.447-5.387 5.455 0 1.597.685 3.03 1.767 4.028l-.683.815c-.085-.077-.18-.134-.264-.216A6.558 6.558 0 0 1 1 13.844c0-1.748.673-3.39 1.89-4.625A6.377 6.377 0 0 1 7.459 7.3Zm5.733-2.92c2.635 0 4.777 2.17 4.777 4.839 0 .352-.04.693-.114 1.029-.216-.202-.426-.415-.667-.572-.1-.069-.209-.117-.313-.178.007-.094.022-.184.022-.28 0-2.07-1.663-3.755-3.705-3.755-.874 0-1.697.314-2.346.859l-.205-.134a7.482 7.482 0 0 0-.825-.35c.883-.905 2.086-1.458 3.376-1.458Zm9.302 4.596c.28 0 .507.23.507.516a.511.511 0 0 1-.507.513h-1.888a.51.51 0 0 1-.507-.513.51.51 0 0 1 .507-.516Zm-2.357-5.9a.513.513 0 0 1 .723-.014.502.502 0 0 1 .001.722L19.501 5.16a.512.512 0 0 1-.723.01.51.51 0 0 1-.001-.719ZM7.02 3.064a.52.52 0 0 1 .726.006l1.372 1.364c.2.201.207.521.007.718a.514.514 0 0 1-.726-.006L7.028 3.784a.511.511 0 0 1-.007-.72ZM13.488 0c.28 0 .507.23.507.512v1.93a.51.51 0 0 1-.507.512.512.512 0 0 1-.508-.513V.512c0-.283.23-.512.508-.512Z"/></defs><g fill="none" fill-rule="evenodd"><mask id="b" fill="#fff"><use xlink:href="#a"/></mask><use xlink:href="#a" fill="#0C2340" fill-rule="nonzero"/></g></svg>