<svg xmlns="http://www.w3.org/2000/svg" xmlns:xlink="http://www.w3.org/1999/xlink" width="24" height="24"><defs><path id="a" d="M10.911 15.33a.609.609 0 0 1 .28.795l-3.328 7.53a.575.575 0 0 1-.77.29.611.611 0 0 1-.28-.794l3.329-7.534a.573.573 0 0 1 .77-.287Zm3.437 0a.602.602 0 0 1 .278.789l-3.004 6.98a.576.576 0 0 1-.77.288.607.607 0 0 1-.283-.79l3.011-6.98a.569.569 0 0 1 .768-.288Zm-6.725 0a.608.608 0 0 1 .282.794l-2.299 5.055a.572.572 0 0 1-.766.29.61.61 0 0 1-.281-.794l2.296-5.057a.572.572 0 0 1 .768-.289ZM8.1 6.11c.713 0 1.405.12 2.062.346.358.12.706.269 1.04.45.57.317 1.097.721 1.567 1.209.423.435.783.925 1.075 1.455l.126.232.256-.047a4.728 4.728 0 0 1 3.593.751c.324.222.614.48.879.77a5.155 5.155 0 0 1 1.32 3.452 5.09 5.09 0 0 1-2.162 4.179L17.204 18a3.954 3.954 0 0 0 1.716-3.273c0-2.166-1.7-3.928-3.787-3.928-.625 0-1.23.16-1.777.458-.702-2.354-2.84-4.012-5.256-4.012-3.035 0-5.504 2.56-5.504 5.703 0 1.669.698 3.167 1.806 4.21l-.7.85c-.086-.083-.185-.141-.266-.227A6.908 6.908 0 0 1 1.5 12.95c0-1.829.685-3.544 1.936-4.834C4.68 6.823 6.336 6.109 8.1 6.109Zm5.869-1.528c2.693 0 4.884 2.268 4.884 5.058 0 .367-.044.723-.117 1.076-.224-.211-.435-.436-.683-.6-.103-.07-.213-.121-.318-.187.006-.098.02-.19.02-.289 0-2.164-1.697-3.925-3.786-3.925-.893 0-1.735.327-2.399.897-.07-.043-.137-.098-.209-.14a7.217 7.217 0 0 0-.844-.367c.903-.946 2.132-1.523 3.452-1.523Zm8.011 4.807c.284 0 .52.243.52.54a.531.531 0 0 1-.52.537h-1.927a.527.527 0 0 1-.52-.536c0-.298.23-.54.52-.54Zm-2.408-7.7a.52.52 0 0 1 .739-.014c.207.205.207.54.003.753L18.922 3.87a.517.517 0 0 1-.739.01.541.541 0 0 1-.001-.752ZM6.156 1.68a.517.517 0 0 1 .741.006l1.404 1.425a.533.533 0 0 1 .007.748.517.517 0 0 1-.74-.003L6.165 2.431a.54.54 0 0 1-.008-.75ZM12.774 0c.285 0 .517.24.517.535V2.55a.528.528 0 0 1-.517.537.534.534 0 0 1-.523-.537V.535c0-.295.239-.535.523-.535Z"/></defs><g fill="none" fill-rule="evenodd"><mask id="b" fill="#fff"><use xlink:href="#a"/></mask><use xlink:href="#a" fill="#0C2340" fill-rule="nonzero"/></g></svg>