<svg xmlns="http://www.w3.org/2000/svg" xmlns:xlink="http://www.w3.org/1999/xlink" width="24" height="24"><defs><path id="a" d="m10.504 15.044 2.526 4.446c.282.45.442.984.442 1.548A2.966 2.966 0 0 1 10.504 24a2.966 2.966 0 0 1-2.533-4.51l2.533-4.446ZM7.941 6.018c.694 0 1.37.114 2.01.33.35.115.69.258 1.015.432a6.673 6.673 0 0 1 1.53 1.156c.413.42.766.886 1.05 1.394l.122.223.25-.047a4.704 4.704 0 0 1 4.363 1.46 4.874 4.874 0 0 1 1.29 3.302 4.845 4.845 0 0 1-2.109 4.002l-.636-.864a3.77 3.77 0 0 0 1.673-3.138c0-2.072-1.658-3.757-3.695-3.757-.61 0-1.202.15-1.734.435-.688-2.253-2.771-3.838-5.13-3.838-2.965 0-5.372 2.448-5.372 5.458 0 1.6.68 3.032 1.76 4.03l-.678.818c-.086-.079-.183-.136-.266-.218a6.562 6.562 0 0 1-1.884-4.63 6.56 6.56 0 0 1 1.884-4.63 6.36 6.36 0 0 1 4.557-1.918Zm5.982-1.505c2.628 0 4.766 2.173 4.766 4.844 0 .35-.04.694-.118 1.028-.215-.202-.42-.414-.664-.572-.1-.067-.21-.119-.31-.179.009-.093.022-.182.022-.277 0-2.073-1.658-3.76-3.696-3.76a3.64 3.64 0 0 0-2.342.858c-.068-.039-.134-.093-.205-.132-.25-.135-.541-.245-.824-.352.883-.906 2.084-1.458 3.37-1.458Zm8.07 4.751a.51.51 0 0 1 .507.515.513.513 0 0 1-.507.514H20.11a.513.513 0 0 1-.505-.514.51.51 0 0 1 .505-.515Zm-2.395-6.102c.2-.2.527-.204.723-.012a.505.505 0 0 1 .001.72L18.968 5.25a.507.507 0 1 1-.725-.709ZM6.171 3.156a.51.51 0 0 1 .723.006l1.373 1.364a.506.506 0 1 1-.717.712L6.18 3.877a.51.51 0 0 1-.008-.721ZM12.815 0a.51.51 0 0 1 .509.51v1.932a.512.512 0 0 1-.509.514.515.515 0 0 1-.508-.514V.51c0-.281.232-.51.508-.51Z"/></defs><g fill="none" fill-rule="evenodd"><mask id="b" fill="#fff"><use xlink:href="#a"/></mask><use xlink:href="#a" fill="#0C2340" fill-rule="nonzero"/></g></svg>