<svg xmlns="http://www.w3.org/2000/svg" xmlns:xlink="http://www.w3.org/1999/xlink" width="24" height="24"><defs><path id="a" d="m13.764 0 .828 3.384a8.78 8.78 0 0 1 1.656.696l2.976-1.812 2.508 2.508-1.8 2.976c.276.516.504 1.08.684 1.656l3.384.828v3.54l-3.384.828a9.606 9.606 0 0 1-.684 1.656l1.8 2.976-2.508 2.508-2.976-1.812a8.78 8.78 0 0 1-1.656.696L13.764 24h-3.54l-.828-3.372a8.78 8.78 0 0 1-1.656-.696l-2.976 1.812-2.508-2.508 1.812-2.976a8.78 8.78 0 0 1-.696-1.656L0 13.776v-3.54l3.372-.828a8.78 8.78 0 0 1 .696-1.656L2.256 4.776l2.508-2.508L7.74 4.08a8.78 8.78 0 0 1 1.656-.696L10.224 0h3.54ZM12 7.5a4.507 4.507 0 1 0-.01 9.01A4.507 4.507 0 0 0 12 7.5Z"/></defs><g fill="none" fill-rule="evenodd"><mask id="b" fill="#fff"><use xlink:href="#a"/></mask><use xlink:href="#a" fill="#0C2340" fill-rule="nonzero"/></g></svg>