<svg xmlns="http://www.w3.org/2000/svg" xmlns:xlink="http://www.w3.org/1999/xlink" width="24" height="24"><defs><path id="a" d="M17.508 17.623c-.016-.016-3.46-1.64-10.332-4.875.048-.241.084-.483.084-.748a3.45 3.45 0 0 0-.12-.869l10.296-4.827a3.624 3.624 0 0 0 2.928 1.497A3.641 3.641 0 0 0 24 4.156C24 2.141 22.368.5 20.364.5c-2.004 0-3.636 1.641-3.636 3.656 0 .17.036.326.048.483-.024.008-3.52 1.641-10.488 4.9-.672-.725-1.608-1.183-2.664-1.183C1.62 8.356 0 9.996 0 12c0 2.015 1.62 3.656 3.624 3.656 1.104 0 2.076-.506 2.748-1.29 6.92 3.225 10.396 4.842 10.428 4.85-.036.217-.072.423-.072.64a3.641 3.641 0 0 0 3.636 3.644A3.641 3.641 0 0 0 24 19.856c0-2.015-1.632-3.657-3.636-3.657-1.164 0-2.184.568-2.856 1.424Z"/></defs><g fill="none" fill-rule="evenodd"><mask id="b" fill="#fff"><use xlink:href="#a"/></mask><use xlink:href="#a" fill="#0C2340" fill-rule="nonzero"/></g></svg>