<svg xmlns="http://www.w3.org/2000/svg" xmlns:xlink="http://www.w3.org/1999/xlink" width="24" height="24"><defs><path id="a" d="m10.383 14.918 2.533 4.507c.28.455.44.998.44 1.57 0 1.66-1.332 3.005-2.973 3.005-1.643 0-2.975-1.346-2.975-3.004 0-.573.163-1.116.439-1.571l2.536-4.507ZM7.947 7.459c.696 0 1.372.113 2.012.327.35.116.693.256 1.016.43a6.586 6.586 0 0 1 2.583 2.532l.123.223.248-.048c.294-.052.591-.08.888-.08.969 0 1.868.293 2.623.797a4.82 4.82 0 0 1 2.146 4.014 4.8 4.8 0 0 1-2.109 3.975l-.64-.86a3.728 3.728 0 0 0 1.678-3.114c0-2.06-1.66-3.733-3.698-3.733-.612 0-1.2.15-1.736.432-.686-2.238-2.772-3.813-5.134-3.813-2.967 0-5.376 2.431-5.376 5.42 0 1.592.682 3.016 1.763 4.006l-.68.81c-.088-.077-.184-.133-.265-.216a6.496 6.496 0 0 1-1.889-4.6 6.49 6.49 0 0 1 1.89-4.597 6.37 6.37 0 0 1 4.557-1.905ZM13.04.054a1.017 1.017 0 0 1 1.038.239 1 1 0 0 1 .209 1.128 4.998 4.998 0 0 0-.183 3.76c.921 2.638 3.828 4.045 6.48 3.133a4.33 4.33 0 0 0 .484-.195l.096-.036a1.014 1.014 0 0 1 1.04.237c.298.297.38.746.206 1.126-.576 1.248-1.69 2.405-2.815 3.126-.139-.309-.254-.625-.458-.89.977-.635 1.885-1.631 2.358-2.65a7.48 7.48 0 0 1-.58.23c-3.182 1.091-6.662-.59-7.764-3.754a5.99 5.99 0 0 1 .22-4.505 6.035 6.035 0 0 0-3.496 5.063c-.005-.001-.01-.004-.015-.007a7.039 7.039 0 0 0-.975-.238 7.01 7.01 0 0 1 4.059-5.73c.031-.01.06-.022.096-.037Z"/></defs><g fill="none" fill-rule="evenodd"><mask id="b" fill="#fff"><use xlink:href="#a"/></mask><use xlink:href="#a" fill="#0C2340" fill-rule="nonzero"/></g></svg>