<svg xmlns="http://www.w3.org/2000/svg" xmlns:xlink="http://www.w3.org/1999/xlink" width="24" height="24"><defs><path id="a" d="m22.433 20.006.137-.487c.382-1.354-.196-2.778-1.42-3.454l-.53-.3-1.743 3.186c-.34.482-.891.348-1 .29a.758.758 0 0 1-.284-1.016l1.734-3.176-1.184-.657-1.92 3.505c-.276.486-.882.357-1 .287a.755.755 0 0 1-.284-1.014l1.92-3.495-2.635-1.473h-.01l-5.339 5.624c-.343.358-.783.258-1.038.011s-.294-.757-.02-1.056l5.79-6.081-4.692-.399a.744.744 0 0 1 .118-1.483l5.749.477.147-1.353-5.72-.488a.745.745 0 0 1-.677-.806c.04-.409.392-.717.794-.677l5.76.478.137-1.305a.753.753 0 0 0-.254-.657l-1.205-1.024a2.15 2.15 0 0 0-2.166-.39l-1.792.658-5.065-1.174a2.18 2.18 0 0 0-1.713.318c-.51.34-.852.887-.95 1.483l-.951 5.694a.747.747 0 0 0 .294.737l.626.449-1.155 6.04a4.56 4.56 0 0 0 .324 2.728h-.48a.747.747 0 0 0 0 1.494h22.53a.746.746 0 0 0 .734-.747.74.74 0 0 0-.734-.747h-.833Z"/></defs><g fill="none" fill-rule="evenodd"><mask id="b" fill="#fff"><use xlink:href="#a"/></mask><use xlink:href="#a" fill="#0C2340" fill-rule="nonzero"/></g></svg>