<svg xmlns="http://www.w3.org/2000/svg" xmlns:xlink="http://www.w3.org/1999/xlink" width="24" height="24"><defs><path id="a" d="M11.954 10.933c.4 0 .72.324.72.723v4.068l2.882-2.877a.722.722 0 0 1 1.021 0 .71.71 0 0 1 0 1.02l-2.883 2.879h4.08c.398 0 .72.325.72.723a.719.719 0 0 1-.72.718h-4.08l2.883 2.88a.724.724 0 0 1 .216.507.726.726 0 0 1-.216.515.726.726 0 0 1-1.025-.002l-2.878-2.877v4.071c0 .398-.32.719-.72.719a.718.718 0 0 1-.72-.719v-4.07l-2.883 2.878a.716.716 0 0 1-.511.211.717.717 0 0 1-.51-.21.72.72 0 0 1-.003-1.023l2.884-2.88H6.134a.72.72 0 0 1 0-1.442h4.077L7.33 13.868a.714.714 0 0 1-.003-1.017.727.727 0 0 1 .513-.213.71.71 0 0 1 .511.213l2.883 2.871v-4.065a.72.72 0 0 1 .72-.723ZM8.554 0c2.284 0 4.438.89 6.05 2.5A8.619 8.619 0 0 1 16 4.324l.163.29.332-.062c.387-.072.78-.108 1.174-.108 3.488 0 6.331 2.835 6.331 6.323a6.3 6.3 0 0 1-2.592 5.085l-.74-1.22a4.884 4.884 0 0 0 1.909-3.865 4.912 4.912 0 0 0-7.207-4.337 7.172 7.172 0 0 0-6.815-5.01c-3.933 0-7.133 3.198-7.133 7.124 0 2.208 1.02 4.171 2.6 5.476l-.943 1.083A8.468 8.468 0 0 1 0 8.542a8.48 8.48 0 0 1 2.506-6.041A8.512 8.512 0 0 1 8.555 0Z"/></defs><g fill="none" fill-rule="evenodd"><mask id="b" fill="#fff"><use xlink:href="#a"/></mask><use xlink:href="#a" fill="#0C2340" fill-rule="nonzero"/></g></svg>