<svg xmlns="http://www.w3.org/2000/svg" xmlns:xlink="http://www.w3.org/1999/xlink" width="24" height="24"><defs><path id="a" d="m6.436 4.912 6.15.003a1.687 1.687 0 0 1 1.516 1.107l2.237 6.143c.625.037 1.31.29 1.31.385v4.054h1.05c.304 0 .552.248.552.554v.493h-6.124v-.493c0-.306.248-.554.551-.554h1.07v-3.329L12.707 7.67h-.598v15.393a.937.937 0 1 1-1.875 0v-8.4H9.11v8.4a.937.937 0 1 1-1.875 0V7.67h-.61v6.39a.937.937 0 1 1-1.875 0V6.6c0-.933.756-1.688 1.687-1.688Zm12.815 17.274v.5a.554.554 0 0 1-.552.553h-.32v.595a.1.1 0 0 1-.101.1h-.96a.1.1 0 0 1-.1-.1v-.338H15.18l-.006.008v.33a.1.1 0 0 1-.1.1h-.96a.1.1 0 0 1-.1-.1v-.595h-.336a.554.554 0 0 1-.551-.554v-.5h6.124Zm0-4.11v3.685h-6.124v-3.684h6.124Zm-2.266-4.995h-.314a.939.939 0 0 1-1.28 1.129l.002 2.393h1.592v-3.522ZM9.679 0c1.156 0 2.107.944 2.107 2.11a2.114 2.114 0 0 1-4.228 0c0-1.166.949-2.11 2.121-2.11Z"/></defs><g fill="none" fill-rule="evenodd"><mask id="b" fill="#fff"><use xlink:href="#a"/></mask><use xlink:href="#a" fill="#0C2340" fill-rule="nonzero"/></g></svg>