<svg xmlns="http://www.w3.org/2000/svg" xmlns:xlink="http://www.w3.org/1999/xlink" width="24" height="24"><defs><path id="a" d="M14.884 10.9c.343.161.492.577.333.923l-5.17 11.774a.678.678 0 0 1-.91.338.703.703 0 0 1-.336-.924l5.174-11.773a.677.677 0 0 1 .909-.337Zm2.786 2.178c.343.16.492.576.336.924l-4.06 8.96a.685.685 0 0 1-.914.34.705.705 0 0 1-.332-.926l4.06-8.962a.678.678 0 0 1 .91-.336Zm-6.674-2.192c.344.16.492.578.333.926L6.633 22.28a.685.685 0 0 1-.914.337.703.703 0 0 1-.331-.925l4.699-10.47a.679.679 0 0 1 .91-.337Zm-3.86.293c.344.16.49.576.335.927l-3.293 7.146a.68.68 0 0 1-.909.336.704.704 0 0 1-.336-.925l3.293-7.146a.68.68 0 0 1 .91-.338ZM8.555 0c2.283 0 4.435.903 6.047 2.544A8.71 8.71 0 0 1 16 4.395l.162.294.33-.064a6.322 6.322 0 0 1 1.178-.108C21.156 4.517 24 7.398 24 10.94a6.41 6.41 0 0 1-4.43 6.101l.88-2.008a4.979 4.979 0 0 0 2.127-4.093c0-2.748-2.201-4.983-4.909-4.983-.816 0-1.594.2-2.302.578-.916-2.987-3.68-5.094-6.811-5.094-3.935 0-7.137 3.249-7.137 7.24 0 1.424.413 2.743 1.114 3.862l-.675 1.54A8.699 8.699 0 0 1 0 8.682c0-2.317.888-4.5 2.502-6.138A8.438 8.438 0 0 1 8.555 0Z"/></defs><g fill="none" fill-rule="evenodd"><mask id="b" fill="#fff"><use xlink:href="#a"/></mask><use xlink:href="#a" fill="#0C2340" fill-rule="nonzero"/></g></svg>