<svg xmlns="http://www.w3.org/2000/svg" xmlns:xlink="http://www.w3.org/1999/xlink" width="24" height="24"><defs><path id="a" d="M1.992 3.122c.245-.06 2.473-.468 3.77.528.54.432.846 1.056.87 1.824v3.791H22.5v2.556c0 1.356-.87 2.508-2.094 2.94-.228.088-.845.152-1.848.192a.29.29 0 0 1-.023.02l-.056.05c-.304.26-1.494 1.254-3.57 2.978l1.567 1.283c.404-.24.87-.396 1.371-.396 1.433 0 2.608 1.152 2.608 2.556 0 1.404-1.175 2.556-2.608 2.556-1.432 0-2.608-1.152-2.608-2.556 0-.48.147-.912.38-1.296l-1.665-1.367-1.567 1.283c.257.408.416.876.416 1.38 0 1.404-1.163 2.556-2.608 2.556-1.433 0-2.596-1.152-2.596-2.556 0-1.404 1.163-2.556 2.596-2.556.478 0 .918.132 1.298.348l1.518-1.235a535.684 535.684 0 0 1-3.57-2.979l-.057-.048a.29.29 0 0 1-.022-.021c-1.012-.04-1.632-.104-1.86-.192a3.119 3.119 0 0 1-2.094-2.94V5.486c-.013-.396-.147-.684-.417-.888-.71-.564-2.265-.408-2.754-.312a.604.604 0 0 1-.723-.456.594.594 0 0 1 .478-.708Zm15.855 16.966c-.759 0-1.383.612-1.383 1.356 0 .744.624 1.356 1.383 1.356.76 0 1.384-.612 1.384-1.356 0-.744-.625-1.356-1.384-1.356Zm-7.652 0c-.76 0-1.371.612-1.371 1.356 0 .744.612 1.356 1.371 1.356.771 0 1.384-.612 1.384-1.356 0-.744-.613-1.356-1.384-1.356Zm6.514-5.135H11.21l2.743 2.256 2.755-2.256ZM14.132 0l.103.001c6.294.948 7.8 5.04 8.167 7.247.049.312.074.588.074.816h-8.938V.602c0-.18.073-.348.208-.456a.66.66 0 0 1 .49-.144Z"/></defs><g fill="none" fill-rule="evenodd"><mask id="b" fill="#fff"><use xlink:href="#a"/></mask><use xlink:href="#a" fill="#0C2340" fill-rule="nonzero"/></g></svg>