<svg xmlns="http://www.w3.org/2000/svg" xmlns:xlink="http://www.w3.org/1999/xlink" width="24" height="24"><defs><path id="a" d="M12 20.223c.278 0 .504.227.504.501v2.774A.504.504 0 0 1 12 24a.501.501 0 0 1-.5-.502v-2.774c0-.274.223-.5.5-.5Zm-5.815-2.407a.498.498 0 0 1 0 .709l-1.959 1.96a.5.5 0 1 1-.71-.71l1.96-1.96a.5.5 0 0 1 .71 0Zm12.34 0 1.959 1.96a.502.502 0 0 1-.71.71l-1.958-1.961a.498.498 0 0 1 0-.71.5.5 0 0 1 .709 0ZM12 5.634a6.366 6.366 0 1 1 0 12.732 6.367 6.367 0 1 1 0-12.732Zm0 1.248A5.116 5.116 0 0 0 6.883 12 5.116 5.116 0 0 0 12 17.118 5.115 5.115 0 0 0 17.117 12 5.115 5.115 0 0 0 12 6.882Zm-8.726 4.616a.503.503 0 1 1 0 1.005H.504a.503.503 0 1 1 0-1.005h2.77Zm20.225 0a.503.503 0 0 1 0 1.005h-2.773a.504.504 0 0 1-.504-.503c0-.277.228-.502.504-.502h2.773Zm-3.015-7.982a.502.502 0 0 1 0 .71l-1.96 1.959a.499.499 0 0 1-.708 0 .496.496 0 0 1 0-.708l1.957-1.96a.502.502 0 0 1 .711 0Zm-16.257 0 1.958 1.96a.496.496 0 0 1 0 .709.499.499 0 0 1-.708 0l-1.96-1.96a.502.502 0 0 1 .711-.71ZM12 0c.278 0 .504.226.504.502v2.774a.503.503 0 0 1-1.005 0V.502C11.5.226 11.723 0 12 0Z"/></defs><g fill="none" fill-rule="evenodd"><mask id="b" fill="#fff"><use xlink:href="#a"/></mask><use xlink:href="#a" fill="#0C2340" fill-rule="nonzero"/></g></svg>