<svg xmlns="http://www.w3.org/2000/svg" xmlns:xlink="http://www.w3.org/1999/xlink" width="24" height="24"><defs><path id="a" d="M4.6 15.607c1.103.815 1.919 1.42 2.45 1.815.043.033.089.096.088.145l.004.345c.002.287-.016.572-.16.845-.792 1.493-1.571 2.992-2.361 4.486-.285.539-.836.823-1.401.744a1.35 1.35 0 0 1-1.158-1.067c-.07-.327.007-.63.17-.919.747-1.321 1.494-2.643 2.23-3.97.08-.143.128-.32.132-.483.01-.418.012-1.064.006-1.941ZM7.792 5.74c.572.074 1.147.133 1.72.202.631.076 1.077.404 1.373.945.433.79.868 1.58 1.32 2.362.067.118.213.23.347.27l.731.212 1.468.405c.685.192 1.06.784.888 1.4-.183.657-.812 1.002-1.516.814-.967-.259-1.929-.534-2.893-.799a1.246 1.246 0 0 1-.803-.63c-.185-.342-.376-.68-.564-1.018l-.06.006c-.048.284-.1.567-.145.851-.176 1.115-.345 2.23-.528 3.344-.036.223-.01.375.2.524.733.517 1.44 1.068 2.168 1.592.364.262.576.593.653 1.024.309 1.73.625 3.459.939 5.188.133.732-.32 1.38-1.074 1.538-.694.145-1.411-.29-1.56-1.003-.231-1.122-.42-2.253-.628-3.38-.076-.415-.158-.83-.223-1.246a.607.607 0 0 0-.27-.417C8.013 16.946 6.7 15.959 5.38 14.98c-.582-.431-.8-.987-.664-1.682.41-2.097.816-4.194 1.23-6.29.19-.964.838-1.4 1.847-1.27Zm-3.585.057c.142.014.285.016.424.043.363.071.58.375.512.726-.443 2.3-.888 4.602-1.336 6.902-.092.468-.39.652-.868.552-.399-.084-.798-.167-1.194-.262-1.142-.275-1.764-1.483-1.233-2.5.875-1.674 1.795-3.326 2.704-4.983.207-.377.563-.507.991-.478ZM8.833 0a2.487 2.487 0 0 1 2.482 2.492 2.487 2.487 0 0 1-2.482 2.492 2.487 2.487 0 0 1-2.481-2.492A2.487 2.487 0 0 1 8.833 0Z"/></defs><g fill="none" fill-rule="evenodd" transform="translate(4)"><mask id="b" fill="#fff"><use xlink:href="#a"/></mask><use xlink:href="#a" fill="#000" fill-rule="nonzero"/></g></svg>