<svg xmlns="http://www.w3.org/2000/svg" xmlns:xlink="http://www.w3.org/1999/xlink" width="24" height="24"><defs><path id="a" d="m2.282.525.102.091 19 19a1.25 1.25 0 0 1-1.666 1.859l-.102-.091-19-19A1.25 1.25 0 0 1 2.282.525Zm3.074 8.72 7.408 7.407-.437 2.828c-.066.274-.307.394-.585.315-.088-.025-.122-.122-.188-.188L8.04 16.092l-6.767 5.324a.46.46 0 0 1-.656-.023c-.184-.184-.234-.47-.055-.688l5.356-6.735-3.515-3.516c-.207-.206-.3-.446-.103-.643a.487.487 0 0 1 .23-.129l2.827-.438Zm8.17-8.77a.547.547 0 0 1 .252.143l7.613 7.612a.516.516 0 0 1 .017.73.487.487 0 0 1-.246.132l-4.285.282-1.807 1.807-4.243-4.242 1.808-1.808.281-4.284a.49.49 0 0 1 .61-.373Z"/></defs><g fill="none" fill-rule="evenodd" transform="translate(1 1)"><mask id="b" fill="#fff"><use xlink:href="#a"/></mask><use xlink:href="#a" fill="#D8D8D8"/></g></svg>