<svg xmlns="http://www.w3.org/2000/svg" xmlns:xlink="http://www.w3.org/1999/xlink" width="24" height="24"><defs><path id="a" d="m14.453 4.42 5.123 5.124-8.054 8.056c-.767.771-1.816.95-2.864 1.022l-1.049.051-1.94 1.941a.443.443 0 0 1-.626 0l-.329-.328-3.61 3.611C.974 24 .797 24 .62 24H0v-.62c0-.177 0-.354.094-.475l3.62-3.62-.33-.33a.443.443 0 0 1 0-.626l1.946-1.946.055-1.015c.063-1.066.245-2.11.996-2.873l.749-.75 2.027 2.033a.355.355 0 0 0 .492.009l.51-.51a.356.356 0 0 0 .008-.49L8.13 10.748l1.203-1.203 2.004 2.004a.398.398 0 0 0 .554.01l.01-.01.438-.438a.399.399 0 0 0 .009-.554l-.01-.01-2.003-2.004 1.218-1.218 2.023 2.028a.355.355 0 0 0 .492.009l.509-.51a.356.356 0 0 0 .008-.49l-2.032-2.038 1.9-1.904ZM19.89.104a.355.355 0 0 1 .491-.009l3.516 3.516a.36.36 0 0 1 .009.496l-.51.51a.355.355 0 0 1-.49.008l-1.263-1.262-1.563 1.564 2.99 2.989a.356.356 0 0 1 .008.491L22.01 9.478a.355.355 0 0 1-.492.009l-6.99-7.002a.356.356 0 0 1-.01-.491L15.587.927a.355.355 0 0 1 .492-.009L19.08 3.92l1.563-1.563-1.253-1.253a.356.356 0 0 1-.009-.492l.509-.509Z"/></defs><g fill="none" fill-rule="evenodd"><mask id="b" fill="#fff"><use xlink:href="#a"/></mask><use xlink:href="#a" fill="#000" fill-rule="nonzero"/></g></svg>