<svg xmlns="http://www.w3.org/2000/svg" xmlns:xlink="http://www.w3.org/1999/xlink" width="24" height="24"><defs><path id="a" d="M18.628 13.271c2.469 0 4.476 2.022 4.476 4.507 0 2.052-1.656 3.722-3.698 3.722-1.699 0-3.082-1.39-3.082-3.097 0-1.434 1.158-2.6 2.584-2.6a.6.6 0 0 1 .596.6.6.6 0 0 1-.596.598 1.4 1.4 0 0 0-1.393 1.402c0 1.046.846 1.899 1.891 1.899a2.52 2.52 0 0 0 2.51-2.524c0-1.824-1.475-3.309-3.288-3.309h-7.783a.6.6 0 0 1-.6-.598c0-.331.271-.6.6-.6ZM7.36 2.5c1.968 0 3.816.79 5.21 2.223.468.484.874 1.03 1.197 1.617l.14.257.287-.053c.332-.065.672-.1 1.011-.1 1.316 0 2.514.496 3.456 1.302l-.907.855a4.12 4.12 0 0 0-2.549-.898c-.697 0-1.372.179-1.98.505C12.438 5.6 10.06 3.76 7.36 3.76c-3.387 0-6.14 2.839-6.14 6.327 0 3.462 2.717 6.28 6.07 6.321h7.714l-.676 1.26h-6.98c-1.96-.002-3.807-.79-5.197-2.22A7.66 7.66 0 0 1 0 10.088a7.67 7.67 0 0 1 2.151-5.364C3.544 3.29 5.392 2.5 7.361 2.5Zm14.243 4.05A2.407 2.407 0 0 1 24 8.959c0 1.576-1.28 2.86-2.847 2.86h-8.93a.596.596 0 0 1-.593-.6c0-.33.265-.596.594-.596h8.929c.914 0 1.655-.748 1.655-1.664a1.21 1.21 0 0 0-1.205-1.21.596.596 0 0 1-.595-.6c0-.33.264-.6.595-.6Z"/></defs><g fill="none" fill-rule="evenodd"><mask id="b" fill="#fff"><use xlink:href="#a"/></mask><use xlink:href="#a" fill="#0C2340" fill-rule="nonzero"/></g></svg>