<svg xmlns="http://www.w3.org/2000/svg" xmlns:xlink="http://www.w3.org/1999/xlink" width="24" height="24"><defs><path id="a" d="m17.69 15.264 2.458 4.334c.274.44.427.963.427 1.513a2.886 2.886 0 1 1-5.772 0c0-.55.156-1.072.425-1.513l2.461-4.334ZM9.477 10.07a.58.58 0 0 1 .576.586v3.02l2.092-2.137a.617.617 0 0 1 .419-.17c.15 0 .298.06.405.17a.584.584 0 0 1 .166.414.574.574 0 0 1-.17.41l-2.1 2.148h2.97c.32 0 .578.262.578.585a.58.58 0 0 1-.577.582h-2.972l2.105 2.148a.583.583 0 0 1 .166.408.595.595 0 0 1-.163.41.569.569 0 0 1-.827.002l-2.092-2.136v3.026a.579.579 0 0 1-.576.583.581.581 0 0 1-.578-.583V16.51l-2.095 2.136a.582.582 0 0 1-.419.176.58.58 0 0 1-.406-.177.607.607 0 0 1-.003-.819l2.115-2.148H5.12a.584.584 0 0 1 0-1.167h2.972l-2.108-2.148a.599.599 0 0 1-.005-.817.57.57 0 0 1 .407-.175c.16 0 .308.06.419.17L8.9 13.677v-3.021c0-.324.258-.586.578-.586ZM8.555 0a8.52 8.52 0 0 1 6.052 2.502 8.56 8.56 0 0 1 1.392 1.822l.167.29.325-.063a6.767 6.767 0 0 1 1.178-.107C21.16 4.444 24 7.278 24 10.765c0 1.863-.82 3.53-2.112 4.686l-.836-1.145a4.878 4.878 0 0 0 1.524-3.541 4.913 4.913 0 0 0-7.21-4.336A7.162 7.162 0 0 0 8.555 1.42C4.62 1.42 1.42 4.615 1.42 8.544c0 1.864.729 3.553 1.904 4.823l-.817 1.22-.006-.005A8.492 8.492 0 0 1 0 8.544c0-2.28.891-4.428 2.502-6.042A8.523 8.523 0 0 1 8.555 0Z"/></defs><g fill="none" fill-rule="evenodd"><mask id="b" fill="#fff"><use xlink:href="#a"/></mask><use xlink:href="#a" fill="#0C2340" fill-rule="nonzero"/></g></svg>