<svg xmlns="http://www.w3.org/2000/svg" xmlns:xlink="http://www.w3.org/1999/xlink" width="24" height="24"><defs><path id="a" d="M19.972 8.271c-1.889.409-4.66-2.33-4.242-4.242L19.5.258A6.345 6.345 0 0 0 17.708 0a6.268 6.268 0 0 0-6.247 6.761 3.209 3.209 0 0 1-.93 2.514L.867 18.937a2.966 2.966 0 0 0 4.195 4.195l9.663-9.662a3.21 3.21 0 0 1 2.514-.931 6.27 6.27 0 0 0 4.93-1.82A6.236 6.236 0 0 0 24 6.291c0-.603-.086-1.207-.257-1.791l-3.77 3.771ZM3 23A2 2 0 1 1 3 18.999 2 2 0 0 1 3 23Z"/></defs><g fill="none" fill-rule="evenodd"><mask id="b" fill="#fff"><use xlink:href="#a"/></mask><use xlink:href="#a" fill="#333" fill-rule="nonzero"/></g></svg>